<svg width="505" height="513" viewBox="0 0 505 513" fill="none" xmlns="http://www.w3.org/2000/svg">
<path d="M161.886 209.171L19.3847 147.288L31.3796 130.706L157.716 187.316L65.0853 84.075L77.066 67.4975L179.696 184.542L161.886 209.171Z" fill="#020726"/>
<path d="M325.309 328.458L427.906 445.503L439.919 428.925L347.284 325.684L473.639 382.294L485.63 365.712L343.119 303.829L325.309 328.458Z" fill="#020726"/>
<path d="M353.501 241.3L505 207.204V227.701L369.662 256.5L505 285.318V305.815L353.501 271.724V241.3Z" fill="#020726"/>
<path d="M151.499 241.3L0 207.186V227.682L135.338 256.5L0 285.318V305.815L151.499 271.724V241.3Z" fill="#020726"/>
<path d="M325.309 184.542L427.906 67.4975L439.919 84.075L347.284 187.316L473.639 130.706L485.63 147.288L343.119 209.171L325.309 184.542Z" fill="#020726"/>
<path d="M161.886 303.829L19.3847 365.712L31.3796 382.294L157.716 325.684L65.0853 428.925L77.066 445.503L179.696 328.458L161.886 303.829Z" fill="#020726"/>
<path d="M269.306 155.292L283.844 0L303.229 6.33175L288.686 144.557L357.809 24.1443L377.193 30.476L298.123 164.702L269.306 155.292Z" fill="#020726"/>
<path d="M206.882 348.303L127.792 482.524L147.177 488.856L216.281 368.443L201.738 506.668L221.123 513L235.666 357.708L206.882 348.303Z" fill="#020726"/>
<path d="M206.882 164.697L127.792 30.476L147.177 24.1443L216.281 144.557L201.738 6.33175L221.156 0L235.699 155.292L206.882 164.697Z" fill="#020726"/>
<path d="M269.306 357.708L283.844 513L303.229 506.668L288.686 368.443L357.79 488.856L377.174 482.524L298.123 348.299L269.306 357.708Z" fill="#020726"/>
</svg>
