<svg width="278" height="198" viewBox="0 0 278 198" fill="none" xmlns="http://www.w3.org/2000/svg">
<g clip-path="url(#clip0_1284_3554)">
<path d="M92.7718 60.3128C92.2807 60.1068 91.7066 60 91.0493 60C90.2787 60 89.6215 60.1221 89.0775 60.3585C88.5336 60.595 88.0954 60.8315 87.7781 61.068L88.5034 62.2122C88.6394 62.113 88.8282 61.991 89.07 61.846C89.3117 61.7011 89.5988 61.5791 89.9312 61.4723C90.2636 61.3655 90.6338 61.3121 91.0493 61.3121C91.5177 61.3121 91.9408 61.4189 92.3034 61.6401C92.666 61.8613 92.8549 62.1893 92.8549 62.6241V64.0735C92.6358 63.9286 92.3714 63.7913 92.0465 63.6692C91.6537 63.5243 91.1853 63.4556 90.6414 63.4556C89.901 63.4556 89.2513 63.57 88.7074 63.8065C88.1634 64.0354 87.7404 64.3634 87.4457 64.7906C87.1511 65.2177 87 65.7365 87 66.3467C87 66.957 87.136 67.4223 87.4004 67.819C87.6648 68.2157 88.0199 68.5132 88.4656 68.7115C88.9113 68.9098 89.4024 69.009 89.9312 69.009C90.528 69.009 91.0644 68.9022 91.5479 68.6963C92.0314 68.4903 92.4167 68.1928 92.7113 67.7961C92.7642 67.7275 92.8095 67.6436 92.8473 67.5673V68.8183H94.3356V62.6241C94.3356 62.0596 94.1996 61.5867 93.9201 61.1976C93.6405 60.8086 93.2553 60.5111 92.7718 60.3051V60.3128ZM92.53 66.7358C92.3109 67.0638 92.0087 67.3003 91.631 67.4452C91.2457 67.5978 90.8075 67.6741 90.3089 67.6741C89.9765 67.6741 89.6743 67.6207 89.4024 67.5139C89.1304 67.4071 88.9113 67.2545 88.7527 67.0409C88.594 66.835 88.5109 66.5832 88.5109 66.2781C88.5109 65.9272 88.594 65.6297 88.7527 65.378C88.9113 65.1262 89.1606 64.9355 89.4855 64.7982C89.8103 64.6609 90.2258 64.5922 90.7245 64.5922C91.2684 64.5922 91.7594 64.6609 92.19 64.8058C92.4167 64.8821 92.6358 64.9813 92.8624 65.0957V65.439C92.8624 65.9806 92.7566 66.4078 92.5376 66.7358H92.53Z" fill="black"/>
<path d="M97.3501 68.819H98.8384V61.595H101.906V60.1914H97.3501V68.819Z" fill="black"/>
<path d="M109.136 60.5416C108.531 60.1831 107.821 60 107.02 60C106.287 60 105.63 60.1526 105.041 60.4501C104.452 60.7476 103.976 61.1671 103.598 61.7087C103.228 62.2427 102.978 62.8759 102.858 63.5853C102.835 63.7379 102.812 63.8828 102.805 64.0354C102.79 64.1879 102.79 64.3405 102.79 64.5007C102.79 65.3627 102.963 66.1331 103.318 66.8197C103.673 67.4986 104.157 68.0326 104.769 68.4216C105.381 68.8107 106.076 69.0014 106.839 69.0014C107.602 69.0014 108.199 68.9098 108.697 68.7268C109.196 68.5437 109.611 68.292 109.959 67.9563C110.306 67.6283 110.624 67.2393 110.903 66.8044L109.694 66.034C109.506 66.3467 109.287 66.6214 109.022 66.8502C108.765 67.0791 108.471 67.2621 108.138 67.3918C107.813 67.5215 107.436 67.5902 107.013 67.5902C106.454 67.5902 105.97 67.4681 105.562 67.2316C105.154 66.9951 104.837 66.6442 104.618 66.1789C104.436 65.8128 104.353 65.3627 104.316 64.8669H111.024C111.039 64.7906 111.039 64.7143 111.039 64.638V64.4168C111.039 63.5014 110.873 62.7157 110.541 62.0596C110.208 61.4036 109.732 60.8925 109.128 60.534L109.136 60.5416ZM104.346 63.6006C104.384 63.2039 104.497 62.8453 104.686 62.5402C104.928 62.1436 105.252 61.846 105.66 61.6325C106.068 61.4189 106.521 61.3121 107.02 61.3121C107.519 61.3121 107.934 61.4112 108.274 61.6019C108.614 61.7926 108.879 62.0673 109.075 62.4105C109.272 62.7538 109.385 63.1505 109.438 63.6006H104.346Z" fill="black"/>
<path d="M119.727 63.5631H114.982V60.1914H113.501V68.819H114.982V64.9744H119.727V68.819H121.207V60.1914H119.727V63.5631Z" fill="black"/>
<path d="M123.104 61.595H124.871V68.819H126.36V61.595H128.12V60.1914H123.104V61.595Z" fill="black"/>
<path d="M133.325 60C132.494 60 131.746 60.1907 131.074 60.5797C130.402 60.9688 129.873 61.5028 129.487 62.1741C129.095 62.853 128.906 63.6234 128.906 64.5007C128.906 65.378 129.102 66.1331 129.487 66.8197C129.88 67.4986 130.409 68.0326 131.074 68.4216C131.746 68.8107 132.494 69.0014 133.325 69.0014C133.907 69.0014 134.473 68.9022 135.025 68.7115C135.576 68.5208 136 68.2462 136.294 67.8953V66.0187C136.173 66.2934 135.962 66.5527 135.66 66.7968C135.365 67.0409 135.01 67.2316 134.609 67.3766C134.209 67.5215 133.778 67.5902 133.318 67.5902C132.759 67.5902 132.26 67.4528 131.822 67.1859C131.384 66.9189 131.036 66.5527 130.779 66.0874C130.522 65.622 130.402 65.0957 130.402 64.4931C130.402 63.8904 130.53 63.3564 130.779 62.8911C131.036 62.4182 131.384 62.0596 131.822 61.7926C132.26 61.5333 132.759 61.396 133.318 61.396C133.778 61.396 134.209 61.4646 134.609 61.6096C135.01 61.7545 135.365 61.9452 135.66 62.1817C135.954 62.4182 136.166 62.6852 136.294 62.9674V61.1061C136 60.7552 135.569 60.4806 135.025 60.2899C134.473 60.0992 133.907 60 133.325 60Z" fill="black"/>
<path d="M137.729 61.595H139.497V68.819H140.986V61.595H142.746V60.1914H137.729V61.595Z" fill="black"/>
<path d="M149.583 64.5014C149.485 64.4785 149.379 64.4633 149.281 64.448C149.711 64.2878 150.059 64.059 150.331 63.7462C150.603 63.4258 150.739 63.0215 150.739 62.5333C150.739 61.9688 150.603 61.5187 150.331 61.1755C150.059 60.8322 149.704 60.5804 149.266 60.4279C148.828 60.2753 148.337 60.1914 147.808 60.1914H144.65V68.819H148.367C149.341 68.819 150.051 68.5902 150.474 68.1325C150.897 67.6748 151.117 67.1255 151.117 66.4695C151.117 65.905 150.981 65.4702 150.709 65.1574C150.437 64.8447 150.066 64.6234 149.591 64.5014H149.583ZM147.8 61.4958C148.246 61.4958 148.601 61.6026 148.858 61.8086C149.115 62.0146 149.251 62.2892 149.251 62.6248C149.251 62.785 149.22 62.9376 149.145 63.0825C149.077 63.2275 148.979 63.3571 148.858 63.4639C148.737 63.5784 148.578 63.6623 148.404 63.7157C148.223 63.7691 148.027 63.7996 147.8 63.7996H146.131V61.5035H147.8V61.4958ZM149.22 67.1408C148.956 67.3773 148.541 67.4993 147.981 67.4993H146.123V65.0964H147.981C148.268 65.0964 148.51 65.1269 148.714 65.1803C148.918 65.2337 149.084 65.3176 149.213 65.432C149.341 65.5465 149.439 65.6685 149.508 65.8058C149.575 65.9431 149.613 66.1033 149.613 66.2788C149.613 66.6144 149.477 66.9043 149.213 67.1408H149.22Z" fill="black"/>
<path d="M160.99 62.1741C160.597 61.4951 160.076 60.9688 159.411 60.5797C158.747 60.1907 157.999 60 157.152 60C156.306 60 155.574 60.1907 154.901 60.5797C154.229 60.9688 153.7 61.5028 153.315 62.1741C152.922 62.853 152.733 63.6234 152.733 64.5007C152.733 65.378 152.929 66.1331 153.315 66.8197C153.707 67.4986 154.236 68.0326 154.901 68.4216C155.574 68.8107 156.321 69.0014 157.152 69.0014C157.983 69.0014 158.747 68.8107 159.411 68.4216C160.076 68.0326 160.597 67.4986 160.99 66.8197C161.383 66.1408 161.572 65.3627 161.572 64.5007C161.572 63.6387 161.375 62.853 160.99 62.1741ZM159.691 66.095C159.434 66.5603 159.086 66.9265 158.648 67.1935C158.21 67.4605 157.711 67.5978 157.152 67.5978C156.593 67.5978 156.095 67.4605 155.657 67.1935C155.218 66.9265 154.871 66.5603 154.614 66.095C154.357 65.6297 154.236 65.1033 154.236 64.5007C154.236 63.8981 154.365 63.3641 154.614 62.8987C154.871 62.4258 155.211 62.0673 155.657 61.8003C156.095 61.5409 156.593 61.4036 157.152 61.4036C157.711 61.4036 158.21 61.5333 158.648 61.8003C159.086 62.0596 159.434 62.4258 159.691 62.8987C159.948 63.3641 160.069 63.9057 160.069 64.5007C160.069 65.0957 159.94 65.6297 159.691 66.095Z" fill="black"/>
<path d="M94.2448 81.2148H92.3864L89.2285 84.2433V81.2148H87.7402V89.85H89.2285V85.4713L92.7641 89.85H94.6225L90.5279 84.7773L94.2448 81.2148Z" fill="black"/>
<path d="M102.857 81.5727C102.222 81.2143 101.512 81.0312 100.727 81.0312C100.024 81.0312 99.397 81.2143 98.8606 81.5727C98.4376 81.8551 98.0901 82.2441 97.8105 82.717V81.2143H96.3223V93.9764H97.8105V88.339C98.0901 88.8196 98.4376 89.2011 98.8606 89.491C99.397 89.8571 100.024 90.0326 100.727 90.0326C101.505 90.0326 102.215 89.8495 102.857 89.491C103.492 89.1324 104.005 88.606 104.391 87.9348C104.776 87.2558 104.965 86.4625 104.965 85.5319C104.965 84.6011 104.776 83.7927 104.391 83.1212C104.005 82.45 103.492 81.9388 102.857 81.5727ZM103.061 87.2177C102.797 87.683 102.442 88.0339 102.003 88.2705C101.565 88.5069 101.074 88.6289 100.545 88.6289C100.115 88.6289 99.6841 88.5069 99.261 88.2705C98.838 88.0339 98.4905 87.683 98.2185 87.2177C97.9465 86.7524 97.8105 86.1955 97.8105 85.5319C97.8105 84.8681 97.9465 84.3037 98.2185 83.846C98.4905 83.3806 98.838 83.0297 99.261 82.7933C99.6841 82.5568 100.107 82.4348 100.545 82.4348C101.074 82.4348 101.565 82.5568 102.003 82.7933C102.442 83.0297 102.797 83.3806 103.061 83.846C103.325 84.3113 103.461 84.8681 103.461 85.5319C103.461 86.1955 103.325 86.76 103.061 87.2177Z" fill="black"/>
<path d="M113.033 81.5727C112.429 81.2143 111.719 81.0312 110.918 81.0312C110.185 81.0312 109.528 81.1837 108.938 81.4811C108.349 81.7788 107.873 82.1982 107.495 82.7399C107.125 83.2739 106.876 83.8994 106.755 84.6165C106.732 84.769 106.71 84.914 106.702 85.0666C106.695 85.2191 106.687 85.3717 106.687 85.5395C106.687 86.4015 106.861 87.172 107.216 87.8585C107.571 88.5373 108.054 89.0713 108.666 89.4603C109.278 89.8495 109.973 90.0402 110.736 90.0402C111.499 90.0402 112.096 89.9487 112.595 89.7656C113.093 89.5825 113.509 89.3307 113.856 88.995C114.204 88.6671 114.521 88.2781 114.801 87.8433L113.592 87.0727C113.403 87.3856 113.184 87.6602 112.92 87.8889C112.663 88.1179 112.368 88.301 112.036 88.4306C111.711 88.5604 111.333 88.6289 110.91 88.6289C110.351 88.6289 109.868 88.5069 109.46 88.2705C109.052 88.0339 108.734 87.683 108.515 87.2177C108.334 86.8515 108.251 86.4015 108.213 85.9057H114.922C114.937 85.8294 114.937 85.7531 114.937 85.6768V85.4556C114.937 84.5402 114.771 83.7544 114.438 83.0984C114.106 82.4424 113.63 81.9312 113.025 81.5727H113.033ZM108.243 84.6318C108.281 84.235 108.394 83.8766 108.583 83.5713C108.825 83.1747 109.15 82.8773 109.558 82.6636C109.966 82.45 110.419 82.3433 110.918 82.3433C111.416 82.3433 111.832 82.4424 112.172 82.6331C112.512 82.8238 112.776 83.0984 112.972 83.4417C113.161 83.7851 113.282 84.1817 113.335 84.6318H108.243Z" fill="black"/>
<path d="M122.333 81.3363C121.842 81.1304 121.268 81.0234 120.61 81.0234C119.84 81.0234 119.182 81.1456 118.639 81.382C118.095 81.6185 117.656 81.8551 117.339 82.0915L118.064 83.2358C118.2 83.1367 118.389 83.0145 118.631 82.8696C118.873 82.7246 119.16 82.6026 119.492 82.4959C119.825 82.3889 120.195 82.3356 120.61 82.3356C121.079 82.3356 121.502 82.4424 121.864 82.6635C122.227 82.8849 122.416 83.2128 122.416 83.6476V85.0971C122.197 84.952 121.933 84.8148 121.608 84.6928C121.215 84.5478 120.746 84.4791 120.202 84.4791C119.462 84.4791 118.812 84.5935 118.268 84.83C117.724 85.059 117.301 85.3869 117.007 85.8141C116.712 86.2412 116.561 86.76 116.561 87.3703C116.561 87.9805 116.697 88.4458 116.962 88.8426C117.226 89.2392 117.581 89.5366 118.027 89.7351C118.472 89.9334 118.963 90.0326 119.492 90.0326C120.089 90.0326 120.625 89.9258 121.109 89.7197C121.592 89.5138 121.978 89.2163 122.272 88.8197C122.325 88.751 122.371 88.6671 122.408 88.5908V89.8419H123.897V83.6476C123.897 83.0832 123.761 82.6103 123.481 82.2213C123.202 81.8321 122.816 81.5346 122.333 81.3287V81.3363ZM122.091 87.7593C121.872 88.0874 121.57 88.3238 121.192 88.4688C120.807 88.6212 120.369 88.6976 119.87 88.6976C119.538 88.6976 119.235 88.6443 118.963 88.5373C118.691 88.4305 118.472 88.2781 118.314 88.072C118.155 87.8661 118.072 87.6143 118.072 87.3092C118.072 86.9583 118.155 86.6608 118.314 86.4091C118.472 86.1573 118.722 85.9666 119.047 85.8294C119.371 85.692 119.787 85.6235 120.285 85.6235C120.829 85.6235 121.321 85.692 121.751 85.837C121.978 85.9133 122.197 86.0125 122.424 86.1268V86.4702C122.424 87.0118 122.318 87.4388 122.099 87.7669L122.091 87.7593Z" fill="black"/>
<path d="M125.521 82.626H127.289V89.85H128.777V82.626H130.537V81.2148H125.521V82.626Z" fill="black"/>
<path d="M134.012 81.2148H132.524V90.506L138.198 84.2508V89.85H139.678V80.5586L134.012 86.8063V81.2148Z" fill="black"/>
<path d="M147.157 85.5326C147.059 85.5096 146.953 85.4944 146.855 85.4792C147.286 85.3189 147.633 85.0902 147.905 84.7773C148.177 84.457 148.313 84.0528 148.313 83.5644C148.313 83 148.177 82.5499 147.905 82.2066C147.633 81.8634 147.278 81.6117 146.84 81.459C146.402 81.3066 145.911 81.2227 145.382 81.2227H142.224V89.8502H145.941C146.916 89.8502 147.626 89.6213 148.049 89.1636C148.479 88.7059 148.691 88.1567 148.691 87.5006C148.691 86.9362 148.555 86.5013 148.283 86.1886C148.011 85.8758 147.641 85.6546 147.165 85.5326H147.157ZM145.374 82.527C145.82 82.527 146.175 82.6338 146.432 82.8397C146.689 83.0458 146.825 83.3205 146.825 83.656C146.825 83.8162 146.795 83.9689 146.719 84.1137C146.651 84.2587 146.553 84.3883 146.432 84.4951C146.311 84.6096 146.153 84.6936 145.979 84.7468C145.797 84.8003 145.601 84.8308 145.374 84.8308H143.705V82.5194H145.374V82.527ZM146.795 88.1721C146.53 88.4084 146.115 88.5304 145.556 88.5304H143.697V86.1276H145.556C145.843 86.1276 146.085 86.1582 146.289 86.2115C146.493 86.265 146.659 86.3489 146.787 86.4633C146.916 86.5776 147.014 86.6996 147.082 86.837C147.15 86.9742 147.188 87.1345 147.188 87.3023C147.188 87.6381 147.052 87.9279 146.787 88.1643L146.795 88.1721Z" fill="black"/>
<path d="M157.266 84.5942H152.529V81.2148H151.041V89.85H152.529V85.9978H157.266V89.85H158.754V81.2148H157.266V84.5942Z" fill="black"/>
<path d="M171.151 81.2148H169.663V89.8424H171.151V81.2148Z" fill="black"/>
<path d="M167.698 85.128C167.094 84.6934 166.354 84.4796 165.477 84.4796H163.43V81.2148H161.942V89.8424H165.47C166.067 89.8424 166.596 89.7509 167.072 89.5602C167.54 89.3695 167.918 89.0795 168.19 88.6752C168.461 88.2786 168.597 87.7675 168.597 87.1573C168.597 86.2341 168.295 85.5553 167.698 85.1204V85.128ZM166.928 87.9049C166.807 88.1108 166.618 88.271 166.376 88.3702C166.135 88.4769 165.833 88.5302 165.477 88.5302H163.43V85.7918H165.477C166.021 85.7918 166.429 85.9138 166.701 86.1504C166.973 86.3867 167.109 86.7225 167.109 87.1649C167.109 87.4548 167.049 87.6988 166.92 87.9049H166.928Z" fill="black"/>
<path d="M177.656 85.4026L180.572 81.2148H178.895L176.855 84.2202L174.808 81.2148H173.138L176.054 85.4026L172.949 89.85H174.626L176.855 86.5851L179.084 89.85H180.753L177.656 85.4026Z" fill="black"/>
<path d="M89.4175 102.246H87.9292V111.529L93.5952 105.282V110.873H95.0835V101.582L89.4175 107.837V102.246Z" fill="black"/>
<path d="M104.595 105.618H99.8584V102.246H98.3701V110.874H99.8584V107.029H104.595V110.874H106.083V102.246H104.595V105.618Z" fill="black"/>
<path d="M113.449 101.582L109.671 109.462H108.153V112.559H109.732V110.873H117.256V112.559H118.744V109.462H117.226L113.449 101.582ZM113.449 104.832L115.571 109.47H111.326L113.449 104.832Z" fill="black"/>
<path d="M123.58 108.189L121.193 102.246H119.425L122.696 109.653L120.354 115.001H122.024L127.599 102.246H125.929L123.58 108.189Z" fill="black"/>
<path d="M132.713 102.054C131.882 102.054 131.134 102.245 130.462 102.634C129.789 103.023 129.261 103.557 128.875 104.228C128.482 104.907 128.293 105.678 128.293 106.555C128.293 107.432 128.49 108.188 128.875 108.874C129.268 109.553 129.797 110.087 130.462 110.476C131.134 110.865 131.882 111.056 132.713 111.056C133.295 111.056 133.861 110.957 134.413 110.766C134.964 110.575 135.387 110.301 135.682 109.95V108.073C135.561 108.348 135.35 108.607 135.048 108.851C134.753 109.095 134.398 109.286 133.997 109.431C133.597 109.576 133.166 109.644 132.705 109.644C132.146 109.644 131.648 109.507 131.21 109.24C130.771 108.973 130.424 108.607 130.167 108.142C129.91 107.676 129.789 107.15 129.789 106.548C129.789 105.945 129.918 105.411 130.167 104.945C130.424 104.48 130.771 104.114 131.21 103.847C131.648 103.588 132.146 103.45 132.705 103.45C133.166 103.45 133.597 103.519 133.997 103.664C134.398 103.809 134.753 104 135.048 104.236C135.342 104.473 135.554 104.74 135.682 105.022V103.145C135.387 102.794 134.957 102.52 134.413 102.329C133.861 102.138 133.295 102.039 132.713 102.039V102.054Z" fill="black"/>
<path d="M137.118 103.65H138.878V110.874H140.366V103.65H142.134V102.246H137.118V103.65Z" fill="black"/>
<path d="M150.467 102.596C149.825 102.238 149.122 102.055 148.336 102.055C147.634 102.055 147.007 102.238 146.471 102.596C146.047 102.878 145.7 103.268 145.42 103.74V102.238H143.932V115H145.42V109.362C145.7 109.843 146.047 110.225 146.471 110.514C147.007 110.881 147.634 111.056 148.336 111.056C149.115 111.056 149.825 110.873 150.467 110.514C151.102 110.156 151.615 109.629 152 108.958C152.386 108.279 152.575 107.486 152.575 106.555C152.575 105.625 152.386 104.816 152 104.145C151.615 103.473 151.102 102.962 150.467 102.596ZM150.671 108.241C150.406 108.706 150.051 109.057 149.613 109.294C149.175 109.53 148.684 109.652 148.155 109.652C147.725 109.652 147.294 109.53 146.871 109.294C146.448 109.057 146.1 108.706 145.828 108.241C145.556 107.776 145.42 107.219 145.42 106.555C145.42 105.892 145.556 105.327 145.828 104.869C146.1 104.404 146.448 104.053 146.871 103.817C147.294 103.58 147.717 103.458 148.155 103.458C148.684 103.458 149.175 103.58 149.613 103.817C150.051 104.053 150.406 104.404 150.671 104.869C150.935 105.335 151.071 105.892 151.071 106.555C151.071 107.219 150.935 107.783 150.671 108.241Z" fill="black"/>
<path d="M156.608 102.246H155.12V111.529L160.786 105.282V110.873H162.274V101.582L156.608 107.837V102.246Z" fill="black"/>
<path d="M167.147 107.837V102.246H165.659V111.529L171.325 105.282V110.873H172.813V101.582L167.147 107.837Z" fill="black"/>
<path d="M167.654 100.071C168.092 100.33 168.636 100.452 169.278 100.452C169.92 100.452 170.479 100.323 170.91 100.071C171.34 99.8116 171.665 99.4836 171.884 99.0792C172.103 98.675 172.209 98.2554 172.209 97.8281H170.887C170.887 97.9884 170.842 98.1791 170.759 98.4004C170.675 98.6215 170.509 98.8122 170.275 98.9801C170.041 99.1479 169.708 99.2319 169.27 99.2319C168.832 99.2319 168.5 99.1479 168.266 98.9801C168.031 98.8122 167.873 98.6139 167.782 98.4004C167.691 98.1791 167.654 97.9884 167.654 97.8281H166.332C166.332 98.2554 166.437 98.6674 166.656 99.0792C166.876 99.4836 167.2 99.8192 167.638 100.071H167.654Z" fill="black"/>
<path d="M184.893 111.529C187.613 111.529 189.819 109.302 189.819 106.556C189.819 103.809 187.613 101.582 184.893 101.582C182.173 101.582 179.967 103.809 179.967 106.556C179.967 109.302 182.173 111.529 184.893 111.529Z" fill="#FF4261"/>
</g>
<defs>
<clipPath id="clip0_1284_3554">
<rect width="103" height="55" fill="white" transform="translate(87 60)"/>
</clipPath>
</defs>
</svg>
