<svg width="278" height="198" viewBox="0 0 278 198" fill="none" xmlns="http://www.w3.org/2000/svg">
<g clip-path="url(#clip0_965_3244)">
<path d="M89 70.9042C89.4065 71.1649 89.865 71.3327 90.3431 71.3957V79.6C90.1124 79.6688 89.8876 79.7395 89.6706 79.8143C89.442 79.8939 89.2181 79.9864 89 80.0915V80.6026H91.7879L96.1006 73.6664L96.8826 72.1329H96.9843L96.7888 73.749V79.6C96.3614 79.7061 95.9508 79.8715 95.5688 80.0915V80.6026H99.864V80.0915C99.6727 79.9743 99.4679 79.8812 99.2541 79.8143C99.0234 79.7395 98.779 79.6688 98.5209 79.6V71.3957C98.9931 71.3095 99.4472 71.1433 99.864 70.9042V70.3733H97.127L92.7634 77.3626L91.9697 78.8961H91.868L92.0928 76.993V71.3957C92.3626 71.3131 92.5972 71.2305 92.7947 71.1499C92.9715 71.0772 93.1445 70.9952 93.3128 70.9042V70.3733H89V70.9042ZM105.825 80.0915C105.667 79.9768 105.496 79.8805 105.317 79.8044C105.093 79.7152 104.861 79.6493 104.624 79.6078V75.8763H109.137V79.6C108.697 79.6669 108.279 79.8351 107.915 80.0915V80.6026H112.31V80.0915C112.119 79.9536 111.906 79.8499 111.68 79.7848C111.447 79.716 111.211 79.655 110.967 79.6V71.3957C111.441 71.32 111.897 71.1532 112.31 70.9042V70.3733H107.921V70.9042C108.285 71.1597 108.703 71.3278 109.143 71.3957V74.9758H104.624V71.3957C105.045 71.287 105.449 71.1216 105.825 70.9042V70.3733H101.451V70.9042C101.652 71.0179 101.864 71.1108 102.083 71.1814C102.312 71.2561 102.55 71.3269 102.795 71.3957V79.6C102.55 79.6688 102.312 79.7395 102.083 79.8143C101.863 79.8839 101.652 79.9769 101.451 80.0915V80.6026H105.825V80.0915ZM122.55 80.6026L123.453 83.6303H123.956C124.036 82.9619 124.097 82.2869 124.137 81.6053C124.178 80.9238 124.191 80.2553 124.177 79.6H122.366V71.3957C122.844 71.3327 123.303 71.1649 123.709 70.9042V70.3733H115.062V70.9042C115.264 71.0486 115.475 71.18 115.694 71.2974C115.943 71.4264 116.205 71.5292 116.476 71.6041C116.485 72.6677 116.419 73.7307 116.28 74.7851C116.176 75.572 116.02 76.351 115.813 77.1168C115.666 77.6625 115.469 78.1935 115.227 78.7034C115.079 79.0241 114.895 79.3264 114.677 79.6039H113.295C113.295 80.2586 113.311 80.927 113.346 81.6093C113.381 82.2915 113.428 82.9658 113.494 83.6343H114.024L114.927 80.6066L122.55 80.6026ZM120.536 71.437V79.6H115.917C116.103 79.2661 116.273 78.9229 116.425 78.5717C116.644 78.0524 116.821 77.5166 116.957 76.9694C117.15 76.2026 117.297 75.4246 117.395 74.6396C117.525 73.5792 117.587 72.5113 117.578 71.4429L120.536 71.437ZM129.86 80.6026C129.75 80.9565 129.664 81.2495 129.574 81.4815C129.484 81.7135 129.418 81.9042 129.352 82.0555C129.293 82.1847 129.228 82.3107 129.156 82.433C129.095 82.5353 129.023 82.6414 128.943 82.7515H126.822L126.558 83.2411C126.64 83.5281 126.738 83.8309 126.853 84.1415C126.958 84.439 127.089 84.7265 127.244 85.0007C127.582 84.9364 127.91 84.8301 128.222 84.6841C128.56 84.5151 128.864 84.2821 129.115 83.998C129.459 83.6109 129.754 83.1815 129.991 82.7201C130.346 82.0362 130.655 81.3287 130.916 80.6026L134.09 71.3957C134.5 71.2925 134.891 71.1268 135.25 70.9042V70.3733H131.787V70.9042C132.121 71.1472 132.502 71.3149 132.906 71.3957L130.972 77.4314L130.667 78.7192H130.628L130.237 77.4511L127.651 71.3957C128.059 71.2816 128.45 71.1095 128.81 70.8845V70.3733H124.544V70.9042C124.712 71.0091 124.885 71.1049 125.062 71.1912C125.242 71.2732 125.43 71.339 125.621 71.3878L129.86 80.6026ZM143.226 78.8843C142.954 79.0906 142.653 79.2561 142.333 79.3758C141.934 79.5168 141.512 79.5834 141.089 79.5724C140.557 79.5833 140.031 79.4638 139.555 79.2244C139.123 79.001 138.748 78.6825 138.456 78.2925C138.16 77.8968 137.94 77.4496 137.805 76.9733C137.662 76.4816 137.589 75.9718 137.59 75.4595C137.59 73.8499 137.841 72.7077 138.343 72.0327C138.844 71.3577 139.557 71.0195 140.479 71.0182C140.684 71.0102 140.889 71.028 141.089 71.0713C141.206 71.1023 141.317 71.1536 141.416 71.2227L142.27 73.6586H142.82C143.006 73.2113 143.143 72.7444 143.226 72.2666C143.327 71.7662 143.402 71.2609 143.451 70.7528C143.028 70.5426 142.58 70.3879 142.118 70.2927C141.532 70.1707 140.935 70.1127 140.337 70.1197C138.886 70.1197 137.74 70.5785 136.9 71.4959C136.059 72.4134 135.638 73.7398 135.637 75.4752C135.624 76.2224 135.72 76.9675 135.92 77.687C136.097 78.3081 136.399 78.8862 136.806 79.3857C137.205 79.8596 137.71 80.2309 138.28 80.4689C138.943 80.736 139.652 80.8651 140.366 80.8484C141.039 80.8635 141.703 80.6972 142.29 80.3667C142.794 80.0929 143.207 79.6767 143.478 79.1694L143.215 78.8843H143.226ZM151.263 80.0915C150.841 79.8641 150.389 79.6986 149.92 79.6V71.2679H151.854L152.726 73.7235H153.242C153.323 73.1376 153.379 72.5543 153.41 71.9737C153.443 71.3839 153.469 70.8589 153.48 70.3694H144.522C144.536 70.8865 144.562 71.4291 144.603 71.9953C144.644 72.5615 144.694 73.1376 144.761 73.7235H145.277L146.151 71.2679H148.083V79.596C147.616 79.7024 147.165 79.8675 146.739 80.0875V80.5987H151.257V80.0875L151.263 80.0915ZM159.185 84.1828C158.967 84.0455 158.735 83.9322 158.493 83.8446C158.282 83.7711 158.065 83.7197 157.844 83.6913V80.4395C158.144 80.5765 158.457 80.6826 158.778 80.756C159.165 80.8256 159.558 80.8566 159.951 80.8484C160.623 80.8548 161.289 80.7209 161.906 80.4552C162.484 80.2049 162.999 79.8273 163.412 79.3503C163.847 78.8356 164.172 78.2367 164.368 77.5907C164.601 76.836 164.714 76.0491 164.704 75.2589C164.704 73.4449 164.372 72.1342 163.707 71.3269C163.042 70.5195 162.114 70.1197 160.921 70.1276C160.23 70.0946 159.55 70.3162 159.009 70.7508C158.496 71.2019 158.105 71.7751 157.869 72.418H157.85V70.1276H157.34C156.905 70.1944 156.462 70.2862 156.008 70.4028C155.552 70.5192 155.106 70.673 154.675 70.8629V71.3957L156.018 71.5589V83.6913C155.556 83.8113 155.106 83.9759 154.675 84.1828V84.694H159.185V84.1828ZM161.433 71.6807C161.76 71.8767 162.03 72.1562 162.215 72.4908C162.424 72.8733 162.568 73.2878 162.642 73.7176C162.733 74.2274 162.778 74.7447 162.774 75.2629C162.782 75.8923 162.717 76.5205 162.579 77.1345C162.458 77.6554 162.26 78.1551 161.992 78.6169C161.769 79.0126 161.455 79.3494 161.077 79.6C160.717 79.8325 160.296 79.9534 159.867 79.9479C159.467 79.9569 159.068 79.9193 158.677 79.8359C158.387 79.7665 158.109 79.6525 157.854 79.4977V73.7687C157.971 73.1241 158.259 72.5231 158.687 72.0287C158.891 71.8161 159.139 71.6496 159.413 71.5405C159.686 71.4313 159.98 71.382 160.274 71.3957C160.683 71.3816 161.089 71.4802 161.447 71.6807H161.433ZM166.346 70.9042C166.753 71.164 167.212 71.3317 167.689 71.3957V79.6C167.459 79.6688 167.236 79.7395 167.019 79.8143C166.79 79.8942 166.565 79.9867 166.346 80.0915V80.6026H169.134L173.457 73.6664L174.239 72.1329H174.34L174.145 73.749V79.6C173.717 79.7061 173.307 79.8715 172.925 80.0915V80.6026H177.238V80.0915C177.046 79.974 176.84 79.8809 176.626 79.8143C176.395 79.7395 176.153 79.6688 175.895 79.6V71.3957C176.367 71.3095 176.821 71.1433 177.238 70.9042V70.3733H174.471L170.117 77.3626L169.324 78.8961H169.222L169.445 76.993V71.3957C169.717 71.3131 169.951 71.2305 170.147 71.1499C170.324 71.0772 170.498 70.9951 170.667 70.9042V70.3733H166.352V70.9042H166.346ZM179.531 74.4843C179.674 74.7883 179.873 75.0624 180.117 75.2924C180.352 75.5166 180.624 75.697 180.921 75.8252C181.214 75.9539 181.521 76.0463 181.836 76.1004C181.497 76.5395 181.117 77.0716 180.696 77.6968C180.235 78.3741 179.718 79.0108 179.15 79.6L178.012 80.0915V80.6026H180.309L180.94 80.1308C181.503 79.507 181.988 78.8171 182.385 78.0763C182.737 77.4 183.058 76.8239 183.341 76.3462L184.827 76.1496V79.6078C184.596 79.6766 184.381 79.7474 184.186 79.8221C183.991 79.8962 183.804 79.989 183.627 80.0993V80.6105H188V80.0993C187.564 79.9058 187.115 79.7416 186.657 79.6078V71.3957C186.959 71.3516 187.256 71.2759 187.543 71.1696C187.709 71.1074 187.863 71.0177 188 70.9042V70.3733H186.536C186.36 70.3733 186.119 70.3733 185.814 70.3517L184.868 70.3104L183.941 70.2691C183.65 70.2573 183.423 70.2495 183.261 70.2495C182.652 70.2363 182.044 70.3159 181.459 70.4854C181.014 70.6162 180.599 70.8347 180.239 71.1283C179.927 71.3925 179.686 71.7302 179.537 72.1113C179.384 72.5162 179.308 72.9464 179.314 73.3794C179.305 73.7598 179.381 74.1374 179.537 74.4843H179.531ZM184.821 75.6089H184.272C183.229 75.6089 182.459 75.3946 181.963 74.966C181.724 74.7653 181.533 74.5129 181.404 74.2276C181.276 73.9424 181.213 73.6316 181.22 73.3185C181.193 72.7502 181.361 72.1898 181.697 71.7319C182.015 71.3308 182.595 71.1342 183.437 71.142C183.632 71.142 183.861 71.1558 184.139 71.1833C184.416 71.2109 184.645 71.2384 184.821 71.2639V75.601V75.6089Z" fill="#E40521"/>
<path d="M96.1223 52.8297C96.3432 52.9409 96.5719 53.0355 96.8066 53.1128C97.0471 53.1934 97.3012 53.2681 97.571 53.3369L93.8076 58.659L92.5994 58.9421V53.3369C92.8809 53.2681 93.1488 53.1914 93.4049 53.1029C93.661 53.0145 93.8936 52.924 94.1087 52.8297V52.2399H89.0159V52.8297C89.533 53.0924 90.0911 53.264 90.6659 53.3369V65.3396C90.1017 65.4478 89.5491 65.6105 89.0159 65.8252V66.415H94.1087V65.8252C93.6353 65.5816 93.1255 65.4176 92.5994 65.3396V59.6381H93.5769C94.3159 60.7443 95.0777 61.8374 95.8623 62.9174C96.6469 63.9974 97.4355 65.0027 98.2279 65.9333L98.9122 66.4189H101.434V65.9058L100.468 65.4202C99.9855 64.8815 99.4908 64.3094 98.9904 63.7097C98.4899 63.1101 97.9933 62.5144 97.5202 61.9285C97.0471 61.3426 96.5876 60.7725 96.1517 60.2181C95.7157 59.6636 95.3286 59.1662 94.9943 58.7199L99.0392 53.3369C99.2817 53.2819 99.5299 53.215 99.7841 53.1403C100.05 53.0535 100.311 52.9517 100.566 52.8356V52.2458H96.1223V52.8356V52.8297ZM106.896 65.8252C106.661 65.7147 106.419 65.6201 106.171 65.5421C105.914 65.4613 105.653 65.3957 105.389 65.3455V59.6676H111.71V65.3396C111.191 65.4459 110.684 65.6088 110.2 65.8252V66.415H115.293V65.8252C115.046 65.7102 114.791 65.6155 114.529 65.5421C114.237 65.4598 113.941 65.3942 113.641 65.3455V53.3369C113.925 53.2819 114.208 53.2189 114.498 53.1403C114.775 53.0703 115.043 52.9646 115.293 52.8257V52.2359H110.21V52.8257C110.442 52.9356 110.681 53.0302 110.926 53.1088C111.172 53.1895 111.438 53.2642 111.719 53.333V58.6197H105.385V53.3369C105.649 53.2849 105.91 53.2193 106.167 53.1403C106.417 53.0602 106.66 52.9582 106.893 52.8356V52.2458H101.804V52.8356C102.322 53.0928 102.88 53.2622 103.454 53.3369V65.3396C102.889 65.4476 102.337 65.6102 101.804 65.8252V66.415H106.896V65.8252ZM121.023 65.8252C120.779 65.7115 120.527 65.6168 120.269 65.5421C119.981 65.459 119.688 65.3933 119.393 65.3455V64.8933L125.364 56.575L126.249 55.0572L126.054 56.575V65.3396C125.773 65.3887 125.496 65.4597 125.227 65.5519C124.973 65.6404 124.738 65.7308 124.523 65.8252V66.415H129.635V65.8252C129.108 65.5922 128.554 65.4289 127.985 65.3396V53.3369C128.28 53.2681 128.572 53.1934 128.851 53.1128C129.118 53.0372 129.38 52.9426 129.633 52.8297V52.2399H124.525V52.8218C124.754 52.9162 125.004 53.0046 125.279 53.0912C125.567 53.1829 125.86 53.2597 126.155 53.3212V53.8009L120.259 62.0366L119.291 63.639L119.514 62.1212V53.3369C119.821 53.2681 120.101 53.1934 120.339 53.1128C120.574 53.0348 120.802 52.9402 121.023 52.8297V52.2399H115.931V52.8297C116.202 52.9386 116.48 53.0331 116.761 53.1128C117.043 53.1934 117.319 53.2681 117.586 53.3369V65.3396C117.016 65.4218 116.461 65.5853 115.936 65.8252V66.415H121.023V65.8252ZM138.55 58.7809H137.262L133.86 53.3369C134.113 53.2736 134.361 53.1954 134.605 53.1029C134.817 53.0228 135.025 52.9316 135.229 52.8297V52.2399H130.781V52.8297C131.245 53.0273 131.721 53.1967 132.206 53.3369L135.989 58.9028C135.68 59.3471 135.338 59.836 134.963 60.3694C134.587 60.9029 134.19 61.4553 133.77 62.0268C133.34 62.5956 132.89 63.1691 132.421 63.7471C131.952 64.3251 131.468 64.8854 130.97 65.4281L130.026 65.9137V66.4111H132.54L133.227 65.9058C134.01 64.9827 134.717 63.9964 135.34 62.9567C135.955 61.9252 136.626 60.8557 137.352 59.7482L138.56 59.4454V65.3435C138.05 65.4284 137.555 65.5908 137.094 65.8252V66.415H141.786V65.8252C141.582 65.7166 141.371 65.6252 141.152 65.5519C140.932 65.4772 140.707 65.4064 140.478 65.3396V59.6381H141.651C142.375 60.7443 143.064 61.8341 143.715 62.9076C144.355 63.9664 145.078 64.9717 145.877 65.9137L146.562 66.4189H149.078V65.9058L148.134 65.4202C147.636 64.8815 147.155 64.3146 146.693 63.7196C146.23 63.1245 145.788 62.5308 145.365 61.9383C144.943 61.3446 144.537 60.7712 144.147 60.2181C143.758 59.6649 143.389 59.1656 143.041 58.7199L146.701 53.3369C146.957 53.2681 147.211 53.1934 147.467 53.1128C147.72 53.0325 147.969 52.938 148.212 52.8297V52.2399H143.784V52.8297C144.01 52.9103 144.243 52.9948 144.478 53.0833C144.712 53.1718 144.964 53.2543 145.232 53.3369L141.85 58.659L140.482 58.9421V53.3369L141.217 53.0735C141.41 53.0023 141.6 52.9209 141.786 52.8297V52.2399H137.121V52.8297C137.329 52.9326 137.544 53.0206 137.764 53.0931C138.007 53.1737 138.269 53.2543 138.546 53.3369V58.7809H138.55ZM154.536 65.8252C154.302 65.7143 154.06 65.6197 153.813 65.5421C153.556 65.4615 153.295 65.3959 153.031 65.3455V59.6676H159.351V65.3396C158.832 65.4459 158.326 65.6088 157.842 65.8252V66.415H162.925V65.8252C162.679 65.7099 162.423 65.6152 162.161 65.5421C161.87 65.4596 161.574 65.394 161.275 65.3455V53.3369C161.557 53.2819 161.842 53.2189 162.131 53.1403C162.408 53.0703 162.675 52.9646 162.925 52.8257V52.2359H157.842V52.8257C158.074 52.9356 158.312 53.0302 158.556 53.1088C158.804 53.1895 159.07 53.2642 159.351 53.333V58.6197H153.027V53.3369C153.291 53.2847 153.552 53.2191 153.809 53.1403C154.059 53.0606 154.301 52.9586 154.532 52.8356V52.2458H149.449V52.8356C149.968 53.0948 150.525 53.2662 151.099 53.3428V65.3396C150.535 65.4473 149.982 65.6099 149.449 65.8252V66.415H154.532V65.8252H154.536ZM167.136 65.8252C166.582 65.5918 166.001 65.4286 165.406 65.3396L166.726 61.6336H171.512L172.88 65.3376C172.612 65.3907 172.337 65.4575 172.055 65.5342C171.775 65.6141 171.5 65.7086 171.23 65.8173V66.4071H176.423V65.8173C176.194 65.6818 175.947 65.5792 175.69 65.5126C175.428 65.4458 175.162 65.3848 174.894 65.3317L169.793 52H169.207L164.124 65.3396C163.625 65.4527 163.139 65.6153 162.673 65.8252V66.415H167.142V65.8252H167.136ZM168.669 56.3253L169.17 54.5559H169.209L169.6 56.2978L171.181 60.5877H167.127L168.669 56.3253ZM185.412 52.2438C184.995 52.2438 184.591 52.232 184.194 52.2123C183.797 52.1927 183.467 52.1828 183.199 52.1828C182.518 52.1822 181.839 52.26 181.175 52.4148C180.544 52.5563 179.941 52.8064 179.394 53.1541C178.877 53.4852 178.443 53.932 178.125 54.4595C177.791 55.0396 177.624 55.7021 177.643 56.3725C177.633 56.8856 177.716 57.3963 177.885 57.8804C178.033 58.296 178.25 58.683 178.528 59.0247C178.795 59.3467 179.115 59.6201 179.474 59.8327C179.829 60.0456 180.208 60.2159 180.602 60.3399C180.333 60.7332 180.069 61.1264 179.807 61.5333C179.545 61.9403 179.273 62.3512 178.992 62.768C178.71 63.1848 178.405 63.6193 178.065 64.0636C177.708 64.5363 177.325 64.9892 176.919 65.4202L175.951 65.9058V66.4111H178.493L179.177 65.9058C179.515 65.5026 179.825 65.0763 180.104 64.6298C180.372 64.1993 180.628 63.753 180.87 63.2949C181.113 62.8368 181.349 62.3709 181.584 61.897C181.818 61.4232 182.084 60.9475 182.38 60.4618H184.405V65.3396C183.799 65.4018 183.207 65.566 182.655 65.8252V66.415H187.988V65.8252C187.47 65.5688 186.912 65.4045 186.338 65.3396V53.3369C186.658 53.2791 186.975 53.2009 187.285 53.1029C187.525 53.0266 187.76 52.9354 187.988 52.8297V52.2399L185.412 52.2438ZM180.591 58.7317C180.06 58.1721 179.796 57.3856 179.797 56.3725C179.797 55.2662 180.102 54.4667 180.712 53.9739C181.322 53.4811 182.144 53.2347 183.177 53.2347C183.373 53.2347 183.584 53.2347 183.832 53.2543C184.026 53.2597 184.218 53.2874 184.405 53.3369V59.4316C184.195 59.4913 183.979 59.5282 183.762 59.5417C183.506 59.5614 183.259 59.5712 183.017 59.5712C181.93 59.5712 181.121 59.2914 180.591 58.7317Z" fill="#1D1D1B"/>
</g>
<defs>
<clipPath id="clip0_965_3244">
<rect width="99" height="33" fill="white" transform="translate(89 52)"/>
</clipPath>
</defs>
</svg>
