<svg width="278" height="198" viewBox="0 0 278 198" fill="none" xmlns="http://www.w3.org/2000/svg">
<g clip-path="url(#clip0_1284_3620)">
<mask id="mask0_1284_3620" style="mask-type:luminance" maskUnits="userSpaceOnUse" x="53" y="68" width="171" height="42">
<path d="M224 68H53V110H224V68Z" fill="white"/>
</mask>
<g mask="url(#mask0_1284_3620)">
<path d="M220.6 83.1005L196.523 68.923C194.432 67.6923 191.935 67.6923 189.846 68.923C187.755 70.1536 186.506 72.3582 186.506 74.8221V82.1319H191.606V73.3348C191.606 72.7472 192.231 72.3767 192.732 72.6731L219.424 88.391C219.925 88.6846 219.925 89.4205 219.424 89.7168L192.732 105.435C192.231 105.728 191.606 105.361 191.606 104.773V92.1068C191.606 91.6833 191.94 91.3419 192.356 91.3419H198.342L205.131 86.2156V86.1732H193.259C189.535 86.1732 186.506 89.2616 186.506 93.0595V103.177C186.506 105.638 187.755 107.846 189.846 109.076C190.892 109.693 192.039 110 193.186 110C194.333 110 195.48 109.693 196.526 109.076L220.603 94.8989C222.694 93.6681 223.942 91.4636 223.942 88.9996C223.942 86.5357 222.692 84.3312 220.6 83.1005Z" fill="#21BA72"/>
<path d="M147.027 96.6743C147.58 96.458 148.168 96.355 148.759 96.3707C149.756 96.3915 150.721 96.7496 151.504 97.3911L150.621 98.0512C150.088 97.6809 149.468 97.4694 148.829 97.4379C148.807 97.4368 148.785 97.4361 148.764 97.4352C148.727 97.4342 148.691 97.4337 148.654 97.4338C147.79 97.4317 146.957 97.759 146.315 98.3496C145.649 98.9611 145.217 99.8287 145.17 100.797C145.167 100.856 145.165 100.915 145.165 100.974C145.165 101.892 145.511 102.73 146.078 103.36C146.406 103.723 146.802 104.014 147.243 104.212C147.635 104.389 148.054 104.49 148.48 104.511C148.535 104.514 148.591 104.515 148.646 104.515H148.654C149.518 104.517 150.351 104.189 150.994 103.599C151.7 102.95 152.142 101.919 152.142 100.88C152.142 100.856 152.143 100.926 152.142 100.903L152.142 100.88L153.119 100.149C153.166 100.417 153.191 100.693 153.191 100.974C153.191 102.246 152.683 103.397 151.862 104.23C151.411 104.687 150.873 105.043 150.282 105.275C149.715 105.496 149.112 105.599 148.507 105.577C147.925 105.559 147.352 105.427 146.818 105.186C146.308 104.956 145.843 104.632 145.446 104.23C144.625 103.397 144.117 102.245 144.117 100.974C144.117 99.6198 144.693 98.4021 145.61 97.5597C146.026 97.1782 146.506 96.878 147.027 96.6743Z" fill="#373A44"/>
<path d="M170.545 99.1259L171.779 98.2031H167.65V103.745H171.778V102.823H168.828V101.404H171.345V100.481H168.828V99.1261L170.545 99.1259Z" fill="#373A44"/>
<path fill-rule="evenodd" clip-rule="evenodd" d="M164.534 100.364H163.1V99.1259H165.389L166.623 98.2031H161.922V103.745H164.382C165.762 103.745 166.553 103.11 166.553 102.004C166.553 100.946 165.836 100.364 164.534 100.364ZM164.329 102.822H163.1V101.286H164.329C165.077 101.286 165.425 101.543 165.425 102.054C165.425 102.576 165.056 102.822 164.329 102.822Z" fill="#373A44"/>
<path fill-rule="evenodd" clip-rule="evenodd" d="M175.123 98.2031H172.875V103.744H174.053V102.175H175.123C176.557 102.175 177.448 101.409 177.448 100.186C177.448 98.963 176.557 98.2031 175.123 98.2031ZM175.098 101.252H174.053V99.1255H175.098C175.853 99.1255 176.268 99.503 176.268 100.189C176.268 100.874 175.852 101.252 175.098 101.252Z" fill="#373A44"/>
<path d="M160.16 102.398C159.858 102.567 159.246 102.802 158.883 102.802C157.82 102.802 157.049 102.033 157.049 100.973C157.049 99.9123 157.82 99.143 158.883 99.143C159.284 99.143 159.644 99.2577 159.954 99.4832L160.799 98.8513C160.306 98.4112 159.591 98.1289 158.837 98.1289C158.019 98.1289 157.277 98.4087 156.747 98.9166C156.214 99.4279 155.921 100.147 155.921 100.942C155.921 101.74 156.214 102.47 156.745 102.996C157.277 103.525 158.017 103.816 158.829 103.816C159.679 103.816 160.42 103.515 160.923 102.969L160.16 102.398Z" fill="#373A44"/>
<path d="M152.244 98.1582C152.458 98.4393 152.641 98.7464 152.788 99.0736L148.654 102.166L146.927 101.067V99.7455L148.654 100.844L152.244 98.1582Z" fill="#373A44"/>
<path d="M54.3717 85.1245C54.5522 84.6789 54.7146 84.19 54.859 83.6578C55.0155 83.1256 55.1478 82.5315 55.2561 81.8755C55.3764 81.2071 55.4727 80.4707 55.5449 79.6662C55.6171 78.8493 55.6592 77.9458 55.6712 76.9557L55.7073 74.2637H64.5874V85.1245H66.0493V89.673H63.9376V87.2596H55.1117V89.673H53V85.1245H54.3717ZM57.7649 77.0114C57.6927 80.3779 57.2956 83.0823 56.5737 85.1245H62.3312V76.3987H57.7649V77.0114Z" fill="#21BA72"/>
<path d="M74.873 86.3301C74.7647 86.4663 74.6083 86.6024 74.4037 86.7386C74.1993 86.8623 73.9525 86.9799 73.6637 87.0914C73.3749 87.2027 73.0501 87.2893 72.6892 87.3512C72.3401 87.4132 71.9612 87.444 71.552 87.444C70.048 87.4564 68.8808 87.0543 68.0505 86.2374C67.2203 85.4081 66.8052 84.1889 66.8052 82.5799C66.8052 81.8126 66.9135 81.1318 67.1301 80.5377C67.3587 79.9313 67.6775 79.4238 68.0867 79.0154C68.4958 78.6069 68.9771 78.2975 69.5306 78.0871C70.0961 77.8767 70.7217 77.7715 71.4076 77.7715C72.7192 77.7839 73.742 78.1861 74.4759 78.9782C75.222 79.7704 75.595 80.8967 75.595 82.3571V83.2483H68.8988C69.0673 84.7954 69.9758 85.569 71.6242 85.569C72.4544 85.569 73.1403 85.4266 73.6817 85.142C74.2353 84.8573 74.6324 84.5107 74.873 84.1023V86.3301ZM71.3534 79.6652C70.6677 79.6652 70.1201 79.8384 69.711 80.185C69.3019 80.5315 69.0432 81.039 68.9349 81.7074H73.4832C73.4591 81.0761 73.2606 80.5811 72.8876 80.2221C72.5145 79.8508 72.0033 79.6652 71.3534 79.6652Z" fill="#21BA72"/>
<path d="M82.8468 79.8888H79.923L79.8687 81.0584C79.8086 82.5065 79.6823 83.6514 79.4897 84.493C79.3093 85.3347 79.0806 85.972 78.8039 86.4053C78.5271 86.826 78.2202 87.0922 77.8834 87.2035C77.5465 87.315 77.2036 87.3706 76.8547 87.3706C76.6861 87.3706 76.5177 87.3582 76.3493 87.3335C76.1928 87.3211 76.0665 87.3026 75.9702 87.2779V85.0314C76.1145 85.0809 76.271 85.1057 76.4394 85.1057C76.632 85.1057 76.8124 85.0686 76.981 84.9943C77.1615 84.9076 77.3178 84.6972 77.4501 84.3631C77.5825 84.0289 77.6908 83.5214 77.7752 82.8407C77.8713 82.16 77.9375 81.2131 77.9737 80.0002L78.0458 77.9766H84.9405V87.2593H82.8468V79.8888Z" fill="#21BA72"/>
<path d="M91.1855 87.4627C90.4755 87.4627 89.8378 87.3637 89.2723 87.1656C88.7068 86.9552 88.2195 86.6458 87.8104 86.2374C87.4012 85.8289 87.0885 85.3214 86.8717 84.715C86.6552 84.1085 86.5469 83.3968 86.5469 82.5799C86.5469 81.7754 86.6612 81.0761 86.8899 80.482C87.1184 79.8756 87.4374 79.3743 87.8464 78.9782C88.2555 78.5698 88.7489 78.2666 89.3264 78.0685C89.904 77.8705 90.5478 77.7715 91.2576 77.7715C91.9555 77.7715 92.5873 77.8767 93.1528 78.0871C93.7304 78.2975 94.2176 78.6069 94.6147 79.0154C95.0239 79.4238 95.3367 79.9313 95.5532 80.5377C95.7698 81.1442 95.8782 81.8497 95.8782 82.6542C95.8782 83.4587 95.7639 84.1642 95.5352 84.7707C95.3067 85.3648 94.9877 85.8599 94.5787 86.2559C94.1696 86.6519 93.6762 86.9552 93.0986 87.1656C92.5211 87.3637 91.8834 87.4627 91.1855 87.4627ZM88.6947 82.6356C88.6947 83.6629 88.9173 84.4117 89.3626 84.882C89.8077 85.34 90.4274 85.569 91.2216 85.569C92.0277 85.569 92.6474 85.3338 93.0806 84.8635C93.5137 84.3808 93.7304 83.6444 93.7304 82.6542V82.5985C93.7304 81.5712 93.5017 80.8286 93.0445 80.3707C92.5993 79.9003 91.9795 79.6652 91.1855 79.6652C90.3792 79.6775 89.7597 79.9251 89.3264 80.4078C88.9054 80.8781 88.6947 81.6021 88.6947 82.5799V82.6356Z" fill="#21BA72"/>
<path d="M97.4629 77.9766H102.011C103.094 77.9766 103.864 78.1622 104.322 78.5335C104.779 78.8925 105.007 79.4247 105.007 80.1301C105.007 80.6871 104.869 81.1513 104.592 81.5226C104.327 81.8815 103.949 82.1228 103.455 82.2466C103.744 82.2837 104.009 82.3518 104.249 82.4508C104.502 82.5375 104.713 82.6674 104.881 82.8407C105.062 83.014 105.2 83.2368 105.296 83.5091C105.404 83.7813 105.459 84.1155 105.459 84.5116C105.459 85.4027 105.17 86.0835 104.592 86.5538C104.027 87.0241 103.148 87.2594 101.957 87.2594H97.4629V77.9766ZM101.759 85.4584C102.324 85.4584 102.733 85.3718 102.986 85.1985C103.239 85.0129 103.365 84.7344 103.365 84.3631C103.365 83.9546 103.239 83.6762 102.986 83.5276C102.745 83.3667 102.378 83.2863 101.885 83.2863H99.5747V85.4584H101.759ZM101.506 81.7268C101.927 81.7268 102.264 81.6525 102.517 81.504C102.769 81.3431 102.896 81.0646 102.896 80.6686C102.896 80.322 102.781 80.0868 102.553 79.9631C102.324 79.8393 101.981 79.7774 101.524 79.7774L99.5747 79.796V81.7268H101.506Z" fill="#21BA72"/>
<path d="M107.242 78.6265C107.543 78.3913 107.958 78.1933 108.487 78.0324C109.029 77.8715 109.691 77.791 110.473 77.791C111.796 77.791 112.783 78.0447 113.433 78.5522C114.083 79.0596 114.407 79.9199 114.407 81.1328V87.2595H112.422V85.5886C112.205 86.1332 111.832 86.5724 111.303 86.9067C110.786 87.2407 110.166 87.4079 109.444 87.4079C108.529 87.4079 107.814 87.1604 107.296 86.6653C106.791 86.1578 106.538 85.4462 106.538 84.5303C106.538 83.9981 106.628 83.5587 106.809 83.2121C106.989 82.8656 107.242 82.5933 107.567 82.3952C107.892 82.1848 108.283 82.0363 108.74 81.9497C109.197 81.863 109.703 81.8197 110.256 81.8197H112.296V81.4113C112.296 80.7553 112.139 80.3035 111.826 80.056C111.525 79.8085 111.074 79.6847 110.473 79.6847C109.642 79.6847 108.975 79.8394 108.469 80.1488C107.964 80.4459 107.555 80.8419 107.242 81.337V78.6265ZM110.112 85.4585C110.473 85.4585 110.779 85.4152 111.032 85.3286C111.297 85.2296 111.52 85.112 111.7 84.9758C111.88 84.8273 112.019 84.6664 112.115 84.4931C112.211 84.3199 112.272 84.1528 112.296 83.9919V83.2307H110.509C109.883 83.2307 109.42 83.305 109.119 83.4535C108.818 83.602 108.668 83.8867 108.668 84.3075C108.668 84.6664 108.788 84.9511 109.029 85.1615C109.282 85.3595 109.642 85.4585 110.112 85.4585Z" fill="#21BA72"/>
<path d="M121.969 84.196H119.875L118.052 87.2594H115.724L117.818 83.8989C117.276 83.6762 116.867 83.3482 116.591 82.915C116.314 82.4694 116.175 81.9434 116.175 81.3369C116.175 80.1735 116.5 79.3257 117.15 78.7934C117.8 78.2488 118.829 77.9766 120.236 77.9766H124.081V87.2594H121.969V84.196ZM120.291 79.8888C119.581 79.8888 119.069 79.994 118.756 80.2044C118.443 80.4148 118.287 80.7923 118.287 81.3369C118.299 81.7206 118.432 82.0176 118.684 82.228C118.937 82.4261 119.34 82.5251 119.893 82.5251H121.969V79.8888H120.291Z" fill="#21BA72"/>
<path d="M137.802 86.3301C137.597 86.59 137.231 86.8437 136.701 87.0914C136.172 87.3388 135.54 87.4627 134.806 87.4627C134.084 87.4627 133.428 87.3637 132.839 87.1656C132.249 86.9552 131.744 86.6458 131.322 86.2374C130.901 85.8289 130.576 85.3214 130.348 84.715C130.119 84.1085 130.005 83.3968 130.005 82.5799C130.005 81.7878 130.119 81.0947 130.348 80.5006C130.589 79.8941 130.919 79.3929 131.34 78.9968C131.762 78.5884 132.267 78.2851 132.857 78.0871C133.446 77.8767 134.102 77.7715 134.824 77.7715C135.438 77.7839 135.997 77.8705 136.503 78.0314C137.008 78.1923 137.411 78.3903 137.712 78.6255V81.336C137.399 80.841 137.002 80.4449 136.521 80.1479C136.051 79.8384 135.486 79.6775 134.824 79.6652C133.958 79.6652 133.296 79.9003 132.839 80.3707C132.381 80.841 132.153 81.5465 132.153 82.4871V82.7656C132.153 83.731 132.387 84.4427 132.857 84.9006C133.338 85.3462 134.006 85.569 134.86 85.569C135.618 85.569 136.238 85.4266 136.719 85.142C137.212 84.8573 137.573 84.5107 137.802 84.1023V86.3301Z" fill="#21BA72"/>
<path d="M139.371 77.9767H141.356V79.9075C141.44 79.6476 141.561 79.3938 141.717 79.1463C141.885 78.8864 142.096 78.6574 142.349 78.4594C142.613 78.2613 142.926 78.1004 143.287 77.9767C143.648 77.8529 144.069 77.791 144.551 77.791C145.128 77.791 145.652 77.8838 146.121 78.0695C146.602 78.2428 147.011 78.5151 147.348 78.8864C147.697 79.2577 147.968 79.7342 148.16 80.3159C148.353 80.8976 148.449 81.5969 148.449 82.4138C148.449 83.3297 148.353 84.1094 148.16 84.7531C147.968 85.3843 147.691 85.9041 147.33 86.3125C146.981 86.7086 146.554 86.9994 146.049 87.1851C145.543 87.3708 144.984 87.4637 144.37 87.4637C143.648 87.4637 143.04 87.3027 142.547 86.9809C142.066 86.659 141.711 86.2816 141.482 85.8484V90.8426H139.371V77.9767ZM141.482 82.9336C141.482 83.7753 141.699 84.4251 142.132 84.883C142.565 85.3286 143.155 85.5513 143.901 85.5513C144.755 85.5513 145.375 85.3224 145.76 84.8644C146.145 84.3941 146.337 83.6082 146.337 82.5066C146.337 81.4917 146.115 80.7739 145.67 80.3531C145.236 79.9322 144.659 79.7218 143.937 79.7218C143.107 79.7218 142.493 79.9446 142.096 80.3902C141.711 80.8358 141.506 81.4484 141.482 82.2282V82.9336Z" fill="#21BA72"/>
<path d="M157.462 86.3301C157.354 86.4663 157.197 86.6024 156.993 86.7386C156.788 86.8623 156.541 86.9799 156.253 87.0914C155.964 87.2027 155.639 87.2893 155.278 87.3512C154.929 87.4132 154.55 87.444 154.141 87.444C152.637 87.4564 151.47 87.0543 150.639 86.2374C149.809 85.4081 149.394 84.1889 149.394 82.5799C149.394 81.8126 149.502 81.1318 149.719 80.5377C149.947 79.9313 150.266 79.4238 150.675 79.0154C151.085 78.6069 151.566 78.2975 152.119 78.0871C152.685 77.8767 153.311 77.7715 153.996 77.7715C155.308 77.7839 156.331 78.1861 157.065 78.9782C157.811 79.7704 158.184 80.8967 158.184 82.3571V83.2483H151.488C151.656 84.7954 152.565 85.569 154.213 85.569C155.043 85.569 155.729 85.4266 156.271 85.142C156.824 84.8573 157.221 84.5107 157.462 84.1023V86.3301ZM153.942 79.6652C153.257 79.6652 152.709 79.8384 152.3 80.185C151.891 80.5315 151.632 81.039 151.524 81.7074H156.072C156.048 81.0761 155.849 80.5811 155.476 80.2221C155.103 79.8508 154.592 79.6652 153.942 79.6652Z" fill="#21BA72"/>
<path d="M159.624 85.2913C159.744 84.9572 159.853 84.592 159.949 84.196C160.057 83.7875 160.147 83.3296 160.22 82.8221C160.292 82.3147 160.346 81.7515 160.382 81.1327C160.418 80.5015 160.436 79.8022 160.436 79.0348V77.9766H167.367V85.2913H168.739V89.6728H166.826V87.2593H160.49V89.6728H158.577V85.2913H159.624ZM162.403 80.1116C162.379 81.1884 162.313 82.1414 162.205 82.9707C162.097 83.7875 161.916 84.5611 161.663 85.2913H165.255V79.8888H162.403V80.1116Z" fill="#21BA72"/>
<path d="M170.283 78.6265C170.584 78.3913 170.999 78.1933 171.529 78.0324C172.07 77.8715 172.732 77.791 173.514 77.791C174.838 77.791 175.824 78.0447 176.474 78.5522C177.124 79.0596 177.449 79.9199 177.449 81.1328V87.2595H175.463V85.5886C175.247 86.1332 174.874 86.5724 174.344 86.9067C173.827 87.2407 173.207 87.4079 172.485 87.4079C171.571 87.4079 170.855 87.1604 170.338 86.6653C169.832 86.1578 169.58 85.4462 169.58 84.5303C169.58 83.9981 169.67 83.5587 169.85 83.2121C170.031 82.8656 170.283 82.5933 170.608 82.3952C170.933 82.1848 171.324 82.0363 171.781 81.9497C172.239 81.863 172.744 81.8197 173.298 81.8197H175.337V81.4113C175.337 80.7553 175.181 80.3035 174.868 80.056C174.567 79.8085 174.116 79.6847 173.514 79.6847C172.684 79.6847 172.016 79.8394 171.511 80.1488C171.005 80.4459 170.596 80.8419 170.283 81.337V78.6265ZM173.153 85.4585C173.514 85.4585 173.821 85.4152 174.074 85.3286C174.338 85.2296 174.561 85.112 174.741 84.9758C174.922 84.8273 175.06 84.6664 175.157 84.4931C175.253 84.3199 175.313 84.1528 175.337 83.9919V83.2307H173.55C172.925 83.2307 172.461 83.305 172.161 83.4535C171.86 83.602 171.709 83.8867 171.709 84.3075C171.709 84.6664 171.83 84.9511 172.07 85.1615C172.323 85.3595 172.684 85.4585 173.153 85.4585Z" fill="#21BA72"/>
</g>
</g>
<defs>
<clipPath id="clip0_1284_3620">
<rect width="171" height="42" fill="white" transform="translate(53 68)"/>
</clipPath>
</defs>
</svg>
