<svg width="278" height="198" viewBox="0 0 278 198" fill="none" xmlns="http://www.w3.org/2000/svg">
<g clip-path="url(#clip0_965_3108)">
<path d="M90.7509 66.2513L86.5085 61.4883H83.0785L86.7793 65.3441H83.3493H82.898H75V67.6122H86.9147L82.8078 72.4206H86.0572L90.7509 66.6596V72.4206H93.3685V61.4883H90.7509V66.2513Z" fill="#0A3B48"/>
<path d="M94.5869 61.489V77.9102H97.2046V71.0604C98.0169 72.0585 99.1903 72.6482 100.454 72.6482C103.433 72.6482 105.689 70.2893 105.689 66.9325C105.689 63.5756 103.433 61.2168 100.454 61.2168C99.1452 61.2168 98.0169 61.8065 97.2046 62.8045V61.4436H94.5869V61.489ZM100.138 63.6664C101.808 63.6664 103.072 64.9819 103.072 66.9325C103.072 68.8831 101.808 70.1986 100.138 70.1986C98.4682 70.1986 97.2046 68.8831 97.2046 66.9325C97.2046 64.9819 98.4682 63.6664 100.138 63.6664Z" fill="#0A3B48"/>
<path d="M117.649 66.9774C117.649 63.6206 115.347 61.2617 112.233 61.2617C109.119 61.2617 106.818 63.6206 106.818 66.9774C106.818 70.3342 109.119 72.6931 112.233 72.6931C114.806 72.6931 116.701 71.4683 117.378 69.2002H114.535C114.174 69.9713 113.497 70.4249 112.369 70.4249C110.744 70.4249 109.706 69.5177 109.435 67.8847H117.649C117.649 67.5671 117.649 67.2496 117.649 66.9774ZM109.435 65.9794C109.706 64.4371 110.744 63.5752 112.233 63.5752C113.768 63.5752 114.761 64.4371 115.032 65.9794H109.435Z" fill="#0A3B48"/>
<path d="M123.832 61.2617C121.395 61.2617 119.093 62.3504 119.093 65.2083H121.801C121.801 63.9835 122.614 63.3484 123.832 63.3484C124.961 63.3484 125.818 63.8474 125.818 64.7093C125.818 66.8867 118.732 64.8 118.732 69.5177C118.732 71.7404 120.538 72.6931 122.388 72.6931C123.877 72.6931 125.141 72.1487 125.863 70.8332V72.4662H128.436V64.8C128.436 62.2597 126.224 61.2617 123.832 61.2617ZM125.863 67.93C125.863 69.6084 124.464 70.4703 122.93 70.4703C122.072 70.4703 121.395 70.1075 121.395 69.3363C121.395 67.93 124.103 68.1568 125.863 67.431V67.93Z" fill="#0A3B48"/>
<path d="M129.564 63.8925H132.859V72.4206H135.476V63.8925H138.726V61.4883H129.564V63.8925Z" fill="#0A3B48"/>
<path d="M142.517 69.6989V61.4883H139.99V72.4206H143.374L147.662 64.2554V72.4206H150.144V61.4883H146.804L142.517 69.6989Z" fill="#0A3B48"/>
<path d="M160.253 66.6143C161.111 66.206 161.652 65.4802 161.652 64.3461C161.652 62.3955 160.298 61.4883 158.313 61.4883H152.581V72.4661H158.358C160.66 72.4661 162.059 71.3773 162.059 69.1999C162.059 67.8844 161.337 67.0225 160.253 66.6143ZM155.108 63.4389H157.546C158.764 63.4389 159.125 63.8471 159.125 64.6637C159.125 65.3895 158.719 65.8431 157.546 65.8431H155.108V63.4389ZM157.952 70.47H155.108V67.839H157.952C158.99 67.839 159.441 68.338 159.441 69.1546C159.441 69.9711 158.945 70.47 157.952 70.47Z" fill="#0A3B48"/>
<path d="M171.266 65.7524H166.707V61.4883H164.09V72.4206H166.707V68.1566H171.266V72.4206H173.883V61.4883H171.266V65.7524Z" fill="#0A3B48"/>
<path d="M189.408 61.4883H186.791V72.4661H189.408V61.4883Z" fill="#0A3B48"/>
<path d="M181.014 64.9358H178.983V61.4883H176.365V72.4661H181.059C183.947 72.4661 185.392 70.833 185.392 68.6556C185.392 66.4782 183.767 64.9358 181.014 64.9358ZM180.788 70.2432H178.938V67.1132H180.788C182.142 67.1132 182.729 67.6576 182.729 68.6102C182.729 69.6082 182.142 70.2432 180.788 70.2432Z" fill="#0A3B48"/>
<path d="M196.855 59.2661C198.886 59.2661 200.285 58.0413 200.285 56H198.209C198.209 56.998 197.622 57.4062 196.855 57.4062C196.178 57.4062 195.546 56.998 195.546 56H193.47C193.47 58.0413 194.824 59.2661 196.855 59.2661Z" fill="#0A3B48"/>
<path d="M194.373 69.6989V61.4883H191.845V72.4206H195.185L199.473 64.2554V72.4206H202V61.4883H198.615L194.373 69.6989Z" fill="#0A3B48"/>
<path d="M92.2855 91.2473V80.2695H82.8079V91.2473H85.4255V82.6736H89.6678V91.2473H92.2855Z" fill="#0A3B48"/>
<path d="M94.948 94.6045C94.4065 94.6045 93.9099 94.5138 93.5038 94.3776V96.6912C93.9099 96.8272 94.5419 96.9179 95.1737 96.9179C97.9268 96.9179 99.1002 95.0582 100.048 92.3363L104.155 80.2246H101.537L98.7842 88.662L96.0763 80.2246H93.4587L97.5657 92.3363C96.9338 93.8787 96.1666 94.6045 94.948 94.6045Z" fill="#0A3B48"/>
<path d="M104.787 82.6736H108.081V91.2473H110.699V82.6736H113.949V80.2695H104.787V82.6736Z" fill="#0A3B48"/>
<path d="M115.212 80.2695V91.2473H119.906C122.794 91.2473 124.239 89.6142 124.239 87.4368C124.239 85.2595 122.659 83.717 119.906 83.717H117.875V80.2695H115.212ZM119.68 85.8944C121.034 85.8944 121.621 86.4388 121.621 87.3915C121.621 88.344 121.034 89.0244 119.68 89.0244H117.83V85.8944H119.68Z" fill="#0A3B48"/>
</g>
<defs>
<clipPath id="clip0_965_3108">
<rect width="127" height="41" fill="white" transform="translate(75 56)"/>
</clipPath>
</defs>
</svg>
