<svg width="278" height="198" viewBox="0 0 278 198" fill="none" xmlns="http://www.w3.org/2000/svg">
<g clip-path="url(#clip0_966_3327)">
<path d="M73 56.1035H75.2011V63.281H75.8114L78.0495 56.1035H80.306L77.8183 64.3422L80.3523 73.1115H78.0495L75.8114 65.1614H75.2011V73.1115H73V56.1035Z" fill="#262626"/>
<path d="M82.3775 74.9268C82.9603 74.9835 83.5483 74.9071 84.0977 74.7034C84.2585 74.5942 84.3866 74.4428 84.4681 74.2656C84.5496 74.0884 84.5814 73.8921 84.5601 73.698C84.5601 73.4653 84.4121 72.4226 84.1069 70.5794L81.7024 56.1035H83.9127L85.5219 68.8106L87.0571 56.1035H89.2766L86.4374 74.0518C86.3592 75.0258 85.928 75.9369 85.2259 76.6118C84.4821 77.1645 83.5683 77.4348 82.6457 77.3752H82.3775V74.9268Z" fill="#262626"/>
<path d="M90.4419 70.8787C90.6807 70.8944 90.9192 70.8436 91.1313 70.732C91.3433 70.6203 91.5208 70.452 91.6442 70.2456C91.9584 69.5965 92.1407 68.8907 92.1805 68.1697C92.2823 67.2388 92.3748 65.6469 92.458 63.5151L92.7262 56.1328H98.9409V73.1129H96.7399V58.4881H94.6498L94.4648 63.4871C94.4288 65.5304 94.2713 67.5697 93.9932 69.594C93.9002 70.6214 93.5292 71.6034 92.9204 72.4333C92.6286 72.7228 92.2789 72.9464 91.8946 73.0892C91.5103 73.2321 91.1002 73.2909 90.6916 73.2618H90.4419V70.8787Z" fill="#262626"/>
<path d="M104.527 71.259C105.088 71.283 105.648 71.1912 106.173 70.989C106.368 70.8999 106.543 70.7713 106.686 70.6111C106.829 70.4509 106.938 70.2626 107.005 70.0581C107.187 69.414 107.259 68.7435 107.218 68.0752C107.241 67.4461 107.163 66.8173 106.987 66.2134C106.859 65.8128 106.58 65.4787 106.21 65.2824C105.701 65.0558 105.148 64.9446 104.592 64.9566H104.444V71.2311L104.527 71.259ZM102.206 56.1035H104.444V63.132H104.795C105.698 63.1107 106.596 63.2656 107.44 63.5882C108.077 63.8843 108.575 64.4186 108.827 65.0776C109.166 66.0484 109.316 67.0754 109.271 68.1031C109.309 69.11 109.155 70.1149 108.818 71.0635C108.539 71.7516 108.015 72.3097 107.348 72.6274C106.467 72.9855 105.522 73.1505 104.573 73.1115H102.206V56.1035Z" fill="#262626"/>
<path d="M112.277 58.4588H110.067V56.1035H116.716V58.4588H114.478V73.1115H112.277V58.4588Z" fill="#262626"/>
<path d="M118.908 74.9268C119.484 74.9674 120.062 74.8784 120.6 74.6662C120.761 74.557 120.889 74.4056 120.971 74.2284C121.052 74.0511 121.084 73.8549 121.063 73.6608C121.063 73.428 120.915 72.3854 120.609 70.5422L118.233 56.1035H120.443L122.015 68.8106L123.587 56.1035H125.807L122.94 74.0518C122.862 75.0258 122.431 75.9369 121.728 76.6118C120.985 77.1645 120.071 77.4348 119.148 77.3752H118.88L118.908 74.9268Z" fill="#262626"/>
<path d="M132.937 69.7713C133.092 68.6458 133.151 67.509 133.113 66.3734V62.2494C133.139 61.2779 133.056 60.3066 132.863 59.3543C132.706 58.6747 132.364 58.3395 131.837 58.3395C131.535 58.3732 131.245 58.4743 130.987 58.6353C130.73 58.7964 130.511 59.0134 130.348 59.2705V70.1064C130.54 70.3405 130.78 70.5306 131.051 70.6638C131.322 70.7971 131.618 70.8705 131.92 70.8791C132.428 70.8791 132.752 70.5067 132.9 69.7713M128.184 56.1053H130.385V57.4552C130.584 57.0103 130.899 56.6278 131.296 56.3477C131.693 56.0676 132.158 55.9003 132.641 55.8633C133.714 55.8633 134.491 56.5242 134.805 57.8555C135.181 59.289 135.365 60.7668 135.351 62.2494V66.3734C135.4 68.0811 135.172 69.7854 134.676 71.419C134.569 71.9535 134.284 72.4355 133.869 72.7857C133.454 73.1359 132.933 73.3335 132.392 73.3461C131.689 73.3461 131.023 72.8434 130.385 71.8473V78.6989H128.184V56.1053Z" fill="#262626"/>
<path d="M142.509 70.5244C142.7 70.1377 142.813 69.717 142.842 69.2863C142.842 68.7929 142.898 68.132 142.898 67.2848V61.9599C142.898 61.1128 142.898 60.4425 142.842 59.9398C142.813 59.5062 142.699 59.0825 142.509 58.6924C142.428 58.5348 142.304 58.4038 142.152 58.3147C142 58.2257 141.825 58.1823 141.649 58.1897C141.462 58.1691 141.274 58.2061 141.109 58.2959C140.944 58.3857 140.81 58.524 140.724 58.6924C140.53 59.0809 140.417 59.5055 140.391 59.9398C140.391 60.4425 140.327 61.1128 140.327 61.9599V67.2848C140.327 68.132 140.327 68.7929 140.391 69.2863C140.416 69.7177 140.53 70.1392 140.724 70.5244C140.811 70.6911 140.946 70.8274 141.111 70.9155C141.276 71.0036 141.463 71.0393 141.649 71.0178C141.824 71.0261 141.998 70.9841 142.15 70.8967C142.303 70.8094 142.427 70.6803 142.509 70.5244ZM138.967 71.744C138.368 70.2696 138.099 68.6802 138.181 67.0893V62.1368C138.099 60.5459 138.368 58.9565 138.967 57.4822C139.225 56.9955 139.61 56.5885 140.08 56.3048C140.55 56.021 141.087 55.8711 141.635 55.8711C142.183 55.8711 142.721 56.021 143.191 56.3048C143.661 56.5885 144.045 56.9955 144.303 57.4822C144.906 58.9556 145.178 60.5452 145.099 62.1368V67.08C145.178 68.6716 144.906 70.2612 144.303 71.7346C144.043 72.2187 143.658 72.6231 143.188 72.9048C142.719 73.1866 142.182 73.3354 141.635 73.3354C141.088 73.3354 140.552 73.1866 140.082 72.9048C139.613 72.6231 139.227 72.2187 138.967 71.7346" fill="#262626"/>
<path d="M73.1757 79.7031H75.5247L79.335 90.1853L83.173 79.7031H85.5312L85.707 96.767H83.025V86.5827L79.8436 95.082H78.8633L75.682 86.6385V96.767H73L73.1757 79.7031Z" fill="#262626"/>
<path d="M96.0001 93.7975C96.3377 93.5391 96.6286 93.2242 96.8602 92.8666V88.0258C96.1773 88.3964 95.5165 88.8067 94.8811 89.2546C94.4306 89.582 94.0395 89.9851 93.725 90.4462C93.4098 90.9292 93.2485 91.4976 93.2626 92.0753C93.2296 92.648 93.3647 93.2178 93.6511 93.7137C93.7735 93.8993 93.942 94.0494 94.14 94.1491C94.338 94.2487 94.5584 94.2944 94.7793 94.2816C95.2302 94.27 95.6625 94.0986 96.0001 93.7975ZM91.7644 96.4414C91.2483 96.0581 90.8377 95.5486 90.5714 94.9612C90.2778 94.3652 90.1258 93.7087 90.1275 93.0435C90.0678 91.9116 90.3517 90.7881 90.9414 89.8225C91.5095 88.9937 92.2636 88.3112 93.1424 87.8303C94.3424 87.1977 95.5775 86.6351 96.8417 86.1453V84.9351C96.8948 84.1254 96.7782 83.3134 96.4995 82.5519C96.363 82.3131 96.1593 82.1202 95.9141 81.9976C95.6689 81.875 95.3931 81.8282 95.1215 81.8631C93.91 81.8631 93.2719 82.673 93.2719 84.2835V85.1399L90.1183 85.0189C90.0435 83.4929 90.5346 81.9933 91.4962 80.8111C92.011 80.3266 92.621 79.9561 93.2869 79.7236C93.9528 79.4911 94.6597 79.4017 95.362 79.4613C96.0134 79.4082 96.6685 79.5017 97.2796 79.7352C97.8906 79.9687 98.4424 80.3362 98.8948 80.8111C99.7248 81.9922 100.12 83.4272 100.014 84.87V92.6618C100.017 94.0355 100.116 95.4073 100.31 96.7672H97.4336C97.2116 95.6408 97.0729 94.8029 97.0081 94.2537C96.7859 95.0074 96.3601 95.6842 95.7781 96.2086C95.1571 96.7519 94.3529 97.035 93.5308 96.9999C92.8979 97.008 92.279 96.8123 91.7644 96.4414Z" fill="#262626"/>
<path d="M104.721 79.7031H107.903V86.8713H111.981V79.7031H115.162V96.767H111.981V89.1799H107.903V96.767H104.721V79.7031Z" fill="#262626"/>
<path d="M119.98 79.7031H122.662V91.1907L127.841 79.7031H130.338V96.767H127.721V85.1956L122.57 96.767H119.98V79.7031Z" fill="#262626"/>
<path d="M141.649 88.2034V81.5008H141.316C140.294 81.4121 139.274 81.6854 138.431 82.2734C138.127 82.6221 137.898 83.0305 137.76 83.4729C137.621 83.9152 137.576 84.3818 137.626 84.8428C137.549 85.7578 137.831 86.6669 138.412 87.3749C139.234 88.0028 140.26 88.2984 141.288 88.2034H141.649ZM137.117 89.5346C135.558 88.914 134.775 87.3625 134.768 84.88C134.723 83.8543 134.943 82.8343 135.406 81.9197C135.893 81.1324 136.645 80.5476 137.524 80.2719C138.788 79.8667 140.11 79.6748 141.436 79.7041H144.775V96.7679H141.649V90.0373C141.307 90.0373 140.798 90.0373 140.123 89.9722L137.349 96.7679H133.927L137.117 89.5346Z" fill="#262626"/>
<path d="M174.582 95.2224L170.873 89.4507L195.334 73.5039L204 76.0453L197.563 80.2438L174.582 95.2224Z" fill="#27C4EE"/>
<path d="M159.285 71.4461L155.577 65.6744L179.899 49.8207L184.227 47L183.617 55.5924L159.285 71.4461Z" fill="#27C4EE"/>
<path d="M183.441 55.7051L176.829 60.0339L175.396 73.793L188.852 77.7215L195.325 73.4951L203.991 76.0365L182.202 69.2687L183.441 55.7051ZM204 76.0458L197.526 80.2443H197.471L204 76.0458Z" fill="#42403F"/>
<path d="M195.335 73.5039L188.852 77.7303L197.508 80.2717L197.563 80.2438L204 76.0453L195.335 73.5039Z" fill="#323D40"/>
<path d="M184.227 47L177.744 51.2264L176.829 60.0143L183.441 55.7042L184.227 47Z" fill="#323D40"/>
<path d="M164.161 68.2681L159.286 71.4453L170.866 89.4498L175.741 86.2726L164.161 68.2681Z" fill="#42403F"/>
<path d="M175.747 86.2798L170.872 89.457L174.581 95.2241L179.456 92.0469L175.747 86.2798Z" fill="#323D40"/>
<path d="M160.456 62.5044L155.58 65.6816L159.29 71.4487L164.165 68.2715L160.456 62.5044Z" fill="#323D40"/>
</g>
<defs>
<clipPath id="clip0_966_3327">
<rect width="131" height="50" fill="white" transform="translate(73 47)"/>
</clipPath>
</defs>
</svg>
