<svg width="278" height="198" viewBox="0 0 278 198" fill="none" xmlns="http://www.w3.org/2000/svg">
<path fill-rule="evenodd" clip-rule="evenodd" d="M104.95 141.022V138.947H105.789V138.541H103.638V138.947H104.476V141.022H104.95ZM109.963 138.481C109.824 138.48 109.698 138.495 109.586 138.527C109.474 138.559 109.377 138.612 109.295 138.688C109.213 138.764 109.147 138.867 109.098 138.997C109.049 139.128 109.017 139.292 109.003 139.488H108.454V138.541H107.983V141.022H108.454V139.922H109C109.009 140.141 109.037 140.324 109.084 140.473C109.131 140.621 109.196 140.739 109.278 140.827C109.36 140.915 109.459 140.977 109.574 141.016C109.688 141.054 109.819 141.072 109.963 141.072C110.087 141.072 110.2 141.059 110.301 141.032C110.403 141.005 110.493 140.96 110.57 140.899C110.648 140.838 110.713 140.756 110.766 140.654C110.819 140.552 110.859 140.426 110.886 140.276C110.913 140.127 110.926 139.951 110.926 139.748C110.926 139.548 110.913 139.375 110.886 139.23C110.859 139.086 110.819 138.965 110.766 138.868C110.713 138.771 110.648 138.694 110.57 138.638C110.493 138.581 110.403 138.541 110.301 138.516C110.2 138.492 110.087 138.48 109.963 138.481ZM109.963 140.648C109.891 140.649 109.828 140.642 109.775 140.626C109.721 140.611 109.675 140.585 109.638 140.547C109.6 140.508 109.57 140.456 109.547 140.388C109.524 140.32 109.508 140.234 109.497 140.129C109.486 140.024 109.482 139.897 109.482 139.748C109.482 139.598 109.486 139.473 109.497 139.371C109.508 139.269 109.524 139.187 109.547 139.124C109.57 139.061 109.6 139.013 109.638 138.98C109.675 138.948 109.721 138.925 109.775 138.914C109.828 138.902 109.891 138.896 109.963 138.897C110.037 138.896 110.101 138.902 110.155 138.914C110.209 138.925 110.255 138.948 110.292 138.98C110.328 139.013 110.358 139.061 110.38 139.124C110.402 139.187 110.417 139.269 110.427 139.371C110.436 139.473 110.441 139.598 110.441 139.748C110.441 139.897 110.436 140.024 110.427 140.129C110.417 140.234 110.402 140.32 110.38 140.388C110.358 140.456 110.328 140.508 110.292 140.547C110.255 140.585 110.209 140.611 110.155 140.626C110.101 140.642 110.037 140.649 109.963 140.648ZM114.64 140.129C114.589 139.999 114.534 139.866 114.477 139.731C114.42 139.595 114.362 139.459 114.302 139.323C114.242 139.187 114.182 139.052 114.121 138.921C114.06 138.789 114 138.663 113.941 138.541H113.299V141.022H113.752V139.175C113.807 139.295 113.863 139.423 113.921 139.56C113.979 139.697 114.037 139.837 114.095 139.98C114.153 140.123 114.21 140.265 114.264 140.403C114.319 140.541 114.371 140.671 114.419 140.794H114.787C114.837 140.671 114.891 140.542 114.947 140.405C115.004 140.268 115.063 140.129 115.123 139.987C115.184 139.845 115.244 139.706 115.304 139.568C115.364 139.43 115.422 139.299 115.479 139.175V141.022H115.939V138.541H115.329C115.271 138.661 115.211 138.786 115.151 138.917C115.091 139.048 115.031 139.182 114.972 139.319C114.912 139.455 114.854 139.592 114.798 139.728C114.742 139.865 114.69 139.998 114.64 140.129ZM118.437 138.541V141.022H120.242V140.616H118.908V139.922H119.86V139.52H118.908V138.947H120.242V138.541H118.437ZM122.989 139.922H124.052V141.022H124.516V138.541H124.052V139.488H122.989V138.541H122.519V141.022H122.989V139.922ZM126.889 139.758C126.889 139.96 126.905 140.135 126.935 140.283C126.965 140.431 127.011 140.556 127.073 140.657C127.134 140.759 127.211 140.84 127.305 140.9C127.397 140.961 127.506 141.005 127.632 141.032C127.757 141.059 127.898 141.072 128.056 141.072C128.113 141.072 128.173 141.07 128.236 141.065C128.299 141.061 128.362 141.055 128.426 141.048C128.489 141.04 128.55 141.03 128.609 141.019C128.667 141.008 128.72 140.997 128.769 140.983L128.666 140.563C128.633 140.575 128.596 140.585 128.553 140.595C128.51 140.604 128.464 140.613 128.416 140.619C128.368 140.626 128.321 140.632 128.273 140.635C128.225 140.64 128.18 140.641 128.138 140.641C128.029 140.642 127.934 140.636 127.852 140.623C127.77 140.61 127.699 140.586 127.641 140.551C127.582 140.516 127.535 140.466 127.498 140.4C127.462 140.335 127.435 140.25 127.418 140.146C127.4 140.041 127.392 139.914 127.392 139.762C127.392 139.61 127.4 139.483 127.418 139.381C127.435 139.278 127.462 139.195 127.498 139.132C127.535 139.069 127.582 139.022 127.641 138.989C127.699 138.957 127.77 138.935 127.852 138.923C127.934 138.913 128.029 138.907 128.138 138.908C128.18 138.908 128.225 138.909 128.273 138.914C128.321 138.917 128.368 138.923 128.416 138.93C128.464 138.936 128.51 138.945 128.553 138.954C128.596 138.964 128.633 138.974 128.666 138.986L128.769 138.573C128.72 138.56 128.667 138.548 128.609 138.536C128.55 138.525 128.489 138.515 128.426 138.507C128.362 138.498 128.299 138.492 128.236 138.488C128.173 138.483 128.113 138.481 128.056 138.481C127.898 138.48 127.757 138.492 127.632 138.516C127.506 138.541 127.397 138.581 127.305 138.638C127.211 138.695 127.134 138.772 127.073 138.87C127.011 138.968 126.965 139.09 126.935 139.236C126.905 139.382 126.889 139.556 126.889 139.758ZM133.072 141.022C133.001 140.838 132.935 140.679 132.873 140.543C132.811 140.408 132.753 140.293 132.697 140.198C132.642 140.103 132.589 140.024 132.539 139.961C132.488 139.898 132.439 139.847 132.391 139.808C132.342 139.769 132.294 139.738 132.247 139.714C132.199 139.691 132.151 139.671 132.102 139.655C132.144 139.621 132.207 139.557 132.291 139.463C132.376 139.369 132.479 139.245 132.6 139.092C132.722 138.938 132.859 138.755 133.011 138.541H132.441C132.349 138.675 132.257 138.803 132.165 138.925C132.072 139.047 131.983 139.159 131.896 139.263C131.81 139.367 131.73 139.459 131.656 139.54C131.583 139.62 131.519 139.686 131.467 139.737V138.541H130.996V141.022H131.467V139.844C131.554 139.851 131.635 139.866 131.71 139.891C131.784 139.914 131.855 139.952 131.921 140.003C131.988 140.054 132.053 140.123 132.116 140.209C132.18 140.296 132.244 140.407 132.308 140.54C132.373 140.673 132.441 140.833 132.512 141.022H133.072ZM136.294 138.481C136.136 138.48 135.994 138.492 135.868 138.517C135.741 138.542 135.631 138.583 135.536 138.64C135.442 138.698 135.363 138.776 135.299 138.873C135.236 138.971 135.188 139.093 135.157 139.239C135.125 139.384 135.11 139.557 135.11 139.758C135.11 139.963 135.125 140.14 135.156 140.289C135.188 140.438 135.235 140.563 135.298 140.664C135.362 140.764 135.44 140.845 135.535 140.905C135.63 140.964 135.74 141.008 135.866 141.034C135.993 141.06 136.136 141.072 136.294 141.072C136.451 141.072 136.593 141.06 136.72 141.034C136.846 141.008 136.956 140.964 137.05 140.905C137.145 140.845 137.223 140.764 137.286 140.664C137.349 140.563 137.396 140.438 137.428 140.289C137.459 140.14 137.475 139.963 137.475 139.758C137.475 139.557 137.459 139.384 137.428 139.239C137.396 139.093 137.349 138.971 137.286 138.873C137.223 138.776 137.145 138.698 137.05 138.64C136.956 138.583 136.846 138.542 136.72 138.517C136.593 138.492 136.451 138.48 136.294 138.481ZM136.294 140.648C136.185 140.649 136.092 140.643 136.013 140.628C135.935 140.615 135.87 140.589 135.818 140.553C135.767 140.517 135.725 140.466 135.695 140.399C135.665 140.333 135.643 140.248 135.631 140.145C135.618 140.041 135.612 139.914 135.612 139.766C135.612 139.616 135.618 139.49 135.631 139.388C135.643 139.285 135.665 139.202 135.695 139.138C135.725 139.074 135.767 139.025 135.818 138.991C135.87 138.957 135.935 138.934 136.013 138.922C136.092 138.91 136.185 138.904 136.294 138.904C136.403 138.904 136.496 138.909 136.574 138.922C136.652 138.934 136.718 138.957 136.77 138.991C136.821 139.025 136.862 139.074 136.893 139.138C136.923 139.202 136.944 139.285 136.957 139.388C136.969 139.49 136.976 139.616 136.975 139.766C136.976 139.914 136.969 140.041 136.957 140.145C136.944 140.248 136.923 140.333 136.893 140.399C136.862 140.466 136.821 140.517 136.77 140.553C136.718 140.589 136.652 140.615 136.574 140.628C136.496 140.642 136.403 140.649 136.294 140.648ZM141.981 138.541H141.413C141.245 138.851 141.068 139.163 140.883 139.477C140.698 139.791 140.508 140.103 140.315 140.413V138.541H139.851V141.022H140.468C140.59 140.833 140.71 140.639 140.83 140.44C140.949 140.241 141.067 140.04 141.183 139.836C141.298 139.633 141.411 139.43 141.521 139.228V141.022H141.981V138.541ZM140.386 137.922C140.387 138.035 140.407 138.127 140.449 138.198C140.49 138.271 140.55 138.324 140.628 138.358C140.707 138.393 140.802 138.41 140.914 138.41C141.088 138.41 141.22 138.371 141.311 138.293C141.403 138.214 141.449 138.09 141.449 137.922H141.164C141.164 137.977 141.154 138.02 141.136 138.05C141.117 138.08 141.091 138.1 141.055 138.112C141.019 138.124 140.976 138.129 140.925 138.128C140.873 138.129 140.829 138.124 140.794 138.112C140.759 138.1 140.733 138.08 140.715 138.05C140.698 138.02 140.689 137.977 140.689 137.922H140.386ZM146.491 138.481C146.333 138.48 146.191 138.492 146.065 138.517C145.938 138.542 145.828 138.583 145.733 138.64C145.638 138.698 145.559 138.776 145.496 138.873C145.433 138.971 145.385 139.093 145.354 139.239C145.322 139.384 145.306 139.557 145.306 139.758C145.306 139.963 145.322 140.14 145.353 140.289C145.385 140.438 145.432 140.563 145.495 140.664C145.558 140.764 145.637 140.845 145.731 140.905C145.826 140.964 145.937 141.008 146.063 141.034C146.19 141.06 146.332 141.072 146.491 141.072C146.648 141.072 146.79 141.06 146.916 141.034C147.042 141.008 147.152 140.964 147.247 140.905C147.341 140.845 147.42 140.764 147.483 140.664C147.546 140.563 147.593 140.438 147.624 140.289C147.656 140.14 147.672 139.963 147.672 139.758C147.672 139.557 147.656 139.384 147.624 139.239C147.593 139.093 147.546 138.971 147.483 138.873C147.42 138.776 147.341 138.698 147.247 138.64C147.152 138.583 147.042 138.542 146.916 138.517C146.79 138.492 146.648 138.48 146.491 138.481ZM146.491 140.648C146.382 140.649 146.288 140.643 146.21 140.628C146.132 140.615 146.067 140.589 146.015 140.553C145.963 140.517 145.922 140.466 145.892 140.399C145.861 140.333 145.84 140.248 145.828 140.145C145.815 140.041 145.809 139.914 145.809 139.766C145.809 139.616 145.815 139.49 145.828 139.388C145.84 139.285 145.861 139.202 145.892 139.138C145.922 139.074 145.963 139.025 146.015 138.991C146.067 138.957 146.132 138.934 146.21 138.922C146.288 138.91 146.382 138.904 146.491 138.904C146.599 138.904 146.693 138.909 146.771 138.922C146.849 138.934 146.915 138.957 146.966 138.991C147.018 139.025 147.059 139.074 147.089 139.138C147.12 139.202 147.141 139.285 147.153 139.388C147.166 139.49 147.173 139.616 147.172 139.766C147.173 139.914 147.166 140.041 147.153 140.145C147.141 140.248 147.12 140.333 147.089 140.399C147.059 140.466 147.018 140.517 146.966 140.553C146.915 140.589 146.849 140.615 146.771 140.628C146.693 140.642 146.599 140.649 146.491 140.648ZM150.519 140.627V139.912H151.289C151.375 139.912 151.439 139.944 151.48 140.006C151.522 140.069 151.543 140.16 151.543 140.278C151.543 140.391 151.525 140.477 151.487 140.537C151.45 140.596 151.389 140.626 151.303 140.627H150.519ZM151.839 138.541H150.048V141.022H151.407C151.541 141.023 151.656 140.999 151.751 140.952C151.847 140.905 151.92 140.826 151.971 140.718C152.023 140.61 152.049 140.466 152.049 140.285C152.05 140.123 152.027 139.987 151.981 139.875C151.935 139.763 151.863 139.677 151.766 139.618C151.667 139.56 151.541 139.531 151.386 139.531H150.519V138.947H151.839V138.541ZM155.96 138.947V141.022H156.423V138.541H154.754C154.739 138.843 154.708 139.137 154.66 139.423C154.611 139.709 154.551 139.985 154.48 140.252C154.409 140.519 154.333 140.776 154.251 141.022H154.747C154.807 140.851 154.861 140.676 154.909 140.499C154.958 140.322 155 140.145 155.037 139.967C155.074 139.79 155.104 139.615 155.13 139.444C155.154 139.273 155.173 139.106 155.185 138.947H155.96ZM160.587 141.022H161.108C161.052 140.888 160.993 140.744 160.933 140.586C160.871 140.429 160.809 140.264 160.745 140.092C160.682 139.92 160.619 139.745 160.557 139.568C160.495 139.391 160.434 139.215 160.376 139.042C160.318 138.868 160.264 138.701 160.213 138.541H159.474C159.413 138.69 159.35 138.847 159.286 139.012C159.222 139.178 159.158 139.347 159.093 139.521C159.029 139.695 158.966 139.868 158.904 140.042C158.843 140.216 158.784 140.385 158.728 140.551C158.672 140.716 158.621 140.873 158.575 141.022H159.067C159.096 140.928 159.126 140.828 159.158 140.724C159.19 140.62 159.224 140.513 159.26 140.403H160.348C160.39 140.517 160.431 140.626 160.472 140.731C160.513 140.836 160.551 140.932 160.587 141.022ZM159.866 138.94C159.898 139.047 159.933 139.159 159.97 139.276C160.007 139.392 160.047 139.512 160.087 139.634C160.128 139.756 160.17 139.878 160.213 140.001H159.385C159.449 139.813 159.514 139.629 159.579 139.45C159.643 139.271 159.708 139.101 159.77 138.94H159.866ZM163.099 139.758C163.099 139.96 163.114 140.135 163.145 140.283C163.175 140.431 163.221 140.556 163.283 140.657C163.344 140.759 163.421 140.84 163.514 140.9C163.607 140.961 163.716 141.005 163.842 141.032C163.966 141.059 164.108 141.072 164.265 141.072C164.323 141.072 164.383 141.07 164.446 141.065C164.509 141.061 164.572 141.055 164.636 141.048C164.699 141.04 164.76 141.03 164.818 141.019C164.877 141.008 164.93 140.997 164.979 140.983L164.875 140.563C164.843 140.575 164.805 140.585 164.763 140.595C164.72 140.604 164.674 140.613 164.626 140.619C164.578 140.626 164.531 140.632 164.482 140.635C164.435 140.64 164.39 140.641 164.348 140.641C164.239 140.642 164.144 140.636 164.062 140.623C163.98 140.61 163.909 140.586 163.851 140.551C163.792 140.516 163.745 140.466 163.708 140.4C163.671 140.335 163.645 140.25 163.627 140.146C163.61 140.041 163.602 139.914 163.602 139.762C163.602 139.61 163.61 139.483 163.627 139.381C163.645 139.278 163.671 139.195 163.708 139.132C163.745 139.069 163.792 139.022 163.851 138.989C163.909 138.957 163.98 138.935 164.062 138.923C164.144 138.913 164.239 138.907 164.348 138.908C164.39 138.908 164.435 138.909 164.482 138.914C164.531 138.917 164.578 138.923 164.626 138.93C164.674 138.936 164.72 138.945 164.763 138.954C164.805 138.964 164.843 138.974 164.875 138.986L164.979 138.573C164.93 138.56 164.877 138.548 164.818 138.536C164.76 138.525 164.699 138.515 164.636 138.507C164.572 138.498 164.509 138.492 164.446 138.488C164.383 138.483 164.323 138.481 164.265 138.481C164.108 138.48 163.966 138.492 163.842 138.516C163.716 138.541 163.607 138.581 163.514 138.638C163.421 138.695 163.344 138.772 163.283 138.87C163.221 138.968 163.175 139.09 163.145 139.236C163.114 139.382 163.099 139.556 163.099 139.758ZM168.215 141.022V138.947H169.054V138.541H166.902V138.947H167.741V141.022H168.215ZM173.378 138.541H172.81C172.642 138.851 172.465 139.163 172.28 139.477C172.095 139.791 171.905 140.103 171.712 140.413V138.541H171.248V141.022H171.865C171.986 140.833 172.107 140.639 172.227 140.44C172.346 140.241 172.464 140.04 172.58 139.836C172.695 139.633 172.808 139.43 172.917 139.228V141.022H173.378V138.541Z" fill="#0F0D04"/>
<path d="M146.502 57H130.182L111.052 88.6824L119.084 102.079L146.502 57Z" fill="url(#paint0_linear_1092_3101)"/>
<path d="M146.502 57H130.182L122.074 70.4287H138.331L146.502 57Z" fill="url(#paint1_linear_1092_3101)"/>
<path d="M130.182 57H146.519L165.998 88.6764L157.544 102.08L130.182 57Z" fill="url(#paint2_linear_1092_3101)"/>
<path d="M127.232 88.6871L165.998 88.6797L157.545 102.078H119.083L127.232 88.6871Z" fill="url(#paint3_linear_1092_3101)"/>
<path d="M127.23 88.6855L135.877 102.078H119.083L127.23 88.6855Z" fill="url(#paint4_linear_1092_3101)"/>
<path fill-rule="evenodd" clip-rule="evenodd" d="M88.2849 118.814H89.3339L91.2898 111.47C91.539 110.519 92.1963 110.043 93.2645 110.043C94.3349 110.043 94.9947 110.519 95.2464 111.47L97.1855 118.814H98.2915C98.3698 118.814 98.4363 118.842 98.4933 118.895C98.5478 118.949 98.5764 119.017 98.5764 119.093V122.201C98.5764 122.278 98.5478 122.346 98.4933 122.399C98.4363 122.453 98.3698 122.481 98.2915 122.481H96.8865C96.8082 122.481 96.7393 122.453 96.6847 122.395C96.6302 122.339 96.6017 122.273 96.6017 122.201V120.548H89.9747V122.201C89.9747 122.273 89.9464 122.339 89.8916 122.395C89.8348 122.453 89.7683 122.481 89.69 122.481H88.2849C88.2065 122.481 88.1376 122.453 88.0831 122.395C88.0285 122.339 88 122.273 88 122.201V119.093C88 119.017 88.0285 118.949 88.0831 118.895C88.1376 118.842 88.2065 118.814 88.2849 118.814ZM93.0413 111.901L91.3444 118.814H95.1752L93.4924 111.901C93.4567 111.757 93.3783 111.682 93.2645 111.682C93.1529 111.682 93.077 111.757 93.0413 111.901ZM106.143 120.173C106.143 120.287 106.112 120.362 106.055 120.401C105.998 120.441 105.699 120.492 105.163 120.557C104.624 120.625 103.955 120.658 103.153 120.658C101.947 120.658 101.097 120.422 100.603 119.951C100.11 119.478 99.8627 118.76 99.8627 117.795V112.913C99.8627 111.943 100.11 111.223 100.603 110.75C101.097 110.278 101.947 110.043 103.153 110.043C103.82 110.043 104.46 110.076 105.075 110.139C105.69 110.201 106.02 110.26 106.069 110.309C106.117 110.36 106.143 110.434 106.143 110.535V111.43C106.143 111.507 106.115 111.572 106.06 111.628C106.003 111.682 105.937 111.71 105.858 111.71H102.951C102.519 111.71 102.224 111.798 102.063 111.976C101.904 112.153 101.823 112.465 101.823 112.913V114.421H105.683C105.763 114.421 105.83 114.449 105.884 114.503C105.941 114.559 105.968 114.624 105.968 114.701V115.706C105.968 115.783 105.941 115.848 105.884 115.904C105.83 115.958 105.763 115.986 105.683 115.986H101.823V117.795C101.823 118.242 101.904 118.555 102.063 118.732C102.224 118.909 102.519 118.998 102.951 118.998H105.858C105.937 118.998 106.003 119.026 106.06 119.079C106.115 119.135 106.143 119.201 106.143 119.278V120.173ZM116.072 112.563V120.268C116.072 120.345 116.043 120.411 115.986 120.467C115.927 120.52 115.86 120.548 115.787 120.548H114.374C114.296 120.548 114.23 120.52 114.173 120.467C114.118 120.411 114.09 120.345 114.09 120.268V112.563C114.09 112.29 114.049 112.106 113.966 112.013C113.881 111.92 113.724 111.873 113.491 111.873H110.641C110.401 111.873 110.24 111.922 110.161 112.02C110.083 112.118 110.043 112.3 110.043 112.563V120.268C110.043 120.345 110.014 120.411 109.96 120.467C109.905 120.52 109.836 120.548 109.758 120.548H108.353C108.274 120.548 108.208 120.52 108.151 120.467C108.096 120.411 108.068 120.345 108.068 120.268V112.563C108.068 111.717 108.27 111.104 108.671 110.724C109.072 110.344 109.727 110.153 110.641 110.153H113.491C114.401 110.153 115.058 110.342 115.464 110.717C115.87 111.092 116.072 111.708 116.072 112.563ZM120.097 117.653L119.672 119.359C119.515 120.007 119.43 120.348 119.418 120.38C119.409 120.415 119.378 120.45 119.328 120.49C119.281 120.53 119.228 120.548 119.171 120.548H117.664C117.491 120.548 117.405 120.469 117.405 120.308C117.405 120.301 117.41 120.278 117.42 120.24L119.758 111.47C120.007 110.519 120.667 110.043 121.737 110.043C122.805 110.043 123.462 110.519 123.712 111.47L126.064 120.308C126.064 120.469 125.978 120.548 125.805 120.548H124.298C124.153 120.548 124.063 120.471 124.025 120.315L123.372 117.653H120.097ZM122.99 116.06L122.259 113.104C122.041 112.23 121.92 111.773 121.891 111.738C121.863 111.701 121.813 111.682 121.737 111.682C121.628 111.682 121.559 111.722 121.538 111.798L120.479 116.06H122.99ZM134.749 113.398C134.749 114.111 134.592 114.713 134.276 115.2C133.961 115.687 133.495 116.056 132.881 116.303C132.268 116.552 131.525 116.676 130.652 116.676C130.393 116.676 129.968 116.657 129.38 116.62V120.268C129.38 120.345 129.354 120.411 129.304 120.467C129.252 120.52 129.187 120.548 129.109 120.548H127.69C127.611 120.548 127.545 120.52 127.488 120.467C127.433 120.411 127.405 120.345 127.405 120.268V110.645C127.405 110.493 127.459 110.383 127.569 110.314C127.678 110.244 128.058 110.181 128.708 110.125C129.361 110.071 130.009 110.043 130.652 110.043C131.984 110.043 132.999 110.316 133.699 110.859C134.397 111.405 134.749 112.209 134.749 113.274V113.398ZM132.788 113.398V113.274C132.788 112.71 132.617 112.297 132.28 112.039C131.941 111.778 131.4 111.649 130.652 111.649C130.199 111.649 129.774 111.668 129.38 111.71V115.037C129.914 115.063 130.339 115.076 130.652 115.076C131.385 115.076 131.924 114.944 132.268 114.678C132.615 114.412 132.788 113.985 132.788 113.398ZM143.141 111.526C143.141 111.694 143.046 111.778 142.857 111.778H140.36V120.268C140.36 120.345 140.333 120.411 140.277 120.467C140.222 120.52 140.153 120.548 140.075 120.548H138.67C138.591 120.548 138.525 120.52 138.468 120.467C138.413 120.411 138.385 120.345 138.385 120.268V111.778H135.89C135.698 111.778 135.603 111.694 135.603 111.526V110.418C135.603 110.346 135.632 110.283 135.689 110.232C135.743 110.178 135.809 110.153 135.89 110.153H142.857C142.935 110.153 143.004 110.178 143.058 110.232C143.113 110.283 143.141 110.346 143.141 110.418V111.526ZM145.249 117.653L144.824 119.359C144.667 120.007 144.582 120.348 144.57 120.38C144.56 120.415 144.53 120.45 144.48 120.49C144.432 120.53 144.38 120.548 144.323 120.548H142.816C142.643 120.548 142.557 120.469 142.557 120.308C142.557 120.301 142.562 120.278 142.572 120.24L144.91 111.47C145.159 110.519 145.819 110.043 146.889 110.043C147.957 110.043 148.615 110.519 148.864 111.47L151.216 120.308C151.216 120.469 151.13 120.548 150.957 120.548H149.45C149.305 120.548 149.215 120.471 149.177 120.315L148.524 117.653H145.249ZM148.142 116.06L147.411 113.104C147.193 112.23 147.072 111.773 147.043 111.738C147.015 111.701 146.965 111.682 146.889 111.682C146.78 111.682 146.711 111.722 146.69 111.798L145.631 116.06H148.142ZM161.695 120.336C161.695 120.478 161.617 120.548 161.458 120.548H160.019C159.958 120.548 159.905 120.52 159.858 120.462C159.813 120.406 159.789 120.341 159.789 120.268V113.766C159.789 113.671 159.775 113.622 159.746 113.622C159.73 113.622 159.644 113.773 159.49 114.074L158.336 116.326C158.234 116.522 158.071 116.62 157.85 116.62H156.416C156.198 116.62 156.046 116.541 155.958 116.382L154.907 114.347C154.658 113.864 154.522 113.622 154.503 113.622C154.477 113.622 154.463 113.671 154.463 113.766V120.268C154.463 120.341 154.439 120.406 154.394 120.462C154.347 120.52 154.294 120.548 154.233 120.548H152.794C152.635 120.548 152.557 120.478 152.557 120.336V110.712C152.557 110.558 152.614 110.425 152.723 110.316C152.835 110.206 152.97 110.153 153.127 110.153H154.29C154.529 110.153 154.705 110.265 154.816 110.488L156.283 113.405C156.763 114.356 157.014 114.855 157.043 114.899C157.071 114.946 157.097 114.967 157.126 114.967C157.159 114.967 157.2 114.92 157.252 114.825L159.025 111.307C159.321 110.719 159.492 110.4 159.535 110.348C159.58 110.295 159.64 110.251 159.716 110.211C159.794 110.171 159.874 110.153 159.962 110.153H161.125C161.282 110.153 161.417 110.209 161.527 110.32C161.638 110.432 161.695 110.563 161.695 110.712V120.336ZM170.116 120.173C170.116 120.287 170.086 120.362 170.028 120.401C169.971 120.441 169.672 120.492 169.136 120.557C168.597 120.625 167.928 120.658 167.126 120.658C165.92 120.658 165.07 120.422 164.577 119.951C164.083 119.478 163.836 118.76 163.836 117.795V112.913C163.836 111.943 164.083 111.223 164.577 110.75C165.07 110.278 165.92 110.043 167.126 110.043C167.793 110.043 168.433 110.076 169.048 110.139C169.663 110.201 169.993 110.26 170.043 110.309C170.09 110.36 170.116 110.434 170.116 110.535V111.43C170.116 111.507 170.088 111.572 170.033 111.628C169.976 111.682 169.91 111.71 169.831 111.71H166.924C166.492 111.71 166.198 111.798 166.036 111.976C165.877 112.153 165.796 112.465 165.796 112.913V114.421H169.656C169.736 114.421 169.803 114.449 169.858 114.503C169.914 114.559 169.941 114.624 169.941 114.701V115.706C169.941 115.783 169.914 115.848 169.858 115.904C169.803 115.958 169.736 115.986 169.656 115.986H165.796V117.795C165.796 118.242 165.877 118.555 166.036 118.732C166.198 118.909 166.492 118.998 166.924 118.998H169.831C169.91 118.998 169.976 119.026 170.033 119.079C170.088 119.135 170.116 119.201 170.116 119.278V120.173ZM180.045 120.268C180.045 120.345 180.016 120.411 179.959 120.467C179.9 120.52 179.833 120.548 179.76 120.548H178.348C178.269 120.548 178.203 120.52 178.146 120.467C178.091 120.411 178.063 120.345 178.063 120.268V115.986H174.016V120.268C174.016 120.345 173.988 120.411 173.933 120.467C173.878 120.52 173.81 120.548 173.731 120.548H172.326C172.248 120.548 172.181 120.52 172.124 120.467C172.07 120.411 172.041 120.345 172.041 120.268V110.418C172.041 110.346 172.067 110.283 172.122 110.232C172.174 110.178 172.243 110.153 172.326 110.153H173.731C173.81 110.153 173.878 110.178 173.933 110.232C173.988 110.283 174.016 110.346 174.016 110.418V114.279H178.063V110.418C178.063 110.346 178.091 110.283 178.146 110.232C178.203 110.178 178.269 110.153 178.348 110.153H179.76C179.838 110.153 179.907 110.178 179.962 110.232C180.018 110.283 180.045 110.346 180.045 110.418V120.268ZM189 111.526C189 111.694 188.905 111.778 188.715 111.778H186.218V120.268C186.218 120.345 186.192 120.411 186.135 120.467C186.08 120.52 186.012 120.548 185.933 120.548H184.528C184.45 120.548 184.383 120.52 184.326 120.467C184.272 120.411 184.243 120.345 184.243 120.268V111.778H181.749C181.557 111.778 181.462 111.694 181.462 111.526V110.418C181.462 110.346 181.49 110.283 181.547 110.232C181.602 110.178 181.668 110.153 181.749 110.153H188.715C188.793 110.153 188.862 110.178 188.917 110.232C188.971 110.283 189 110.346 189 110.418V111.526Z" fill="#0F0D04"/>
<path fill-rule="evenodd" clip-rule="evenodd" d="M107.62 129.572L111.329 134.617C111.382 134.693 111.406 134.751 111.406 134.786C111.406 134.868 111.334 134.909 111.19 134.909H109.257C109.106 134.909 108.998 134.858 108.927 134.754L105.632 130.002V134.631C105.632 134.707 105.604 134.772 105.548 134.828C105.493 134.881 105.424 134.909 105.345 134.909H103.925C103.846 134.909 103.779 134.881 103.722 134.828C103.666 134.772 103.638 134.707 103.638 134.631V124.827C103.638 124.755 103.664 124.693 103.719 124.642C103.772 124.588 103.841 124.563 103.925 124.563H105.345C105.424 124.563 105.493 124.588 105.548 124.642C105.604 124.693 105.632 124.755 105.632 124.827V129.265L109.159 124.679C109.214 124.6 109.324 124.563 109.49 124.563H111.132C111.315 124.563 111.406 124.618 111.406 124.732C111.406 124.795 111.372 124.872 111.3 124.958L107.62 129.572ZM116.054 130.771L117.608 124.774C117.647 124.614 117.742 124.535 117.896 124.535H119.363C119.543 124.535 119.632 124.607 119.632 124.753C119.632 124.786 119.625 124.818 119.61 124.855L117.251 132.832C116.973 133.773 116.618 134.373 116.186 134.631C115.752 134.889 115.129 135.019 114.314 135.019C114 135.019 113.676 134.995 113.345 134.947C113.012 134.9 112.787 134.852 112.667 134.8C112.547 134.751 112.487 134.684 112.487 134.603V133.711C112.487 133.543 112.578 133.46 112.76 133.46L114.434 133.541C114.755 133.541 115.004 133.48 115.174 133.36C115.345 133.241 115.501 132.92 115.642 132.398H115.424C115.067 132.398 114.796 132.295 114.609 132.089C114.422 131.882 114.276 131.598 114.172 131.241L112.291 124.855C112.276 124.818 112.269 124.783 112.269 124.746C112.269 124.605 112.36 124.535 112.545 124.535H113.997C114.139 124.535 114.23 124.618 114.271 124.788L115.726 130.464C115.757 130.588 115.789 130.669 115.817 130.709C115.846 130.75 115.896 130.771 115.971 130.771H116.054ZM125.494 134.67L123.408 126.292C123.372 126.147 123.295 126.073 123.182 126.073C123.068 126.073 122.988 126.147 122.952 126.292L120.867 134.67C120.828 134.831 120.737 134.909 120.591 134.909H119.068C118.893 134.909 118.807 134.831 118.807 134.67C118.807 134.663 118.812 134.64 118.821 134.603L121.183 125.862C121.435 124.913 122.101 124.439 123.182 124.439C124.261 124.439 124.925 124.913 125.177 125.862L127.553 134.67C127.553 134.831 127.467 134.909 127.292 134.909H125.769C125.628 134.909 125.537 134.831 125.494 134.67ZM130.903 124.827V128.355C131.152 128.336 131.579 128.327 132.187 128.327C133.533 128.327 134.559 128.599 135.266 129.14C135.971 129.681 136.326 130.485 136.326 131.547V131.798C136.326 132.507 136.168 133.099 135.856 133.578C135.542 134.057 135.074 134.417 134.453 134.659C133.832 134.898 133.077 135.019 132.187 135.019C131.533 135.019 130.874 134.991 130.214 134.937C129.555 134.881 129.171 134.819 129.066 134.749C128.961 134.679 128.908 134.57 128.908 134.419V124.827C128.908 124.751 128.936 124.686 128.992 124.63C129.049 124.577 129.116 124.549 129.195 124.549H130.629C130.708 124.549 130.773 124.577 130.826 124.63C130.876 124.686 130.903 124.751 130.903 124.827ZM130.903 129.988V133.364C131.301 133.402 131.73 133.418 132.187 133.418C132.943 133.418 133.489 133.29 133.832 133.03C134.173 132.772 134.345 132.361 134.345 131.798V131.547C134.345 130.976 134.17 130.562 133.818 130.311C133.468 130.06 132.924 129.932 132.187 129.932C131.73 129.932 131.301 129.951 130.903 129.988ZM143.77 125.917C143.77 126.085 143.674 126.168 143.482 126.168H140.96V134.631C140.96 134.707 140.934 134.772 140.877 134.828C140.821 134.881 140.752 134.909 140.673 134.909H139.253C139.174 134.909 139.107 134.881 139.049 134.828C138.994 134.772 138.965 134.707 138.965 134.631V126.168H136.446C136.251 126.168 136.156 126.085 136.156 125.917V124.814C136.156 124.742 136.184 124.679 136.242 124.628C136.297 124.574 136.364 124.549 136.446 124.549H143.482C143.562 124.549 143.631 124.574 143.686 124.628C143.741 124.679 143.77 124.742 143.77 124.814V125.917ZM148.378 130.771L149.932 124.774C149.97 124.614 150.066 124.535 150.219 124.535H151.687C151.866 124.535 151.955 124.607 151.955 124.753C151.955 124.786 151.948 124.818 151.933 124.855L149.574 132.832C149.296 133.773 148.941 134.373 148.51 134.631C148.076 134.889 147.452 135.019 146.638 135.019C146.323 135.019 146 134.995 145.669 134.947C145.336 134.9 145.11 134.852 144.99 134.8C144.87 134.751 144.811 134.684 144.811 134.603V133.711C144.811 133.543 144.902 133.46 145.084 133.46L146.757 133.541C147.079 133.541 147.328 133.48 147.498 133.36C147.668 133.241 147.824 132.92 147.966 132.398H147.748C147.39 132.398 147.119 132.295 146.932 132.089C146.745 131.882 146.599 131.598 146.496 131.241L144.614 124.855C144.599 124.818 144.592 124.783 144.592 124.746C144.592 124.605 144.683 124.535 144.868 124.535H146.321C146.462 124.535 146.554 124.618 146.594 124.788L148.05 130.464C148.081 130.588 148.112 130.669 148.141 130.709C148.169 130.75 148.22 130.771 148.294 130.771H148.378ZM160.874 127.783C160.874 128.494 160.716 129.094 160.397 129.579C160.078 130.065 159.608 130.432 158.987 130.678C158.368 130.927 157.618 131.05 156.736 131.05C156.475 131.05 156.045 131.031 155.451 130.994V134.631C155.451 134.707 155.424 134.772 155.374 134.828C155.321 134.881 155.257 134.909 155.177 134.909H153.744C153.665 134.909 153.597 134.881 153.54 134.828C153.485 134.772 153.456 134.707 153.456 134.631V125.039C153.456 124.888 153.511 124.779 153.621 124.709C153.732 124.639 154.115 124.577 154.772 124.521C155.432 124.467 156.086 124.439 156.736 124.439C158.081 124.439 159.107 124.711 159.814 125.253C160.519 125.797 160.874 126.598 160.874 127.66V127.783ZM158.894 127.783V127.66C158.894 127.098 158.721 126.686 158.38 126.428C158.038 126.168 157.491 126.04 156.736 126.04C156.278 126.04 155.849 126.059 155.451 126.101V129.417C155.99 129.442 156.419 129.456 156.736 129.456C157.477 129.456 158.021 129.324 158.368 129.059C158.719 128.794 158.894 128.369 158.894 127.783ZM164.456 124.827V128.355C164.705 128.336 165.132 128.327 165.741 128.327C167.086 128.327 168.112 128.599 168.819 129.14C169.524 129.681 169.879 130.485 169.879 131.547V131.798C169.879 132.507 169.721 133.099 169.409 133.578C169.095 134.057 168.628 134.417 168.006 134.659C167.385 134.898 166.63 135.019 165.741 135.019C165.086 135.019 164.427 134.991 163.768 134.937C163.108 134.881 162.725 134.819 162.619 134.749C162.514 134.679 162.461 134.57 162.461 134.419V124.827C162.461 124.751 162.49 124.686 162.545 124.63C162.603 124.577 162.67 124.549 162.749 124.549H164.182C164.262 124.549 164.326 124.577 164.379 124.63C164.429 124.686 164.456 124.751 164.456 124.827ZM164.456 129.988V133.364C164.854 133.402 165.283 133.418 165.741 133.418C166.496 133.418 167.043 133.29 167.385 133.03C167.726 132.772 167.899 132.361 167.899 131.798V131.547C167.899 130.976 167.724 130.562 167.371 130.311C167.021 130.06 166.477 129.932 165.741 129.932C165.283 129.932 164.854 129.951 164.456 129.988ZM173.362 134.631C173.362 134.707 173.334 134.772 173.279 134.828C173.221 134.881 173.154 134.909 173.075 134.909H171.648C171.569 134.909 171.502 134.881 171.444 134.828C171.389 134.772 171.36 134.707 171.36 134.631V124.814C171.36 124.742 171.389 124.679 171.444 124.628C171.502 124.574 171.569 124.549 171.648 124.549H173.075C173.154 124.549 173.221 124.574 173.279 124.628C173.334 124.679 173.362 124.742 173.362 124.814V134.631Z" fill="#0F0D04"/>
<defs>
<linearGradient id="paint0_linear_1092_3101" x1="111.052" y1="57" x2="111.052" y2="102.079" gradientUnits="userSpaceOnUse">
<stop stop-color="#E30016"/>
<stop offset="1" stop-color="#8F1213"/>
</linearGradient>
<linearGradient id="paint1_linear_1092_3101" x1="122.074" y1="57" x2="122.074" y2="70.4287" gradientUnits="userSpaceOnUse">
<stop stop-color="#868789"/>
<stop offset="1" stop-color="#D9DADB"/>
</linearGradient>
<linearGradient id="paint2_linear_1092_3101" x1="130.182" y1="57" x2="130.182" y2="102.08" gradientUnits="userSpaceOnUse">
<stop stop-color="#C4C6C8"/>
<stop offset="1" stop-color="#868789"/>
</linearGradient>
<linearGradient id="paint3_linear_1092_3101" x1="119.083" y1="88.6797" x2="119.083" y2="102.078" gradientUnits="userSpaceOnUse">
<stop stop-color="#3A3A3A"/>
<stop offset="1" stop-color="#B1B3B4"/>
</linearGradient>
<linearGradient id="paint4_linear_1092_3101" x1="119.084" y1="88.6855" x2="119.084" y2="102.078" gradientUnits="userSpaceOnUse">
<stop stop-color="#8F1213"/>
<stop offset="1" stop-color="#E30016"/>
</linearGradient>
</defs>
</svg>
