<svg width="278" height="198" viewBox="0 0 278 198" fill="none" xmlns="http://www.w3.org/2000/svg">
<g clip-path="url(#clip0_965_3092)">
<path d="M112.559 90.7061C110.285 90.657 108.273 90.2112 106.526 89.3707C104.778 88.5302 103.408 87.3117 102.414 85.7171C101.421 84.1205 101 82.2352 101 80.0584C101 78.0062 101.427 76.169 102.432 74.5489C103.438 72.9297 104.82 71.6493 106.58 70.7086C108.34 69.769 110.333 69.2751 112.56 69.225V67H116.726V69.226C118.976 69.2761 120.988 69.77 122.759 70.7096C124.531 71.6503 125.92 72.9297 126.925 74.5499C127.931 76.17 128.358 78.0062 128.358 80.0593C128.358 82.2362 127.937 84.1215 126.944 85.7171C125.95 87.3127 124.567 88.5302 122.795 89.3707C121.024 90.2112 119.001 90.6688 116.726 90.7434V92.9694H112.56V90.7061H112.559ZM112.559 72.9729C111.171 73.023 109.907 73.3323 108.77 73.9008C107.633 74.4703 106.729 75.2863 106.059 76.3497C105.389 77.4131 105.053 78.6375 105.053 80.022C105.053 82.298 105.754 84.0105 107.154 85.1603C108.554 86.3101 110.355 86.9101 112.558 86.9592V72.9729H112.559ZM122.202 85.1594C123.602 84.0095 124.303 82.2971 124.303 80.021C124.303 78.611 123.967 77.3817 123.297 76.33C122.626 75.2794 121.718 74.4693 120.568 73.8998C119.419 73.3313 118.138 73.022 116.725 72.9719V86.9582C118.975 86.9101 120.801 86.3091 122.202 85.1594Z" fill="#0E295E"/>
<path d="M131.372 67H135.538V92.9684H131.372V67Z" fill="#0E295E"/>
<path d="M153.853 67H158.019V85.3184L170.48 67H174V92.9684H169.834V74.5764L157.373 92.9684H153.853V67Z" fill="#0E295E"/>
<path d="M142.577 85.7161C142.577 82.8224 141.751 81.9318 139.237 81.9318V78.1476C141.751 78.1476 142.577 77.3689 142.577 74.5862V72.6018C142.577 68.7812 143.942 67 147.569 67H150.154V70.4504H148.633C147.054 70.4504 146.371 71.1181 146.371 73.0102V74.5361C146.371 77.7263 145.602 78.9272 142.334 79.1491V80.8183C145.602 81.0412 146.371 82.2784 146.371 85.506V86.9209C146.371 88.8503 147.054 89.518 148.633 89.518H150.154V92.9684H147.569C143.942 92.9684 142.577 91.1873 142.577 87.3667V85.7161Z" fill="#0E295E"/>
</g>
<defs>
<clipPath id="clip0_965_3092">
<rect width="73" height="26" fill="white" transform="translate(101 67)"/>
</clipPath>
</defs>
</svg>
