<svg width="278" height="198" viewBox="0 0 278 198" fill="none" xmlns="http://www.w3.org/2000/svg">
<g clip-path="url(#clip0_965_3015)">
<path d="M95.0006 88.1075C94.7105 88.1075 94.4667 88.0056 94.269 87.8018C94.075 87.5961 93.978 87.3354 93.978 87.0197C93.978 86.704 94.075 86.4443 94.269 86.2405C94.4611 86.0348 94.705 85.9319 95.0006 85.9319C95.1983 85.9319 95.3738 85.9788 95.5271 86.0727V86.4054C95.3701 86.2955 95.1955 86.2405 95.0034 86.2405C94.8001 86.2405 94.6302 86.3145 94.4935 86.4623C94.3586 86.6081 94.2912 86.7939 94.2912 87.0197C94.2912 87.2455 94.3595 87.4323 94.4962 87.5801C94.633 87.7259 94.8057 87.7989 95.0145 87.7989C95.2361 87.7989 95.4209 87.7349 95.5687 87.6071V87.9397C95.4061 88.0516 95.2167 88.1075 95.0006 88.1075Z" fill="black"/>
<path d="M96.2022 88.0686H95.9417V85.9708H96.2465V87.5112L97.3134 85.9708H97.5794V88.0686H97.2746V86.5222L96.2022 88.0686Z" fill="black"/>
<path d="M98.8809 88.0686H98.0607V85.9708H99.4296V86.2735H98.3655V86.717H98.8809C99.1008 86.717 99.2744 86.78 99.4019 86.9058C99.5294 87.0297 99.5931 87.1925 99.5931 87.3943C99.5931 87.5981 99.5294 87.7609 99.4019 87.8828C99.2763 88.0066 99.1026 88.0686 98.8809 88.0686ZM98.3655 87.0197V87.7659H98.8532C98.9899 87.7659 99.0952 87.7339 99.1691 87.67C99.2449 87.6041 99.2827 87.5122 99.2827 87.3943C99.2827 87.2764 99.2449 87.1845 99.1691 87.1186C99.0934 87.0527 98.9881 87.0197 98.8532 87.0197H98.3655Z" fill="black"/>
<path d="M100.24 88.0686H99.9794V85.9708H100.284V87.5112L101.351 85.9708H101.617V88.0686H101.312V86.5222L100.24 88.0686Z" fill="black"/>
<path d="M102.403 88.0686H102.098V85.9708H102.932C103.136 85.9708 103.294 86.0278 103.406 86.1417C103.523 86.2515 103.581 86.3974 103.581 86.5792C103.581 86.761 103.523 86.9108 103.406 87.0287C103.294 87.1446 103.136 87.2025 102.932 87.2025H102.403V88.0686ZM102.403 86.2735V86.8998H102.908C103.022 86.8998 103.112 86.8729 103.176 86.8189C103.241 86.763 103.273 86.6851 103.273 86.5852C103.273 86.4853 103.241 86.4084 103.176 86.3544C103.114 86.3005 103.024 86.2735 102.908 86.2735H102.403Z" fill="black"/>
<path d="M104.886 88.1075C104.596 88.1075 104.353 88.0056 104.155 87.8018C103.961 87.5961 103.864 87.3354 103.864 87.0197C103.864 86.704 103.961 86.4443 104.155 86.2405C104.347 86.0348 104.591 85.9319 104.886 85.9319C105.084 85.9319 105.26 85.9788 105.413 86.0727V86.4054C105.256 86.2955 105.081 86.2405 104.889 86.2405C104.686 86.2405 104.516 86.3145 104.379 86.4623C104.244 86.6081 104.177 86.7939 104.177 87.0197C104.177 87.2455 104.245 87.4323 104.382 87.5801C104.519 87.7259 104.692 87.7989 104.9 87.7989C105.122 87.7989 105.307 87.7349 105.455 87.6071V87.9397C105.292 88.0516 105.103 88.1075 104.886 88.1075Z" fill="black"/>
<path d="M106.132 88.0686H105.828V85.9708H106.132V86.8279L106.928 85.9708H107.318L106.421 86.9298L107.463 88.0686H107.047L106.132 87.0617V88.0686Z" fill="black"/>
<path d="M107.977 88.0686H107.717V85.9708H108.021V87.5112L109.088 85.9708H109.354V88.0686H109.049V86.5222L107.977 88.0686Z" fill="black"/>
<path d="M110.096 88.0686H109.835V85.9708H110.14V87.5112L111.207 85.9708H111.473V88.0686H111.168V86.5222L110.096 88.0686ZM110.653 85.848C110.507 85.848 110.389 85.803 110.298 85.7131C110.208 85.6232 110.162 85.5034 110.16 85.3535H110.415C110.415 85.4274 110.436 85.4874 110.478 85.5333C110.521 85.5773 110.578 85.5992 110.65 85.5992C110.722 85.5992 110.78 85.5763 110.822 85.5303C110.865 85.4844 110.887 85.4254 110.889 85.3535H111.143C111.142 85.5034 111.095 85.6232 111.002 85.7131C110.912 85.803 110.795 85.848 110.653 85.848Z" fill="black"/>
<path d="M112.935 88.0686H112.674V85.9708H112.979V87.5112L114.046 85.9708H114.312V88.0686H114.007V86.5222L112.935 88.0686Z" fill="black"/>
<path d="M115.098 88.0686H114.793V85.9708H115.098V86.7979H116.11V85.9708H116.414V88.0686H116.11V87.1006H115.098V88.0686Z" fill="black"/>
<path d="M117.849 88.1075C117.559 88.1075 117.315 88.0056 117.118 87.8018C116.924 87.5961 116.827 87.3354 116.827 87.0197C116.827 86.704 116.924 86.4443 117.118 86.2405C117.31 86.0348 117.554 85.9319 117.849 85.9319C118.047 85.9319 118.223 85.9788 118.376 86.0727V86.4054C118.219 86.2955 118.044 86.2405 117.852 86.2405C117.649 86.2405 117.479 86.3145 117.342 86.4623C117.207 86.6081 117.14 86.7939 117.14 87.0197C117.14 87.2455 117.208 87.4323 117.345 87.5801C117.482 87.7259 117.654 87.7989 117.863 87.7989C118.085 87.7989 118.27 87.7349 118.417 87.6071V87.9397C118.255 88.0516 118.065 88.1075 117.849 88.1075Z" fill="black"/>
<path d="M118.641 86.2735V85.9708H120.229V86.2735H119.586V88.0686H119.281V86.2735H118.641Z" fill="black"/>
<path d="M120.821 88.0686H120.56V85.9708H120.865V87.5112L121.932 85.9708H122.198V88.0686H121.893V86.5222L120.821 88.0686Z" fill="black"/>
<path d="M122.53 86.2735V85.9708H124.118V86.2735H123.475V88.0686H123.17V86.2735H122.53Z" fill="black"/>
<path d="M124.712 88.1075C124.59 88.1075 124.499 88.0915 124.438 88.0596V87.7479C124.51 87.7819 124.584 87.7989 124.66 87.7989C124.737 87.7989 124.802 87.7769 124.854 87.7329C124.904 87.689 124.96 87.5971 125.023 87.4572L124.263 85.9708H124.607L125.181 87.1066L125.657 85.9708H125.984L125.269 87.619C125.129 87.9447 124.943 88.1075 124.712 88.1075Z" fill="black"/>
<path d="M126.126 86.2735V85.9708H127.714V86.2735H127.071V88.0686H126.766V86.2735H126.126Z" fill="black"/>
<path d="M128.932 88.0686H128.628V85.9708H129.462C129.665 85.9708 129.823 86.0278 129.936 86.1417C130.052 86.2515 130.11 86.3974 130.11 86.5792C130.11 86.761 130.052 86.9108 129.936 87.0287C129.823 87.1446 129.665 87.2025 129.462 87.2025H128.932V88.0686ZM128.932 86.2735V86.8998H129.437C129.551 86.8998 129.641 86.8729 129.706 86.8189C129.77 86.763 129.803 86.6851 129.803 86.5852C129.803 86.4853 129.77 86.4084 129.706 86.3544C129.643 86.3005 129.553 86.2735 129.437 86.2735H128.932Z" fill="black"/>
<path d="M130.395 88.0686H130.071L130.919 85.9589H131.213L132.061 88.0686H131.734L131.523 87.5471H130.603L130.395 88.0686ZM131.063 86.3754L130.709 87.2564H131.418L131.063 86.3754Z" fill="black"/>
<path d="M132.911 88.1075C132.639 88.1075 132.413 88.0476 132.232 87.9277V87.6041C132.317 87.662 132.417 87.7089 132.531 87.7449C132.648 87.7809 132.759 87.7989 132.867 87.7989C133.031 87.7989 133.16 87.7659 133.255 87.7C133.351 87.632 133.399 87.5421 133.399 87.4303C133.399 87.3324 133.355 87.2534 133.268 87.1935C133.182 87.1336 133.067 87.1036 132.925 87.1036H132.684V86.8009H132.961C133.079 86.8009 133.17 86.776 133.235 86.726C133.3 86.6761 133.332 86.6071 133.332 86.5192C133.332 86.4313 133.294 86.3634 133.218 86.3155C133.145 86.2655 133.043 86.2405 132.914 86.2405C132.707 86.2405 132.507 86.2915 132.315 86.3934V86.0907C132.505 85.9848 132.71 85.9319 132.93 85.9319C133.141 85.9319 133.311 85.9838 133.44 86.0877C133.57 86.1916 133.634 86.3295 133.634 86.5013C133.634 86.6151 133.603 86.709 133.54 86.783C133.477 86.8569 133.408 86.9078 133.332 86.9358C133.434 86.9678 133.522 87.0297 133.598 87.1216C133.674 87.2095 133.712 87.3214 133.712 87.4572C133.712 87.645 133.64 87.8008 133.496 87.9247C133.353 88.0466 133.158 88.1075 132.911 88.1075Z" fill="black"/>
<path d="M135.056 88.0686H134.102V85.9708H134.984C135.159 85.9708 135.298 86.0168 135.399 86.1087C135.503 86.2006 135.554 86.3265 135.554 86.4863C135.554 86.5902 135.53 86.6801 135.482 86.756C135.434 86.8319 135.372 86.8858 135.297 86.9178C135.419 86.9418 135.517 87.0037 135.593 87.1036C135.671 87.2035 135.71 87.3284 135.71 87.4782C135.71 87.656 135.65 87.7989 135.532 87.9067C135.416 88.0146 135.257 88.0686 135.056 88.0686ZM134.407 87.1066V87.7659H135C135.118 87.7659 135.211 87.7369 135.277 87.679C135.346 87.619 135.38 87.5361 135.38 87.4303C135.38 87.3264 135.347 87.2465 135.28 87.1905C135.214 87.1346 135.12 87.1066 135 87.1066H134.407ZM134.407 86.2735V86.8159H134.931C135.032 86.8159 135.111 86.7929 135.166 86.747C135.224 86.699 135.252 86.6311 135.252 86.5432C135.252 86.4553 135.224 86.3884 135.166 86.3424C135.111 86.2965 135.032 86.2735 134.931 86.2735H134.407Z" fill="black"/>
<path d="M136.36 88.0686H136.1V85.9708H136.404V87.5112L137.471 85.9708H137.737V88.0686H137.432V86.5222L136.36 88.0686Z" fill="black"/>
<path d="M138.069 86.2735V85.9708H139.657V86.2735H139.014V88.0686H138.709V86.2735H138.069Z" fill="black"/>
<path d="M140.249 88.0686H139.988V85.9708H140.293V87.5112L141.36 85.9708H141.626V88.0686H141.321V86.5222L140.249 88.0686Z" fill="black"/>
<path d="M142.315 88.0686H141.947L142.565 87.1456C142.428 87.1116 142.322 87.0437 142.246 86.9418C142.17 86.8379 142.132 86.713 142.132 86.5672C142.132 86.3854 142.19 86.2405 142.304 86.1327C142.42 86.0248 142.578 85.9708 142.775 85.9708H143.659V88.0686H143.354V87.1815H142.9L142.315 88.0686ZM142.789 86.8908H143.354V86.2735H142.789C142.68 86.2735 142.594 86.3015 142.531 86.3574C142.47 86.4114 142.44 86.4863 142.44 86.5822C142.44 86.6801 142.47 86.756 142.531 86.8099C142.594 86.8639 142.68 86.8908 142.789 86.8908Z" fill="black"/>
<path d="M145.167 88.0686H144.862V85.9708H145.167V86.8279L145.962 85.9708H146.353L145.455 86.9298L146.497 88.0686H146.082L145.167 87.0617V88.0686Z" fill="black"/>
<path d="M147.056 88.0686H146.751V85.9708H147.585C147.789 85.9708 147.947 86.0278 148.059 86.1417C148.176 86.2515 148.234 86.3974 148.234 86.5792C148.234 86.761 148.176 86.9108 148.059 87.0287C147.947 87.1446 147.789 87.2025 147.585 87.2025H147.056V88.0686ZM147.056 86.2735V86.8998H147.56C147.675 86.8998 147.765 86.8729 147.829 86.8189C147.894 86.763 147.926 86.6851 147.926 86.5852C147.926 86.4853 147.894 86.4084 147.829 86.3544C147.766 86.3005 147.677 86.2735 147.56 86.2735H147.056Z" fill="black"/>
<path d="M150.002 88.0686H148.586V85.9708H149.966V86.2735H148.891V86.7979H149.767V87.1006H148.891V87.7659H150.002V88.0686Z" fill="black"/>
<path d="M150.505 88.0686H150.181L151.029 85.9589H151.323L152.171 88.0686H151.844L151.633 87.5471H150.713L150.505 88.0686ZM151.173 86.3754L150.819 87.2564H151.528L151.173 86.3754Z" fill="black"/>
<path d="M152.047 86.2735V85.9708H153.634V86.2735H152.992V88.0686H152.687V86.2735H152.047Z" fill="black"/>
<path d="M154.227 88.0686H153.966V85.9708H154.271V87.5112L155.338 85.9708H155.604V88.0686H155.299V86.5222L154.227 88.0686Z" fill="black"/>
<path d="M157.038 88.0686H156.085V85.9708H156.966C157.142 85.9708 157.28 86.0168 157.382 86.1087C157.485 86.2006 157.537 86.3265 157.537 86.4863C157.537 86.5902 157.513 86.6801 157.465 86.756C157.417 86.8319 157.355 86.8858 157.279 86.9178C157.401 86.9418 157.5 87.0037 157.576 87.1036C157.654 87.2035 157.692 87.3284 157.692 87.4782C157.692 87.656 157.633 87.7989 157.515 87.9067C157.399 88.0146 157.24 88.0686 157.038 88.0686ZM156.39 87.1066V87.7659H156.983C157.101 87.7659 157.194 87.7369 157.26 87.679C157.328 87.619 157.363 87.5361 157.363 87.4303C157.363 87.3264 157.329 87.2465 157.263 87.1905C157.196 87.1346 157.103 87.1066 156.983 87.1066H156.39ZM156.39 86.2735V86.8159H156.914C157.015 86.8159 157.094 86.7929 157.149 86.747C157.206 86.699 157.235 86.6311 157.235 86.5432C157.235 86.4553 157.206 86.3884 157.149 86.3424C157.094 86.2965 157.015 86.2735 156.914 86.2735H156.39Z" fill="black"/>
<path d="M158.387 88.0686H158.082V85.9708H158.387V86.7979H159.399V85.9708H159.703V88.0686H159.399V87.1006H158.387V88.0686Z" fill="black"/>
<path d="M162.219 88.0686H161.914V85.9708H162.219V88.0686ZM160.925 88.0686H160.185V85.9708H160.49V86.6961H160.925C161.15 86.6961 161.328 86.76 161.457 86.8878C161.586 87.0157 161.651 87.1815 161.651 87.3853C161.651 87.5851 161.585 87.7499 161.454 87.8798C161.323 88.0056 161.147 88.0686 160.925 88.0686ZM160.49 86.9987V87.7659H160.908C161.045 87.7659 161.151 87.7329 161.227 87.667C161.303 87.5991 161.341 87.5052 161.341 87.3853C161.341 87.2634 161.302 87.1685 161.224 87.1006C161.148 87.0327 161.043 86.9987 160.908 86.9987H160.49Z" fill="black"/>
<path d="M162.863 88.0686H162.508L163.275 86.9328L162.63 85.9708H162.99L163.458 86.6661L163.927 85.9708H164.281L163.633 86.9268L164.403 88.0686H164.04L163.453 87.1965L162.863 88.0686Z" fill="black"/>
<path d="M165.669 88.0686H165.408V85.9708H165.713V87.5112L166.78 85.9708H167.046V88.0686H166.741V86.5222L165.669 88.0686Z" fill="black"/>
<path d="M167.832 88.0686H167.527V85.9708H167.832V86.7979H168.843V85.9708H169.148V88.0686H168.843V87.1006H167.832V88.0686Z" fill="black"/>
<path d="M169.716 88.5181H169.427V87.7659H169.613C169.715 87.6001 169.79 87.4053 169.838 87.1815C169.886 86.9518 169.91 86.6451 169.91 86.2615V85.9708H171.193V87.7659H171.473V88.5181H171.184V88.0686H169.716V88.5181ZM169.946 87.7659H170.888V86.2735H170.206C170.206 86.6231 170.187 86.9168 170.148 87.1546C170.109 87.3943 170.042 87.5981 169.946 87.7659Z" fill="black"/>
<path d="M172.063 88.1075C171.941 88.1075 171.85 88.0915 171.789 88.0596V87.7479C171.861 87.7819 171.935 87.7989 172.011 87.7989C172.088 87.7989 172.153 87.7769 172.205 87.7329C172.255 87.689 172.311 87.5971 172.374 87.4572L171.614 85.9708H171.958L172.532 87.1066L173.008 85.9708H173.335L172.62 87.619C172.48 87.9447 172.294 88.1075 172.063 88.1075Z" fill="black"/>
<path d="M174.453 88.1075C174.163 88.1075 173.919 88.0056 173.721 87.8018C173.527 87.5961 173.43 87.3354 173.43 87.0197C173.43 86.704 173.527 86.4443 173.721 86.2405C173.914 86.0348 174.157 85.9319 174.453 85.9319C174.651 85.9319 174.826 85.9788 174.979 86.0727V86.4054C174.822 86.2955 174.648 86.2405 174.456 86.2405C174.253 86.2405 174.083 86.3145 173.946 86.4623C173.811 86.6081 173.744 86.7939 173.744 87.0197C173.744 87.2455 173.812 87.4323 173.949 87.5801C174.085 87.7259 174.258 87.7989 174.467 87.7989C174.689 87.7989 174.873 87.7349 175.021 87.6071V87.9397C174.858 88.0516 174.669 88.1075 174.453 88.1075Z" fill="black"/>
<path d="M175.244 86.2735V85.9708H176.832V86.2735H176.189V88.0686H175.885V86.2735H175.244Z" fill="black"/>
<path d="M177.469 88.0686H177.164V85.9708H177.998C178.201 85.9708 178.359 86.0278 178.472 86.1417C178.588 86.2515 178.647 86.3974 178.647 86.5792C178.647 86.761 178.588 86.9108 178.472 87.0287C178.359 87.1446 178.201 87.2025 177.998 87.2025H177.469V88.0686ZM177.469 86.2735V86.8998H177.973C178.088 86.8998 178.177 86.8729 178.242 86.8189C178.307 86.763 178.339 86.6851 178.339 86.5852C178.339 86.4853 178.307 86.4084 178.242 86.3544C178.179 86.3005 178.09 86.2735 177.973 86.2735H177.469Z" fill="black"/>
<path d="M179.259 88.0686H178.999V85.9708H179.304V87.5112L180.37 85.9708H180.637V88.0686H180.332V86.5222L179.259 88.0686Z" fill="black"/>
<path d="M181.378 88.0686H181.118V85.9708H181.423V87.5112L182.489 85.9708H182.756V88.0686H182.451V86.5222L181.378 88.0686ZM181.935 85.848C181.789 85.848 181.671 85.803 181.581 85.7131C181.49 85.6232 181.444 85.5034 181.442 85.3535H181.697C181.697 85.4274 181.718 85.4874 181.761 85.5333C181.803 85.5773 181.86 85.5992 181.932 85.5992C182.005 85.5992 182.062 85.5763 182.104 85.5303C182.147 85.4844 182.169 85.4254 182.171 85.3535H182.426C182.424 85.5034 182.377 85.6232 182.284 85.7131C182.194 85.803 182.077 85.848 181.935 85.848Z" fill="black"/>
<path d="M70.1611 70.2188H66.8018L61.6457 79.4812V70.2188H58V81.1027H60.7408H61.6457H64.8878L70.1611 71.6315V81.1027H73.8068V70.2188H70.9488H70.1611Z" fill="black"/>
<path d="M197.731 70.2188H194.374L189.216 79.4812V70.2188H185.57V81.1027H188.313H189.216H192.458L197.731 71.6315V81.1027H201.377V70.2188H198.519H197.731Z" fill="black"/>
<path d="M89.197 75.6607H80.6794V70.2188H77.0359V81.1027H80.6794V78.1084H89.197V81.1027H92.8427V70.2188H89.197V75.6607Z" fill="black"/>
<path d="M108.684 70.2246H101.573L97.2088 78.0579H94.2922V81.1086H114.639L116.329 78.0743H113.048L108.684 70.2246ZM104.021 73.2753H106.236L108.901 78.0649H101.354L104.021 73.2753Z" fill="black"/>
<path d="M137.718 70.2188H134.506H133.573L127.512 81.1027H130.956H143.319V81.091L141.628 78.0567H133.354L136.021 73.2671H143.319V73.253L141.628 70.2188H137.718Z" fill="black"/>
<path d="M157.079 70.2188H153.433H150.18H146.537V73.2671V81.1027H150.18V73.2671H153.433V81.1027H157.079V73.2671H160.332V81.1027H163.976V73.2671V73.253L162.285 70.2188H157.079Z" fill="black"/>
<path d="M161.704 69.0343L160.013 66H146.585V69.0484H161.704V69.0343Z" fill="black"/>
<path d="M179.385 70.2188H171.369H167.726V73.2671V81.1027H171.369V73.2671H177.688L176.354 75.6607H173.732L172.044 78.695V78.7091H178.428H178.802L183.53 70.2188H179.947H179.385Z" fill="black"/>
<path d="M125.632 70.2188L122.603 75.6607H121.147L118.115 70.2188H113.97L118.365 78.1084H118.658H121.24L119.574 81.1027H123.721L129.777 70.2188H125.632Z" fill="black"/>
<path d="M215.356 70.2188H207.34H206.778H203.195L207.922 78.7091L206.589 81.1027H210.734L212.067 78.7091H214.682V78.695L212.991 75.6607H210.37L209.037 73.2671H215.356V81.1027H219V73.2671V70.2188H215.356Z" fill="black"/>
</g>
<defs>
<clipPath id="clip0_965_3015">
<rect width="161" height="23" fill="white" transform="translate(58 66)"/>
</clipPath>
</defs>
</svg>
