<svg width="278" height="198" viewBox="0 0 278 198" fill="none" xmlns="http://www.w3.org/2000/svg">
<path d="M117.34 56.9869C117.34 57.0327 117.409 57.2009 117.493 57.3615C117.677 57.7361 118.029 57.9043 118.618 57.9043C119.276 57.9043 119.751 57.6061 119.904 57.0786C119.95 56.9257 119.927 56.9104 119.674 56.9104C119.46 56.9104 119.353 56.9639 119.2 57.1398C119.039 57.3309 118.955 57.3691 118.664 57.3691C118.389 57.3691 118.281 57.3233 118.09 57.1398C117.929 56.9716 117.792 56.9104 117.6 56.9104C117.455 56.9104 117.34 56.9486 117.34 56.9869Z" fill="black"/>
<path d="M69.7396 58.2102V58.5925H69.3723C68.5381 58.5925 67.8341 59.0665 67.4591 59.8769C67.306 60.2133 67.2601 60.4656 67.2295 61.0466C67.1453 62.7515 67.9029 63.8295 69.2881 63.99L69.7396 64.0436V64.4105V64.7852H70.084H70.4284V64.4105V64.0436L70.8646 63.99C71.913 63.8677 72.6171 63.2026 72.8773 62.094C72.9997 61.5359 72.9691 60.6414 72.7931 60.0833C72.5176 59.1888 71.913 58.6995 70.9717 58.6078L70.4666 58.5543L70.4437 58.1873L70.4207 57.828H70.0763H69.7396V58.2102ZM69.7243 61.2836L69.7013 63.4472L69.3646 63.4243C68.4463 63.3631 67.9795 62.6368 67.9795 61.2683C67.9795 60.5344 68.1249 59.9457 68.3774 59.6246C68.584 59.357 69.0815 59.1353 69.4564 59.1277H69.7396L69.7243 61.2836ZM71.3161 59.2729C71.9207 59.5482 72.1885 60.1598 72.1885 61.276C72.1885 62.6139 71.714 63.3478 70.811 63.4243L70.4666 63.4472L70.4437 61.2836L70.4284 59.1277H70.7115C70.8722 59.1277 71.1401 59.1965 71.3161 59.2729Z" fill="black"/>
<path d="M87.5707 58.0273C87.3411 58.0426 87.0733 58.0732 86.9814 58.0961L86.8054 58.1343V61.3836V64.6328H87.1498H87.4942L87.5095 63.1802L87.5324 61.72L88.336 61.7047C89.0553 61.6894 89.1778 61.6665 89.4992 61.4753C90.0732 61.1389 90.4022 60.535 90.4022 59.8163C90.4022 58.5013 89.4533 57.905 87.5707 58.0273ZM89.0247 58.7383C89.3844 58.9294 89.5681 59.197 89.614 59.6175C89.6982 60.3056 89.3844 60.9096 88.8487 61.1083C88.6038 61.2001 88.0987 61.2154 87.7314 61.1466L87.4942 61.0931V59.8928C87.4942 58.9983 87.5171 58.6695 87.5937 58.6466C87.6396 58.6236 87.9304 58.6007 88.2212 58.6007C88.6115 58.5931 88.8334 58.6313 89.0247 58.7383Z" fill="black"/>
<path d="M73.9487 61.3454V64.6328H75.4869H77.0175L76.9945 64.3423L76.9716 64.0594L75.8466 64.0365L74.714 64.0135V62.7215V61.4218H75.5941H76.4742V61.1542V60.8866H75.5941H74.714V59.7781V58.6772L75.8084 58.6542L76.8951 58.6313L76.918 58.3408L76.941 58.0579H75.4487H73.9487V61.3454Z" fill="black"/>
<path d="M78.6169 58.3402C78.6169 59.013 78.4485 61.2072 78.349 61.8799C78.1501 63.2179 77.8287 64.0206 77.5072 64.0206C77.3159 64.0206 77.3159 64.0283 77.3159 64.701C77.3159 65.0757 77.3389 65.4885 77.3618 65.6185C77.4078 65.8325 77.4384 65.8555 77.7062 65.8555H78.0047V65.2438V64.6322H79.7648H81.525V65.2438V65.8555H81.7852C82.0224 65.8555 82.0453 65.8325 82.0913 65.5649C82.1142 65.412 82.1372 64.9992 82.1372 64.6475V64.0206H81.9076H81.678V61.039V58.0573H80.1475H78.6169V58.3402ZM80.9893 61.3448V64.0206H79.6959H78.4026L78.5786 63.5772C78.8924 62.805 79.0531 61.7194 79.1985 59.487L79.2444 58.6689H80.1168H80.9893V61.3448Z" fill="black"/>
<path d="M82.9023 61.3454V64.6328H84.4329H85.9635V64.327V64.0212H84.8155H83.6676V62.7215V61.4218H84.586H85.5043V61.1542V60.8866H84.586H83.6676V59.7781V58.6695H84.7773H85.8869V58.3637V58.0579H84.3946H82.9023V61.3454Z" fill="black"/>
<path d="M91.2517 61.2918C90.6547 63.0655 90.1726 64.5411 90.1726 64.5793C90.1726 64.6099 90.3257 64.6328 90.5093 64.6328H90.8461L91.0144 64.0747C91.0986 63.7765 91.2517 63.2796 91.3511 62.9891L91.5272 62.4539L92.522 62.431L93.5245 62.408L93.6776 62.9279C93.7618 63.2108 93.9148 63.7154 94.0067 64.0365L94.175 64.6328H94.5883C94.948 64.6328 95.0015 64.6175 94.9633 64.4952C94.8561 64.1665 93.0807 58.1038 93.0807 58.0808C93.0807 58.0732 92.9123 58.0579 92.7057 58.0579H92.3307L91.2517 61.2918ZM93.0348 60.512C93.2261 61.2077 93.3868 61.8194 93.3868 61.8652C93.3868 61.9264 93.1266 61.957 92.545 61.957C91.9863 61.957 91.7032 61.9264 91.7032 61.8729C91.7032 61.6588 92.5832 59.0594 92.6292 59.1435C92.6521 59.197 92.8358 59.8163 93.0348 60.512Z" fill="black"/>
<path d="M96.4248 59.7938C96.2105 62.699 95.9656 63.6852 95.3917 63.9451C95.1468 64.0598 95.1391 64.0675 95.1927 64.4039C95.2157 64.595 95.2463 64.7555 95.2539 64.7708C95.3381 64.8549 95.8355 64.6332 96.0575 64.4115C96.6008 63.8687 96.9146 62.5537 97.0829 60.0843L97.1748 58.7081L98.0778 58.6852L98.9732 58.6623V61.6516V64.6332H99.3176H99.6619V61.3458V58.0583H98.1084H96.5549L96.4248 59.7938Z" fill="black"/>
<path d="M100.733 61.306C100.733 64.3335 100.741 64.5629 100.871 64.6164C100.94 64.647 101.453 64.6699 101.996 64.6699C103.098 64.6699 103.328 64.6088 103.825 64.173C104.284 63.7601 104.445 63.3932 104.445 62.6822C104.445 61.91 104.231 61.4207 103.733 61.0766C103.404 60.8549 103.381 60.8473 102.448 60.8473H101.499V59.4482V58.0568H101.116H100.733V61.306ZM102.976 61.4513C103.305 61.5889 103.534 61.8565 103.634 62.2234C103.963 63.4237 103.182 64.2724 101.889 64.1195L101.499 64.0736L101.514 62.7739L101.537 61.4666L101.728 61.413C102.057 61.3213 102.715 61.3366 102.976 61.4513Z" fill="black"/>
<path d="M105.325 61.3454V64.6328H105.67H106.014L106.029 63.0808L106.052 61.5365L107.338 61.5135L108.616 61.4983V63.0655V64.6328H108.999H109.381V61.3454V58.0579H108.999H108.616V59.5105V60.9631L107.338 60.9478L106.052 60.9249L106.029 59.4876L106.014 58.0579H105.67H105.325V61.3454Z" fill="black"/>
<path d="M110.452 61.306C110.452 64.3335 110.46 64.5629 110.59 64.6164C110.659 64.647 111.149 64.6699 111.677 64.6699C112.488 64.6699 112.687 64.647 112.978 64.5094C113.682 64.1806 114.065 63.6072 114.11 62.7815C114.156 62.1011 113.98 61.5889 113.598 61.2448C113.177 60.8626 112.863 60.7861 111.937 60.8244L111.141 60.8626V59.4559V58.0568H110.797H110.452V61.306ZM112.802 61.543C113.192 61.8412 113.315 62.0782 113.345 62.6286C113.36 63.0491 113.337 63.1944 113.192 63.439C112.863 63.9971 112.381 64.2036 111.577 64.1195L111.141 64.0736L111.156 62.7663L111.179 61.4666L111.371 61.4054C111.746 61.2984 112.572 61.3748 112.802 61.543Z" fill="black"/>
<path d="M114.738 61.3454V64.6328H115.121H115.503V61.3454V58.0579H115.121H114.738V61.3454Z" fill="black"/>
<path d="M116.575 61.3454V64.6328H116.942H117.302L118.618 62.0105L119.934 59.3958V62.0105L119.942 64.6328H120.325H120.707V61.3377V58.0502L120.325 58.0732L119.942 58.0961L118.664 60.6955L117.378 63.2949L117.355 60.6726L117.34 58.0579H116.957H116.575V61.3454Z" fill="black"/>
<path d="M203.205 61.2454C202.875 61.8876 201.75 63.0497 200.87 63.6537C198.383 65.3586 194.687 66.8035 189.468 68.1032C184.317 69.3876 176.879 70.435 171.943 70.565L170.259 70.6109L168.69 71.5665C165.775 73.3479 164.994 73.8448 165.101 73.8601C165.162 73.8678 166.555 73.9442 168.193 74.036C169.838 74.1201 171.606 74.2424 172.134 74.3035C172.662 74.3647 173.336 74.4335 173.626 74.4565C180.254 75.0375 188.06 76.4289 193.409 77.9809C198.391 79.4259 201.919 80.9167 204.406 82.6139C205.164 83.1338 205.187 83.1568 205.141 83.3938C205.072 83.7531 204.605 84.6476 204.23 85.1292C202.095 87.9121 196.394 90.4427 187.998 92.354C182.274 93.6537 174.598 94.6323 168.981 94.7776C168.53 94.7852 168.147 94.8158 168.132 94.8311C168.101 94.8617 169.134 100.878 169.18 100.924C169.211 100.963 172.486 100.787 173.818 100.68C183.246 99.9075 192.383 98.0421 198.919 95.5421C204.544 93.3938 207.85 90.7485 208.263 88.0727C208.385 87.2776 208.255 86.6506 207.758 85.6568C207.107 84.3418 204.896 80.5344 204.498 80.0375C202.684 77.7592 199.156 75.8861 193.485 74.1889C191.213 73.5084 188.09 72.7516 186.101 72.3922C185.68 72.3158 185.312 72.2317 185.282 72.2011C185.243 72.1782 185.657 72.0788 186.2 71.9794C188.412 71.5742 191.993 70.7179 194.442 70.0069C202.799 67.5834 207.743 64.7623 209.365 61.5054C209.556 61.1231 209.709 60.7944 209.709 60.7714C209.709 60.7485 208.309 60.7332 206.595 60.7332H203.472L203.205 61.2454Z" fill="black"/>
<path d="M86.3461 67.2011C86.1165 67.2164 85.8487 67.247 85.7568 67.2699L85.5808 67.3082V70.5574V73.8066H85.9252H86.2696L86.2849 72.3388L86.3078 70.8785L86.9354 70.8938C87.6853 70.9167 88.0527 70.825 88.4736 70.5192C88.971 70.1599 89.1394 69.7699 89.1394 68.9748C89.1394 68.3632 89.1241 68.2868 88.9098 67.981C88.4812 67.3693 87.6547 67.117 86.3461 67.2011ZM87.7925 67.9045C88.244 68.1262 88.3741 68.3862 88.3741 69.0284C88.3741 69.4794 88.3435 69.6323 88.2134 69.8005C87.8537 70.2822 87.3716 70.4427 86.6216 70.3357L86.2696 70.2822V69.0666C86.2696 68.1721 86.2925 67.8433 86.369 67.8204C86.6139 67.721 87.5399 67.7745 87.7925 67.9045Z" fill="black"/>
<path d="M92.8511 67.2011C92.6598 67.2164 92.3919 67.2547 92.2618 67.2699L92.0093 67.3158V70.5574V73.8066H92.3919H92.7746V72.3311V70.8632L93.4021 70.8862C94.1903 70.9244 94.6036 70.8021 95.0245 70.4351C95.4377 70.0681 95.6214 69.64 95.6214 68.9901C95.6291 68.2027 95.2311 67.591 94.5577 67.354C94.2056 67.2317 93.3868 67.1553 92.8511 67.2011ZM94.175 67.8739C94.3128 67.9274 94.5194 68.088 94.6342 68.218C94.8102 68.432 94.8408 68.5391 94.8408 68.9595C94.8408 70.0452 94.1597 70.5498 93.0118 70.3204L92.7746 70.2669V69.0666C92.7746 68.4091 92.7975 67.8433 92.8281 67.8204C92.92 67.7287 93.9225 67.7669 94.175 67.8739Z" fill="black"/>
<path d="M101.69 67.2248C101.116 67.3701 100.542 67.7829 100.657 67.9893C100.894 68.4251 100.917 68.4328 101.262 68.1346C101.958 67.5383 102.876 67.6147 103.152 68.2799C103.305 68.6315 103.282 69.2126 103.114 69.526C102.915 69.9007 102.601 70.0612 101.966 70.1147C101.438 70.1606 101.422 70.1682 101.422 70.367C101.422 70.5658 101.438 70.5734 101.95 70.6193C102.555 70.6728 102.853 70.7952 103.129 71.1239C103.611 71.7049 103.427 72.8059 102.784 73.1958C102.348 73.4634 101.514 73.3563 100.971 72.9741L100.756 72.8212L100.634 73.0887C100.557 73.234 100.504 73.364 100.504 73.3793C100.504 73.4634 101.124 73.7539 101.529 73.8609C102.654 74.1438 103.672 73.7004 104.024 72.76C104.392 71.7814 104.078 70.864 103.221 70.4205C103.098 70.3517 103.029 70.2982 103.083 70.2906C103.251 70.2906 103.726 69.8166 103.886 69.4955C104.07 69.1438 104.093 68.4939 103.948 68.1117C103.672 67.3854 102.662 66.9878 101.69 67.2248Z" fill="black"/>
<path d="M105.937 67.2096C105.746 67.2249 105.478 67.2554 105.348 67.2707L105.095 67.3166V70.5123C105.095 73.494 105.103 73.7157 105.233 73.7692C105.501 73.8686 106.894 73.9068 107.33 73.8151C108.294 73.6086 108.868 72.9206 108.868 71.9496C108.868 71.6591 108.815 71.3762 108.746 71.231C108.593 70.9404 108.134 70.5352 107.889 70.4741C107.782 70.4512 107.697 70.4053 107.697 70.3747C107.705 70.3518 107.858 70.2294 108.049 70.1148C108.516 69.8166 108.723 69.4038 108.731 68.7615C108.731 68.3716 108.692 68.2034 108.555 67.9741C108.317 67.5995 107.85 67.3395 107.238 67.2401C106.748 67.156 106.641 67.156 105.937 67.2096ZM107.384 67.9053C107.789 68.1041 107.958 68.3946 107.958 68.8609C107.958 69.3349 107.789 69.679 107.453 69.9236C107.246 70.0689 107.085 70.1071 106.534 70.1224L105.861 70.153V69.0138C105.861 68.3869 105.884 67.8441 105.914 67.8212C106.021 67.7065 107.123 67.7677 107.384 67.9053ZM107.185 70.757C107.353 70.8028 107.606 70.9481 107.751 71.0857C107.988 71.2998 108.034 71.3915 108.065 71.7738C108.111 72.3778 107.927 72.8365 107.529 73.0964C107.269 73.2723 107.146 73.3028 106.626 73.2952C106.305 73.2952 105.991 73.2723 105.945 73.2417C105.891 73.2034 105.861 72.7753 105.861 71.9267V70.6729H106.381C106.664 70.6729 107.024 70.7111 107.185 70.757Z" fill="black"/>
<path d="M125.751 67.2317C125.131 67.3388 124.71 67.6522 124.411 68.2256C124.197 68.6384 124.212 69.5482 124.442 69.9458C124.641 70.2975 125.001 70.5727 125.36 70.6415C125.651 70.7027 125.666 70.7638 125.414 70.932C125.314 71.0008 125.146 71.1996 125.039 71.3754C124.84 71.7195 123.998 73.6384 123.998 73.7455C123.998 73.7837 124.174 73.8066 124.396 73.7914L124.794 73.7684L125.146 72.851C125.796 71.169 126.011 70.9014 126.722 70.9014H127.136V72.354V73.8066H127.48H127.824V70.5574V67.3082L127.656 67.2776C127.289 67.2011 126.087 67.1706 125.751 67.2317ZM127.12 69.0819L127.136 70.3663H126.623C125.934 70.3663 125.582 70.2592 125.345 69.9764C124.802 69.3342 124.978 68.2562 125.682 67.8969C125.881 67.7975 126.095 67.7669 126.523 67.7822L127.097 67.8051L127.12 69.0819Z" fill="black"/>
<path d="M67.2908 70.5186V73.8061H69.204H71.1172V74.4177V75.0293H71.3774H71.6299L71.6758 74.5094C71.7064 74.2265 71.7294 73.8137 71.7294 73.592V73.1944H71.4615H71.1937V70.2128V67.2311H70.8111H70.4284V70.2128V73.1944H69.2422H68.0561V70.2128V67.2311H67.6734H67.2908V70.5186Z" fill="black"/>
<path d="M72.418 70.5192V73.8066H73.9485H75.4791V73.5008V73.195H74.3312H73.1832V71.8953V70.5956H74.1016H75.0199V70.328V70.0681L74.1245 70.0452L73.2215 70.0222L73.1986 68.929L73.1756 67.8433H74.2929H75.4026V67.5375V67.2317H73.9103H72.418V70.5192Z" fill="black"/>
<path d="M76.321 70.5192V73.8066H76.6654H77.0098L77.0251 72.2547L77.0481 70.7103L78.3337 70.6874L79.6117 70.6721V72.2394V73.8066H79.9944H80.377V70.5192V67.2317H79.9944H79.6117V68.6843V70.1369L78.3337 70.1216L77.0481 70.0987L77.0251 68.6614L77.0098 67.2317H76.6654H76.321V70.5192Z" fill="black"/>
<path d="M80.9893 67.5375V67.8433H81.7928H82.5963V70.825V73.8066H82.9407H83.2851V70.825V67.8433H84.0886H84.8922V67.5375V67.2317H82.9407H80.9893V67.5375Z" fill="black"/>
<path d="M97.5574 67.3238C97.5421 67.3773 97.06 68.807 96.486 70.489C95.9197 72.1786 95.43 73.6159 95.407 73.6847C95.3611 73.7993 95.407 73.8146 95.7208 73.7917C96.0422 73.7688 96.1034 73.7382 96.1493 73.5776C96.1799 73.4706 96.333 72.9813 96.486 72.4844L96.7615 71.5822L97.7717 71.6052L98.7819 71.6281L99.088 72.6984L99.4018 73.7688L99.7997 73.7917C100.091 73.807 100.198 73.7841 100.198 73.7152C100.19 73.6617 99.7691 72.1862 99.2564 70.4431L98.3151 67.2703L97.9554 67.2474C97.7105 67.2321 97.5804 67.255 97.5574 67.3238ZM98.6671 71.1082C98.6671 71.1235 98.2691 71.1312 97.787 71.1312C97.3049 71.1312 96.9069 71.1235 96.9069 71.1082C96.9069 71.07 97.7411 68.44 97.7947 68.3024C97.8253 68.2183 98.6518 70.8941 98.6671 71.1082Z" fill="black"/>
<path d="M109.764 70.5192V73.8066H110.131H110.506L111.799 71.1843L113.093 68.5696L113.116 71.1843L113.131 73.8066H113.514H113.896V70.5192V67.2317H113.506H113.123L111.807 69.8846L110.491 72.5452L110.468 69.8846L110.452 67.2317H110.108H109.764V70.5192Z" fill="black"/>
<path d="M114.509 67.5375V67.8433H115.312H116.116V70.825V73.8066H116.46H116.804V70.825V67.8433H117.608H118.411V67.5375V67.2317H116.46H114.509V67.5375Z" fill="black"/>
<path d="M119.1 70.5192V73.8066H119.467H119.827L121.128 71.1996L122.429 68.5926L122.452 71.1996L122.467 73.8066H122.85H123.233V70.5192V67.2317H122.842H122.452L121.143 69.8846L119.827 72.5452L119.804 69.8846L119.789 67.2317H119.444H119.1V70.5192Z" fill="black"/>
<path d="M84.8768 76.5369L84.8539 76.9039L84.3488 76.9574C83.2162 77.0644 82.5657 77.7601 82.3667 79.0675C82.206 80.069 82.4586 81.0476 83.0249 81.6822C83.3845 82.0797 83.7748 82.2632 84.4177 82.3397L84.8921 82.3932V82.7601V83.1348H85.2365H85.5809V82.7678V82.4008L86.1242 82.3167C87.3793 82.1179 88.0681 81.1317 88.0604 79.5415C88.0604 77.9513 87.3717 77.0491 86.1089 76.9574L85.5809 76.9192V76.5522V76.1776H85.2442H84.8998L84.8768 76.5369ZM84.8768 79.6332L84.8539 81.7968L84.5095 81.7739C83.7136 81.7204 83.2698 81.2158 83.1244 80.199C82.9943 79.2357 83.1473 78.4023 83.5376 77.9589C83.8284 77.6225 84.1345 77.4849 84.5707 77.4773H84.8921L84.8768 79.6332ZM86.5987 77.699C86.7824 77.8137 86.9431 78.0124 87.0885 78.303C87.2798 78.6929 87.3028 78.8152 87.3028 79.5415C87.3028 80.8871 86.9278 81.5751 86.1089 81.751C85.8947 81.7968 85.6957 81.8351 85.6574 81.8351C85.6115 81.8351 85.5809 80.9788 85.5809 79.6485V77.4543L85.9559 77.4926C86.1625 77.5155 86.4533 77.6072 86.5987 77.699Z" fill="black"/>
<path d="M73.2598 76.375C73.0685 76.3903 72.8006 76.4285 72.6705 76.4438L72.418 76.4896V79.7312V82.9805H72.8006H73.1832V81.5049V80.037L73.8261 80.0676C74.2853 80.0829 74.5837 80.0523 74.8516 79.9682C76.1066 79.5477 76.4969 77.774 75.525 76.8796C75.3413 76.7114 75.0582 76.5355 74.8898 76.4896C74.5301 76.3903 73.7189 76.3367 73.2598 76.375ZM74.6909 77.086C75.0811 77.2695 75.2725 77.5982 75.2725 78.1257C75.2878 79.1731 74.6526 79.6777 73.5353 79.5095L73.1832 79.456V78.2481C73.1832 77.5829 73.2062 77.0172 73.2368 76.9942C73.3516 76.8796 74.3694 76.9484 74.6909 77.086Z" fill="black"/>
<path d="M78.28 76.4529C77.7673 76.6135 77.1627 77.2174 76.9484 77.7985C76.5275 78.9223 76.5199 80.5355 76.9408 81.644C77.1474 82.1945 77.6831 82.7832 78.1423 82.959C78.6244 83.1425 79.5504 83.1425 79.9177 82.9514C80.9049 82.4392 81.3947 81.5447 81.5019 80.0768C81.5937 78.7236 81.2876 77.5385 80.683 76.9346C80.109 76.3612 79.1831 76.1777 78.28 76.4529ZM79.4968 76.9499C79.9789 77.0798 80.3539 77.5003 80.5529 78.1272C80.7825 78.8765 80.7825 80.5661 80.5453 81.2847C80.2621 82.1639 79.8335 82.5232 79.0606 82.5232C78.5326 82.5232 78.1805 82.3398 77.8821 81.8963C77.5607 81.4223 77.4306 80.7648 77.4382 79.6181C77.4382 78.5783 77.5607 78.0125 77.8668 77.5538C78.2571 76.9881 78.8387 76.774 79.4968 76.9499Z" fill="black"/>
<path d="M94.6954 76.4528C93.3944 76.8044 92.698 77.9818 92.698 79.8014C92.7057 81.3534 93.2184 82.4696 94.1367 82.913C94.6724 83.1729 95.4989 83.1576 96.0652 82.8901C96.2948 82.7754 96.5703 82.6225 96.6698 82.5384C96.8458 82.4008 96.8458 82.3702 96.754 82.1485C96.6468 81.8885 96.5856 81.858 96.4555 82.0185C96.4096 82.0797 96.1877 82.202 95.9734 82.2937C95.2158 82.6225 94.4581 82.4237 93.9913 81.7662C93.6087 81.2463 93.5092 80.8182 93.5092 79.7326C93.5015 78.6011 93.624 78.0888 93.999 77.569C94.4734 76.9191 95.3382 76.7433 96.004 77.1638C96.1953 77.2861 96.379 77.4237 96.402 77.4696C96.4938 77.6148 96.5627 77.569 96.7387 77.2555L96.907 76.9573L96.6851 76.7968C96.1341 76.3992 95.3612 76.2693 94.6954 76.4528Z" fill="black"/>
<path d="M99.4555 76.4447C98.4376 76.72 97.8178 77.4539 97.5576 78.6695C97.2668 80.0456 97.5805 81.7505 98.2693 82.4692C98.782 83.012 99.6238 83.2337 100.42 83.0273C100.871 82.9126 101.575 82.4998 101.575 82.3545C101.575 82.2934 101.438 81.9952 101.376 81.9187C101.369 81.9111 101.239 81.9799 101.101 82.0869C100.611 82.4463 99.907 82.5533 99.4095 82.3392C98.606 81.9952 98.1239 80.7643 98.2387 79.3423C98.3611 77.7444 98.9504 76.9493 100.006 76.9417C100.397 76.9417 100.741 77.0946 101.093 77.4233C101.193 77.5074 101.277 77.5686 101.292 77.5456C101.307 77.5304 101.399 77.4004 101.491 77.2628C101.659 77.0258 101.659 77.0028 101.537 76.8652C101.185 76.4753 100.129 76.2612 99.4555 76.4447Z" fill="black"/>
<path d="M109.19 76.4673C108.669 76.6508 108.371 76.8725 108.088 77.3006C107.705 77.8664 107.606 78.3098 107.567 79.5024C107.514 81.0009 107.713 81.796 108.31 82.4688C108.83 83.0575 110.07 83.2869 110.835 82.9352C111.532 82.6064 112.029 81.9107 112.259 80.9398C112.435 80.1829 112.373 78.5391 112.136 77.8664C111.899 77.1936 111.348 76.6202 110.766 76.452C110.231 76.2914 109.672 76.2991 109.19 76.4673ZM110.72 77.0865C111.363 77.4535 111.639 78.3786 111.578 79.9612C111.532 81.108 111.401 81.6355 111.042 82.0407C110.743 82.3771 110.414 82.5223 109.955 82.5223C109.266 82.5223 108.807 82.1859 108.524 81.452C108.402 81.1309 108.356 80.8021 108.325 80.0223C108.256 78.1492 108.624 77.2242 109.534 76.9489C109.871 76.8495 110.422 76.9107 110.72 77.0865Z" fill="black"/>
<path d="M139.778 76.4682C138.714 76.8505 138.156 77.9743 138.156 79.7327C138.156 81.6593 138.806 82.8061 140.046 83.0584C141.982 83.4636 143.283 81.6593 142.984 78.9759C142.785 77.2327 142.112 76.4376 140.773 76.3612C140.321 76.3306 140.084 76.3612 139.778 76.4682ZM141.293 77.0569C141.936 77.3933 142.227 78.2113 142.227 79.6869C142.234 81.5829 141.699 82.5233 140.612 82.5233C139.533 82.5233 139.02 81.7587 138.936 80.0386C138.875 78.7159 139.181 77.508 139.655 77.1945C140.161 76.8658 140.819 76.8123 141.293 77.0569Z" fill="black"/>
<path d="M149.023 76.3985C148.319 76.6202 147.752 77.1401 147.5 77.8282C147.285 78.3939 147.155 79.4566 147.217 80.1905C147.339 81.6431 147.783 82.5071 148.625 82.9123C149.145 83.1569 150.071 83.1645 150.569 82.9199C151.517 82.4535 152.084 81.2303 152.084 79.6554C152.084 77.4918 151.219 76.3144 149.643 76.3373C149.405 76.3373 149.13 76.3679 149.023 76.3985ZM150.4 77.0866C151.142 77.4688 151.51 79.1661 151.211 80.848C151.012 81.9719 150.584 82.4535 149.75 82.5071C149.168 82.5453 148.732 82.3542 148.449 81.926C147.829 80.9857 147.821 78.4474 148.433 77.5529C148.877 76.8954 149.665 76.7119 150.4 77.0866Z" fill="black"/>
<path d="M67.2908 79.693V82.9805H67.6734H68.0561V79.9988V77.0172H69.357H70.658V79.9988V82.9805H71.0024H71.3468V79.693V76.4055H69.3188H67.2908V79.693Z" fill="black"/>
<path d="M89.0247 79.693V82.9805H90.5552H92.0858V82.6747V82.3688H90.9379H89.7899V81.0692V79.7695H90.7083H91.6266V79.5019V79.2419L90.7312 79.219L89.8282 79.1961L89.8052 78.1028L89.7823 77.0172H90.8996H92.0092V76.7114V76.4055H90.517H89.0247V79.693Z" fill="black"/>
<path d="M102.417 79.693V82.9805H102.784H103.144L104.46 80.3581L105.777 77.7435V80.3581L105.784 82.9805H106.167H106.55V79.6854V76.3979L106.167 76.4208L105.784 76.4438L104.491 79.0432L103.198 81.6425L103.19 79.0202L103.182 76.4055H102.8H102.417V79.693Z" fill="black"/>
<path d="M113.284 79.693V82.9805H113.667H114.049V81.4132V79.8459H115.35H116.651V81.4132V82.9805H117.034H117.416V79.693V76.4055H117.034H116.651V77.8581V79.3107H115.35H114.049V77.8581V76.4055H113.667H113.284V79.693Z" fill="black"/>
<path d="M119.896 77.2618C119.743 77.7358 119.238 79.219 118.786 80.5493L117.96 82.9805H118.32H118.687L119.016 81.8719L119.353 80.7633H120.363H121.373L121.664 81.7955C121.825 82.3612 121.985 82.8581 122.008 82.904C122.039 82.9499 122.223 82.9805 122.445 82.9652L122.827 82.9422L121.863 79.6701L120.906 76.4055H120.547H120.187L119.896 77.2618ZM120.853 78.8214C121.067 79.5783 121.243 80.2205 121.243 80.2511C121.243 80.2817 120.853 80.3046 120.371 80.3046H119.498L119.667 79.7465C120.279 77.8046 120.417 77.3918 120.439 77.4147C120.455 77.43 120.646 78.0646 120.853 78.8214Z" fill="black"/>
<path d="M124.35 77.1474C124.09 80.886 123.845 82.0175 123.248 82.2927C123.011 82.3997 122.995 82.4227 123.026 82.7361C123.049 82.9196 123.08 83.0801 123.095 83.0954C123.172 83.1719 123.692 82.9578 123.883 82.7667C124.465 82.2009 124.794 80.6872 124.962 77.8737L125.016 77.0175H125.881H126.753V79.9991V82.9808H127.136H127.518V79.6933V76.4058H125.957H124.396L124.35 77.1474Z" fill="black"/>
<path d="M128.59 79.6556C128.59 82.6831 128.597 82.9125 128.727 82.966C128.796 82.9966 129.286 83.0195 129.814 83.0195C130.648 83.0195 130.817 82.9966 131.153 82.8437C131.643 82.622 131.85 82.4232 132.095 81.9492C132.255 81.6357 132.294 81.4599 132.294 80.9935C132.294 80.5042 132.263 80.359 132.072 79.9997C131.888 79.6633 131.766 79.5409 131.421 79.3651C131.023 79.1587 130.962 79.1434 130.181 79.174L129.355 79.1969V77.8055V76.4064H128.972H128.59V79.6556ZM131.023 79.9079C131.36 80.1526 131.521 80.4966 131.528 81.0012C131.544 82.0256 130.855 82.599 129.753 82.4691L129.355 82.4232L129.37 81.1235L129.393 79.8162L129.584 79.755C129.692 79.7244 129.998 79.7091 130.273 79.7168C130.656 79.7321 130.832 79.7779 131.023 79.9079Z" fill="black"/>
<path d="M133.105 79.693V82.9805H133.487H133.87V81.4132V79.8459H135.171H136.472V81.4132V82.9805H136.855H137.237V79.693V76.4055H136.855H136.472V77.8581V79.3107H135.171H133.87V77.8581V76.4055H133.487H133.105V79.693Z" fill="black"/>
<path d="M143.972 79.693V82.9805H144.316H144.66V79.9988V77.0248L145.678 77.0019L146.688 76.9789L146.711 76.6884L146.734 76.4055H145.357H143.972V79.693Z" fill="black"/>
<path d="M136.686 85.7109L136.663 86.0779L136.158 86.1314C135.026 86.2384 134.375 86.9341 134.176 88.2415C134.016 89.243 134.268 90.2216 134.834 90.8562C135.194 91.2537 135.584 91.4372 136.227 91.5137L136.702 91.5672V91.9418V92.3164L137.031 92.2935L137.352 92.2705L137.375 91.9265L137.398 91.5748L137.934 91.4907C138.569 91.3913 138.967 91.1543 139.334 90.6421C139.725 90.1069 139.878 89.5718 139.87 88.7155C139.87 87.1253 139.181 86.2231 137.919 86.1314L137.39 86.0932V85.7262V85.3516H137.054H136.709L136.686 85.7109ZM136.702 88.7919C136.702 90.5045 136.679 90.9479 136.602 90.9785C136.434 91.0396 135.783 90.8638 135.538 90.6956C135.225 90.4663 135.026 90.0228 134.934 89.3348C134.834 88.5779 134.942 87.7445 135.209 87.2935C135.431 86.9112 135.906 86.6513 136.38 86.6513H136.702V88.7919ZM138.408 86.873C138.592 86.9877 138.753 87.1864 138.898 87.477C139.089 87.8669 139.112 87.9892 139.112 88.7155C139.112 90.0611 138.737 90.7491 137.919 90.925C137.704 90.9708 137.505 91.0091 137.467 91.0091C137.421 91.0091 137.39 90.1528 137.39 88.8225V86.6283L137.765 86.6666C137.972 86.6895 138.263 86.7812 138.408 86.873Z" fill="black"/>
<path d="M68.8213 85.6492C68.5075 85.7563 68.2932 85.9092 68.0024 86.2226C67.4514 86.8113 67.2831 87.3541 67.2371 88.6385C67.1606 90.741 67.7958 91.9642 69.1044 92.2318C70.3136 92.4841 71.3926 91.8266 71.8059 90.5804C72.2727 89.189 72.0967 87.2089 71.4309 86.2991C70.9411 85.611 69.7473 85.3205 68.8213 85.6492ZM70.3518 86.2303C71.01 86.5743 71.2702 87.3312 71.2702 88.8908C71.2702 90.7945 70.7574 91.6966 69.6707 91.6966C68.8978 91.6966 68.4157 91.2991 68.1631 90.4428C67.9718 89.8159 67.9642 87.874 68.1555 87.3159C68.3697 86.6508 68.7065 86.2838 69.2651 86.1079C69.5177 86.0315 70.0916 86.0927 70.3518 86.2303Z" fill="black"/>
<path d="M78.3872 85.5507C78.1959 85.566 77.9281 85.6043 77.798 85.6196L77.5454 85.6654V88.907V92.1562H77.9281H78.3107V90.6807V89.2128L78.9306 89.2434C79.6958 89.274 80.1244 89.1593 80.53 88.8153C80.905 88.4942 81.0427 88.2419 81.1422 87.7067C81.2723 87.0492 81.1269 86.537 80.6907 86.1088C80.4688 85.8795 80.2239 85.7189 80.0326 85.6654C79.6576 85.566 78.854 85.5125 78.3872 85.5507ZM79.8872 86.3153C80.2851 86.6058 80.3923 86.8275 80.3923 87.3244C80.3923 87.9666 80.2086 88.3183 79.7647 88.54C79.428 88.7159 79.0071 88.7618 78.5479 88.67L78.3107 88.6165V87.4162C78.3107 86.7587 78.3336 86.1929 78.3719 86.1624C78.4025 86.1318 78.7086 86.1165 79.053 86.1318C79.5351 86.1471 79.7265 86.1929 79.8872 86.3153Z" fill="black"/>
<path d="M87.1497 85.6105C86.7594 85.7328 86.5069 85.8628 86.2926 86.0539L86.1319 86.2068L86.2849 86.4668C86.3691 86.612 86.4533 86.7267 86.4762 86.7267C86.4992 86.7267 86.6523 86.612 86.8206 86.4668C87.716 85.7023 88.795 86.0922 88.795 87.1778C88.795 88.0188 88.4277 88.3857 87.5017 88.4622C86.9737 88.5081 86.9584 88.5157 86.9584 88.7145C86.9584 88.9133 86.9737 88.9209 87.4941 88.9668C88.4889 89.0509 88.9098 89.4484 88.9098 90.32C88.9098 90.901 88.7415 91.2527 88.3282 91.5279C88.1063 91.6885 87.9992 91.7038 87.6012 91.6732C87.3104 91.6503 86.9813 91.5662 86.7364 91.4362C86.5145 91.3292 86.3232 91.2374 86.3002 91.2374C86.2696 91.2374 86.04 91.6656 86.04 91.7344C86.04 91.7573 86.2696 91.8873 86.5604 92.0249C86.989 92.2237 87.165 92.2619 87.6471 92.2695C88.3206 92.2695 88.7109 92.1472 89.0705 91.8261C89.4761 91.4744 89.6598 91.0616 89.6981 90.3964C89.7363 89.6472 89.545 89.242 88.9787 88.9056L88.5884 88.6686L88.8639 88.5004C89.7363 87.95 89.8588 86.6197 89.1088 85.9393C88.642 85.5188 87.8614 85.3888 87.1497 85.6105Z" fill="black"/>
<path d="M92.2082 85.6267C91.6955 85.7873 91.0909 86.3913 90.8767 86.9723C90.4558 88.0962 90.4481 89.7093 90.869 90.8179C91.0756 91.3683 91.6113 91.957 92.0705 92.1329C92.5526 92.3163 93.4786 92.3163 93.8459 92.1252C94.8332 91.613 95.3229 90.7185 95.4301 89.2506C95.5219 87.8974 95.2158 86.7124 94.6112 86.1084C94.0373 85.535 93.1113 85.3515 92.2082 85.6267ZM93.425 86.1237C93.9072 86.2537 94.2822 86.6741 94.4811 87.3011C94.7184 88.0809 94.7184 89.6634 94.4735 90.4585C94.175 91.4066 93.6776 91.7659 92.7746 91.6818C92.0093 91.6053 91.5501 90.9708 91.3894 89.7475C91.2899 88.9754 91.3435 87.928 91.5118 87.3546C91.8103 86.3607 92.545 85.8867 93.425 86.1237Z" fill="black"/>
<path d="M97.1366 85.5496C96.907 85.5649 96.6392 85.5955 96.5474 85.6184L96.3713 85.6567V88.8753C96.3713 91.857 96.379 92.0863 96.5091 92.1322C96.578 92.1628 97.0907 92.1857 97.634 92.1934C98.5141 92.1934 98.6748 92.1704 99.0116 92.0175C99.685 91.7041 100.022 91.2453 100.098 90.519C100.175 89.7392 99.8687 89.1505 99.2411 88.8906C99.0498 88.8142 98.8968 88.7377 98.9044 88.7148C98.9044 88.6918 99.0651 88.5695 99.2641 88.4472C100.366 87.7438 100.144 86.0542 98.8968 85.672C98.5753 85.5726 97.7182 85.5114 97.1366 85.5496ZM98.6519 86.2683C99.4018 86.6047 99.3942 87.7285 98.6366 88.2866C98.4759 88.409 98.2845 88.4548 97.7795 88.4778L97.1366 88.5007V87.3616C97.1366 86.7346 97.1596 86.1918 97.1902 86.1689C97.305 86.0466 98.3228 86.123 98.6519 86.2683ZM98.7131 89.227C99.1187 89.4334 99.3024 89.7775 99.3024 90.3203C99.3024 91.2683 98.6672 91.7576 97.5805 91.6429L97.1366 91.597V90.2973V88.9976L97.7718 89.0359C98.2157 89.0588 98.5065 89.12 98.7131 89.227Z" fill="black"/>
<path d="M117.822 85.5813C117.08 85.7342 116.498 86.2541 116.368 86.8734C116.261 87.3856 116.315 87.9208 116.506 88.2648C116.705 88.6165 117.095 88.93 117.44 88.9988C117.692 89.0523 117.7 89.1211 117.47 89.274C117.371 89.3351 117.187 89.5874 117.049 89.8397C116.843 90.2373 116.039 92.0416 116.039 92.1257C116.039 92.141 116.223 92.1562 116.445 92.1562H116.843L117.286 91.0018C117.631 90.1303 117.799 89.7862 118.021 89.5569C118.289 89.274 118.343 89.2511 118.741 89.2511H119.177V90.7037V92.1562H119.559H119.942V88.907V85.6654L119.697 85.6272C119.169 85.5431 118.128 85.5202 117.822 85.5813ZM119.161 87.4315L119.177 88.7159H118.618C117.593 88.7159 117.11 88.303 117.11 87.4162C117.11 86.881 117.302 86.514 117.692 86.2847C117.945 86.1471 118.082 86.1165 118.564 86.1318L119.138 86.1547L119.161 87.4315Z" fill="black"/>
<path d="M123.998 85.5566C123.807 85.5719 123.539 85.6025 123.409 85.6178L123.156 85.6636V88.867V92.078L123.371 92.1315C123.73 92.2309 125.391 92.2003 125.712 92.0857C126.103 91.9481 126.592 91.5046 126.761 91.1224C126.929 90.7554 126.952 89.9679 126.799 89.6086C126.684 89.3181 126.217 88.8899 125.95 88.8211C125.774 88.7753 125.674 88.6377 125.819 88.6377C125.942 88.6377 126.531 88.0796 126.654 87.8425C126.73 87.7049 126.784 87.4144 126.784 87.1468C126.791 86.26 126.302 85.7477 125.299 85.5872C124.809 85.5031 124.702 85.5031 123.998 85.5566ZM125.444 86.2523C125.85 86.4511 126.003 86.711 126.003 87.208C126.011 88.0643 125.521 88.4847 124.518 88.4847H123.922V87.3533C123.922 86.7263 123.944 86.1912 123.975 86.1682C124.082 86.0536 125.184 86.1147 125.444 86.2523ZM125.529 89.211C125.896 89.4328 126.08 89.7233 126.126 90.1591C126.171 90.6484 125.98 91.1759 125.689 91.3823C125.391 91.5964 124.878 91.6958 124.365 91.6422L123.922 91.5964V90.2967V89.0046L124.595 89.0352C125.085 89.0581 125.345 89.104 125.529 89.211Z" fill="black"/>
<path d="M131.827 85.5804C130.84 85.7791 130.036 86.6889 129.814 87.8739C129.715 88.3938 129.715 89.5712 129.814 90.0911C129.998 91.0467 130.625 91.9259 131.314 92.1629C132.041 92.4152 133.036 92.2394 133.618 91.7424C133.839 91.5513 133.855 91.5207 133.778 91.3296C133.725 91.2149 133.679 91.1155 133.671 91.1002C133.663 91.0926 133.48 91.192 133.258 91.3296C132.898 91.5513 132.791 91.5819 132.301 91.5819C131.834 91.5819 131.712 91.5513 131.437 91.3755C130.771 90.9321 130.465 90.0146 130.526 88.6385C130.572 87.6064 130.717 87.0865 131.1 86.6431C131.421 86.2684 131.75 86.1155 132.217 86.1155C132.661 86.1155 132.929 86.2226 133.235 86.5131C133.51 86.7807 133.625 86.7424 133.794 86.3372C133.878 86.1385 133.87 86.0926 133.748 85.9932C133.304 85.6415 132.454 85.458 131.827 85.5804Z" fill="black"/>
<path d="M145.502 85.5507C145.273 85.566 145.005 85.5966 144.913 85.6196L144.737 85.6578V88.907V92.1562H145.081H145.426L145.441 90.7037L145.464 89.2434L146.268 89.2281C146.926 89.2128 147.132 89.1822 147.393 89.037C147.99 88.7235 148.326 88.0966 148.326 87.3015C148.334 86.0095 147.393 85.4284 145.502 85.5507ZM146.949 86.2541C147.347 86.4529 147.515 86.7358 147.553 87.2556C147.622 88.1578 147.109 88.7159 146.206 88.7159C145.992 88.7159 145.732 88.6853 145.625 88.6394L145.426 88.563V87.3856C145.426 86.514 145.449 86.1929 145.525 86.17C145.77 86.0706 146.696 86.1241 146.949 86.2541Z" fill="black"/>
<path d="M73.0303 88.8294C73.0303 91.857 73.0379 92.0863 73.168 92.1398C73.2369 92.1704 73.7267 92.1934 74.2547 92.1934C75.0659 92.1934 75.2649 92.1704 75.5633 92.0328C76.2904 91.6964 76.7036 91.0236 76.7036 90.1827C76.7036 89.6169 76.5735 89.227 76.2674 88.8753C75.8848 88.4242 75.4945 88.3019 74.5226 88.3478L73.719 88.386V87.2851V86.1918H74.9052H76.0914V85.886V85.5802H74.5608H73.0303V88.8294ZM75.3797 89.0664C75.77 89.3646 75.8924 89.6016 75.923 90.1521C75.9383 90.5726 75.9154 90.7178 75.77 90.9625C75.4409 91.5206 74.9588 91.727 74.1552 91.6429L73.719 91.597L73.7343 90.2897L73.7573 88.99L73.9486 88.9288C74.3236 88.8218 75.1501 88.8983 75.3797 89.0664Z" fill="black"/>
<path d="M83.0938 85.6713C83.0708 85.7248 82.5734 87.208 81.9918 88.9664L80.9204 92.1621L81.2724 92.1392C81.678 92.1162 81.5939 92.2615 82.0607 90.7172L82.3056 89.9297L83.3081 89.9526L84.3183 89.9756L84.6244 91.0459L84.9381 92.1162L85.3361 92.1392C85.6269 92.1545 85.734 92.1315 85.734 92.0627C85.734 92.0092 85.3055 90.5337 84.7927 88.7906L83.8591 85.6178L83.4918 85.5948C83.2469 85.5795 83.1168 85.6025 83.0938 85.6713ZM84.1652 89.3028C84.2035 89.4786 84.2035 89.4786 83.3234 89.4786C82.4357 89.4786 82.4357 89.4786 82.4892 89.3028C83.0326 87.575 83.3004 86.7416 83.3387 86.6499C83.3693 86.5581 83.905 88.2707 84.1652 89.3028Z" fill="black"/>
<path d="M102.685 85.6713C102.662 85.7248 102.164 87.208 101.583 88.9664L100.511 92.1621L100.864 92.1392C101.269 92.1162 101.185 92.2615 101.652 90.7172L101.889 89.9297L102.899 89.9526L103.909 89.9756L104.215 91.0459L104.529 92.1162L104.927 92.1392C105.218 92.1545 105.325 92.1315 105.325 92.0627C105.317 92.0092 104.897 90.5337 104.384 88.7906L103.442 85.6178L103.083 85.5948C102.838 85.5795 102.708 85.6025 102.685 85.6713ZM103.756 89.3028C103.795 89.4786 103.795 89.4786 102.914 89.4786C102.103 89.4786 102.027 89.4633 102.065 89.341C102.088 89.2722 102.279 88.6606 102.494 87.9878C102.7 87.315 102.899 86.711 102.922 86.6499C102.96 86.5581 103.45 88.1178 103.756 89.3028Z" fill="black"/>
<path d="M106.014 88.8688V92.1562H106.397H106.779V90.589V89.0217L108.065 89.037L109.343 89.0599L109.366 90.6043L109.381 92.1562H109.726H110.07V88.8688V85.5813H109.726H109.381L109.366 87.011L109.343 88.4483L108.065 88.4712L106.779 88.4865V87.0339V85.5813H106.397H106.014V88.8688Z" fill="black"/>
<path d="M111.141 88.8746V92.1621L111.524 92.1392L111.899 92.1162L113.2 89.5168L114.501 86.9175V89.5321L114.509 92.1545H114.891H115.274V88.8594V85.5719L114.891 85.5948L114.509 85.6178L113.223 88.2172L111.945 90.8165L111.922 88.1942L111.907 85.5795H111.524H111.141V88.8746Z" fill="black"/>
<path d="M140.834 88.8688V92.1562H142.365H143.895V91.8504V91.5446H142.747H141.599V90.2449V88.9452H142.518H143.436V88.6777V88.4177L142.541 88.3948L141.638 88.3718L141.615 87.2786L141.592 86.1929H142.709H143.819V85.8871V85.5813H142.326H140.834V88.8688Z" fill="black"/>
<path d="M149.023 88.8688V92.1562H150.553H152.084V91.8504V91.5446H150.936H149.788V90.2449V88.9452H150.706H151.625V88.6777V88.4101H150.706H149.788V87.3015V86.1929H150.898H152.007V85.8871V85.5813H150.515H149.023V88.8688Z" fill="black"/>
<path d="M155.183 93.7759C155.352 94.3416 155.757 94.6016 156.446 94.6016C157.02 94.6016 157.357 94.441 157.594 94.0511C157.816 93.6841 157.793 93.6077 157.441 93.6077C157.272 93.6077 157.135 93.6383 157.135 93.6841C157.135 93.8829 156.821 94.0664 156.477 94.0664C156.193 94.0664 156.086 94.0282 155.895 93.837C155.734 93.6688 155.596 93.6077 155.405 93.6077C155.16 93.6077 155.137 93.623 155.183 93.7759Z" fill="black"/>
<path d="M72.7243 94.7246C72.4947 94.7399 72.2268 94.7704 72.135 94.7934L71.959 94.8316V98.0808V101.33H72.3034H72.6477L72.663 99.8622L72.686 98.4019L73.3135 98.4172C74.0635 98.4402 74.4308 98.3484 74.8517 98.0426C75.3492 97.6833 75.5175 97.2934 75.5175 96.4983C75.5175 95.8867 75.5022 95.8102 75.288 95.5044C74.8594 94.8928 74.0329 94.6405 72.7243 94.7246ZM74.1706 95.4279C74.6222 95.6496 74.7523 95.9096 74.7523 96.5518C74.7523 97.0029 74.7216 97.1558 74.5915 97.324C74.2319 97.8056 73.7497 97.9662 72.9998 97.8591L72.6477 97.8056V96.59C72.6477 95.6955 72.6707 95.3668 72.7472 95.3438C72.9921 95.2445 73.9181 95.298 74.1706 95.4279Z" fill="black"/>
<path d="M94.8408 94.7248C94.6495 94.74 94.3817 94.7783 94.2516 94.7936L93.999 94.8394V98.0428V101.254L94.2133 101.307C94.573 101.407 96.2336 101.376 96.5551 101.261C96.9607 101.116 97.4351 100.673 97.6188 100.26C97.8101 99.8394 97.8254 99.0978 97.6494 98.7538C97.4964 98.4633 97.0372 98.0581 96.7923 97.9969C96.6852 97.974 96.601 97.9281 96.6086 97.8975C96.6086 97.8746 96.7693 97.7446 96.9607 97.6223C97.4428 97.3088 97.6341 96.9266 97.6341 96.2844C97.6265 95.9633 97.5805 95.7033 97.4964 95.5351C97.3433 95.2599 96.9071 94.9388 96.5244 94.8318C96.2183 94.74 95.3077 94.6865 94.8408 94.7248ZM96.2872 95.4281C96.6928 95.6269 96.8612 95.9174 96.8612 96.3838C96.8612 96.8578 96.6928 97.2018 96.3561 97.4465C96.1495 97.5917 95.9888 97.6299 95.4377 97.6452L94.7643 97.6758V96.5367C94.7643 95.9098 94.7873 95.367 94.8179 95.344C94.925 95.2293 96.027 95.2905 96.2872 95.4281ZM96.0882 98.2798C96.2566 98.3257 96.5091 98.4709 96.6622 98.6162C96.9224 98.8532 96.9377 98.8991 96.9683 99.3884C96.9836 99.8318 96.9607 99.9694 96.8153 100.214C96.5474 100.68 96.2336 100.826 95.5296 100.818C95.2005 100.818 94.8944 100.795 94.8485 100.765C94.7949 100.726 94.7643 100.298 94.7643 99.4495V98.1957H95.2847C95.5678 98.1957 95.9275 98.2339 96.0882 98.2798Z" fill="black"/>
<path d="M137.926 94.7465C136.571 95.0218 135.783 96.2756 135.783 98.1563C135.783 99.7007 136.304 100.817 137.222 101.26C137.957 101.62 139.189 101.436 139.717 100.878C139.9 100.687 139.916 100.641 139.832 100.458C139.732 100.243 139.648 100.205 139.564 100.343C139.541 100.389 139.334 100.511 139.12 100.61C138.094 101.084 137.145 100.626 136.74 99.456C136.564 98.9361 136.503 97.8123 136.617 97.1548C136.839 95.8933 137.39 95.2893 138.324 95.2893C138.737 95.2893 139.074 95.4346 139.434 95.771C139.533 95.8551 139.617 95.9163 139.633 95.8933C139.648 95.878 139.732 95.7404 139.832 95.5799L140 95.3046L139.77 95.1441C139.288 94.8 138.508 94.6319 137.926 94.7465Z" fill="black"/>
<path d="M145.655 94.7246C145.426 94.7399 145.158 94.7704 145.066 94.7934L144.89 94.8316V98.0808V101.33H145.273H145.655V99.8545V98.3867H146.444C147.285 98.3867 147.637 98.2643 148.005 97.8744C148.472 97.3775 148.632 96.3454 148.342 95.7032C148.173 95.3362 147.745 94.9616 147.354 94.8469C147.01 94.7399 146.222 94.6863 145.655 94.7246ZM147.056 95.3974C147.5 95.5808 147.676 95.8484 147.706 96.3912C147.768 97.3469 147.285 97.8897 146.375 97.8897C145.609 97.8897 145.655 97.9585 145.655 96.5977C145.655 95.9325 145.678 95.3668 145.709 95.3438C145.801 95.2521 146.803 95.2903 147.056 95.3974Z" fill="black"/>
<path d="M67.2908 98.0426V101.33H67.6734H68.0561V99.7246V98.1191H68.3622C68.7754 98.1191 69.1581 98.2873 69.3341 98.5472C69.4106 98.6619 69.6631 99.327 69.9004 100.023L70.3289 101.292L70.7269 101.315C70.9412 101.33 71.1172 101.307 71.1172 101.261C71.1172 101.131 70.2907 98.8377 70.13 98.5243C70.0458 98.3561 69.8698 98.1267 69.7397 98.0197C69.5024 97.8209 69.5024 97.8209 69.6555 97.668C69.8545 97.4692 70.0611 97.0487 70.2371 96.5136C70.4437 95.879 70.6427 95.5197 70.8493 95.4279C71.0024 95.3591 71.0406 95.2827 71.0406 95.0457C71.0406 94.7628 71.033 94.7552 70.7804 94.7552C70.2677 94.7552 70.0075 95.1298 69.5483 96.5059C69.2652 97.3622 69.0662 97.5763 68.4999 97.6374L68.0561 97.6833V96.2154V94.7552H67.6734H67.2908V98.0426Z" fill="black"/>
<path d="M76.2444 98.0426V101.33H77.7826H79.3132L79.2902 101.04L79.2672 100.757L78.1423 100.734L77.0097 100.711V99.4188V98.1267L77.9127 98.1038L78.8081 98.0808L78.831 97.8285L78.854 97.5839H77.9357H77.0097V96.4753V95.3668H78.1193H79.229V95.061V94.7552H77.7367H76.2444V98.0426Z" fill="black"/>
<path d="M81.1729 96.7582C80.8056 97.8668 80.3081 99.3423 80.0632 100.046L79.6194 101.33H79.9867H80.3464L80.6831 100.222L81.0122 99.113H82.0224H83.0325L83.3233 100.145C83.484 100.711 83.6448 101.208 83.6677 101.254C83.6983 101.299 83.882 101.33 84.1039 101.315L84.4866 101.292L83.5223 98.0197L82.5657 94.7552H82.206H81.8463L81.1729 96.7582ZM82.5121 97.1711C82.7264 97.9279 82.9024 98.5701 82.9024 98.6007C82.9024 98.6313 82.5121 98.6542 82.03 98.6542H81.1576L81.3336 98.0961C81.9152 96.223 82.0759 95.7414 82.0989 95.7643C82.1142 95.7796 82.3055 96.4142 82.5121 97.1711Z" fill="black"/>
<path d="M84.28 95.061V95.3668H85.0453H85.8106V98.3484V101.33H86.1932H86.5759V98.3484V95.3668H87.3794H88.183V95.061V94.7552H86.2315H84.28V95.061Z" fill="black"/>
<path d="M88.7952 98.0426V101.33H89.1778H89.5604L90.8767 98.7078L92.2007 96.0931L92.2236 98.7078L92.2389 101.33H92.5833H92.9277V98.0426V94.7552H92.568H92.2007L90.8844 97.4157L89.5758 100.069L89.5681 97.4081L89.5604 94.7552H89.1778H88.7952V98.0426Z" fill="black"/>
<path d="M98.6672 98.0426V101.33H99.0116H99.356V99.7628V98.1955H100.657H101.958V99.7628V101.33H102.341H102.723V98.0426V94.7552H102.341H101.958V96.2078V97.6604H100.657H99.356V96.2078V94.7552H99.0116H98.6672V98.0426Z" fill="black"/>
<path d="M103.795 97.9971C103.795 100.291 103.818 101.262 103.879 101.3C103.925 101.323 104.33 101.369 104.782 101.392C105.907 101.445 106.351 101.308 106.886 100.772C107.323 100.329 107.468 99.9772 107.468 99.3427C107.468 98.7922 107.338 98.4023 107.032 98.0506C106.649 97.5996 106.259 97.4772 105.287 97.5231L104.483 97.5613V96.1546V94.7555H104.139H103.795V97.9971ZM106.144 98.2418C106.527 98.5246 106.657 98.7769 106.687 99.2892C106.71 99.6714 106.68 99.832 106.534 100.1C106.228 100.688 105.746 100.902 104.92 100.818L104.483 100.772L104.499 99.465L104.522 98.1653L104.713 98.1042C105.088 97.9971 105.915 98.0736 106.144 98.2418Z" fill="black"/>
<path d="M108.08 98.0426V101.33H108.463H108.845V98.0426V94.7552H108.463H108.08V98.0426Z" fill="black"/>
<path d="M110.108 95.948C110.422 96.6055 110.774 97.3471 110.889 97.5994L111.088 98.0581L110.851 98.5244C110.72 98.7844 110.338 99.526 110.001 100.161L109.396 101.33H109.787H110.185L110.751 100.046C111.057 99.3425 111.34 98.7385 111.371 98.7079C111.402 98.6773 111.685 99.2431 112.006 99.9694L112.588 101.292L113.009 101.315L113.437 101.338L113.253 100.933C113.154 100.711 112.787 99.9235 112.442 99.1743L111.815 97.8287L112.588 96.3379C113.009 95.5198 113.361 94.8241 113.361 94.8012C113.361 94.7706 113.2 94.7553 113.001 94.7706L112.641 94.7935L112.113 95.9939C111.815 96.659 111.555 97.2018 111.532 97.2018C111.501 97.2018 111.241 96.659 110.942 95.9939L110.407 94.7935L109.97 94.7706L109.534 94.7477L110.108 95.948Z" fill="black"/>
<path d="M116.192 98.0426V101.33H116.575H116.95L118.251 98.7078L119.544 96.0931L119.552 98.7078L119.559 101.33H119.942H120.325V98.0426V94.7552H119.957H119.582L118.274 97.4081L116.957 100.069V97.4081V94.7552H116.575H116.192V98.0426Z" fill="black"/>
<path d="M121.396 98.0426V101.33H121.779H122.161V99.7628V98.1955H123.462H124.763V99.7628V101.33H125.108H125.452V98.0426V94.7552H125.108H124.763V96.2078V97.6604H123.462H122.161V96.2078V94.7552H121.779H121.396V98.0426Z" fill="black"/>
<path d="M127.365 94.9612C127.365 95.6339 127.189 97.8893 127.09 98.5621C126.891 99.9229 126.562 100.718 126.21 100.718C126.064 100.718 126.064 100.772 126.08 101.62L126.103 102.515L126.393 102.538L126.676 102.561V101.949V101.33H128.475H130.273V101.941V102.553H130.534C130.778 102.553 130.794 102.538 130.84 102.201C130.863 102.002 130.886 101.59 130.886 101.284V100.718H130.656H130.426V97.7364V94.7547H128.896H127.365V94.9612ZM129.738 98.0422V100.718H128.444H127.151L127.327 100.275C127.618 99.556 127.801 98.3557 127.939 96.1462L127.993 95.3664H128.865H129.738V98.0422Z" fill="black"/>
<path d="M131.284 94.8458C131.306 94.8993 131.743 96.069 132.263 97.4452C132.952 99.2877 133.189 99.9987 133.151 100.144C133.067 100.465 132.837 100.641 132.485 100.641H132.179L132.202 101.008L132.225 101.367L132.569 101.36C132.998 101.36 133.281 101.176 133.526 100.763C133.625 100.587 134.092 99.2112 134.559 97.6975C135.026 96.1837 135.424 94.8993 135.439 94.8458C135.462 94.7846 135.362 94.754 135.102 94.754H134.735L134.253 96.6424C133.985 97.6898 133.74 98.6608 133.694 98.806L133.625 99.0736L133.419 98.5002C133.304 98.1868 132.959 97.2158 132.653 96.3366L132.095 94.754H131.674C131.368 94.754 131.261 94.777 131.284 94.8458Z" fill="black"/>
<path d="M140.298 95.061V95.3668H141.102H141.905V98.3484V101.33H142.288H142.671V98.3484V95.3668H143.436H144.201V95.061V94.7552H142.25H140.298V95.061Z" fill="black"/>
<path d="M149.176 98.0426V101.33H149.558H149.941L151.234 98.746L152.535 96.1695V98.746L152.543 101.33H152.925H153.308V98.0426V94.7552H152.941H152.566L151.257 97.4081L149.956 100.069L149.948 97.4081L149.941 94.7552H149.558H149.176V98.0426Z" fill="black"/>
<path d="M154.38 98.0426V101.33H154.762H155.145L156.461 98.7078L157.785 96.0931L157.808 98.7078L157.823 101.33H158.168H158.512V98.0426V94.7552H158.145H157.777L156.469 97.4081L155.16 100.069L155.153 97.4081L155.145 94.7552H154.762H154.38V98.0426Z" fill="black"/>
</svg>
