<svg width="278" height="198" viewBox="0 0 278 198" fill="none" xmlns="http://www.w3.org/2000/svg">
<g clip-path="url(#clip0_965_3154)">
<path d="M123.867 54.3311C123.925 53.7117 123.982 53.0505 124.04 52.3477C124.095 51.6643 124.203 50.9863 124.364 50.32C124.489 49.7405 124.731 49.1929 125.074 48.7104C125.215 48.5098 125.403 48.3472 125.621 48.2368C125.839 48.1263 126.08 48.0715 126.324 48.0772C126.534 48.0761 126.742 48.1253 126.929 48.2208C127.116 48.3164 127.278 48.4554 127.401 48.6264C127.732 49.0854 127.973 49.6031 128.112 50.1522C128.322 50.915 128.481 51.6914 128.586 52.4759C128.714 53.377 128.866 54.3347 129.042 55.3488L136.276 103.769C136.333 104.165 136.405 104.587 136.491 105.037C136.578 105.495 136.692 105.713 136.836 105.713C136.98 105.713 137.094 105.489 137.181 105.037C137.267 104.585 137.333 104.164 137.397 103.769L144.637 55.3442C144.81 54.3271 144.962 53.3694 145.092 52.4713C145.198 51.6868 145.356 50.9104 145.566 50.1476C145.705 49.5985 145.946 49.0808 146.277 48.6219C146.4 48.4507 146.563 48.3116 146.75 48.2161C146.938 48.1205 147.145 48.0714 147.356 48.0726C147.6 48.0673 147.841 48.1223 148.059 48.2327C148.277 48.3431 148.465 48.5056 148.605 48.7058C148.947 49.1884 149.188 49.7346 149.316 50.3124C149.476 50.9798 149.591 51.6572 149.661 52.3401C149.732 53.0449 149.783 53.7061 149.813 54.3235L153.561 108.072H151.748L147.998 54.0779C147.94 53.5698 147.876 53.0358 147.805 52.4713C147.734 51.9068 147.595 51.626 147.395 51.626C147.165 51.626 146.986 51.922 146.857 52.514C146.729 53.106 146.635 53.6273 146.576 54.0779L139.38 102.248C139.265 103.037 139.143 103.826 139.014 104.614C138.886 105.403 138.734 106.121 138.558 106.769C138.427 107.325 138.201 107.854 137.89 108.333C137.779 108.515 137.622 108.665 137.436 108.769C137.25 108.872 137.04 108.926 136.827 108.925C136.051 108.925 135.506 108.263 135.19 106.941C134.874 105.619 134.57 104.056 134.278 102.251L127.056 54.0779C126.999 53.5698 126.905 53.0358 126.798 52.4713C126.692 51.9068 126.51 51.626 126.28 51.626C126.08 51.626 125.943 51.9098 125.872 52.4713C125.8 53.0327 125.735 53.5698 125.677 54.0779L121.929 108.079H120.118L123.867 54.3311Z" fill="#E30613" stroke="#E30613" stroke-miterlimit="10"/>
<path d="M110.152 81.9342C110.152 80.9171 110.17 79.8216 110.205 78.6478C110.239 77.4844 110.38 76.3267 110.624 75.189C110.871 74.0514 111.253 72.9479 111.763 71.9026C112.304 70.8147 113.069 69.8547 114.007 69.0861C114.652 68.5435 115.395 68.1321 116.197 67.8747C117.759 67.3803 119.435 67.3803 120.998 67.8747C121.799 68.1328 122.543 68.5441 123.188 69.0861C124.125 69.8547 124.89 70.8148 125.43 71.9026C125.94 72.9479 126.322 74.0514 126.569 75.189C126.814 76.3266 126.955 77.4844 126.99 78.6478C127.025 79.8165 127.042 80.912 127.041 81.9342V102.589H125.569V85.7379H113.025V83.8551H125.569V81.9342C125.569 80.8154 125.546 79.7199 125.5 78.6478C125.459 77.628 125.33 76.6136 125.114 75.6162C124.911 74.6803 124.587 73.7751 124.151 72.9233C123.702 72.0623 123.089 71.2983 122.347 70.6744C121.82 70.2323 121.213 69.8966 120.559 69.6857C119.28 69.2911 117.913 69.2911 116.634 69.6857C115.981 69.8966 115.374 70.2323 114.848 70.6744C114.109 71.2901 113.494 72.0427 113.038 72.8913C112.596 73.7408 112.272 74.6468 112.075 75.5842C111.86 76.5844 111.731 77.6012 111.689 78.6234C111.641 79.6772 111.618 80.7808 111.619 81.9342V102.589H110.152V81.9342Z" fill="white" stroke="white" stroke-width="2" stroke-miterlimit="10"/>
<path d="M133.279 102.589V79.4624C133.279 77.0578 133.519 75.0815 133.997 73.5334C134.476 71.9853 135.084 70.7647 135.82 69.8717C136.556 68.9827 137.374 68.3648 138.273 68.0179C139.095 67.6876 139.97 67.5118 140.855 67.4992C142.009 67.477 143.145 67.7856 144.131 68.3887C145.087 68.9915 145.895 69.8023 146.497 70.7612C147.151 71.8059 147.636 72.9481 147.934 74.1452C148.265 75.4454 148.43 76.7824 148.425 78.1243C148.428 79.4716 148.275 80.8146 147.969 82.1263C147.703 83.3195 147.228 84.4559 146.567 85.4829C145.949 86.4267 145.122 87.2133 144.149 87.7806C143.168 88.3573 142 88.6457 140.645 88.6457H136.046V86.7752H140.638C141.108 86.7529 141.576 86.7019 142.04 86.6226C142.716 86.5209 143.417 86.2 144.142 85.6599C144.867 85.1198 145.503 84.2796 146.051 83.1394C146.599 82.0022 146.873 80.3961 146.874 78.3211C146.896 77.0034 146.731 75.6893 146.383 74.4183C146.113 73.4141 145.662 72.4679 145.053 71.6262C144.543 70.9297 143.884 70.3563 143.126 69.9479C142.412 69.5719 141.618 69.3765 140.812 69.3789C140.078 69.3856 139.352 69.537 138.675 69.8244C137.951 70.1254 137.303 70.6615 136.731 71.4325C136.159 72.2035 135.686 73.242 135.311 74.548C134.942 75.8489 134.757 77.5038 134.757 79.5127V102.589H133.279Z" fill="white" stroke="white" stroke-width="2" stroke-miterlimit="10"/>
<path d="M151.43 67.998H166.848V69.8762H159.875V102.589H158.403V69.8762H151.43V67.998Z" fill="white" stroke="white" stroke-width="2" stroke-miterlimit="10"/>
<path d="M159.196 63.6492C161.058 63.6492 162.568 62.1328 162.568 60.2621C162.568 58.3915 161.058 56.875 159.196 56.875C157.334 56.875 155.824 58.3915 155.824 60.2621C155.824 62.1328 157.334 63.6492 159.196 63.6492Z" fill="#E30613"/>
<path d="M110.152 81.9327C110.152 80.9155 110.17 79.8201 110.205 78.6463C110.239 77.4829 110.38 76.3251 110.624 75.1875C110.871 74.0499 111.253 72.9465 111.763 71.9011C112.304 70.8134 113.069 69.8535 114.007 69.0846C114.652 68.5424 115.396 68.1315 116.197 67.8747C117.759 67.3803 119.434 67.3803 120.996 67.8747C121.798 68.1315 122.541 68.5424 123.186 69.0846C124.124 69.8539 124.888 70.8137 125.43 71.9011C125.94 72.9465 126.322 74.0499 126.569 75.1875C126.814 76.3251 126.955 77.4829 126.99 78.6463C127.025 79.816 127.042 80.9115 127.041 81.9327V102.588H125.569V85.7379H113.025V83.8551H125.569V81.9327C125.569 80.8138 125.546 79.7184 125.5 78.6463C125.459 77.6269 125.33 76.6131 125.114 75.6162C124.911 74.6799 124.587 73.7742 124.151 72.9218C123.701 72.0615 123.088 71.2981 122.347 70.6744C121.82 70.2323 121.213 69.8966 120.559 69.6857C119.28 69.2911 117.913 69.2911 116.634 69.6857C115.981 69.8969 115.374 70.2326 114.847 70.6744C114.109 71.2903 113.495 72.0423 113.038 72.8897C112.597 73.7394 112.273 74.6453 112.075 75.5826C111.86 76.5829 111.731 77.5996 111.689 78.6219C111.641 79.6767 111.618 80.7803 111.619 81.9327V102.588H110.152V81.9327Z" fill="#1D1D1B"/>
<path d="M133.279 102.587V79.462C133.279 77.0575 133.519 75.0807 133.997 73.5316C134.476 71.9824 135.084 70.7619 135.82 69.8698C136.556 68.9808 137.374 68.3629 138.273 68.0161C139.094 67.6849 139.97 67.5091 140.855 67.4973C142.009 67.4741 143.146 67.7827 144.131 68.3868C145.087 68.9894 145.895 69.8002 146.496 70.7593C147.151 71.8031 147.637 72.9456 147.933 74.1434C148.264 75.4428 148.429 76.7795 148.423 78.1209C148.427 79.4687 148.274 80.8122 147.968 82.1244C147.701 83.3175 147.226 84.4538 146.566 85.481C145.947 86.4245 145.12 87.211 144.148 87.7788C143.167 88.3555 141.999 88.6439 140.644 88.6439H136.046V86.7748H140.638C141.107 86.7526 141.575 86.7016 142.038 86.6223C142.716 86.5206 143.417 86.1991 144.142 85.658C144.867 85.1169 145.503 84.2772 146.051 83.139C146.599 82.0019 146.873 80.3958 146.874 78.3208C146.896 77.0026 146.731 75.6879 146.383 74.4165C146.113 73.4122 145.662 72.4661 145.053 71.6244C144.542 70.929 143.883 70.3558 143.126 69.9461C142.412 69.5705 141.618 69.3756 140.812 69.3785C140.078 69.3852 139.352 69.536 138.675 69.8225C137.951 70.1246 137.303 70.6612 136.731 71.4322C136.159 72.2032 135.686 73.2417 135.311 74.5477C134.942 75.8466 134.757 77.501 134.757 79.5109V102.587H133.279Z" fill="#1D1D1B"/>
<path d="M151.429 67.998H166.848V69.8762H159.875V102.588H158.403V69.8762H151.429V67.998Z" fill="#1D1D1B"/>
</g>
<defs>
<clipPath id="clip0_965_3154">
<rect width="57" height="61" fill="white" transform="translate(110 48)"/>
</clipPath>
</defs>
</svg>
