<svg width="278" height="198" viewBox="0 0 278 198" fill="none" xmlns="http://www.w3.org/2000/svg">
<path d="M82.8456 87.4555H80.1073L80.0831 79.3848L75.3211 87.4555H72.3651L67.6005 79.6493L67.5763 87.4555H64.8379V75.1367L64.7896 75.0664H67.5521L73.8136 85.0835L79.9621 75.0664H82.8456V87.4555Z" fill="black"/>
<path d="M101.318 82.8671H95.2421L92.5843 87.4521H89.8218L96.9566 75.0547H99.7192L106.626 87.4521H103.871L101.318 82.8671ZM100.284 81.0075L98.3271 77.4949L96.3009 81.0075H100.284Z" fill="black"/>
<path d="M120.757 87.6664C116.457 87.6664 113.136 84.8522 113.136 81.3644C113.136 77.8766 116.452 75.0645 120.988 75.0645C124.971 75.0645 127.779 77.1864 128.561 80.2858H125.728C125.108 78.5151 123.474 77.2237 120.964 77.2237C117.97 77.2237 115.922 79.0626 115.922 81.3561C115.922 83.6497 117.97 85.4989 120.964 85.4989C123.495 85.4989 125.223 84.1703 125.822 82.3644H128.561C127.962 85.3109 125.006 87.6664 120.757 87.6664Z" fill="black"/>
<path d="M149.963 77.0899H144.207V87.4438H141.469L141.444 77.0899H135.667V75.0547H149.963V77.0899Z" fill="black"/>
<path d="M160.812 77.1147V79.8938H169.903V81.9291H160.812V85.4168H170.363V87.4521H158.07L158.049 75.0547H160.812V75.0712L170.363 75.0547V77.1064L160.812 77.1147Z" fill="black"/>
<path d="M192.655 78.3896C192.655 80.0178 191.366 81.9291 188.028 81.9291H181.328V87.4521H178.59L178.565 75.0547H181.328V75.0712L188.028 75.0547C191.481 75.0629 192.655 76.6726 192.655 78.3896ZM189.892 78.4599C189.892 77.6334 189.132 77.1147 187.474 77.1147H181.326V79.8938H187.474C189.132 79.8938 189.892 79.4516 189.892 78.4599Z" fill="black"/>
<path d="M207.765 82.8671H201.694L199.048 87.4521H196.285L203.423 75.0547H206.185L213.092 87.4521H210.321L207.765 82.8671ZM206.728 81.0075L204.772 77.4949L202.745 81.0075H206.728Z" fill="black"/>
</svg>
