<svg width="278" height="198" viewBox="0 0 278 198" fill="none" xmlns="http://www.w3.org/2000/svg">
<g clip-path="url(#clip0_1253_3278)">
<path d="M108.442 88.7702V73.7578H112.938L117.437 78.8622L121.6 73.7578H125.964V88.7702H120.969V81.3966L117.335 85.5678H117.236L113.437 81.3966V88.7702H108.442Z" fill="#5F3428"/>
<path d="M128.062 81.2639C128.062 78.9616 128.828 77.0928 130.328 75.5934C131.861 74.0917 133.892 73.3574 136.39 73.3574C138.888 73.3574 140.92 74.0917 142.419 75.5934C143.952 77.0951 144.718 78.9616 144.718 81.2639C144.718 83.5662 143.952 85.4351 142.419 86.9344C140.92 88.4361 138.888 89.1704 136.39 89.1704C133.892 89.1704 131.858 88.4361 130.328 86.9344C128.828 85.4327 128.062 83.5639 128.062 81.2639ZM136.39 84.4995C138.122 84.4995 139.389 83.2654 139.389 81.2639C139.389 79.3619 138.091 78.0284 136.39 78.0284C134.692 78.0284 133.391 79.2956 133.391 81.2639C133.391 83.1328 134.656 84.4995 136.39 84.4995Z" fill="#5F3428"/>
<path d="M151.814 88.7707H146.816V73.7584H151.814V81.5985L157.146 73.7584H162.144V88.7707H157.146V80.9306L151.814 88.7707ZM153.215 66.418C153.215 67.7183 153.68 68.3531 154.615 68.3531C155.447 68.3531 155.88 67.7183 155.88 66.418H160.211C160.211 69.7198 158.212 72.0885 154.615 72.0885C150.717 72.0885 148.886 69.7862 148.886 66.418H153.217H153.215Z" fill="#5F3428"/>
<path d="M82.0924 87.2021C81.5602 87.9364 80.9263 88.4362 80.16 88.7038C79.3936 88.9715 78.4617 89.2036 77.3618 89.3718C76.262 89.5376 75.2969 89.8384 74.4644 90.2055C72.1984 91.2406 70.933 93.6424 70.6657 97.4441H70.7319C71.697 95.3431 74.1308 93.9409 76.6617 93.9409C80.9263 93.9409 83.6251 96.8756 83.6251 101.414C83.6251 103.548 82.8919 105.384 81.4585 106.885C80.0252 108.387 78.1613 109.121 75.9285 109.121C73.4969 109.121 71.5645 108.288 70.1311 106.62C68.6978 104.953 68 102.683 68 99.7819C68 93.2777 69.8662 89.2391 73.5632 87.6711C74.462 87.2708 75.4625 87.0032 76.4938 86.8374C78.5918 86.4702 79.7579 86.2713 80.6591 85.1035L82.0924 87.2045V87.2021ZM75.8622 106.618C77.2956 106.618 78.4948 106.118 79.3936 105.149C80.3256 104.183 80.7939 102.982 80.7939 101.547C80.7939 98.51 79.027 96.4421 75.9971 96.4421C74.6654 96.4421 73.5324 96.8093 72.5981 97.5767C71.6662 98.3442 71.0654 99.2442 70.8336 100.279C70.8336 104.117 72.8985 106.618 75.8646 106.618H75.8622Z" fill="#5F3428"/>
<path d="M88.6867 108.788H86.021V93.7754H88.6867V104.951L97.3484 93.7754H100.014V108.788H97.3484V97.6102L88.6867 108.788Z" fill="#5F3428"/>
<path d="M104.778 108.553C103.546 108.153 102.68 107.653 102.179 107.085L103.543 105.083C104.743 106.05 106.609 106.718 107.974 106.718C110.273 106.718 111.905 105.716 111.905 104.249C111.905 103.015 110.805 102.314 108.974 102.314H106.443V100.145H108.809C110.308 100.145 111.408 99.2114 111.408 98.0105C111.408 96.677 110.176 95.8432 108.21 95.8432C106.611 95.8432 105.112 96.4093 103.714 97.5107L102.68 95.4429C103.879 94.2088 106.212 93.4414 108.61 93.4414C112.208 93.4414 114.239 94.9763 114.239 97.4776C114.239 99.2114 113.374 100.379 111.607 101.014V101.08C113.605 101.315 114.738 102.781 114.738 104.617C114.738 107.386 112.139 109.119 108.376 109.119C107.21 109.119 106.01 108.918 104.778 108.553Z" fill="#5F3428"/>
<path d="M128.363 108.788V102.449H120.034V108.788H117.369V93.7754H120.034V99.9457H128.363V93.7754H131.028V108.788H128.363Z" fill="#5F3428"/>
<path d="M147.086 107.153C145.652 108.453 143.756 109.121 141.456 109.121C139.025 109.121 137.092 108.42 135.626 106.987C134.16 105.552 133.426 103.652 133.426 101.284C133.426 99.0144 134.126 97.1479 135.491 95.6793C136.856 94.1776 138.755 93.4434 141.154 93.4434C143.119 93.4434 144.784 94.0782 146.118 95.3785C147.45 96.6457 148.117 98.2801 148.117 100.317C148.117 101.018 148.051 101.618 147.952 102.12H136.425C136.66 104.922 138.691 106.622 141.655 106.622C143.621 106.622 145.153 106.089 146.253 105.054L147.086 107.155V107.153ZM136.26 99.9476H145.354C145.222 97.4463 143.588 95.9446 141.024 95.9446C138.358 95.9446 136.56 97.579 136.26 99.9476Z" fill="#5F3428"/>
<path d="M162.908 106.618C161.675 108.219 159.509 109.119 157.143 109.119C154.745 109.119 152.813 108.418 151.313 106.985C149.847 105.55 149.113 103.65 149.113 101.282C149.113 99.0787 149.847 97.2123 151.28 95.7106C152.713 94.2088 154.544 93.4414 156.711 93.4414C159.343 93.4414 161.309 94.1094 162.607 95.4097L161.375 97.5107C160.242 96.4756 158.811 95.9427 157.077 95.9427C155.677 95.9427 154.478 96.4425 153.447 97.4776C152.448 98.4795 151.947 99.7467 151.947 101.282C151.947 102.883 152.446 104.183 153.48 105.152C154.513 106.118 155.812 106.62 157.345 106.62C159.076 106.62 160.509 105.986 161.642 104.685L162.908 106.62V106.618Z" fill="#5F3428"/>
<path d="M194.004 113.532L188.999 108.527L183.992 113.532L188.997 123.999L194.004 113.532Z" fill="#E84D37"/>
<path d="M188.975 79.7344C187.055 79.7344 185.496 81.2929 185.496 83.2186C185.496 85.142 187.055 86.7029 188.975 86.7029C190.896 86.7029 192.455 85.1443 192.455 83.2186C192.455 81.2953 190.898 79.7344 188.975 79.7344Z" fill="#CE9C6B"/>
<path d="M188.999 64.1016C187.939 64.6463 174.093 71.9725 174.093 83.6807C174.093 93.6952 182.244 108.885 182.244 108.885L189.001 102.109L195.759 108.885C195.759 108.885 203.91 93.6952 203.91 83.6807C203.91 71.9725 190.061 64.644 189.001 64.1016H188.999ZM193.46 97.5348L188.999 93.0604L184.538 97.5348C184.311 96.9142 181.321 88.8135 181.321 83.5267C181.321 76.3971 188.462 72.4012 188.999 72.1099C189.536 72.4036 196.677 76.3971 196.677 83.5267C196.677 88.8135 193.689 96.9142 193.46 97.5348Z" fill="#CE9C6B"/>
<path d="M203.905 69.2041L198.81 64.102L203.905 59L209 64.102L203.905 69.2041Z" fill="#CE9C6B"/>
</g>
<defs>
<clipPath id="clip0_1253_3278">
<rect width="141" height="65" fill="white" transform="translate(68 59)"/>
</clipPath>
</defs>
</svg>
