<svg width="278" height="198" viewBox="0 0 278 198" fill="none" xmlns="http://www.w3.org/2000/svg">
<path d="M93.3523 105.724C93.3523 105.651 93.3401 105.568 93.3156 105.473C93.2912 105.379 93.2454 105.29 93.1812 105.201C93.117 105.116 93.0315 105.039 92.9276 104.978C92.8237 104.917 92.6923 104.887 92.5334 104.887C92.3745 104.887 92.2401 104.914 92.1331 104.969C92.0262 105.024 91.9376 105.091 91.8673 105.174C91.8001 105.256 91.7481 105.348 91.7145 105.446C91.6809 105.544 91.6656 105.635 91.6656 105.721V108.514C91.6656 108.804 91.7329 109.039 91.8673 109.229C92.0017 109.418 92.2217 109.51 92.5334 109.51C92.7565 109.51 92.952 109.436 93.114 109.293C93.2759 109.149 93.3584 108.951 93.3584 108.697V105.718L93.3523 105.724ZM94.9351 108.593C94.9351 108.969 94.877 109.305 94.7579 109.607C94.6387 109.907 94.4737 110.164 94.2598 110.377C94.0459 110.591 93.7954 110.753 93.502 110.866C93.2087 110.979 92.8879 111.034 92.5334 111.034C92.0995 111.034 91.7298 110.967 91.4242 110.83C91.1187 110.692 90.8651 110.506 90.6726 110.274C90.477 110.038 90.3334 109.766 90.2448 109.455C90.1562 109.146 90.1104 108.819 90.1104 108.48V105.794C90.1104 105.513 90.1531 105.229 90.2417 104.945C90.3273 104.661 90.4679 104.401 90.6634 104.169C90.859 103.936 91.1095 103.747 91.4151 103.6C91.7206 103.454 92.0965 103.377 92.5365 103.377C92.949 103.377 93.3065 103.447 93.609 103.588C93.9115 103.729 94.162 103.912 94.3576 104.141C94.5531 104.37 94.6998 104.627 94.7976 104.917C94.8954 105.204 94.9442 105.498 94.9442 105.794V108.599L94.9351 108.593ZM98.4337 109.513C98.724 109.513 98.9379 109.43 99.0784 109.265C99.219 109.1 99.2892 108.874 99.2892 108.593C99.2892 108.269 99.2129 108.04 99.0601 107.912C98.9073 107.78 98.6965 107.716 98.4215 107.716H97.5537V109.513H98.4306H98.4337ZM95.9862 110.964V103.426H100.209V104.877H97.5567V106.252H98.5101C98.9073 106.252 99.2526 106.311 99.549 106.427C99.8453 106.543 100.09 106.702 100.279 106.903C100.472 107.105 100.612 107.349 100.707 107.634C100.802 107.918 100.848 108.226 100.848 108.559C100.848 108.963 100.793 109.317 100.68 109.617C100.566 109.916 100.408 110.167 100.203 110.365C99.9981 110.564 99.7476 110.714 99.4542 110.814C99.1609 110.915 98.8401 110.967 98.4856 110.967H95.9831L95.9862 110.964ZM108.593 110.964H101.694V103.426H103.265V109.525H104.618V103.426H106.189V109.525H107.542V103.426H109.101V109.534H109.892V112.556H108.593V110.964ZM110.738 110.964V103.426H115.126V104.877H112.309V106.436H114.735V107.875H112.309V109.479H115.126V110.961H110.738V110.964ZM120.648 109.155C120.541 109.739 120.272 110.2 119.847 110.53C119.422 110.863 118.903 111.028 118.289 111.028C117.855 111.028 117.485 110.961 117.18 110.824C116.874 110.686 116.623 110.5 116.434 110.264C116.241 110.029 116.101 109.757 116.012 109.446C115.921 109.137 115.878 108.81 115.878 108.471V105.785C115.878 105.504 115.921 105.22 116.009 104.936C116.095 104.651 116.235 104.392 116.425 104.162C116.614 103.933 116.865 103.741 117.173 103.594C117.479 103.447 117.855 103.371 118.295 103.371C118.64 103.371 118.952 103.423 119.227 103.527C119.502 103.631 119.737 103.771 119.93 103.946C120.125 104.12 120.284 104.318 120.406 104.547C120.528 104.774 120.617 105.012 120.666 105.256L119.184 105.699C119.169 105.626 119.147 105.544 119.114 105.446C119.08 105.348 119.028 105.259 118.955 105.18C118.881 105.101 118.793 105.03 118.683 104.975C118.576 104.917 118.445 104.89 118.292 104.89C118.133 104.89 117.998 104.917 117.891 104.972C117.785 105.027 117.696 105.094 117.632 105.177C117.568 105.259 117.519 105.351 117.491 105.446C117.464 105.544 117.448 105.635 117.448 105.724V108.517C117.448 108.804 117.513 109.045 117.638 109.232C117.763 109.418 117.983 109.513 118.292 109.513C118.509 109.513 118.698 109.442 118.866 109.302C119.031 109.161 119.129 108.969 119.16 108.724L120.654 109.158L120.648 109.155ZM124.189 104.856V110.964H122.631V104.856H121.017V103.426H125.805V104.856H124.192H124.189ZM132.442 110.964V103.426H136.83V104.877H134.013V106.436H136.439V107.875H134.013V109.479H136.83V110.961H132.442V110.964ZM129.82 108.581C129.82 108.327 129.756 108.126 129.631 107.976C129.506 107.823 129.301 107.747 129.02 107.747H128.143V109.479H129.011C129.322 109.479 129.533 109.394 129.649 109.219C129.765 109.045 129.823 108.834 129.823 108.581M129.726 105.602C129.726 105.348 129.665 105.162 129.542 105.039C129.42 104.917 129.209 104.856 128.916 104.856H128.146V106.384H128.925C129.215 106.384 129.42 106.311 129.542 106.167C129.665 106.023 129.726 105.834 129.726 105.605M131.351 108.669C131.351 109.039 131.296 109.363 131.189 109.65C131.082 109.934 130.93 110.176 130.734 110.371C130.538 110.567 130.303 110.714 130.031 110.814C129.756 110.915 129.454 110.967 129.121 110.967H126.575V103.429H129.014C129.75 103.429 130.309 103.619 130.691 103.991C131.073 104.367 131.266 104.887 131.266 105.553C131.266 105.834 131.195 106.115 131.061 106.393C130.923 106.671 130.694 106.876 130.38 107.004V107.059C130.554 107.117 130.7 107.203 130.823 107.319C130.945 107.435 131.046 107.566 131.125 107.713C131.205 107.86 131.263 108.019 131.299 108.184C131.336 108.349 131.354 108.511 131.354 108.669M141.025 110.964V107.866H139.314V110.964H137.743V103.426H139.314V106.436H141.025V103.426H142.574V110.964H141.025ZM147.167 110.964V107.866H145.456V110.964H143.885V103.426H145.456V106.436H147.167V103.426H148.716V110.964H147.167ZM153.101 105.724C153.101 105.651 153.088 105.568 153.064 105.473C153.04 105.379 152.994 105.29 152.93 105.201C152.865 105.116 152.78 105.039 152.676 104.978C152.572 104.917 152.438 104.887 152.282 104.887C152.126 104.887 151.988 104.914 151.881 104.969C151.775 105.024 151.686 105.091 151.616 105.174C151.545 105.256 151.496 105.348 151.463 105.446C151.429 105.544 151.414 105.635 151.414 105.721V108.514C151.414 108.804 151.481 109.039 151.616 109.229C151.75 109.418 151.97 109.51 152.282 109.51C152.505 109.51 152.7 109.436 152.862 109.293C153.024 109.149 153.107 108.951 153.107 108.697V105.718L153.101 105.724ZM154.683 108.593C154.683 108.969 154.622 109.305 154.506 109.607C154.387 109.907 154.222 110.164 154.008 110.377C153.794 110.591 153.544 110.753 153.25 110.866C152.957 110.979 152.636 111.034 152.282 111.034C151.848 111.034 151.478 110.967 151.173 110.83C150.864 110.692 150.613 110.506 150.421 110.274C150.225 110.038 150.082 109.766 149.993 109.455C149.901 109.146 149.859 108.819 149.859 108.48V105.794C149.859 105.513 149.901 105.229 149.99 104.945C150.076 104.661 150.216 104.401 150.412 104.169C150.607 103.936 150.858 103.747 151.163 103.6C151.469 103.454 151.845 103.377 152.285 103.377C152.697 103.377 153.055 103.447 153.357 103.588C153.66 103.729 153.91 103.912 154.103 104.141C154.298 104.37 154.445 104.627 154.543 104.917C154.641 105.204 154.69 105.498 154.69 105.794V108.599L154.683 108.593ZM155.832 110.964V103.426H160.22V104.877H157.403V106.436H159.829V107.875H157.403V109.479H160.22V110.961H155.832V110.964ZM93.2881 117.598V123.706H91.7298V117.598H90.1165V116.168H94.9045V117.598H93.2912H93.2881ZM105.874 116.168V123.706H104.325V117.631H103.048V119.96C103.048 120.51 103.023 121.008 102.971 121.454C102.922 121.903 102.815 122.291 102.656 122.624C102.498 122.957 102.271 123.229 101.981 123.443C101.688 123.657 101.3 123.797 100.817 123.871L100.45 122.636C100.731 122.542 100.951 122.422 101.104 122.273C101.26 122.126 101.376 121.946 101.456 121.738C101.535 121.527 101.584 121.28 101.602 120.996C101.621 120.711 101.63 120.381 101.63 120.006V116.171H105.877L105.874 116.168ZM95.6715 123.706V116.168H100.056V117.619H97.242V119.177H99.6681V120.617H97.242V122.221H100.056V123.706H95.6715ZM115.817 121.322C115.817 121.069 115.753 120.867 115.627 120.717C115.499 120.565 115.297 120.488 115.016 120.488H114.139V122.221H115.007C115.319 122.221 115.53 122.135 115.646 121.961C115.762 121.787 115.82 121.576 115.82 121.322M115.722 118.343C115.722 118.09 115.661 117.903 115.539 117.781C115.416 117.659 115.206 117.598 114.909 117.598H114.139V119.126H114.918C115.206 119.126 115.413 119.052 115.536 118.909C115.658 118.765 115.719 118.576 115.719 118.346M117.345 121.411C117.345 121.778 117.29 122.108 117.183 122.392C117.076 122.676 116.923 122.917 116.727 123.113C116.532 123.309 116.296 123.455 116.025 123.556C115.75 123.657 115.447 123.709 115.114 123.709H112.569V116.171H115.007C115.743 116.171 116.303 116.36 116.685 116.733C117.066 117.109 117.259 117.628 117.259 118.294C117.259 118.576 117.189 118.857 117.054 119.135C116.917 119.413 116.691 119.617 116.373 119.746V119.801C116.547 119.859 116.694 119.944 116.816 120.061C116.938 120.177 117.039 120.308 117.118 120.455C117.198 120.601 117.256 120.76 117.293 120.925C117.329 121.09 117.348 121.252 117.348 121.411M107.264 123.709V116.171H111.652V117.622H108.835V119.181H111.261V120.62H108.835V122.224H111.652V123.709H107.264ZM121.992 123.709V119.605H121.98L119.878 123.709H118.405V116.171H119.963V120.546H119.985L122.139 116.171H123.556V123.709H121.986H121.992ZM127.049 119.559C127.034 119.798 127.021 120.045 127.012 120.305C127 120.565 126.982 120.815 126.951 121.06C126.924 121.301 126.881 121.527 126.826 121.741C126.771 121.955 126.701 122.132 126.615 122.276H128.565V117.631H127.135L127.049 119.559ZM125.631 123.709V125.292H124.333V122.377L124.971 122.248C125.124 122.089 125.24 121.912 125.323 121.717C125.405 121.521 125.469 121.304 125.512 121.063C125.555 120.821 125.585 120.546 125.598 120.244C125.613 119.941 125.631 119.596 125.653 119.214L125.793 116.171H130.105V122.279H130.777V125.292H129.478V123.709H125.634H125.631ZM131.739 123.709V116.171H136.127V117.622H133.313V119.181H135.739V120.62H133.313V122.224H136.127V123.709H131.739ZM140.316 123.709V120.611H138.605V123.709H137.035V116.171H138.605V119.181H140.316V116.171H141.865V123.709H140.316ZM146.739 123.709V119.605H146.73L144.628 123.709H143.155V116.171H144.713V120.546H144.735L146.889 116.171H148.306V123.709H146.736H146.739ZM149.578 123.709V116.171H153.965V117.622H151.148V119.181H153.574V120.62H151.148V122.224H153.965V123.709H149.578ZM94.8556 131.372C94.8556 131.048 94.7762 130.813 94.6173 130.672C94.4584 130.532 94.2415 130.462 93.9665 130.462H93.1445V132.335H93.9787C94.2109 132.335 94.4126 132.261 94.5898 132.118C94.767 131.974 94.8556 131.724 94.8556 131.369M96.3926 131.391C96.3926 131.751 96.3376 132.081 96.2306 132.377C96.1237 132.674 95.9679 132.927 95.7662 133.135C95.5645 133.346 95.317 133.508 95.0298 133.621C94.7426 133.737 94.4156 133.795 94.0551 133.795H93.1445V136.545H91.574V129.007H93.9665C94.3209 129.007 94.6479 129.056 94.9473 129.148C95.2467 129.242 95.5034 129.386 95.7173 129.582C95.9312 129.777 96.0962 130.025 96.2154 130.324C96.3345 130.624 96.3956 130.978 96.3956 131.391M100.261 131.305C100.261 131.232 100.249 131.149 100.224 131.054C100.2 130.96 100.154 130.871 100.09 130.782C100.026 130.697 99.9401 130.624 99.8362 130.559C99.7323 130.498 99.5979 130.468 99.442 130.468C99.2862 130.468 99.1487 130.495 99.0417 130.55C98.9348 130.605 98.8462 130.672 98.7759 130.755C98.7056 130.837 98.6567 130.929 98.6231 131.027C98.5895 131.125 98.5742 131.216 98.5742 131.302V134.095C98.5742 134.385 98.6415 134.62 98.7759 134.81C98.9104 134.999 99.1304 135.091 99.442 135.091C99.6651 135.091 99.8606 135.017 100.023 134.874C100.185 134.73 100.267 134.532 100.267 134.278V131.299L100.261 131.305ZM101.844 134.174C101.844 134.55 101.783 134.889 101.666 135.189C101.547 135.488 101.382 135.745 101.168 135.959C100.955 136.172 100.704 136.334 100.411 136.444C100.117 136.557 99.7965 136.612 99.442 136.612C99.0081 136.612 98.6384 136.545 98.3329 136.408C98.0273 136.27 97.7737 136.084 97.5812 135.852C97.3856 135.616 97.242 135.344 97.1534 135.033C97.0648 134.724 97.019 134.397 97.019 134.058V131.372C97.019 131.091 97.0617 130.807 97.1504 130.523C97.2359 130.239 97.3765 129.979 97.572 129.747C97.7676 129.514 98.0181 129.325 98.3237 129.178C98.6292 129.032 99.0051 128.955 99.4451 128.955C99.8576 128.955 100.215 129.026 100.518 129.166C100.82 129.307 101.071 129.49 101.266 129.719C101.462 129.948 101.608 130.205 101.706 130.495C101.804 130.782 101.853 131.076 101.853 131.372V134.177L101.844 134.174ZM107.594 134.736C107.487 135.32 107.218 135.781 106.794 136.111C106.369 136.444 105.85 136.609 105.235 136.609C104.801 136.609 104.432 136.542 104.126 136.405C103.821 136.267 103.57 136.081 103.381 135.846C103.188 135.61 103.048 135.338 102.959 135.027C102.867 134.718 102.825 134.391 102.825 134.052V131.366C102.825 131.085 102.867 130.801 102.953 130.517C103.038 130.232 103.179 129.973 103.371 129.744C103.561 129.514 103.811 129.322 104.12 129.175C104.426 129.029 104.801 128.952 105.241 128.952C105.587 128.952 105.898 129.004 106.173 129.108C106.448 129.212 106.684 129.352 106.876 129.524C107.072 129.698 107.231 129.896 107.353 130.126C107.475 130.352 107.564 130.59 107.613 130.834L106.128 131.277C106.112 131.204 106.091 131.122 106.057 131.024C106.024 130.926 105.972 130.837 105.898 130.758C105.825 130.679 105.736 130.611 105.626 130.553C105.52 130.495 105.388 130.468 105.235 130.468C105.083 130.468 104.942 130.495 104.835 130.55C104.728 130.605 104.64 130.672 104.575 130.755C104.511 130.837 104.465 130.929 104.435 131.024C104.407 131.122 104.392 131.213 104.392 131.302V134.095C104.392 134.382 104.456 134.623 104.581 134.81C104.707 134.996 104.927 135.091 105.235 135.091C105.452 135.091 105.642 135.021 105.81 134.88C105.975 134.739 106.073 134.547 106.103 134.302L107.597 134.736H107.594ZM113.161 134.736C113.055 135.32 112.786 135.781 112.361 136.111C111.936 136.444 111.417 136.609 110.803 136.609C110.369 136.609 109.999 136.542 109.693 136.405C109.388 136.267 109.137 136.081 108.948 135.846C108.755 135.61 108.615 135.338 108.526 135.027C108.435 134.718 108.389 134.391 108.389 134.052V131.366C108.389 131.085 108.431 130.801 108.52 130.517C108.606 130.232 108.746 129.973 108.936 129.744C109.128 129.514 109.376 129.322 109.684 129.175C109.99 129.029 110.366 128.952 110.806 128.952C111.151 128.952 111.463 129.004 111.738 129.108C112.013 129.212 112.248 129.352 112.443 129.524C112.639 129.698 112.798 129.896 112.92 130.126C113.042 130.352 113.128 130.59 113.18 130.834L111.698 131.277C111.683 131.204 111.661 131.122 111.628 131.024C111.594 130.926 111.542 130.837 111.469 130.758C111.395 130.679 111.307 130.611 111.197 130.553C111.09 130.495 110.958 130.468 110.809 130.468C110.65 130.468 110.515 130.495 110.408 130.55C110.298 130.605 110.213 130.672 110.149 130.755C110.085 130.837 110.036 130.929 110.008 131.024C109.981 131.122 109.965 131.213 109.965 131.302V134.095C109.965 134.382 110.03 134.623 110.155 134.81C110.28 134.996 110.5 135.091 110.812 135.091C111.029 135.091 111.218 135.021 111.386 134.88C111.551 134.739 111.649 134.547 111.68 134.302L113.174 134.736H113.161ZM117.678 136.545V132.442H117.665L115.563 136.545H114.09V129.007H115.649V133.383H115.67L117.824 129.007H119.242V136.545H117.671H117.678ZM124.067 136.545V132.442H124.055L121.955 136.545H120.483V129.007H122.041V133.383H122.062L124.216 129.007H125.634V136.545H124.064H124.067Z" fill="#291E4E"/>
<mask id="mask0_1253_3322" style="mask-type:luminance" maskUnits="userSpaceOnUse" x="72" y="40" width="125" height="110">
<path d="M196.667 40H72V150H196.667" fill="white"/>
</mask>
<g mask="url(#mask0_1253_3322)">
<path d="M164.052 59.232H159.52V69.3153H164.052C167.217 69.3153 168.922 67.2192 168.922 64.2981C168.922 61.377 166.78 59.232 164.052 59.232ZM164.684 76.0864H159.52V86.6098H152.214V52.5098H164.684C171.211 52.5098 176.375 57.8692 176.375 64.2981C176.375 70.727 171.211 76.0864 164.684 76.0864Z" fill="#291E4E"/>
<path d="M95.7108 69.5879C95.7108 68.3351 95.9491 67.1343 96.3799 66.0312C92.7347 67.4612 90.1436 71.0149 90.1436 75.1613C90.1436 80.5665 94.5435 84.9665 99.9488 84.9665C104.101 84.9665 107.658 82.3693 109.085 78.7149C107.979 79.1488 106.775 79.3901 105.516 79.3901C100.111 79.3901 95.7108 74.9901 95.7108 69.5849" fill="#E62586"/>
<path d="M123.202 69.587C123.202 59.8337 115.266 51.8984 105.513 51.8984C99.2063 51.8984 93.6666 55.2168 90.5347 60.1973C93.2633 58.474 96.4899 57.4718 99.9488 57.4718C109.702 57.4718 117.637 65.407 117.637 75.1604C117.637 78.607 116.641 81.8276 114.93 84.5501C119.896 81.4151 123.205 75.8815 123.205 69.587" fill="#E62586"/>
<path d="M90.5347 60.1973C85.5694 63.3323 82.2603 68.8659 82.2603 75.1603C82.2603 84.9137 90.1955 92.8489 99.9489 92.8489C106.256 92.8489 111.795 89.5306 114.927 84.55C112.199 86.2734 108.972 87.2756 105.513 87.2756C95.7597 87.2756 87.8244 79.3403 87.8244 69.587C87.8244 66.1403 88.8205 62.9198 90.5316 60.1973" fill="#8BCCF1"/>
<path d="M105.516 59.7812C101.363 59.7812 97.8068 62.3785 96.3799 66.0329C97.486 65.599 98.6899 65.3576 99.9488 65.3576C105.354 65.3576 109.754 69.7576 109.754 75.1629C109.754 76.4157 109.516 77.6165 109.085 78.7165C112.73 77.2865 115.321 73.7329 115.321 69.5865C115.321 64.1812 110.921 59.7812 105.516 59.7812Z" fill="#8BCCF1"/>
<path d="M99.949 84.9685C94.5437 84.9685 90.1438 80.5685 90.1438 75.1632C90.1438 71.0168 92.7318 67.4632 96.3801 66.0332C97.8071 62.3788 101.364 59.7816 105.516 59.7816C110.922 59.7816 115.322 64.1815 115.322 69.5868C115.322 73.7332 112.73 77.2868 109.085 78.7168C107.658 82.3713 104.102 84.9685 99.949 84.9685ZM99.949 57.4746C96.4901 57.4746 93.2635 58.4768 90.5349 60.2002C88.8207 62.9227 87.8276 66.1402 87.8276 69.5899C87.8276 79.3432 95.7629 87.2785 105.516 87.2785C108.975 87.2785 112.202 86.2763 114.93 84.5529C116.645 81.8304 117.638 78.6129 117.638 75.1632C117.638 65.4099 109.702 57.4746 99.949 57.4746Z" fill="#291E4E"/>
<path d="M132.488 59.6231H124.742V52.5098H147.539V59.6231H139.793V86.6098H132.488V59.6231Z" fill="#291E4E"/>
</g>
</svg>
