<svg width="278" height="198" viewBox="0 0 278 198" fill="none" xmlns="http://www.w3.org/2000/svg">
<path d="M66.4935 75.5616H67.8687C68.4089 75.5618 68.9361 75.3976 69.3798 75.0911C69.8234 74.7846 70.1622 74.3506 70.3506 73.8471L73.4949 65.4468V60.8199C73.4943 60.0527 73.1882 59.317 72.6437 58.7735C72.0991 58.2301 71.3604 57.9232 70.589 57.9199H59.2964V58.0123C59.9216 58.1737 60.4752 58.537 60.8703 59.0451C61.2655 59.5533 61.4798 60.1775 61.4796 60.8199V91.9904C61.4793 92.6327 61.2649 93.2567 60.8698 93.7648C60.4747 94.2728 59.9214 94.6362 59.2964 94.798V94.8904H70.589C71.3626 94.8904 72.1045 94.5849 72.6518 94.0412C73.199 93.4974 73.5068 92.7598 73.5075 91.9904V87.3835L70.338 78.9657C70.1524 78.4622 69.8159 78.0275 69.3738 77.7204C68.9317 77.4133 68.4054 77.2486 67.8662 77.2487H66.4935C66.2686 77.2487 66.0528 77.1598 65.8938 77.0016C65.7347 76.8434 65.6453 76.6289 65.6453 76.4051C65.6453 76.1814 65.7347 75.9669 65.8938 75.8087C66.0528 75.6505 66.2686 75.5616 66.4935 75.5616Z" fill="white"/>
<path d="M70.5889 95.0047H59.2963C59.2661 95.0041 59.2374 94.9917 59.2163 94.9702C59.1952 94.9488 59.1834 94.92 59.1834 94.8899V94.7976C59.1832 94.7724 59.1915 94.7479 59.2069 94.728C59.2224 94.7081 59.2442 94.6939 59.2687 94.6878C59.8693 94.5319 60.4009 94.1822 60.7801 93.6935C61.1594 93.2049 61.3648 92.6048 61.3641 91.9875V60.8194C61.3646 60.2024 61.1591 59.6028 60.7799 59.1145C60.4006 58.6262 59.8691 58.277 59.2687 58.1216C59.2442 58.1155 59.2224 58.1013 59.2069 58.0814C59.1915 58.0615 59.1832 58.037 59.1834 58.0118V57.9195C59.183 57.9045 59.1857 57.8897 59.1912 57.8757C59.1968 57.8618 59.205 57.8492 59.2156 57.8385C59.2261 57.8278 59.2386 57.8193 59.2525 57.8135C59.2664 57.8077 59.2813 57.8047 59.2963 57.8047H70.5889C71.3929 57.8053 72.1638 58.1231 72.7326 58.6883C73.3013 59.2534 73.6215 60.0198 73.6228 60.8194V65.4364C73.6255 65.4495 73.6255 65.4631 73.6228 65.4763L70.4609 73.8766C70.2636 74.4026 69.9098 74.8563 69.4467 75.1773C68.9836 75.4983 68.4331 75.6714 67.8686 75.6735H66.4934C66.2984 75.6735 66.1114 75.7505 65.9735 75.8877C65.8356 76.0248 65.7582 76.2108 65.7582 76.4047C65.7582 76.5986 65.8356 76.7846 65.9735 76.9218C66.1114 77.0589 66.2984 77.1359 66.4934 77.1359H67.8686C68.4305 77.1382 68.9784 77.311 69.4389 77.6312C69.8994 77.9514 70.2507 78.4038 70.4458 78.9278L73.6002 87.3431C73.6024 87.3563 73.6024 87.3698 73.6002 87.383V91.9875C73.5996 92.7836 73.2828 93.5473 72.7189 94.1124C72.1549 94.6774 71.3894 94.9982 70.5889 95.0047ZM59.7179 94.7776H70.5889C71.3326 94.7763 72.0454 94.4819 72.5713 93.959C73.0971 93.436 73.3931 92.7271 73.3945 91.9875V87.4055L70.2325 79.0052C70.0542 78.5242 69.7321 78.109 69.3095 77.8154C68.8869 77.5219 68.3841 77.364 67.8686 77.363H66.4934C66.2379 77.363 65.9928 77.2621 65.812 77.0824C65.6313 76.9026 65.5298 76.6589 65.5298 76.4047C65.5298 76.1505 65.6313 75.9068 65.812 75.7271C65.9928 75.5474 66.2379 75.4464 66.4934 75.4464H67.8686C68.3849 75.4452 68.8886 75.2876 69.3127 74.9947C69.7368 74.7018 70.0611 74.2875 70.2426 73.8067L73.3844 65.4164V60.8194C73.3831 60.0818 73.0884 59.3746 72.5646 58.8524C72.0409 58.3301 71.3306 58.0351 70.5889 58.0318H59.7079C60.2626 58.2599 60.7368 58.6465 61.0704 59.1428C61.4041 59.639 61.5823 60.2225 61.5824 60.8194V91.9875C61.5828 92.5849 61.4049 93.1689 61.0711 93.6656C60.7374 94.1623 60.263 94.5494 59.7079 94.7776H59.7179Z" fill="#3C3C3B"/>
<path d="M78.4786 57.9201C77.843 57.92 77.2226 58.1131 76.7006 58.4735C76.1785 58.8339 75.7797 59.3444 75.5576 59.9366L73.4973 65.427L70.353 73.8373C70.1645 74.3408 69.8258 74.7749 69.3822 75.0813C68.9385 75.3878 68.4113 75.552 67.8711 75.5519H80.7622C81.336 75.551 81.8958 75.3762 82.3671 75.0506C82.8383 74.7251 83.1985 74.2644 83.3996 73.73L88.6921 59.6272C88.8225 59.2646 89.0329 58.9357 89.3077 58.6645C89.5826 58.3933 89.915 58.1867 90.2806 58.0599V57.9102L78.4786 57.9201Z" fill="url(#paint0_linear_965_3032)"/>
<path d="M80.7598 75.6735H67.8687C67.8523 75.6759 67.8356 75.6748 67.8196 75.6702C67.8037 75.6656 67.7889 75.6577 67.7764 75.6469C67.7638 75.6361 67.7537 75.6228 67.7468 75.6078C67.7399 75.5928 67.7363 75.5765 67.7363 75.56C67.7363 75.5435 67.7399 75.5272 67.7468 75.5122C67.7537 75.4971 67.7638 75.4838 67.7764 75.473C67.7889 75.4622 67.8037 75.4543 67.8196 75.4497C67.8356 75.4451 67.8523 75.444 67.8687 75.4464C68.3851 75.4452 68.8888 75.2877 69.3128 74.9948C69.7369 74.7019 70.0612 74.2875 70.2427 73.8068L75.4523 59.8961C75.6836 59.2831 76.0971 58.7548 76.6377 58.3812C77.1783 58.0076 77.8204 57.8065 78.4787 57.8047H90.2732C90.2885 57.8044 90.3036 57.8071 90.3178 57.8128C90.3319 57.8184 90.3448 57.8269 90.3556 57.8376C90.3664 57.8483 90.3749 57.8611 90.3806 57.8752C90.3862 57.8893 90.389 57.9043 90.3886 57.9195V58.0693C90.3884 58.0929 90.3808 58.116 90.3669 58.1352C90.3529 58.1544 90.3334 58.1688 90.3109 58.1766C89.9621 58.2992 89.6448 58.4971 89.3819 58.756C89.119 59.0148 88.9169 59.3283 88.7901 59.674L83.5002 73.7793C83.2899 74.3338 82.9153 74.8117 82.426 75.1499C81.9367 75.4882 81.3557 75.6707 80.7598 75.6735ZM68.9654 75.4464H80.7598C81.3099 75.4449 81.8465 75.277 82.2984 74.965C82.7502 74.6529 83.0958 74.2115 83.2894 73.6995L88.5818 59.5966C88.7073 59.249 88.9032 58.9307 89.1574 58.6615C89.4117 58.3924 89.7189 58.178 90.0599 58.0318H78.4787C77.8667 58.0332 77.2697 58.22 76.7671 58.5673C76.2646 58.9146 75.8803 59.406 75.6656 59.9759L70.461 73.8767C70.3307 74.2256 70.1308 74.5447 69.8733 74.8149C69.6159 75.0851 69.3062 75.3007 68.9629 75.4489L68.9654 75.4464Z" fill="#3C3C3B"/>
<path d="M88.6796 93.1678L83.47 79.267C83.2465 78.6756 82.8474 78.1657 82.3257 77.8051C81.804 77.4445 81.1843 77.2502 80.549 77.248H67.8687C68.4075 77.2485 68.9332 77.4134 69.3747 77.7205C69.8163 78.0275 70.1525 78.4619 70.338 78.965L73.4949 87.3829L75.6279 93.0679C75.8284 93.6027 76.1885 94.0638 76.6599 94.3894C77.1312 94.715 77.6914 94.8896 78.2654 94.8897H90.2756V94.74C89.91 94.6102 89.5776 94.4021 89.3018 94.1304C89.026 93.8587 88.8136 93.5301 88.6796 93.1678Z" fill="url(#paint1_linear_965_3032)"/>
<path d="M90.2781 95.0036H78.2678C77.6711 95.0014 77.0892 94.8189 76.5993 94.4801C76.1094 94.1413 75.7347 93.6624 75.525 93.1069L70.2325 79.004C70.0542 78.523 69.7321 78.1078 69.3095 77.8143C68.8869 77.5207 68.3841 77.3628 67.8686 77.3619C67.8382 77.3612 67.8092 77.3489 67.7877 77.3275C67.7662 77.3061 67.7538 77.2773 67.7532 77.2471C67.7538 77.2171 67.7663 77.1885 67.7879 77.1675C67.8094 77.1465 67.8384 77.1348 67.8686 77.1348H80.5489C81.2075 77.1368 81.8499 77.3379 82.3908 77.7114C82.9318 78.0849 83.3458 78.6132 83.5778 79.2261L88.785 93.1368C88.9145 93.483 89.119 93.7965 89.384 94.0553C89.6489 94.3141 89.9679 94.5117 90.3183 94.6342C90.3407 94.6417 90.3602 94.6562 90.3737 94.6755C90.3873 94.6948 90.3942 94.718 90.3935 94.7415V94.8913C90.3929 94.9213 90.3804 94.9498 90.3589 94.9708C90.3373 94.9918 90.3083 95.0036 90.2781 95.0036ZM68.9602 77.3619C69.3018 77.5086 69.6097 77.7231 69.8651 77.9921C70.1205 78.2611 70.3181 78.5791 70.4458 78.9266L75.7383 93.027C75.9321 93.5389 76.2779 93.9801 76.7296 94.2921C77.1814 94.6041 77.7178 94.7721 78.2678 94.774H90.0623C89.7208 94.6269 89.4127 94.4127 89.1565 94.1443C88.9003 93.8758 88.7014 93.5586 88.5717 93.2117L83.362 79.306C83.1473 78.736 82.7631 78.2447 82.2605 77.8974C81.758 77.55 81.1609 77.3633 80.5489 77.3619H68.9602Z" fill="#3C3C3B"/>
<path d="M102.208 64.125V69.573H100.953V65.1507H98.4815V69.573H97.2268V64.125H102.208Z" fill="#010101"/>
<path d="M108.537 66.1016C108.537 67.3144 107.621 68.0706 106.158 68.0706H105.054V69.568H103.787V64.125H106.158C107.621 64.125 108.537 64.8787 108.537 66.1016ZM107.252 66.1016C107.252 65.5026 106.861 65.1507 106.088 65.1507H105.054V67.0424H106.088C106.861 67.0424 107.252 66.693 107.252 66.1016Z" fill="#010101"/>
<path d="M109.639 64.125H110.893V67.6738L113.508 64.125H114.698V69.573H113.443V66.0317L110.836 69.573H109.639V64.125Z" fill="#010101"/>
<path d="M124.058 64.125V69.573H122.803V65.1507H120.329V69.573H119.074V64.125H124.058Z" fill="#010101"/>
<path d="M125.268 66.8488C125.268 65.2317 126.535 64.0312 128.266 64.0312C129.998 64.0312 131.263 65.2167 131.263 66.8488C131.263 68.481 129.988 69.6664 128.266 69.6664C126.545 69.6664 125.268 68.461 125.268 66.8488ZM129.98 66.8488C129.972 66.5136 129.864 66.1884 129.671 65.9137C129.478 65.639 129.207 65.4272 128.893 65.3046C128.579 65.1821 128.236 65.1543 127.907 65.2248C127.577 65.2953 127.276 65.4609 127.04 65.7009C126.805 65.9409 126.646 66.2446 126.583 66.574C126.52 66.9035 126.556 67.244 126.687 67.553C126.818 67.862 127.038 68.1257 127.319 68.3112C127.6 68.4967 127.929 68.5957 128.266 68.5958C128.497 68.6019 128.726 68.5606 128.94 68.4744C129.153 68.3883 129.347 68.2591 129.507 68.095C129.668 67.931 129.794 67.7356 129.875 67.5211C129.956 67.3066 129.992 67.0778 129.98 66.8488Z" fill="#010101"/>
<path d="M138.094 68.5456V70.7069H136.922V69.5739H133.055V70.7069H131.88V68.5506H132.098C132.811 68.5282 132.992 67.3602 133.047 65.8354L133.11 64.1309H137.341V68.5456H138.094ZM133.627 68.5456H136.086V65.1516H134.206L134.184 65.9477C134.126 67.1057 134.001 68.1039 133.627 68.5456Z" fill="#010101"/>
<path d="M145.12 68.5456V70.7069H143.946V69.5739H140.071V70.7069H138.896V68.5506H139.115C139.827 68.5282 140.006 67.3602 140.061 65.8354L140.124 64.1309H144.334V68.5456H145.12ZM140.651 68.5456H143.1V65.1516H141.223L141.198 65.9477C141.145 67.1057 141.019 68.1039 140.643 68.5456H140.651Z" fill="#010101"/>
<path d="M150.468 68.5598V69.573H146.227V64.125H150.367V65.1357H147.486V66.3187H150.031V67.2995H147.486V68.5598H150.468Z" fill="#010101"/>
<path d="M156.523 66.1016C156.523 67.3144 155.607 68.0706 154.144 68.0706H153.04V69.568H151.772V64.125H154.154C155.607 64.125 156.523 64.8787 156.523 66.1016ZM155.241 66.1016C155.241 65.5026 154.849 65.1507 154.074 65.1507H153.04V67.0424H154.074C154.849 67.0424 155.241 66.693 155.241 66.1016Z" fill="#010101"/>
<path d="M162.458 67.377H161.66V69.5732H160.405V67.377H159.592L158.363 69.5732H156.915L158.553 66.7132L157.01 64.1152H158.35L159.577 66.3164H160.428V64.1252H161.683V66.3264H162.496L163.733 64.1252H165.07L163.514 66.7132L165.151 69.5632H163.69L162.458 67.377Z" fill="#010101"/>
<path d="M168.33 67.3768H167.454V69.573H166.199V64.125H167.454V66.3262H168.363L169.803 64.125H171.141L169.349 66.7554L171.196 69.573H169.755L168.33 67.3768Z" fill="#010101"/>
<path d="M176.468 68.5598V69.573H172.222V64.125H176.363V65.1357H173.477V66.3187H176.021V67.2995H173.477V68.5598H176.468Z" fill="#010101"/>
<path d="M102.208 73.4668V78.9173H100.953V74.495H98.4815V78.9173H97.2268V73.4668H102.208Z" fill="#010101"/>
<path d="M108.537 75.4483C108.537 76.6637 107.621 77.4199 106.158 77.4199H105.054V78.9173H103.787V73.4668H106.158C107.621 73.4668 108.537 74.223 108.537 75.4483ZM107.252 75.4483C107.252 74.8494 106.861 74.5 106.088 74.5H105.054V76.3917H106.088C106.861 76.3867 107.252 76.0373 107.252 75.4483Z" fill="#010101"/>
<path d="M113.88 77.904V78.9173H109.639V73.4668H113.779V74.48H110.898V75.663H113.443V76.6438H110.898V77.8916L113.88 77.904Z" fill="#010101"/>
<path d="M119.423 77.3901C119.423 78.4183 118.296 79.0097 116.981 79.0097C116.216 79.0109 115.463 78.8149 114.796 78.4407L115.187 77.5373C115.685 77.8283 116.253 77.9817 116.831 77.9815C117.551 77.9815 118.138 77.717 118.138 77.2104C118.138 76.7986 117.764 76.5964 117.192 76.5964H115.855V75.6481H117.097C117.614 75.6481 117.912 75.421 117.912 75.0641C117.912 74.6199 117.426 74.3853 116.808 74.3853C116.293 74.3902 115.787 74.5241 115.338 74.7746L114.954 73.7938C115.536 73.5015 116.179 73.3494 116.831 73.3496C118.101 73.3496 119.195 73.9261 119.195 74.9144C119.195 75.1643 119.12 75.4085 118.979 75.6154C118.838 75.8223 118.638 75.9824 118.404 76.0749C118.695 76.1537 118.952 76.3249 119.136 76.5623C119.32 76.7997 119.421 77.0904 119.423 77.3901Z" fill="#010101"/>
<path d="M120.673 73.4668H121.927V77.0156L124.542 73.4668H125.734V78.9173H124.48V75.3735L121.867 78.9173H120.67L120.673 73.4668Z" fill="#010101"/>
<path d="M132.999 77.8891V80.0453H131.82V78.9173H127.958V80.0453H126.783V77.8891H127.002C127.714 77.8641 127.892 76.6987 127.948 75.1713L128.01 73.4668H132.221V77.8891H132.999ZM128.53 77.8891H130.979V74.495H129.102L129.077 75.2886C129.032 76.4466 128.906 77.4449 128.53 77.8891Z" fill="#010101"/>
<path d="M138.345 77.904V78.9173H134.104V73.4668H138.244V74.48H135.373V75.663H137.918V76.6438H135.373V77.8916L138.345 77.904Z" fill="#010101"/>
<path d="M144.683 73.4668V78.9173H143.416V76.6712H140.927V78.9173H139.659V73.4668H140.927V75.6155H143.416V73.4668H144.683Z" fill="#010101"/>
<path d="M150.488 74.495H148.731V78.9173H147.476V74.495H145.72V73.4668H150.47L150.488 74.495Z" fill="#010101"/>
<path d="M151.1 76.1972C151.1 74.5551 152.367 73.3797 154.074 73.3797C154.499 73.3611 154.923 73.4383 155.314 73.6055C155.705 73.7727 156.053 74.0257 156.332 74.3455L155.519 75.0942C155.352 74.8926 155.141 74.7306 154.903 74.6201C154.665 74.5096 154.405 74.4533 154.142 74.4553C153.676 74.4553 153.229 74.6393 152.899 74.967C152.57 75.2946 152.385 75.7389 152.385 76.2022C152.385 76.6656 152.57 77.1099 152.899 77.4375C153.229 77.7651 153.676 77.9492 154.142 77.9492C154.405 77.9512 154.666 77.8941 154.905 77.7822C155.143 77.6704 155.353 77.5065 155.519 77.3028L156.332 78.0515C156.055 78.3734 155.707 78.6282 155.316 78.7969C154.925 78.9655 154.5 79.0434 154.074 79.0248C152.367 79.0098 151.1 77.8344 151.1 76.1972Z" fill="#010101"/>
<path d="M159.522 76.7211H158.643V78.9173H157.389V73.4668H158.643V75.6704H159.552L160.992 73.4668H162.33L160.538 76.0972L162.385 78.9173H160.945L159.522 76.7211Z" fill="#010101"/>
<path d="M162.774 76.1965C162.774 74.5768 164.029 73.3789 165.77 73.3789C167.512 73.3789 168.769 74.5693 168.769 76.1965C168.769 77.8236 167.492 79.0141 165.77 79.0141C164.049 79.0141 162.774 77.8112 162.774 76.1965ZM167.484 76.1965C167.476 75.8613 167.368 75.536 167.175 75.2613C166.981 74.9867 166.711 74.7748 166.397 74.6523C166.083 74.5298 165.74 74.502 165.41 74.5725C165.081 74.643 164.779 74.8086 164.544 75.0485C164.309 75.2885 164.149 75.5922 164.087 75.9217C164.024 76.2511 164.06 76.5916 164.191 76.9006C164.322 77.2096 164.542 77.4734 164.823 77.6589C165.103 77.8443 165.433 77.9433 165.77 77.9434C166.001 77.9496 166.23 77.9083 166.443 77.8221C166.657 77.7359 166.85 77.6067 167.011 77.4427C167.172 77.2786 167.297 77.0832 167.379 76.8688C167.46 76.6543 167.496 76.4254 167.484 76.1965Z" fill="#010101"/>
<path d="M173.838 74.495H171.231V78.9173H169.976V73.4668H173.843L173.838 74.495Z" fill="#010101"/>
<path d="M174.436 76.1965C174.436 74.5768 175.703 73.3789 177.432 73.3789C179.161 73.3789 180.443 74.5693 180.443 76.1965C180.443 77.8236 179.166 79.0141 177.432 79.0141C175.698 79.0141 174.436 77.8112 174.436 76.1965ZM179.146 76.1965C179.137 75.8613 179.03 75.536 178.836 75.2613C178.643 74.9867 178.373 74.7748 178.059 74.6523C177.745 74.5298 177.402 74.502 177.072 74.5725C176.742 74.643 176.441 74.8086 176.206 75.0485C175.97 75.2885 175.811 75.5922 175.748 75.9217C175.686 76.2511 175.722 76.5916 175.853 76.9006C175.984 77.2096 176.203 77.4734 176.484 77.6589C176.765 77.8443 177.095 77.9433 177.432 77.9434C177.662 77.9496 177.891 77.9083 178.105 77.8221C178.319 77.7359 178.512 77.6067 178.673 77.4427C178.834 77.2786 178.959 77.0832 179.04 76.8688C179.122 76.6543 179.158 76.4254 179.146 76.1965Z" fill="#010101"/>
<path d="M188.032 78.5651V79.1565H186.865V78.5576C185.01 78.4478 183.994 77.5993 183.994 76.1767C183.994 74.7542 185.01 73.9032 186.865 73.7934V73.2344H188.032V73.7859C189.879 73.8957 190.898 74.7517 190.898 76.1767C190.898 77.6017 189.886 78.4727 188.032 78.5651ZM186.865 77.5668V74.7717C185.753 74.874 185.221 75.3182 185.221 76.1668C185.221 77.0153 185.808 77.467 186.865 77.5768V77.5668ZM189.676 76.1593C189.676 75.3182 189.121 74.8665 188.032 74.7717V77.5668C189.136 77.477 189.676 77.0153 189.676 76.1693V76.1593Z" fill="#010101"/>
<path d="M191.836 76.1965C191.836 74.5768 193.103 73.3789 194.832 73.3789C196.561 73.3789 197.831 74.5693 197.831 76.1965C197.831 77.8236 196.564 79.0091 194.832 79.0091C193.101 79.0091 191.836 77.8112 191.836 76.1965ZM196.546 76.1965C196.538 75.8613 196.43 75.536 196.237 75.2613C196.044 74.9867 195.773 74.7748 195.459 74.6523C195.146 74.5298 194.802 74.502 194.473 74.5725C194.143 74.643 193.842 74.8086 193.606 75.0485C193.371 75.2885 193.212 75.5922 193.149 75.9217C193.086 76.2511 193.123 76.5916 193.253 76.9006C193.384 77.2096 193.604 77.4734 193.885 77.6589C194.166 77.8443 194.495 77.9433 194.832 77.9434C195.063 77.9496 195.292 77.9083 195.506 77.8221C195.719 77.7359 195.913 77.6067 196.074 77.4427C196.235 77.2786 196.36 77.0832 196.441 76.8688C196.522 76.6543 196.558 76.4254 196.546 76.1965Z" fill="#010101"/>
<path d="M204.067 73.4668V78.9173H202.812V76.6712H200.323V78.9173H199.053V73.4668H200.323V75.6155H202.812V73.4668H204.067Z" fill="#010101"/>
<path d="M211.335 77.8891V80.0453H210.16V78.9173H206.293V80.0453H205.119V77.8891H205.347C206.057 77.8641 206.238 76.6987 206.293 75.1713L206.356 73.4668H210.567V77.8891H211.335ZM206.865 77.8891H209.314V74.495H207.435L207.412 75.2886C207.355 76.4466 207.239 77.4449 206.865 77.8891Z" fill="#010101"/>
<path d="M216.439 77.7493H213.894L213.41 78.9173H212.123L214.564 73.4668H215.819L218.268 78.9173H216.938L216.439 77.7493ZM216.04 76.791L215.169 74.6996L214.301 76.786L216.04 76.791Z" fill="#010101"/>
<path d="M99.3398 86.0624H98.464V88.2585H97.2092V82.8105H98.464V85.0117H99.3699L100.81 82.8105H102.15L100.356 85.431L102.208 88.2585H100.77L99.3398 86.0624Z" fill="#010101"/>
<path d="M108.482 82.8105L106.148 87.123C105.694 87.964 105.044 88.3833 104.309 88.3833C104.002 88.3798 103.699 88.3162 103.418 88.1961L103.721 87.2378C103.899 87.2986 104.084 87.3331 104.271 87.3401C104.427 87.3371 104.58 87.2921 104.712 87.21C104.845 87.1278 104.952 87.0115 105.024 86.8735L105.072 86.8111L102.911 82.818H104.266L105.721 85.7454L107.227 82.818L108.482 82.8105Z" fill="#010101"/>
<path d="M114.018 82.8105V88.2585H112.763V83.8363H110.886L110.846 84.9743C110.775 87.1155 110.472 88.3434 109.187 88.3434C108.976 88.3392 108.766 88.3107 108.562 88.2585L108.64 87.1929C108.713 87.2138 108.789 87.2239 108.866 87.2228C109.508 87.2228 109.674 86.4143 109.726 85.0217L109.807 82.8105H114.018Z" fill="#010101"/>
<path d="M120.324 86.3594C120.324 87.6072 119.478 88.2585 118.065 88.2585H115.591V82.8105H116.846V84.5999H118.241C119.574 84.5999 120.324 85.1814 120.324 86.3594ZM119.049 86.3818C119.049 85.7829 118.658 85.5333 118 85.5333H116.856V87.3252H118C118.65 87.3252 119.049 86.9982 119.049 86.3818Z" fill="#010101"/>
<path d="M125.185 83.8363H123.428V88.2585H122.173V83.8363H120.417V82.8105H125.167L125.185 83.8363Z" fill="#010101"/>
<path d="M131.491 82.8105L129.16 87.123C128.706 87.964 128.056 88.3833 127.32 88.3833C127.013 88.3796 126.71 88.316 126.427 88.1961L126.733 87.2378C126.909 87.2984 127.094 87.3329 127.28 87.3401C127.439 87.3395 127.594 87.2957 127.73 87.2135C127.865 87.1312 127.975 87.0136 128.048 86.8735L128.096 86.8111L125.935 82.818H127.303L128.758 85.7454L130.264 82.818L131.491 82.8105Z" fill="#010101"/>
<path d="M137.253 84.7871C137.253 86.0025 136.339 86.7562 134.874 86.7562H133.772V88.2535H132.502V82.8105H134.874C136.337 82.8105 137.253 83.5642 137.253 84.7871ZM135.971 84.7871C135.971 84.1881 135.579 83.8363 134.804 83.8363H133.772V85.728H134.804C135.584 85.728 135.971 85.3786 135.971 84.7871Z" fill="#010101"/>
<path d="M143.381 82.8105V88.2585H142.109V86.0125H139.624V88.2585H138.357V82.8105H139.624V84.9593H142.109V82.8105H143.381Z" fill="#010101"/>
<path d="M149.685 86.3594C149.685 87.6072 148.839 88.2585 147.426 88.2585H144.952V82.8105H146.207V84.5999H147.599C148.934 84.5999 149.685 85.1814 149.685 86.3594ZM148.41 86.3818C148.41 85.7829 148.018 85.5333 147.361 85.5333H146.219V87.3252H147.361C148.011 87.3252 148.41 86.9982 148.41 86.3818ZM150.39 82.8105H151.645V88.2585H150.39V82.8105Z" fill="#010101"/>
<path d="M154.264 82.8105L155.401 84.4602L156.535 82.8105H158.021L156.199 85.431L158.169 88.2585H156.663L155.409 86.4517L154.154 88.2585H152.691L154.648 85.4709L152.816 82.8105H154.264Z" fill="#010101"/>
<path d="M161.933 82.8105H163.188V86.3594L165.8 82.8105H166.99V88.2585H165.735V84.7172L163.123 88.2585H161.933V82.8105Z" fill="#010101"/>
<path d="M173.592 82.8105V88.2585H172.337V86.0125H169.848V88.2585H168.581V82.8105H169.848V84.9593H172.337V82.8105H173.592Z" fill="#010101"/>
<path d="M175.171 82.8105H176.426V86.3594L179.038 82.8105H180.23V88.2585H178.975V84.7172L176.363 88.2585H175.166L175.171 82.8105Z" fill="#010101"/>
<path d="M187.553 87.2303V89.424H186.386V88.271H181.808V82.8105H183.063V87.2303H185.522V82.8105H186.777V87.2303H187.553Z" fill="#010101"/>
<path d="M188.659 82.8105H189.914V86.3594L192.529 82.8105H193.718V88.2585H192.464V84.7172L189.849 88.2585H188.659V82.8105Z" fill="#010101"/>
<path d="M199.073 87.0906H196.531L196.044 88.2585H194.747L197.189 82.8105H198.444L200.893 88.2585H199.563L199.073 87.0906ZM198.674 86.1347L197.819 84.0484L196.95 86.1347H198.674Z" fill="#010101"/>
<path d="M205.478 83.8363H203.721V88.2585H202.466V83.8363H200.722V82.8105H205.473L205.478 83.8363Z" fill="#010101"/>
<path d="M206.521 82.8105H207.776V86.3594L210.391 82.8105H211.581V88.2585H210.326V84.7172L207.711 88.2585H206.514L206.521 82.8105Z" fill="#010101"/>
<path d="M217.99 86.7262C217.99 87.6746 217.237 88.2585 215.859 88.2585H213.159V82.8105H215.711C216.978 82.8105 217.731 83.3097 217.731 84.2181C217.736 84.472 217.665 84.7217 217.527 84.9354C217.389 85.1491 217.19 85.3172 216.956 85.4185C217.256 85.4801 217.524 85.6452 217.713 85.8845C217.902 86.1238 218 86.422 217.99 86.7262ZM214.419 85.0666H215.601C216.15 85.0666 216.439 84.842 216.439 84.4053C216.439 83.9685 216.15 83.7439 215.601 83.7439H214.419V85.0666ZM216.705 86.6239C216.705 86.1647 216.401 85.9476 215.814 85.9476H214.419V87.3252H215.814C216.401 87.3252 216.705 87.0981 216.705 86.6239Z" fill="#010101"/>
<defs>
<linearGradient id="paint0_linear_965_3032" x1="79.0733" y1="56.9593" x2="79.0733" y2="75.4695" gradientUnits="userSpaceOnUse">
<stop offset="0.04" stop-color="#3C61AA"/>
<stop offset="0.06" stop-color="#3878BB"/>
<stop offset="0.1" stop-color="#3590CC"/>
<stop offset="0.14" stop-color="#32A1D8"/>
<stop offset="0.18" stop-color="#31ABE0"/>
<stop offset="0.23" stop-color="#30AEE2"/>
<stop offset="0.37" stop-color="#3399D3"/>
<stop offset="0.61" stop-color="#387ABC"/>
<stop offset="0.81" stop-color="#3B68AF"/>
<stop offset="0.96" stop-color="#3C61AA"/>
</linearGradient>
<linearGradient id="paint1_linear_965_3032" x1="79.0734" y1="95.6035" x2="79.0734" y2="77.2705" gradientUnits="userSpaceOnUse">
<stop offset="0.09" stop-color="#E94B4D"/>
<stop offset="0.13" stop-color="#DC4344"/>
<stop offset="0.2" stop-color="#CC393A"/>
<stop offset="0.28" stop-color="#C33334"/>
<stop offset="0.4" stop-color="#C03132"/>
<stop offset="0.62" stop-color="#D6373B"/>
<stop offset="0.84" stop-color="#E83B42"/>
<stop offset="0.88" stop-color="#E33A41"/>
<stop offset="0.92" stop-color="#D6383D"/>
<stop offset="0.97" stop-color="#C03336"/>
<stop offset="1" stop-color="#A92F2F"/>
</linearGradient>
</defs>
</svg>
