<svg width="278" height="198" viewBox="0 0 278 198" fill="none" xmlns="http://www.w3.org/2000/svg">
<g clip-path="url(#clip0_971_2960)">
<path d="M167.905 62.2637H110V109H167.905V62.2637Z" fill="url(#paint0_linear_971_2960)"/>
<mask id="mask0_971_2960" style="mask-type:luminance" maskUnits="userSpaceOnUse" x="110" y="62" width="58" height="47">
<path d="M167.905 62.2637H110V109H167.905V62.2637Z" fill="white"/>
</mask>
<g mask="url(#mask0_971_2960)">
<path d="M167.905 62.2637H110V109H167.905V62.2637Z" fill="url(#paint1_linear_971_2960)"/>
</g>
<path d="M141.296 72.8809V74.7982L143.928 75.2555L144.456 75.6841V96.3955L143.949 96.7072L141.182 97.148V99.1556H152.285V97.1439L149.878 96.701L149.022 96.3791L149.007 75.2637H156.254L156.715 75.7497L157.594 79.2173H160.02V72.8809H141.296Z" fill="white"/>
<path d="M130.631 89.4767C137.004 89.4767 140.807 86.1957 140.807 80.6959C140.807 75.3643 137.341 72.8789 129.901 72.8789H120.388V74.8475L123.264 75.3089L123.649 75.6186V96.3976L123.258 96.7114L120.34 97.1358V99.1393H131.578V97.1317L128.683 96.7073L128.292 96.3976V89.3762C128.941 89.4193 129.917 89.4747 130.633 89.4747M129.712 75.3253C131.727 75.3253 133.199 75.8421 134.347 76.9453C135.362 77.9091 135.794 79.2502 135.794 81.4136C135.794 85.1806 133.906 87.0939 130.186 87.0939C129.55 87.0929 128.915 87.0339 128.29 86.9175V75.3561C128.67 75.3356 129.117 75.3192 129.71 75.3192" fill="white"/>
<path d="M130.097 54.1701C130.064 54.1159 130.018 54.0715 129.962 54.0415C129.905 54.0116 129.842 53.9972 129.779 53.9999C129.732 53.9979 129.686 54.0059 129.643 54.0231C129.599 54.0404 129.561 54.0666 129.528 54.1C129.496 54.1334 129.472 54.1732 129.456 54.2168C129.441 54.2603 129.435 54.3066 129.439 54.3526C129.439 54.8386 129.973 55.1113 130.635 55.1113C131.297 55.1113 131.828 54.8386 131.828 54.3526C131.833 54.3048 131.826 54.2566 131.81 54.2114C131.793 54.1663 131.767 54.1254 131.732 54.0916C131.698 54.0579 131.656 54.0321 131.611 54.0163C131.565 54.0004 131.516 53.9948 131.468 53.9999C131.404 53.9971 131.34 54.0115 131.283 54.0414C131.226 54.0713 131.178 54.1157 131.144 54.1701V54.7278C130.991 54.8309 130.808 54.8787 130.624 54.8632C130.438 54.8784 130.252 54.8307 130.097 54.7278V54.1701ZM166.817 58.4333C166.403 58.702 166.149 58.7614 165.953 58.7614C165.871 58.7662 165.789 58.7534 165.713 58.7239C165.636 58.6944 165.567 58.6488 165.51 58.5904C165.453 58.532 165.41 58.4621 165.383 58.3854C165.355 58.3087 165.345 58.2271 165.353 58.1462C165.356 57.9913 165.408 57.8412 165.502 57.717C165.595 57.5927 165.725 57.5005 165.874 57.4531C166.181 57.3251 166.496 57.2156 166.817 57.125V58.4333ZM166.939 59.1141H168V58.8701L167.586 58.8353L167.471 58.6958V56.5508C167.483 56.2705 167.394 55.995 167.22 55.7737C166.962 55.5009 166.503 55.4948 166.331 55.4948C165.247 55.4948 164.861 55.9562 164.861 56.3437C164.859 56.3715 164.863 56.3992 164.873 56.4253C164.883 56.4514 164.897 56.4753 164.917 56.4955C164.97 56.5285 165.032 56.5436 165.094 56.5385H165.609V55.9131C165.794 55.8315 165.994 55.7902 166.197 55.7921C166.276 55.7835 166.357 55.7933 166.432 55.8207C166.508 55.8481 166.576 55.8923 166.631 55.95C166.803 56.1141 166.809 56.4545 166.809 56.6308V56.8707C166.339 56.9707 165.879 57.1078 165.432 57.2809C165.076 57.4203 164.654 57.652 164.654 58.2057C164.647 58.335 164.668 58.4642 164.714 58.5851C164.761 58.706 164.832 58.8159 164.924 58.9078C165.016 58.9997 165.126 59.0716 165.248 59.1187C165.369 59.1659 165.5 59.1874 165.63 59.1818C165.917 59.1818 166.296 59.0895 166.829 58.6958L166.939 59.1141ZM153.445 58.4333C153.032 58.702 152.779 58.7614 152.583 58.7614C152.501 58.7665 152.419 58.7539 152.342 58.7246C152.266 58.6952 152.196 58.6497 152.139 58.5912C152.082 58.5328 152.038 58.4627 152.011 58.3859C151.984 58.3091 151.973 58.2273 151.981 58.1462C151.984 57.9913 152.036 57.8412 152.13 57.717C152.223 57.5927 152.353 57.5005 152.502 57.4531C152.81 57.3255 153.125 57.2159 153.445 57.125V58.4333ZM153.567 59.1141H154.628V58.8701L154.215 58.8353L154.099 58.6958V56.5508C154.112 56.2704 154.023 55.9946 153.848 55.7737C153.59 55.5009 153.131 55.4948 152.959 55.4948C151.876 55.4948 151.491 55.9562 151.491 56.3437C151.489 56.3713 151.493 56.399 151.502 56.4251C151.511 56.4511 151.526 56.4751 151.545 56.4955C151.598 56.5285 151.66 56.5436 151.723 56.5385H152.237V55.9131C152.422 55.8317 152.623 55.7905 152.825 55.7921C152.905 55.7833 152.985 55.793 153.061 55.8204C153.136 55.8478 153.204 55.8922 153.259 55.95C153.431 56.1141 153.437 56.4545 153.437 56.6308V56.8707C152.968 56.971 152.507 57.1082 152.06 57.2809C151.704 57.4203 151.282 57.652 151.282 58.2057C151.277 58.3339 151.298 58.4619 151.345 58.5814C151.393 58.7009 151.464 58.8095 151.556 58.9002C151.647 58.991 151.757 59.0619 151.877 59.1086C151.998 59.1553 152.127 59.1768 152.256 59.1716C152.544 59.1716 152.922 59.0793 153.456 58.6856L153.567 59.1141ZM124.137 59.1141H125.816V58.8701L125.454 58.8353L125.332 58.7163V58.4579L127.034 56.5939V58.7163L126.906 58.8332L126.544 58.8701V59.1141H128.223V58.8701L127.81 58.8353L127.696 58.7163V55.9562L127.824 55.8454L128.238 55.8106V55.5604H126.544V55.8044L126.906 55.8454L127.034 55.9623V56.1674L125.332 58.0335V55.9562L125.454 55.8454L125.816 55.8106V55.5604H124.137V55.8044L124.551 55.8393L124.681 55.9562V58.7163L124.551 58.8332L124.137 58.8681V59.1141ZM135.97 58.4456C135.692 58.6394 135.363 58.7491 135.023 58.7614C133.782 58.7614 133.768 57.5167 133.768 57.2727C133.768 56.4524 134.086 55.7737 134.839 55.7737C134.971 55.7686 135.101 55.8021 135.213 55.87V56.4709C135.317 56.5386 135.439 56.5749 135.563 56.5755C135.618 56.5801 135.674 56.5727 135.727 56.5538C135.779 56.5348 135.826 56.5048 135.866 56.4657C135.905 56.4266 135.936 56.3795 135.955 56.3276C135.974 56.2758 135.981 56.2204 135.977 56.1653C135.977 55.868 135.708 55.4866 134.899 55.4866C133.803 55.4866 133.038 56.1961 133.038 57.3444C133.038 58.4928 133.803 59.1736 134.777 59.1736C135.207 59.165 135.626 59.0341 135.983 58.7963L135.97 58.4456ZM123.922 58.4456C123.643 58.6398 123.313 58.7495 122.973 58.7614C121.732 58.7614 121.717 57.5167 121.717 57.2727C121.717 56.4524 122.036 55.7737 122.789 55.7737C122.92 55.7682 123.051 55.8018 123.163 55.87V56.4709C123.267 56.5386 123.388 56.5749 123.513 56.5755C123.568 56.5801 123.624 56.5727 123.676 56.5538C123.729 56.5348 123.776 56.5048 123.815 56.4657C123.855 56.4266 123.885 56.3795 123.904 56.3276C123.923 56.2758 123.931 56.2204 123.926 56.1653C123.926 55.868 123.657 55.4866 122.849 55.4866C121.753 55.4866 120.987 56.1961 120.987 57.3444C120.987 58.4928 121.753 59.1736 122.727 59.1736C123.157 59.165 123.575 59.0341 123.932 58.7963L123.922 58.4456ZM162.059 59.1141H163.932V58.8701L163.454 58.8353L163.326 58.7184V55.8577H164.023L164.147 55.9808L164.244 56.6411H164.596V55.5604H161.391V56.6411H161.746L161.843 55.9808L161.965 55.8577H162.664V58.7163L162.536 58.8332L162.059 58.8681V59.1141ZM158.83 56.8707C158.884 56.3847 159.161 55.8024 159.742 55.8024C159.875 55.7945 160.007 55.8275 160.12 55.8969C160.233 55.9663 160.321 56.0686 160.373 56.1899C160.442 56.3408 160.478 56.5043 160.479 56.6698V56.8748L158.83 56.8707ZM161.151 58.3718C160.825 58.6322 160.419 58.7734 160.001 58.7717C159.087 58.7717 158.793 58.0068 158.793 57.2358V57.1804H161.157C161.167 57.1125 161.171 57.0439 161.169 56.9753C161.169 55.786 160.417 55.5071 159.835 55.5071C159.607 55.5004 159.379 55.5394 159.166 55.6218C158.953 55.7043 158.758 55.8284 158.595 55.9869C158.238 56.3623 158.045 56.8618 158.057 57.3773C158.057 58.4026 158.723 59.1941 159.79 59.1941C160.278 59.1932 160.753 59.0349 161.142 58.743L161.151 58.3718ZM155.608 57.4839C155.664 57.4839 155.908 57.4531 156.049 57.4531C156.256 57.4531 156.82 57.4777 156.82 58.1339C156.82 58.6999 156.407 58.8865 155.958 58.8865C155.721 58.8879 155.487 58.8315 155.277 58.7225L155.149 58.0724H154.818V59.0383C155.196 59.1416 155.585 59.1934 155.976 59.1921C156.607 59.1921 157.563 59.0157 157.563 58.1216C157.563 57.4408 157.004 57.2665 156.632 57.2358V57.2173C156.835 57.1889 157.023 57.0917 157.162 56.9423C157.301 56.7928 157.384 56.6002 157.397 56.3971C157.397 55.5768 156.527 55.5112 156.043 55.5112C155.67 55.5146 155.299 55.5677 154.94 55.6691V56.5303H155.271L155.381 55.948C155.581 55.857 155.798 55.8095 156.018 55.8085C156.108 55.7987 156.199 55.8086 156.285 55.8375C156.371 55.8664 156.449 55.9136 156.515 55.9758C156.58 56.0379 156.631 56.1136 156.664 56.1973C156.696 56.2811 156.71 56.371 156.704 56.4606C156.704 57.0758 156.22 57.1271 155.952 57.1271C155.837 57.1286 155.722 57.121 155.608 57.1045V57.4839ZM148.73 59.1244H150.666V58.8578L150.138 58.8209L150.01 58.7184V54.4613H151.547L151.658 54.5761L151.822 55.2877H152.215V54.1578H148.672V54.4243L149.156 54.4613L149.284 54.5638V58.7163L149.156 58.8188L148.728 58.8558L148.73 59.1244ZM146.17 57.2132C146.019 57.2351 145.867 57.2453 145.715 57.244C145.146 57.244 144.803 57.0799 144.803 56.5632C144.803 55.8823 145.386 55.8454 145.715 55.8454C145.867 55.8436 146.02 55.8559 146.17 55.8823V57.2132ZM147.363 55.5604H145.502C145.006 55.5604 144.191 55.6875 144.191 56.5447C144.191 57.043 144.534 57.3465 145.086 57.4019V57.4142C144.967 57.4545 144.857 57.5178 144.763 57.6005C144.668 57.6832 144.591 57.7837 144.536 57.8961L144.123 58.7266L143.998 58.8188L143.626 58.866V59.11H144.71V58.905L145.138 57.9637C145.25 57.7464 145.384 57.5393 145.696 57.5393H146.174V58.7163L146.046 58.8332L145.69 58.8681V59.1121H147.367V58.8701L146.964 58.8353L146.832 58.7163V55.9562L146.96 55.8393L147.363 55.8044V55.5604ZM142.383 58.4313C141.97 58.6999 141.717 58.7594 141.521 58.7594C141.439 58.7645 141.357 58.7519 141.28 58.7225C141.204 58.6931 141.134 58.6477 141.077 58.5892C141.02 58.5307 140.976 58.4607 140.949 58.3839C140.922 58.307 140.912 58.2253 140.919 58.1442C140.924 57.9918 140.976 57.8445 141.068 57.7224C141.16 57.6003 141.288 57.5091 141.434 57.4613C141.742 57.3333 142.056 57.2238 142.377 57.1332L142.383 58.4313ZM142.507 59.1121H143.566V58.8701L143.153 58.8353L143.037 58.6958V56.5508C143.049 56.2705 142.96 55.995 142.787 55.7737C142.528 55.5009 142.069 55.4948 141.897 55.4948C140.814 55.4948 140.427 55.9562 140.427 56.3437C140.425 56.3715 140.43 56.3992 140.439 56.4253C140.449 56.4514 140.464 56.4753 140.483 56.4955C140.536 56.5285 140.598 56.5436 140.661 56.5385H141.176V55.9131C141.36 55.8315 141.561 55.7902 141.763 55.7921C141.843 55.7835 141.923 55.7933 141.999 55.8207C142.074 55.8481 142.142 55.8923 142.197 55.95C142.369 56.1141 142.375 56.4545 142.375 56.6308V56.8707C141.906 56.9707 141.445 57.1078 140.998 57.2809C140.642 57.4203 140.22 57.652 140.22 58.2057C140.215 58.3339 140.236 58.4619 140.284 58.5814C140.331 58.7009 140.402 58.8095 140.494 58.9002C140.585 58.991 140.695 59.0619 140.815 59.1086C140.936 59.1553 141.065 59.1768 141.194 59.1716C141.482 59.1716 141.862 59.0793 142.394 58.6856L142.507 59.1121ZM136.161 59.1121H137.834V58.8701L137.472 58.8353L137.35 58.702V57.4429H137.687C137.949 57.4429 138.152 57.5782 138.318 57.9596L138.721 58.9009V59.1059H139.922V58.8701L139.492 58.8229L139.364 58.7307L138.952 57.8961C138.889 57.7446 138.793 57.6086 138.671 57.4975C138.549 57.3863 138.405 57.3026 138.247 57.2522V57.2399C138.463 57.1395 138.631 56.9613 138.719 56.7416L138.952 56.2289C138.987 56.1425 139.037 56.0627 139.099 55.9931L139.602 56.272C139.706 56.2372 139.791 56.1628 139.84 56.0653C139.889 55.9679 139.896 55.8552 139.861 55.7521C139.826 55.6491 139.751 55.5641 139.653 55.5158C139.555 55.4675 139.441 55.46 139.337 55.4948C138.983 55.4948 138.768 55.7552 138.628 56.0956L138.371 56.6657C138.319 56.8036 138.224 56.9215 138.1 57.0022C137.976 57.083 137.829 57.1224 137.681 57.1148H137.35V55.9562L137.472 55.8393L137.834 55.8044V55.5604H136.161V55.8044L136.574 55.8393L136.696 55.9562V58.7163L136.574 58.8332L136.161 58.8681V59.1121ZM128.577 59.1121H130.267V58.8701L129.905 58.8353L129.772 58.7163V58.4579L131.474 56.5939V58.7163L131.346 58.8332L130.991 58.8681V59.1121H132.67V58.8701L132.256 58.8353L132.128 58.7163V55.9562L132.256 55.8393L132.67 55.8044V55.5604H130.991V55.8044L131.346 55.8393L131.474 55.9562V56.1612L129.772 58.0273V55.9562L129.894 55.8454L130.267 55.8044V55.5604H128.577V55.8044L128.991 55.8393L129.119 55.9562V58.7163L128.991 58.8332L128.577 58.8681V59.1121ZM120.737 58.4456C120.458 58.6395 120.128 58.7492 119.788 58.7614C118.547 58.7614 118.533 57.5167 118.533 57.2727C118.533 56.4524 118.851 55.7737 119.604 55.7737C119.736 55.7682 119.866 55.8018 119.978 55.87V56.4709C120.082 56.5386 120.203 56.5749 120.328 56.5755C120.383 56.5801 120.439 56.5727 120.491 56.5538C120.544 56.5348 120.591 56.5048 120.631 56.4657C120.67 56.4266 120.7 56.3795 120.719 56.3276C120.739 56.2758 120.746 56.2204 120.741 56.1653C120.741 55.868 120.473 55.4866 119.664 55.4866C118.568 55.4866 117.803 56.1961 117.803 57.3444C117.803 58.4928 118.568 59.1736 119.542 59.1736C119.972 59.165 120.39 59.0341 120.748 58.7963L120.737 58.4456ZM116.566 57.3896C116.585 58.1421 116.235 58.8824 115.551 58.8824C114.756 58.8824 114.55 57.9965 114.55 57.3342C114.55 56.6718 114.746 55.7921 115.555 55.7921C116.32 55.7921 116.558 56.5324 116.576 57.3896M117.319 57.3403C117.319 56.315 116.657 55.4948 115.573 55.4948C114.366 55.4948 113.809 56.3868 113.809 57.3403C113.809 58.4026 114.537 59.1859 115.561 59.1859C116.729 59.1859 117.319 58.2857 117.319 57.3403ZM111.355 54.4736C111.446 54.4736 111.561 54.4613 111.714 54.4613C111.889 54.4517 112.063 54.4769 112.227 54.5354C112.391 54.5939 112.542 54.6844 112.67 54.8017C112.91 55.0252 112.978 55.3492 112.978 55.7367C112.978 56.4709 112.622 56.9343 111.807 56.9343C111.655 56.9338 111.503 56.9173 111.355 56.8851V54.4736ZM110.062 59.1141H111.992V58.8476L111.483 58.8106L111.355 58.7163V57.2009C111.446 57.2009 111.714 57.2255 111.892 57.2255C112.897 57.2255 113.774 56.7764 113.774 55.5973C113.774 54.8324 113.437 54.1619 111.752 54.1619H110V54.4284L110.503 54.4654L110.631 54.5679V58.7163L110.503 58.8188L110.062 58.8476V59.1141Z" fill="#1D1D1B"/>
</g>
<defs>
<linearGradient id="paint0_linear_971_2960" x1="110" y1="85.6327" x2="167.905" y2="85.6327" gradientUnits="userSpaceOnUse">
<stop stop-color="#414C58"/>
<stop offset="0.15" stop-color="#414C58"/>
<stop offset="0.74" stop-color="#627684"/>
<stop offset="1" stop-color="#627684"/>
</linearGradient>
<linearGradient id="paint1_linear_971_2960" x1="139.35" y1="108.796" x2="139.35" y2="62.06" gradientUnits="userSpaceOnUse">
<stop stop-color="#414C58"/>
<stop offset="0.15" stop-color="#414C58"/>
<stop offset="0.74" stop-color="#627684"/>
<stop offset="1" stop-color="#627684"/>
</linearGradient>
<clipPath id="clip0_971_2960">
<rect width="58" height="55" fill="white" transform="translate(110 54)"/>
</clipPath>
</defs>
</svg>
