<svg width="278" height="198" viewBox="0 0 278 198" fill="none" xmlns="http://www.w3.org/2000/svg">
<g clip-path="url(#clip0_1306_3581)">
<path d="M131.494 80.0235C130.901 80.3912 130.219 80.5867 129.523 80.5885C128.965 80.6066 128.411 80.4908 127.906 80.2508C127.401 80.0106 126.96 79.6531 126.618 79.2074C125.846 78.1566 125.459 76.8685 125.523 75.5623C125.523 73.9581 125.947 72.69 126.797 71.7581C127.128 71.3717 127.538 71.0622 128 70.8513C128.461 70.6403 128.962 70.5328 129.469 70.5361C130.181 70.5331 130.88 70.7318 131.485 71.1095V73.9929C131.05 73.5578 130.464 73.3115 129.851 73.3066C129.6 73.3045 129.355 73.3727 129.141 73.5036C128.927 73.6344 128.753 73.8227 128.639 74.0473C128.355 74.5319 128.211 75.0873 128.224 75.6502C128.207 76.194 128.369 76.7281 128.685 77.1694C128.811 77.3605 128.982 77.5174 129.182 77.6261C129.382 77.7349 129.606 77.7922 129.834 77.7929C130.139 77.8038 130.442 77.749 130.724 77.632C131.006 77.5151 131.26 77.3388 131.469 77.115V80.0109L131.494 80.0235ZM139.793 80.2872H137.199V75.7506L135.025 80.2705H132.568V70.8333H135.174V75.5498L137.349 70.8333H139.805V80.2705L139.793 80.2872ZM147.452 77.274C147.492 78.034 147.246 78.7812 146.763 79.3665C146.21 79.9803 145.394 80.2886 144.315 80.2914H141.137V70.8333H146.788V73.4656H143.768V74.3696H144.597C144.992 74.3398 145.388 74.3942 145.761 74.529C146.133 74.6638 146.473 74.8761 146.759 75.1522C147.253 75.7429 147.501 76.5031 147.452 77.274ZM144.822 77.3075C144.822 76.8555 144.539 76.6253 143.992 76.6253H143.788V78.0315H144.054C144.581 78.0315 144.842 77.7887 144.842 77.3075H144.822ZM155.664 80.2705H153.062V75.7506L150.892 80.2705H148.436V70.8333H151.037V75.5498L153.216 70.8333H155.668V80.2705H155.664ZM163.34 74.1394C163.362 74.5247 163.308 74.9105 163.181 75.2746C163.054 75.6388 162.857 75.974 162.602 76.2612C162.322 76.5344 161.989 76.7459 161.624 76.8821C161.259 77.0182 160.87 77.0762 160.481 77.0522H159.651V80.2705H157.017V70.8333H160.195C160.653 70.7992 161.112 70.8729 161.537 71.0487C161.962 71.2244 162.341 71.4974 162.643 71.846C163.133 72.5053 163.378 73.3168 163.336 74.1394H163.34ZM160.705 73.9469C160.705 73.3736 160.444 73.1099 159.921 73.1099H159.656V74.8132H159.859C159.971 74.8267 160.085 74.8143 160.192 74.777C160.298 74.7397 160.395 74.6784 160.475 74.5978C160.555 74.5173 160.616 74.4194 160.653 74.3118C160.69 74.2041 160.702 74.0894 160.689 73.9762L160.705 73.9469ZM169.938 80.0235C169.345 80.3909 168.663 80.5864 167.967 80.5885C167.409 80.6066 166.854 80.4908 166.35 80.2508C165.845 80.0106 165.403 79.6531 165.062 79.2074C164.289 78.157 163.901 76.869 163.963 75.5623C163.963 73.9581 164.389 72.69 165.241 71.7581C165.571 71.3725 165.98 71.0636 166.44 70.8526C166.9 70.6417 167.399 70.5337 167.905 70.5361C168.617 70.5336 169.315 70.7322 169.921 71.1095V73.9929C169.485 73.5585 168.899 73.3123 168.286 73.3066C168.036 73.3047 167.789 73.3729 167.575 73.5037C167.36 73.6345 167.185 73.8226 167.07 74.0473C166.795 74.5348 166.659 75.0895 166.676 75.6502C166.659 76.194 166.821 76.7281 167.137 77.1694C167.263 77.3605 167.434 77.5174 167.634 77.6261C167.835 77.7349 168.059 77.7922 168.286 77.7929C168.591 77.8035 168.894 77.7486 169.176 77.6317C169.458 77.5148 169.712 77.3386 169.921 77.115V80.0109L169.938 80.0235ZM178.427 70.8165L175.958 75.4954L178.402 80.2705H175.373L173.643 76.3575V80.2705H171.012V70.8333H173.643V74.5705L175.477 70.8333L178.427 70.8165ZM186.319 80.2705H183.714V75.7506L181.539 80.2705H179.083V70.8333H181.689V75.5498L183.863 70.8333H186.319V80.2705ZM193.486 68C193.496 68.326 193.435 68.6503 193.309 68.9503C193.182 69.2503 192.991 69.5187 192.751 69.7368C192.358 70.1255 191.83 70.3433 191.28 70.3433C190.73 70.3433 190.202 70.1255 189.809 69.7368C189.569 69.5213 189.379 69.256 189.25 68.959C189.122 68.662 189.059 68.3406 189.066 68.0167H190.61C190.61 68.6487 190.83 68.9667 191.274 68.9667C191.718 68.9667 191.934 68.6487 191.934 68.0167L193.486 68ZM194.896 80.2705H192.295V75.7506L190.116 80.2705H187.664V70.8333H190.265V75.5498L192.44 70.8333H194.896V80.2705ZM133.701 96.7092H131.212V94.8175H125.871V85.3636H128.506V92.1852H130.257V85.3636H132.892V92.1852H133.701V96.7092ZM139.656 94.8175H134.569V85.3636H139.656V87.996H137.199V88.8748H139.431V91.2435H137.199V92.1852H139.656V94.8175ZM147.954 94.8175H145.32V91.2059H143.423V94.8175H140.793V85.3636H143.423V88.8372H145.295V85.3636H147.929V94.8175H147.954ZM154.477 88.1216H152.929V94.8175H150.295V88.1216H148.743V85.3761H154.46V88.1216H154.477ZM161.585 88.6823C161.607 89.0677 161.552 89.4534 161.426 89.8176C161.299 90.1817 161.102 90.517 160.846 90.8041C160.567 91.0773 160.234 91.2887 159.869 91.425C159.504 91.5611 159.115 91.6191 158.726 91.5951H157.896V94.8301H155.249V85.3636H158.427C158.885 85.3303 159.344 85.404 159.768 85.579C160.193 85.7539 160.572 86.0254 160.875 86.3723C161.365 87.0333 161.61 87.8458 161.568 88.6697L161.585 88.6823ZM158.95 88.4898C158.95 87.9165 158.689 87.6318 158.166 87.6318H157.896V89.3394H158.104C158.216 89.3528 158.33 89.3405 158.436 89.3032C158.543 89.2658 158.64 89.2046 158.72 89.124C158.8 89.0434 158.861 88.9456 158.898 88.838C158.935 88.7302 158.947 88.6155 158.934 88.5023L158.95 88.4898ZM133.66 110.967H131.17V109.356H127.697V110.967H125.208V106.715C125.697 106.715 126.037 106.406 126.237 105.795C126.418 105.063 126.495 104.309 126.465 103.556V99.894H132.784V106.715H133.651V110.955L133.66 110.967ZM130.145 106.715V102.531H128.975V103.97C128.975 105.365 128.761 106.282 128.332 106.72L130.145 106.715ZM141.764 109.344H139.158V104.811L136.983 109.344H134.527V99.894H137.129V104.606L139.274 99.894H141.764V109.344ZM148.402 106.728C148.415 107.12 148.343 107.509 148.193 107.87C148.042 108.231 147.817 108.555 147.531 108.821C146.941 109.368 146.162 109.661 145.361 109.637C144.302 109.672 143.268 109.311 142.456 108.624L143.178 106.406C143.596 106.867 144.175 107.144 144.793 107.18C144.999 107.186 145.203 107.129 145.378 107.017C145.476 106.95 145.556 106.859 145.609 106.752C145.662 106.645 145.687 106.525 145.681 106.406C145.681 105.962 145.419 105.74 144.892 105.74H144.17V103.409H144.826C145.398 103.409 145.681 103.171 145.681 102.698C145.681 102.225 145.369 102.066 144.747 102.066C144.188 102.083 143.652 102.299 143.236 102.677L142.593 100.522C143.359 99.9508 144.281 99.6321 145.232 99.6093C146.037 99.5739 146.825 99.8528 147.432 100.388C147.7 100.627 147.914 100.922 148.057 101.253C148.201 101.584 148.27 101.943 148.261 102.305C148.268 102.771 148.154 103.231 147.929 103.64C147.746 103.988 147.454 104.267 147.1 104.435V104.472C147.971 104.845 148.407 105.594 148.407 106.732L148.402 106.728ZM156.784 109.344H154.017L153.693 107.615H151.784L151.461 109.344H148.689L150.846 99.894H154.631L156.784 109.344ZM153.236 105.38L152.718 102.598L152.174 105.38H153.236ZM163.133 97.0942C163.143 97.4198 163.083 97.7437 162.957 98.0436C162.831 98.3435 162.642 98.6122 162.402 98.831C162.009 99.22 161.48 99.4379 160.929 99.4379C160.379 99.4379 159.85 99.22 159.456 98.831C159.217 98.6122 159.028 98.3435 158.902 98.0436C158.776 97.7437 158.716 97.4198 158.726 97.0942H160.265C160.265 97.7303 160.49 98.0484 160.929 98.0484C161.369 98.0484 161.593 97.7303 161.593 97.0942H163.133ZM164.548 109.365H161.942V104.811L159.768 109.344H157.311V99.894H159.913V104.606L162.095 99.894H164.552V109.344L164.548 109.365ZM173.025 109.365H170.394V105.757H168.523V109.365H165.888V99.894H168.523V103.367H170.394V99.894H173.025V109.344V109.365ZM181.676 109.365H178.909L178.585 107.636H176.676L176.353 109.365H173.585L175.739 99.9149H179.523L181.676 109.365ZM178.158 105.38L177.639 102.598L177.095 105.38H178.158Z" fill="black"/>
<path d="M82 75.63H86.9751V70.6289H82V75.63Z" fill="#0091FF"/>
<path d="M91.9463 85.632H86.9712V80.6309H91.9463V85.632Z" fill="#0091FF"/>
<path d="M82 85.6309H86.9751V90.632H82V85.6309Z" fill="#0091FF"/>
<path d="M91.9463 75.63H96.9172V70.6289H91.9463V75.63Z" fill="#D1D1D6"/>
<path d="M91.9463 75.6289H86.9712V80.63H91.9463V75.6289Z" fill="#D1D1D6"/>
<path d="M82 85.632H86.9751V80.6309H82V85.632Z" fill="#D1D1D6"/>
<path d="M91.9463 75.6289H96.9172V80.63H91.9463V75.6289Z" fill="#0091FF"/>
<path d="M101.888 75.63H96.917V70.6289H101.888V75.63Z" fill="#0091FF"/>
<path d="M101.888 75.6289H96.9085V80.6509H91.9292V85.6729H86.9914V90.674H82.0122V109.85H120.896V70.6445H101.888V75.6331V75.6289ZM104.323 93.1264H99.4396V88.2216H104.323V93.1348V93.1264Z" fill="black"/>
</g>
<defs>
<clipPath id="clip0_1306_3581">
<rect width="113" height="43" fill="white" transform="translate(82 68)"/>
</clipPath>
</defs>
</svg>
