<svg width="278" height="198" viewBox="0 0 278 198" fill="none" xmlns="http://www.w3.org/2000/svg">
<g clip-path="url(#clip0_1306_3579)">
<path d="M171.397 85.0009L173.052 81.6855H173.976L171.731 86.3006H171.047L169.764 83.5989V87.4H168.832V81.6855H169.743L171.397 85.0009Z" fill="#231F20"/>
<path d="M174.621 87.4L176.618 81.6855H177.554L179.547 87.4H178.525L178.136 86.2154H176.066L175.673 87.4H174.621ZM176.31 85.3887H177.841L177.075 83.079L176.31 85.3887Z" fill="#231F20"/>
<path d="M184.396 81.6855V87.4H183.429V82.5208H181.719V83.177C181.719 85.0392 181.634 85.802 181.428 86.339C181.163 87.0293 180.612 87.3446 179.782 87.4767V86.4412C179.951 86.4249 180.112 86.362 180.247 86.2597C180.383 86.1573 180.487 86.0195 180.548 85.8617C180.706 85.4355 180.753 84.7026 180.753 83.177V81.6855H184.396Z" fill="#231F20"/>
<path d="M186.602 81.6855V83.8546H187.457C188.962 83.8546 189.535 84.7069 189.535 85.6273C189.535 86.5478 188.962 87.4 187.397 87.4H185.636V81.6855H186.602ZM186.602 84.6685V86.5563H187.457C188.261 86.5563 188.603 86.1728 188.603 85.6103C188.603 85.0478 188.261 84.6685 187.457 84.6685H186.602ZM191.015 87.383H190.048V81.6855H191.015V87.383Z" fill="#231F20"/>
<path d="M193.233 81.6863V85.5897L195.769 81.6863H196.556V87.4007H195.594V83.54L193.067 87.4007H192.267V81.6863H193.233ZM196.008 80.1309C196.008 80.9576 195.495 81.3453 194.486 81.3453C193.477 81.3453 192.947 80.949 192.947 80.1309H193.845C193.845 80.4505 193.969 80.7104 194.473 80.7104C194.978 80.7104 195.106 80.4505 195.106 80.1309H196.008Z" fill="#231F20"/>
<path d="M203.563 82.5208H200.853V83.8546H201.887C203.388 83.8546 203.957 84.7069 203.957 85.6273C203.957 86.5478 203.388 87.4 201.887 87.4H199.891V81.6855H203.563V82.5208ZM200.853 84.6855V86.5733H201.853C202.657 86.5733 202.991 86.1898 202.991 85.6273C202.991 85.0648 202.657 84.6855 201.853 84.6855H200.853Z" fill="#231F20"/>
<path d="M205.808 81.6855V85.589L208.339 81.6855H209.13V87.4H208.168V83.5392L205.641 87.4H204.846V81.6855H205.808Z" fill="#231F20"/>
<path d="M211.512 84.0211H212.094C212.817 84.0211 213.107 83.6845 213.107 83.2029C213.107 82.7214 212.842 82.4401 212.167 82.4401C211.916 82.4137 211.664 82.478 211.457 82.6211C211.25 82.7642 211.101 82.9767 211.038 83.22H210.183C210.255 82.7506 210.5 82.3251 210.872 82.0277C211.243 81.7302 211.713 81.5824 212.188 81.6134C213.278 81.6134 214.082 82.1504 214.082 83.1433C214.085 83.4142 214.005 83.6795 213.852 83.9035C213.699 84.1275 213.481 84.2994 213.227 84.3961C213.524 84.4802 213.785 84.6593 213.969 84.9057C214.154 85.1521 214.252 85.4522 214.249 85.7597C214.249 86.7058 213.578 87.4643 212.197 87.4643C211.034 87.4643 210.268 86.9316 210.029 85.7597H210.957C211.027 86.021 211.187 86.2495 211.409 86.4053C211.631 86.561 211.9 86.6342 212.171 86.612C212.919 86.612 213.287 86.2839 213.287 85.7129C213.287 85.1418 212.885 84.8265 212.047 84.8265H211.508L211.512 84.0211Z" fill="#231F20"/>
<path d="M216.147 84.0293H218.345V81.6855H219.307V87.4H218.345V84.8432H216.147V87.4H215.181V81.6855H216.143L216.147 84.0293Z" fill="#231F20"/>
<path d="M224.087 81.6855V82.5378H221.522V84.0463H223.822V84.8986H221.522V86.6032H224.087V87.4299H220.573V81.6855H224.087Z" fill="#231F20"/>
<path d="M228.068 83.4597C228.048 83.1736 227.915 82.9069 227.699 82.7177C227.483 82.5285 227.2 82.4322 226.913 82.4498C226.148 82.4498 225.733 82.9483 225.733 84.1799V84.9086C225.733 86.1273 226.161 86.6387 226.913 86.6387C227.567 86.6387 227.918 86.3276 228.068 85.6287H228.991C228.799 86.9071 228.051 87.4782 226.913 87.4782C225.631 87.4782 224.775 86.7069 224.775 84.9213V84.1799C224.775 82.3816 225.631 81.623 226.913 81.623C228.051 81.623 228.807 82.2239 229 83.4682L228.068 83.4597Z" fill="#231F20"/>
<path d="M171.462 93.1568L173.116 89.8457H174.04V95.5602H173.108V91.725L171.795 94.448H171.115L169.833 91.7505V95.5517H168.905V89.8457H169.82L171.462 93.1568Z" fill="#231F20"/>
<path d="M177.216 95.6341C175.934 95.6341 175.079 94.8627 175.079 93.0772V92.34C175.079 90.5417 175.934 89.7832 177.216 89.7832C178.499 89.7832 179.354 90.5545 179.354 92.34V93.0687C179.367 94.8627 178.503 95.6341 177.216 95.6341ZM176.036 93.0772C176.036 94.3088 176.464 94.8074 177.216 94.8074C177.969 94.8074 178.409 94.3002 178.409 93.0687V92.34C178.409 91.1042 177.982 90.6056 177.221 90.6056C176.46 90.6056 176.041 91.1042 176.041 92.34L176.036 93.0772Z" fill="#231F20"/>
<path d="M183.463 91.6369C183.314 90.938 182.942 90.6227 182.309 90.6227C181.544 90.6227 181.129 91.1213 181.129 92.3571V93.0858C181.129 94.3002 181.556 94.8159 182.309 94.8159C182.967 94.8159 183.314 94.5005 183.463 93.8059H184.396C184.203 95.0843 183.459 95.6511 182.318 95.6511C181.035 95.6511 180.18 94.8798 180.18 93.0943V92.34C180.18 90.5417 181.035 89.7832 182.318 89.7832C183.459 89.7832 184.212 90.3883 184.404 91.6326L183.463 91.6369Z" fill="#231F20"/>
<path d="M188.5 95.5602L186.871 93.0971H186.243V95.5602H185.276V89.8457H186.243V92.2704H186.85L188.278 89.8457H189.343L187.705 92.6369L189.65 95.5602H188.5Z" fill="#231F20"/>
<path d="M192.225 89.8457C193.572 89.8457 194.264 90.34 194.264 91.3287C194.272 91.5989 194.193 91.8645 194.039 92.0874C193.885 92.3102 193.665 92.4787 193.409 92.5687C193.715 92.6311 193.988 92.8028 194.176 93.0516C194.364 93.3003 194.455 93.609 194.431 93.9196C194.431 94.7718 193.884 95.5602 192.396 95.5602H190.382V89.8457H192.225ZM191.344 92.1809H192.285C192.999 92.1809 193.298 91.8571 193.298 91.3841C193.298 90.911 193.076 90.6724 192.161 90.6724H191.344V92.1809ZM191.344 94.7377H192.353C193.123 94.7377 193.482 94.4267 193.482 93.8855C193.482 93.3443 193.084 93.0332 192.233 93.0332H191.344V94.7377Z" fill="#231F20"/>
<path d="M196.368 89.8457V92.0147H197.223C198.728 92.0147 199.301 92.867 199.301 93.7875C199.301 94.7079 198.728 95.5602 197.163 95.5602H195.384V89.8457H196.368ZM196.368 92.8287V94.7164H197.223C198.027 94.7164 198.369 94.3372 198.369 93.7747C198.369 93.2122 198.027 92.8287 197.223 92.8287H196.368ZM200.78 95.5474H199.788V89.8457H200.755L200.78 95.5474Z" fill="#231F20"/>
<path d="M110.464 78.2949H115.035L120.593 88.65L126.104 78.2949H130.705V98.7069H126.075V87.1713L121.863 95.3319H119.221L115.094 87.2608V98.7069H110.464V78.2949Z" fill="#231F20"/>
<path d="M148.373 86.902V90.098C148.373 92.9787 147.652 95.1818 146.209 96.7074C144.767 98.233 142.797 98.9972 140.3 99C137.806 99 135.838 98.2358 134.395 96.7074C132.953 95.179 132.232 92.9759 132.232 90.098V86.902C132.232 84.0043 132.945 81.7955 134.37 80.2756C135.795 78.7557 137.772 77.9972 140.3 78C142.814 78 144.788 78.7585 146.222 80.2756C147.656 81.7926 148.373 84.0014 148.373 86.902ZM137.158 86.902V90.098C137.158 93.3111 138.205 94.9176 140.3 94.9176C142.395 94.9176 143.444 93.3111 143.447 90.098V86.902C143.447 83.6889 142.398 82.0824 140.3 82.0824C138.202 82.0824 137.155 83.6889 137.158 86.902Z" fill="#231F20"/>
<path d="M163.906 81.3409L160.255 83.9659C159.925 83.3644 159.432 82.868 158.831 82.5341C158.133 82.2176 157.369 82.0715 156.603 82.108C155.041 82.108 154.26 82.6989 154.26 83.8807C154.263 84.1767 154.34 84.4673 154.485 84.7258C154.63 84.9842 154.838 85.2021 155.09 85.3594C155.964 85.8902 156.916 86.28 157.912 86.5142C160.164 87.1648 161.746 87.9631 162.658 88.9091C163.57 89.8551 164.036 91.1903 164.056 92.9148C164.056 94.8125 163.432 96.3011 162.183 97.3807C160.935 98.4602 159.175 99 156.903 99C155.26 99.0478 153.622 98.7817 152.08 98.2159C150.752 97.6706 149.591 96.7892 148.71 95.6591L152.392 93.1023C152.882 93.707 153.509 94.188 154.22 94.5064C154.932 94.8247 155.709 94.9715 156.488 94.9347C157.178 94.9808 157.866 94.8157 158.459 94.4616C158.671 94.3187 158.844 94.1245 158.96 93.8973C159.077 93.67 159.134 93.4171 159.126 93.1619C159.127 92.8727 159.054 92.5879 158.914 92.3344C158.775 92.0809 158.572 91.8671 158.327 91.7131C157.89 91.3778 156.871 90.9432 155.269 90.4091C153.191 89.7415 151.684 88.8991 150.746 87.8821C149.776 86.7876 149.27 85.3607 149.335 83.902C149.298 83.0915 149.445 82.2831 149.767 81.5377C150.088 80.7922 150.575 80.1291 151.19 79.598C152.427 78.5327 154.212 78 156.544 78C160.004 78 162.458 79.1136 163.906 81.3409Z" fill="#231F20"/>
<path d="M58.1164 88.6532L63.6321 78.3066H68.2327V98.7058H63.6021V87.1788L59.3905 95.335H56.7524L52.6263 87.264V98.7058H48V78.3066H52.5665L58.1164 88.6532Z" fill="#231F20"/>
<path d="M77.4557 78.3066C82.2915 78.3066 85.1092 80.0112 85.1092 83.7186C85.1092 85.8152 84.1899 87.0297 82.7661 87.9799C84.6346 88.8961 85.7591 90.345 85.7591 92.8592C85.7591 96.1106 83.5614 98.71 78.1056 98.71H70.3066V78.3066H77.4557ZM75.2323 86.0964H77.3103C79.2942 86.0964 80.1878 85.4743 80.1878 84.2939C80.1878 83.1135 79.5636 82.372 76.8613 82.372H75.2323V86.0964ZM75.2323 94.6404H77.5754C79.7688 94.6404 80.8378 93.9032 80.8378 92.3947C80.8378 90.737 79.7132 90.1745 77.2205 90.1745H75.2323V94.6404Z" fill="#231F20"/>
<path d="M97.6584 88.6532L103.157 78.3066H107.775L98.9325 95.3521H96.3158L92.1683 87.264V98.7058H87.542V78.3066H92.1085L97.6584 88.6532Z" fill="#231F20"/>
<path d="M105.466 98.7187C106.739 98.7187 107.77 97.6904 107.77 96.4219C107.77 95.1533 106.739 94.125 105.466 94.125C104.193 94.125 103.161 95.1533 103.161 96.4219C103.161 97.6904 104.193 98.7187 105.466 98.7187Z" fill="#ED174C"/>
</g>
<defs>
<clipPath id="clip0_1306_3579">
<rect width="181" height="21" fill="white" transform="translate(48 78)"/>
</clipPath>
</defs>
</svg>
