<svg width="278" height="198" viewBox="0 0 278 198" fill="none" xmlns="http://www.w3.org/2000/svg">
<g clip-path="url(#clip0_972_2974)">
<path d="M111.156 72.8743C110.001 71.9796 108.694 71.3069 107.3 70.8894C103.494 69.6942 97.4187 70.5372 95.4838 74.3327C95.2417 74.7074 95.087 75.1332 95.0316 75.5778C95.0331 75.5848 95.0331 75.5921 95.0316 75.5991C95.0102 75.7678 94.9996 75.9377 95 76.1078C95.0016 76.516 95.0868 76.9194 95.2504 77.2924C95.4139 77.6653 95.6522 77.9997 95.95 78.2741C96.2379 78.5569 96.5791 78.778 96.9531 78.924C97.3271 79.0701 97.7263 79.1382 98.1268 79.1243C98.543 79.1248 98.9552 79.0418 99.3396 78.8801C99.724 78.7183 100.073 78.4809 100.367 78.1816C100.657 77.8971 100.885 77.5536 101.036 77.1736C101.187 76.7936 101.258 76.3856 101.243 75.9762C101.236 75.5649 101.139 75.1603 100.959 74.7916C100.646 74.1274 100.123 73.5888 99.4729 73.262C100.315 72.8431 101.232 72.6022 102.168 72.5539C103.105 72.5056 104.041 72.6509 104.92 72.981C105.788 73.3045 106.59 73.7868 107.286 74.4039C107.652 74.7549 107.986 75.1382 108.285 75.5493C108.643 76.0418 108.94 76.577 109.169 77.1429C109.45 77.8335 109.672 78.5476 109.831 79.2772C110.024 80.1762 110.126 81.0927 110.136 82.0127C110.171 83.2806 110.054 84.548 109.786 85.7869C109.536 86.9335 109.07 88.0205 108.415 88.9883C106.96 91.1226 104.682 92.1471 102.151 92.1258C100.057 92.159 97.9952 91.6051 96.1918 90.525L95.3505 92.8123C97.58 93.9115 100.503 94.4095 102.95 94.3561C103.779 94.3407 104.605 94.2718 105.425 94.1498C106.222 94.0309 107.007 93.8404 107.77 93.5807C108.535 93.3186 109.268 92.9715 109.957 92.5455C110.695 92.0846 111.374 91.5339 111.98 90.9057C112.638 90.2712 113.213 89.5539 113.691 88.7713C114.121 88.0511 114.48 87.2897 114.763 86.4983C115.027 85.7678 115.217 85.0123 115.331 84.2431C115.432 83.5292 115.476 82.8084 115.464 82.0874C115.471 80.1786 115.029 78.2957 114.174 76.5951C113.437 75.1538 112.408 73.8861 111.156 72.8743Z" fill="#13110C"/>
<path d="M128.017 78.5499C129.475 78.5961 130.32 78.8807 130.32 80.6059V84.1026H123.586V80.6059C123.586 78.902 124.414 78.6139 125.837 78.5499H125.889V76.9883H116.856V78.5499C118.314 78.5961 119.229 78.8807 119.229 80.6059V90.2708C119.229 91.996 118.314 92.2806 116.856 92.3269V93.8885H125.889V92.3269C124.431 92.2806 123.586 91.996 123.586 90.2708V88.3179V86.0449H130.32V90.2708C130.32 91.996 129.475 92.2806 128.017 92.3269V93.8885H137.064V92.3269C135.606 92.2806 134.691 91.996 134.691 90.2708V87.6954V82.3027V80.6059C134.691 78.8807 135.606 78.5961 137.064 78.5499V76.9883H128.017V78.5499Z" fill="#13110C"/>
<path d="M154.486 81.0827C154.24 80.5651 153.93 80.081 153.564 79.642C153.263 79.2779 152.938 78.9356 152.59 78.6175C151.844 77.9797 150.994 77.4811 150.077 77.1448C148.974 76.7432 147.809 76.5491 146.638 76.5721C145.445 76.5672 144.257 76.7361 143.111 77.0737C142.032 77.3887 141.026 77.9197 140.153 78.6353C139.275 79.3787 138.579 80.3172 138.116 81.3779C137.575 82.6649 137.314 84.0556 137.352 85.4544C137.317 86.7939 137.556 88.1261 138.053 89.3673C138.485 90.4125 139.145 91.3443 139.985 92.0921C140.815 92.8182 141.786 93.3609 142.834 93.6858C143.959 94.04 145.131 94.2164 146.308 94.2087C147.341 94.1992 148.37 94.0655 149.372 93.8103C150.44 93.5483 151.446 93.0757 152.334 92.4194C153.271 91.7136 154.029 90.7918 154.546 89.7302C155.123 88.599 155.413 87.1536 155.415 85.394C155.426 84.5819 155.337 83.7716 155.149 82.9822C154.997 82.3265 154.774 81.6895 154.486 81.0827ZM150.357 87.4856C150.243 88.2626 150.029 89.0209 149.719 89.7408C149.43 90.4346 148.996 91.0562 148.447 91.5621C147.866 92.0755 147.113 92.3429 146.343 92.3091C145.594 92.3387 144.864 92.0707 144.307 91.5621C143.766 91.0515 143.337 90.4309 143.048 89.7408C142.739 89.0146 142.524 88.2505 142.41 87.4678C142.299 86.7618 142.241 86.0484 142.235 85.3335C142.21 84.3181 142.31 83.3036 142.533 82.3134C142.689 81.6794 142.909 81.0632 143.188 80.4744C143.3 80.2399 143.438 80.0192 143.599 79.8163C143.787 79.5725 144 79.3506 144.237 79.1547C144.83 78.6671 145.577 78.4144 146.34 78.4432C146.733 78.4279 147.125 78.492 147.493 78.6318C147.861 78.7717 148.199 78.9845 148.485 79.2578C149.045 79.8103 149.48 80.4789 149.761 81.2178C150.058 81.967 150.268 82.749 150.385 83.5478C150.478 84.1792 150.531 84.8161 150.543 85.4544C150.531 86.1412 150.469 86.8261 150.357 87.5034V87.4856Z" fill="#13110C"/>
<path d="M172.746 78.9668C172.085 78.405 171.345 77.9459 170.551 77.6044C169.448 77.1548 168.266 76.9428 167.078 76.9819C165.707 76.9718 164.355 77.308 163.145 77.9601C161.941 78.6064 160.916 79.5495 160.165 80.7027H160.095C160.113 79.5396 160.367 78.3928 160.842 77.3341C161.212 76.5482 161.749 75.8557 162.415 75.3065C163.042 74.809 163.755 74.4372 164.519 74.2108C165.264 73.9853 166.025 73.8118 166.794 73.6915L169.598 73.2753C170.23 73.1846 170.852 73.0333 171.456 72.8235C172.046 72.619 172.597 72.3108 173.082 71.9129C173.596 71.4842 174.023 70.9588 174.341 70.3655C174.728 69.6294 174.98 68.8278 175.084 68H173.1C173.021 68.2357 172.882 68.4461 172.697 68.6103C172.513 68.7745 172.289 68.8866 172.048 68.9355C171.469 69.1028 170.877 69.2218 170.278 69.2913L167.474 69.647C166.93 69.7146 166.377 69.807 165.809 69.9244C165.223 70.0435 164.649 70.2112 164.091 70.426C162.817 70.9134 161.671 71.6911 160.74 72.699C160.095 73.407 159.559 74.2092 159.148 75.0788C158.704 76.0198 158.352 77.0028 158.097 78.0135C157.841 79.0486 157.656 80.1005 157.543 81.1616C157.429 82.1939 157.371 83.2318 157.368 84.2706C157.369 84.9419 157.404 85.6127 157.473 86.2804C157.544 86.9794 157.674 87.6709 157.862 88.3471C158.057 89.0394 158.337 89.704 158.696 90.3249C159.08 90.9828 159.564 91.5747 160.13 92.0786C160.828 92.6606 161.603 93.1396 162.433 93.5015C163.645 94.0117 164.95 94.2542 166.261 94.2129C167.323 94.2074 168.382 94.0785 169.416 93.8287C170.484 93.5832 171.491 93.117 172.374 92.4592C173.301 91.7498 174.054 90.8316 174.572 89.7771C175.195 88.4517 175.493 86.9935 175.441 85.5262C175.478 84.192 175.229 82.8657 174.712 81.6382C174.256 80.613 173.585 79.7013 172.746 78.9668ZM170.46 87.4685C170.399 88.2178 170.232 88.9544 169.966 89.6561C169.694 90.3709 169.264 91.0124 168.708 91.5308C168.058 92.0912 167.221 92.3765 166.369 92.3276C165.542 92.3795 164.727 92.0983 164.102 91.545C163.557 91.0257 163.138 90.3852 162.878 89.6739C162.607 88.9541 162.434 88.2002 162.363 87.4329C162.293 86.6717 162.258 86.0456 162.258 85.5618C162.231 84.5627 162.332 83.5642 162.559 82.5916C162.712 81.9851 162.932 81.398 163.215 80.8414C163.509 80.2971 163.915 79.8238 164.406 79.4541C164.99 79.0362 165.695 78.8283 166.408 78.8636C167.158 78.8281 167.898 79.0471 168.511 79.4861C169.06 79.9109 169.498 80.4653 169.787 81.1011C170.108 81.8032 170.318 82.5523 170.408 83.3208C170.513 84.1204 170.566 84.926 170.569 85.7326C170.551 86.1416 170.52 86.7286 170.46 87.4685Z" fill="#13110C"/>
<path d="M181.769 90.8761C181.619 90.5448 181.408 90.2455 181.148 89.9939C180.887 89.737 180.582 89.5308 180.247 89.3856C179.737 89.1665 179.174 89.1039 178.629 89.2057C178.084 89.3075 177.58 89.5692 177.18 89.9584C176.916 90.212 176.707 90.519 176.567 90.8597C176.427 91.2004 176.359 91.5671 176.367 91.9361C176.36 92.2997 176.43 92.6605 176.57 92.9951C176.71 93.3298 176.918 93.6307 177.18 93.8784C177.436 94.1371 177.74 94.3413 178.075 94.4788C178.41 94.6162 178.768 94.6842 179.129 94.6787C179.887 94.6964 180.62 94.4086 181.169 93.8784C181.436 93.6332 181.648 93.3331 181.791 92.9982C181.934 92.6633 182.006 92.3012 182 91.9361C182.001 91.5698 181.922 91.2079 181.769 90.8761Z" fill="#13110C"/>
<path d="M159.622 101C159.236 101 158.738 100.645 158.367 100.381L158.43 100.218C158.806 100.363 159.198 100.463 159.597 100.517C160.144 100.517 160.4 100.321 160.4 99.9616C160.4 99.0937 158.545 99.6059 158.545 98.3289C158.545 97.7384 159.176 97.3542 159.769 97.3542C160.148 97.347 160.526 97.3973 160.891 97.5036L160.768 97.9305L159.366 97.5747C159.265 97.616 159.175 97.6827 159.107 97.7686C159.038 97.8545 158.992 97.9567 158.973 98.0656C158.973 98.9692 160.957 98.5032 160.957 99.8122C160.961 100.623 160.274 101 159.622 101Z" fill="#1D1D1B"/>
<path d="M163.79 97.3926C164.459 97.3926 165.122 97.823 165.122 98.8973V100.701L165.728 100.772V100.882H163.919V100.772L164.473 100.701V98.8973C164.473 98.04 163.965 97.7768 163.52 97.7768C163.216 97.794 162.925 97.9016 162.682 98.0862V100.701L163.299 100.772V100.882H161.49V100.772L162.037 100.701V98.1431L161.602 97.4708H162.692V97.8266L163.79 97.3926Z" fill="#1D1D1B"/>
<path d="M167.772 100.999C167.541 100.996 167.314 100.946 167.103 100.851C166.893 100.757 166.703 100.62 166.546 100.449C166.389 100.279 166.267 100.077 166.189 99.8575C166.11 99.6377 166.076 99.4042 166.089 99.1708C166.089 97.9543 166.818 97.346 167.772 97.346C168.009 97.3336 168.246 97.3728 168.467 97.4607C168.689 97.5487 168.889 97.6835 169.055 97.8562C169.22 98.0289 169.348 98.2354 169.429 98.4621C169.51 98.6888 169.543 98.9304 169.524 99.1708C169.529 99.4079 169.486 99.6435 169.4 99.864C169.314 100.084 169.186 100.286 169.023 100.455C168.86 100.625 168.666 100.761 168.451 100.854C168.236 100.948 168.005 100.997 167.772 100.999ZM167.772 97.5558C167.197 97.5558 166.811 98.1321 166.811 99.1708C166.811 100.21 167.197 100.786 167.772 100.786C168.347 100.786 168.823 100.202 168.823 99.1708C168.823 98.1392 168.35 97.5558 167.772 97.5558Z" fill="#1D1D1B"/>
<path d="M170.282 100.505V95.7778L169.84 95.1055H170.927V97.8801L171.978 97.3785C172.19 97.3839 172.398 97.4324 172.591 97.521C172.784 97.6096 172.958 97.7366 173.102 97.8945C173.246 98.0523 173.357 98.2378 173.429 98.4401C173.501 98.6423 173.532 98.8571 173.52 99.0717C173.521 99.5686 173.332 100.046 172.994 100.406C172.656 100.765 172.194 100.978 171.705 101C171.193 100.981 170.698 100.809 170.282 100.505ZM172.858 99.0824C172.867 98.9212 172.843 98.76 172.788 98.6086C172.733 98.4571 172.648 98.3187 172.538 98.2018C172.428 98.0849 172.296 97.9919 172.15 97.9287C172.004 97.8654 171.846 97.8331 171.687 97.8338C171.416 97.8412 171.153 97.925 170.927 98.0757V100.566C171.117 100.673 171.332 100.727 171.55 100.722C171.94 100.701 172.858 100.42 172.858 99.0717V99.0824Z" fill="#1D1D1B"/>
<path d="M174.456 99.9434C174.582 99.9489 174.701 100.003 174.787 100.096C174.874 100.188 174.923 100.31 174.923 100.438C174.923 100.567 174.872 100.691 174.782 100.782C174.692 100.874 174.57 100.925 174.442 100.925C174.315 100.925 174.193 100.874 174.103 100.782C174.013 100.691 173.962 100.567 173.962 100.438C173.963 100.372 173.976 100.308 174.001 100.248C174.026 100.187 174.062 100.133 174.108 100.087C174.154 100.041 174.209 100.005 174.268 99.9799C174.328 99.9553 174.392 99.9429 174.456 99.9434Z" fill="#1D1D1B"/>
<path d="M176.675 99.47V100.701L177.377 100.772V100.882H175.494V100.772L176.041 100.701V98.1432L175.603 97.4709H176.675V98.6875C176.959 97.8622 177.306 97.4851 177.885 97.3535L178.06 97.9084C177.226 98.0721 176.675 98.5416 176.675 99.47Z" fill="#1D1D1B"/>
<path d="M181.071 100.882V100.327L180.118 100.96C179.378 100.96 178.793 100.772 178.793 99.4592V98.143L178.347 97.4707H179.438V99.4592C179.438 100.359 179.788 100.526 180.202 100.526C180.525 100.476 180.827 100.331 181.071 100.11V98.1537L180.622 97.4814H181.716V100.893L181.071 100.882Z" fill="#1D1D1B"/>
</g>
<defs>
<clipPath id="clip0_972_2974">
<rect width="87" height="33" fill="white" transform="translate(95 68)"/>
</clipPath>
</defs>
</svg>
