<svg width="278" height="198" viewBox="0 0 278 198" fill="none" xmlns="http://www.w3.org/2000/svg">
<path d="M118.536 85.0767V69.546H113.777V67.6113H127.048V69.546H122.316V85.0767H118.536Z" fill="#0A0A0A"/>
<path d="M126.129 85.0767L132.003 67.6113H136.164L141.658 85.0767H137.687L136.164 80.1864H130.018L128.413 85.0767H126.129ZM130.562 78.4936H135.648L133.227 70.2714H133.173L130.562 78.4936Z" fill="#0A0A0A"/>
<path d="M143.573 67.6113H148.985C150.997 67.6113 152.556 68.1129 153.662 69.116C154.786 70.1013 155.349 71.5701 155.349 73.5227C155.349 74.9199 155.04 76.0753 154.424 76.9889C153.807 77.9024 153.019 78.5742 152.058 79.0041C151.097 79.4161 150.1 79.6222 149.066 79.6222H147.326V85.0767H143.573V67.6113ZM148.631 77.9024C149.538 77.9024 150.208 77.5979 150.644 76.9889C151.079 76.3619 151.296 75.2603 151.296 73.6839C151.296 72.0896 151.079 70.9701 150.644 70.3252C150.208 69.6803 149.538 69.3579 148.631 69.3579H147.326V77.9024H148.631Z" fill="#0A0A0A"/>
<path d="M157.394 85.0767V67.6113H161.147V76.6617L162.751 74.5437L167.946 67.6113H170.557L165.199 74.4363L171.808 85.0767H167.048L162.316 77.2308L161.147 78.5686V85.0767H157.394Z" fill="#0A0A0A"/>
<path d="M173.738 85.0767V67.6113H177.491V79.1922L177.301 80.9387H177.355L184.209 68.2025L184.453 67.6113H187.935V85.0767H184.182V73.7914L184.345 71.8568H184.317L177.491 84.4856L177.274 85.0767H173.738Z" fill="#0A0A0A"/>
<path fill-rule="evenodd" clip-rule="evenodd" d="M102.575 85.9408C104.772 85.9408 107.34 81.7139 108.311 76.4997C109.281 71.2855 108.287 67.0586 106.09 67.0586C103.893 67.0586 101.325 71.2855 100.355 76.4997C99.3843 81.7139 100.379 85.9408 102.575 85.9408ZM93.9957 85.9408C96.1927 85.9408 98.7604 81.7139 99.731 76.4997C100.701 71.2855 99.7072 67.0586 97.5102 67.0586C95.3133 67.0586 92.7455 71.2855 91.775 76.4997C90.8045 81.7139 91.7987 85.9408 93.9957 85.9408Z" fill="#0A0A0A"/>
</svg>
