<svg width="278" height="198" viewBox="0 0 278 198" fill="none" xmlns="http://www.w3.org/2000/svg">
<g clip-path="url(#clip0_965_3231)">
<path d="M142.62 78.5874C142.053 78.8646 141.474 79.0032 140.869 78.9906C139.911 78.978 139.18 78.5748 138.664 77.7684C138.147 76.962 137.895 76.0044 137.908 74.9082C137.92 74.0388 138.097 73.245 138.437 72.5016C138.79 71.7582 139.281 71.0022 139.911 70.2336L144.044 77.5038C143.666 77.9574 143.187 78.3102 142.62 78.5874ZM149.235 77.2014C149.84 76.0422 150.319 74.7318 150.672 73.2576C151.024 71.7834 151.226 70.3848 151.264 69.0366L147.068 68.9988C147.03 69.717 146.967 70.3974 146.866 71.0526C146.766 71.7078 146.627 72.3 146.451 72.8418L141.574 63.9966C141.02 62.9508 140.566 61.9806 140.239 61.086C139.899 60.1914 139.735 59.3976 139.747 58.7172C139.747 58.062 139.911 57.4446 140.239 56.8398C140.554 56.2476 141.133 55.9578 141.965 55.9578C142.532 55.9578 143.049 56.1216 143.527 56.4366C144.006 56.7516 144.372 57.2556 144.636 57.9486L148.63 55.9704C147.963 54.4458 147.043 53.3622 145.884 52.707C144.724 52.0518 143.326 51.7242 141.688 51.7116C140.73 51.699 139.861 51.8754 139.067 52.2282C138.273 52.581 137.605 53.0598 137.038 53.6898C136.484 54.3072 136.056 55.038 135.741 55.8948C135.438 56.739 135.274 57.6588 135.274 58.6416C135.262 59.8008 135.438 60.9348 135.778 62.0184C136.131 63.1146 136.522 64.0722 136.963 64.9038L137.757 66.3402C136.408 67.6128 135.35 68.9358 134.594 70.3092C133.838 71.6826 133.447 73.2702 133.435 75.0594C133.422 76.2816 133.573 77.403 133.901 78.411C134.216 79.4316 134.67 80.2884 135.262 81.0192C135.854 81.7374 136.547 82.2918 137.366 82.695C138.185 83.0856 139.08 83.2872 140.062 83.2998C141.133 83.3124 142.179 83.1738 143.187 82.8966C144.208 82.6194 145.178 82.0146 146.11 81.0696L147.257 83.0856L152.574 83.136L149.235 77.2014Z" fill="black"/>
<path d="M168.009 54.2185C166.686 52.7317 164.595 51.9883 161.734 51.9883H154.855V83.0725H159.681V71.1529H161.646C163.259 71.1529 164.582 70.9135 165.64 70.4347C166.699 69.9559 167.556 69.3007 168.211 68.4439C168.866 67.5997 169.332 66.5791 169.597 65.3821C169.861 64.1851 170 62.8621 170 61.4005C170 58.0993 169.332 55.7053 168.009 54.2185ZM164.481 65.2687C163.902 66.1255 162.868 66.5413 161.382 66.5413H159.681V56.4865H161.47C162.957 56.4865 163.977 56.9275 164.532 57.8095C165.086 58.6915 165.363 59.9011 165.363 61.4257C165.351 63.1393 165.061 64.4119 164.481 65.2687Z" fill="black"/>
<path d="M118.138 51.9766H115.757V56.0968C115.757 57.319 114.862 58.2262 113.665 58.2262C112.519 58.2262 111.763 57.3694 111.775 56.0968H107C106.987 59.9902 109.885 63.0016 113.665 63.0016C117.395 63.0016 120.331 60.1666 120.52 56.4748H123.141V83.0482H127.966V56.4874H132.956V51.9766H118.138Z" fill="black"/>
</g>
<defs>
<clipPath id="clip0_965_3231">
<rect width="63" height="63" fill="white" transform="translate(107 36)"/>
</clipPath>
</defs>
</svg>
