<svg width="278" height="198" viewBox="0 0 278 198" fill="none" xmlns="http://www.w3.org/2000/svg">
<path d="M139.962 66.3174H141.721V66.9374H141.944C142.432 66.9374 142.869 67.0289 143.256 67.1916C143.652 67.3643 143.957 67.6083 144.191 67.9234C144.414 68.2283 144.536 68.6146 144.536 69.0517C144.536 69.4887 144.414 69.875 144.191 70.1901C143.957 70.5052 143.652 70.7491 143.256 70.9117C142.869 71.0845 142.432 71.1659 141.944 71.1659H141.721V71.7961H139.962V71.1659H139.739C139.251 71.1659 138.814 71.0845 138.427 70.9117C138.031 70.7491 137.726 70.5052 137.492 70.1901C137.269 69.875 137.147 69.4887 137.147 69.0517C137.147 68.6146 137.269 68.2283 137.492 67.9234C137.726 67.6083 138.031 67.3643 138.427 67.1916C138.814 67.0289 139.251 66.9374 139.739 66.9374H139.962V66.3174ZM138.915 69.0517C138.915 69.3261 139.007 69.4989 139.19 69.5802C139.373 69.6615 139.627 69.7123 139.962 69.7225V68.391C139.627 68.4011 139.373 68.4519 139.19 68.5333C139.007 68.6146 138.915 68.7874 138.915 69.0517ZM142.768 69.0517C142.768 68.7874 142.676 68.6146 142.493 68.5333C142.31 68.4519 142.056 68.4011 141.721 68.391V69.7225C142.056 69.7123 142.31 69.6615 142.493 69.5802C142.676 69.4989 142.768 69.3261 142.768 69.0517ZM145.085 69.0517C145.085 68.6146 145.156 68.2182 145.319 67.8624C145.471 67.5067 145.685 67.2017 145.969 66.9476C146.244 66.6935 146.569 66.5004 146.935 66.3581C147.311 66.2259 147.708 66.1548 148.135 66.1548C148.714 66.1548 149.242 66.2768 149.7 66.5207C150.157 66.7545 150.523 67.1001 150.787 67.527C151.052 67.9641 151.184 68.4723 151.184 69.0517C151.184 69.4887 151.113 69.8953 150.96 70.2612C150.818 70.617 150.604 70.9321 150.33 71.1964C150.066 71.4708 149.74 71.6741 149.364 71.8164C148.998 71.9587 148.582 72.0298 148.135 72.0298C147.687 72.0298 147.271 71.9587 146.905 71.8164C146.529 71.6741 146.203 71.4708 145.929 71.1964C145.665 70.9321 145.451 70.617 145.299 70.2612C145.156 69.8953 145.085 69.4887 145.085 69.0517ZM146.905 69.0517C146.905 69.4582 147.016 69.7835 147.23 70.0274C147.453 70.2816 147.748 70.4035 148.135 70.4035C148.521 70.4035 148.826 70.2816 149.039 70.0274C149.253 69.7835 149.364 69.4582 149.364 69.0517C149.364 68.6552 149.263 68.33 149.049 68.0759C148.836 67.8319 148.531 67.7099 148.135 67.7099C147.748 67.7099 147.453 67.8319 147.23 68.0759C147.016 68.33 146.905 68.6552 146.905 69.0517ZM151.967 66.3174H153.694V68.1978H155.646V66.3174H157.374V71.7961H155.646V69.7225H153.694V71.7961H151.967V66.3174ZM163.127 71.7961H159.996V72.66H158.228V70.3425H159.265L161.562 66.043L163.849 70.3425H164.886V72.66H163.127V71.7961ZM161.562 68.9602L161.084 70.3425H162.04L161.562 68.9602ZM137.381 75.933H139.19V77.9557L140.867 75.933H142.869L140.735 78.4944L142.991 81.4116H140.908L139.19 79.1856V81.4116H137.381V75.933ZM143.5 75.933H145.654C146.457 75.933 147.037 76.0956 147.403 76.4311C147.769 76.7665 147.941 77.2239 147.941 77.8134C147.941 78.3928 147.769 78.8502 147.403 79.1856C147.037 79.521 146.457 79.6837 145.654 79.6837H145.217V81.4116H143.5V75.933ZM145.654 77.3052H145.217V78.3216H145.654C145.868 78.3216 146.03 78.2708 146.142 78.1895C146.244 78.098 146.305 77.976 146.305 77.8134C146.305 77.6508 146.244 77.5186 146.142 77.4373C146.03 77.3459 145.868 77.3052 145.654 77.3052ZM148.724 75.933H152.678V77.3052H150.371V77.9252H152.526V79.2568H150.371V80.0394H152.678V81.4116H148.724V75.933ZM157.344 81.4116L156.947 80.7103H155.453L155.067 81.4116H153.115L156.205 75.5366L159.295 81.4116H157.344ZM156.205 78.4233L155.738 79.4702H156.673L156.205 78.4233ZM158.706 77.4577V75.933H163.564V77.4577H161.999V81.4116H160.271V77.4577H158.706ZM165.76 75.933V78.4131L169.317 75.6586V81.4116H167.671V78.9315L164.113 81.6861V75.933H165.76ZM175.253 79.9073C175.253 80.446 175.05 80.8323 174.643 81.066C174.247 81.2998 173.688 81.4116 172.956 81.4116H170.415V75.933H172.804C173.21 75.933 173.576 75.9838 173.891 76.0855C174.217 76.1871 174.471 76.3497 174.654 76.553C174.847 76.7665 174.938 77.0308 174.938 77.3357C174.938 77.6 174.867 77.8337 174.735 78.0269C174.603 78.22 174.41 78.3826 174.176 78.4944C174.481 78.6164 174.735 78.7892 174.938 79.023C175.152 79.2568 175.253 79.5515 175.253 79.9073ZM172.57 77.2239H172.133V78.0879H172.57C172.763 78.0879 172.905 78.0472 172.997 77.9659C173.088 77.8846 173.139 77.7728 173.139 77.6305C173.139 77.356 172.946 77.2239 172.57 77.2239ZM172.133 80.1208H172.722C172.854 80.1208 172.976 80.1106 173.078 80.0903C173.19 80.0699 173.281 80.0191 173.353 79.9581C173.414 79.887 173.454 79.7752 173.454 79.6329C173.454 79.4499 173.383 79.3381 173.231 79.2873C173.088 79.2466 172.926 79.2161 172.722 79.2161H172.133V80.1208ZM176.117 75.933H177.835V77.8134H179.787V75.933H181.515V81.4116H179.787V79.3381H177.835V81.4116H176.117V75.933ZM187.542 75.933H189.301V81.4116H187.542V75.933ZM182.612 75.933H184.33V77.6508H184.767C185.57 77.6508 186.15 77.8236 186.516 78.1488C186.871 78.4843 187.054 78.9518 187.054 79.5312C187.054 80.1208 186.871 80.5782 186.516 80.9136C186.15 81.2388 185.57 81.4116 184.767 81.4116H182.612V75.933ZM184.767 79.023H184.33V80.0394H184.767C184.981 80.0394 185.143 79.9988 185.245 79.9073C185.357 79.8158 185.408 79.6938 185.408 79.5312C185.408 79.3686 185.357 79.2466 185.245 79.1551C185.143 79.0636 184.981 79.023 184.767 79.023ZM193.57 75.933H195.725L193.946 78.6367L195.836 81.4116H193.692L192.858 79.8768L192.004 81.4116H189.849L191.791 78.6367L190.043 75.933H192.197L192.868 77.2544L193.57 75.933ZM139.027 85.5486V88.0287L142.595 85.2741V91.0272H140.948V88.5471L137.381 91.3017V85.5486H139.027ZM143.682 85.5486H145.41V87.429H147.362V85.5486H149.09V91.0272H147.362V88.9537H145.41V91.0272H143.682V85.5486ZM154.843 91.0272H151.712V91.8912H149.954V89.5737H150.981L153.278 85.2741L155.575 89.5737H156.602V91.8912H154.843V91.0272ZM153.278 88.1913L152.8 89.5737H153.755L153.278 88.1913ZM162.161 85.5486L159.59 91.0272H157.862L158.624 89.3298L156.835 85.5486H158.716L159.448 87.7034L160.403 85.5486H162.161ZM164.052 88.2828C164.052 88.5674 164.123 88.8012 164.245 88.9943C164.377 89.1875 164.55 89.3298 164.753 89.4212C164.967 89.5127 165.201 89.5635 165.455 89.5635C165.719 89.5635 165.943 89.5229 166.136 89.4619C166.319 89.3907 166.481 89.3094 166.624 89.2078C166.776 89.1061 166.898 88.9943 167.02 88.8927V90.6613C166.807 90.8036 166.573 90.9256 166.319 91.0272C166.065 91.1289 165.739 91.1797 165.333 91.1797C164.692 91.1797 164.144 91.0577 163.666 90.8239C163.188 90.58 162.822 90.2446 162.558 89.8075C162.294 89.3806 162.161 88.8724 162.161 88.2828C162.161 87.7034 162.294 87.1952 162.558 86.7581C162.822 86.3211 163.188 85.9856 163.666 85.7519C164.144 85.5079 164.692 85.3859 165.333 85.3859C165.739 85.3859 166.065 85.4368 166.319 85.5384C166.573 85.6401 166.807 85.762 167.02 85.9145V87.6831C166.898 87.5713 166.776 87.4697 166.624 87.3578C166.481 87.2562 166.319 87.1749 166.136 87.1037C165.943 87.0428 165.719 87.0123 165.455 87.0123C165.201 87.0123 164.967 87.0529 164.753 87.1546C164.55 87.246 164.377 87.3883 164.245 87.5815C164.123 87.7644 164.052 88.0084 164.052 88.2828ZM167.254 87.0732V85.5486H172.102V87.0732H170.537V91.0272H168.819V87.0732H167.254ZM172.651 85.5486H174.806C175.609 85.5486 176.188 85.7112 176.554 86.0466C176.92 86.3821 177.103 86.8395 177.103 87.429C177.103 88.0084 176.92 88.4658 176.554 88.8012C176.188 89.1366 175.609 89.2993 174.806 89.2993H174.379V91.0272H172.651V85.5486ZM174.806 86.9106H174.379V87.9372H174.806C175.02 87.9372 175.182 87.8864 175.294 87.8051C175.396 87.7136 175.457 87.5815 175.457 87.429C175.457 87.2664 175.396 87.1342 175.294 87.0529C175.182 86.9614 175.02 86.9106 174.806 86.9106ZM179.522 85.5486V88.0287L183.09 85.2741V91.0272H181.443V88.5471L177.886 91.3017V85.5486H179.522ZM185.652 83.78H186.556C186.556 83.9426 186.607 84.0544 186.698 84.1052C186.8 84.1459 186.881 84.1764 186.963 84.1764C187.044 84.1764 187.125 84.1459 187.227 84.1052C187.319 84.0544 187.369 83.9426 187.369 83.78H188.274C188.274 84.1357 188.162 84.4203 187.928 84.6338C187.695 84.8472 187.38 84.959 186.963 84.959C186.546 84.959 186.231 84.8472 185.997 84.6338C185.763 84.4203 185.652 84.1357 185.652 83.78ZM185.824 85.5486V88.0287L189.392 85.2741V91.0272H187.745V88.5471L184.188 91.3017V85.5486H185.824Z" fill="#61001F"/>
<path d="M140.45 96.4442L138.346 100.917H137.736L138.316 99.5952L136.842 96.4442H137.513L138.651 99.0564L139.84 96.4442H140.45ZM143.052 97.979V100.917H142.544V98.4567H141.04V99.8899C141.04 100.246 140.958 100.5 140.806 100.662C140.643 100.835 140.399 100.917 140.064 100.917V100.449C140.196 100.449 140.298 100.408 140.389 100.327C140.481 100.246 140.531 100.103 140.531 99.8899V97.979H143.052ZM144.048 97.979H144.557V99.0869H145.258C145.563 99.0869 145.817 99.1581 146.02 99.3105C146.224 99.4529 146.335 99.6866 146.335 100.002C146.335 100.317 146.224 100.551 146.02 100.693C145.817 100.835 145.563 100.917 145.258 100.917H144.048V97.979ZM145.258 99.5342H144.557V100.469H145.258C145.441 100.469 145.583 100.429 145.675 100.337C145.776 100.256 145.817 100.144 145.817 100.002C145.817 99.8493 145.776 99.7375 145.675 99.6561C145.583 99.5748 145.441 99.5342 145.258 99.5342ZM147.555 100.917H146.986L147.85 99.707C147.636 99.6663 147.464 99.5748 147.332 99.4427C147.199 99.3004 147.128 99.1073 147.128 98.8531C147.128 98.6397 147.179 98.4771 147.271 98.3449C147.362 98.2128 147.494 98.1213 147.657 98.0603C147.819 98.0095 148.002 97.979 148.206 97.979H149.415V100.917H148.907V99.7375H148.378L147.555 100.917ZM148.206 99.2902H148.907V98.4262H148.206C147.83 98.4262 147.636 98.5685 147.636 98.8531C147.636 99.1479 147.83 99.2902 148.206 99.2902ZM150.218 97.979H150.726V99.1276H152.353V97.979H152.871V100.917H152.353V99.6053H150.726V100.917H150.218V97.979ZM153.573 99.4427C153.573 99.1479 153.633 98.8836 153.776 98.6499C153.908 98.4262 154.091 98.2433 154.315 98.1111C154.548 97.979 154.802 97.9079 155.087 97.9079C155.382 97.9079 155.636 97.979 155.87 98.1111C156.093 98.2433 156.276 98.4262 156.408 98.6499C156.541 98.8836 156.612 99.1479 156.612 99.4427C156.612 99.7375 156.541 100.002 156.408 100.236C156.276 100.469 156.093 100.652 155.87 100.784C155.636 100.906 155.382 100.978 155.087 100.978C154.802 100.978 154.548 100.906 154.315 100.784C154.091 100.652 153.908 100.469 153.776 100.236C153.633 100.002 153.573 99.7375 153.573 99.4427ZM154.091 99.4427C154.091 99.646 154.132 99.8289 154.223 99.9916C154.304 100.144 154.426 100.266 154.579 100.357C154.731 100.449 154.894 100.5 155.087 100.5C155.28 100.5 155.453 100.449 155.605 100.357C155.758 100.266 155.88 100.144 155.961 99.9916C156.053 99.8289 156.093 99.646 156.093 99.4427C156.093 99.2394 156.053 99.0564 155.961 98.8938C155.88 98.7413 155.758 98.6092 155.605 98.5279C155.453 98.4364 155.28 98.3856 155.087 98.3856C154.894 98.3856 154.731 98.4364 154.579 98.5279C154.426 98.6092 154.304 98.7413 154.223 98.8938C154.132 99.0564 154.091 99.2394 154.091 99.4427ZM157.313 97.979H158.401C158.584 97.979 158.746 97.9993 158.899 98.0502C159.051 98.1111 159.173 98.1925 159.265 98.3144C159.366 98.4262 159.407 98.5787 159.407 98.7718C159.407 98.9345 159.366 99.0768 159.275 99.1784C159.183 99.2902 159.071 99.3715 158.919 99.4224C159.112 99.463 159.254 99.5342 159.366 99.646C159.478 99.7476 159.539 99.9103 159.539 100.114C159.539 100.337 159.468 100.52 159.315 100.683C159.173 100.835 158.929 100.917 158.594 100.917H157.313V97.979ZM158.401 98.4262H157.821V99.2089H158.401C158.553 99.2089 158.675 99.1682 158.767 99.0971C158.858 99.0158 158.899 98.9243 158.899 98.8023C158.899 98.6905 158.858 98.599 158.767 98.5279C158.675 98.4567 158.553 98.4262 158.401 98.4262ZM158.462 99.646H157.821V100.469H158.462C158.655 100.469 158.797 100.429 158.889 100.347C158.98 100.266 159.031 100.164 159.031 100.053C159.031 99.9407 158.98 99.8391 158.889 99.7679C158.797 99.6866 158.655 99.646 158.462 99.646ZM160.434 99.4427C160.434 99.646 160.484 99.8289 160.566 99.9916C160.657 100.144 160.779 100.266 160.932 100.357C161.074 100.449 161.247 100.5 161.44 100.5C161.684 100.5 161.897 100.449 162.08 100.337C162.263 100.236 162.395 100.103 162.466 99.9611V100.601C162.365 100.723 162.212 100.815 162.029 100.876C161.836 100.947 161.643 100.978 161.44 100.978C161.155 100.978 160.901 100.906 160.667 100.784C160.434 100.652 160.261 100.469 160.118 100.236C159.986 100.002 159.925 99.7375 159.925 99.4427C159.925 99.1479 159.986 98.8836 160.118 98.6499C160.261 98.4262 160.434 98.2433 160.667 98.1111C160.901 97.979 161.155 97.9079 161.44 97.9079C161.643 97.9079 161.836 97.9485 162.029 98.0095C162.212 98.0806 162.365 98.1721 162.466 98.2839V98.9243C162.395 98.782 162.263 98.66 162.08 98.5482C161.897 98.4466 161.684 98.3856 161.44 98.3856C161.247 98.3856 161.074 98.4364 160.932 98.5279C160.779 98.6092 160.657 98.7413 160.566 98.8938C160.484 99.0564 160.434 99.2394 160.434 99.4427ZM163.229 97.979H163.737V99.0056L164.825 97.979H165.465L164.184 99.1886L165.597 100.917H164.957L163.737 99.4224V100.917H163.229V97.979ZM165.719 99.4427C165.719 99.1479 165.79 98.8836 165.922 98.6499C166.054 98.4262 166.237 98.2433 166.471 98.1111C166.695 97.979 166.959 97.9079 167.244 97.9079C167.528 97.9079 167.793 97.979 168.016 98.1111C168.25 98.2433 168.423 98.4262 168.565 98.6499C168.697 98.8836 168.758 99.1479 168.758 99.4427C168.758 99.7375 168.697 100.002 168.565 100.236C168.423 100.469 168.25 100.652 168.016 100.784C167.793 100.906 167.528 100.978 167.244 100.978C166.959 100.978 166.695 100.906 166.471 100.784C166.237 100.652 166.054 100.469 165.922 100.236C165.79 100.002 165.719 99.7375 165.719 99.4427ZM166.237 99.4427C166.237 99.646 166.278 99.8289 166.37 99.9916C166.461 100.144 166.573 100.266 166.725 100.357C166.878 100.449 167.051 100.5 167.244 100.5C167.437 100.5 167.61 100.449 167.752 100.357C167.904 100.266 168.026 100.144 168.118 99.9916C168.199 99.8289 168.25 99.646 168.25 99.4427C168.25 99.2394 168.199 99.0564 168.118 98.8938C168.026 98.7413 167.904 98.6092 167.752 98.5279C167.61 98.4364 167.437 98.3856 167.244 98.3856C167.051 98.3856 166.878 98.4364 166.725 98.5279C166.573 98.6092 166.461 98.7413 166.37 98.8938C166.278 99.0564 166.237 99.2394 166.237 99.4427ZM169.734 96.4747H170.191C170.191 96.5255 170.202 96.5966 170.232 96.6678C170.263 96.7389 170.313 96.8101 170.395 96.8711C170.476 96.9219 170.598 96.9524 170.74 96.9524C170.893 96.9524 171.005 96.9219 171.086 96.8711C171.167 96.8101 171.228 96.7389 171.259 96.6678C171.289 96.5966 171.299 96.5255 171.299 96.4747H171.757C171.757 96.617 171.716 96.7593 171.645 96.9016C171.564 97.0337 171.452 97.1455 171.309 97.237C171.157 97.3285 170.974 97.3691 170.74 97.3691C170.527 97.3691 170.334 97.3285 170.181 97.237C170.029 97.1455 169.917 97.0337 169.846 96.9016C169.775 96.7593 169.734 96.617 169.734 96.4747ZM170.008 97.979V99.8798L171.96 97.7554V100.917H171.442V99.0056L169.5 101.14V97.979H170.008ZM174.613 99.4427C174.613 99.1479 174.674 98.8836 174.806 98.6499C174.948 98.4262 175.131 98.2433 175.355 98.1111C175.589 97.979 175.843 97.9079 176.127 97.9079C176.422 97.9079 176.676 97.979 176.91 98.1111C177.134 98.2433 177.317 98.4262 177.449 98.6499C177.581 98.8836 177.652 99.1479 177.652 99.4427C177.652 99.7375 177.581 100.002 177.449 100.236C177.317 100.469 177.134 100.652 176.91 100.784C176.676 100.906 176.422 100.978 176.127 100.978C175.843 100.978 175.589 100.906 175.355 100.784C175.131 100.652 174.948 100.469 174.806 100.236C174.674 100.002 174.613 99.7375 174.613 99.4427ZM175.131 99.4427C175.131 99.646 175.172 99.8289 175.253 99.9916C175.345 100.144 175.467 100.266 175.619 100.357C175.762 100.449 175.934 100.5 176.127 100.5C176.321 100.5 176.493 100.449 176.646 100.357C176.798 100.266 176.91 100.144 177.002 99.9916C177.093 99.8289 177.134 99.646 177.134 99.4427C177.134 99.2394 177.093 99.0564 177.002 98.8938C176.91 98.7413 176.798 98.6092 176.646 98.5279C176.493 98.4364 176.321 98.3856 176.127 98.3856C175.934 98.3856 175.762 98.4364 175.619 98.5279C175.467 98.6092 175.345 98.7413 175.253 98.8938C175.172 99.0564 175.131 99.2394 175.131 99.4427ZM178.099 99.0564C178.099 98.66 178.14 98.3043 178.211 97.9993C178.292 97.6944 178.425 97.4301 178.618 97.2167C178.811 97.0032 179.075 96.8406 179.421 96.7186C179.705 96.6271 179.929 96.5052 180.071 96.3629C180.214 96.2307 180.295 96.0884 180.325 95.9258H180.834C180.803 96.2206 180.671 96.4645 180.427 96.6678C180.193 96.8711 179.898 97.0235 179.553 97.1354C179.299 97.2167 179.106 97.3386 178.963 97.4911C178.821 97.6436 178.719 97.8164 178.658 98.0095C178.597 98.2026 178.557 98.3957 178.547 98.599C178.648 98.3754 178.801 98.2128 178.984 98.0908C179.167 97.9688 179.38 97.9079 179.614 97.9079C179.909 97.9079 180.163 97.979 180.397 98.1111C180.62 98.2433 180.803 98.4262 180.935 98.6499C181.067 98.8836 181.139 99.1479 181.139 99.4427C181.139 99.7375 181.067 100.002 180.935 100.236C180.803 100.469 180.62 100.652 180.397 100.784C180.163 100.906 179.909 100.978 179.614 100.978C179.329 100.978 179.075 100.906 178.841 100.764C178.618 100.622 178.435 100.408 178.303 100.124C178.16 99.8391 178.099 99.4833 178.099 99.0564ZM178.608 99.4427C178.608 99.646 178.648 99.8289 178.74 99.9916C178.831 100.144 178.953 100.266 179.106 100.357C179.258 100.449 179.431 100.5 179.614 100.5C179.807 100.5 179.98 100.449 180.132 100.357C180.285 100.266 180.407 100.144 180.488 99.9916C180.579 99.8289 180.62 99.646 180.62 99.4427C180.62 99.2394 180.579 99.0564 180.488 98.8938C180.407 98.7413 180.285 98.6092 180.132 98.5279C179.98 98.4364 179.807 98.3856 179.614 98.3856C179.472 98.3856 179.319 98.4262 179.156 98.5076C179.004 98.5889 178.872 98.7108 178.77 98.8735C178.658 99.0259 178.608 99.2191 178.608 99.4427ZM184.411 97.979V100.917H183.903V98.4567H182.399V99.8899C182.399 100.246 182.328 100.5 182.165 100.662C182.003 100.835 181.759 100.917 181.423 100.917V100.449C181.555 100.449 181.667 100.408 181.759 100.327C181.85 100.246 181.891 100.103 181.891 99.8899V97.979H184.411ZM185.641 98.66L185.387 98.2738C185.499 98.1925 185.652 98.1111 185.835 98.0298C186.017 97.9485 186.251 97.9079 186.516 97.9079C186.851 97.9079 187.125 97.9892 187.329 98.1416C187.542 98.3043 187.644 98.5177 187.644 98.8023V100.917H187.136V100.49C187.044 100.652 186.912 100.774 186.729 100.856C186.546 100.937 186.353 100.978 186.129 100.978C185.946 100.978 185.774 100.947 185.621 100.876C185.469 100.805 185.347 100.703 185.255 100.571C185.164 100.439 185.123 100.266 185.123 100.073C185.123 99.7578 185.235 99.5138 185.458 99.341C185.682 99.1682 185.987 99.0869 186.373 99.0869C186.546 99.0869 186.688 99.1073 186.82 99.1479C186.942 99.1886 187.054 99.2394 187.136 99.3004V98.8023C187.136 98.66 187.064 98.5482 186.942 98.4669C186.82 98.3957 186.678 98.3551 186.516 98.3551C186.302 98.3551 186.119 98.3957 185.977 98.4771C185.824 98.5482 185.713 98.6092 185.641 98.66ZM185.641 100.053C185.641 100.205 185.692 100.327 185.814 100.408C185.936 100.479 186.089 100.52 186.251 100.52C186.516 100.52 186.719 100.469 186.881 100.347C187.054 100.236 187.136 100.032 187.136 99.7679V99.646C186.912 99.5342 186.668 99.4732 186.394 99.4732C186.139 99.4732 185.946 99.524 185.824 99.6256C185.702 99.7273 185.641 99.8696 185.641 100.053ZM188.731 99.4427C188.731 99.646 188.782 99.8289 188.864 99.9916C188.955 100.144 189.077 100.266 189.219 100.357C189.372 100.449 189.545 100.5 189.738 100.5C189.982 100.5 190.185 100.449 190.378 100.337C190.561 100.236 190.693 100.103 190.764 99.9611V100.601C190.663 100.723 190.51 100.815 190.327 100.876C190.134 100.947 189.941 100.978 189.738 100.978C189.453 100.978 189.199 100.906 188.965 100.784C188.731 100.652 188.548 100.469 188.416 100.236C188.284 100.002 188.213 99.7375 188.213 99.4427C188.213 99.1479 188.284 98.8836 188.416 98.6499C188.548 98.4262 188.731 98.2433 188.965 98.1111C189.199 97.979 189.453 97.9079 189.738 97.9079C189.941 97.9079 190.134 97.9485 190.327 98.0095C190.51 98.0806 190.663 98.1721 190.764 98.2839V98.9243C190.693 98.782 190.561 98.66 190.378 98.5482C190.185 98.4466 189.982 98.3856 189.738 98.3856C189.545 98.3856 189.372 98.4364 189.219 98.5279C189.077 98.6092 188.955 98.7413 188.864 98.8938C188.782 99.0564 188.731 99.2394 188.731 99.4427ZM191.11 97.979H192.838V98.4567H192.228V100.917H191.72V98.4567H191.11V97.979ZM193.895 97.979V99.8798L195.836 97.7554V100.917H195.328V99.0056L193.377 101.14V97.979H193.895Z" fill="#61001F"/>
<path fill-rule="evenodd" clip-rule="evenodd" d="M125.742 64.6716C124.807 60.0264 122.438 55.7675 118.972 52.525C115.12 50.8886 104.346 55.2593 95.4314 59.0608C106.775 56.2046 117.61 56.723 125.742 64.6716Z" fill="#F0C022"/>
<path fill-rule="evenodd" clip-rule="evenodd" d="M82.0043 76.6466C104.763 77.1955 119.623 69.003 127.368 74.2885C127.5 75.3456 127.551 76.4129 127.531 77.4801C127.46 81.2715 126.464 84.829 124.766 87.9495C108.757 86.3537 99.4872 84.2293 85.6737 89.4742C83.2749 85.7947 81.9129 81.3731 82.0043 76.6466Z" fill="#F0C022"/>
<path fill-rule="evenodd" clip-rule="evenodd" d="M82.0044 76.6457C91.2032 77.2352 116.909 63.3505 118.973 52.5254C122.55 54.7616 126.321 58.807 128.324 62.1816C120.7 76.0765 103.97 86.7898 85.6737 89.4732C83.6917 86.4645 81.9129 81.5653 82.0044 76.6457Z" fill="#991A38"/>
<path fill-rule="evenodd" clip-rule="evenodd" d="M127.368 74.2891C127.49 75.336 127.551 76.3931 127.531 77.4807C127.328 88.499 119.328 97.5454 108.889 99.4563L108.849 99.4664C109.855 101.225 114.805 103.573 121.707 104.569C105.474 106.846 93.968 99.6392 89.9734 94.374C100.473 93.9471 123.13 83.8742 127.368 74.2891Z" fill="#991A38"/>
<path fill-rule="evenodd" clip-rule="evenodd" d="M108.625 46C101.042 47.6771 92.362 54.7313 85.6636 61.6025C91.5793 57.0284 101.459 51.316 108.351 50.1573L108.625 46Z" fill="#F0C022"/>
</svg>
