<svg width="278" height="198" viewBox="0 0 278 198" fill="none" xmlns="http://www.w3.org/2000/svg">
<g clip-path="url(#clip0_965_3258)">
<path d="M190 62.9355H88.0068V69.8756H190V62.9355Z" fill="#164194"/>
<path d="M190 61.959H88V62.3404H190V61.959Z" fill="#164194"/>
<path d="M190 70.4707H88V70.8521H190V70.4707Z" fill="#164194"/>
<path d="M139.486 80.9829L139.535 72.7637H133.523V86.9995H139.401L146.09 78.8338L145.994 86.9995H152V72.7637H146.133L139.486 80.9829ZM108.468 72.7637H101.108L95.6063 77.3704V72.7637H89.3335V86.9995H95.6063V82.4999L97.1024 81.3343L101.7 87.0081H109.212L101.477 78.1203L108.468 72.7637ZM123.536 77.7261H117.611V72.7637H111.339V86.9995H117.611V81.0472H123.536V86.9995H129.809V72.7637H123.536V77.7261ZM170.602 72.7637H155.718V86.9995H161.991V76.0848H170.602V72.7637ZM183.015 72.7637H176.636L169.777 86.9995H175.918L176.636 85.1204H182.881L183.624 86.9995H189.872L183.015 72.7637ZM177.833 82.1549L179.771 77.0533L181.791 82.1549H177.833ZM88.0918 86.9995H88.6411V72.7637H88.0918V86.9995ZM110.118 86.9995H110.668V72.7637H110.118V86.9995ZM132.305 86.9995H132.854V72.7637H132.305V86.9995ZM154.573 86.9995H155.126V72.7637H154.573V86.9995ZM175.264 72.7637L168.574 86.9995H169.125L175.804 72.7637H175.264Z" fill="#C01F22"/>
<path d="M94.6041 63.8965L92.6165 67.4919C92.033 68.5525 91.7979 68.6768 91.067 68.6768H90.6673V67.7854H90.8682C91.3128 67.7854 91.4603 67.6526 91.4603 67.4962C91.4537 67.4199 91.4287 67.3464 91.3876 67.2819L89.4106 63.8965H90.6182L92.0459 66.5898L93.3902 63.8965H94.6041Z" fill="white"/>
<path d="M97.329 65.7285H99.9685V63.8965H100.988V68.6768H99.9685V66.6777H97.329V68.6768H96.3074V63.8965H97.329V65.7285Z" fill="white"/>
<path d="M103.948 67.7254H104.089L106.69 63.8965H108.4V68.6768H107.385V64.8457H107.235L104.67 68.6768H102.924V63.8965H103.948V67.7254Z" fill="white"/>
<path d="M110.398 63.8965H113.474C114.423 63.8965 114.944 64.2136 114.944 65.0942C114.944 65.8656 114.761 66.0306 114.416 66.1656C114.844 66.3241 115.111 66.532 115.111 67.2819C115.111 68.3082 114.649 68.6875 113.683 68.6875H110.398V63.8965ZM111.42 65.8249H113.506C113.782 65.8249 113.933 65.5828 113.933 65.2678C113.933 64.9528 113.79 64.7921 113.506 64.7921H111.426L111.42 65.8249ZM111.42 67.7683H113.47C114.017 67.7683 114.089 67.629 114.089 67.209C114.089 66.8448 114.034 66.6712 113.506 66.6712H111.42V67.7683Z" fill="white"/>
<path d="M117.116 63.8965H121.478V64.7985H118.135V65.8442H121.371V66.6777H118.135V67.7854H121.476V68.6875H117.116V63.8965Z" fill="white"/>
<path d="M124.416 68.6768H123.397V63.8965H126.306C127.374 63.8965 127.802 64.3636 127.802 65.5699C127.802 66.7762 127.374 67.2647 126.306 67.2647H124.404L124.416 68.6768ZM124.416 66.3198H126.126C126.641 66.3198 126.789 66.0927 126.789 65.5763C126.789 65.1071 126.661 64.8521 126.126 64.8521H124.416V66.3198Z" fill="white"/>
<path d="M134.507 67.0217C134.507 68.3073 134.224 68.6758 132.963 68.6758H131.061C129.879 68.6758 129.505 68.2687 129.505 66.9874V65.629C129.505 64.232 129.905 63.8398 131.16 63.8398H132.859C133.867 63.8398 134.5 64.1634 134.5 65.5068H133.479C133.479 64.999 133.252 64.7848 132.668 64.7848H131.361C130.677 64.7848 130.536 64.9155 130.536 65.6654V66.8503C130.536 67.5809 130.775 67.7073 131.361 67.7073H132.668C133.28 67.7073 133.487 67.5831 133.487 67.0046L134.507 67.0217Z" fill="white"/>
<path d="M137.445 67.7254H137.584L140.185 63.8965H141.895V68.6768H140.875V64.8457H140.732L138.168 68.6768H136.415V63.8965H137.435L137.445 67.7254Z" fill="white"/>
<path d="M148.347 63.8965V64.8457H146.544V68.6768H145.522V64.8457H143.737V63.8965H148.347Z" fill="white"/>
<path d="M150.081 63.8965H154.443V64.7985H151.102V65.8442H154.338V66.6777H151.102V67.7854H154.443V68.6875H150.081V63.8965Z" fill="white"/>
<path d="M160.846 63.8965V64.8457H159.042V68.6768H158.023V64.8457H156.238V63.8965H160.846Z" fill="white"/>
<path d="M167.471 67.0217C167.471 68.3073 167.189 68.6758 165.928 68.6758H164.026C162.846 68.6758 162.47 68.2687 162.47 66.9874V65.629C162.47 64.232 162.872 63.8398 164.124 63.8398H165.821C166.832 63.8398 167.465 64.1634 167.465 65.5068H166.437C166.437 64.999 166.223 64.7848 165.627 64.7848H164.315C163.633 64.7848 163.492 64.9155 163.492 65.6654V66.8503C163.492 67.5809 163.731 67.7073 164.315 67.7073H165.627C166.234 67.7073 166.445 67.5831 166.445 67.0046L167.471 67.0217Z" fill="white"/>
<path d="M170.387 65.6792H170.989L172.849 63.8965H174.381L171.868 66.1334L174.484 68.6768H172.988L171.011 66.6305H170.391V68.6768H169.365V63.8965H170.387V65.6792Z" fill="white"/>
<path d="M175.841 68.6768L178.104 63.8965H179.617L181.864 68.6768H180.671L180.115 67.4704H177.595L177.042 68.6768H175.841ZM179.703 66.5684L178.899 64.7857H178.85L178.008 66.562L179.703 66.5684Z" fill="white"/>
<path d="M185.555 67.1598L184.533 68.6768H183.206L184.454 67.0098C183.969 66.8855 183.514 66.307 183.514 65.5763C183.514 64.22 184.155 63.8965 185.031 63.8965H188.275V68.6768H187.254V67.1598H185.555ZM185.127 64.8028C184.672 64.8028 184.542 65.03 184.542 65.5313C184.542 66.0327 184.728 66.262 185.157 66.262H187.262V64.7985L185.127 64.8028Z" fill="white"/>
<path d="M89.0687 58.8347L91.4004 56H91.4346V59.6104L91.1034 59.6425V56.8442L88.7674 59.6918H88.7332V56.0814L89.0687 56.0407V58.8347Z" fill="#BE1622"/>
<path d="M92.8665 56.9668V58.1603H94.2344V57.0289L94.5379 56.9668V59.6108L94.2344 59.673V58.4495H92.8665V59.6108L92.5652 59.673V57.0289L92.8665 56.9668Z" fill="#BE1622"/>
<path d="M96.9508 56.0723V57.0279C97.2923 57.0279 97.6199 57.1639 97.8614 57.406C98.1028 57.6481 98.2385 57.9765 98.2385 58.3188C98.2385 58.6612 98.1028 58.9896 97.8614 59.2317C97.6199 59.4738 97.2923 59.6098 96.9508 59.6098V60.499L96.6473 60.5611V59.6098C96.3072 59.6098 95.9811 59.4744 95.7406 59.2333C95.5001 58.9922 95.365 58.6652 95.365 58.3242C95.365 57.9832 95.5001 57.6562 95.7406 57.4151C95.9811 57.1741 96.3072 57.0386 96.6473 57.0386V56.1323L96.9508 56.0723ZM96.6473 57.315C96.3956 57.3352 96.1607 57.4497 95.9894 57.6358C95.8181 57.8218 95.723 58.0657 95.723 58.3188C95.723 58.572 95.8181 58.8159 95.9894 59.0019C96.1607 59.1879 96.3956 59.3025 96.6473 59.3227V57.315ZM96.9508 59.3227C97.2026 59.3025 97.4374 59.1879 97.6087 59.0019C97.78 58.8159 97.8751 58.572 97.8751 58.3188C97.8751 58.0657 97.78 57.8218 97.6087 57.6358C97.4374 57.4497 97.2026 57.3352 96.9508 57.315V59.3227Z" fill="#BE1622"/>
<path d="M100.197 56.9668C100.371 56.9701 100.543 57.0078 100.702 57.0777C100.861 57.1476 101.006 57.2483 101.126 57.3741C101.247 57.4999 101.341 57.6483 101.404 57.8108C101.468 57.9732 101.498 58.1466 101.495 58.321C101.502 58.4963 101.473 58.6713 101.411 58.8355C101.349 58.9996 101.255 59.1495 101.133 59.2761C101.012 59.4027 100.867 59.5034 100.706 59.5722C100.545 59.641 100.371 59.6765 100.196 59.6765C100.021 59.6765 99.8478 59.641 99.6867 59.5722C99.5257 59.5034 99.3801 59.4027 99.2589 59.2761C99.1376 59.1495 99.0431 58.9996 98.9811 58.8355C98.919 58.6713 98.8907 58.4963 98.8978 58.321C98.8944 58.1465 98.9253 57.9731 98.9888 57.8106C99.0523 57.6481 99.147 57.4998 99.2677 57.374C99.3884 57.2482 99.5326 57.1476 99.6921 57.0777C99.8516 57.0078 100.023 56.9701 100.197 56.9668ZM100.197 59.3837C100.469 59.372 100.726 59.2527 100.91 59.052C101.095 58.8512 101.193 58.5853 101.183 58.3124C101.194 58.1758 101.176 58.0385 101.132 57.909C101.087 57.7795 101.016 57.6606 100.923 57.5599C100.831 57.4592 100.718 57.3789 100.593 57.3239C100.468 57.2689 100.333 57.2405 100.196 57.2405C100.06 57.2405 99.9243 57.2689 99.7992 57.3239C99.674 57.3789 99.5615 57.4592 99.4689 57.5599C99.3762 57.6606 99.3053 57.7795 99.2608 57.909C99.2162 58.0385 99.1988 58.1758 99.2098 58.3124C99.2 58.5855 99.2983 58.8514 99.4833 59.0521C99.6683 59.2528 99.9249 59.372 100.197 59.3837Z" fill="#BE1622"/>
<path d="M102.644 56.9671V57.5542H102.664C102.764 57.3723 102.913 57.2215 103.093 57.118C103.273 57.0146 103.478 56.9624 103.685 56.9671C104.467 56.9671 104.968 57.5542 104.968 58.3213C104.976 58.4936 104.951 58.666 104.892 58.8282C104.833 58.9903 104.742 59.1389 104.624 59.2651C104.507 59.3913 104.365 59.4924 104.208 59.5626C104.051 59.6327 103.881 59.6703 103.709 59.6733C103.506 59.6773 103.305 59.6304 103.125 59.5368C102.944 59.4433 102.79 59.306 102.676 59.1376H102.661V60.511L102.36 60.5732V57.0292L102.644 56.9671ZM102.644 58.3362C102.644 58.6116 102.752 58.8758 102.945 59.0719C103.138 59.2679 103.4 59.3801 103.675 59.384C103.808 59.3824 103.941 59.3538 104.063 59.2998C104.186 59.2458 104.297 59.1676 104.388 59.0697C104.48 58.9719 104.551 58.8565 104.598 58.7305C104.644 58.6045 104.664 58.4704 104.658 58.3362C104.666 58.198 104.646 58.0596 104.599 57.9294C104.552 57.7993 104.478 57.6803 104.383 57.5798C104.288 57.4793 104.174 57.3995 104.047 57.3453C103.92 57.2911 103.783 57.2638 103.645 57.2649C103.371 57.275 103.112 57.3933 102.924 57.594C102.737 57.7946 102.636 58.0615 102.644 58.3362Z" fill="#BE1622"/>
<path d="M106.166 56.9668L107.113 58.9788L108.011 56.9668H108.052L108.641 59.6108L108.342 59.673L107.957 57.7789L107.115 59.673H107.1L106.246 57.7789L105.863 59.673L105.566 59.6108L106.128 56.9668H106.166Z" fill="#BE1622"/>
<path d="M109.558 57.1061C109.776 57.0193 110.008 56.9721 110.242 56.9668C111.119 56.9668 111.129 57.6417 111.129 57.7789V59.6108L110.841 59.673V59.3023H110.826C110.75 59.4216 110.644 59.5188 110.519 59.5839C110.393 59.6489 110.253 59.6797 110.112 59.673C109.989 59.6754 109.868 59.6527 109.754 59.6063C109.641 59.5599 109.538 59.4907 109.452 59.403C109.366 59.3154 109.299 59.211 109.255 59.0964C109.211 58.9818 109.19 58.8594 109.195 58.7366C109.196 58.5482 109.255 58.3646 109.363 58.2106C109.471 58.0565 109.624 57.9393 109.8 57.8747C109.977 57.8101 110.169 57.8012 110.351 57.8491C110.532 57.8971 110.695 57.9997 110.817 58.1431V57.7489C110.817 57.4553 110.58 57.2561 110.223 57.2561C110.003 57.2684 109.787 57.3222 109.586 57.4146L109.443 57.4767L109.558 57.1061ZM109.507 58.7152C109.502 58.8925 109.568 59.0645 109.689 59.1932C109.811 59.322 109.979 59.3971 110.156 59.4019C110.333 59.4068 110.504 59.341 110.633 59.219C110.761 59.0971 110.836 58.9289 110.841 58.7516C110.841 58.6613 110.823 58.5719 110.786 58.4893C110.75 58.4066 110.697 58.3326 110.63 58.2719C110.563 58.2113 110.485 58.1654 110.399 58.1373C110.313 58.1092 110.223 58.0995 110.133 58.1088C110.052 58.105 109.97 58.118 109.894 58.1468C109.818 58.1757 109.748 58.2198 109.69 58.2766C109.631 58.3334 109.585 58.4016 109.553 58.477C109.522 58.5524 109.506 58.6335 109.507 58.7152Z" fill="#BE1622"/>
<path d="M114.106 56.9668V59.3237H114.44V60.2129L114.136 60.2751V59.6108H112.151V57.0289L112.452 56.9668V59.3237H113.797V57.0289L114.106 56.9668Z" fill="#BE1622"/>
<path d="M117.28 56.9668H117.304V59.6108L117.002 59.673V57.6867L115.292 59.673H115.267V57.0289L115.57 56.9668V58.953L117.28 56.9668Z" fill="#BE1622"/>
<path d="M119.473 56.9668C119.647 56.9701 119.819 57.0078 119.978 57.0777C120.138 57.1476 120.282 57.2482 120.403 57.374C120.523 57.4998 120.618 57.6481 120.682 57.8106C120.745 57.9731 120.776 58.1465 120.773 58.321C120.78 58.4963 120.751 58.6713 120.689 58.8355C120.627 58.9996 120.533 59.1495 120.412 59.2761C120.29 59.4027 120.145 59.5034 119.984 59.5722C119.823 59.641 119.649 59.6765 119.474 59.6765C119.299 59.6765 119.126 59.641 118.965 59.5722C118.804 59.5034 118.658 59.4027 118.537 59.2761C118.416 59.1495 118.321 58.9996 118.259 58.8355C118.197 58.6713 118.169 58.4963 118.176 58.321C118.172 58.1466 118.203 57.9732 118.266 57.8108C118.329 57.6483 118.424 57.4999 118.544 57.3741C118.665 57.2483 118.809 57.1476 118.968 57.0777C119.128 57.0078 119.299 56.9701 119.473 56.9668ZM119.473 59.3837C119.746 59.3726 120.003 59.2535 120.188 59.0527C120.373 58.8519 120.471 58.5856 120.461 58.3124C120.472 58.1758 120.454 58.0385 120.41 57.909C120.365 57.7795 120.294 57.6606 120.202 57.5599C120.109 57.4592 119.996 57.3789 119.871 57.3239C119.746 57.2689 119.611 57.2405 119.474 57.2405C119.338 57.2405 119.202 57.2689 119.077 57.3239C118.952 57.3789 118.84 57.4592 118.747 57.5599C118.654 57.6606 118.583 57.7795 118.539 57.909C118.494 58.0385 118.477 58.1758 118.488 58.3124C118.478 58.5851 118.576 58.8507 118.761 59.0514C118.945 59.252 119.201 59.3715 119.473 59.3837Z" fill="#BE1622"/>
<path d="M121.941 56.9668V58.1603H123.309V57.0289L123.613 56.9668V59.6108L123.309 59.673V58.4495H121.941V59.6108L121.64 59.673V57.0289L121.941 56.9668Z" fill="#BE1622"/>
<path d="M124.944 56.9668V58.1603H126.312V57.0289L126.616 56.9668V59.6108L126.312 59.673V58.4495H124.944V59.6108L124.643 59.673V57.0289L124.944 56.9668Z" fill="#BE1622"/>
<path d="M128.781 56.9668C128.955 56.9701 129.126 57.0078 129.286 57.0777C129.445 57.1476 129.59 57.2482 129.71 57.374C129.831 57.4998 129.926 57.6481 129.989 57.8106C130.053 57.9731 130.084 58.1465 130.08 58.321C130.08 58.6665 129.943 58.9978 129.7 59.2421C129.456 59.4864 129.125 59.6237 128.781 59.6237C128.436 59.6237 128.106 59.4864 127.862 59.2421C127.618 58.9978 127.481 58.6665 127.481 58.321C127.478 58.1465 127.509 57.9731 127.572 57.8106C127.636 57.6481 127.73 57.4998 127.851 57.374C127.972 57.2482 128.116 57.1476 128.275 57.0777C128.435 57.0078 128.607 56.9701 128.781 56.9668ZM128.781 59.3837C129.053 59.3726 129.31 59.2535 129.495 59.0527C129.68 58.8519 129.778 58.5856 129.768 58.3124C129.779 58.1758 129.762 58.0385 129.717 57.909C129.673 57.7795 129.602 57.6606 129.509 57.5599C129.416 57.4592 129.304 57.3789 129.179 57.3239C129.054 57.2689 128.918 57.2405 128.782 57.2405C128.645 57.2405 128.51 57.2689 128.385 57.3239C128.26 57.3789 128.147 57.4592 128.054 57.5599C127.962 57.6606 127.891 57.7795 127.846 57.909C127.802 58.0385 127.784 58.1758 127.795 58.3124C127.785 58.5853 127.883 58.8512 128.067 59.052C128.252 59.2527 128.509 59.372 128.781 59.3837Z" fill="#BE1622"/>
<path d="M132.136 58.458H130.871V58.1816H132.136V58.458Z" fill="#BE1622"/>
<path d="M133.265 57.1061C133.483 57.0196 133.716 56.9724 133.951 56.9668C134.827 56.9668 134.838 57.6417 134.838 57.7789V59.6108L134.549 59.673V59.3023H134.534C134.458 59.4216 134.352 59.5188 134.227 59.5839C134.102 59.6489 133.961 59.6797 133.82 59.673C133.698 59.6754 133.576 59.6527 133.463 59.6063C133.349 59.5599 133.246 59.4907 133.161 59.403C133.075 59.3154 133.008 59.211 132.963 59.0964C132.919 58.9818 132.899 58.8594 132.903 58.7366C132.905 58.5482 132.963 58.3646 133.071 58.2106C133.18 58.0565 133.332 57.9393 133.509 57.8747C133.685 57.8101 133.877 57.8012 134.059 57.8491C134.241 57.8971 134.404 57.9997 134.526 58.1431V57.7489C134.526 57.4553 134.288 57.2561 133.932 57.2561C133.705 57.2663 133.483 57.3201 133.278 57.4146L133.132 57.4767L133.265 57.1061ZM133.216 58.7152C133.211 58.8925 133.276 59.0645 133.398 59.1932C133.52 59.322 133.687 59.3971 133.864 59.4019C134.041 59.4068 134.213 59.341 134.341 59.219C134.469 59.0971 134.544 58.9289 134.549 58.7516C134.55 58.6613 134.531 58.5719 134.495 58.4893C134.459 58.4066 134.405 58.3326 134.339 58.2719C134.272 58.2113 134.193 58.1654 134.107 58.1373C134.022 58.1092 133.931 58.0995 133.842 58.1088C133.76 58.105 133.679 58.118 133.603 58.1468C133.526 58.1757 133.457 58.2198 133.398 58.2766C133.34 58.3334 133.293 58.4016 133.262 58.477C133.23 58.5524 133.215 58.6335 133.216 58.7152Z" fill="#BE1622"/>
<path d="M136.169 56.9668V58.1603H137.537V57.0289L137.841 56.9668V59.6108L137.537 59.673V58.4495H136.169V59.6108L135.868 59.673V57.0289L136.169 56.9668Z" fill="#BE1622"/>
<path d="M139.044 57.1061C139.262 57.0198 139.493 56.9726 139.728 56.9668C140.606 56.9668 140.615 57.6417 140.615 57.7789V59.6108L140.328 59.673V59.3023H140.313C140.237 59.4215 140.131 59.5185 140.006 59.5836C139.881 59.6486 139.74 59.6795 139.599 59.673C139.477 59.6754 139.355 59.6527 139.242 59.6063C139.128 59.5599 139.025 59.4907 138.94 59.403C138.854 59.3154 138.787 59.211 138.742 59.0964C138.698 58.9818 138.678 58.8594 138.683 58.7366C138.684 58.5487 138.743 58.3657 138.851 58.2122C138.959 58.0586 139.111 57.9418 139.287 57.8773C139.464 57.8128 139.655 57.8037 139.836 57.8512C140.018 57.8987 140.18 58.0005 140.303 58.1431H140.313V57.7489C140.313 57.4553 140.076 57.2561 139.719 57.2561C139.492 57.2661 139.269 57.3199 139.063 57.4146L138.92 57.4767L139.044 57.1061ZM138.995 58.7152C138.99 58.8925 139.055 59.0645 139.177 59.1932C139.299 59.322 139.466 59.3971 139.643 59.4019C139.82 59.4068 139.992 59.341 140.12 59.219C140.249 59.0971 140.323 58.9289 140.328 58.7516C140.329 58.6611 140.31 58.5715 140.274 58.4887C140.237 58.4059 140.184 58.3317 140.117 58.271C140.05 58.2104 139.971 58.1645 139.885 58.1366C139.799 58.1086 139.708 58.0992 139.619 58.1088C139.537 58.105 139.456 58.1179 139.38 58.1468C139.304 58.1757 139.234 58.2199 139.176 58.2767C139.117 58.3335 139.071 58.4017 139.04 58.4772C139.009 58.5526 138.993 58.6336 138.995 58.7152Z" fill="#BE1622"/>
<path d="M142.459 56.9668L143.633 59.6108L143.355 59.673L142.453 57.6867H142.434L141.579 59.673L141.301 59.6108L142.446 56.9668H142.459Z" fill="#BE1622"/>
<path d="M146.347 56.9668H146.37V59.6108L146.069 59.673V57.6867L144.348 59.673H144.323V57.0289L144.626 56.9668V58.953L146.347 56.9668Z" fill="#BE1622"/>
<path d="M147.108 57.3164L147.157 57.0293H148.867V57.3164H148.149V59.6112L147.847 59.6733V57.3164H147.108Z" fill="#BE1622"/>
<path d="M151.671 56.9668H151.69V59.6108L151.388 59.673V57.6867L149.668 59.673H149.642V57.0289L149.946 56.9668V58.953L151.671 56.9668Z" fill="#BE1622"/>
<path d="M154.481 56.9668V59.6108L154.18 59.673V58.5417C153.955 58.6072 153.723 58.6454 153.489 58.6552C152.711 58.6552 152.658 58.1045 152.658 57.6867V57.0289L152.959 56.9668V57.6503C152.959 58.021 152.959 58.366 153.524 58.366C153.746 58.3622 153.967 58.3276 154.18 58.2631V57.0289L154.481 56.9668Z" fill="#BE1622"/>
<path d="M157.634 59.2983C157.368 59.5373 157.024 59.6707 156.668 59.6733C156.492 59.6734 156.318 59.638 156.156 59.5692C155.994 59.5004 155.847 59.3996 155.725 59.2728C155.603 59.146 155.507 58.9959 155.444 58.8313C155.381 58.6667 155.351 58.4911 155.357 58.3148C155.351 58.1412 155.379 57.968 155.44 57.8055C155.501 57.6429 155.594 57.4944 155.714 57.3686C155.833 57.2429 155.977 57.1426 156.136 57.0736C156.295 57.0046 156.467 56.9684 156.64 56.9671C156.857 56.9622 157.071 57.0166 157.259 57.1246C157.447 57.2326 157.603 57.39 157.708 57.5799L155.785 58.7669C155.859 58.9387 155.98 59.0857 156.135 59.1905C156.289 59.2953 156.47 59.3535 156.657 59.3583C157.03 59.3345 157.38 59.1672 157.634 58.8912V59.2983ZM157.266 57.5135C157.185 57.4304 157.088 57.3648 156.98 57.3206C156.873 57.2764 156.758 57.2545 156.642 57.2564C156.511 57.2565 156.381 57.2833 156.26 57.3351C156.139 57.3868 156.03 57.4625 155.939 57.5576C155.849 57.6526 155.778 57.7651 155.732 57.8882C155.685 58.0114 155.664 58.1426 155.67 58.2741C155.671 58.3462 155.679 58.418 155.695 58.4884L157.266 57.5135Z" fill="#BE1622"/>
<path d="M160.378 57.5323C160.187 57.3567 159.938 57.2582 159.679 57.2559C159.544 57.2574 159.411 57.2863 159.288 57.341C159.165 57.3957 159.054 57.4749 158.962 57.574C158.87 57.673 158.799 57.7897 158.754 57.917C158.709 58.0442 158.69 58.1795 158.698 58.3143C158.689 58.4512 158.709 58.5884 158.755 58.7175C158.801 58.8466 158.872 58.9649 158.966 59.0653C159.059 59.1656 159.172 59.2457 159.297 59.3008C159.422 59.3559 159.557 59.3848 159.694 59.3857C159.819 59.3878 159.943 59.3649 160.059 59.3181C160.175 59.2714 160.281 59.2018 160.369 59.1136L160.551 59.3514C160.315 59.5608 160.011 59.676 159.696 59.6749C159.52 59.6753 159.346 59.6401 159.184 59.5714C159.022 59.5027 158.876 59.4019 158.754 59.275C158.631 59.1481 158.536 58.9978 158.473 58.8331C158.41 58.6684 158.382 58.4927 158.388 58.3165C158.384 58.141 158.416 57.9666 158.48 57.8033C158.544 57.6401 158.641 57.4914 158.763 57.3659C158.885 57.2404 159.032 57.1406 159.193 57.0724C159.354 57.0043 159.527 56.969 159.703 56.9688C160.017 56.9677 160.322 57.0829 160.557 57.2923L160.378 57.5323Z" fill="#BE1622"/>
<path d="M161.776 56.9668V58.2524H161.786L162.896 56.9668L163.128 57.1168L162.103 58.2631L163.278 59.478L163.064 59.673L161.782 58.3252H161.771V59.6108L161.47 59.673V57.0289L161.776 56.9668Z" fill="#BE1622"/>
<path d="M166.037 56.9668H166.063V59.6108L165.759 59.673V57.6867L164.05 59.673H164.024V57.0289L164.325 56.9668V58.953L166.037 56.9668Z" fill="#BE1622"/>
<path d="M169.115 56.9654H169.14V59.6094L168.837 59.6716V57.6853L167.127 59.6716H167.102V57.0275L167.405 56.9654V58.9559L169.115 56.9654ZM167.638 56.0762C167.68 56.1682 167.747 56.2465 167.831 56.3019C167.915 56.3573 168.014 56.3875 168.115 56.389C168.215 56.3875 168.314 56.3573 168.398 56.3019C168.483 56.2465 168.55 56.1682 168.591 56.0762L168.805 56.1683C168.751 56.3079 168.656 56.4278 168.533 56.5123C168.41 56.5968 168.264 56.642 168.115 56.6418C167.965 56.6411 167.819 56.5957 167.695 56.5113C167.572 56.427 167.476 56.3075 167.42 56.1683L167.638 56.0762Z" fill="#BE1622"/>
<path d="M173.218 56.9668V58.2224L174.27 56.9668L174.484 57.1168L173.518 58.2331L174.586 59.478L174.372 59.673L173.199 58.2952V59.6108L172.898 59.673V58.2952H172.887L171.712 59.673L171.509 59.478L172.577 58.2331L171.609 57.1168L171.823 56.9668L172.874 58.2224H172.885V57.0289L173.218 56.9668Z" fill="#BE1622"/>
<path d="M175.274 56.9668L176.268 58.8502H176.29L177.144 56.9668L177.418 57.0654C176.888 58.2631 176.332 59.4223 175.762 60.5579L175.46 60.4743L176.101 59.1994L174.986 57.0718L175.274 56.9668Z" fill="#BE1622"/>
<path d="M178.371 56.9672V57.5542H178.393C178.493 57.3721 178.641 57.221 178.822 57.1175C179.002 57.014 179.207 56.962 179.414 56.9672C180.196 56.9672 180.697 57.5542 180.697 58.3213C180.705 58.4937 180.68 58.6661 180.621 58.8282C180.562 58.9904 180.471 59.139 180.353 59.2652C180.236 59.3913 180.094 59.4925 179.937 59.5626C179.78 59.6327 179.61 59.6704 179.438 59.6733C179.235 59.6776 179.034 59.6307 178.855 59.5372C178.675 59.4436 178.521 59.3062 178.408 59.1377H178.393V60.5111L178.089 60.5732V57.0293L178.371 56.9672ZM178.371 58.3363C178.371 58.612 178.48 58.8766 178.673 59.0727C178.866 59.2688 179.129 59.3807 179.404 59.3841C179.537 59.3825 179.67 59.3539 179.792 59.2998C179.915 59.2458 180.025 59.1675 180.117 59.0697C180.208 58.9718 180.279 58.8564 180.325 58.7304C180.371 58.6044 180.391 58.4703 180.385 58.3363C180.393 58.1982 180.374 58.0598 180.327 57.9296C180.28 57.7995 180.207 57.6805 180.112 57.5799C180.017 57.4794 179.902 57.3996 179.775 57.3454C179.648 57.2912 179.512 57.2638 179.374 57.265C179.099 57.275 178.84 57.3932 178.653 57.5939C178.465 57.7945 178.364 58.0613 178.371 58.3363Z" fill="#BE1622"/>
<path d="M181.866 56.9668V58.1603H183.234V57.0289L183.535 56.9668V59.6108L183.231 59.673V58.4495H181.864V59.6108L181.562 59.673V57.0289L181.866 56.9668Z" fill="#BE1622"/>
<path d="M184.74 57.1061C184.958 57.0198 185.19 56.9726 185.424 56.9668C186.313 56.9668 186.313 57.6417 186.313 57.7789V59.6108L186.027 59.673V59.3023H186.012C185.936 59.4215 185.83 59.5185 185.704 59.5836C185.579 59.6486 185.439 59.6795 185.298 59.673C185.176 59.6745 185.055 59.6512 184.943 59.6043C184.83 59.5575 184.728 59.4882 184.643 59.4006C184.558 59.3129 184.492 59.2089 184.448 59.0947C184.405 58.9806 184.385 58.8587 184.39 58.7366C184.394 58.5511 184.453 58.3711 184.561 58.2201C184.668 58.0691 184.819 57.9541 184.993 57.89C185.166 57.826 185.355 57.8158 185.535 57.861C185.714 57.9061 185.876 58.0044 185.999 58.1431H186.01V57.7489C186.01 57.4553 185.77 57.2561 185.413 57.2561C185.187 57.2663 184.965 57.3201 184.759 57.4146L184.616 57.4767L184.74 57.1061ZM184.691 58.7152C184.686 58.8925 184.752 59.0645 184.873 59.1932C184.995 59.322 185.163 59.3971 185.34 59.4019C185.517 59.4068 185.688 59.341 185.816 59.219C185.945 59.0971 186.02 58.9289 186.025 58.7516C186.025 58.6611 186.007 58.5715 185.97 58.4887C185.934 58.4059 185.88 58.3317 185.813 58.271C185.746 58.2104 185.667 58.1645 185.581 58.1366C185.496 58.1086 185.405 58.0992 185.315 58.1088C185.234 58.105 185.152 58.1179 185.076 58.1468C185 58.1757 184.931 58.2199 184.872 58.2767C184.814 58.3335 184.768 58.4017 184.736 58.4772C184.705 58.5526 184.69 58.6336 184.691 58.7152Z" fill="#BE1622"/>
<path d="M188.155 56.9668L189.329 59.6108L189.053 59.673L188.149 57.6867H188.13L187.275 59.673L186.997 59.6108L188.143 56.9668H188.155Z" fill="#BE1622"/>
</g>
<defs>
<clipPath id="clip0_965_3258">
<rect width="102" height="31" fill="white" transform="translate(88 56)"/>
</clipPath>
</defs>
</svg>
