<svg width="808" height="475" viewBox="0 0 808 475" fill="none" xmlns="http://www.w3.org/2000/svg">
<path d="M333.407 131.91C421.765 95.6266 506.62 74.6521 572.375 70.0612C605.256 67.7655 633.332 69.5687 654.673 75.5835C676.022 81.6004 690.544 91.8039 696.484 106.243C702.424 120.682 699.282 138.14 688.34 157.417C677.401 176.687 658.71 197.695 633.717 219.165C583.737 262.101 508.646 306.808 420.288 343.092C331.931 379.375 247.076 400.35 181.321 404.941C148.44 407.236 120.364 405.433 99.0229 399.418C77.6744 393.401 63.1523 383.198 57.2119 368.759C51.2715 354.319 54.4138 336.862 65.3563 317.585C76.295 298.315 94.9863 277.307 119.979 255.837C169.959 212.901 245.05 168.194 333.407 131.91Z" stroke="white"/>
<path d="M246.642 216.777C303.058 193.609 357.105 179.91 398.872 176.48C419.758 174.765 437.544 175.62 451.01 179.125C464.487 182.632 473.538 188.763 477.141 197.521C480.744 206.278 478.625 216.997 471.512 228.959C464.405 240.912 452.362 254.016 436.306 267.471C404.198 294.378 356.13 322.612 299.714 345.779C243.297 368.946 189.25 382.645 147.484 386.075C126.598 387.791 108.812 386.935 95.3454 383.431C81.8687 379.924 72.8171 373.792 69.2142 365.035C65.6113 356.277 67.7308 345.559 74.8433 333.597C81.9504 321.644 93.9933 308.539 110.05 295.084C142.158 268.178 190.225 239.944 246.642 216.777Z" stroke="white"/>
<path d="M289.899 249.881C342.844 273.017 387.772 300.775 417.613 326.938C432.535 340.021 443.662 352.686 450.139 364.154C456.621 375.632 458.397 385.82 454.804 394.028C451.21 402.236 442.516 407.849 429.68 410.885C416.855 413.919 399.993 414.353 380.248 412.287C340.762 408.155 289.862 394.038 236.917 370.901C183.972 347.765 139.043 320.007 109.203 293.844C94.2802 280.761 83.1532 268.096 76.6766 256.628C70.1948 245.15 68.4185 234.962 72.0119 226.754C75.6053 218.546 84.2991 212.933 97.135 209.897C109.961 206.863 126.822 206.429 146.568 208.495C186.053 212.627 236.953 226.744 289.899 249.881Z" stroke="white"/>
<ellipse cx="5.17562" cy="292.096" rx="5.17562" ry="5.171" fill="white"/>
<ellipse cx="657.324" cy="136.17" rx="2.41529" ry="2.41314" fill="white"/>
<ellipse cx="26.7306" cy="311.819" rx="3.10537" ry="3.1026" fill="white"/>
<ellipse cx="204.079" cy="434.523" rx="4.1405" ry="4.1368" fill="white"/>
<ellipse cx="665.764" cy="329.198" rx="4.1405" ry="4.1368" fill="white"/>
<ellipse cx="588.005" cy="4.54041" rx="4.54398" ry="4.53992" fill="white"/>
<ellipse cx="76.8431" cy="156.681" rx="4.1405" ry="4.1368" fill="white"/>
<ellipse cx="803.859" cy="124.439" rx="4.1405" ry="4.1368" fill="white"/>
</svg>
