<svg width="724" height="527" viewBox="0 0 724 527" fill="none" xmlns="http://www.w3.org/2000/svg">
<path d="M6.57907 0H717.105C718.85 0 720.524 0.693132 721.757 1.92692C722.991 3.16072 723.684 4.8341 723.684 6.57895L723.684 39.4736H0L0.00012207 6.57895C0.00012207 4.8341 0.693254 3.16072 1.92705 1.92692C3.16084 0.693132 4.83422 0 6.57907 0Z" fill="#020726"/>
<path d="M52.6314 24.9999C55.5382 24.9999 57.8946 22.6435 57.8946 19.7368C57.8946 16.83 55.5382 14.4736 52.6314 14.4736C49.7247 14.4736 47.3683 16.83 47.3683 19.7368C47.3683 22.6435 49.7247 24.9999 52.6314 24.9999Z" fill="#F9F9F9"/>
<path d="M35.5263 24.9999C38.4331 24.9999 40.7895 22.6435 40.7895 19.7368C40.7895 16.83 38.4331 14.4736 35.5263 14.4736C32.6195 14.4736 30.2631 16.83 30.2631 19.7368C30.2631 22.6435 32.6195 24.9999 35.5263 24.9999Z" fill="#F9F9F9"/>
<path d="M18.4209 24.9999C21.3277 24.9999 23.6841 22.6435 23.6841 19.7368C23.6841 16.83 21.3277 14.4736 18.4209 14.4736C15.5141 14.4736 13.1577 16.83 13.1577 19.7368C13.1577 22.6435 15.5141 24.9999 18.4209 24.9999Z" fill="#F9F9F9"/>
</svg>
