<svg width="19" height="16" viewBox="0 0 19 16" fill="none" xmlns="http://www.w3.org/2000/svg">
<g clip-path="url(#clip0_230_1221)">
<path d="M15.0297 0.5H0.0296631V15.5H15.0297V0.5Z" fill="white" fill-opacity="0.01"/>
<path d="M5.96716 6.75C7.17529 6.75 8.15466 5.77062 8.15466 4.5625C8.15466 3.35438 7.17529 2.375 5.96716 2.375C4.75904 2.375 3.77966 3.35438 3.77966 4.5625C3.77966 5.77062 4.75904 6.75 5.96716 6.75Z" stroke="#020726" stroke-width="1.25" stroke-linecap="round" stroke-linejoin="round"/>
<path d="M1.27966 13.25V13.625H10.6547V13.25C10.6547 11.8499 10.6547 11.1498 10.3822 10.615C10.1425 10.1446 9.76004 9.76216 9.28963 9.52247C8.75485 9.25 8.05479 9.25 6.65466 9.25H5.27966C3.87954 9.25 3.17948 9.25 2.64469 9.52247C2.17428 9.76216 1.79183 10.1446 1.55215 10.615C1.27966 11.1498 1.27966 11.8499 1.27966 13.25Z" stroke="#020726" stroke-width="1.25" stroke-linecap="round" stroke-linejoin="round"/>
</g>
<path d="M14.8422 8.125C16.3955 8.125 17.6547 6.8658 17.6547 5.3125C17.6547 3.7592 16.3955 2.5 14.8422 2.5C13.2889 2.5 12.0297 3.7592 12.0297 5.3125C12.0297 6.8658 13.2889 8.125 14.8422 8.125Z" stroke="#020726" stroke-width="1.25"/>
<path d="M14.5297 4.375V5.625H15.7797" stroke="#020726" stroke-width="1.25" stroke-linecap="round" stroke-linejoin="round"/>
<defs>
<clipPath id="clip0_230_1221">
<rect width="15" height="15" fill="white" transform="translate(0.0296631 0.5)"/>
</clipPath>
</defs>
</svg>
