<svg width="938" height="938" viewBox="0 0 938 938" fill="none" xmlns="http://www.w3.org/2000/svg">
<rect width="938" height="938" rx="150" fill="white"/>
<path fill-rule="evenodd" clip-rule="evenodd" d="M468.5 231.344L200.313 649.519H736.687L468.5 231.344ZM518.094 191.116C494.908 154.961 442.092 154.961 418.906 191.116L142.426 622.223C117.265 661.455 145.426 713 192.02 713H744.98C791.574 713 819.735 661.455 794.574 622.223L518.094 191.116Z" fill="black"/>
<path fill-rule="evenodd" clip-rule="evenodd" d="M468.5 231.344L200.313 649.519H736.687L468.5 231.344ZM518.094 191.116C494.908 154.961 442.092 154.961 418.906 191.116L142.426 622.223C117.265 661.455 145.426 713 192.02 713H744.98C791.574 713 819.735 661.455 794.574 622.223L518.094 191.116Z" fill="black" fill-opacity="0.2"/>
</svg>
