<!-- svg-sprite -->
<svg id="mysprite" xmlns="http://www.w3.org/2000/svg" fill="none" aria-hidden="true" focusable="false">
    <symbol id="draggable" viewBox="0 0 16 17">
        <path d="M10.6667 4.50065C11.403 4.50065 12 3.9037 12 3.16732C12 2.43094 11.403 1.83398 10.6667 1.83398C9.93029 1.83398 9.33333 2.43094 9.33333 3.16732C9.33333 3.9037 9.93029 4.50065 10.6667 4.50065Z" fill="currentColor" />
        <path d="M5.33333 4.50065C6.06971 4.50065 6.66667 3.9037 6.66667 3.16732C6.66667 2.43094 6.06971 1.83398 5.33333 1.83398C4.59695 1.83398 4 2.43094 4 3.16732C4 3.9037 4.59695 4.50065 5.33333 4.50065Z" fill="currentColor" />
        <path d="M10.6667 9.83398C11.403 9.83398 12 9.23703 12 8.50065C12 7.76427 11.403 7.16732 10.6667 7.16732C9.93029 7.16732 9.33333 7.76427 9.33333 8.50065C9.33333 9.23703 9.93029 9.83398 10.6667 9.83398Z" fill="currentColor" />
        <path d="M10.6667 15.1673C11.403 15.1673 12 14.5704 12 13.834C12 13.0976 11.403 12.5007 10.6667 12.5007C9.93029 12.5007 9.33333 13.0976 9.33333 13.834C9.33333 14.5704 9.93029 15.1673 10.6667 15.1673Z" fill="currentColor" />
        <path d="M5.33333 9.83398C6.06971 9.83398 6.66667 9.23703 6.66667 8.50065C6.66667 7.76427 6.06971 7.16732 5.33333 7.16732C4.59695 7.16732 4 7.76427 4 8.50065C4 9.23703 4.59695 9.83398 5.33333 9.83398Z" fill="currentColor" />
        <path d="M5.33333 15.1673C6.06971 15.1673 6.66667 14.5704 6.66667 13.834C6.66667 13.0976 6.06971 12.5007 5.33333 12.5007C4.59695 12.5007 4 13.0976 4 13.834C4 14.5704 4.59695 15.1673 5.33333 15.1673Z" fill="currentColor" />
    </symbol>
    <!-- Иконка перетаскивания объекта -->
    <!-- Иконка галочка в кружочке -->
    <symbol id="successCircle" viewBox="0 0 16 16">
        <path d="M7.99967 1.33398C4.32634 1.33398 1.33301 4.32732 1.33301 8.00065C1.33301 11.674 4.32634 14.6673 7.99967 14.6673C11.673 14.6673 14.6663 11.674 14.6663 8.00065C14.6663 4.32732 11.673 1.33398 7.99967 1.33398ZM11.1863 6.46732L7.40634 10.2473C7.31301 10.3407 7.18634 10.394 7.05301 10.394C6.91967 10.394 6.79301 10.3407 6.69967 10.2473L4.81301 8.36065C4.61967 8.16732 4.61967 7.84732 4.81301 7.65398C5.00634 7.46065 5.32634 7.46065 5.51967 7.65398L7.05301 9.18732L10.4797 5.76065C10.673 5.56732 10.993 5.56732 11.1863 5.76065C11.3797 5.95398 11.3797 6.26732 11.1863 6.46732Z" fill="currentColor" />
    </symbol>
    <!-- Иконка галочка в кружочке -->
    <!-- Иконка кнопка play -->
    <symbol id="play" viewBox="0 0 10 16">
        <path d="M10.8775 6.3423C12.0522 7.13525 12.0522 8.86475 10.8775 9.6577L3.11894 14.8947C1.79063 15.7913 0 14.8396 0 13.237L0 2.76299C0 1.16038 1.79063 0.208676 3.11895 1.10529L10.8775 6.3423Z" fill="currentColor" />
    </symbol>
    <!-- Иконка кнопка play -->
    <!-- Иконка стрелочка влево -->
    <symbol id="arrowLeft" viewBox="0 0 10 15">
        <path d="M0.738281 7.76953C0.738281 7.55859 0.777344 7.36719 0.855469 7.19531C0.933594 7.01953 1.05859 6.84766 1.23047 6.67969L6.89062 1.14258C7.13281 0.896484 7.43359 0.773438 7.79297 0.773438C8.03906 0.773438 8.26172 0.833984 8.46094 0.955078C8.66016 1.07227 8.82031 1.23047 8.94141 1.42969C9.0625 1.62891 9.12305 1.8457 9.12305 2.08008C9.12305 2.44727 8.98047 2.77148 8.69531 3.05273L3.82031 7.75781L8.69531 12.4805C8.98047 12.7656 9.12305 13.0898 9.12305 13.4531C9.12305 13.6953 9.0625 13.916 8.94141 14.1152C8.82031 14.3145 8.66016 14.4727 8.46094 14.5898C8.26172 14.707 8.03906 14.7656 7.79297 14.7656C7.43359 14.7656 7.13281 14.6426 6.89062 14.3965L1.23047 8.85938C1.05469 8.6875 0.927734 8.51367 0.849609 8.33789C0.775391 8.16211 0.738281 7.97266 0.738281 7.76953Z" fill="currentColor" />
    </symbol>
    <!-- Иконка стрелочка влево -->
    <!-- Иконка громкость включена -->
    <symbol id="volumeOn" viewBox="0 0 16 16">
        <path d="M7.55786 14C7.38284 14 7.21704 13.962 7.06045 13.886C6.90386 13.8145 6.74036 13.7006 6.56995 13.5441L3.68221 10.8894C3.63615 10.8536 3.58319 10.8358 3.52332 10.8358H1.56131C1.0593 10.8358 0.672424 10.7017 0.400691 10.4335C0.133564 10.1654 0 9.76983 0 9.24693V6.75978C0 6.24134 0.133564 5.84804 0.400691 5.57989C0.672424 5.31173 1.0593 5.17765 1.56131 5.17765H3.52332C3.58319 5.17765 3.63615 5.15754 3.68221 5.11732L6.56995 2.49609C6.76338 2.32179 6.93149 2.19665 7.07427 2.12067C7.21704 2.04022 7.37363 2 7.54404 2C7.81117 2 8.02763 2.08715 8.19344 2.26145C8.36385 2.43575 8.44905 2.64804 8.44905 2.89832V13.1352C8.44905 13.381 8.36615 13.5866 8.20035 13.752C8.03454 13.9173 7.82038 14 7.55786 14ZM10.9154 10.9698C10.7496 10.8626 10.6528 10.7196 10.6252 10.5408C10.6022 10.362 10.6552 10.1765 10.7841 9.98436C10.9729 9.7162 11.1203 9.41229 11.2263 9.07263C11.3322 8.72849 11.3851 8.36872 11.3851 7.9933C11.3851 7.61788 11.3322 7.2581 11.2263 6.91397C11.1249 6.56983 10.9775 6.26592 10.7841 6.00223C10.6505 5.81453 10.5976 5.63128 10.6252 5.45251C10.6528 5.26927 10.7496 5.12402 10.9154 5.01676C11.0628 4.9229 11.2216 4.89162 11.3921 4.9229C11.5625 4.95419 11.6983 5.04134 11.7997 5.18436C12.0806 5.54637 12.2994 5.97318 12.456 6.4648C12.6125 6.95196 12.6908 7.46145 12.6908 7.9933C12.6908 8.52514 12.6125 9.03464 12.456 9.52179C12.2994 10.0089 12.0806 10.4335 11.7997 10.7955C11.6983 10.943 11.5625 11.0324 11.3921 11.0637C11.2216 11.0905 11.0628 11.0592 10.9154 10.9698ZM13.6718 12.7598C13.5106 12.6615 13.4185 12.5251 13.3955 12.3508C13.3725 12.1721 13.4208 11.9955 13.5406 11.8212C13.9044 11.2939 14.1877 10.7017 14.3903 10.0447C14.593 9.38771 14.6943 8.70391 14.6943 7.9933C14.6943 7.28268 14.593 6.59888 14.3903 5.9419C14.1923 5.28045 13.909 4.68827 13.5406 4.16536C13.4162 3.99106 13.3656 3.81676 13.3886 3.64246C13.4162 3.46369 13.5106 3.32514 13.6718 3.22682C13.8284 3.12849 13.9919 3.09721 14.1623 3.13296C14.3374 3.16425 14.4778 3.25587 14.5838 3.40782C15.0351 4.02011 15.3828 4.72626 15.6269 5.52626C15.8756 6.32179 16 7.14413 16 7.9933C16 8.84246 15.8756 9.6648 15.6269 10.4603C15.3782 11.2514 15.0305 11.9575 14.5838 12.5788C14.4778 12.7307 14.3374 12.8223 14.1623 12.8536C13.9919 12.8849 13.8284 12.8536 13.6718 12.7598Z" fill="currentColor" />
    </symbol>
    <!-- Иконка громкость включена -->
    <!-- Иконка замочек в кружочке -->
    <symbol id="lockedCircle" viewBox="0 0 16 16">
        <path d="M8 5.16602C6.74 5.16602 6.5 5.69268 6.5 6.66602V7.07935H9.5V6.66602C9.5 5.69268 9.26 5.16602 8 5.16602Z" fill="currentColor" />
        <path d="M7.99994 10.0663C8.40494 10.0663 8.73327 9.73795 8.73327 9.33294C8.73327 8.92793 8.40494 8.59961 7.99994 8.59961C7.59493 8.59961 7.2666 8.92793 7.2666 9.33294C7.2666 9.73795 7.59493 10.0663 7.99994 10.0663Z" fill="currentColor" />
        <path d="M7.99967 1.33398C4.31967 1.33398 1.33301 4.32065 1.33301 8.00065C1.33301 11.6807 4.31967 14.6673 7.99967 14.6673C11.6797 14.6673 14.6663 11.6807 14.6663 8.00065C14.6663 4.32065 11.6797 1.33398 7.99967 1.33398ZM11.5863 9.66732C11.5863 11.134 11.133 11.5873 9.66634 11.5873H6.33301C4.86634 11.5873 4.41301 11.134 4.41301 9.66732V9.00065C4.41301 7.86065 4.68634 7.33398 5.49967 7.15398V6.66732C5.49967 6.04732 5.49967 4.16732 7.99967 4.16732C10.4997 4.16732 10.4997 6.04732 10.4997 6.66732V7.15398C11.313 7.33398 11.5863 7.86065 11.5863 9.00065V9.66732Z" fill="currentColor" />
    </symbol>
    <!-- Иконка замочек в кружочке -->
    <!-- Иконка крестика -->
    <symbol id="cross" viewBox="0 0 31 31">
        <path fill-rule="evenodd" clip-rule="evenodd" d="M18.3284 17.6214L17.6213 18.3285L28.935 29.6422L29.6421 28.9351L18.3284 17.6214ZM13.3787 18.3285L12.6716 17.6214L0.650743 29.6422L1.35785 30.3493L13.3787 18.3285ZM12.6716 13.3788L13.3787 12.6717L2.06496 1.35796L1.35785 2.06506L12.6716 13.3788ZM30.3492 1.35796L18.3284 13.3788L17.6213 12.6717L29.6421 0.650849L30.3492 1.35796Z" fill="currentColor"/>
    </symbol>
    <!-- Иконка крестика -->
    <!-- Иконка плюсик в квадрате -->
    <symbol id="plusSquare" viewBox="0 0 16 17">
        <path d="M10.794 1.86261H5.20732C2.78065 1.86261 1.33398 3.30928 1.33398 5.73594V11.3159C1.33398 13.7493 2.78065 15.1959 5.20732 15.1959H10.7873C13.214 15.1959 14.6607 13.7493 14.6607 11.3226V5.73594C14.6673 3.30928 13.2207 1.86261 10.794 1.86261ZM10.6673 9.02928H8.50065V11.1959C8.50065 11.4693 8.27398 11.6959 8.00065 11.6959C7.72732 11.6959 7.50065 11.4693 7.50065 11.1959V9.02928H5.33398C5.06065 9.02928 4.83398 8.80261 4.83398 8.52928C4.83398 8.25594 5.06065 8.02928 5.33398 8.02928H7.50065V5.86261C7.50065 5.58928 7.72732 5.36261 8.00065 5.36261C8.27398 5.36261 8.50065 5.58928 8.50065 5.86261V8.02928H10.6673C10.9407 8.02928 11.1673 8.25594 11.1673 8.52928C11.1673 8.80261 10.9407 9.02928 10.6673 9.02928Z" fill="currentColor" />
    </symbol>
    <!-- Иконка плюсик в квадрате -->
    <!-- Иконка три точки (вертикально) -->
    <symbol id="kebabMenu" viewBox="0 0 24 24">
        <circle cx="12" cy="4" r="2" fill="currentColor"></circle>
        <circle cx="12" cy="12" r="2" fill="currentColor"></circle>
        <circle cx="12" cy="20" r="2" fill="currentColor"></circle>
    </symbol>
    <!-- Иконка три точки (вертикально) -->
    <!-- Иконка фотоаппарата -->
    <symbol id="photo" viewBox="0 0 24 24">
        <path fill-rule="evenodd" clip-rule="evenodd" d="M8.25003 13C8.25003 10.9289 9.92897 9.25 12 9.25C14.0711 9.25 15.75 10.9289 15.75 13C15.75 15.0711 14.0711 16.75 12 16.75C9.92897 16.75 8.25003 15.0711 8.25003 13ZM12 10.75C10.7574 10.75 9.75003 11.7574 9.75003 13C9.75003 14.2426 10.7574 15.25 12 15.25C13.2427 15.25 14.25 14.2426 14.25 13C14.25 11.7574 13.2427 10.75 12 10.75Z" fill="currentColor" />
        <path fill-rule="evenodd" clip-rule="evenodd" d="M10.6162 5.75C9.571 5.75 8.72372 6.59728 8.72372 7.64245C8.72372 8.30841 8.2125 8.86283 7.54872 8.91674L5.31912 9.09782C4.88135 9.13337 4.52132 9.45709 4.43961 9.88864C3.99087 12.2586 3.95741 14.6886 4.34072 17.0701L4.43797 17.6743C4.52982 18.2449 4.99945 18.679 5.57551 18.7258L7.51783 18.8835C10.5011 19.1258 13.499 19.1258 16.4822 18.8835L18.4246 18.7258C19.0006 18.679 19.4703 18.2449 19.5621 17.6743L19.6593 17.0701C20.0427 14.6886 20.0092 12.2586 19.5605 9.88864C19.4787 9.45709 19.1187 9.13337 18.681 9.09782L16.4514 8.91674C15.7876 8.86284 15.2764 8.30841 15.2764 7.64245C15.2764 6.59728 14.4291 5.75 13.3839 5.75H10.6162ZM7.2298 7.4377C7.33565 5.65944 8.81132 4.25 10.6162 4.25H13.3839C15.1888 4.25 16.6644 5.65944 16.7703 7.4377L18.8024 7.60274C19.9133 7.69296 20.8269 8.51446 21.0343 9.60958C21.5153 12.1503 21.5512 14.7554 21.1403 17.3084L21.043 17.9126C20.8414 19.1652 19.8105 20.1182 18.546 20.2209L16.6037 20.3786C13.5396 20.6274 10.4605 20.6274 7.39641 20.3786L5.45409 20.2209C4.18956 20.1182 3.15865 19.1652 2.95703 17.9126L2.85978 17.3084C2.44885 14.7554 2.48472 12.1503 2.9658 9.60958C3.17315 8.51446 4.08678 7.69296 5.1977 7.60274L7.2298 7.4377Z" fill="currentColor" />
    </symbol>
    <!-- Иконка фотоаппарата -->
    <!-- Иконка копирования -->
    <symbol id="copy" viewBox="0 0 16 16">
        <path d="M10.6663 8.59967V11.3997C10.6663 13.733 9.73301 14.6663 7.39967 14.6663H4.59967C2.26634 14.6663 1.33301 13.733 1.33301 11.3997V8.59967C1.33301 6.26634 2.26634 5.33301 4.59967 5.33301H7.39967C9.73301 5.33301 10.6663 6.26634 10.6663 8.59967Z" stroke="currentColor" stroke-width="1.5" stroke-linecap="round" stroke-linejoin="round" />
        <path d="M14.6663 4.59967V7.39967C14.6663 9.73301 13.733 10.6663 11.3997 10.6663H10.6663V8.59967C10.6663 6.26634 9.73301 5.33301 7.39967 5.33301H5.33301V4.59967C5.33301 2.26634 6.26634 1.33301 8.59967 1.33301H11.3997C13.733 1.33301 14.6663 2.26634 14.6663 4.59967Z" stroke="currentColor" stroke-width="1.5" stroke-linecap="round" stroke-linejoin="round" />
    </symbol>
    <!-- Иконка копирования -->
    <!-- Иконка ссылки -->
    <symbol id="link" viewBox="0 0 16 16">
        <path d="M10.793 1.3335H5.20634C2.77967 1.3335 1.33301 2.78016 1.33301 5.20683V10.7868C1.33301 13.2202 2.77967 14.6668 5.20634 14.6668H10.7863C13.213 14.6668 14.6597 13.2202 14.6597 10.7935V5.20683C14.6663 2.78016 13.2197 1.3335 10.793 1.3335ZM11.4997 8.22016C11.4997 8.4935 11.273 8.72016 10.9997 8.72016C10.7263 8.72016 10.4997 8.4935 10.4997 8.22016V6.20683L5.35301 11.3535C5.25301 11.4535 5.12634 11.5002 4.99967 11.5002C4.87301 11.5002 4.74634 11.4535 4.64634 11.3535C4.45301 11.1602 4.45301 10.8402 4.64634 10.6468L9.79301 5.50016H7.77967C7.50634 5.50016 7.27967 5.2735 7.27967 5.00016C7.27967 4.72683 7.50634 4.50016 7.77967 4.50016H10.9997C11.273 4.50016 11.4997 4.72683 11.4997 5.00016V8.22016Z" fill="currentColor" />
    </symbol>
    <!-- Иконка ссылки -->
    <!-- Иконка редактирования -->
    <symbol id="pencil" viewBox="0 0 16 16">
        <path d="M13.3333 5.49312L4.82667 13.9998H2V11.1731L10.5067 2.66645C10.8817 2.29192 11.39 2.08154 11.92 2.08154C12.45 2.08154 12.9583 2.29192 13.3333 2.66645V2.66645C13.7079 3.04145 13.9182 3.54978 13.9182 4.07978C13.9182 4.60978 13.7079 5.11811 13.3333 5.49312Z" stroke="currentColor" stroke-width="2" stroke-linecap="round" stroke-linejoin="round" />
    </symbol>
    <!-- Иконка редактирования -->
    <!-- Иконка Телеграм в кружочке -->
    <symbol id="telegramCircle" viewBox="0 0 16 16">
        <path fill-rule="evenodd" clip-rule="evenodd" d="M2.34375 2.34313C3.8425 0.843375 5.87875 0 8 0C10.1213 0 12.1575 0.843375 13.6562 2.34313C15.1562 3.84288 16 5.87913 16 8C16 10.1209 15.1562 12.1571 13.6562 13.6569C12.1575 15.1566 10.1213 16 8 16C5.87875 16 3.8425 15.1566 2.34375 13.6569C0.84375 12.1571 0 10.1209 0 8C0 5.87913 0.84375 3.84288 2.34375 2.34313ZM8.28656 5.90573C7.50906 6.22935 5.95409 6.89923 3.62159 7.91523C3.24284 8.06585 3.04405 8.21323 3.02655 8.35723C2.99578 8.60048 3.30043 8.69643 3.71439 8.82679C3.77117 8.84467 3.83001 8.8632 3.89032 8.88285C4.29907 9.0156 4.84904 9.17098 5.13404 9.1771C5.39404 9.18273 5.68278 9.07585 6.00153 8.8566C8.18153 7.38573 9.30528 6.64223 9.37653 6.62623C9.42653 6.61498 9.49532 6.60073 9.54157 6.64235C9.58907 6.68385 9.58404 6.7626 9.57904 6.78373C9.54956 6.91221 8.35734 8.02067 7.73696 8.59747C7.54193 8.7788 7.40341 8.90758 7.37531 8.93685C7.31252 9.00208 7.24851 9.06379 7.187 9.12309C6.80765 9.48876 6.52306 9.7631 7.20282 10.211C7.53243 10.4281 7.79551 10.6073 8.05844 10.7864C8.34095 10.9788 8.62329 11.1711 8.9878 11.4102C9.08152 11.4716 9.17101 11.5354 9.25817 11.5976C9.58951 11.8338 9.88716 12.046 10.2553 12.0121C10.4691 11.9925 10.6903 11.7915 10.8016 11.192C11.0666 9.7751 11.5878 6.70535 11.7078 5.44035C11.7191 5.3296 11.7053 5.18773 11.6953 5.12548C11.6841 5.06323 11.6615 4.97448 11.5815 4.90885C11.4853 4.83098 11.3378 4.8146 11.2715 4.81573C10.9703 4.8211 10.5091 4.9816 8.28656 5.90573Z" fill="currentColor" />
    </symbol>
    <!-- Иконка Телеграм в кружочке -->
    <!-- Иконка телеграм -->
    <symbol id="telegram" viewBox="0 0 10 7">
        <path d="M0.597172 3.09955C2.92967 2.08355 4.48465 1.41368 5.26215 1.09005C7.48465 0.165927 7.94588 0.00542776 8.24714 5.28504e-05C8.31339 -0.00107201 8.46088 0.0153026 8.55713 0.0931777C8.63713 0.158802 8.65965 0.247552 8.6709 0.309802C8.6809 0.372053 8.69466 0.513927 8.68341 0.624678C8.56341 1.88968 8.04216 4.95943 7.77716 6.3763C7.66591 6.97583 7.44465 7.17683 7.2309 7.19645C6.86275 7.2303 6.5651 7.01811 6.23376 6.78191C6.1466 6.71977 6.05711 6.65597 5.96338 6.59455C5.59888 6.35546 5.31654 6.16314 5.03403 5.9707C4.7711 5.79161 4.50801 5.61241 4.17841 5.3953C3.49864 4.94743 3.78324 4.67309 4.16258 4.30741C4.2241 4.24811 4.28811 4.18641 4.3509 4.12118C4.379 4.09191 4.51751 3.96312 4.71255 3.78179C5.33293 3.205 6.52515 2.09654 6.55463 1.96805C6.55963 1.94693 6.56466 1.86818 6.51715 1.82668C6.47091 1.78505 6.40212 1.7993 6.35212 1.81055C6.28087 1.82655 5.15712 2.57005 2.97712 4.04093C2.65837 4.26018 2.36962 4.36705 2.10962 4.36143C1.82462 4.3553 1.27466 4.19993 0.86591 4.06718C0.805597 4.04753 0.746756 4.029 0.689973 4.01112C0.276017 3.88075 -0.0286377 3.78481 0.00214043 3.54155C0.0196404 3.39755 0.218422 3.25018 0.597172 3.09955Z" fill="currentColor"/>
    </symbol>
    <!-- Иконка телеграм -->
    <!-- Иконка инсты -->
    <symbol id="instagram" viewBox="0 0 20 20">
        <path fill-rule="evenodd" clip-rule="evenodd" d="M10.0013 0.399902C7.39406 0.399902 7.06686 0.411302 6.04285 0.457903C5.02084 0.504703 4.32323 0.666505 3.71283 0.903908C3.08142 1.14911 2.54581 1.47711 2.01221 2.01092C1.4782 2.54453 1.1502 3.08013 0.904196 3.71134C0.666193 4.32194 0.504191 5.01975 0.458191 6.04136C0.41239 7.06537 0.400391 7.39277 0.400391 10C0.400391 12.6072 0.411991 12.9334 0.458391 13.9574C0.505392 14.9795 0.667194 15.6771 0.904396 16.2875C1.1498 16.9189 1.4778 17.4545 2.01161 17.9881C2.54501 18.5221 3.08062 18.8509 3.71163 19.0961C4.32243 19.3335 5.02024 19.4953 6.04205 19.5421C7.06606 19.5887 7.39306 19.6001 10.0001 19.6001C12.6075 19.6001 12.9337 19.5887 13.9577 19.5421C14.9797 19.4953 15.6782 19.3335 16.289 19.0961C16.9202 18.8509 17.455 18.5221 17.9884 17.9881C18.5224 17.4545 18.8504 16.9189 19.0964 16.2877C19.3324 15.6771 19.4944 14.9793 19.5424 13.9576C19.5884 12.9336 19.6004 12.6072 19.6004 10C19.6004 7.39277 19.5884 7.06557 19.5424 6.04156C19.4944 5.01955 19.3324 4.32194 19.0964 3.71154C18.8504 3.08013 18.5224 2.54453 17.9884 2.01092C17.4544 1.47691 16.9204 1.14891 16.2884 0.903908C15.6763 0.666505 14.9783 0.504703 13.9563 0.457903C12.9323 0.411302 12.6063 0.399902 9.99829 0.399902H10.0013ZM10.0013 2.12992C9.68089 2.12992 9.39568 2.12952 9.14008 2.12992V2.12752C7.35086 2.12952 7.00766 2.14152 6.12205 2.18152C5.18604 2.22452 4.67784 2.38052 4.33943 2.51252C3.89143 2.68693 3.57142 2.89493 3.23542 3.23093C2.89942 3.56694 2.69101 3.88694 2.51701 4.33494C2.38561 4.67335 2.22921 5.18135 2.18641 6.11736C2.14041 7.12937 2.13121 7.43177 2.13121 9.9954C2.13121 12.559 2.14041 12.863 2.18641 13.875C2.22901 14.8111 2.38561 15.3191 2.51701 15.6571C2.69141 16.1053 2.89942 16.4245 3.23542 16.7605C3.57142 17.0965 3.89143 17.3045 4.33943 17.4785C4.67804 17.6099 5.18604 17.7663 6.12205 17.8095C7.13406 17.8555 7.43786 17.8655 10.0013 17.8655C12.5645 17.8655 12.8685 17.8555 13.8805 17.8095C14.8165 17.7667 15.3249 17.6107 15.663 17.4787C16.1112 17.3047 16.4302 17.0967 16.7662 16.7607C17.1022 16.4249 17.3106 16.1059 17.4846 15.6579C17.616 15.3199 17.7724 14.8119 17.8152 13.8758C17.8612 12.8638 17.8712 12.5598 17.8712 9.9978C17.8712 7.43578 17.8612 7.13177 17.8152 6.11976C17.7726 5.18375 17.616 4.67575 17.4846 4.33774C17.3102 3.88974 17.1022 3.56974 16.7662 3.23373C16.4304 2.89773 16.111 2.68973 15.663 2.51573C15.3245 2.38432 14.8165 2.22792 13.8805 2.18512C12.8683 2.13912 12.5645 2.12992 10.0013 2.12992Z" fill="currentColor"/>
        <path fill-rule="evenodd" clip-rule="evenodd" d="M10.0013 5.06995C7.27866 5.06995 5.07124 7.27737 5.07124 10C5.07124 12.7226 7.27866 14.9291 10.0013 14.9291C12.7239 14.9291 14.9305 12.7226 14.9305 10C14.9305 7.27737 12.7239 5.06995 10.0013 5.06995ZM13.2013 10C13.2013 8.23258 11.7685 6.79997 10.0013 6.79997C8.23387 6.79997 6.80126 8.23258 6.80126 10C6.80126 11.7672 8.23387 13.2 10.0013 13.2C11.7685 13.2 13.2013 11.7672 13.2013 10Z" fill="currentColor"/>
        <path d="M15.1257 3.72394C14.4897 3.72394 13.9737 4.23934 13.9737 4.87555C13.9737 5.51156 14.4897 6.02756 15.1257 6.02756C15.7618 6.02756 16.2778 5.51156 16.2778 4.87555C16.2778 4.23954 15.7618 3.72394 15.1257 3.72394Z" fill="currentColor"/>
    </symbol>
    <!-- Иконка инсты -->
    <!-- Иконка таймера -->
    <symbol id="timer" viewBox="0 0 12 13">
        <path d="M6 12.5C9.28235 12.5 12 9.77647 12 6.5C12 3.21765 9.28824 0.5 6.00588 0.5C5.69412 0.5 5.54118 0.688235 5.54118 0.994118V3.27059C5.54118 3.52941 5.71765 3.72941 5.97059 3.72941C6.22941 3.72941 6.40588 3.52941 6.40588 3.27059V1.51765C8.99412 1.72353 10.9941 3.85882 10.9941 6.5C10.9941 9.27647 8.77647 11.5 6 11.5C3.22353 11.5 0.994118 9.27647 1 6.5C1.00588 5.25882 1.44706 4.13529 2.18824 3.27059C2.36471 3.04118 2.37647 2.76471 2.18235 2.55882C1.98824 2.35294 1.66471 2.37059 1.44706 2.62941C0.552941 3.67647 0 5.03529 0 6.5C0 9.77647 2.72353 12.5 6 12.5Z" fill="currentColor" />
        <path d="M6.75279 5.81721C7.31161 6.20544 7.40573 6.85838 6.94102 7.34662C6.46455 7.80544 5.81161 7.70544 5.41749 7.14662L3.24691 4.03485C3.04102 3.74662 3.34691 3.43485 3.64102 3.64074L6.75279 5.81721Z" fill="currentColor" />
    </symbol>
    <!-- Иконка таймера -->
    <!-- Иконка удаления поля -->
    <symbol id="removeInput" viewBox="0 0 16 17">
        <path d="M8 16.5C7.12004 16.5 6.28025 16.3642 5.48063 16.0925C4.68484 15.8209 3.95218 15.4402 3.28264 14.9505C2.61693 14.4608 2.0373 13.8812 1.54376 13.2116C1.05404 12.5459 0.673362 11.8152 0.401722 11.0194C0.133907 10.2198 0 9.37996 0 8.5C0 7.62004 0.133907 6.78216 0.401722 5.98637C0.673362 5.18675 1.05404 4.45409 1.54376 3.78838C2.0373 3.11884 2.61693 2.53922 3.28264 2.0495C3.94835 1.55595 4.68101 1.17527 5.48063 0.907461C6.28025 0.63582 7.11813 0.5 7.99426 0.5C8.87422 0.5 9.71401 0.63582 10.5136 0.907461C11.3132 1.17527 12.0459 1.55595 12.7116 2.0495C13.3773 2.53922 13.955 3.11884 14.4448 3.78838C14.9383 4.45409 15.3209 5.18675 15.5925 5.98637C15.8642 6.78216 16 7.62004 16 8.5C16 9.37996 15.8642 10.2198 15.5925 11.0194C15.3209 11.8152 14.9402 12.5459 14.4505 13.2116C13.9608 13.8812 13.3812 14.4608 12.7116 14.9505C12.0459 15.4402 11.3132 15.8209 10.5136 16.0925C9.71784 16.3642 8.87996 16.5 8 16.5ZM5.37159 9.54448H10.6284C10.9268 9.54448 11.1717 9.44883 11.363 9.25753C11.5581 9.06241 11.6557 8.81373 11.6557 8.51148C11.6557 8.20923 11.5581 7.96055 11.363 7.76542C11.1717 7.5703 10.9268 7.47274 10.6284 7.47274H5.37159C5.07317 7.47274 4.8264 7.5703 4.63128 7.76542C4.43998 7.96055 4.34433 8.20923 4.34433 8.51148C4.34433 8.81373 4.44189 9.06241 4.63702 9.25753C4.83214 9.44883 5.077 9.54448 5.37159 9.54448Z" fill="currentColor"></path>
    </symbol>
    <!-- Иконка удаления поля -->
    <!-- Иконка паузы -->
    <symbol id="pause" viewBox="0 0 16 16">
        <path fill-rule="evenodd" clip-rule="evenodd" d="M4 16C2.896 16 2 15.104 2 14V2C2 0.896 2.896 0 4 0C5.104 0 6 0.896 6 2V14C6 15.104 5.104 16 4 16ZM14 14V2C14 0.896 13.104 0 12 0C10.896 0 10 0.896 10 2V14C10 15.104 10.896 16 12 16C13.104 16 14 15.104 14 14Z" fill="currentColor" />
    </symbol>
    <!-- Иконка паузы -->
    <!-- Иконка свайпа -->
    <symbol id="swipe" viewBox="0 0 18 17">
        <path d="M12.491 0.136719H5.50768C2.47435 0.136719 0.666016 1.94505 0.666016 4.97839V11.9534C0.666016 14.9951 2.47435 16.8034 5.50768 16.8034H12.4827C15.516 16.8034 17.3243 14.9951 17.3243 11.9617V4.97839C17.3327 1.94505 15.5243 0.136719 12.491 0.136719ZM7.44102 10.5534C7.68268 10.7951 7.68268 11.1951 7.44102 11.4367C7.31602 11.5617 7.15768 11.6201 6.99935 11.6201C6.84102 11.6201 6.68268 11.5617 6.55768 11.4367L4.48268 9.36172C3.99102 8.87005 3.99102 8.07839 4.48268 7.58672L6.55768 5.51172C6.79935 5.27005 7.19935 5.27005 7.44102 5.51172C7.68268 5.75339 7.68268 6.15339 7.44102 6.39505L5.36602 8.47005L7.44102 10.5534ZM13.516 9.35339L11.441 11.4284C11.316 11.5534 11.1577 11.6117 10.9993 11.6117C10.841 11.6117 10.6827 11.5534 10.5577 11.4284C10.316 11.1867 10.316 10.7867 10.5577 10.5451L12.6327 8.47005L10.5577 6.38672C10.316 6.14505 10.316 5.74505 10.5577 5.50339C10.7993 5.26172 11.1993 5.26172 11.441 5.50339L13.516 7.57839C14.0077 8.07005 14.0077 8.87005 13.516 9.35339Z" fill="currentColor"/>
    </symbol>
    <!-- Иконка свайпа -->
    <!-- logo -->
    <symbol id="logo" viewBox="0 0 80 85">
        <path d="M78.6422 24.1774C74.2456 20.1694 59.1808 17.7775 45.3445 18.7472L42.6289 14.5452C42.3703 14.1573 41.9824 13.9634 41.5298 13.9634C41.0772 13.9634 40.6893 14.1573 40.4306 14.5452L37.0039 19.7815C27.6288 21.2683 19.4175 23.7895 12.4993 27.2804C9.20188 25.7289 6.29237 23.8542 4.28804 21.9148C2.02509 19.7168 0.861284 17.5189 1.05525 15.5149C1.37853 11.6362 6.09841 8.01603 14.3097 5.30092C22.0037 2.71511 31.8314 1.22826 41.4005 1.16362C41.7238 1.16362 41.9824 0.905036 41.9824 0.581809C41.9824 0.258582 41.7238 0 41.4005 0C31.7021 0.0646454 21.6805 1.55149 13.9218 4.20195C9.9131 5.5595 6.61565 7.11099 4.28804 8.92107C1.63715 10.9251 0.214726 13.123 0.0207587 15.3856C-0.173209 17.7775 0.990596 20.234 3.57683 22.7552C5.5165 24.6299 8.16739 26.3753 11.2062 27.9268C5.45185 30.7712 2.34837 34.456 2.34837 38.5933C2.34837 43.2478 7.84411 48.1608 13.3399 51.0699C10.5597 52.4274 8.42601 54.1082 7.06824 56.1122C5.38719 58.5687 5.06391 61.2192 6.09841 63.8697C8.2967 69.4938 16.508 72.5321 20.3227 73.6958C19.4175 74.5361 19.0942 75.4412 19.2235 76.4755C19.7408 79.5785 25.4951 81.9704 28.7926 82.8754C32.2194 83.8451 34.8702 84.3622 41.3358 85.0087H41.4005C41.7238 85.0087 41.9824 84.8148 41.9824 84.4915C41.9824 84.1683 41.7884 83.9097 41.4651 83.8451C35.0642 83.1986 32.478 82.6815 29.1159 81.7764C25.1072 80.6775 20.7106 78.3502 20.3227 76.2816C20.1934 75.5705 20.646 74.7947 21.6158 74.0836C29.4392 76.4109 35.9047 77.4452 42.5643 77.5745C50.4523 77.7038 60.086 76.7341 62.4783 74.3422C62.9309 73.8897 63.1248 73.4372 63.1248 72.92C63.1248 72.3382 62.8662 71.821 62.349 71.3039C59.3101 68.3948 47.2842 67.813 42.3057 68.0716C35.3228 68.3302 27.9521 68.9766 21.4218 72.8554C19.6761 72.4028 16.6373 71.3685 13.6631 69.7524C11.6588 68.6534 10.1071 67.4898 9.00792 66.2615C9.13723 66.2615 9.20188 66.3262 9.3312 66.3262H73.6637C74.1163 66.3262 74.5689 66.0676 74.8275 65.6151C75.0862 65.1626 75.0215 64.71 74.7629 64.2575L69.0085 55.2718C70.1723 54.7547 71.2068 54.1728 71.918 53.5264C72.6939 52.7506 73.0818 51.9103 73.0818 51.0052C73.0818 48.1608 69.5258 46.1568 62.4136 45.0578L56.0773 35.2964C59.8274 35.1671 63.3188 34.8439 66.4223 34.2621C71.9827 33.2924 76.25 31.6116 78.4483 29.6076C79.4827 28.7026 80 27.6682 80 26.6985C79.9353 25.7935 79.4827 24.9531 78.6422 24.1774ZM42.4996 69.1706C48.8359 68.912 59.3101 69.817 61.7024 72.0796C61.961 72.3382 62.0903 72.5968 62.0903 72.8554C62.0903 73.0493 61.961 73.2432 61.7671 73.4372C59.9567 75.2472 51.7454 76.4755 42.6936 76.3462C36.422 76.2169 30.3443 75.2472 23.1029 73.2432C29.1805 70.011 35.7108 69.4292 42.4996 69.1706ZM41.5298 17.3896L52.392 34.1974C49.2885 34.1974 45.8617 34.0681 42.1763 33.7449C38.6849 33.4863 35.1935 33.0338 31.8314 32.452L41.5298 17.3896ZM29.1159 31.9995C23.3615 30.9005 18.0597 29.4783 13.9218 27.8622C20.258 24.7592 27.7581 22.4966 36.1634 21.0744L29.1159 31.9995ZM3.57683 38.5933C3.57683 33.8095 8.42601 30.5126 12.564 28.5733C16.7666 30.3187 22.327 31.9348 28.4693 33.0984L18.0597 49.1305C16.9606 49.5184 15.7968 49.9709 14.7623 50.4234C9.13723 47.7083 3.57683 42.7953 3.57683 38.5933ZM17.0252 50.8113L16.702 51.3284C16.5726 51.2638 16.3787 51.1992 16.2494 51.1345C16.508 51.0052 16.7666 50.8759 17.0252 50.8113ZM8.2967 64.2575C8.16739 64.5161 8.10274 64.7747 8.10274 65.0333C7.77946 64.5161 7.45618 63.9989 7.26221 63.4171C6.35703 61.0899 6.61565 58.892 8.10274 56.7587C9.46051 54.7547 11.7235 53.0739 14.7623 51.7163C15.2149 51.9103 15.6028 52.1042 16.0554 52.2981L8.2967 64.2575ZM71.4654 63.805H11.5941L18.383 53.2678C24.2667 55.595 32.3487 58.0516 42.435 58.3748C48.3833 58.5687 54.7842 58.2455 59.892 57.5344C61.961 57.2112 64.3533 56.7587 66.5516 56.1769L71.4654 63.805ZM71.8534 51.0699C71.8534 51.6517 71.5947 52.1688 71.0128 52.7506C70.3663 53.3325 69.4611 53.9143 68.2973 54.3668L63.1895 46.48C68.8145 47.4497 71.8534 49.0659 71.8534 51.0699ZM65.8404 55.1425C59.892 56.8233 50.4523 57.5344 42.435 57.2112C32.6073 56.888 24.7839 54.4961 18.9649 52.2335L31.0555 33.551C34.6116 34.1328 38.297 34.6499 42.047 34.9085C45.9264 35.2317 49.6118 35.361 53.1032 35.361L65.8404 55.1425ZM77.6077 28.7672C74.8275 31.2884 67.5861 33.8095 55.3015 34.1974L46.0557 19.8461C59.2455 19.0057 73.793 21.2683 77.8017 24.9531C78.4483 25.5349 78.7069 26.1167 78.7069 26.6339C78.7715 27.345 78.3836 28.0561 77.6077 28.7672Z" fill="currentColor"/>
    </symbol>
    <!-- logo -->
    <!-- hamburger -->
    <symbol id="hamburgerMenu" viewBox="0 0 30 21">
        <line y1="0.5" x2="30" y2="0.5" stroke="currentColor"/>
        <line y1="10.5" x2="30" y2="10.5" stroke="currentColor"/>
        <line y1="20.5" x2="30" y2="20.5" stroke="currentColor"/>
    </symbol>
    <!-- hamburger -->
    <!-- list arrow -->
    <symbol id="listArrowRight" viewBox="0 0 41 8">
        <path d="M40.3536 4.35355C40.5488 4.15829 40.5488 3.84171 40.3536 3.64645L37.1716 0.464466C36.9763 0.269204 36.6597 0.269204 36.4645 0.464466C36.2692 0.659728 36.2692 0.976311 36.4645 1.17157L39.2929 4L36.4645 6.82843C36.2692 7.02369 36.2692 7.34027 36.4645 7.53553C36.6597 7.7308 36.9763 7.7308 37.1716 7.53553L40.3536 4.35355ZM0 4.5H40V3.5H0V4.5Z" fill="currentColor"/>
    </symbol>
    <!-- list arrow -->
    <!-- to top -->
    <symbol id="toTop" viewBox="0 0 64 64">
        <circle cx="32" cy="32" r="31.5" transform="rotate(-90 32 32)" stroke="currentColor"/>
        <path d="M32.3536 11.6464C32.1583 11.4512 31.8417 11.4512 31.6464 11.6464L28.4645 14.8284C28.2692 15.0237 28.2692 15.3403 28.4645 15.5355C28.6597 15.7308 28.9763 15.7308 29.1716 15.5355L32 12.7071L34.8284 15.5355C35.0237 15.7308 35.3403 15.7308 35.5355 15.5355C35.7308 15.3403 35.7308 15.0237 35.5355 14.8284L32.3536 11.6464ZM32.5 52L32.5 12L31.5 12L31.5 52L32.5 52Z" fill="currentColor"/>
    </symbol>
    <!-- to top -->
    <!-- arrowUp -->
    <symbol id="arrowUp" viewBox="0 0 8 41">
        <path d="M4.35355 0.646446C4.15829 0.451183 3.84171 0.451183 3.64644 0.646446L0.464464 3.82843C0.269202 4.02369 0.269202 4.34027 0.464465 4.53553C0.659727 4.7308 0.976309 4.7308 1.17157 4.53553L4 1.70711L6.82843 4.53553C7.02369 4.7308 7.34027 4.7308 7.53553 4.53553C7.73079 4.34027 7.73079 4.02369 7.53553 3.82843L4.35355 0.646446ZM4.5 41L4.5 1L3.5 1L3.5 41L4.5 41Z" fill="currentColor"/>
    </symbol>
    <!-- arrowUp -->
</svg>