<svg width="406" height="81" viewBox="0 0 406 81" fill="none" xmlns="http://www.w3.org/2000/svg">
<path d="M90.4526 17.9362H92.2774V3.18521H90.4526V2.06549H106.925V3.18521H105.1V17.9362H106.925V19.0559H101.182V17.9362H103.007V3.25823H94.3698V17.9362H96.1947V19.0559H90.4526V17.9362Z" fill="#231F20"/>
<path d="M109.239 22.8045H111.039V8.07787L109.239 7.76143V6.93382L113.034 6.20357V8.39431H113.132C113.407 7.79389 113.845 7.28271 114.446 6.86079C115.046 6.42264 115.84 6.20357 116.83 6.20357C118.387 6.20357 119.628 6.77154 120.553 7.90748C121.493 9.02719 121.964 10.65 121.964 12.7758C121.964 14.9016 121.493 16.5325 120.553 17.6685C119.628 18.7882 118.387 19.348 116.83 19.348C115.857 19.348 115.062 19.1371 114.446 18.7152C113.845 18.2932 113.407 17.7821 113.132 17.1816H113.034V22.8045H115.321V23.9243H109.239V22.8045ZM116.246 17.9606C117.365 17.9606 118.233 17.5873 118.849 16.8409C119.482 16.0781 119.798 15.0639 119.798 13.7982V11.7535C119.798 10.4877 119.482 9.48157 118.849 8.73509C118.233 7.97239 117.365 7.59104 116.246 7.59104C115.857 7.59104 115.467 7.64784 115.078 7.76143C114.689 7.87503 114.34 8.0373 114.032 8.24826C113.74 8.45922 113.497 8.72698 113.302 9.05154C113.124 9.35986 113.034 9.70876 113.034 10.0982V15.4534C113.034 15.8428 113.124 16.1999 113.302 16.5244C113.497 16.8327 113.74 17.0924 114.032 17.3033C114.34 17.5143 114.689 17.6766 115.078 17.7902C115.467 17.9038 115.857 17.9606 116.246 17.9606Z" fill="#231F20"/>
<path d="M130.286 18.1553C130.886 18.1553 131.405 18.0579 131.843 17.8632C132.297 17.6522 132.662 17.3683 132.938 17.0112C133.23 16.638 133.441 16.208 133.571 15.7211C133.717 15.2181 133.79 14.6744 133.79 14.0902V11.4614C133.79 10.8772 133.717 10.3416 133.571 9.85481C133.441 9.35175 133.23 8.92171 132.938 8.5647C132.662 8.19147 132.297 7.90748 131.843 7.71275C131.405 7.50179 130.886 7.39631 130.286 7.39631C129.67 7.39631 129.143 7.50179 128.705 7.71275C128.267 7.90748 127.902 8.19147 127.61 8.5647C127.334 8.92171 127.123 9.35175 126.977 9.85481C126.847 10.3416 126.782 10.8772 126.782 11.4614V14.0902C126.782 14.6744 126.847 15.2181 126.977 15.7211C127.123 16.208 127.334 16.638 127.61 17.0112C127.902 17.3683 128.267 17.6522 128.705 17.8632C129.143 18.0579 129.67 18.1553 130.286 18.1553ZM130.286 19.348C129.426 19.348 128.64 19.1939 127.926 18.8855C127.212 18.5772 126.604 18.1391 126.101 17.5711C125.598 16.9869 125.209 16.2972 124.933 15.5021C124.658 14.6907 124.52 13.7819 124.52 12.7758C124.52 11.7859 124.658 10.8853 124.933 10.0739C125.209 9.2625 125.598 8.57282 126.101 8.00485C126.604 7.42065 127.212 6.97439 127.926 6.66606C128.64 6.35773 129.426 6.20357 130.286 6.20357C131.146 6.20357 131.932 6.35773 132.646 6.66606C133.36 6.97439 133.968 7.42065 134.471 8.00485C134.974 8.57282 135.363 9.2625 135.639 10.0739C135.915 10.8853 136.053 11.7859 136.053 12.7758C136.053 13.7819 135.915 14.6907 135.639 15.5021C135.363 16.2972 134.974 16.9869 134.471 17.5711C133.968 18.1391 133.36 18.5772 132.646 18.8855C131.932 19.1939 131.146 19.348 130.286 19.348Z" fill="#231F20"/>
<path d="M144.185 19.348C143.277 19.348 142.466 19.1939 141.752 18.8855C141.054 18.561 140.462 18.1147 139.976 17.5468C139.489 16.9626 139.116 16.2729 138.856 15.4777C138.597 14.6663 138.467 13.7657 138.467 12.7758C138.467 11.7697 138.605 10.8609 138.881 10.0495C139.173 9.23816 139.578 8.54848 140.097 7.98051C140.616 7.41253 141.233 6.97439 141.947 6.66606C142.676 6.35773 143.479 6.20357 144.355 6.20357C145.669 6.20357 146.707 6.48755 147.47 7.05552C148.248 7.60727 148.638 8.31317 148.638 9.17324C148.638 9.69253 148.5 10.0982 148.224 10.3903C147.964 10.6824 147.599 10.8285 147.129 10.8285C146.626 10.8285 146.253 10.6824 146.01 10.3903C145.766 10.0982 145.645 9.74933 145.645 9.34364C145.645 8.98662 145.734 8.6783 145.912 8.41865C146.091 8.15901 146.342 7.95616 146.667 7.81011V7.73709C146.456 7.60727 146.18 7.5099 145.839 7.44499C145.515 7.38008 145.093 7.34762 144.574 7.34762C144.007 7.34762 143.479 7.4531 142.993 7.66406C142.522 7.87502 142.117 8.17524 141.776 8.5647C141.436 8.93794 141.168 9.3842 140.973 9.90349C140.779 10.4066 140.681 10.9583 140.681 11.5587V13.36C140.681 14.0253 140.771 14.6339 140.949 15.1856C141.127 15.7211 141.379 16.1836 141.703 16.5731C142.044 16.9626 142.441 17.2628 142.895 17.4737C143.366 17.6847 143.893 17.7902 144.477 17.7902C145.466 17.7902 146.245 17.5873 146.813 17.1816C147.38 16.7597 147.835 16.2161 148.175 15.5507L148.954 16.0619C148.808 16.4838 148.597 16.8976 148.321 17.3033C148.045 17.6928 147.713 18.0417 147.324 18.35C146.934 18.6421 146.472 18.8774 145.937 19.0559C145.418 19.2507 144.834 19.348 144.185 19.348Z" fill="#231F20"/>
<path d="M152.158 19.348C151.428 19.348 150.877 19.1614 150.504 18.7882C150.147 18.3987 149.968 17.9362 149.968 17.4007C149.968 16.9788 150.074 16.638 150.285 16.3784C150.512 16.1187 150.836 15.9889 151.258 15.9889C151.631 15.9889 151.915 16.0944 152.109 16.3053C152.32 16.5163 152.426 16.8003 152.426 17.1573C152.426 17.4169 152.361 17.6441 152.231 17.8389C152.101 18.0174 151.955 18.1391 151.793 18.204V18.277C151.842 18.3095 151.899 18.3257 151.963 18.3257C152.045 18.3257 152.118 18.3257 152.182 18.3257C152.555 18.3257 152.872 18.1959 153.131 17.9362C153.294 17.7739 153.456 17.5386 153.618 17.2303C153.78 16.9058 153.918 16.4189 154.032 15.7698C154.161 15.1207 154.259 14.2606 154.324 13.1896C154.405 12.1024 154.445 10.7149 154.445 9.02719V7.59104H152.645V6.49567H163.326V7.59104H161.526V17.9362H163.326V19.0559H157.73V17.9362H159.53V7.68841H155.905V8.90549C155.905 10.5932 155.865 11.9969 155.783 13.1166C155.719 14.2363 155.613 15.1613 155.467 15.8915C155.337 16.6218 155.167 17.1979 154.956 17.6198C154.762 18.0255 154.526 18.3581 154.251 18.6178C153.975 18.8937 153.65 19.0803 153.277 19.1776C152.904 19.2912 152.531 19.348 152.158 19.348Z" fill="#231F20"/>
<path d="M167.523 24.2164C166.696 24.2164 166.096 24.0379 165.723 23.6808C165.35 23.3401 165.163 22.8857 165.163 22.3177C165.163 21.8958 165.277 21.555 165.504 21.2954C165.731 21.0357 166.056 20.9059 166.477 20.9059C166.85 20.9059 167.134 21.0114 167.329 21.2223C167.54 21.4495 167.645 21.7497 167.645 22.123C167.645 22.3989 167.572 22.6179 167.426 22.7802C167.296 22.9587 167.15 23.0723 166.988 23.121V23.194C167.167 23.2589 167.377 23.2914 167.621 23.2914C168.043 23.2914 168.456 23.1048 168.862 22.7315C169.267 22.3745 169.632 21.7822 169.957 20.9546L170.468 19.5671L165.845 7.61538H164.579V6.49567H169.786V7.61538H168.034L171.416 16.8165H171.514L174.798 7.61538H173.047V6.49567H177.475V7.61538H176.21L171.003 21.1493C170.662 22.0418 170.2 22.7721 169.616 23.3401C169.048 23.9243 168.351 24.2164 167.523 24.2164Z" fill="#231F20"/>
<path d="M178.721 17.9362H180.521V7.59104H178.721V6.49567H184.098V7.59104H182.516V17.8632H187.115V7.59104H185.533V6.49567H190.691V7.59104H189.11V17.8632H193.708V7.59104H192.127V6.49567H197.504V7.59104H195.704V17.9362H197.504V19.0559H178.721V17.9362Z" fill="#231F20"/>
<path d="M203.662 19.348C202.494 19.348 201.577 19.0478 200.912 18.4474C200.263 17.8307 199.939 16.995 199.939 15.9402C199.939 15.3398 200.036 14.8124 200.231 14.358C200.426 13.8874 200.742 13.4979 201.18 13.1896C201.634 12.8813 202.218 12.646 202.932 12.4837C203.645 12.3214 204.513 12.2403 205.535 12.2403H207.336V10.3903C207.336 9.40043 207.092 8.64584 206.606 8.12655C206.135 7.59104 205.422 7.32328 204.464 7.32328C204.043 7.32328 203.653 7.36385 203.297 7.44499C202.94 7.5099 202.648 7.60727 202.421 7.73709V7.78577C202.599 7.88314 202.769 8.02919 202.932 8.22392C203.11 8.41865 203.199 8.69453 203.199 9.05154C203.199 9.47346 203.078 9.80613 202.834 10.0495C202.591 10.2767 202.267 10.3903 201.861 10.3903C201.472 10.3903 201.147 10.2767 200.888 10.0495C200.645 9.80613 200.523 9.44912 200.523 8.97851C200.523 8.6215 200.628 8.28072 200.839 7.95616C201.05 7.61538 201.35 7.31517 201.739 7.05552C202.129 6.79588 202.607 6.59303 203.175 6.44698C203.759 6.28471 204.416 6.20357 205.146 6.20357C206.46 6.20357 207.482 6.54435 208.211 7.22592C208.958 7.90748 209.331 8.86492 209.331 10.0982V18.0092H211.155V18.8612C210.977 18.991 210.734 19.1046 210.426 19.202C210.134 19.2994 209.801 19.348 209.428 19.348C208.795 19.348 208.309 19.1695 207.968 18.8125C207.628 18.4555 207.457 17.9768 207.457 17.3764V17.206H207.336C207.222 17.4818 207.068 17.7496 206.873 18.0092C206.695 18.2689 206.46 18.4961 206.168 18.6908C205.876 18.8855 205.519 19.0397 205.097 19.1533C204.692 19.2831 204.213 19.348 203.662 19.348ZM204.513 18.0092C205.292 18.0092 205.957 17.8145 206.508 17.4251C207.06 17.0194 207.336 16.4027 207.336 15.5751V13.214H205.754C205.057 13.214 204.473 13.2707 204.002 13.3843C203.532 13.4817 203.159 13.6359 202.883 13.8468C202.607 14.0416 202.404 14.285 202.275 14.5771C202.161 14.8692 202.104 15.21 202.104 15.5994V16.1106C202.104 16.7273 202.315 17.1979 202.737 17.5224C203.159 17.847 203.751 18.0092 204.513 18.0092Z" fill="#231F20"/>
<path d="M214.506 19.348C213.776 19.348 213.225 19.1614 212.852 18.7882C212.495 18.3987 212.316 17.9362 212.316 17.4007C212.316 16.9788 212.422 16.638 212.633 16.3784C212.86 16.1187 213.184 15.9889 213.606 15.9889C213.979 15.9889 214.263 16.0944 214.457 16.3053C214.668 16.5163 214.774 16.8003 214.774 17.1573C214.774 17.4169 214.709 17.6441 214.579 17.8389C214.449 18.0174 214.303 18.1391 214.141 18.204V18.277C214.19 18.3095 214.247 18.3257 214.311 18.3257C214.393 18.3257 214.466 18.3257 214.53 18.3257C214.904 18.3257 215.22 18.1959 215.479 17.9362C215.642 17.7739 215.804 17.5386 215.966 17.2303C216.128 16.9058 216.266 16.4189 216.38 15.7698C216.509 15.1207 216.607 14.2606 216.672 13.1896C216.753 12.1024 216.793 10.7149 216.793 9.02719V7.59104H214.993V6.49567H225.674V7.59104H223.874V17.9362H225.674V19.0559H220.078V17.9362H221.878V7.68841H218.253V8.90549C218.253 10.5932 218.213 11.9969 218.131 13.1166C218.067 14.2363 217.961 15.1613 217.815 15.8915C217.685 16.6218 217.515 17.1979 217.304 17.6198C217.11 18.0255 216.874 18.3581 216.599 18.6178C216.323 18.8937 215.998 19.0803 215.625 19.1776C215.252 19.2912 214.879 19.348 214.506 19.348Z" fill="#231F20"/>
<path d="M234.324 22.8289C233.627 22.3745 232.929 21.7741 232.232 21.0276C231.534 20.2974 230.901 19.4454 230.334 18.4717C229.782 17.4981 229.328 16.427 228.971 15.2586C228.631 14.074 228.46 12.8083 228.46 11.4614C228.46 10.1307 228.631 8.87303 228.971 7.68841C229.328 6.50378 229.782 5.42464 230.334 4.45097C230.901 3.47731 231.534 2.62535 232.232 1.8951C232.929 1.16485 233.627 0.572541 234.324 0.118164L234.932 0.848413C234.267 1.35147 233.667 1.9519 233.132 2.64969C232.597 3.34748 232.142 4.1183 231.769 4.96214C231.396 5.80599 231.112 6.69851 230.918 7.63972C230.723 8.58093 230.626 9.54648 230.626 10.5364V12.4107C230.626 13.3843 230.723 14.3499 230.918 15.3073C231.112 16.2485 231.396 17.1411 231.769 17.9849C232.142 18.8125 232.597 19.5752 233.132 20.273C233.667 20.987 234.267 21.5956 234.932 22.0986L234.324 22.8289Z" fill="#231F20"/>
<path d="M239.825 19.348C238.657 19.348 237.741 19.0478 237.076 18.4474C236.427 17.8307 236.103 16.995 236.103 15.9402C236.103 15.3398 236.2 14.8124 236.395 14.358C236.589 13.8874 236.906 13.4979 237.344 13.1896C237.798 12.8813 238.382 12.646 239.095 12.4837C239.809 12.3214 240.677 12.2403 241.699 12.2403H243.499V10.3903C243.499 9.40043 243.256 8.64584 242.769 8.12655C242.299 7.59104 241.585 7.32328 240.628 7.32328C240.206 7.32328 239.817 7.36385 239.46 7.44499C239.104 7.5099 238.812 7.60727 238.584 7.73709V7.78577C238.763 7.88314 238.933 8.02919 239.095 8.22392C239.274 8.41865 239.363 8.69453 239.363 9.05154C239.363 9.47346 239.241 9.80613 238.998 10.0495C238.755 10.2767 238.43 10.3903 238.025 10.3903C237.636 10.3903 237.311 10.2767 237.052 10.0495C236.808 9.80613 236.687 9.44912 236.687 8.97851C236.687 8.6215 236.792 8.28072 237.003 7.95616C237.214 7.61538 237.514 7.31517 237.903 7.05552C238.292 6.79588 238.771 6.59303 239.339 6.44698C239.923 6.28471 240.58 6.20357 241.31 6.20357C242.623 6.20357 243.645 6.54435 244.375 7.22592C245.121 7.90748 245.494 8.86492 245.494 10.0982V18.0092H247.319V18.8612C247.141 18.991 246.898 19.1046 246.589 19.202C246.297 19.2994 245.965 19.348 245.592 19.348C244.959 19.348 244.473 19.1695 244.132 18.8125C243.791 18.4555 243.621 17.9768 243.621 17.3764V17.206H243.499C243.386 17.4818 243.232 17.7496 243.037 18.0092C242.859 18.2689 242.623 18.4961 242.331 18.6908C242.039 18.8855 241.683 19.0397 241.261 19.1533C240.855 19.2831 240.377 19.348 239.825 19.348ZM240.677 18.0092C241.455 18.0092 242.121 17.8145 242.672 17.4251C243.224 17.0194 243.499 16.4027 243.499 15.5751V13.214H241.918C241.22 13.214 240.636 13.2707 240.166 13.3843C239.696 13.4817 239.322 13.6359 239.047 13.8468C238.771 14.0416 238.568 14.285 238.438 14.5771C238.325 14.8692 238.268 15.21 238.268 15.5994V16.1106C238.268 16.7273 238.479 17.1979 238.901 17.5224C239.322 17.847 239.915 18.0092 240.677 18.0092Z" fill="#231F20"/>
<path d="M248.12 22.0986C248.785 21.5956 249.385 20.987 249.92 20.273C250.455 19.5752 250.91 18.8125 251.283 17.9849C251.656 17.1411 251.94 16.2485 252.134 15.3073C252.329 14.3499 252.426 13.3843 252.426 12.4107V10.5364C252.426 9.54648 252.329 8.58093 252.134 7.63972C251.94 6.69851 251.656 5.80599 251.283 4.96214C250.91 4.1183 250.455 3.34748 249.92 2.64969C249.385 1.9519 248.785 1.35147 248.12 0.848413L248.728 0.118164C249.425 0.572541 250.123 1.16485 250.82 1.8951C251.518 2.62535 252.142 3.47731 252.694 4.45097C253.262 5.42464 253.716 6.50378 254.056 7.68841C254.413 8.87303 254.592 10.1307 254.592 11.4614C254.592 12.8083 254.413 14.074 254.056 15.2586C253.716 16.427 253.262 17.4981 252.694 18.4717C252.142 19.4454 251.518 20.2974 250.82 21.0276C250.123 21.7741 249.425 22.3745 248.728 22.8289L248.12 22.0986Z" fill="#231F20"/>
<path d="M263.047 17.9362H264.848V7.59104H263.047V6.49567H268.643V7.59104H266.843V12.1429H268.862L270.225 9.07588C270.695 8.00485 271.174 7.25837 271.66 6.83645C272.163 6.41453 272.723 6.20357 273.339 6.20357C273.875 6.20357 274.288 6.35773 274.58 6.66606C274.872 6.97439 275.018 7.36385 275.018 7.83446C275.018 8.30506 274.888 8.68641 274.629 8.97851C274.386 9.25438 274.053 9.39232 273.631 9.39232C273.21 9.39232 272.885 9.2625 272.658 9.00285C272.431 8.74321 272.317 8.37809 272.317 7.90748H272.244C272.115 8.06976 271.969 8.28883 271.806 8.5647C271.644 8.82435 271.482 9.13267 271.32 9.48969L269.957 12.5567C270.282 12.6054 270.557 12.7109 270.785 12.8732C271.012 13.0354 271.231 13.2789 271.441 13.6034L274.24 17.9362H275.602V19.0559H272.609L268.862 13.2626H266.843V17.9362H268.643V19.0559H263.047V17.9362Z" fill="#231F20"/>
<path d="M279.151 24.2164C278.324 24.2164 277.724 24.0379 277.351 23.6808C276.978 23.3401 276.791 22.8857 276.791 22.3177C276.791 21.8958 276.905 21.555 277.132 21.2954C277.359 21.0357 277.683 20.9059 278.105 20.9059C278.478 20.9059 278.762 21.0114 278.957 21.2223C279.167 21.4495 279.273 21.7497 279.273 22.123C279.273 22.3989 279.2 22.6179 279.054 22.7802C278.924 22.9587 278.778 23.0723 278.616 23.121V23.194C278.794 23.2589 279.005 23.2914 279.248 23.2914C279.67 23.2914 280.084 23.1048 280.489 22.7315C280.895 22.3745 281.26 21.7822 281.584 20.9546L282.095 19.5671L277.472 7.61538H276.207V6.49567H281.414V7.61538H279.662L283.044 16.8165H283.141L286.426 7.61538H284.674V6.49567H289.103V7.61538H287.837L282.63 21.1493C282.29 22.0418 281.828 22.7721 281.244 23.3401C280.676 23.9243 279.978 24.2164 279.151 24.2164Z" fill="#231F20"/>
<path d="M290.105 22.8045H291.906V8.07787L290.105 7.76143V6.93382L293.901 6.20357V8.39431H293.998C294.274 7.79389 294.712 7.28271 295.312 6.86079C295.912 6.42264 296.707 6.20357 297.696 6.20357C299.253 6.20357 300.494 6.77154 301.419 7.90748C302.36 9.02719 302.83 10.65 302.83 12.7758C302.83 14.9016 302.36 16.5325 301.419 17.6685C300.494 18.7882 299.253 19.348 297.696 19.348C296.723 19.348 295.928 19.1371 295.312 18.7152C294.712 18.2932 294.274 17.7821 293.998 17.1816H293.901V22.8045H296.188V23.9243H290.105V22.8045ZM297.112 17.9606C298.232 17.9606 299.099 17.5873 299.716 16.8409C300.348 16.0781 300.665 15.0639 300.665 13.7982V11.7535C300.665 10.4877 300.348 9.48157 299.716 8.73509C299.099 7.97239 298.232 7.59104 297.112 7.59104C296.723 7.59104 296.334 7.64784 295.944 7.76143C295.555 7.87503 295.206 8.0373 294.898 8.24826C294.606 8.45922 294.363 8.72698 294.168 9.05154C293.99 9.35986 293.901 9.70876 293.901 10.0982V15.4534C293.901 15.8428 293.99 16.1999 294.168 16.5244C294.363 16.8327 294.606 17.0924 294.898 17.3033C295.206 17.5143 295.555 17.6766 295.944 17.7902C296.334 17.9038 296.723 17.9606 297.112 17.9606Z" fill="#231F20"/>
<path d="M311.104 19.348C310.195 19.348 309.384 19.1939 308.671 18.8855C307.973 18.561 307.381 18.1147 306.894 17.5468C306.408 16.9626 306.035 16.2729 305.775 15.4777C305.516 14.6663 305.386 13.7657 305.386 12.7758C305.386 11.7697 305.524 10.8609 305.8 10.0495C306.092 9.23816 306.497 8.54848 307.016 7.98051C307.535 7.41253 308.152 6.97439 308.865 6.66606C309.595 6.35773 310.398 6.20357 311.274 6.20357C312.588 6.20357 313.626 6.48755 314.388 7.05552C315.167 7.60727 315.556 8.31317 315.556 9.17324C315.556 9.69253 315.418 10.0982 315.143 10.3903C314.883 10.6824 314.518 10.8285 314.048 10.8285C313.545 10.8285 313.172 10.6824 312.929 10.3903C312.685 10.0982 312.564 9.74933 312.564 9.34364C312.564 8.98662 312.653 8.6783 312.831 8.41865C313.01 8.15901 313.261 7.95616 313.586 7.81011V7.73709C313.375 7.60727 313.099 7.5099 312.758 7.44499C312.434 7.38008 312.012 7.34762 311.493 7.34762C310.925 7.34762 310.398 7.4531 309.912 7.66406C309.441 7.87502 309.036 8.17524 308.695 8.5647C308.354 8.93794 308.087 9.3842 307.892 9.90349C307.697 10.4066 307.6 10.9583 307.6 11.5587V13.36C307.6 14.0253 307.689 14.6339 307.868 15.1856C308.046 15.7211 308.298 16.1836 308.622 16.5731C308.963 16.9626 309.36 17.2628 309.814 17.4737C310.285 17.6847 310.812 17.7902 311.396 17.7902C312.385 17.7902 313.164 17.5873 313.731 17.1816C314.299 16.7597 314.753 16.2161 315.094 15.5507L315.873 16.0619C315.727 16.4838 315.516 16.8976 315.24 17.3033C314.964 17.6928 314.632 18.0417 314.242 18.35C313.853 18.6421 313.391 18.8774 312.856 19.0559C312.337 19.2507 311.753 19.348 311.104 19.348Z" fill="#231F20"/>
<path d="M56.9341 40.6416V39.5218L61.63 35.1647L62.1166 35.8219L59.0265 40.0817L62.1166 44.3415L61.63 44.9987L56.9341 40.6416ZM61.9463 40.6416V39.5218L66.6421 35.1647L67.1287 35.8219L64.0387 40.0817L67.1287 44.3415L66.6421 44.9987L61.9463 40.6416Z" fill="#231F20"/>
<path d="M69.7994 45.8994H71.6243V31.1483H69.7994V30.0286H75.5415V31.1483H73.7167V37.7936H76.1255L78.5343 33.047C78.8587 32.3979 79.1669 31.8624 79.4588 31.4404C79.7508 31.0185 80.0347 30.6858 80.3104 30.4424C80.6024 30.1828 80.9025 30.0043 81.2107 29.9069C81.5188 29.7933 81.8433 29.7365 82.1839 29.7365C82.7678 29.7365 83.2139 29.9069 83.5221 30.2477C83.8465 30.5723 84.0087 30.9779 84.0087 31.4648C84.0087 31.9029 83.8871 32.2762 83.6437 32.5845C83.4004 32.8928 83.0436 33.047 82.5732 33.047C82.1515 33.047 81.8108 32.909 81.5513 32.6332C81.2918 32.3573 81.162 31.9841 81.162 31.5135H81.089C80.8781 31.7893 80.651 32.122 80.4077 32.5115C80.1644 32.9009 79.9536 33.2823 79.7751 33.6555L77.4637 38.2317C77.7394 38.2804 77.9909 38.3859 78.218 38.5482C78.445 38.6942 78.6883 38.962 78.9479 39.3515L83.2058 45.8994H84.8846V47.0191H81.381L76.1498 38.962H73.7167V45.8994H75.5415V47.0191H69.7994V45.8994Z" fill="#231F20"/>
<path d="M85.7818 50.7677H87.5823V36.041L85.7818 35.7246V34.8969L89.5775 34.1667V36.3574H89.6748C89.9505 35.757 90.3885 35.2458 90.9887 34.8239C91.5888 34.3858 92.3836 34.1667 93.3731 34.1667C94.9303 34.1667 96.1711 34.7347 97.0957 35.8706C98.0365 36.9903 98.5069 38.6131 98.5069 40.7389C98.5069 42.8648 98.0365 44.4957 97.0957 45.6316C96.1711 46.7513 94.9303 47.3112 93.3731 47.3112C92.3998 47.3112 91.605 47.1002 90.9887 46.6783C90.3885 46.2564 89.9505 45.7452 89.6748 45.1448H89.5775V50.7677H91.8646V51.8874H85.7818V50.7677ZM92.7891 45.9237C93.9084 45.9237 94.7762 45.5505 95.3926 44.804C96.0252 44.0413 96.3415 43.027 96.3415 41.7613V39.7166C96.3415 38.4508 96.0252 37.4447 95.3926 36.6982C94.7762 35.9355 93.9084 35.5542 92.7891 35.5542C92.3998 35.5542 92.0105 35.611 91.6213 35.7246C91.232 35.8382 90.8832 36.0004 90.575 36.2114C90.2831 36.4224 90.0398 36.6901 89.8451 37.0147C89.6667 37.323 89.5775 37.6719 89.5775 38.0614V43.4165C89.5775 43.806 89.6667 44.163 89.8451 44.4875C90.0398 44.7959 90.2831 45.0555 90.575 45.2665C90.8832 45.4774 91.232 45.6397 91.6213 45.7533C92.0105 45.8669 92.3998 45.9237 92.7891 45.9237Z" fill="#231F20"/>
<path d="M106.756 47.3112C105.864 47.3112 105.061 47.157 104.347 46.8487C103.65 46.5241 103.058 46.0779 102.571 45.5099C102.085 44.9419 101.712 44.2522 101.452 43.4408C101.193 42.6295 101.063 41.7288 101.063 40.7389C101.063 39.7653 101.201 38.8809 101.476 38.0857C101.768 37.2743 102.158 36.5765 102.644 35.9923C103.147 35.4081 103.739 34.9619 104.42 34.6535C105.102 34.329 105.848 34.1667 106.659 34.1667C107.486 34.1667 108.224 34.3127 108.873 34.6048C109.522 34.8969 110.065 35.3108 110.503 35.8463C110.957 36.3656 111.306 36.9903 111.549 37.7206C111.793 38.4508 111.914 39.246 111.914 40.106V40.6659H103.277V41.2988C103.277 42.6781 103.618 43.7654 104.299 44.5606C104.996 45.3557 105.921 45.7533 107.073 45.7533C108.078 45.7533 108.873 45.5505 109.457 45.1448C110.057 44.7228 110.528 44.1792 110.868 43.5139L111.671 44.025C111.509 44.447 111.282 44.8608 110.99 45.2665C110.714 45.6559 110.373 46.0048 109.968 46.3132C109.562 46.6053 109.092 46.8406 108.557 47.0191C108.021 47.2138 107.421 47.3112 106.756 47.3112ZM103.277 39.5462H109.822V39.3028C109.822 38.7348 109.757 38.2074 109.627 37.7206C109.514 37.2337 109.327 36.8118 109.068 36.4548C108.808 36.0978 108.476 35.8219 108.07 35.6272C107.681 35.4162 107.21 35.3108 106.659 35.3108C106.107 35.3108 105.621 35.4081 105.199 35.6028C104.777 35.7976 104.42 36.0735 104.128 36.4305C103.853 36.7875 103.642 37.2094 103.496 37.6962C103.35 38.1668 103.277 38.6861 103.277 39.2541V39.5462Z" fill="#231F20"/>
<path d="M118.189 47.3112C117.021 47.3112 116.105 47.011 115.44 46.4105C114.791 45.7939 114.467 44.9581 114.467 43.9033C114.467 43.3029 114.564 42.7755 114.759 42.3211C114.953 41.8505 115.27 41.4611 115.708 41.1527C116.162 40.8444 116.746 40.6091 117.459 40.4468C118.173 40.2846 119.041 40.2034 120.063 40.2034H121.863V38.3535C121.863 37.3636 121.62 36.609 121.133 36.0897C120.663 35.5542 119.949 35.2864 118.992 35.2864C118.57 35.2864 118.181 35.327 117.824 35.4081C117.467 35.473 117.176 35.5704 116.948 35.7002V35.7489C117.127 35.8463 117.297 35.9923 117.459 36.187C117.638 36.3818 117.727 36.6577 117.727 37.0147C117.727 37.4366 117.605 37.7693 117.362 38.0127C117.119 38.2399 116.794 38.3535 116.389 38.3535C116 38.3535 115.675 38.2399 115.416 38.0127C115.172 37.7693 115.051 37.4122 115.051 36.9416C115.051 36.5846 115.156 36.2438 115.367 35.9193C115.578 35.5785 115.878 35.2783 116.267 35.0187C116.656 34.759 117.135 34.5562 117.703 34.4101C118.287 34.2478 118.944 34.1667 119.673 34.1667C120.987 34.1667 122.009 34.5075 122.739 35.189C123.485 35.8706 123.858 36.828 123.858 38.0614V45.9724H125.683V46.8243C125.505 46.9542 125.262 47.0678 124.953 47.1651C124.661 47.2625 124.329 47.3112 123.956 47.3112C123.323 47.3112 122.837 47.1327 122.496 46.7757C122.155 46.4186 121.985 45.9399 121.985 45.3395V45.1691H121.863C121.75 45.445 121.596 45.7127 121.401 45.9724C121.223 46.232 120.987 46.4592 120.695 46.6539C120.403 46.8487 120.047 47.0028 119.625 47.1164C119.219 47.2463 118.741 47.3112 118.189 47.3112ZM119.041 45.9724C119.819 45.9724 120.485 45.7776 121.036 45.3882C121.588 44.9825 121.863 44.3658 121.863 43.5382V41.1771H120.282C119.584 41.1771 119 41.2339 118.53 41.3475C118.06 41.4448 117.686 41.599 117.411 41.81C117.135 42.0047 116.932 42.2481 116.802 42.5402C116.689 42.8323 116.632 43.1731 116.632 43.5626V44.0737C116.632 44.6904 116.843 45.161 117.265 45.4855C117.686 45.8101 118.279 45.9724 119.041 45.9724Z" fill="#231F20"/>
<path d="M129.289 45.8994H131.576V35.6515H128.511V38.1587H127.051V34.4588H138.097V38.1587H136.637V35.6515H133.571V45.8994H135.859V47.0191H129.289V45.8994Z" fill="#231F20"/>
<path d="M140.152 45.8994H141.952V35.5542H140.152V34.4588H145.699V35.5542H143.899V40.1547L143.68 43.5382H143.753L150.03 36.2844V35.5542H148.23V34.4588H153.777V35.5542H151.977V45.8994H153.777V47.0191H148.23V45.8994H150.03V41.3475L150.249 37.9396H150.152L143.899 45.1934V45.8994H145.699V47.0191H140.152V45.8994Z" fill="#231F20"/>
<path d="M156.214 45.8994H158.015V35.5542H156.214V34.4588H163.222C164.389 34.4588 165.29 34.7347 165.922 35.2864C166.555 35.8382 166.871 36.5603 166.871 37.4528C166.871 38.3778 166.62 39.0675 166.117 39.5218C165.63 39.9762 165.038 40.2764 164.341 40.4225V40.5199C164.698 40.5523 165.046 40.6416 165.387 40.7876C165.744 40.9337 166.06 41.1365 166.336 41.3962C166.612 41.6396 166.839 41.9479 167.017 42.3211C167.196 42.6781 167.285 43.1001 167.285 43.5869C167.285 44.7391 166.928 45.5991 166.214 46.1671C165.517 46.7351 164.535 47.0191 163.27 47.0191H156.214V45.8994ZM163.076 45.8263C163.773 45.8263 164.292 45.6478 164.633 45.2908C164.99 44.9176 165.168 44.447 165.168 43.879V43.1731C165.168 42.6051 164.99 42.1426 164.633 41.7856C164.276 41.4124 163.757 41.2258 163.076 41.2258H160.01V45.8263H163.076ZM162.832 40.033C163.449 40.033 163.919 39.8626 164.243 39.5218C164.584 39.1648 164.754 38.7267 164.754 38.2074V37.4772C164.754 36.9579 164.584 36.5278 164.243 36.187C163.919 35.83 163.449 35.6515 162.832 35.6515H160.01V40.033H162.832Z" fill="#231F20"/>
<path d="M169.829 45.8994H171.63V35.5542H169.829V34.4588H175.425V35.5542H173.625V40.0574H179.659V35.5542H177.858V34.4588H183.454V35.5542H181.654V45.8994H183.454V47.0191H177.858V45.8994H179.659V41.2501H173.625V45.8994H175.425V47.0191H169.829V45.8994Z" fill="#231F20"/>
<path d="M191.536 46.1184C192.136 46.1184 192.655 46.0211 193.093 45.8263C193.547 45.6154 193.912 45.3314 194.188 44.9744C194.48 44.6011 194.691 44.1711 194.821 43.6843C194.967 43.1812 195.04 42.6376 195.04 42.0534V39.4245C195.04 38.8403 194.967 38.3048 194.821 37.8179C194.691 37.3149 194.48 36.8848 194.188 36.5278C193.912 36.1546 193.547 35.8706 193.093 35.6759C192.655 35.4649 192.136 35.3594 191.536 35.3594C190.92 35.3594 190.392 35.4649 189.955 35.6759C189.517 35.8706 189.152 36.1546 188.86 36.5278C188.584 36.8848 188.373 37.3149 188.227 37.8179C188.097 38.3048 188.032 38.8403 188.032 39.4245V42.0534C188.032 42.6376 188.097 43.1812 188.227 43.6843C188.373 44.1711 188.584 44.6011 188.86 44.9744C189.152 45.3314 189.517 45.6154 189.955 45.8263C190.392 46.0211 190.92 46.1184 191.536 46.1184ZM191.536 47.3112C190.676 47.3112 189.89 47.157 189.176 46.8487C188.462 46.5403 187.854 46.1022 187.351 45.5342C186.848 44.95 186.459 44.2603 186.183 43.4652C185.908 42.6538 185.77 41.7451 185.77 40.7389C185.77 39.749 185.908 38.8484 186.183 38.037C186.459 37.2256 186.848 36.5359 187.351 35.968C187.854 35.3838 188.462 34.9375 189.176 34.6292C189.89 34.3209 190.676 34.1667 191.536 34.1667C192.396 34.1667 193.182 34.3209 193.896 34.6292C194.61 34.9375 195.218 35.3838 195.721 35.968C196.224 36.5359 196.613 37.2256 196.889 38.037C197.165 38.8484 197.302 39.749 197.302 40.7389C197.302 41.7451 197.165 42.6538 196.889 43.4652C196.613 44.2603 196.224 44.95 195.721 45.5342C195.218 46.1022 194.61 46.5403 193.896 46.8487C193.182 47.157 192.396 47.3112 191.536 47.3112Z" fill="#231F20"/>
<path d="M205.411 47.3112C204.518 47.3112 203.716 47.157 203.002 46.8487C202.304 46.5241 201.712 46.0779 201.226 45.5099C200.739 44.9419 200.366 44.2522 200.106 43.4408C199.847 42.6295 199.717 41.7288 199.717 40.7389C199.717 39.7653 199.855 38.8809 200.131 38.0857C200.423 37.2743 200.812 36.5765 201.299 35.9923C201.802 35.4081 202.394 34.9619 203.075 34.6535C203.756 34.329 204.502 34.1667 205.313 34.1667C206.141 34.1667 206.879 34.3127 207.527 34.6048C208.176 34.8969 208.72 35.3108 209.158 35.8463C209.612 36.3656 209.96 36.9903 210.204 37.7206C210.447 38.4508 210.569 39.246 210.569 40.106V40.6659H201.931V41.2988C201.931 42.6781 202.272 43.7654 202.953 44.5606C203.651 45.3557 204.575 45.7533 205.727 45.7533C206.733 45.7533 207.527 45.5505 208.111 45.1448C208.711 44.7228 209.182 44.1792 209.523 43.5139L210.325 44.025C210.163 44.447 209.936 44.8608 209.644 45.2665C209.368 45.6559 209.028 46.0048 208.622 46.3132C208.217 46.6053 207.746 46.8406 207.211 47.0191C206.676 47.2138 206.076 47.3112 205.411 47.3112ZM201.931 39.5462H208.476V39.3028C208.476 38.7348 208.411 38.2074 208.282 37.7206C208.168 37.2337 207.982 36.8118 207.722 36.4548C207.462 36.0978 207.13 35.8219 206.724 35.6272C206.335 35.4162 205.865 35.3108 205.313 35.3108C204.762 35.3108 204.275 35.4081 203.853 35.6028C203.432 35.7976 203.075 36.0735 202.783 36.4305C202.507 36.7875 202.296 37.2094 202.15 37.6962C202.004 38.1668 201.931 38.6861 201.931 39.2541V39.5462Z" fill="#231F20"/>
<path d="M219.633 47.3112C218.903 47.3112 218.352 47.1245 217.979 46.7513C217.622 46.3618 217.444 45.8994 217.444 45.3638C217.444 44.9419 217.549 44.6011 217.76 44.3415C217.987 44.0818 218.311 43.952 218.733 43.952C219.106 43.952 219.39 44.0575 219.585 44.2685C219.796 44.4794 219.901 44.7634 219.901 45.1204C219.901 45.3801 219.836 45.6073 219.706 45.802C219.577 45.9805 219.431 46.1022 219.268 46.1671V46.2401C219.317 46.2726 219.374 46.2888 219.439 46.2888C219.52 46.2888 219.593 46.2888 219.658 46.2888C220.031 46.2888 220.347 46.159 220.607 45.8994C220.769 45.7371 220.931 45.5018 221.093 45.1934C221.255 44.8689 221.393 44.3821 221.507 43.733C221.637 43.0838 221.734 42.2238 221.799 41.1527C221.88 40.0655 221.92 38.678 221.92 36.9903V35.5542H220.12V34.4588H230.801V35.5542H229.001V45.8994H230.801V47.0191H225.205V45.8994H227.006V35.6515H223.38V36.8686C223.38 38.5563 223.34 39.96 223.259 41.0797C223.194 42.1994 223.088 43.1244 222.942 43.8547C222.813 44.5849 222.642 45.161 222.431 45.5829C222.237 45.9886 222.002 46.3213 221.726 46.5809C221.45 46.8568 221.126 47.0434 220.753 47.1408C220.379 47.2544 220.006 47.3112 219.633 47.3112Z" fill="#231F20"/>
<path d="M233.223 45.8994H235.023V35.5542H233.223V34.4588H238.77V35.5542H236.97V40.1547L236.751 43.5382H236.824L243.101 36.2844V35.5542H241.3V34.4588H246.848V35.5542H245.047V45.8994H246.848V47.0191H241.3V45.8994H243.101V41.3475L243.32 37.9396H243.223L236.97 45.1934V45.8994H238.77V47.0191H233.223V45.8994Z" fill="#231F20"/>
<path d="M248.506 45.8263H250.258C251.004 44.8527 251.596 43.6194 252.034 42.1264C252.488 40.6172 252.715 38.7997 252.715 36.6739V35.5542H250.891V34.4588H261.45V35.5542H259.65V45.8263H262.083V50.6703H260.282V47.0191H250.307V50.6703H248.506V45.8263ZM257.655 45.8263V35.6515H254.175V36.6739C254.175 38.6699 253.973 40.4549 253.567 42.029C253.162 43.6031 252.618 44.8689 251.937 45.8263H257.655Z" fill="#231F20"/>
<path d="M269.493 47.3112C268.601 47.3112 267.798 47.157 267.084 46.8487C266.387 46.5241 265.795 46.0779 265.308 45.5099C264.822 44.9419 264.449 44.2522 264.189 43.4408C263.929 42.6295 263.8 41.7288 263.8 40.7389C263.8 39.7653 263.938 38.8809 264.213 38.0857C264.505 37.2743 264.895 36.5765 265.381 35.9923C265.884 35.4081 266.476 34.9619 267.157 34.6535C267.839 34.329 268.585 34.1667 269.396 34.1667C270.223 34.1667 270.961 34.3127 271.61 34.6048C272.259 34.8969 272.802 35.3108 273.24 35.8463C273.694 36.3656 274.043 36.9903 274.286 37.7206C274.53 38.4508 274.651 39.246 274.651 40.106V40.6659H266.014V41.2988C266.014 42.6781 266.354 43.7654 267.036 44.5606C267.733 45.3557 268.658 45.7533 269.809 45.7533C270.815 45.7533 271.61 45.5505 272.194 45.1448C272.794 44.7228 273.264 44.1792 273.605 43.5139L274.408 44.025C274.246 44.447 274.019 44.8608 273.727 45.2665C273.451 45.6559 273.11 46.0048 272.705 46.3132C272.299 46.6053 271.829 46.8406 271.294 47.0191C270.758 47.2138 270.158 47.3112 269.493 47.3112ZM266.014 39.5462H272.559V39.3028C272.559 38.7348 272.494 38.2074 272.364 37.7206C272.251 37.2337 272.064 36.8118 271.805 36.4548C271.545 36.0978 271.213 35.8219 270.807 35.6272C270.418 35.4162 269.947 35.3108 269.396 35.3108C268.844 35.3108 268.358 35.4081 267.936 35.6028C267.514 35.7976 267.157 36.0735 266.865 36.4305C266.59 36.7875 266.379 37.2094 266.233 37.6962C266.087 38.1668 266.014 38.6861 266.014 39.2541V39.5462Z" fill="#231F20"/>
<path d="M276.723 50.7677H278.523V36.041L276.723 35.7246V34.8969L280.518 34.1667V36.3574H280.616C280.891 35.757 281.329 35.2458 281.929 34.8239C282.53 34.3858 283.324 34.1667 284.314 34.1667C285.871 34.1667 287.112 34.7347 288.037 35.8706C288.977 36.9903 289.448 38.6131 289.448 40.7389C289.448 42.8648 288.977 44.4957 288.037 45.6316C287.112 46.7513 285.871 47.3112 284.314 47.3112C283.341 47.3112 282.546 47.1002 281.929 46.6783C281.329 46.2564 280.891 45.7452 280.616 45.1448H280.518V50.7677H282.805V51.8874H276.723V50.7677ZM283.73 45.9237C284.849 45.9237 285.717 45.5505 286.333 44.804C286.966 44.0413 287.282 43.027 287.282 41.7613V39.7166C287.282 38.4508 286.966 37.4447 286.333 36.6982C285.717 35.9355 284.849 35.5542 283.73 35.5542C283.341 35.5542 282.951 35.611 282.562 35.7246C282.173 35.8382 281.824 36.0004 281.516 36.2114C281.224 36.4224 280.981 36.6901 280.786 37.0147C280.608 37.323 280.518 37.6719 280.518 38.0614V43.4165C280.518 43.806 280.608 44.163 280.786 44.4875C280.981 44.7959 281.224 45.0555 281.516 45.2665C281.824 45.4774 282.173 45.6397 282.562 45.7533C282.951 45.8669 283.341 45.9237 283.73 45.9237Z" fill="#231F20"/>
<path d="M297.721 47.3112C296.813 47.3112 296.002 47.157 295.288 46.8487C294.591 46.5241 293.999 46.0779 293.512 45.5099C293.026 44.9257 292.652 44.236 292.393 43.4408C292.133 42.6295 292.004 41.7288 292.004 40.7389C292.004 39.7328 292.142 38.8241 292.417 38.0127C292.709 37.2013 293.115 36.5116 293.634 35.9436C294.153 35.3757 294.769 34.9375 295.483 34.6292C296.213 34.3209 297.016 34.1667 297.892 34.1667C299.206 34.1667 300.244 34.4507 301.006 35.0187C301.785 35.5704 302.174 36.2763 302.174 37.1364C302.174 37.6557 302.036 38.0614 301.76 38.3535C301.501 38.6456 301.136 38.7916 300.665 38.7916C300.163 38.7916 299.79 38.6456 299.546 38.3535C299.303 38.0614 299.181 37.7125 299.181 37.3068C299.181 36.9498 299.27 36.6414 299.449 36.3818C299.627 36.1221 299.879 35.9193 300.203 35.7732V35.7002C299.992 35.5704 299.717 35.473 299.376 35.4081C299.051 35.3432 298.63 35.3108 298.111 35.3108C297.543 35.3108 297.016 35.4162 296.529 35.6272C296.059 35.8382 295.653 36.1384 295.313 36.5278C294.972 36.9011 294.704 37.3473 294.51 37.8666C294.315 38.3697 294.218 38.9214 294.218 39.5218V41.3231C294.218 41.9885 294.307 42.597 294.485 43.1488C294.664 43.6843 294.915 44.1468 295.24 44.5362C295.58 44.9257 295.978 45.2259 296.432 45.4369C296.902 45.6478 297.429 45.7533 298.013 45.7533C299.003 45.7533 299.781 45.5505 300.349 45.1448C300.917 44.7228 301.371 44.1792 301.712 43.5139L302.49 44.025C302.344 44.447 302.133 44.8608 301.858 45.2665C301.582 45.6559 301.249 46.0048 300.86 46.3132C300.471 46.6053 300.008 46.8406 299.473 47.0191C298.954 47.2138 298.37 47.3112 297.721 47.3112Z" fill="#231F20"/>
<path d="M306.52 45.8994H308.807V35.6515H305.741V38.1587H304.282V34.4588H315.328V38.1587H313.868V35.6515H310.802V45.8994H313.089V47.0191H306.52V45.8994Z" fill="#231F20"/>
<path d="M317.383 45.8994H319.183V35.5542H317.383V34.4588H324.39C325.558 34.4588 326.458 34.7347 327.091 35.2864C327.724 35.8382 328.04 36.5603 328.04 37.4528C328.04 38.3778 327.788 39.0675 327.286 39.5218C326.799 39.9762 326.207 40.2764 325.509 40.4225V40.5199C325.866 40.5523 326.215 40.6416 326.556 40.7876C326.913 40.9337 327.229 41.1365 327.505 41.3962C327.78 41.6396 328.007 41.9479 328.186 42.3211C328.364 42.6781 328.453 43.1001 328.453 43.5869C328.453 44.7391 328.097 45.5991 327.383 46.1671C326.685 46.7351 325.704 47.0191 324.439 47.0191H317.383V45.8994ZM324.244 45.8263C324.942 45.8263 325.461 45.6478 325.801 45.2908C326.158 44.9176 326.337 44.447 326.337 43.879V43.1731C326.337 42.6051 326.158 42.1426 325.801 41.7856C325.445 41.4124 324.925 41.2258 324.244 41.2258H321.179V45.8263H324.244ZM324.001 40.033C324.617 40.033 325.088 39.8626 325.412 39.5218C325.753 39.1648 325.923 38.7267 325.923 38.2074V37.4772C325.923 36.9579 325.753 36.5278 325.412 36.187C325.088 35.83 324.617 35.6515 324.001 35.6515H321.179V40.033H324.001Z" fill="#231F20"/>
<path d="M336.761 46.1184C337.362 46.1184 337.881 46.0211 338.319 45.8263C338.773 45.6154 339.138 45.3314 339.413 44.9744C339.705 44.6011 339.916 44.1711 340.046 43.6843C340.192 43.1812 340.265 42.6376 340.265 42.0534V39.4245C340.265 38.8403 340.192 38.3048 340.046 37.8179C339.916 37.3149 339.705 36.8848 339.413 36.5278C339.138 36.1546 338.773 35.8706 338.319 35.6759C337.881 35.4649 337.362 35.3594 336.761 35.3594C336.145 35.3594 335.618 35.4649 335.18 35.6759C334.742 35.8706 334.377 36.1546 334.085 36.5278C333.809 36.8848 333.598 37.3149 333.452 37.8179C333.323 38.3048 333.258 38.8403 333.258 39.4245V42.0534C333.258 42.6376 333.323 43.1812 333.452 43.6843C333.598 44.1711 333.809 44.6011 334.085 44.9744C334.377 45.3314 334.742 45.6154 335.18 45.8263C335.618 46.0211 336.145 46.1184 336.761 46.1184ZM336.761 47.3112C335.902 47.3112 335.115 47.157 334.401 46.8487C333.688 46.5403 333.079 46.1022 332.576 45.5342C332.074 44.95 331.684 44.2603 331.409 43.4652C331.133 42.6538 330.995 41.7451 330.995 40.7389C330.995 39.749 331.133 38.8484 331.409 38.037C331.684 37.2256 332.074 36.5359 332.576 35.968C333.079 35.3838 333.688 34.9375 334.401 34.6292C335.115 34.3209 335.902 34.1667 336.761 34.1667C337.621 34.1667 338.408 34.3209 339.121 34.6292C339.835 34.9375 340.443 35.3838 340.946 35.968C341.449 36.5359 341.838 37.2256 342.114 38.037C342.39 38.8484 342.528 39.749 342.528 40.7389C342.528 41.7451 342.39 42.6538 342.114 43.4652C341.838 44.2603 341.449 44.95 340.946 45.5342C340.443 46.1022 339.835 46.5403 339.121 46.8487C338.408 47.157 337.621 47.3112 336.761 47.3112Z" fill="#231F20"/>
<path d="M347.114 47.3112C346.643 47.3112 346.27 47.1732 345.994 46.8974C345.735 46.6053 345.605 46.2564 345.605 45.8507V45.7046C345.605 45.2989 345.735 44.9581 345.994 44.6823C346.27 44.3902 346.643 44.2441 347.114 44.2441C347.584 44.2441 347.949 44.3902 348.209 44.6823C348.484 44.9581 348.622 45.2989 348.622 45.7046V45.8507C348.622 46.2564 348.484 46.6053 348.209 46.8974C347.949 47.1732 347.584 47.3112 347.114 47.3112ZM347.114 37.2337C346.643 37.2337 346.27 37.0958 345.994 36.8199C345.735 36.5278 345.605 36.1789 345.605 35.7732V35.6272C345.605 35.2215 345.735 34.8807 345.994 34.6048C346.27 34.3127 346.643 34.1667 347.114 34.1667C347.584 34.1667 347.949 34.3127 348.209 34.6048C348.484 34.8807 348.622 35.2215 348.622 35.6272V35.7732C348.622 36.1789 348.484 36.5278 348.209 36.8199C347.949 37.0958 347.584 37.2337 347.114 37.2337Z" fill="#231F20"/>
<path d="M3.91502 75.2743C2.74713 75.2743 1.83067 74.9741 1.16562 74.3737C0.516795 73.757 0.192383 72.9213 0.192383 71.8665C0.192383 71.266 0.289707 70.7386 0.484354 70.2843C0.679002 69.8137 0.995304 69.4242 1.43326 69.1159C1.88744 68.8075 2.47138 68.5722 3.18509 68.41C3.8988 68.2477 4.7666 68.1665 5.7885 68.1665H7.58899V66.3166C7.58899 65.3267 7.34568 64.5721 6.85906 64.0528C6.38866 63.5173 5.67495 63.2495 4.71794 63.2495C4.2962 63.2495 3.90691 63.2901 3.55005 63.3712C3.1932 63.4362 2.90123 63.5335 2.67414 63.6633V63.712C2.85257 63.8094 3.02288 63.9554 3.18509 64.1502C3.36352 64.3449 3.45273 64.6208 3.45273 64.9778C3.45273 65.3997 3.33107 65.7324 3.08776 65.9758C2.84446 66.203 2.52004 66.3166 2.11453 66.3166C1.72523 66.3166 1.40082 66.203 1.14129 65.9758C0.89798 65.7324 0.776325 65.3754 0.776325 64.9048C0.776325 64.5478 0.881759 64.207 1.09263 63.8824C1.3035 63.5416 1.60358 63.2414 1.99287 62.9818C2.38217 62.7221 2.86068 62.5193 3.4284 62.3732C4.01234 62.211 4.66928 62.1298 5.3992 62.1298C6.71307 62.1298 7.73497 62.4706 8.4649 63.1522C9.21105 63.8337 9.58413 64.7912 9.58413 66.0245V73.9355H11.4089V74.7875C11.2305 74.9173 10.9872 75.0309 10.679 75.1282C10.387 75.2256 10.0545 75.2743 9.68145 75.2743C9.04884 75.2743 8.56223 75.0958 8.22159 74.7388C7.88096 74.3818 7.71064 73.9031 7.71064 73.3026V73.1322H7.58899C7.47544 73.4081 7.32135 73.6759 7.1267 73.9355C6.94827 74.1951 6.71307 74.4223 6.4211 74.6171C6.12913 74.8118 5.77228 74.966 5.35054 75.0796C4.94503 75.2094 4.46652 75.2743 3.91502 75.2743ZM4.7666 73.9355C5.54519 73.9355 6.21024 73.7408 6.76174 73.3513C7.31324 72.9456 7.58899 72.329 7.58899 71.5013V69.1402H6.00748C5.30999 69.1402 4.72605 69.197 4.25565 69.3106C3.78525 69.408 3.41218 69.5621 3.13643 69.7731C2.86068 69.9678 2.65792 70.2112 2.52815 70.5033C2.41461 70.7954 2.35784 71.1362 2.35784 71.5257V72.0369C2.35784 72.6535 2.5687 73.1241 2.99044 73.4487C3.41218 73.7732 4.00423 73.9355 4.7666 73.9355Z" fill="#231F20"/>
<path d="M13.4746 73.8625H15.2751V63.5173H13.4746V62.4219H20.4819C21.6498 62.4219 22.55 62.6978 23.1826 63.2495C23.8153 63.8013 24.1316 64.5234 24.1316 65.4159C24.1316 66.3409 23.8801 67.0306 23.3773 67.485C22.8907 67.9394 22.2986 68.2396 21.6011 68.3856V68.483C21.958 68.5154 22.3067 68.6047 22.6474 68.7507C23.0042 68.8968 23.3205 69.0996 23.5963 69.3593C23.872 69.6027 24.0991 69.911 24.2775 70.2843C24.456 70.6413 24.5452 71.0632 24.5452 71.55C24.5452 72.7022 24.1883 73.5623 23.4746 74.1302C22.7771 74.6982 21.7958 74.9822 20.5306 74.9822H13.4746V73.8625ZM20.3359 73.7895C21.0334 73.7895 21.5525 73.611 21.8931 73.2539C22.25 72.8807 22.4284 72.4101 22.4284 71.8421V71.1362C22.4284 70.5682 22.25 70.1058 21.8931 69.7487C21.5363 69.3755 21.0172 69.1889 20.3359 69.1889H17.2702V73.7895H20.3359ZM20.0926 67.9962C20.709 67.9962 21.1794 67.8258 21.5038 67.485C21.8444 67.128 22.0148 66.6898 22.0148 66.1705V65.4403C22.0148 64.921 21.8444 64.491 21.5038 64.1502C21.1794 63.7932 20.709 63.6147 20.0926 63.6147H17.2702V67.9962H20.0926Z" fill="#231F20"/>
<path d="M28.9386 73.8625H31.2257V63.6147H28.16V66.1218H26.7002V62.4219H37.7464V66.1218H36.2866V63.6147H33.2209V73.8625H35.508V74.9822H28.9386V73.8625Z" fill="#231F20"/>
<path d="M45.4462 74.0816C46.0464 74.0816 46.5654 73.9842 47.0034 73.7895C47.4576 73.5785 47.8225 73.2945 48.0983 72.9375C48.3903 72.5643 48.6011 72.1342 48.7309 71.6474C48.8769 71.1443 48.9499 70.6007 48.9499 70.0165V67.3876C48.9499 66.8034 48.8769 66.2679 48.7309 65.7811C48.6011 65.278 48.3903 64.848 48.0983 64.491C47.8225 64.1177 47.4576 63.8337 47.0034 63.639C46.5654 63.428 46.0464 63.3226 45.4462 63.3226C44.8298 63.3226 44.3027 63.428 43.8647 63.639C43.4267 63.8337 43.0618 64.1177 42.7698 64.491C42.4941 64.848 42.2832 65.278 42.1372 65.7811C42.0074 66.2679 41.9426 66.8034 41.9426 67.3876V70.0165C41.9426 70.6007 42.0074 71.1443 42.1372 71.6474C42.2832 72.1342 42.4941 72.5643 42.7698 72.9375C43.0618 73.2945 43.4267 73.5785 43.8647 73.7895C44.3027 73.9842 44.8298 74.0816 45.4462 74.0816ZM45.4462 75.2743C44.5865 75.2743 43.7998 75.1201 43.0861 74.8118C42.3724 74.5035 41.7641 74.0653 41.2613 73.4974C40.7585 72.9132 40.3692 72.2235 40.0934 71.4283C39.8177 70.6169 39.6798 69.7082 39.6798 68.7021C39.6798 67.7122 39.8177 66.8115 40.0934 66.0001C40.3692 65.1888 40.7585 64.4991 41.2613 63.9311C41.7641 63.3469 42.3724 62.9006 43.0861 62.5923C43.7998 62.284 44.5865 62.1298 45.4462 62.1298C46.3059 62.1298 47.0926 62.284 47.8063 62.5923C48.52 62.9006 49.1283 63.3469 49.6311 63.9311C50.134 64.4991 50.5233 65.1888 50.799 66.0001C51.0748 66.8115 51.2126 67.7122 51.2126 68.7021C51.2126 69.7082 51.0748 70.6169 50.799 71.4283C50.5233 72.2235 50.134 72.9132 49.6311 73.4974C49.1283 74.0653 48.52 74.5035 47.8063 74.8118C47.0926 75.1201 46.3059 75.2743 45.4462 75.2743Z" fill="#231F20"/>
<path d="M53.268 78.7308H55.0685V64.0041L53.268 63.6877V62.8601L57.0637 62.1298V64.3206H57.161C57.4367 63.7201 57.8747 63.209 58.4749 62.787C59.075 62.3489 59.8698 62.1298 60.8593 62.1298C62.4165 62.1298 63.6574 62.6978 64.5819 63.8337C65.5227 64.9534 65.9931 66.5762 65.9931 68.7021C65.9931 70.8279 65.5227 72.4588 64.5819 73.5947C63.6574 74.7144 62.4165 75.2743 60.8593 75.2743C59.8861 75.2743 59.0912 75.0633 58.4749 74.6414C57.8747 74.2195 57.4367 73.7083 57.161 73.1079H57.0637V78.7308H59.3508V79.8505H53.268V78.7308ZM60.2754 73.8868C61.3946 73.8868 62.2624 73.5136 62.8788 72.7671C63.5114 72.0044 63.8277 70.9902 63.8277 69.7244V67.6797C63.8277 66.4139 63.5114 65.4078 62.8788 64.6614C62.2624 63.8986 61.3946 63.5173 60.2754 63.5173C59.8861 63.5173 59.4968 63.5741 59.1075 63.6877C58.7182 63.8013 58.3694 63.9636 58.0612 64.1745C57.7693 64.3855 57.526 64.6532 57.3313 64.9778C57.1529 65.2861 57.0637 65.635 57.0637 66.0245V71.3796C57.0637 71.7691 57.1529 72.1261 57.3313 72.4507C57.526 72.759 57.7693 73.0186 58.0612 73.2296C58.3694 73.4406 58.7182 73.6028 59.1075 73.7164C59.4968 73.83 59.8861 73.8868 60.2754 73.8868Z" fill="#231F20"/>
<path d="M74.2668 75.2743C73.3584 75.2743 72.5474 75.1201 71.8337 74.8118C71.1362 74.4873 70.5442 74.041 70.0575 73.473C69.5709 72.8888 69.1978 72.1991 68.9383 71.404C68.6788 70.5926 68.549 69.692 68.549 68.7021C68.549 67.6959 68.6869 66.7872 68.9626 65.9758C69.2546 65.1644 69.6601 64.4747 70.1792 63.9068C70.6982 63.3388 71.3146 62.9006 72.0283 62.5923C72.7583 62.284 73.5612 62.1298 74.4371 62.1298C75.751 62.1298 76.7891 62.4138 77.5515 62.9818C78.3301 63.5335 78.7193 64.2394 78.7193 65.0995C78.7193 65.6188 78.5815 66.0245 78.3057 66.3166C78.0462 66.6087 77.6812 66.7547 77.2108 66.7547C76.708 66.7547 76.3349 66.6087 76.0916 66.3166C75.8483 66.0245 75.7266 65.6756 75.7266 65.2699C75.7266 64.9129 75.8159 64.6046 75.9943 64.3449C76.1727 64.0853 76.4241 63.8824 76.7485 63.7364V63.6633C76.5377 63.5335 76.2619 63.4362 75.9213 63.3712C75.5969 63.3063 75.1751 63.2739 74.6561 63.2739C74.0884 63.2739 73.5612 63.3794 73.0746 63.5903C72.6042 63.8013 72.1987 64.1015 71.858 64.491C71.5174 64.8642 71.2497 65.3105 71.0551 65.8298C70.8605 66.3328 70.7631 66.8846 70.7631 67.485V69.2863C70.7631 69.9516 70.8523 70.5601 71.0308 71.1119C71.2092 71.6474 71.4606 72.1099 71.785 72.4994C72.1257 72.8888 72.5231 73.189 72.9772 73.4C73.4476 73.6109 73.9748 73.7164 74.5588 73.7164C75.5482 73.7164 76.3268 73.5136 76.8945 73.1079C77.4622 72.686 77.9164 72.1423 78.2571 71.477L79.0356 71.9882C78.8897 72.4101 78.6788 72.8239 78.403 73.2296C78.1273 73.6191 77.7948 73.968 77.4055 74.2763C77.0162 74.5684 76.5539 74.8037 76.0186 74.9822C75.4996 75.1769 74.9156 75.2743 74.2668 75.2743Z" fill="#231F20"/>
<path d="M81.2163 73.8625H83.0168V63.5173H81.2163V62.4219H86.8124V63.5173H85.0119V68.0692H87.0314L88.3939 65.0021C88.8643 63.9311 89.3428 63.1846 89.8295 62.7627C90.3323 62.3408 90.8919 62.1298 91.5083 62.1298C92.0436 62.1298 92.4572 62.284 92.7492 62.5923C93.0411 62.9006 93.1871 63.2901 93.1871 63.7607C93.1871 64.2313 93.0574 64.6127 92.7978 64.9048C92.5545 65.1806 92.222 65.3186 91.8003 65.3186C91.3785 65.3186 91.0541 65.1888 90.827 64.9291C90.5999 64.6695 90.4864 64.3043 90.4864 63.8337H90.4134C90.2836 63.996 90.1377 64.2151 89.9754 64.491C89.8132 64.7506 89.651 65.0589 89.4888 65.4159L88.1263 68.483C88.4507 68.5317 88.7265 68.6372 88.9535 68.7994C89.1806 68.9617 89.3996 69.2051 89.6105 69.5297L92.4085 73.8625H93.7711V74.9822H90.7784L87.0314 69.1889H85.0119V73.8625H86.8124V74.9822H81.2163V73.8625Z" fill="#231F20"/>
<path d="M95.3539 73.8625H97.1544V63.5173H95.3539V62.4219H100.901V63.5173H99.1009V68.1179L98.8819 71.5013H98.9549L105.232 64.2475V63.5173H103.432V62.4219H108.979V63.5173H107.179V73.8625H108.979V74.9822H103.432V73.8625H105.232V69.3106L105.451 65.9028H105.354L99.1009 73.1566V73.8625H100.901V74.9822H95.3539V73.8625Z" fill="#231F20"/>
<path d="M111.416 73.8625H113.217V63.5173H111.416V62.4219H116.964V63.5173H115.163V68.1179L114.944 71.5013H115.017L121.294 64.2475V63.5173H119.494V62.4219H125.041V63.5173H123.241V73.8625H125.041V74.9822H119.494V73.8625H121.294V69.3106L121.513 65.9028H121.416L115.163 73.1566V73.8625H116.964V74.9822H111.416V73.8625ZM118.229 60.4503C117.548 60.4503 116.964 60.3772 116.477 60.2312C116.007 60.0689 115.609 59.8661 115.285 59.6226C114.977 59.3792 114.749 59.1034 114.603 58.795C114.457 58.4705 114.385 58.1378 114.385 57.797C114.385 57.3751 114.498 57.0587 114.725 56.8477C114.952 56.6205 115.252 56.5069 115.625 56.5069C115.998 56.5069 116.29 56.6124 116.501 56.8234C116.712 57.0343 116.818 57.3345 116.818 57.724C116.818 58.0485 116.728 58.3082 116.55 58.5029C116.372 58.6814 116.169 58.8112 115.942 58.8924V58.9411C116.217 59.0871 116.55 59.1926 116.939 59.2575C117.329 59.3224 117.758 59.3549 118.229 59.3549C118.699 59.3549 119.129 59.3224 119.518 59.2575C119.908 59.1926 120.24 59.0871 120.516 58.9411V58.8924C120.289 58.8112 120.086 58.6814 119.908 58.5029C119.729 58.3082 119.64 58.0485 119.64 57.724C119.64 57.3345 119.745 57.0343 119.956 56.8234C120.167 56.6124 120.459 56.5069 120.832 56.5069C121.205 56.5069 121.505 56.6205 121.732 56.8477C121.96 57.0587 122.073 57.3751 122.073 57.797C122.073 58.1378 122 58.4705 121.854 58.795C121.708 59.1034 121.473 59.3792 121.149 59.6226C120.84 59.8661 120.443 60.0689 119.956 60.2312C119.486 60.3772 118.91 60.4503 118.229 60.4503Z" fill="#231F20"/>
<path d="M133.133 73.8625H134.934V63.5173H133.133V62.4219H146.783V63.5173H144.983V73.8625H146.783V74.9822H141.187V73.8625H142.987V63.6147H136.929V73.8625H138.73V74.9822H133.133V73.8625Z" fill="#231F20"/>
<path d="M154.864 74.0816C155.464 74.0816 155.983 73.9842 156.421 73.7895C156.876 73.5785 157.24 73.2945 157.516 72.9375C157.808 72.5643 158.019 72.1342 158.149 71.6474C158.295 71.1443 158.368 70.6007 158.368 70.0165V67.3876C158.368 66.8034 158.295 66.2679 158.149 65.7811C158.019 65.278 157.808 64.848 157.516 64.491C157.24 64.1177 156.876 63.8337 156.421 63.639C155.983 63.428 155.464 63.3226 154.864 63.3226C154.248 63.3226 153.721 63.428 153.283 63.639C152.845 63.8337 152.48 64.1177 152.188 64.491C151.912 64.848 151.701 65.278 151.555 65.7811C151.425 66.2679 151.361 66.8034 151.361 67.3876V70.0165C151.361 70.6007 151.425 71.1443 151.555 71.6474C151.701 72.1342 151.912 72.5643 152.188 72.9375C152.48 73.2945 152.845 73.5785 153.283 73.7895C153.721 73.9842 154.248 74.0816 154.864 74.0816ZM154.864 75.2743C154.004 75.2743 153.218 75.1201 152.504 74.8118C151.79 74.5035 151.182 74.0653 150.679 73.4974C150.176 72.9132 149.787 72.2235 149.511 71.4283C149.236 70.6169 149.098 69.7082 149.098 68.7021C149.098 67.7122 149.236 66.8115 149.511 66.0001C149.787 65.1888 150.176 64.4991 150.679 63.9311C151.182 63.3469 151.79 62.9006 152.504 62.5923C153.218 62.284 154.004 62.1298 154.864 62.1298C155.724 62.1298 156.511 62.284 157.224 62.5923C157.938 62.9006 158.546 63.3469 159.049 63.9311C159.552 64.4991 159.941 65.1888 160.217 66.0001C160.493 66.8115 160.631 67.7122 160.631 68.7021C160.631 69.7082 160.493 70.6169 160.217 71.4283C159.941 72.2235 159.552 72.9132 159.049 73.4974C158.546 74.0653 157.938 74.5035 157.224 74.8118C156.511 75.1201 155.724 75.2743 154.864 75.2743Z" fill="#231F20"/>
<path d="M161.723 73.7895H163.475C164.221 72.8158 164.813 71.5825 165.251 70.0895C165.705 68.5804 165.932 66.7628 165.932 64.637V63.5173H164.107V62.4219H174.667V63.5173H172.867V73.7895H175.3V78.6334H173.499V74.9822H163.524V78.6334H161.723V73.7895ZM170.871 73.7895V63.6147H167.392V64.637C167.392 66.633 167.189 68.4181 166.784 69.9922C166.378 71.5663 165.835 72.832 165.154 73.7895H170.871Z" fill="#231F20"/>
<path d="M177.104 73.8625H178.49L182.164 68.8481L178.442 63.5416H177.177V62.4219H182.286V63.5416H180.851L183.576 67.5337H183.673L186.252 63.5416H184.743V62.4219H189.147V63.5416H187.761L184.281 68.483L188.004 73.8625H189.269V74.9822H184.135V73.8625H185.571L182.87 69.7974H182.773L179.999 73.8625H181.507V74.9822H177.104V73.8625Z" fill="#231F20"/>
<path d="M196.445 74.0816C197.046 74.0816 197.565 73.9842 198.003 73.7895C198.457 73.5785 198.822 73.2945 199.097 72.9375C199.389 72.5643 199.6 72.1342 199.73 71.6474C199.876 71.1443 199.949 70.6007 199.949 70.0165V67.3876C199.949 66.8034 199.876 66.2679 199.73 65.7811C199.6 65.278 199.389 64.848 199.097 64.491C198.822 64.1177 198.457 63.8337 198.003 63.639C197.565 63.428 197.046 63.3226 196.445 63.3226C195.829 63.3226 195.302 63.428 194.864 63.639C194.426 63.8337 194.061 64.1177 193.769 64.491C193.493 64.848 193.282 65.278 193.136 65.7811C193.007 66.2679 192.942 66.8034 192.942 67.3876V70.0165C192.942 70.6007 193.007 71.1443 193.136 71.6474C193.282 72.1342 193.493 72.5643 193.769 72.9375C194.061 73.2945 194.426 73.5785 194.864 73.7895C195.302 73.9842 195.829 74.0816 196.445 74.0816ZM196.445 75.2743C195.586 75.2743 194.799 75.1201 194.085 74.8118C193.372 74.5035 192.763 74.0653 192.26 73.4974C191.758 72.9132 191.368 72.2235 191.093 71.4283C190.817 70.6169 190.679 69.7082 190.679 68.7021C190.679 67.7122 190.817 66.8115 191.093 66.0001C191.368 65.1888 191.758 64.4991 192.26 63.9311C192.763 63.3469 193.372 62.9006 194.085 62.5923C194.799 62.284 195.586 62.1298 196.445 62.1298C197.305 62.1298 198.092 62.284 198.805 62.5923C199.519 62.9006 200.127 63.3469 200.63 63.9311C201.133 64.4991 201.522 65.1888 201.798 66.0001C202.074 66.8115 202.212 67.7122 202.212 68.7021C202.212 69.7082 202.074 70.6169 201.798 71.4283C201.522 72.2235 201.133 72.9132 200.63 73.4974C200.127 74.0653 199.519 74.5035 198.805 74.8118C198.092 75.1201 197.305 75.2743 196.445 75.2743Z" fill="#231F20"/>
<path d="M203.304 73.7895H205.056C205.802 72.8158 206.394 71.5825 206.832 70.0895C207.286 68.5804 207.513 66.7628 207.513 64.637V63.5173H205.689V62.4219H216.248V63.5173H214.448V73.7895H216.881V78.6334H215.08V74.9822H205.105V78.6334H203.304V73.7895ZM212.453 73.7895V63.6147H208.973V64.637C208.973 66.633 208.771 68.4181 208.365 69.9922C207.96 71.5663 207.416 72.832 206.735 73.7895H212.453Z" fill="#231F20"/>
<path d="M224.636 73.8625H226.436V63.5173H224.636V62.4219H230.232V63.5173H228.431V68.0692H230.451L231.813 65.0021C232.284 63.9311 232.762 63.1846 233.249 62.7627C233.752 62.3408 234.311 62.1298 234.928 62.1298C235.463 62.1298 235.877 62.284 236.169 62.5923C236.461 62.9006 236.607 63.2901 236.607 63.7607C236.607 64.2313 236.477 64.6127 236.217 64.9048C235.974 65.1806 235.641 65.3186 235.22 65.3186C234.798 65.3186 234.474 65.1888 234.247 64.9291C234.019 64.6695 233.906 64.3043 233.906 63.8337H233.833C233.703 63.996 233.557 64.2151 233.395 64.491C233.233 64.7506 233.071 65.0589 232.908 65.4159L231.546 68.483C231.87 68.5317 232.146 68.6372 232.373 68.7994C232.6 68.9617 232.819 69.2051 233.03 69.5297L235.828 73.8625H237.191V74.9822H234.198L230.451 69.1889H228.431V73.8625H230.232V74.9822H224.636V73.8625Z" fill="#231F20"/>
<path d="M246.205 80.1426C245.377 80.1426 244.777 79.9641 244.404 79.6071C244.031 79.2663 243.844 78.8119 243.844 78.244C243.844 77.8221 243.958 77.4813 244.185 77.2216C244.412 76.962 244.737 76.8322 245.158 76.8322C245.531 76.8322 245.815 76.9376 246.01 77.1486C246.221 77.3758 246.326 77.676 246.326 78.0492C246.326 78.3251 246.253 78.5442 246.107 78.7065C245.977 78.885 245.832 78.9986 245.669 79.0472V79.1203C245.848 79.1852 246.059 79.2176 246.302 79.2176C246.724 79.2176 247.137 79.031 247.543 78.6578C247.948 78.3008 248.313 77.7085 248.638 76.8808L249.149 75.4934L244.526 63.5416H243.261V62.4219H248.467V63.5416H246.716L250.098 72.7428H250.195L253.48 63.5416H251.728V62.4219H256.156V63.5416H254.891L249.684 77.0756C249.343 77.9681 248.881 78.6983 248.297 79.2663C247.729 79.8505 247.032 80.1426 246.205 80.1426Z" fill="#231F20"/>
<path d="M257.402 73.8625H259.202V63.5173H257.402V62.4219H271.051V63.5173H269.251V73.8625H271.051V74.9822H265.455V73.8625H267.256V63.6147H261.197V73.8625H262.998V74.9822H257.402V73.8625Z" fill="#231F20"/>
<path d="M273.244 78.7308H275.045V64.0041L273.244 63.6877V62.8601L277.04 62.1298V64.3206H277.137C277.413 63.7201 277.851 63.209 278.451 62.787C279.051 62.3489 279.846 62.1298 280.836 62.1298C282.393 62.1298 283.634 62.6978 284.558 63.8337C285.499 64.9534 285.97 66.5762 285.97 68.7021C285.97 70.8279 285.499 72.4588 284.558 73.5947C283.634 74.7144 282.393 75.2743 280.836 75.2743C279.862 75.2743 279.068 75.0633 278.451 74.6414C277.851 74.2195 277.413 73.7083 277.137 73.1079H277.04V78.7308H279.327V79.8505H273.244V78.7308ZM280.252 73.8868C281.371 73.8868 282.239 73.5136 282.855 72.7671C283.488 72.0044 283.804 70.9902 283.804 69.7244V67.6797C283.804 66.4139 283.488 65.4078 282.855 64.6614C282.239 63.8986 281.371 63.5173 280.252 63.5173C279.862 63.5173 279.473 63.5741 279.084 63.6877C278.695 63.8013 278.346 63.9636 278.038 64.1745C277.746 64.3855 277.502 64.6532 277.308 64.9778C277.129 65.2861 277.04 65.635 277.04 66.0245V71.3796C277.04 71.7691 277.129 72.1261 277.308 72.4507C277.502 72.759 277.746 73.0186 278.038 73.2296C278.346 73.4406 278.695 73.6028 279.084 73.7164C279.473 73.83 279.862 73.8868 280.252 73.8868Z" fill="#231F20"/>
<path d="M292.37 75.2743C291.202 75.2743 290.285 74.9741 289.62 74.3737C288.971 73.757 288.647 72.9213 288.647 71.8665C288.647 71.266 288.744 70.7386 288.939 70.2843C289.134 69.8137 289.45 69.4242 289.888 69.1159C290.342 68.8075 290.926 68.5722 291.64 68.41C292.353 68.2477 293.221 68.1665 294.243 68.1665H296.044V66.3166C296.044 65.3267 295.8 64.5721 295.314 64.0528C294.843 63.5173 294.13 63.2495 293.173 63.2495C292.751 63.2495 292.362 63.2901 292.005 63.3712C291.648 63.4362 291.356 63.5335 291.129 63.6633V63.712C291.307 63.8094 291.478 63.9554 291.64 64.1502C291.818 64.3449 291.907 64.6208 291.907 64.9778C291.907 65.3997 291.786 65.7324 291.542 65.9758C291.299 66.203 290.975 66.3166 290.569 66.3166C290.18 66.3166 289.855 66.203 289.596 65.9758C289.353 65.7324 289.231 65.3754 289.231 64.9048C289.231 64.5478 289.336 64.207 289.547 63.8824C289.758 63.5416 290.058 63.2414 290.448 62.9818C290.837 62.7221 291.315 62.5193 291.883 62.3732C292.467 62.211 293.124 62.1298 293.854 62.1298C295.168 62.1298 296.19 62.4706 296.92 63.1522C297.666 63.8337 298.039 64.7912 298.039 66.0245V73.9355H299.864V74.7875C299.685 74.9173 299.442 75.0309 299.134 75.1282C298.842 75.2256 298.509 75.2743 298.136 75.2743C297.504 75.2743 297.017 75.0958 296.676 74.7388C296.336 74.3818 296.165 73.9031 296.165 73.3026V73.1322H296.044C295.93 73.4081 295.776 73.6759 295.581 73.9355C295.403 74.1951 295.168 74.4223 294.876 74.6171C294.584 74.8118 294.227 74.966 293.805 75.0796C293.4 75.2094 292.921 75.2743 292.37 75.2743ZM293.221 73.9355C294 73.9355 294.665 73.7408 295.216 73.3513C295.768 72.9456 296.044 72.329 296.044 71.5013V69.1402H294.462C293.765 69.1402 293.181 69.197 292.71 69.3106C292.24 69.408 291.867 69.5621 291.591 69.7731C291.315 69.9678 291.113 70.2112 290.983 70.5033C290.869 70.7954 290.813 71.1362 290.813 71.5257V72.0369C290.813 72.6535 291.023 73.1241 291.445 73.4487C291.867 73.7732 292.459 73.9355 293.221 73.9355Z" fill="#231F20"/>
<path d="M301.929 73.8625H303.73V63.5173H301.929V62.4219H308.937C310.104 62.4219 311.005 62.6978 311.637 63.2495C312.27 63.8013 312.586 64.5234 312.586 65.4159C312.586 66.3409 312.335 67.0306 311.832 67.485C311.345 67.9394 310.753 68.2396 310.056 68.3856V68.483C310.413 68.5154 310.761 68.6047 311.102 68.7507C311.459 68.8968 311.775 69.0996 312.051 69.3593C312.327 69.6027 312.554 69.911 312.732 70.2843C312.911 70.6413 313 71.0632 313 71.55C313 72.7022 312.643 73.5623 311.929 74.1302C311.232 74.6982 310.25 74.9822 308.985 74.9822H301.929V73.8625ZM308.791 73.7895C309.488 73.7895 310.007 73.611 310.348 73.2539C310.705 72.8807 310.883 72.4101 310.883 71.8421V71.1362C310.883 70.5682 310.705 70.1058 310.348 69.7487C309.991 69.3755 309.472 69.1889 308.791 69.1889H305.725V73.7895H308.791ZM308.547 67.9962C309.164 67.9962 309.634 67.8258 309.958 67.485C310.299 67.128 310.469 66.6898 310.469 66.1705V65.4403C310.469 64.921 310.299 64.491 309.958 64.1502C309.634 63.7932 309.164 63.6147 308.547 63.6147H305.725V67.9962H308.547Z" fill="#231F20"/>
<path d="M316.687 75.2743C315.957 75.2743 315.405 75.0877 315.032 74.7144C314.675 74.325 314.497 73.8625 314.497 73.327C314.497 72.905 314.602 72.5643 314.813 72.3046C315.04 72.045 315.365 71.9152 315.786 71.9152C316.159 71.9152 316.443 72.0206 316.638 72.2316C316.849 72.4426 316.954 72.7265 316.954 73.0836C316.954 73.3432 316.889 73.5704 316.76 73.7651C316.63 73.9436 316.484 74.0653 316.322 74.1302V74.2033C316.37 74.2357 316.427 74.2519 316.492 74.2519C316.573 74.2519 316.646 74.2519 316.711 74.2519C317.084 74.2519 317.4 74.1221 317.66 73.8625C317.822 73.7002 317.984 73.4649 318.146 73.1566C318.309 72.832 318.447 72.3452 318.56 71.6961C318.69 71.047 318.787 70.1869 318.852 69.1159C318.933 68.0286 318.974 66.6411 318.974 64.9534V63.5173H317.173V62.4219H327.854V63.5173H326.054V73.8625H327.854V74.9822H322.258V73.8625H324.059V63.6147H320.434V64.8317C320.434 66.5194 320.393 67.9231 320.312 69.0428C320.247 70.1626 320.142 71.0875 319.996 71.8178C319.866 72.548 319.695 73.1241 319.485 73.546C319.29 73.9517 319.055 74.2844 318.779 74.544C318.503 74.8199 318.179 75.0065 317.806 75.1039C317.433 75.2175 317.06 75.2743 316.687 75.2743Z" fill="#231F20"/>
<path d="M335.848 75.2743C334.955 75.2743 334.152 75.1201 333.439 74.8118C332.741 74.4873 332.149 74.041 331.663 73.473C331.176 72.905 330.803 72.2154 330.543 71.404C330.284 70.5926 330.154 69.692 330.154 68.7021C330.154 67.7284 330.292 66.844 330.568 66.0488C330.86 65.2374 331.249 64.5396 331.736 63.9554C332.238 63.3712 332.831 62.925 333.512 62.6167C334.193 62.2921 334.939 62.1298 335.75 62.1298C336.577 62.1298 337.316 62.2759 337.964 62.568C338.613 62.8601 339.157 63.2739 339.595 63.8094C340.049 64.3287 340.397 64.9534 340.641 65.6837C340.884 66.4139 341.006 67.2091 341.006 68.0692V68.629H332.368V69.2619C332.368 70.6413 332.709 71.7285 333.39 72.5237C334.088 73.3189 335.012 73.7164 336.164 73.7164C337.17 73.7164 337.964 73.5136 338.548 73.1079C339.148 72.686 339.619 72.1423 339.959 71.477L340.762 71.9882C340.6 72.4101 340.373 72.8239 340.081 73.2296C339.805 73.6191 339.465 73.968 339.059 74.2763C338.654 74.5684 338.183 74.8037 337.648 74.9822C337.113 75.1769 336.513 75.2743 335.848 75.2743ZM332.368 67.5093H338.913V67.2659C338.913 66.6979 338.848 66.1705 338.719 65.6837C338.605 65.1969 338.419 64.7749 338.159 64.4179C337.899 64.0609 337.567 63.7851 337.161 63.5903C336.772 63.3794 336.302 63.2739 335.75 63.2739C335.199 63.2739 334.712 63.3712 334.29 63.566C333.869 63.7607 333.512 64.0366 333.22 64.3936C332.944 64.7506 332.733 65.1725 332.587 65.6594C332.441 66.13 332.368 66.6493 332.368 67.2172V67.5093Z" fill="#231F20"/>
<path d="M343.32 73.8625H345.121V63.5173H343.32V62.4219H348.917V63.5173H347.116V68.0205H353.15V63.5173H351.35V62.4219H356.946V63.5173H355.145V73.8625H356.946V74.9822H351.35V73.8625H353.15V69.2132H347.116V73.8625H348.917V74.9822H343.32V73.8625Z" fill="#231F20"/>
<path d="M359.383 73.8625H361.183V63.5173H359.383V62.4219H364.93V63.5173H363.13V68.1179L362.911 71.5013H362.984L369.261 64.2475V63.5173H367.46V62.4219H373.008V63.5173H371.207V73.8625H373.008V74.9822H367.46V73.8625H369.261V69.3106L369.48 65.9028H369.383L363.13 73.1566V73.8625H364.93V74.9822H359.383V73.8625Z" fill="#231F20"/>
<path d="M387.683 75.2743C386.11 75.2743 384.853 74.7469 383.912 73.6921C382.971 72.6211 382.452 71.1281 382.355 69.2132H379.24V73.8625H381.041V74.9822H375.445V73.8625H377.245V63.5173H375.445V62.4219H381.041V63.5173H379.24V68.0205H382.379C382.493 66.1543 383.012 64.71 383.936 63.6877C384.877 62.6491 386.118 62.1298 387.659 62.1298C388.47 62.1298 389.208 62.284 389.873 62.5923C390.538 62.8844 391.098 63.3144 391.552 63.8824C392.022 64.4342 392.379 65.1238 392.622 65.9515C392.882 66.7628 393.012 67.6797 393.012 68.7021C393.012 70.7792 392.533 72.3939 391.576 73.546C390.619 74.6982 389.322 75.2743 387.683 75.2743ZM387.683 74.0816C388.77 74.0816 389.549 73.7245 390.019 73.0105C390.506 72.2965 390.749 71.331 390.749 70.1139V67.2902C390.749 66.0732 390.506 65.1076 390.019 64.3936C389.549 63.6796 388.77 63.3226 387.683 63.3226C386.597 63.3226 385.81 63.6796 385.323 64.3936C384.853 65.1076 384.618 66.0732 384.618 67.2902V70.1139C384.618 71.331 384.853 72.2965 385.323 73.0105C385.81 73.7245 386.597 74.0816 387.683 74.0816Z" fill="#231F20"/>
<path d="M395.335 72.3046L398.425 68.0448L395.335 63.7851L395.822 63.1278L400.518 67.485V68.6047L395.822 72.9618L395.335 72.3046ZM400.348 72.3046L403.438 68.0448L400.348 63.7851L400.834 63.1278L405.53 67.485V68.6047L400.834 72.9618L400.348 72.3046Z" fill="#231F20"/>
</svg>
