<svg width="405" height="81" viewBox="0 0 405 81" fill="none" xmlns="http://www.w3.org/2000/svg">
<path d="M27.0267 18.719H28.8467V4.00461H27.0267V2.88768H43.4553V4.00461H41.6353V18.719H43.4553V19.8359H37.7284V18.719H39.5484V4.07746H30.9337V18.719H32.7537V19.8359H27.0267V18.719Z" fill="#231F20"/>
<path d="M45.7633 23.5752H47.5591V8.88512L45.7633 8.56947V7.74391L49.5489 7.01548V9.20078H49.646C49.921 8.60184 50.3578 8.09194 50.9564 7.67106C51.555 7.23401 52.3477 7.01548 53.3346 7.01548C54.8876 7.01548 56.1253 7.58204 57.0474 8.71515C57.9857 9.83209 58.4549 11.4508 58.4549 13.5714C58.4549 15.6919 57.9857 17.3188 57.0474 18.4519C56.1253 19.5688 54.8876 20.1273 53.3346 20.1273C52.3639 20.1273 51.5712 19.9169 50.9564 19.496C50.3578 19.0751 49.921 18.5652 49.646 17.9663H49.5489V23.5752H51.83V24.6921H45.7633V23.5752ZM52.7522 18.7433C53.8684 18.7433 54.734 18.371 55.3487 17.6263C55.9796 16.8655 56.2951 15.8538 56.2951 14.5912V12.5516C56.2951 11.289 55.9796 10.2853 55.3487 9.54071C54.734 8.7799 53.8684 8.3995 52.7522 8.3995C52.3639 8.3995 51.9756 8.45616 51.5874 8.56947C51.1991 8.68278 50.8513 8.84465 50.5439 9.05509C50.2527 9.26553 50.01 9.53262 49.8159 9.85637C49.6379 10.1639 49.5489 10.512 49.5489 10.9005V16.2423C49.5489 16.6308 49.6379 16.9869 49.8159 17.3107C50.01 17.6182 50.2527 17.8772 50.5439 18.0877C50.8513 18.2981 51.1991 18.46 51.5874 18.5733C51.9756 18.6866 52.3639 18.7433 52.7522 18.7433Z" fill="#231F20"/>
<path d="M66.7552 18.9375C67.3538 18.9375 67.8715 18.8404 68.3083 18.6461C68.7613 18.4357 69.1253 18.1524 69.4003 17.7963C69.6915 17.424 69.9018 16.995 70.0313 16.5094C70.1769 16.0076 70.2497 15.4653 70.2497 14.8826V12.2602C70.2497 11.6775 70.1769 11.1433 70.0313 10.6576C69.9018 10.1558 69.6915 9.72687 69.4003 9.37074C69.1253 8.99843 68.7613 8.71515 68.3083 8.5209C67.8715 8.31047 67.3538 8.20525 66.7552 8.20525C66.1405 8.20525 65.6147 8.31047 65.1779 8.5209C64.7411 8.71515 64.3771 8.99843 64.0859 9.37074C63.8109 9.72687 63.6006 10.1558 63.455 10.6576C63.3255 11.1433 63.2608 11.6775 63.2608 12.2602V14.8826C63.2608 15.4653 63.3255 16.0076 63.455 16.5094C63.6006 16.995 63.8109 17.424 64.0859 17.7963C64.3771 18.1524 64.7411 18.4357 65.1779 18.6461C65.6147 18.8404 66.1405 18.9375 66.7552 18.9375ZM66.7552 20.1273C65.8978 20.1273 65.1132 19.9735 64.4014 19.6659C63.6895 19.3584 63.0829 18.9213 62.5814 18.3548C62.0798 17.772 61.6916 17.0841 61.4165 16.2909C61.1415 15.4815 61.004 14.575 61.004 13.5714C61.004 12.5839 61.1415 11.6855 61.4165 10.8762C61.6916 10.0668 62.0798 9.37884 62.5814 8.81228C63.0829 8.22953 63.6895 7.78438 64.4014 7.47682C65.1132 7.16926 65.8978 7.01548 66.7552 7.01548C67.6127 7.01548 68.3973 7.16926 69.1091 7.47682C69.8209 7.78438 70.4276 8.22953 70.9291 8.81228C71.4306 9.37884 71.8189 10.0668 72.0939 10.8762C72.369 11.6855 72.5065 12.5839 72.5065 13.5714C72.5065 14.575 72.369 15.4815 72.0939 16.2909C71.8189 17.0841 71.4306 17.772 70.9291 18.3548C70.4276 18.9213 69.8209 19.3584 69.1091 19.6659C68.3973 19.9735 67.6127 20.1273 66.7552 20.1273Z" fill="#231F20"/>
<path d="M74.7991 18.719H76.5949V8.3995H74.7991V7.30685H80.1621V8.3995H78.5847V18.6461H83.1712V8.3995H81.5938V7.30685H86.7384V8.3995H85.161V18.6461H89.7475V8.3995H88.1701V7.30685H93.5331V8.3995H91.7373V18.719H93.5331V19.8359H74.7991V18.719Z" fill="#231F20"/>
<path d="M101.519 20.1273C100.629 20.1273 99.828 19.9735 99.1162 19.6659C98.4205 19.3422 97.83 18.897 97.3447 18.3305C96.8593 17.7639 96.4873 17.076 96.2284 16.2666C95.9696 15.4572 95.8401 14.5588 95.8401 13.5714C95.8401 12.6001 95.9777 11.7179 96.2527 10.9247C96.5439 10.1154 96.9321 9.41931 97.4175 8.83656C97.919 8.25381 98.5095 7.80866 99.189 7.5011C99.8684 7.17735 100.613 7.01548 101.422 7.01548C102.247 7.01548 102.983 7.16116 103.63 7.45253C104.277 7.74391 104.819 8.15669 105.256 8.69087C105.709 9.20887 106.056 9.83209 106.299 10.5605C106.542 11.289 106.663 12.0821 106.663 12.9401V13.4985H98.0484V14.1298C98.0484 15.5058 98.3882 16.5903 99.0676 17.3835C99.7633 18.1767 100.685 18.5733 101.834 18.5733C102.837 18.5733 103.63 18.371 104.212 17.9663C104.811 17.5454 105.28 17.0031 105.62 16.3394L106.42 16.8493C106.259 17.2702 106.032 17.683 105.741 18.0877C105.466 18.4762 105.126 18.8242 104.722 19.1318C104.317 19.4231 103.848 19.6579 103.314 19.8359C102.78 20.0302 102.182 20.1273 101.519 20.1273ZM98.0484 12.3816H104.576V12.1388C104.576 11.5722 104.511 11.0461 104.382 10.5605C104.269 10.0749 104.083 9.65402 103.824 9.2979C103.565 8.94178 103.233 8.66659 102.829 8.47234C102.441 8.26191 101.972 8.15669 101.422 8.15669C100.871 8.15669 100.386 8.25381 99.9655 8.44806C99.5449 8.64231 99.189 8.9175 98.8978 9.27362C98.6227 9.62974 98.4124 10.0506 98.2668 10.5362C98.1212 11.0057 98.0484 11.5237 98.0484 12.0902V12.3816Z" fill="#231F20"/>
<path d="M110.064 20.1273C109.336 20.1273 108.786 19.9411 108.414 19.5688C108.058 19.1803 107.88 18.719 107.88 18.1848C107.88 17.7639 107.985 17.424 108.195 17.165C108.422 16.906 108.745 16.7765 109.166 16.7765C109.538 16.7765 109.821 16.8817 110.015 17.0921C110.225 17.3026 110.331 17.5859 110.331 17.942C110.331 18.201 110.266 18.4276 110.137 18.6219C110.007 18.7999 109.861 18.9213 109.7 18.9861V19.0589C109.748 19.0913 109.805 19.1075 109.87 19.1075C109.95 19.1075 110.023 19.1075 110.088 19.1075C110.46 19.1075 110.776 18.978 111.034 18.719C111.196 18.5571 111.358 18.3224 111.52 18.0148C111.681 17.6911 111.819 17.2055 111.932 16.558C112.062 15.9105 112.159 15.0525 112.223 13.9842C112.304 12.8996 112.345 11.5156 112.345 9.83209V8.3995H110.549V7.30685H121.202V8.3995H119.406V18.719H121.202V19.8359H115.621V18.719H117.417V8.49662H113.801V9.71068C113.801 11.3942 113.76 12.7944 113.679 13.9113C113.615 15.0282 113.51 15.9509 113.364 16.6794C113.235 17.4078 113.065 17.9825 112.854 18.4033C112.66 18.808 112.426 19.1399 112.151 19.3989C111.876 19.674 111.552 19.8602 111.18 19.9573C110.808 20.0706 110.436 20.1273 110.064 20.1273Z" fill="#231F20"/>
<path d="M129.829 23.5995C129.134 23.1462 128.438 22.5473 127.742 21.8027C127.047 21.0743 126.416 20.2244 125.85 19.2532C125.3 18.2819 124.847 17.2136 124.491 16.0481C124.151 14.8664 123.981 13.6038 123.981 12.2602C123.981 10.9328 124.151 9.67831 124.491 8.49662C124.847 7.31494 125.3 6.23848 125.85 5.26723C126.416 4.29599 127.047 3.44615 127.742 2.71771C128.438 1.98928 129.134 1.39844 129.829 0.94519L130.436 1.67363C129.773 2.17544 129.174 2.77437 128.64 3.47043C128.106 4.16649 127.653 4.93539 127.281 5.77714C126.909 6.61888 126.626 7.50919 126.432 8.44806C126.238 9.38693 126.141 10.3501 126.141 11.3375V13.2072C126.141 14.1784 126.238 15.1416 126.432 16.0966C126.626 17.0355 126.909 17.9258 127.281 18.7675C127.653 19.5931 128.106 20.3539 128.64 21.05C129.174 21.7622 129.773 22.3692 130.436 22.8711L129.829 23.5995Z" fill="#231F20"/>
<path d="M135.316 20.1273C134.151 20.1273 133.237 19.8278 132.574 19.2289C131.927 18.6138 131.603 17.7801 131.603 16.7279C131.603 16.129 131.7 15.6029 131.895 15.1497C132.089 14.6802 132.404 14.2917 132.841 13.9842C133.294 13.6766 133.876 13.4419 134.588 13.28C135.3 13.1181 136.165 13.0372 137.185 13.0372H138.98V11.1918C138.98 10.2044 138.738 9.45168 138.252 8.93368C137.783 8.3995 137.071 8.13241 136.117 8.13241C135.696 8.13241 135.308 8.17288 134.952 8.25381C134.596 8.31856 134.305 8.41569 134.079 8.54519V8.59375C134.257 8.69087 134.426 8.83656 134.588 9.03081C134.766 9.22506 134.855 9.50024 134.855 9.85637C134.855 10.2772 134.734 10.6091 134.491 10.8519C134.248 11.0785 133.925 11.1918 133.52 11.1918C133.132 11.1918 132.809 11.0785 132.55 10.8519C132.307 10.6091 132.186 10.253 132.186 9.78352C132.186 9.4274 132.291 9.08747 132.501 8.76372C132.712 8.42378 133.011 8.12431 133.399 7.86531C133.787 7.60632 134.265 7.40397 134.831 7.25829C135.413 7.09641 136.068 7.01548 136.796 7.01548C138.107 7.01548 139.126 7.35541 139.854 8.03528C140.598 8.71515 140.97 9.67021 140.97 10.9005V18.7918H142.79V19.6417C142.612 19.7712 142.37 19.8845 142.062 19.9816C141.771 20.0787 141.439 20.1273 141.067 20.1273C140.436 20.1273 139.951 19.9492 139.611 19.5931C139.272 19.237 139.102 18.7594 139.102 18.1605V17.9905H138.98C138.867 18.2657 138.714 18.5328 138.519 18.7918C138.341 19.0508 138.107 19.2774 137.816 19.4717C137.524 19.6659 137.169 19.8197 136.748 19.933C136.343 20.0625 135.866 20.1273 135.316 20.1273ZM136.165 18.7918C136.942 18.7918 137.605 18.5976 138.155 18.2091C138.705 17.8044 138.98 17.1893 138.98 16.3637V14.0084H137.403C136.707 14.0084 136.125 14.0651 135.656 14.1784C135.187 14.2755 134.815 14.4293 134.54 14.6398C134.265 14.834 134.062 15.0768 133.933 15.3682C133.82 15.6596 133.763 15.9995 133.763 16.388V16.8979C133.763 17.513 133.973 17.9825 134.394 18.3062C134.815 18.63 135.405 18.7918 136.165 18.7918Z" fill="#231F20"/>
<path d="M143.589 22.8711C144.252 22.3692 144.851 21.7622 145.384 21.05C145.918 20.3539 146.371 19.5931 146.743 18.7675C147.115 17.9258 147.399 17.0355 147.593 16.0966C147.787 15.1416 147.884 14.1784 147.884 13.2072V11.3375C147.884 10.3501 147.787 9.38693 147.593 8.44806C147.399 7.50919 147.115 6.61888 146.743 5.77714C146.371 4.93539 145.918 4.16649 145.384 3.47043C144.851 2.77437 144.252 2.17544 143.589 1.67363L144.195 0.94519C144.891 1.39844 145.587 1.98928 146.282 2.71771C146.978 3.44615 147.601 4.29599 148.151 5.26723C148.717 6.23848 149.17 7.31494 149.51 8.49662C149.866 9.67831 150.044 10.9328 150.044 12.2602C150.044 13.6038 149.866 14.8664 149.51 16.0481C149.17 17.2136 148.717 18.2819 148.151 19.2532C147.601 20.2244 146.978 21.0743 146.282 21.8027C145.587 22.5473 144.891 23.1462 144.195 23.5995L143.589 22.8711Z" fill="#231F20"/>
<path d="M164.107 18.9375C164.705 18.9375 165.223 18.8404 165.66 18.6461C166.113 18.4357 166.477 18.1524 166.752 17.7963C167.043 17.424 167.253 16.995 167.383 16.5094C167.528 16.0076 167.601 15.4653 167.601 14.8826V12.2602C167.601 11.6775 167.528 11.1433 167.383 10.6576C167.253 10.1558 167.043 9.72687 166.752 9.37074C166.477 8.99843 166.113 8.71515 165.66 8.5209C165.223 8.31047 164.705 8.20525 164.107 8.20525C163.492 8.20525 162.966 8.31047 162.529 8.5209C162.093 8.71515 161.729 8.99843 161.437 9.37074C161.162 9.72687 160.952 10.1558 160.807 10.6576C160.677 11.1433 160.612 11.6775 160.612 12.2602V14.8826C160.612 15.4653 160.677 16.0076 160.807 16.5094C160.952 16.995 161.162 17.424 161.437 17.7963C161.729 18.1524 162.093 18.4357 162.529 18.6461C162.966 18.8404 163.492 18.9375 164.107 18.9375ZM164.107 20.1273C163.249 20.1273 162.465 19.9735 161.753 19.6659C161.041 19.3584 160.434 18.9213 159.933 18.3548C159.431 17.772 159.043 17.0841 158.768 16.2909C158.493 15.4815 158.356 14.575 158.356 13.5714C158.356 12.5839 158.493 11.6855 158.768 10.8762C159.043 10.0668 159.431 9.37884 159.933 8.81228C160.434 8.22953 161.041 7.78438 161.753 7.47682C162.465 7.16926 163.249 7.01548 164.107 7.01548C164.964 7.01548 165.749 7.16926 166.461 7.47682C167.173 7.78438 167.779 8.22953 168.281 8.81228C168.782 9.37884 169.17 10.0668 169.446 10.8762C169.721 11.6855 169.858 12.5839 169.858 13.5714C169.858 14.575 169.721 15.4815 169.446 16.2909C169.17 17.0841 168.782 17.772 168.281 18.3548C167.779 18.9213 167.173 19.3584 166.461 19.6659C165.749 19.9735 164.964 20.1273 164.107 20.1273Z" fill="#231F20"/>
<path d="M177.729 20.1273C176.24 20.1273 175.011 19.6255 174.04 18.6219C173.458 18.0067 172.997 17.2055 172.657 16.218C172.333 15.2306 172.172 14.0327 172.172 12.6244C172.172 11.4427 172.212 10.4067 172.293 9.51643C172.374 8.60994 172.495 7.82485 172.657 7.16116C172.835 6.48129 173.053 5.89854 173.312 5.41292C173.571 4.9273 173.878 4.49833 174.234 4.12602C174.461 3.88321 174.711 3.68896 174.986 3.54327C175.262 3.3814 175.577 3.2519 175.933 3.15477C176.305 3.04146 176.734 2.95243 177.219 2.88768C177.721 2.82293 178.303 2.75009 178.966 2.66915C179.581 2.58821 180.091 2.52347 180.495 2.4749C180.9 2.42634 181.239 2.37778 181.514 2.32922L181.636 1.38225H182.606C182.703 1.67362 182.752 2.02165 182.752 2.42634C182.752 2.79865 182.703 3.11431 182.606 3.3733C182.525 3.61612 182.396 3.83465 182.218 4.0289C182.105 4.14221 181.967 4.24743 181.805 4.34455C181.644 4.42549 181.425 4.50642 181.15 4.58736C180.891 4.65211 180.56 4.70877 180.155 4.75733C179.767 4.80589 179.282 4.85445 178.699 4.90302C178.117 4.93539 177.615 4.97586 177.195 5.02442C176.79 5.0568 176.434 5.10536 176.127 5.17011C175.836 5.23486 175.585 5.32389 175.375 5.4372C175.164 5.53433 174.97 5.66383 174.792 5.8257C174.598 6.03614 174.428 6.27085 174.283 6.52985C174.137 6.78885 174.008 7.09641 173.894 7.45253C173.797 7.80866 173.708 8.22953 173.628 8.71515C173.563 9.20078 173.506 9.77543 173.458 10.4391H173.555C173.959 9.50024 174.509 8.788 175.205 8.30238C175.901 7.80056 176.815 7.54966 177.947 7.54966C179.565 7.54966 180.851 8.07575 181.805 9.12793C182.76 10.1801 183.237 11.7098 183.237 13.7171C183.237 14.6883 183.108 15.5705 182.849 16.3637C182.59 17.1569 182.218 17.8368 181.733 18.4033C181.264 18.9537 180.689 19.3827 180.01 19.6902C179.33 19.9816 178.57 20.1273 177.729 20.1273ZM177.704 18.9375C178.271 18.9375 178.756 18.8404 179.16 18.6461C179.581 18.4519 179.921 18.1767 180.18 17.8206C180.455 17.4645 180.657 17.0436 180.786 16.558C180.916 16.0723 180.98 15.5462 180.98 14.9797V12.6973C180.98 12.1307 180.916 11.6046 180.786 11.119C180.657 10.6334 180.455 10.2206 180.18 9.88065C179.921 9.52453 179.581 9.24934 179.16 9.05509C178.756 8.84465 178.271 8.73944 177.704 8.73944C177.138 8.73944 176.645 8.84465 176.224 9.05509C175.82 9.24934 175.48 9.52453 175.205 9.88065C174.946 10.2206 174.752 10.6334 174.622 11.119C174.493 11.6046 174.428 12.1307 174.428 12.6973V14.9797C174.428 15.5462 174.493 16.0723 174.622 16.558C174.752 17.0436 174.946 17.4645 175.205 17.8206C175.48 18.1767 175.82 18.4519 176.224 18.6461C176.645 18.8404 177.138 18.9375 177.704 18.9375Z" fill="#231F20"/>
<path d="M187.193 24.9835C186.368 24.9835 185.769 24.8055 185.397 24.4493C185.025 24.1094 184.839 23.6561 184.839 23.0896C184.839 22.6687 184.952 22.3288 185.179 22.0698C185.405 21.8108 185.729 21.6813 186.15 21.6813C186.522 21.6813 186.805 21.7865 186.999 21.9969C187.209 22.2236 187.314 22.523 187.314 22.8953C187.314 23.1705 187.242 23.3891 187.096 23.5509C186.967 23.729 186.821 23.8423 186.659 23.8909V23.9637C186.837 24.0285 187.047 24.0608 187.29 24.0608C187.711 24.0608 188.123 23.8747 188.528 23.5024C188.932 23.1462 189.296 22.5554 189.62 21.7298L190.129 20.3458L185.519 8.42378H184.257V7.30685H189.45V8.42378H187.703L191.076 17.6021H191.173L194.449 8.42378H192.702V7.30685H197.118V8.42378H195.856L190.663 21.9241C190.323 22.8144 189.862 23.5428 189.28 24.1094C188.714 24.6921 188.018 24.9835 187.193 24.9835Z" fill="#231F20"/>
<path d="M205.247 18.719H207.528V13.6685H207.455C207.067 14.1379 206.573 14.5183 205.975 14.8097C205.392 15.1011 204.664 15.2468 203.791 15.2468C202.529 15.2468 201.583 14.9554 200.952 14.3727C200.321 13.7899 200.005 12.8349 200.005 11.5075V8.3995H198.209V7.30685H203.669V8.3995H201.995V11.3132C201.995 12.2359 202.189 12.8915 202.577 13.28C202.982 13.6685 203.678 13.8628 204.664 13.8628C205.522 13.8628 206.209 13.709 206.727 13.4014C207.261 13.0939 207.528 12.6325 207.528 12.0174V8.3995H205.853V7.30685H211.313V8.3995H209.518V18.719H211.313V19.8359H205.247V18.719Z" fill="#231F20"/>
<path d="M219.298 20.1273C218.408 20.1273 217.607 19.9735 216.895 19.6659C216.2 19.3422 215.609 18.897 215.124 18.3305C214.639 17.7639 214.267 17.076 214.008 16.2666C213.749 15.4572 213.619 14.5588 213.619 13.5714C213.619 12.6001 213.757 11.7179 214.032 10.9247C214.323 10.1154 214.711 9.41931 215.197 8.83656C215.698 8.25381 216.289 7.80866 216.968 7.5011C217.648 7.17735 218.392 7.01548 219.201 7.01548C220.026 7.01548 220.762 7.16116 221.409 7.45253C222.056 7.74391 222.598 8.15669 223.035 8.69087C223.488 9.20887 223.836 9.83209 224.078 10.5605C224.321 11.289 224.442 12.0821 224.442 12.9401V13.4985H215.828V14.1298C215.828 15.5058 216.167 16.5903 216.847 17.3835C217.543 18.1767 218.465 18.5733 219.613 18.5733C220.616 18.5733 221.409 18.371 221.991 17.9663C222.59 17.5454 223.059 17.0031 223.399 16.3394L224.2 16.8493C224.038 17.2702 223.811 17.683 223.52 18.0877C223.245 18.4762 222.906 18.8242 222.501 19.1318C222.097 19.4231 221.627 19.6579 221.094 19.8359C220.56 20.0302 219.961 20.1273 219.298 20.1273ZM215.828 12.3816H222.355V12.1388C222.355 11.5722 222.291 11.0461 222.161 10.5605C222.048 10.0749 221.862 9.65402 221.603 9.2979C221.344 8.94178 221.013 8.66659 220.608 8.47234C220.22 8.26191 219.751 8.15669 219.201 8.15669C218.651 8.15669 218.165 8.25381 217.745 8.44806C217.324 8.64231 216.968 8.9175 216.677 9.27362C216.402 9.62974 216.192 10.0506 216.046 10.5362C215.9 11.0057 215.828 11.5237 215.828 12.0902V12.3816Z" fill="#231F20"/>
<path d="M226.751 18.719H228.547V8.3995H226.751V7.30685H232.332V8.3995H230.537V12.8915H236.555V8.3995H234.759V7.30685H240.34V8.3995H238.545V18.719H240.34V19.8359H234.759V18.719H236.555V14.0813H230.537V18.719H232.332V19.8359H226.751V18.719Z" fill="#231F20"/>
<path d="M242.771 18.719H244.567V8.3995H242.771V7.30685H248.304V8.3995H246.508V12.9886L246.29 16.3637H246.362L252.623 9.12793V8.3995H250.827V7.30685H256.36V8.3995H254.565V18.719H256.36V19.8359H250.827V18.719H252.623V14.1784L252.842 10.7791H252.745L246.508 18.0148V18.719H248.304V19.8359H242.771V18.719Z" fill="#231F20"/>
<path d="M264.348 20.1273C263.458 20.1273 262.657 19.9735 261.945 19.6659C261.25 19.3422 260.659 18.897 260.174 18.3305C259.689 17.7639 259.317 17.076 259.058 16.2666C258.799 15.4572 258.669 14.5588 258.669 13.5714C258.669 12.6001 258.807 11.7179 259.082 10.9247C259.373 10.1154 259.761 9.41931 260.247 8.83656C260.748 8.25381 261.339 7.80866 262.018 7.5011C262.698 7.17735 263.442 7.01548 264.251 7.01548C265.076 7.01548 265.812 7.16116 266.459 7.45253C267.106 7.74391 267.648 8.15669 268.085 8.69087C268.538 9.20887 268.886 9.83209 269.128 10.5605C269.371 11.289 269.492 12.0821 269.492 12.9401V13.4985H260.878V14.1298C260.878 15.5058 261.217 16.5903 261.897 17.3835C262.593 18.1767 263.515 18.5733 264.663 18.5733C265.666 18.5733 266.459 18.371 267.041 17.9663C267.64 17.5454 268.109 17.0031 268.449 16.3394L269.25 16.8493C269.088 17.2702 268.861 17.683 268.57 18.0877C268.295 18.4762 267.955 18.8242 267.551 19.1318C267.147 19.4231 266.677 19.6579 266.144 19.8359C265.61 20.0302 265.011 20.1273 264.348 20.1273ZM260.878 12.3816H267.405V12.1388C267.405 11.5722 267.341 11.0461 267.211 10.5605C267.098 10.0749 266.912 9.65402 266.653 9.2979C266.394 8.94178 266.063 8.66659 265.658 8.47234C265.27 8.26191 264.801 8.15669 264.251 8.15669C263.701 8.15669 263.215 8.25381 262.795 8.44806C262.374 8.64231 262.018 8.9175 261.727 9.27362C261.452 9.62974 261.242 10.0506 261.096 10.5362C260.95 11.0057 260.878 11.5237 260.878 12.0902V12.3816Z" fill="#231F20"/>
<path d="M277.441 18.719H279.237V8.3995H277.441V7.30685H283.022V8.3995H281.227V12.8915H287.245V8.3995H285.449V7.30685H291.031V8.3995H289.235V18.719H291.031V19.8359H285.449V18.719H287.245V14.0813H281.227V18.719H283.022V19.8359H277.441V18.719Z" fill="#231F20"/>
<path d="M297.174 20.1273C296.009 20.1273 295.095 19.8278 294.432 19.2289C293.785 18.6138 293.461 17.7801 293.461 16.7279C293.461 16.129 293.558 15.6029 293.752 15.1497C293.946 14.6802 294.262 14.2917 294.699 13.9842C295.152 13.6766 295.734 13.4419 296.446 13.28C297.158 13.1181 298.023 13.0372 299.042 13.0372H300.838V11.1918C300.838 10.2044 300.595 9.45168 300.11 8.93368C299.641 8.3995 298.929 8.13241 297.975 8.13241C297.554 8.13241 297.166 8.17288 296.81 8.25381C296.454 8.31856 296.163 8.41569 295.936 8.54519V8.59375C296.114 8.69087 296.284 8.83656 296.446 9.03081C296.624 9.22506 296.713 9.50024 296.713 9.85637C296.713 10.2772 296.591 10.6091 296.349 10.8519C296.106 11.0785 295.783 11.1918 295.378 11.1918C294.99 11.1918 294.666 11.0785 294.407 10.8519C294.165 10.6091 294.043 10.253 294.043 9.78352C294.043 9.4274 294.149 9.08747 294.359 8.76372C294.569 8.42378 294.868 8.12431 295.257 7.86531C295.645 7.60632 296.122 7.40397 296.688 7.25829C297.271 7.09641 297.926 7.01548 298.654 7.01548C299.964 7.01548 300.984 7.35541 301.712 8.03528C302.456 8.71515 302.828 9.67021 302.828 10.9005V18.7918H304.648V19.6417C304.47 19.7712 304.227 19.8845 303.92 19.9816C303.629 20.0787 303.297 20.1273 302.925 20.1273C302.294 20.1273 301.809 19.9492 301.469 19.5931C301.129 19.237 300.959 18.7594 300.959 18.1605V17.9905H300.838C300.725 18.2657 300.571 18.5328 300.377 18.7918C300.199 19.0508 299.964 19.2774 299.673 19.4717C299.382 19.6659 299.026 19.8197 298.606 19.933C298.201 20.0625 297.724 20.1273 297.174 20.1273ZM298.023 18.7918C298.8 18.7918 299.463 18.5976 300.013 18.2091C300.563 17.8044 300.838 17.1893 300.838 16.3637V14.0084H299.261C298.565 14.0084 297.983 14.0651 297.514 14.1784C297.044 14.2755 296.672 14.4293 296.397 14.6398C296.122 14.834 295.92 15.0768 295.791 15.3682C295.677 15.6596 295.621 15.9995 295.621 16.388V16.8979C295.621 17.513 295.831 17.9825 296.252 18.3062C296.672 18.63 297.263 18.7918 298.023 18.7918Z" fill="#231F20"/>
<path d="M312.348 18.719H314.144V8.3995H312.348V7.30685H317.93V8.3995H316.134V12.9401H318.148L319.507 9.88065C319.976 8.81228 320.453 8.06766 320.939 7.64678C321.44 7.22591 321.998 7.01548 322.613 7.01548C323.147 7.01548 323.56 7.16926 323.851 7.47682C324.142 7.78438 324.288 8.17288 324.288 8.64231C324.288 9.11175 324.158 9.49215 323.899 9.78352C323.657 10.0587 323.325 10.1963 322.904 10.1963C322.484 10.1963 322.16 10.0668 321.934 9.80781C321.707 9.54881 321.594 9.18459 321.594 8.71515H321.521C321.392 8.87703 321.246 9.09556 321.084 9.37074C320.923 9.62974 320.761 9.9373 320.599 10.2934L319.24 13.3529C319.564 13.4014 319.839 13.5066 320.065 13.6685C320.292 13.8304 320.51 14.0732 320.72 14.3969L323.511 18.719H324.87V19.8359H321.885L318.148 14.057H316.134V18.719H317.93V19.8359H312.348V18.719Z" fill="#231F20"/>
<path d="M328.41 24.9835C327.585 24.9835 326.986 24.8055 326.614 24.4493C326.242 24.1094 326.056 23.6561 326.056 23.0896C326.056 22.6687 326.169 22.3288 326.396 22.0698C326.622 21.8108 326.946 21.6813 327.366 21.6813C327.738 21.6813 328.021 21.7865 328.216 21.9969C328.426 22.2236 328.531 22.523 328.531 22.8953C328.531 23.1705 328.458 23.3891 328.313 23.5509C328.183 23.729 328.038 23.8423 327.876 23.8909V23.9637C328.054 24.0285 328.264 24.0608 328.507 24.0608C328.927 24.0608 329.34 23.8747 329.744 23.5024C330.149 23.1462 330.513 22.5554 330.836 21.7298L331.346 20.3458L326.735 8.42378H325.473V7.30685H330.667V8.42378H328.919L332.292 17.6021H332.389L335.665 8.42378H333.918V7.30685H338.335V8.42378H337.073L331.88 21.9241C331.54 22.8144 331.079 23.5428 330.497 24.1094C329.93 24.6921 329.235 24.9835 328.41 24.9835Z" fill="#231F20"/>
<path d="M339.335 23.5752H341.13V8.88512L339.335 8.56947V7.74391L343.12 7.01548V9.20078H343.217C343.492 8.60184 343.929 8.09194 344.528 7.67106C345.126 7.23401 345.919 7.01548 346.906 7.01548C348.459 7.01548 349.697 7.58204 350.619 8.71515C351.557 9.83209 352.026 11.4508 352.026 13.5714C352.026 15.6919 351.557 17.3188 350.619 18.4519C349.697 19.5688 348.459 20.1273 346.906 20.1273C345.935 20.1273 345.143 19.9169 344.528 19.496C343.929 19.0751 343.492 18.5652 343.217 17.9663H343.12V23.5752H345.401V24.6921H339.335V23.5752ZM346.324 18.7433C347.44 18.7433 348.305 18.371 348.92 17.6263C349.551 16.8655 349.866 15.8538 349.866 14.5912V12.5516C349.866 11.289 349.551 10.2853 348.92 9.54071C348.305 8.7799 347.44 8.3995 346.324 8.3995C345.935 8.3995 345.547 8.45616 345.159 8.56947C344.77 8.68278 344.423 8.84465 344.115 9.05509C343.824 9.26553 343.581 9.53262 343.387 9.85637C343.209 10.1639 343.12 10.512 343.12 10.9005V16.2423C343.12 16.6308 343.209 16.9869 343.387 17.3107C343.581 17.6182 343.824 17.8772 344.115 18.0877C344.423 18.2981 344.77 18.46 345.159 18.5733C345.547 18.6866 345.935 18.7433 346.324 18.7433Z" fill="#231F20"/>
<path d="M360.278 20.1273C359.372 20.1273 358.563 19.9735 357.851 19.6659C357.156 19.3422 356.565 18.897 356.08 18.3305C355.595 17.7477 355.223 17.0598 354.964 16.2666C354.705 15.4572 354.575 14.5588 354.575 13.5714C354.575 12.5678 354.713 11.6613 354.988 10.8519C355.279 10.0425 355.684 9.35456 356.201 8.788C356.719 8.22144 357.334 7.78438 358.046 7.47682C358.774 7.16926 359.574 7.01548 360.448 7.01548C361.758 7.01548 362.794 7.29875 363.554 7.86531C364.331 8.41569 364.719 9.11984 364.719 9.97777C364.719 10.4958 364.581 10.9005 364.306 11.1918C364.048 11.4832 363.684 11.6289 363.214 11.6289C362.713 11.6289 362.341 11.4832 362.098 11.1918C361.855 10.9005 361.734 10.5524 361.734 10.1477C361.734 9.79162 361.823 9.48406 362.001 9.22506C362.179 8.96606 362.43 8.76372 362.753 8.61803V8.54519C362.543 8.41569 362.268 8.31856 361.928 8.25381C361.605 8.18906 361.184 8.15669 360.666 8.15669C360.1 8.15669 359.574 8.26191 359.089 8.47234C358.62 8.68278 358.215 8.98225 357.876 9.37074C357.536 9.74306 357.269 10.1882 357.075 10.7062C356.881 11.208 356.784 11.7584 356.784 12.3573V14.1541C356.784 14.8178 356.873 15.4248 357.051 15.9752C357.229 16.5094 357.479 16.9707 357.803 17.3592C358.143 17.7477 358.539 18.0472 358.992 18.2576C359.461 18.4681 359.987 18.5733 360.569 18.5733C361.556 18.5733 362.333 18.371 362.899 17.9663C363.465 17.5454 363.918 17.0031 364.258 16.3394L365.034 16.8493C364.889 17.2702 364.678 17.683 364.403 18.0877C364.128 18.4762 363.797 18.8242 363.408 19.1318C363.02 19.4231 362.559 19.6579 362.025 19.8359C361.508 20.0302 360.925 20.1273 360.278 20.1273Z" fill="#231F20"/>
<path d="M372.529 20.1273C371.64 20.1273 370.839 19.9735 370.127 19.6659C369.431 19.3422 368.841 18.897 368.355 18.3305C367.87 17.7639 367.498 17.076 367.239 16.2666C366.98 15.4572 366.851 14.5588 366.851 13.5714C366.851 12.6001 366.988 11.7179 367.263 10.9247C367.555 10.1154 367.943 9.41931 368.428 8.83656C368.93 8.25381 369.52 7.80866 370.2 7.5011C370.879 7.17735 371.623 7.01548 372.432 7.01548C373.257 7.01548 373.993 7.16116 374.641 7.45253C375.288 7.74391 375.83 8.15669 376.266 8.69087C376.719 9.20887 377.067 9.83209 377.31 10.5605C377.553 11.289 377.674 12.0821 377.674 12.9401V13.4985H369.059V14.1298C369.059 15.5058 369.399 16.5903 370.078 17.3835C370.774 18.1767 371.696 18.5733 372.845 18.5733C373.848 18.5733 374.641 18.371 375.223 17.9663C375.822 17.5454 376.291 17.0031 376.63 16.3394L377.431 16.8493C377.27 17.2702 377.043 17.683 376.752 18.0877C376.477 18.4762 376.137 18.8242 375.733 19.1318C375.328 19.4231 374.859 19.6579 374.325 19.8359C373.791 20.0302 373.193 20.1273 372.529 20.1273ZM369.059 12.3816H375.587V12.1388C375.587 11.5722 375.522 11.0461 375.393 10.5605C375.28 10.0749 375.094 9.65402 374.835 9.2979C374.576 8.94178 374.244 8.66659 373.84 8.47234C373.452 8.26191 372.982 8.15669 372.432 8.15669C371.882 8.15669 371.397 8.25381 370.976 8.44806C370.556 8.64231 370.2 8.9175 369.909 9.27362C369.634 9.62974 369.423 10.0506 369.278 10.5362C369.132 11.0057 369.059 11.5237 369.059 12.0902V12.3816Z" fill="#231F20"/>
<path d="M56.8192 41.3679V40.2509L61.5027 35.9046L61.988 36.5602L58.9061 40.8094L61.988 45.0586L61.5027 45.7142L56.8192 41.3679ZM61.8181 41.3679V40.2509L66.5016 35.9046L66.987 36.5602L63.9051 40.8094L66.987 45.0586L66.5016 45.7142L61.8181 41.3679Z" fill="#231F20"/>
<path d="M69.6506 46.6126H71.4706V31.8982H69.6506V30.7813H75.3776V31.8982H73.5576V38.527H75.96L78.3624 33.7922C78.686 33.1447 78.9933 32.6105 79.2845 32.1896C79.5757 31.7687 79.8589 31.4369 80.1339 31.1941C80.4251 30.9351 80.7244 30.757 81.0317 30.6599C81.3391 30.5466 81.6627 30.4899 82.0024 30.4899C82.5848 30.4899 83.0297 30.6599 83.3371 30.9998C83.6607 31.3236 83.8224 31.7283 83.8224 32.2139C83.8224 32.6509 83.7011 33.0233 83.4584 33.3308C83.2158 33.6384 82.8598 33.7922 82.3907 33.7922C81.9701 33.7922 81.6303 33.6546 81.3715 33.3794C81.1126 33.1042 80.9832 32.7319 80.9832 32.2624H80.9104C80.7001 32.5376 80.4736 32.8695 80.2309 33.258C79.9883 33.6465 79.778 34.0269 79.6 34.3992L77.2947 38.964C77.5697 39.0126 77.8204 39.1178 78.0469 39.2797C78.2734 39.4254 78.5161 39.6925 78.7749 40.081L83.0216 46.6126H84.696V47.7295H81.2016L75.9842 39.6925H73.5576V46.6126H75.3776V47.7295H69.6506V46.6126Z" fill="#231F20"/>
<path d="M85.5909 51.4688H87.3866V36.7787L85.5909 36.4631V35.6375L89.3765 34.9091V37.0944H89.4736C89.7486 36.4955 90.1854 35.9856 90.784 35.5647C91.3825 35.1276 92.1753 34.9091 93.1621 34.9091C94.7152 34.9091 95.9528 35.4756 96.8749 36.6088C97.8132 37.7257 98.2824 39.3444 98.2824 41.465C98.2824 43.5855 97.8132 45.2124 96.8749 46.3455C95.9528 47.4624 94.7152 48.0209 93.1621 48.0209C92.1914 48.0209 91.3987 47.8105 90.784 47.3896C90.1854 46.9687 89.7486 46.4588 89.4736 45.8599H89.3765V51.4688H91.6576V52.5858H85.5909V51.4688ZM92.5797 46.6369C93.696 46.6369 94.5615 46.2646 95.1763 45.5199C95.8072 44.7591 96.1227 43.7474 96.1227 42.4848V40.4452C96.1227 39.1826 95.8072 38.1789 95.1763 37.4343C94.5615 36.6735 93.696 36.2931 92.5797 36.2931C92.1914 36.2931 91.8032 36.3498 91.4149 36.4631C91.0266 36.5764 90.6788 36.7383 90.3714 36.9487C90.0802 37.1591 89.8376 37.4262 89.6434 37.75C89.4655 38.0575 89.3765 38.4056 89.3765 38.7941V44.1359C89.3765 44.5244 89.4655 44.8805 89.6434 45.2043C89.8376 45.5119 90.0802 45.7709 90.3714 45.9813C90.6788 46.1917 91.0266 46.3536 91.4149 46.4669C91.8032 46.5802 92.1914 46.6369 92.5797 46.6369Z" fill="#231F20"/>
<path d="M106.51 48.0209C105.62 48.0209 104.819 47.8671 104.108 47.5596C103.412 47.2358 102.821 46.7907 102.336 46.2241C101.851 45.6575 101.479 44.9696 101.22 44.1602C100.961 43.3508 100.832 42.4524 100.832 41.465C100.832 40.4937 100.969 39.6115 101.244 38.8184C101.535 38.009 101.924 37.3129 102.409 36.7302C102.91 36.1474 103.501 35.7023 104.18 35.3947C104.86 35.071 105.604 34.9091 106.413 34.9091C107.238 34.9091 107.974 35.0548 108.621 35.3461C109.268 35.6375 109.81 36.0503 110.247 36.5845C110.7 37.1025 111.048 37.7257 111.291 38.4541C111.533 39.1826 111.655 39.9758 111.655 40.8337V41.3922H103.04V42.0235C103.04 43.3994 103.38 44.4839 104.059 45.2771C104.755 46.0703 105.677 46.4669 106.825 46.4669C107.828 46.4669 108.621 46.2646 109.204 45.8599C109.802 45.439 110.271 44.8967 110.611 44.233L111.412 44.7429C111.25 45.1638 111.024 45.5766 110.732 45.9813C110.457 46.3698 110.118 46.7178 109.713 47.0254C109.309 47.3168 108.84 47.5515 108.306 47.7295C107.772 47.9238 107.173 48.0209 106.51 48.0209ZM103.04 40.2752H109.568V40.0324C109.568 39.4658 109.503 38.9398 109.373 38.4541C109.26 37.9685 109.074 37.5476 108.815 37.1915C108.556 36.8354 108.225 36.5602 107.82 36.366C107.432 36.1555 106.963 36.0503 106.413 36.0503C105.863 36.0503 105.378 36.1474 104.957 36.3417C104.536 36.5359 104.18 36.8111 103.889 37.1672C103.614 37.5234 103.404 37.9442 103.258 38.4299C103.113 38.8993 103.04 39.4173 103.04 39.9838V40.2752Z" fill="#231F20"/>
<path d="M117.913 48.0209C116.748 48.0209 115.834 47.7214 115.171 47.1225C114.524 46.5074 114.2 45.6737 114.2 44.6215C114.2 44.0226 114.297 43.4965 114.491 43.0433C114.685 42.5738 115.001 42.1853 115.438 41.8778C115.891 41.5702 116.473 41.3355 117.185 41.1736C117.897 41.0117 118.762 40.9308 119.781 40.9308H121.577V39.0854C121.577 38.098 121.335 37.3453 120.849 36.8273C120.38 36.2931 119.668 36.026 118.714 36.026C118.293 36.026 117.905 36.0665 117.549 36.1474C117.193 36.2122 116.902 36.3093 116.675 36.4388V36.4874C116.853 36.5845 117.023 36.7302 117.185 36.9244C117.363 37.1187 117.452 37.3939 117.452 37.75C117.452 38.1709 117.331 38.5027 117.088 38.7455C116.845 38.9721 116.522 39.0854 116.117 39.0854C115.729 39.0854 115.405 38.9721 115.146 38.7455C114.904 38.5027 114.782 38.1466 114.782 37.6771C114.782 37.321 114.888 36.9811 115.098 36.6573C115.308 36.3174 115.608 36.0179 115.996 35.7589C116.384 35.4999 116.861 35.2976 117.428 35.1519C118.01 34.99 118.665 34.9091 119.393 34.9091C120.704 34.9091 121.723 35.249 122.451 35.9289C123.195 36.6088 123.567 37.5638 123.567 38.7941V46.6854H125.387V47.5353C125.209 47.6648 124.966 47.7781 124.659 47.8752C124.368 47.9723 124.036 48.0209 123.664 48.0209C123.033 48.0209 122.548 47.8428 122.208 47.4867C121.868 47.1306 121.699 46.6531 121.699 46.0541V45.8842H121.577C121.464 46.1593 121.31 46.4264 121.116 46.6854C120.938 46.9444 120.704 47.1711 120.412 47.3653C120.121 47.5596 119.765 47.7133 119.345 47.8267C118.94 47.9562 118.463 48.0209 117.913 48.0209ZM118.762 46.6854C119.539 46.6854 120.202 46.4912 120.752 46.1027C121.302 45.698 121.577 45.0829 121.577 44.2573V41.9021H120C119.304 41.9021 118.722 41.9587 118.253 42.072C117.783 42.1691 117.411 42.3229 117.136 42.5334C116.861 42.7276 116.659 42.9704 116.53 43.2618C116.416 43.5532 116.36 43.8931 116.36 44.2816V44.7915C116.36 45.4066 116.57 45.8761 116.991 46.1998C117.411 46.5236 118.002 46.6854 118.762 46.6854Z" fill="#231F20"/>
<path d="M128.984 46.6126H131.265V36.3902H128.207V38.8912H126.751V35.2005H137.768V38.8912H136.312V36.3902H133.254V46.6126H135.536V47.7295H128.984V46.6126Z" fill="#231F20"/>
<path d="M139.818 46.6126H141.613V36.2931H139.818V35.2005H145.351V36.2931H143.555V40.8822L143.336 44.2573H143.409L149.67 37.0215V36.2931H147.874V35.2005H153.407V36.2931H151.611V46.6126H153.407V47.7295H147.874V46.6126H149.67V42.072L149.888 38.6727H149.791L143.555 45.9084V46.6126H145.351V47.7295H139.818V46.6126Z" fill="#231F20"/>
<path d="M155.838 46.6126H157.633V36.2931H155.838V35.2005H162.826C163.991 35.2005 164.889 35.4756 165.52 36.026C166.151 36.5764 166.466 37.2967 166.466 38.187C166.466 39.1097 166.216 39.7977 165.714 40.2509C165.229 40.7042 164.638 41.0037 163.943 41.1493V41.2465C164.299 41.2788 164.646 41.3679 164.986 41.5136C165.342 41.6592 165.658 41.8616 165.933 42.1206C166.208 42.3634 166.434 42.671 166.612 43.0433C166.79 43.3994 166.879 43.8203 166.879 44.3059C166.879 45.4552 166.523 46.3131 165.811 46.8797C165.116 47.4462 164.137 47.7295 162.875 47.7295H155.838V46.6126ZM162.681 46.5398C163.376 46.5398 163.894 46.3617 164.234 46.0056C164.59 45.6333 164.768 45.1638 164.768 44.5973V43.8931C164.768 43.3265 164.59 42.8652 164.234 42.5091C163.878 42.1368 163.36 41.9506 162.681 41.9506H159.623V46.5398H162.681ZM162.438 40.7608C163.053 40.7608 163.522 40.5909 163.846 40.2509C164.185 39.8948 164.355 39.4578 164.355 38.9398V38.2113C164.355 37.6933 164.185 37.2644 163.846 36.9244C163.522 36.5683 163.053 36.3902 162.438 36.3902H159.623V40.7608H162.438Z" fill="#231F20"/>
<path d="M169.417 46.6126H171.212V36.2931H169.417V35.2005H174.998V36.2931H173.202V40.7851H179.22V36.2931H177.425V35.2005H183.006V36.2931H181.21V46.6126H183.006V47.7295H177.425V46.6126H179.22V41.9749H173.202V46.6126H174.998V47.7295H169.417V46.6126Z" fill="#231F20"/>
<path d="M191.066 46.8311C191.665 46.8311 192.183 46.734 192.619 46.5398C193.072 46.3293 193.436 46.046 193.711 45.6899C194.003 45.3176 194.213 44.8886 194.342 44.403C194.488 43.9012 194.561 43.3589 194.561 42.7762V40.1538C194.561 39.5711 194.488 39.0369 194.342 38.5513C194.213 38.0495 194.003 37.6205 193.711 37.2644C193.436 36.892 193.072 36.6088 192.619 36.4145C192.183 36.2041 191.665 36.0989 191.066 36.0989C190.452 36.0989 189.926 36.2041 189.489 36.4145C189.052 36.6088 188.688 36.892 188.397 37.2644C188.122 37.6205 187.912 38.0495 187.766 38.5513C187.637 39.0369 187.572 39.5711 187.572 40.1538V42.7762C187.572 43.3589 187.637 43.9012 187.766 44.403C187.912 44.8886 188.122 45.3176 188.397 45.6899C188.688 46.046 189.052 46.3293 189.489 46.5398C189.926 46.734 190.452 46.8311 191.066 46.8311ZM191.066 48.0209C190.209 48.0209 189.424 47.8671 188.712 47.5596C188.001 47.252 187.394 46.8149 186.892 46.2484C186.391 45.6656 186.003 44.9777 185.728 44.1845C185.453 43.3751 185.315 42.4686 185.315 41.465C185.315 40.4776 185.453 39.5792 185.728 38.7698C186.003 37.9604 186.391 37.2725 186.892 36.7059C187.394 36.1231 188.001 35.678 188.712 35.3704C189.424 35.0629 190.209 34.9091 191.066 34.9091C191.924 34.9091 192.708 35.0629 193.42 35.3704C194.132 35.678 194.739 36.1231 195.24 36.7059C195.742 37.2725 196.13 37.9604 196.405 38.7698C196.68 39.5792 196.818 40.4776 196.818 41.465C196.818 42.4686 196.68 43.3751 196.405 44.1845C196.13 44.9777 195.742 45.6656 195.24 46.2484C194.739 46.8149 194.132 47.252 193.42 47.5596C192.708 47.8671 191.924 48.0209 191.066 48.0209Z" fill="#231F20"/>
<path d="M204.904 48.0209C204.014 48.0209 203.214 47.8671 202.502 47.5596C201.806 47.2358 201.216 46.7907 200.73 46.2241C200.245 45.6575 199.873 44.9696 199.614 44.1602C199.355 43.3508 199.226 42.4524 199.226 41.465C199.226 40.4937 199.363 39.6115 199.638 38.8184C199.93 38.009 200.318 37.3129 200.803 36.7302C201.305 36.1474 201.895 35.7023 202.575 35.3947C203.254 35.071 203.998 34.9091 204.807 34.9091C205.632 34.9091 206.368 35.0548 207.015 35.3461C207.663 35.6375 208.205 36.0503 208.641 36.5845C209.094 37.1025 209.442 37.7257 209.685 38.4541C209.927 39.1826 210.049 39.9758 210.049 40.8337V41.3922H201.434V42.0235C201.434 43.3994 201.774 44.4839 202.453 45.2771C203.149 46.0703 204.071 46.4669 205.22 46.4669C206.223 46.4669 207.015 46.2646 207.598 45.8599C208.196 45.439 208.666 44.8967 209.005 44.233L209.806 44.7429C209.644 45.1638 209.418 45.5766 209.127 45.9813C208.852 46.3698 208.512 46.7178 208.107 47.0254C207.703 47.3168 207.234 47.5515 206.7 47.7295C206.166 47.9238 205.568 48.0209 204.904 48.0209ZM201.434 40.2752H207.962V40.0324C207.962 39.4658 207.897 38.9398 207.768 38.4541C207.654 37.9685 207.468 37.5476 207.21 37.1915C206.951 36.8354 206.619 36.5602 206.215 36.366C205.826 36.1555 205.357 36.0503 204.807 36.0503C204.257 36.0503 203.772 36.1474 203.351 36.3417C202.931 36.5359 202.575 36.8111 202.283 37.1672C202.008 37.5234 201.798 37.9442 201.653 38.4299C201.507 38.8993 201.434 39.4173 201.434 39.9838V40.2752Z" fill="#231F20"/>
<path d="M219.09 48.0209C218.362 48.0209 217.811 47.8347 217.439 47.4624C217.083 47.0739 216.906 46.6126 216.906 46.0784C216.906 45.6575 217.011 45.3176 217.221 45.0586C217.447 44.7996 217.771 44.6701 218.192 44.6701C218.564 44.6701 218.847 44.7753 219.041 44.9858C219.251 45.1962 219.356 45.4795 219.356 45.8356C219.356 46.0946 219.292 46.3212 219.162 46.5155C219.033 46.6935 218.887 46.8149 218.726 46.8797V46.9525C218.774 46.9849 218.831 47.0011 218.895 47.0011C218.976 47.0011 219.049 47.0011 219.114 47.0011C219.486 47.0011 219.801 46.8716 220.06 46.6126C220.222 46.4507 220.384 46.216 220.546 45.9084C220.707 45.5847 220.845 45.0991 220.958 44.4516C221.087 43.8041 221.185 42.9461 221.249 41.8778C221.33 40.7932 221.371 39.4092 221.371 37.7257V36.2931H219.575V35.2005H230.228V36.2931H228.432V46.6126H230.228V47.7295H224.647V46.6126H226.442V36.3902H222.827V37.6043C222.827 39.2878 222.786 40.688 222.705 41.8049C222.641 42.9219 222.535 43.8445 222.39 44.573C222.26 45.3014 222.091 45.8761 221.88 46.2969C221.686 46.7016 221.452 47.0335 221.176 47.2925C220.901 47.5677 220.578 47.7538 220.206 47.8509C219.834 47.9642 219.462 48.0209 219.09 48.0209Z" fill="#231F20"/>
<path d="M232.643 46.6126H234.439V36.2931H232.643V35.2005H238.176V36.2931H236.38V40.8822L236.162 44.2573H236.234L242.495 37.0215V36.2931H240.7V35.2005H246.232V36.2931H244.437V46.6126H246.232V47.7295H240.7V46.6126H242.495V42.072L242.714 38.6727H242.617L236.38 45.9084V46.6126H238.176V47.7295H232.643V46.6126Z" fill="#231F20"/>
<path d="M247.886 46.5398H249.633C250.378 45.5685 250.968 44.3383 251.405 42.849C251.858 41.3436 252.084 39.5306 252.084 37.41V36.2931H250.264V35.2005H260.796V36.2931H259V46.5398H261.427V51.3717H259.631V47.7295H249.682V51.3717H247.886V46.5398ZM257.011 46.5398V36.3902H253.54V37.41C253.54 39.4011 253.338 41.1817 252.934 42.7519C252.529 44.3221 251.987 45.5847 251.308 46.5398H257.011Z" fill="#231F20"/>
<path d="M268.818 48.0209C267.928 48.0209 267.127 47.8671 266.416 47.5596C265.72 47.2358 265.129 46.7907 264.644 46.2241C264.159 45.6575 263.787 44.9696 263.528 44.1602C263.269 43.3508 263.139 42.4524 263.139 41.465C263.139 40.4937 263.277 39.6115 263.552 38.8184C263.843 38.009 264.231 37.3129 264.717 36.7302C265.218 36.1474 265.809 35.7023 266.488 35.3947C267.168 35.071 267.912 34.9091 268.721 34.9091C269.546 34.9091 270.282 35.0548 270.929 35.3461C271.576 35.6375 272.118 36.0503 272.555 36.5845C273.008 37.1025 273.356 37.7257 273.598 38.4541C273.841 39.1826 273.962 39.9758 273.962 40.8337V41.3922H265.348V42.0235C265.348 43.3994 265.687 44.4839 266.367 45.2771C267.063 46.0703 267.985 46.4669 269.133 46.4669C270.136 46.4669 270.929 46.2646 271.512 45.8599C272.11 45.439 272.579 44.8967 272.919 44.233L273.72 44.7429C273.558 45.1638 273.332 45.5766 273.04 45.9813C272.765 46.3698 272.426 46.7178 272.021 47.0254C271.617 47.3168 271.148 47.5515 270.614 47.7295C270.08 47.9238 269.481 48.0209 268.818 48.0209ZM265.348 40.2752H271.876V40.0324C271.876 39.4658 271.811 38.9398 271.681 38.4541C271.568 37.9685 271.382 37.5476 271.123 37.1915C270.864 36.8354 270.533 36.5602 270.128 36.366C269.74 36.1555 269.271 36.0503 268.721 36.0503C268.171 36.0503 267.685 36.1474 267.265 36.3417C266.844 36.5359 266.488 36.8111 266.197 37.1672C265.922 37.5234 265.712 37.9442 265.566 38.4299C265.421 38.8993 265.348 39.4173 265.348 39.9838V40.2752Z" fill="#231F20"/>
<path d="M276.028 51.4688H277.824V36.7787L276.028 36.4631V35.6375L279.814 34.9091V37.0944H279.911C280.186 36.4955 280.623 35.9856 281.221 35.5647C281.82 35.1276 282.613 34.9091 283.6 34.9091C285.153 34.9091 286.39 35.4756 287.312 36.6088C288.251 37.7257 288.72 39.3444 288.72 41.465C288.72 43.5855 288.251 45.2124 287.312 46.3455C286.39 47.4624 285.153 48.0209 283.6 48.0209C282.629 48.0209 281.836 47.8105 281.221 47.3896C280.623 46.9687 280.186 46.4588 279.911 45.8599H279.814V51.4688H282.095V52.5858H276.028V51.4688ZM283.017 46.6369C284.133 46.6369 284.999 46.2646 285.614 45.5199C286.245 44.7591 286.56 43.7474 286.56 42.4848V40.4452C286.56 39.1826 286.245 38.1789 285.614 37.4343C284.999 36.6735 284.133 36.2931 283.017 36.2931C282.629 36.2931 282.241 36.3498 281.852 36.4631C281.464 36.5764 281.116 36.7383 280.809 36.9487C280.518 37.1591 280.275 37.4262 280.081 37.75C279.903 38.0575 279.814 38.4056 279.814 38.7941V44.1359C279.814 44.5244 279.903 44.8805 280.081 45.2043C280.275 45.5119 280.518 45.7709 280.809 45.9813C281.116 46.1917 281.464 46.3536 281.852 46.4669C282.241 46.5802 282.629 46.6369 283.017 46.6369Z" fill="#231F20"/>
<path d="M296.972 48.0209C296.066 48.0209 295.257 47.8671 294.545 47.5596C293.849 47.2358 293.259 46.7907 292.774 46.2241C292.288 45.6413 291.916 44.9534 291.657 44.1602C291.398 43.3508 291.269 42.4524 291.269 41.465C291.269 40.4614 291.407 39.5549 291.682 38.7455C291.973 37.9361 292.377 37.2482 292.895 36.6816C293.413 36.1151 294.027 35.678 294.739 35.3704C295.467 35.0629 296.268 34.9091 297.142 34.9091C298.452 34.9091 299.487 35.1924 300.248 35.7589C301.024 36.3093 301.413 37.0135 301.413 37.8714C301.413 38.3894 301.275 38.7941 301 39.0854C300.741 39.3768 300.377 39.5225 299.908 39.5225C299.407 39.5225 299.034 39.3768 298.792 39.0854C298.549 38.7941 298.428 38.446 298.428 38.0414C298.428 37.6852 298.517 37.3777 298.695 37.1187C298.873 36.8597 299.123 36.6573 299.447 36.5116V36.4388C299.237 36.3093 298.962 36.2122 298.622 36.1474C298.298 36.0827 297.878 36.0503 297.36 36.0503C296.794 36.0503 296.268 36.1555 295.783 36.366C295.313 36.5764 294.909 36.8759 294.569 37.2644C294.23 37.6367 293.963 38.0818 293.769 38.5998C293.574 39.1016 293.477 39.652 293.477 40.2509V42.0477C293.477 42.7114 293.566 43.3185 293.744 43.8688C293.922 44.403 294.173 44.8644 294.497 45.2529C294.836 45.6414 295.233 45.9408 295.686 46.1513C296.155 46.3617 296.681 46.4669 297.263 46.4669C298.25 46.4669 299.026 46.2646 299.593 45.8599C300.159 45.439 300.612 44.8967 300.951 44.233L301.728 44.7429C301.582 45.1638 301.372 45.5766 301.097 45.9813C300.822 46.3698 300.49 46.7178 300.102 47.0254C299.714 47.3168 299.253 47.5515 298.719 47.7295C298.201 47.9238 297.619 48.0209 296.972 48.0209Z" fill="#231F20"/>
<path d="M305.747 46.6126H308.028V36.3902H304.971V38.8912H303.515V35.2005H314.532V38.8912H313.076V36.3902H310.018V46.6126H312.299V47.7295H305.747V46.6126Z" fill="#231F20"/>
<path d="M316.581 46.6126H318.377V36.2931H316.581V35.2005H323.57C324.735 35.2005 325.633 35.4756 326.264 36.026C326.895 36.5764 327.21 37.2967 327.21 38.187C327.21 39.1097 326.959 39.7977 326.458 40.2509C325.973 40.7042 325.382 41.0037 324.686 41.1493V41.2465C325.042 41.2788 325.39 41.3679 325.73 41.5136C326.086 41.6592 326.401 41.8616 326.676 42.1206C326.951 42.3634 327.178 42.671 327.356 43.0433C327.534 43.3994 327.623 43.8203 327.623 44.3059C327.623 45.4552 327.267 46.3131 326.555 46.8797C325.859 47.4462 324.881 47.7295 323.619 47.7295H316.581V46.6126ZM323.425 46.5398C324.12 46.5398 324.638 46.3617 324.978 46.0056C325.334 45.6333 325.512 45.1638 325.512 44.5973V43.8931C325.512 43.3265 325.334 42.8652 324.978 42.5091C324.622 42.1368 324.104 41.9506 323.425 41.9506H320.367V46.5398H323.425ZM323.182 40.7608C323.797 40.7608 324.266 40.5909 324.589 40.2509C324.929 39.8948 325.099 39.4578 325.099 38.9398V38.2113C325.099 37.6933 324.929 37.2644 324.589 36.9244C324.266 36.5683 323.797 36.3902 323.182 36.3902H320.367V40.7608H323.182Z" fill="#231F20"/>
<path d="M335.909 46.8311C336.507 46.8311 337.025 46.734 337.462 46.5398C337.915 46.3293 338.279 46.046 338.554 45.6899C338.845 45.3176 339.055 44.8886 339.185 44.403C339.33 43.9012 339.403 43.3589 339.403 42.7762V40.1538C339.403 39.5711 339.33 39.0369 339.185 38.5513C339.055 38.0495 338.845 37.6205 338.554 37.2644C338.279 36.892 337.915 36.6088 337.462 36.4145C337.025 36.2041 336.507 36.0989 335.909 36.0989C335.294 36.0989 334.768 36.2041 334.331 36.4145C333.895 36.6088 333.531 36.892 333.239 37.2644C332.964 37.6205 332.754 38.0495 332.608 38.5513C332.479 39.0369 332.414 39.5711 332.414 40.1538V42.7762C332.414 43.3589 332.479 43.9012 332.608 44.403C332.754 44.8886 332.964 45.3176 333.239 45.6899C333.531 46.046 333.895 46.3293 334.331 46.5398C334.768 46.734 335.294 46.8311 335.909 46.8311ZM335.909 48.0209C335.051 48.0209 334.267 47.8671 333.555 47.5596C332.843 47.252 332.236 46.8149 331.735 46.2484C331.233 45.6656 330.845 44.9777 330.57 44.1845C330.295 43.3751 330.158 42.4686 330.158 41.465C330.158 40.4776 330.295 39.5792 330.57 38.7698C330.845 37.9604 331.233 37.2725 331.735 36.7059C332.236 36.1231 332.843 35.678 333.555 35.3704C334.267 35.0629 335.051 34.9091 335.909 34.9091C336.766 34.9091 337.551 35.0629 338.263 35.3704C338.974 35.678 339.581 36.1231 340.083 36.7059C340.584 37.2725 340.972 37.9604 341.247 38.7698C341.522 39.5792 341.66 40.4776 341.66 41.465C341.66 42.4686 341.522 43.3751 341.247 44.1845C340.972 44.9777 340.584 45.6656 340.083 46.2484C339.581 46.8149 338.974 47.252 338.263 47.5596C337.551 47.8671 336.766 48.0209 335.909 48.0209Z" fill="#231F20"/>
<path d="M346.234 48.0209C345.765 48.0209 345.392 47.8833 345.117 47.6081C344.859 47.3168 344.729 46.9687 344.729 46.564V46.4183C344.729 46.0137 344.859 45.6737 345.117 45.3985C345.392 45.1072 345.765 44.9615 346.234 44.9615C346.703 44.9615 347.067 45.1072 347.326 45.3985C347.601 45.6737 347.738 46.0137 347.738 46.4183V46.564C347.738 46.9687 347.601 47.3168 347.326 47.6081C347.067 47.8833 346.703 48.0209 346.234 48.0209ZM346.234 37.9685C345.765 37.9685 345.392 37.8309 345.117 37.5557C344.859 37.2644 344.729 36.9163 344.729 36.5116V36.366C344.729 35.9613 344.859 35.6213 345.117 35.3461C345.392 35.0548 345.765 34.9091 346.234 34.9091C346.703 34.9091 347.067 35.0548 347.326 35.3461C347.601 35.6213 347.738 35.9613 347.738 36.366V36.5116C347.738 36.9163 347.601 37.2644 347.326 37.5557C347.067 37.8309 346.703 37.9685 346.234 37.9685Z" fill="#231F20"/>
<path d="M3.93987 75.9146C2.77506 75.9146 1.86102 75.6151 1.19772 75.0162C0.550608 74.401 0.227051 73.5674 0.227051 72.5152C0.227051 71.9163 0.324118 71.3902 0.518252 70.9369C0.712387 70.4675 1.02786 70.079 1.46466 69.7714C1.91764 69.4639 2.50004 69.2292 3.21187 69.0673C3.92369 68.9054 4.78921 68.8245 5.80841 68.8245H7.60416V66.9791C7.60416 65.9917 7.36149 65.239 6.87615 64.721C6.407 64.1868 5.69517 63.9197 4.74068 63.9197C4.32005 63.9197 3.93178 63.9601 3.57587 64.0411C3.21996 64.1058 2.92875 64.203 2.70226 64.3325V64.381C2.88022 64.4781 3.05009 64.6238 3.21187 64.8181C3.38982 65.0123 3.4788 65.2875 3.4788 65.6436C3.4788 66.0645 3.35747 66.3964 3.1148 66.6392C2.87213 66.8658 2.54857 66.9791 2.14413 66.9791C1.75586 66.9791 1.4323 66.8658 1.17346 66.6392C0.930788 66.3964 0.809454 66.0402 0.809454 65.5708C0.809454 65.2147 0.91461 64.8747 1.12492 64.551C1.33523 64.211 1.63453 63.9116 2.02279 63.6526C2.41106 63.3936 2.88831 63.1912 3.45454 63.0456C4.03694 62.8837 4.69214 62.8027 5.42015 62.8027C6.73055 62.8027 7.74976 63.1427 8.47776 63.8226C9.22194 64.5024 9.59403 65.4575 9.59403 66.6877V74.5791H11.414V75.4289C11.2361 75.5584 10.9934 75.6717 10.686 75.7689C10.3948 75.866 10.0632 75.9146 9.6911 75.9146C9.06017 75.9146 8.57483 75.7365 8.23509 75.3804C7.89536 75.0242 7.72549 74.5467 7.72549 73.9478V73.7778H7.60416C7.49091 74.053 7.33722 74.3201 7.14309 74.5791C6.96513 74.8381 6.73055 75.0647 6.43935 75.259C6.14815 75.4532 5.79224 75.607 5.37161 75.7203C4.96717 75.8498 4.48992 75.9146 3.93987 75.9146ZM4.78921 74.5791C5.56575 74.5791 6.22904 74.3848 6.77909 73.9963C7.32913 73.5917 7.60416 72.9765 7.60416 72.151V69.7957H6.02682C5.33117 69.7957 4.74876 69.8524 4.27961 69.9657C3.81045 70.0628 3.43836 70.2166 3.16333 70.427C2.88831 70.6213 2.68609 70.8641 2.55666 71.1555C2.44342 71.4468 2.3868 71.7868 2.3868 72.1753V72.6852C2.3868 73.3003 2.59711 73.7697 3.01773 74.0935C3.43836 74.4172 4.02885 74.5791 4.78921 74.5791Z" fill="#231F20"/>
<path d="M13.4743 74.5062H15.27V64.1868H13.4743V63.0941H20.4631C21.6279 63.0941 22.5258 63.3693 23.1567 63.9197C23.7876 64.47 24.1031 65.1904 24.1031 66.0807C24.1031 67.0034 23.8524 67.6913 23.3508 68.1446C22.8655 68.5978 22.275 68.8973 21.5794 69.043V69.1401C21.9353 69.1725 22.2831 69.2615 22.6228 69.4072C22.9788 69.5529 23.2942 69.7552 23.5692 70.0142C23.8443 70.2571 24.0708 70.5646 24.2487 70.9369C24.4267 71.293 24.5156 71.7139 24.5156 72.1995C24.5156 73.3488 24.1597 74.2068 23.4479 74.7733C22.7523 75.3399 21.7735 75.6232 20.5116 75.6232H13.4743V74.5062ZM20.3175 74.4334C21.0131 74.4334 21.5308 74.2553 21.8706 73.8992C22.2265 73.5269 22.4044 73.0575 22.4044 72.4909V71.7868C22.4044 71.2202 22.2265 70.7589 21.8706 70.4027C21.5147 70.0304 20.997 69.8443 20.3175 69.8443H17.2599V74.4334H20.3175ZM20.0748 68.6545C20.6896 68.6545 21.1587 68.4845 21.4823 68.1446C21.822 67.7885 21.9919 67.3514 21.9919 66.8334V66.105C21.9919 65.587 21.822 65.158 21.4823 64.8181C21.1587 64.462 20.6896 64.2839 20.0748 64.2839H17.2599V68.6545H20.0748Z" fill="#231F20"/>
<path d="M28.8975 74.5062H31.1786V64.2839H28.121V66.7848H26.665V63.0941H37.6821V66.7848H36.2261V64.2839H33.1685V74.5062H35.4496V75.6232H28.8975V74.5062Z" fill="#231F20"/>
<path d="M45.3616 74.7248C45.9602 74.7248 46.4779 74.6277 46.9147 74.4334C47.3676 74.223 47.7316 73.9397 48.0067 73.5836C48.2979 73.2113 48.5082 72.7823 48.6376 72.2967C48.7832 71.7949 48.856 71.2526 48.856 70.6698V68.0475C48.856 67.4647 48.7832 66.9305 48.6376 66.4449C48.5082 65.9431 48.2979 65.5141 48.0067 65.158C47.7316 64.7857 47.3676 64.5024 46.9147 64.3082C46.4779 64.0977 45.9602 63.9925 45.3616 63.9925C44.7468 63.9925 44.221 64.0977 43.7842 64.3082C43.3474 64.5024 42.9834 64.7857 42.6922 65.158C42.4172 65.5141 42.2069 65.9431 42.0613 66.4449C41.9319 66.9305 41.8672 67.4647 41.8672 68.0475V70.6698C41.8672 71.2526 41.9319 71.7949 42.0613 72.2967C42.2069 72.7823 42.4172 73.2113 42.6922 73.5836C42.9834 73.9397 43.3474 74.223 43.7842 74.4334C44.221 74.6277 44.7468 74.7248 45.3616 74.7248ZM45.3616 75.9146C44.5042 75.9146 43.7195 75.7608 43.0077 75.4532C42.2959 75.1457 41.6892 74.7086 41.1877 74.142C40.6862 73.5593 40.2979 72.8713 40.0229 72.0781C39.7479 71.2688 39.6104 70.3623 39.6104 69.3586C39.6104 68.3712 39.7479 67.4728 40.0229 66.6634C40.2979 65.8541 40.6862 65.1661 41.1877 64.5995C41.6892 64.0168 42.2959 63.5716 43.0077 63.2641C43.7195 62.9565 44.5042 62.8027 45.3616 62.8027C46.219 62.8027 47.0036 62.9565 47.7155 63.2641C48.4273 63.5716 49.034 64.0168 49.5355 64.5995C50.037 65.1661 50.4253 65.8541 50.7003 66.6634C50.9753 67.4728 51.1128 68.3712 51.1128 69.3586C51.1128 70.3623 50.9753 71.2688 50.7003 72.0781C50.4253 72.8713 50.037 73.5593 49.5355 74.142C49.034 74.7086 48.4273 75.1457 47.7155 75.4532C47.0036 75.7608 46.219 75.9146 45.3616 75.9146Z" fill="#231F20"/>
<path d="M53.1628 79.3625H54.9585V64.6724L53.1628 64.3567V63.5312L56.9484 62.8027V64.988H57.0455C57.3205 64.3891 57.7573 63.8792 58.3559 63.4583C58.9545 63.0213 59.7472 62.8027 60.734 62.8027C62.2871 62.8027 63.5247 63.3693 64.4469 64.5024C65.3852 65.6194 65.8543 67.2381 65.8543 69.3586C65.8543 71.4792 65.3852 73.106 64.4469 74.2392C63.5247 75.3561 62.2871 75.9146 60.734 75.9146C59.7634 75.9146 58.9706 75.7041 58.3559 75.2832C57.7573 74.8624 57.3205 74.3525 57.0455 73.7535H56.9484V79.3625H59.2295V80.4794H53.1628V79.3625ZM60.1516 74.5305C61.2679 74.5305 62.1334 74.1582 62.7482 73.4136C63.3791 72.6528 63.6946 71.6411 63.6946 70.3785V68.3388C63.6946 67.0762 63.3791 66.0726 62.7482 65.328C62.1334 64.5672 61.2679 64.1868 60.1516 64.1868C59.7634 64.1868 59.3751 64.2434 58.9868 64.3567C58.5986 64.47 58.2507 64.6319 57.9434 64.8424C57.6521 65.0528 57.4095 65.3199 57.2153 65.6436C57.0374 65.9512 56.9484 66.2992 56.9484 66.6877V72.0296C56.9484 72.4181 57.0374 72.7742 57.2153 73.0979C57.4095 73.4055 57.6521 73.6645 57.9434 73.8749C58.2507 74.0854 58.5986 74.2472 58.9868 74.3606C59.3751 74.4739 59.7634 74.5305 60.1516 74.5305Z" fill="#231F20"/>
<path d="M74.1062 75.9146C73.2002 75.9146 72.3913 75.7608 71.6795 75.4532C70.9839 75.1295 70.3934 74.6843 69.908 74.1177C69.4227 73.535 69.0506 72.847 68.7918 72.0539C68.5329 71.2445 68.4035 70.3461 68.4035 69.3586C68.4035 68.355 68.541 67.4485 68.816 66.6392C69.1072 65.8298 69.5117 65.1418 70.0294 64.5753C70.547 64.0087 71.1618 63.5716 71.8736 63.2641C72.6016 62.9565 73.4024 62.8027 74.276 62.8027C75.5865 62.8027 76.6218 63.086 77.3822 63.6526C78.1587 64.203 78.547 64.9071 78.547 65.765C78.547 66.283 78.4095 66.6877 78.1345 66.9791C77.8756 67.2705 77.5116 67.4162 77.0425 67.4162C76.5409 67.4162 76.1689 67.2705 75.9262 66.9791C75.6835 66.6877 75.5622 66.3397 75.5622 65.935C75.5622 65.5789 75.6512 65.2713 75.8291 65.0123C76.0071 64.7533 76.2578 64.551 76.5814 64.4053V64.3325C76.3711 64.203 76.0961 64.1058 75.7563 64.0411C75.4328 63.9763 75.0121 63.944 74.4944 63.944C73.9282 63.944 73.4024 64.0492 72.9171 64.2596C72.4479 64.47 72.0435 64.7695 71.7038 65.158C71.364 65.5303 71.0971 65.9755 70.903 66.4935C70.7088 66.9953 70.6118 67.5457 70.6118 68.1446V69.9414C70.6118 70.6051 70.7007 71.2121 70.8787 71.7625C71.0567 72.2967 71.3074 72.758 71.631 73.1465C71.9707 73.535 72.3671 73.8345 72.82 74.0449C73.2892 74.2553 73.815 74.3606 74.3974 74.3606C75.3842 74.3606 76.1608 74.1582 76.727 73.7535C77.2932 73.3327 77.7462 72.7904 78.0859 72.1267L78.8625 72.6366C78.7169 73.0575 78.5066 73.4703 78.2315 73.8749C77.9565 74.2634 77.6249 74.6115 77.2366 74.919C76.8483 75.2104 76.3873 75.4451 75.8534 75.6232C75.3357 75.8174 74.7533 75.9146 74.1062 75.9146Z" fill="#231F20"/>
<path d="M81.0374 74.5062H82.8331V64.1868H81.0374V63.0941H86.6187V64.1868H84.823V68.7273H86.8371L88.1961 65.6679C88.6652 64.5995 89.1425 63.8549 89.6278 63.4341C90.1293 63.0132 90.6875 62.8027 91.3022 62.8027C91.8361 62.8027 92.2486 62.9565 92.5398 63.2641C92.831 63.5716 92.9766 63.9601 92.9766 64.4296C92.9766 64.899 92.8472 65.2794 92.5884 65.5708C92.3457 65.846 92.0141 65.9836 91.5934 65.9836C91.1728 65.9836 90.8493 65.8541 90.6228 65.5951C90.3963 65.3361 90.283 64.9719 90.283 64.5024H90.2102C90.0808 64.6643 89.9352 64.8828 89.7734 65.158C89.6117 65.417 89.4499 65.7246 89.2881 66.0807L87.9292 69.1401C88.2527 69.1887 88.5277 69.2939 88.7542 69.4558C88.9807 69.6176 89.1991 69.8605 89.4094 70.1842L92.2001 74.5062H93.5591V75.6232H90.5742L86.8371 69.8443H84.823V74.5062H86.6187V75.6232H81.0374V74.5062Z" fill="#231F20"/>
<path d="M95.1377 74.5062H96.9335V64.1868H95.1377V63.0941H100.671V64.1868H98.8748V68.7759L98.6564 72.151H98.7292L104.99 64.9152V64.1868H103.194V63.0941H108.727V64.1868H106.931V74.5062H108.727V75.6232H103.194V74.5062H104.99V69.9657L105.208 66.5663H105.111L98.8748 73.8021V74.5062H100.671V75.6232H95.1377V74.5062Z" fill="#231F20"/>
<path d="M111.158 74.5062H112.953V64.1868H111.158V63.0941H116.69V64.1868H114.895V68.7759L114.676 72.151H114.749L121.01 64.9152V64.1868H119.214V63.0941H124.747V64.1868H122.951V74.5062H124.747V75.6232H119.214V74.5062H121.01V69.9657L121.228 66.5663H121.131L114.895 73.8021V74.5062H116.69V75.6232H111.158V74.5062ZM117.952 61.1273C117.273 61.1273 116.69 61.0545 116.205 60.9088C115.736 60.7469 115.34 60.5446 115.016 60.3018C114.709 60.059 114.482 59.7838 114.337 59.4762C114.191 59.1525 114.118 58.8206 114.118 58.4807C114.118 58.0598 114.231 57.7442 114.458 57.5337C114.684 57.3071 114.984 57.1938 115.356 57.1938C115.728 57.1938 116.019 57.299 116.229 57.5095C116.44 57.7199 116.545 58.0194 116.545 58.4079C116.545 58.7316 116.456 58.9906 116.278 59.1849C116.1 59.3629 115.898 59.4924 115.671 59.5733V59.6219C115.946 59.7676 116.278 59.8728 116.666 59.9376C117.054 60.0023 117.483 60.0347 117.952 60.0347C118.421 60.0347 118.85 60.0023 119.238 59.9376C119.627 59.8728 119.958 59.7676 120.233 59.6219V59.5733C120.007 59.4924 119.805 59.3629 119.627 59.1849C119.449 58.9906 119.36 58.7316 119.36 58.4079C119.36 58.0194 119.465 57.7199 119.675 57.5095C119.886 57.299 120.177 57.1938 120.549 57.1938C120.921 57.1938 121.22 57.3071 121.447 57.5337C121.673 57.7442 121.786 58.0598 121.786 58.4807C121.786 58.8206 121.714 59.1525 121.568 59.4762C121.422 59.7838 121.188 60.059 120.864 60.3018C120.557 60.5446 120.161 60.7469 119.675 60.9088C119.206 61.0545 118.632 61.1273 117.952 61.1273Z" fill="#231F20"/>
<path d="M132.818 74.5062H134.613V64.1868H132.818V63.0941H146.431V64.1868H144.636V74.5062H146.431V75.6232H140.85V74.5062H142.646V64.2839H136.603V74.5062H138.399V75.6232H132.818V74.5062Z" fill="#231F20"/>
<path d="M154.491 74.7248C155.09 74.7248 155.607 74.6277 156.044 74.4334C156.497 74.223 156.861 73.9397 157.136 73.5836C157.427 73.2113 157.638 72.7823 157.767 72.2967C157.913 71.7949 157.985 71.2526 157.985 70.6698V68.0475C157.985 67.4647 157.913 66.9305 157.767 66.4449C157.638 65.9431 157.427 65.5141 157.136 65.158C156.861 64.7857 156.497 64.5024 156.044 64.3082C155.607 64.0977 155.09 63.9925 154.491 63.9925C153.876 63.9925 153.351 64.0977 152.914 64.3082C152.477 64.5024 152.113 64.7857 151.822 65.158C151.547 65.5141 151.336 65.9431 151.191 66.4449C151.061 66.9305 150.997 67.4647 150.997 68.0475V70.6698C150.997 71.2526 151.061 71.7949 151.191 72.2967C151.336 72.7823 151.547 73.2113 151.822 73.5836C152.113 73.9397 152.477 74.223 152.914 74.4334C153.351 74.6277 153.876 74.7248 154.491 74.7248ZM154.491 75.9146C153.634 75.9146 152.849 75.7608 152.137 75.4532C151.425 75.1457 150.819 74.7086 150.317 74.142C149.816 73.5593 149.427 72.8713 149.152 72.0781C148.877 71.2688 148.74 70.3623 148.74 69.3586C148.74 68.3712 148.877 67.4728 149.152 66.6634C149.427 65.8541 149.816 65.1661 150.317 64.5995C150.819 64.0168 151.425 63.5716 152.137 63.2641C152.849 62.9565 153.634 62.8027 154.491 62.8027C155.349 62.8027 156.133 62.9565 156.845 63.2641C157.557 63.5716 158.163 64.0168 158.665 64.5995C159.166 65.1661 159.555 65.8541 159.83 66.6634C160.105 67.4728 160.242 68.3712 160.242 69.3586C160.242 70.3623 160.105 71.2688 159.83 72.0781C159.555 72.8713 159.166 73.5593 158.665 74.142C158.163 74.7086 157.557 75.1457 156.845 75.4532C156.133 75.7608 155.349 75.9146 154.491 75.9146Z" fill="#231F20"/>
<path d="M161.332 74.4334H163.079C163.823 73.4622 164.414 72.2319 164.851 70.7427C165.304 69.2372 165.53 67.4242 165.53 65.3037V64.1868H163.71V63.0941H174.242V64.1868H172.446V74.4334H174.873V79.2654H173.077V75.6232H163.128V79.2654H161.332V74.4334ZM170.456 74.4334V64.2839H166.986V65.3037C166.986 67.2948 166.784 69.0754 166.379 70.6456C165.975 72.2157 165.433 73.4783 164.753 74.4334H170.456Z" fill="#231F20"/>
<path d="M176.672 74.5062H178.055L181.719 69.5043L178.007 64.211H176.745V63.0941H181.841V64.211H180.409L183.127 68.1932H183.224L185.796 64.211H184.292V63.0941H188.684V64.211H187.301L183.831 69.1401L187.543 74.5062H188.805V75.6232H183.685V74.5062H185.117L182.423 70.4513H182.326L179.56 74.5062H181.064V75.6232H176.672V74.5062Z" fill="#231F20"/>
<path d="M195.963 74.7248C196.561 74.7248 197.079 74.6277 197.516 74.4334C197.969 74.223 198.333 73.9397 198.608 73.5836C198.899 73.2113 199.109 72.7823 199.239 72.2967C199.384 71.7949 199.457 71.2526 199.457 70.6698V68.0475C199.457 67.4647 199.384 66.9305 199.239 66.4449C199.109 65.9431 198.899 65.5141 198.608 65.158C198.333 64.7857 197.969 64.5024 197.516 64.3082C197.079 64.0977 196.561 63.9925 195.963 63.9925C195.348 63.9925 194.822 64.0977 194.385 64.3082C193.949 64.5024 193.585 64.7857 193.293 65.158C193.018 65.5141 192.808 65.9431 192.662 66.4449C192.533 66.9305 192.468 67.4647 192.468 68.0475V70.6698C192.468 71.2526 192.533 71.7949 192.662 72.2967C192.808 72.7823 193.018 73.2113 193.293 73.5836C193.585 73.9397 193.949 74.223 194.385 74.4334C194.822 74.6277 195.348 74.7248 195.963 74.7248ZM195.963 75.9146C195.105 75.9146 194.321 75.7608 193.609 75.4532C192.897 75.1457 192.29 74.7086 191.789 74.142C191.287 73.5593 190.899 72.8713 190.624 72.0781C190.349 71.2688 190.211 70.3623 190.211 69.3586C190.211 68.3712 190.349 67.4728 190.624 66.6634C190.899 65.8541 191.287 65.1661 191.789 64.5995C192.29 64.0168 192.897 63.5716 193.609 63.2641C194.321 62.9565 195.105 62.8027 195.963 62.8027C196.82 62.8027 197.605 62.9565 198.317 63.2641C199.028 63.5716 199.635 64.0168 200.137 64.5995C200.638 65.1661 201.026 65.8541 201.301 66.6634C201.576 67.4728 201.714 68.3712 201.714 69.3586C201.714 70.3623 201.576 71.2688 201.301 72.0781C201.026 72.8713 200.638 73.5593 200.137 74.142C199.635 74.7086 199.028 75.1457 198.317 75.4532C197.605 75.7608 196.82 75.9146 195.963 75.9146Z" fill="#231F20"/>
<path d="M202.803 74.4334H204.551C205.295 73.4622 205.885 72.2319 206.322 70.7427C206.775 69.2372 207.002 67.4242 207.002 65.3037V64.1868H205.182V63.0941H215.713V64.1868H213.918V74.4334H216.344V79.2654H214.549V75.6232H204.599V79.2654H202.803V74.4334ZM211.928 74.4334V64.2839H208.458V65.3037C208.458 67.2948 208.255 69.0754 207.851 70.6456C207.446 72.2157 206.905 73.4783 206.225 74.4334H211.928Z" fill="#231F20"/>
<path d="M224.079 74.5062H225.875V64.1868H224.079V63.0941H229.66V64.1868H227.864V68.7273H229.879L231.237 65.6679C231.707 64.5995 232.184 63.8549 232.669 63.4341C233.171 63.0132 233.729 62.8027 234.344 62.8027C234.878 62.8027 235.29 62.9565 235.581 63.2641C235.872 63.5716 236.018 63.9601 236.018 64.4296C236.018 64.899 235.889 65.2794 235.63 65.5708C235.387 65.846 235.055 65.9836 234.635 65.9836C234.214 65.9836 233.891 65.8541 233.664 65.5951C233.438 65.3361 233.324 64.9719 233.324 64.5024H233.252C233.122 64.6643 232.977 64.8828 232.815 65.158C232.653 65.417 232.491 65.7246 232.329 66.0807L230.971 69.1401C231.294 69.1887 231.569 69.2939 231.796 69.4558C232.022 69.6176 232.241 69.8605 232.451 70.1842L235.241 74.5062H236.6V75.6232H233.616L229.879 69.8443H227.864V74.5062H229.66V75.6232H224.079V74.5062Z" fill="#231F20"/>
<path d="M245.591 80.7708C244.766 80.7708 244.167 80.5927 243.795 80.2366C243.423 79.8967 243.237 79.4434 243.237 78.8769C243.237 78.456 243.35 78.116 243.577 77.857C243.803 77.598 244.127 77.4685 244.547 77.4685C244.919 77.4685 245.202 77.5738 245.397 77.7842C245.607 78.0108 245.712 78.3103 245.712 78.6826C245.712 78.9578 245.639 79.1763 245.494 79.3382C245.364 79.5163 245.219 79.6296 245.057 79.6781V79.751C245.235 79.8157 245.445 79.8481 245.688 79.8481C246.108 79.8481 246.521 79.6619 246.925 79.2896C247.33 78.9335 247.694 78.3427 248.017 77.5171L248.527 76.1331L243.916 64.211H242.654V63.0941H247.848V64.211H246.1L249.473 73.3893H249.57L252.846 64.211H251.099V63.0941H255.516V64.211H254.254L249.061 77.7114C248.721 78.6017 248.26 79.3301 247.678 79.8967C247.111 80.4794 246.416 80.7708 245.591 80.7708Z" fill="#231F20"/>
<path d="M256.758 74.5062H258.554V64.1868H256.758V63.0941H270.372V64.1868H268.576V74.5062H270.372V75.6232H264.791V74.5062H266.586V64.2839H260.544V74.5062H262.34V75.6232H256.758V74.5062Z" fill="#231F20"/>
<path d="M272.559 79.3625H274.355V64.6724L272.559 64.3567V63.5312L276.345 62.8027V64.988H276.442C276.717 64.3891 277.154 63.8792 277.752 63.4583C278.351 63.0213 279.144 62.8027 280.131 62.8027C281.684 62.8027 282.921 63.3693 283.843 64.5024C284.782 65.6194 285.251 67.2381 285.251 69.3586C285.251 71.4792 284.782 73.106 283.843 74.2392C282.921 75.3561 281.684 75.9146 280.131 75.9146C279.16 75.9146 278.367 75.7041 277.752 75.2832C277.154 74.8624 276.717 74.3525 276.442 73.7535H276.345V79.3625H278.626V80.4794H272.559V79.3625ZM279.548 74.5305C280.664 74.5305 281.53 74.1582 282.145 73.4136C282.776 72.6528 283.091 71.6411 283.091 70.3785V68.3388C283.091 67.0762 282.776 66.0726 282.145 65.328C281.53 64.5672 280.664 64.1868 279.548 64.1868C279.16 64.1868 278.772 64.2434 278.383 64.3567C277.995 64.47 277.647 64.6319 277.34 64.8424C277.049 65.0528 276.806 65.3199 276.612 65.6436C276.434 65.9512 276.345 66.2992 276.345 66.6877V72.0296C276.345 72.4181 276.434 72.7742 276.612 73.0979C276.806 73.4055 277.049 73.6645 277.34 73.8749C277.647 74.0854 277.995 74.2472 278.383 74.3606C278.772 74.4739 279.16 74.5305 279.548 74.5305Z" fill="#231F20"/>
<path d="M291.634 75.9146C290.469 75.9146 289.555 75.6151 288.892 75.0162C288.245 74.401 287.921 73.5674 287.921 72.5152C287.921 71.9163 288.018 71.3902 288.213 70.9369C288.407 70.4675 288.722 70.079 289.159 69.7714C289.612 69.4639 290.194 69.2292 290.906 69.0673C291.618 68.9054 292.483 68.8245 293.503 68.8245H295.298V66.9791C295.298 65.9917 295.056 65.239 294.57 64.721C294.101 64.1868 293.389 63.9197 292.435 63.9197C292.014 63.9197 291.626 63.9601 291.27 64.0411C290.914 64.1058 290.623 64.203 290.397 64.3325V64.381C290.574 64.4781 290.744 64.6238 290.906 64.8181C291.084 65.0123 291.173 65.2875 291.173 65.6436C291.173 66.0645 291.052 66.3964 290.809 66.6392C290.566 66.8658 290.243 66.9791 289.838 66.9791C289.45 66.9791 289.127 66.8658 288.868 66.6392C288.625 66.3964 288.504 66.0402 288.504 65.5708C288.504 65.2147 288.609 64.8747 288.819 64.551C289.029 64.211 289.329 63.9116 289.717 63.6526C290.105 63.3936 290.583 63.1912 291.149 63.0456C291.731 62.8837 292.386 62.8027 293.114 62.8027C294.425 62.8027 295.444 63.1427 296.172 63.8226C296.916 64.5024 297.288 65.4575 297.288 66.6877V74.5791H299.108V75.4289C298.93 75.5584 298.688 75.6717 298.38 75.7689C298.089 75.866 297.757 75.9146 297.385 75.9146C296.754 75.9146 296.269 75.7365 295.929 75.3804C295.59 75.0242 295.42 74.5467 295.42 73.9478V73.7778H295.298C295.185 74.053 295.031 74.3201 294.837 74.5791C294.659 74.8381 294.425 75.0647 294.134 75.259C293.842 75.4532 293.487 75.607 293.066 75.7203C292.661 75.8498 292.184 75.9146 291.634 75.9146ZM292.483 74.5791C293.26 74.5791 293.923 74.3848 294.473 73.9963C295.023 73.5917 295.298 72.9765 295.298 72.151V69.7957H293.721C293.025 69.7957 292.443 69.8524 291.974 69.9657C291.505 70.0628 291.133 70.2166 290.858 70.427C290.583 70.6213 290.38 70.8641 290.251 71.1555C290.138 71.4468 290.081 71.7868 290.081 72.1753V72.6852C290.081 73.3003 290.291 73.7697 290.712 74.0935C291.133 74.4172 291.723 74.5791 292.483 74.5791Z" fill="#231F20"/>
<path d="M301.169 74.5062H302.964V64.1868H301.169V63.0941H308.157C309.322 63.0941 310.22 63.3693 310.851 63.9197C311.482 64.47 311.797 65.1904 311.797 66.0807C311.797 67.0034 311.547 67.6913 311.045 68.1446C310.56 68.5978 309.969 68.8973 309.274 69.043V69.1401C309.63 69.1725 309.977 69.2615 310.317 69.4072C310.673 69.5529 310.988 69.7552 311.263 70.0142C311.539 70.2571 311.765 70.5646 311.943 70.9369C312.121 71.293 312.21 71.7139 312.21 72.1995C312.21 73.3488 311.854 74.2068 311.142 74.7733C310.447 75.3399 309.468 75.6232 308.206 75.6232H301.169V74.5062ZM308.012 74.4334C308.707 74.4334 309.225 74.2553 309.565 73.8992C309.921 73.5269 310.099 73.0575 310.099 72.4909V71.7868C310.099 71.2202 309.921 70.7589 309.565 70.4027C309.209 70.0304 308.691 69.8443 308.012 69.8443H304.954V74.4334H308.012ZM307.769 68.6545C308.384 68.6545 308.853 68.4845 309.177 68.1446C309.516 67.7885 309.686 67.3514 309.686 66.8334V66.105C309.686 65.587 309.516 65.158 309.177 64.8181C308.853 64.462 308.384 64.2839 307.769 64.2839H304.954V68.6545H307.769Z" fill="#231F20"/>
<path d="M315.887 75.9146C315.159 75.9146 314.609 75.7284 314.237 75.3561C313.881 74.9676 313.703 74.5062 313.703 73.9721C313.703 73.5512 313.808 73.2113 314.018 72.9523C314.245 72.6933 314.568 72.5638 314.989 72.5638C315.361 72.5638 315.644 72.669 315.838 72.8794C316.049 73.0899 316.154 73.3731 316.154 73.7293C316.154 73.9883 316.089 74.2149 315.96 74.4091C315.83 74.5872 315.685 74.7086 315.523 74.7733V74.8462C315.571 74.8786 315.628 74.8947 315.693 74.8947C315.774 74.8947 315.846 74.8947 315.911 74.8947C316.283 74.8947 316.599 74.7652 316.858 74.5062C317.019 74.3444 317.181 74.1097 317.343 73.8021C317.505 73.4783 317.642 72.9927 317.755 72.3452C317.885 71.6977 317.982 70.8398 318.047 69.7714C318.128 68.6869 318.168 67.3028 318.168 65.6194V64.1868H316.372V63.0941H327.025V64.1868H325.23V74.5062H327.025V75.6232H321.444V74.5062H323.24V64.2839H319.624V65.4979C319.624 67.1814 319.584 68.5817 319.503 69.6986C319.438 70.8155 319.333 71.7382 319.187 72.4666C319.058 73.1951 318.888 73.7697 318.678 74.1906C318.483 74.5953 318.249 74.9271 317.974 75.1861C317.699 75.4613 317.375 75.6475 317.003 75.7446C316.631 75.8579 316.259 75.9146 315.887 75.9146Z" fill="#231F20"/>
<path d="M334.997 75.9146C334.108 75.9146 333.307 75.7608 332.595 75.4532C331.899 75.1295 331.309 74.6843 330.823 74.1177C330.338 73.5512 329.966 72.8632 329.707 72.0539C329.448 71.2445 329.319 70.3461 329.319 69.3586C329.319 68.3874 329.456 67.5052 329.731 66.712C330.023 65.9026 330.411 65.2066 330.896 64.6238C331.398 64.0411 331.988 63.5959 332.668 63.2884C333.347 62.9646 334.091 62.8027 334.9 62.8027C335.725 62.8027 336.461 62.9484 337.109 63.2398C337.756 63.5312 338.298 63.944 338.734 64.4781C339.187 64.9961 339.535 65.6194 339.778 66.3478C340.021 67.0762 340.142 67.8694 340.142 68.7273V69.2858H331.527V69.9171C331.527 71.293 331.867 72.3776 332.546 73.1708C333.242 73.964 334.164 74.3606 335.313 74.3606C336.316 74.3606 337.109 74.1582 337.691 73.7535C338.29 73.3327 338.759 72.7904 339.098 72.1267L339.899 72.6366C339.737 73.0575 339.511 73.4703 339.22 73.8749C338.945 74.2634 338.605 74.6115 338.201 74.919C337.796 75.2104 337.327 75.4451 336.793 75.6232C336.259 75.8174 335.661 75.9146 334.997 75.9146ZM331.527 68.1689H338.055V67.9261C338.055 67.3595 337.99 66.8334 337.861 66.3478C337.748 65.8622 337.562 65.4413 337.303 65.0852C337.044 64.729 336.712 64.4539 336.308 64.2596C335.92 64.0492 335.45 63.944 334.9 63.944C334.35 63.944 333.865 64.0411 333.444 64.2353C333.024 64.4296 332.668 64.7048 332.377 65.0609C332.102 65.417 331.891 65.8379 331.746 66.3235C331.6 66.7929 331.527 67.3109 331.527 67.8775V68.1689Z" fill="#231F20"/>
<path d="M342.451 74.5062H344.246V64.1868H342.451V63.0941H348.032V64.1868H346.236V68.6788H352.254V64.1868H350.459V63.0941H356.04V64.1868H354.244V74.5062H356.04V75.6232H350.459V74.5062H352.254V69.8686H346.236V74.5062H348.032V75.6232H342.451V74.5062Z" fill="#231F20"/>
<path d="M358.47 74.5062H360.266V64.1868H358.47V63.0941H364.003V64.1868H362.207V68.7759L361.989 72.151H362.062L368.323 64.9152V64.1868H366.527V63.0941H372.06V64.1868H370.264V74.5062H372.06V75.6232H366.527V74.5062H368.323V69.9657L368.541 66.5663H368.444L362.207 73.8021V74.5062H364.003V75.6232H358.47V74.5062Z" fill="#231F20"/>
<path d="M386.696 75.9146C385.127 75.9146 383.873 75.3885 382.935 74.3363C381.997 73.2679 381.479 71.7787 381.382 69.8686H378.276V74.5062H380.072V75.6232H374.49V74.5062H376.286V64.1868H374.49V63.0941H380.072V64.1868H378.276V68.6788H381.406C381.52 66.8172 382.037 65.3765 382.959 64.3567C383.898 63.3207 385.135 62.8027 386.672 62.8027C387.481 62.8027 388.217 62.9565 388.88 63.2641C389.544 63.5555 390.102 63.9844 390.555 64.551C391.024 65.1014 391.38 65.7893 391.623 66.6149C391.881 67.4242 392.011 68.3388 392.011 69.3586C392.011 71.4306 391.534 73.0413 390.579 74.1906C389.625 75.3399 388.33 75.9146 386.696 75.9146ZM386.696 74.7248C387.78 74.7248 388.557 74.3687 389.026 73.6564C389.511 72.9442 389.754 71.981 389.754 70.767V67.9503C389.754 66.7363 389.511 65.7731 389.026 65.0609C388.557 64.3486 387.78 63.9925 386.696 63.9925C385.613 63.9925 384.828 64.3486 384.343 65.0609C383.873 65.7731 383.639 66.7363 383.639 67.9503V70.767C383.639 71.981 383.873 72.9442 384.343 73.6564C384.828 74.3687 385.613 74.7248 386.696 74.7248Z" fill="#231F20"/>
<path d="M394.328 72.9523L397.41 68.7031L394.328 64.4539L394.814 63.7983L399.497 68.1446V69.2615L394.814 73.6078L394.328 72.9523ZM399.327 72.9523L402.409 68.7031L399.327 64.4539L399.813 63.7983L404.496 68.1446V69.2615L399.813 73.6078L399.327 72.9523Z" fill="#231F20"/>
</svg>
