<svg width="254" height="254" viewBox="0 0 254 254" fill="none" xmlns="http://www.w3.org/2000/svg">
<g clip-path="url(#clip0_1731_4478)">
<path d="M135.615 107.624L69.7344 149.396L76.9841 156.646L135.241 118.758L97.3524 177.014L104.602 184.264L146.375 118.384L135.615 107.624Z" fill="#020726"/>
<path d="M111.507 83.5158L69.735 149.396L62.4853 142.147L100.374 83.8898L42.1169 121.75L34.8672 114.5L100.748 72.7275L111.507 83.5158Z" fill="#020726"/>
<path d="M81.7908 161.451L15.9102 203.224L23.1599 210.473L81.4168 172.585L43.557 230.842L50.8067 238.091L92.5791 172.211L81.7908 161.451Z" fill="#020726"/>
<path d="M205.353 177.359L139.473 219.132L146.722 226.381L204.979 188.493L167.12 246.75L174.369 254L216.142 188.119L205.353 177.359Z" fill="#020726"/>
<path d="M181.242 153.252L139.469 219.132L132.22 211.883L170.137 153.626L111.851 191.514L104.602 184.265L170.482 142.492L181.242 153.252Z" fill="#020726"/>
<path d="M65.8806 37.8887L0 79.6322L7.24974 86.882L65.5066 48.9934L27.6181 107.279L34.8678 114.529L76.6402 48.6482L65.8806 37.8887Z" fill="#020726"/>
<path d="M189.416 53.8262L123.535 95.5985L130.785 102.848L189.042 64.9597L151.182 123.188L158.432 130.438L200.204 64.5569L189.416 53.8262Z" fill="#020726"/>
<path d="M235.07 99.4543L193.298 165.335L186.048 158.085L223.936 99.8283L165.679 137.688L158.43 130.438L224.31 88.666L235.07 99.4543Z" fill="#020726"/>
<path d="M165.307 29.718L123.534 95.5986L116.313 88.3201L154.202 30.0632L95.9451 67.9518L88.6953 60.702L154.576 18.9297L165.307 29.718Z" fill="#020726"/>
<path d="M243.24 0L177.359 41.7723L184.609 49.0221L242.895 11.1335L205.006 69.3904L212.256 76.6402L254.028 10.7595L243.24 0Z" fill="#020726"/>
</g>
<defs>
<clipPath id="clip0_1731_4478">
<rect width="254" height="254" fill="white"/>
</clipPath>
</defs>
</svg>
