<svg width="252" height="254" viewBox="0 0 252 254" fill="none" xmlns="http://www.w3.org/2000/svg">
<path d="M168.91 78.3604L151.461 -0.000312805L161.951 -0.000313263L176.7 70.0019L191.449 -0.000314552L201.939 -0.00031501L184.49 78.3604L168.91 78.3604Z" fill="#020726"/>
<path d="M67.418 165.564L49.9687 87.2038L60.4591 87.2038L75.2079 157.206L89.9567 87.2038L100.447 87.2038L82.9978 165.564L67.418 165.564Z" fill="#020726"/>
<path d="M117.871 165.958L100.422 87.5973L110.912 87.5973L125.661 157.6L140.41 87.5973L150.9 87.5973L133.451 165.958L117.871 165.958Z" fill="#020726"/>
<path d="M168.113 253.608L150.664 175.248L161.154 175.248L175.903 245.25L190.652 175.248L201.142 175.248L183.693 253.608L168.113 253.608Z" fill="#020726"/>
<path d="M218.566 254L201.117 175.639L211.608 175.639L226.356 245.642L241.105 175.639L251.595 175.639L234.146 254L218.566 254Z" fill="#020726"/>
<path d="M218.914 78.3604L201.465 -0.000312805L211.955 -0.000313263L226.704 70.0019L241.453 -0.000314552L251.943 -0.00031501L234.494 78.3604L218.914 78.3604Z" fill="#020726"/>
<path d="M118.672 78.3604L101.223 -0.000312805L111.713 -0.000313263L126.462 70.0019L141.211 -0.000314552L151.701 -0.00031501L134.252 78.3604L118.672 78.3604Z" fill="#020726"/>
<path d="M218.566 165.957L201.117 87.5964L211.608 87.5964L226.356 157.599L241.105 87.5964L251.595 87.5964L234.146 165.957L218.566 165.957Z" fill="#020726"/>
<path d="M17.9766 78.3604L0.52734 -0.000312805L11.0177 -0.000313263L25.7665 70.0019L40.5153 -0.000314552L51.0057 -0.00031501L33.5564 78.3604L17.9766 78.3604Z" fill="#020726"/>
</svg>
