<svg width="345" height="254" viewBox="0 0 345 254" fill="none" xmlns="http://www.w3.org/2000/svg">
<path d="M7.70655e-07 220.631L79.1398 203.002L79.1398 213.6L8.44158 228.501L79.1398 243.401L79.1398 253.999L1.45874e-06 236.371L7.70655e-07 220.631Z" fill="#020726"/>
<path d="M265.859 170.118L344.999 152.489L344.999 163.087L274.301 177.988L344.999 192.888L344.999 203.487L265.859 185.858L265.859 170.118Z" fill="#020726"/>
<path d="M177.793 67.5867L256.933 49.958L256.933 60.5562L186.235 75.4566L256.933 90.3571L256.933 100.955L177.793 83.3266L177.793 67.5867Z" fill="#020726"/>
<path d="M177.391 118.555L256.53 100.927L256.53 111.525L185.832 126.425L256.53 141.326L256.53 151.924L177.391 134.295L177.391 118.555Z" fill="#020726"/>
<path d="M88.8789 169.313L168.019 151.685L168.019 162.283L97.3205 177.183L168.019 192.084L168.019 202.682L88.8789 185.053L88.8789 169.313Z" fill="#020726"/>
<path d="M88.4805 220.282L167.62 202.653L167.62 213.252L96.922 228.152L167.62 243.052L167.62 253.651L88.4805 236.022L88.4805 220.282Z" fill="#020726"/>
<path d="M265.859 220.631L344.999 203.002L344.999 213.6L274.301 228.501L344.999 243.401L344.999 253.999L265.859 236.371L265.859 220.631Z" fill="#020726"/>
<path d="M265.859 119.357L344.999 101.729L344.999 112.327L274.301 127.227L344.999 142.128L344.999 152.726L265.859 135.097L265.859 119.357Z" fill="#020726"/>
<path d="M177.398 220.281L256.538 202.652L256.538 213.251L185.84 228.151L256.538 243.051L256.538 253.65L177.398 236.021L177.398 220.281Z" fill="#020726"/>
<path d="M265.859 17.6287L344.999 -3.46314e-06L344.999 10.5982L274.301 25.4986L344.999 40.3991L344.999 50.9973L265.859 33.3686L265.859 17.6287Z" fill="#020726"/>
</svg>
