<svg width="25" height="25" viewBox="0 0 25 25" fill="none" xmlns="http://www.w3.org/2000/svg">
<path d="M25 0L0 0L0 25H25V0Z" fill="white" fill-opacity="0.01"/>
<path d="M12.5 22.9163C18.253 22.9163 22.9167 18.2526 22.9167 12.4997C22.9167 6.74671 18.253 2.08301 12.5 2.08301C6.74703 2.08301 2.08334 6.74671 2.08334 12.4997C2.08334 18.2526 6.74703 22.9163 12.5 22.9163Z" stroke="#74EB00" stroke-width="1.5625" stroke-linejoin="round"/>
<path d="M7.29166 14.0625C8.15461 14.0625 8.85416 13.3629 8.85416 12.5C8.85416 11.6371 8.15461 10.9375 7.29166 10.9375C6.42872 10.9375 5.72916 11.6371 5.72916 12.5C5.72916 13.3629 6.42872 14.0625 7.29166 14.0625Z" fill="#74EB00"/>
<path d="M12.5 14.0625C13.3629 14.0625 14.0625 13.3629 14.0625 12.5C14.0625 11.6371 13.3629 10.9375 12.5 10.9375C11.6371 10.9375 10.9375 11.6371 10.9375 12.5C10.9375 13.3629 11.6371 14.0625 12.5 14.0625Z" fill="#74EB00"/>
<path d="M17.7083 14.0625C18.5713 14.0625 19.2708 13.3629 19.2708 12.5C19.2708 11.6371 18.5713 10.9375 17.7083 10.9375C16.8454 10.9375 16.1458 11.6371 16.1458 12.5C16.1458 13.3629 16.8454 14.0625 17.7083 14.0625Z" fill="#74EB00"/>
</svg>
