<svg width="814" height="673" viewBox="0 0 814 673" fill="none" xmlns="http://www.w3.org/2000/svg">
<path d="M174.436 374.589L0 335.771L-1.02008e-06 359.108L155.83 391.918L-3.88842e-06 424.728L-4.90849e-06 448.065L174.436 409.247L174.436 374.589Z" fill="#020726"/>
<path d="M348.872 374.589L174.436 335.771L174.436 359.108L330.266 391.918L174.436 424.728L174.436 448.065L348.872 409.247L348.872 374.589Z" fill="#020726"/>
<path d="M639.564 374.589L465.128 335.771L465.128 359.108L620.957 391.918L465.128 424.728L465.128 448.065L639.564 409.247L639.564 374.589Z" fill="#020726"/>
<path d="M814 374.589L639.564 335.771L639.564 359.108L795.393 391.918L639.564 424.728L639.564 448.065L814 409.247L814 374.589Z" fill="#020726"/>
<path d="M640.436 486.817L466 448L466 471.337L621.83 504.147L466 536.957L466 560.293L640.436 521.476L640.436 486.817Z" fill="#020726"/>
<path d="M814 598.817L639.564 560L639.564 583.337L795.393 616.147L639.564 648.957L639.564 672.293L814 633.476L814 598.817Z" fill="#020726"/>
<path d="M814 262.817L639.564 224L639.564 247.337L795.393 280.147L639.564 312.957L639.564 336.293L814 297.476L814 262.817Z" fill="#020726"/>
<path d="M640.436 150.817L466 112L466 135.337L621.83 168.147L466 200.957L466 224.293L640.436 185.476L640.436 150.817Z" fill="#020726"/>
<path d="M814 38.8174L639.564 -7.62484e-06L639.564 23.3367L795.393 56.1466L639.564 88.9566L639.564 112.293L814 73.4758L814 38.8174Z" fill="#020726"/>
</svg>
