<svg width="345" height="333" viewBox="0 0 345 333" fill="none" xmlns="http://www.w3.org/2000/svg">
<path d="M86.8748 185.542L0.472992 166.315L0.472991 177.875L77.6586 194.126L0.47299 210.377L0.47299 221.937L86.8748 202.71L86.8748 185.542Z" fill="#020726"/>
<path d="M258.598 185.542L172.196 166.315L172.196 177.875L249.382 194.126L172.196 210.377L172.196 221.937L258.598 202.71L258.598 185.542Z" fill="#020726"/>
<path d="M345 185.542L258.598 166.315L258.598 177.875L335.784 194.126L258.598 210.377L258.598 221.937L345 202.71L345 185.542Z" fill="#020726"/>
<path d="M259.03 241.13L172.629 221.903L172.629 233.462L249.814 249.714L172.629 265.965L172.629 277.524L259.03 258.297L259.03 241.13Z" fill="#020726"/>
<path d="M345 296.606L258.598 277.379L258.598 288.938L335.784 305.189L258.598 321.441L258.598 333L345 313.773L345 296.606Z" fill="#020726"/>
<path d="M345 130.179L258.598 110.952L258.598 122.511L335.784 138.763L258.598 155.014L258.598 166.573L345 147.346L345 130.179Z" fill="#020726"/>
<path d="M259.03 74.7036L172.629 55.4766L172.629 67.0357L249.814 83.2871L172.629 99.5386L172.629 111.098L259.03 91.8706L259.03 74.7036Z" fill="#020726"/>
<path d="M345 19.2271L258.598 -3.77674e-06L258.598 11.5591L335.784 27.8106L258.598 44.062L258.598 55.6211L345 36.3941L345 19.2271Z" fill="#020726"/>
</svg>
