<svg width="686" height="2574" viewBox="0 0 686 2574" fill="none" xmlns="http://www.w3.org/2000/svg">
<path d="M420.166 2479.95L479.115 2493.61L479.162 2485.65L426.489 2474.09L479.272 2463.27L479.311 2455.32L420.224 2468.13L420.166 2479.95Z" fill="#020726" fill-opacity="0.2"/>
<path d="M409.668 2445.8L449.608 2400.33L454.285 2406.77L418.223 2446.88L467.412 2424.89L472.08 2431.33L416.601 2455.37L409.668 2445.8Z" fill="#020726"/>
<path d="M342.005 2467.71L283.028 2454.42V2462.4L335.714 2473.63L283.028 2484.85V2492.84L342.005 2479.56V2467.71Z" fill="#020726"/>
<path d="M409.668 2445.8L449.608 2400.33L454.285 2406.77L418.223 2446.88L467.412 2424.89L472.08 2431.33L416.601 2455.37L409.668 2445.8Z" fill="#020726"/>
<path d="M387.866 2434.44L393.526 2374.1L401.072 2376.56L395.411 2430.27L422.32 2383.48L429.866 2385.94L399.085 2438.09L387.866 2434.44Z" fill="#020726" fill-opacity="0.2"/>
<path d="M346.049 2492.44L290.575 2516.54L295.244 2523L344.426 2500.95L308.365 2541.16L313.029 2547.62L352.982 2502.03L346.049 2492.44Z" fill="#020726" fill-opacity="0.2"/>
<path d="M363.565 2438.09L332.777 2385.94L340.323 2383.48L367.225 2430.27L361.563 2376.56L369.122 2374.1L374.784 2434.44L363.565 2438.09Z" fill="#020726"/>
<path d="M363.566 2509.76L332.777 2562.04L340.323 2564.51L367.225 2517.61L361.563 2571.45L369.109 2573.91L374.771 2513.43L363.566 2509.76Z" fill="#020726"/>
<path d="M346.049 2455.57L290.575 2431.47L295.244 2425.01L344.426 2447.06L308.365 2406.85L313.029 2400.39L352.982 2445.98L346.049 2455.57Z" fill="#020726" fill-opacity="0.2"/>
<path d="M387.866 2513.43L393.526 2573.91L401.072 2571.45L395.411 2517.61L422.312 2564.51L429.859 2562.04L399.085 2509.76L387.866 2513.43Z" fill="#020726" fill-opacity="0.2"/>
<path d="M409.668 2502.03L449.608 2547.62L454.285 2541.16L418.223 2500.95L467.412 2523L472.08 2516.54L416.601 2492.44L409.668 2502.03Z" fill="#020726"/>
<path d="M420.542 2129.43L479.491 2143.09L479.538 2135.13L426.865 2123.57L479.648 2112.75L479.687 2104.8L420.6 2117.61L420.542 2129.43Z" fill="#020726" fill-opacity="0.2"/>
<path d="M277.791 2128.39L219.085 2142.84L218.905 2134.88L271.362 2122.61L218.391 2112.51L218.208 2104.56L277.522 2116.57L277.791 2128.39Z" fill="#020726"/>
<path d="M410.044 2095.28L449.984 2049.81L454.661 2056.25L418.599 2096.36L467.788 2074.37L472.455 2080.81L416.977 2104.85L410.044 2095.28Z" fill="#020726"/>
<path d="M342.381 2117.19L283.404 2103.9V2111.88L336.09 2123.11L283.404 2134.33V2142.32L342.381 2129.04V2117.19Z" fill="#020726" fill-opacity="0.2"/>
<path d="M410.044 2095.28L449.984 2049.81L454.661 2056.25L418.599 2096.36L467.788 2074.37L472.455 2080.81L416.977 2104.85L410.044 2095.28Z" fill="#020726"/>
<path d="M388.242 2083.92L393.902 2023.58L401.448 2026.04L395.787 2079.75L422.696 2032.96L430.242 2035.42L399.46 2087.57L388.242 2083.92Z" fill="#020726" fill-opacity="0.2"/>
<path d="M346.425 2141.92L290.951 2166.02L295.62 2172.48L344.802 2150.43L308.741 2190.64L313.405 2197.1L353.358 2151.51L346.425 2141.92Z" fill="#020726"/>
<path d="M363.941 2087.57L333.153 2035.42L340.699 2032.96L367.6 2079.75L361.939 2026.04L369.498 2023.58L375.16 2083.92L363.941 2087.57Z" fill="#020726"/>
<path d="M363.941 2159.24L333.153 2211.52L340.699 2213.99L367.6 2167.09L361.939 2220.93L369.485 2223.39L375.147 2162.91L363.941 2159.24Z" fill="#020726" fill-opacity="0.2"/>
<path d="M346.425 2105.05L290.951 2080.95L295.62 2074.49L344.802 2096.54L308.741 2056.33L313.405 2049.87L353.358 2095.46L346.425 2105.05Z" fill="#020726" fill-opacity="0.2"/>
<path d="M388.242 2162.91L393.902 2223.39L401.448 2220.93L395.787 2167.09L422.688 2213.99L430.235 2211.52L399.46 2159.24L388.242 2162.91Z" fill="#020726"/>
<path d="M420.542 1778.91L479.491 1792.57L479.538 1784.61L426.865 1773.05L479.648 1762.23L479.687 1754.28L420.6 1767.09L420.542 1778.91Z" fill="#020726"/>
<path d="M277.791 1777.87L219.085 1792.32L218.905 1784.36L271.362 1772.09L218.391 1761.99L218.208 1754.04L277.522 1766.05L277.791 1777.87Z" fill="#020726" fill-opacity="0.2"/>
<path d="M486.386 1766.82L545.363 1753.57V1761.53L492.677 1772.72L545.363 1783.92V1791.89L486.386 1778.64V1766.82Z" fill="#020726" fill-opacity="0.2"/>
<path d="M212.698 1766.82L153.721 1753.56V1761.53L206.407 1772.72L153.721 1783.92V1791.89L212.698 1778.64V1766.82Z" fill="#020726"/>
<path d="M342.381 1766.67L283.404 1753.38V1761.36L336.09 1772.59L283.404 1783.81V1791.8L342.381 1778.52V1766.67Z" fill="#020726"/>
<path d="M410.044 1744.76L449.984 1699.29L454.661 1705.73L418.599 1745.84L467.788 1723.85L472.455 1730.29L416.977 1754.33L410.044 1744.76Z" fill="#020726" fill-opacity="0.2"/>
<path d="M388.242 1733.4L393.902 1673.06L401.448 1675.52L395.787 1729.23L422.696 1682.44L430.242 1684.9L399.46 1737.06L388.242 1733.4Z" fill="#020726"/>
<path d="M346.425 1791.4L290.951 1815.5L295.62 1821.96L344.802 1799.91L308.741 1840.13L313.405 1846.58L353.358 1800.99L346.425 1791.4Z" fill="#020726" fill-opacity="0.2"/>
<path d="M363.941 1737.05L333.153 1684.9L340.699 1682.44L367.6 1729.23L361.939 1675.52L369.498 1673.06L375.16 1733.4L363.941 1737.05Z" fill="#020726" fill-opacity="0.2"/>
<path d="M363.941 1808.72L333.153 1861L340.699 1863.47L367.6 1816.57L361.939 1870.41L369.485 1872.87L375.147 1812.39L363.941 1808.72Z" fill="#020726"/>
<path d="M148.856 1417.04L90.1437 1402.61L89.9669 1410.57L142.429 1422.82L89.4621 1432.94L89.282 1440.89L148.592 1428.86L148.856 1417.04Z" fill="#020726"/>
<path d="M421.294 1428.39L480.242 1442.05L480.29 1434.09L427.617 1422.53L480.4 1411.71L480.438 1403.76L421.352 1416.58L421.294 1428.39Z" fill="#020726" fill-opacity="0.2"/>
<path d="M278.543 1427.35L219.836 1441.8L219.656 1433.84L272.114 1421.57L219.143 1411.47L218.959 1403.52L278.274 1415.53L278.543 1427.35Z" fill="#020726"/>
<path d="M487.138 1416.3L546.115 1403.05V1411.01L493.429 1422.2L546.115 1433.4V1441.37L487.138 1428.12V1416.3Z" fill="#020726"/>
<path d="M551.416 1416.27L610.393 1403.02V1410.99L557.707 1422.18L610.393 1433.38V1441.34L551.416 1428.09V1416.27Z" fill="#020726" fill-opacity="0.2"/>
<path d="M213.45 1416.3L154.473 1403.04V1411.01L207.159 1422.2L154.473 1433.4V1441.37L213.45 1428.12V1416.3Z" fill="#020726" fill-opacity="0.2"/>
<path d="M410.796 1394.24L450.736 1348.77L455.413 1355.21L419.351 1395.32L468.54 1373.33L473.207 1379.77L417.729 1403.81L410.796 1394.24Z" fill="#020726"/>
<path d="M343.133 1416.15L284.156 1402.86V1410.85L336.842 1422.07L284.156 1433.29V1441.28L343.133 1428V1416.15Z" fill="#020726" fill-opacity="0.2"/>
<path d="M410.796 1394.24L450.736 1348.77L455.413 1355.21L419.351 1395.32L468.54 1373.33L473.207 1379.77L417.729 1403.81L410.796 1394.24Z" fill="#020726"/>
<path d="M388.994 1382.88L394.654 1322.54L402.2 1325L396.538 1378.71L423.447 1331.92L430.994 1334.38L400.212 1386.54L388.994 1382.88Z" fill="#020726" fill-opacity="0.2"/>
<path d="M347.177 1440.88L291.702 1464.98L296.372 1471.44L345.553 1449.39L309.493 1489.61L314.157 1496.06L354.11 1450.47L347.177 1440.88Z" fill="#020726"/>
<path d="M145.097 1066.52L86.3848 1052.09L86.208 1060.05L138.67 1072.3L85.7032 1082.42L85.5231 1090.37L144.833 1078.34L145.097 1066.52Z" fill="#020726" fill-opacity="0.2"/>
<path d="M80.4432 1066.52L21.7312 1052.09L21.5544 1060.05L74.0167 1072.3L21.0496 1082.42L20.8695 1090.37L80.179 1078.34L80.4432 1066.52Z" fill="#020726"/>
<path d="M424.301 1077.87L483.249 1091.53L483.297 1083.57L430.624 1072.01L483.407 1061.19L483.446 1053.24L424.359 1066.06L424.301 1077.87Z" fill="#020726"/>
<path d="M275.535 1076.83L216.829 1091.28L216.649 1083.32L269.107 1071.05L216.135 1060.95L215.952 1053L275.266 1065.01L275.535 1076.83Z" fill="#020726" fill-opacity="0.2"/>
<path d="M484.131 1065.78L543.108 1052.53V1060.49L490.422 1071.68L543.108 1082.88V1090.85L484.131 1077.6V1065.78Z" fill="#020726" fill-opacity="0.2"/>
<path d="M548.409 1065.75L607.386 1052.5V1060.47L554.7 1071.66L607.386 1082.86V1090.82L548.409 1077.57V1065.75Z" fill="#020726"/>
<path d="M210.443 1065.78L151.466 1052.52V1060.49L204.152 1071.68L151.466 1082.88V1090.85L210.443 1077.6V1065.78Z" fill="#020726"/>
<path d="M413.803 1043.72L453.743 998.246L458.42 1004.69L422.358 1044.8L471.547 1022.81L476.214 1029.25L420.736 1053.29L413.803 1043.72Z" fill="#020726" fill-opacity="0.2"/>
<path d="M340.126 1065.63L281.149 1052.34V1060.33L333.835 1071.55L281.149 1082.77V1090.76L340.126 1077.48V1065.63Z" fill="#020726"/>
<path d="M148.48 716.376L89.7678 701.951L89.591 709.908L142.053 722.156L89.0862 732.277L88.9061 740.229L148.216 728.193L148.48 716.376Z" fill="#020726"/>
<path d="M83.8262 716.376L25.1142 701.951L24.9374 709.908L77.3997 722.156L24.4326 732.277L24.2525 740.229L83.5621 728.193L83.8262 716.376Z" fill="#020726" fill-opacity="0.2"/>
<path d="M427.684 727.731L486.632 741.39L486.68 733.428L434.007 721.866L486.79 711.05L486.829 703.093L427.742 715.912L427.684 727.731Z" fill="#020726" fill-opacity="0.2"/>
<path d="M278.167 726.687L219.46 741.136L219.28 733.18L271.738 720.91L218.767 710.811L218.583 702.859L277.898 714.871L278.167 726.687Z" fill="#020726"/>
<path d="M493.528 715.635L552.505 702.387V710.351L499.819 721.541L552.505 732.739V740.703L493.528 727.456V715.635Z" fill="#020726"/>
<path d="M557.806 715.608L616.783 702.36V710.324L564.097 721.514L616.783 732.712V740.676L557.806 727.43V715.608Z" fill="#020726" fill-opacity="0.2"/>
<path d="M213.074 715.635L154.097 702.38V710.344L206.783 721.541L154.097 732.739V740.703L213.074 727.456V715.635Z" fill="#020726" fill-opacity="0.2"/>
<path d="M83.8262 365.856L25.1142 351.431L24.9374 359.388L77.3997 371.636L24.4326 381.757L24.2525 389.709L83.5621 377.673L83.8262 365.856Z" fill="#020726"/>
<path d="M437.457 377.212L496.406 390.87L496.453 382.909L443.78 371.346L496.563 360.531L496.602 352.573L437.515 365.392L437.457 377.212Z" fill="#020726" fill-opacity="0.2"/>
<path d="M213.513 376.168L154.807 390.617L154.627 382.66L207.084 370.391L154.113 360.291L153.93 352.339L213.244 364.351L213.513 376.168Z" fill="#020726"/>
<path d="M503.301 365.115L562.278 351.867V359.831L509.592 371.021L562.278 382.219V390.183L503.301 376.936V365.115Z" fill="#020726"/>
<path d="M148.42 365.115L89.4433 351.86V359.824L142.129 371.021L89.4433 382.219V390.183L148.42 376.936V365.115Z" fill="#020726" fill-opacity="0.2"/>
<path d="M560.75 26.6918L619.699 40.3505L619.746 32.3891L567.073 20.8266L619.856 10.0111L619.895 2.05347L560.808 14.8724L560.75 26.6918Z" fill="#020726"/>
<path d="M626.594 14.5956L685.571 1.34752V9.31149L632.885 20.5016L685.571 31.6992V39.6632L626.594 26.4169V14.5956Z" fill="#020726" fill-opacity="0.2"/>
<path d="M60.145 15.337L1.43298 0.911621L1.2562 8.86842L53.7185 21.1167L0.751354 31.2377L0.571289 39.1897L59.8808 27.1536L60.145 15.337Z" fill="#020726"/>
<path d="M188.704 25.648L129.998 40.097L129.818 32.1402L182.275 19.8709L129.304 9.77111L129.121 1.81921L188.435 13.8315L188.704 25.648Z" fill="#020726"/>
<path d="M123.611 14.5956L64.6343 1.34018V9.30414L117.32 20.5017L64.6343 31.6992V39.6632L123.611 26.417V14.5956Z" fill="#020726" fill-opacity="0.2"/>
</svg>
