<svg width="685" height="999" viewBox="0 0 685 999" fill="none" xmlns="http://www.w3.org/2000/svg">
<path d="M419.633 904.62L478.607 918.286L478.654 910.32L425.959 898.751L478.764 887.93L478.803 879.968L419.692 892.794L419.633 904.62Z" fill="#020726"/>
<path d="M341.44 892.368L282.438 879.073V887.061L335.146 898.292L282.438 909.522V917.51L341.44 904.224V892.368Z" fill="#020726" fill-opacity="0.2"/>
<path d="M409.131 870.451L449.088 824.947L453.767 831.392L417.69 871.529L466.899 849.521L471.569 855.968L416.067 880.026L409.131 870.451Z" fill="#020726" fill-opacity="0.2"/>
<path d="M387.32 859.079L392.982 798.706L400.532 801.168L394.868 854.906L421.788 808.093L429.337 810.555L398.543 862.738L387.32 859.079Z" fill="#020726"/>
<path d="M345.486 917.113L289.988 941.229L294.66 947.691L343.862 925.63L307.786 965.864L312.452 972.325L352.422 926.711L345.486 917.113Z" fill="#020726"/>
<path d="M363.009 862.736L332.207 810.555L339.757 808.093L366.67 854.906L361.006 801.168L368.568 798.706L374.232 859.079L363.009 862.736Z" fill="#020726" fill-opacity="0.2"/>
<path d="M363.009 934.445L332.207 986.753L339.757 989.22L366.67 942.294L361.006 996.162L368.555 998.629L374.219 938.11L363.009 934.445Z" fill="#020726" fill-opacity="0.2"/>
<path d="M345.486 880.223L289.988 856.106L294.66 849.644L343.862 871.706L307.786 831.472L312.452 825.011L352.422 870.625L345.486 880.223Z" fill="#020726"/>
<path d="M387.321 938.11L392.983 998.629L400.532 996.162L394.868 942.294L421.781 989.22L429.33 986.752L398.543 934.443L387.321 938.11Z" fill="#020726"/>
<path d="M409.131 926.711L449.088 972.325L453.767 965.864L417.69 925.63L466.899 947.692L471.569 941.229L416.067 917.113L409.131 926.711Z" fill="#020726" fill-opacity="0.2"/>
<path d="M417.146 514.102L471.363 541.043L473.25 533.304L424.656 509.856L478.531 511.546L480.408 503.809L419.935 502.61L417.146 514.102Z" fill="#020726"/>
<path d="M414.824 478.429L464.212 443.404L467.275 450.757L422.901 481.459L475.862 471.433L478.916 478.785L419.359 489.35L414.824 478.429Z" fill="#020726" fill-opacity="0.2"/>
<path d="M343.902 484.09L289.572 457.503L287.726 465.274L336.41 488.396L282.536 487.127L280.69 494.898L341.163 495.625L343.902 484.09Z" fill="#020726" fill-opacity="0.2"/>
<path d="M396.231 462.319L415.691 404.892L422.467 409.034L404.539 460.005L441.547 420.69L448.323 424.832L406.305 468.475L396.231 462.319Z" fill="#020726"/>
<path d="M342.121 509.1L282.554 519.722L285.606 527.09L338.573 517.011L294.178 547.808L297.224 555.173L346.651 520.043L342.121 509.1Z" fill="#020726"/>
<path d="M371.735 460.251L353.825 402.357L361.739 401.709L377.105 453.481L384.012 399.889L391.938 399.243L383.498 459.291L371.735 460.251Z" fill="#020726" fill-opacity="0.2"/>
<path d="M355.164 530.017L313.11 573.78L319.885 577.928L356.912 538.5L338.954 589.598L345.729 593.745L365.224 536.177L355.164 530.017Z" fill="#020726" fill-opacity="0.2"/>
<path d="M350.645 473.21L302.224 436.906L308.263 431.699L351.033 464.548L325.233 417.057L331.265 411.851L359.611 465.477L350.645 473.21Z" fill="#020726"/>
<path d="M377.97 539.208L369.494 599.397L377.41 598.744L384.347 545.025L399.687 596.907L407.602 596.253L389.736 538.237L377.97 539.208Z" fill="#020726"/>
<path d="M401.823 533.165L430.157 586.788L436.202 581.585L410.4 534.093L453.178 566.943L459.214 561.736L410.79 525.431L401.823 533.165Z" fill="#020726" fill-opacity="0.2"/>
<path d="M419.633 105.913L478.607 119.579L478.654 111.614L425.959 100.045L478.764 89.2233L478.803 81.2613L419.692 94.0873L419.633 105.913Z" fill="#020726" fill-opacity="0.2"/>
<path d="M409.131 71.7446L449.088 26.2411L453.767 32.6859L417.69 72.8231L466.899 50.8146L471.569 57.2613L416.067 81.3196L409.131 71.7446Z" fill="#020726"/>
<path d="M341.44 93.6615L282.438 80.3666V88.3543L335.146 99.5852L282.438 110.816V118.804L341.44 105.518V93.6615Z" fill="#020726"/>
<path d="M409.131 71.7446L449.088 26.2411L453.767 32.6859L417.69 72.8231L466.899 50.8146L471.569 57.2613L416.067 81.3196L409.131 71.7446Z" fill="#020726"/>
<path d="M387.32 60.3729L392.982 0L400.532 2.4616L394.868 56.1994L421.788 9.38658L429.337 11.8482L398.543 64.0311L387.32 60.3729Z" fill="#020726" fill-opacity="0.2"/>
<path d="M345.486 118.406L289.988 142.523L294.66 148.985L343.862 126.923L307.786 167.158L312.452 173.618L352.422 128.004L345.486 118.406Z" fill="#020726" fill-opacity="0.2"/>
<path d="M363.009 64.0293L332.207 11.8482L339.757 9.38658L366.67 56.1994L361.006 2.4616L368.568 0L374.232 60.3729L363.009 64.0293Z" fill="#020726"/>
<path d="M363.009 135.739L332.207 188.046L339.757 190.514L366.67 143.587L361.006 197.456L368.555 199.923L374.219 139.404L363.009 135.739Z" fill="#020726"/>
<path d="M345.486 81.5167L289.988 57.4001L294.66 50.9378L343.862 72.9996L307.786 32.7651L312.452 26.3047L352.422 71.9186L345.486 81.5167Z" fill="#020726" fill-opacity="0.2"/>
<path d="M387.321 139.404L392.983 199.923L400.532 197.455L394.868 143.587L421.781 190.514L429.33 188.046L398.543 135.737L387.321 139.404Z" fill="#020726" fill-opacity="0.2"/>
<path d="M409.131 128.004L449.088 173.618L453.767 167.158L417.69 126.923L466.899 148.985L471.569 142.523L416.067 118.406L409.131 128.004Z" fill="#020726"/>
</svg>
