<svg width="577" height="2604" viewBox="0 0 577 2604" fill="none" xmlns="http://www.w3.org/2000/svg">
<path d="M353.398 2525.01L402.967 2536.48L403.007 2529.79L358.715 2520.08L403.099 2511L403.132 2504.31L353.447 2515.08L353.398 2525.01Z" fill="#020726" fill-opacity="0.2"/>
<path d="M344.571 2496.33L378.156 2458.13L382.088 2463.54L351.765 2497.23L393.126 2478.76L397.051 2484.17L350.401 2504.36L344.571 2496.33Z" fill="#020726"/>
<path d="M287.675 2514.72L238.082 2503.56V2510.27L282.385 2519.69L238.082 2529.12V2535.83L287.675 2524.67V2514.72Z" fill="#020726"/>
<path d="M344.571 2496.33L378.156 2458.13L382.088 2463.54L351.765 2497.23L393.126 2478.76L397.051 2484.17L350.401 2504.36L344.571 2496.33Z" fill="#020726"/>
<path d="M326.238 2486.78L330.997 2436.11L337.343 2438.17L332.582 2483.28L355.209 2443.99L361.555 2446.05L335.671 2489.85L326.238 2486.78Z" fill="#020726" fill-opacity="0.2"/>
<path d="M291.075 2535.49L244.428 2555.73L248.355 2561.16L289.71 2542.64L259.388 2576.41L263.31 2581.83L296.905 2543.55L291.075 2535.49Z" fill="#020726" fill-opacity="0.2"/>
<path d="M305.804 2489.85L279.915 2446.05L286.26 2443.99L308.881 2483.28L304.12 2438.17L310.477 2436.11L315.237 2486.78L305.804 2489.85Z" fill="#020726"/>
<path d="M305.804 2550.04L279.915 2593.94L286.26 2596.01L308.881 2556.63L304.121 2601.84L310.466 2603.91L315.227 2553.12L305.804 2550.04Z" fill="#020726"/>
<path d="M291.075 2504.53L244.428 2484.29L248.355 2478.86L289.71 2497.38L259.388 2463.61L263.31 2458.19L296.905 2496.47L291.075 2504.53Z" fill="#020726" fill-opacity="0.2"/>
<path d="M326.238 2553.12L330.997 2603.91L337.343 2601.84L332.582 2556.63L355.203 2596.01L361.549 2593.94L335.671 2550.04L326.238 2553.12Z" fill="#020726" fill-opacity="0.2"/>
<path d="M344.571 2543.55L378.156 2581.83L382.088 2576.41L351.765 2542.64L393.126 2561.16L397.051 2555.73L350.401 2535.49L344.571 2543.55Z" fill="#020726"/>
<path d="M353.714 2167.47L403.283 2178.94L403.323 2172.25L359.031 2162.54L403.415 2153.46L403.448 2146.78L353.763 2157.54L353.714 2167.47Z" fill="#020726" fill-opacity="0.2"/>
<path d="M233.678 2166.59L184.314 2178.73L184.162 2172.04L228.273 2161.74L183.73 2153.26L183.576 2146.58L233.452 2156.67L233.678 2166.59Z" fill="#020726"/>
<path d="M344.887 2138.79L378.472 2100.6L382.404 2106.01L352.081 2139.69L393.442 2121.22L397.367 2126.63L350.717 2146.83L344.887 2138.79Z" fill="#020726"/>
<path d="M287.991 2157.19L238.399 2146.03V2152.73L282.701 2162.16L238.399 2171.58V2178.29L287.991 2167.14V2157.19Z" fill="#020726" fill-opacity="0.2"/>
<path d="M344.887 2138.79L378.472 2100.6L382.404 2106.01L352.081 2139.69L393.442 2121.22L397.367 2126.63L350.717 2146.83L344.887 2138.79Z" fill="#020726"/>
<path d="M326.554 2129.24L331.314 2078.57L337.659 2080.64L332.898 2125.74L355.525 2086.45L361.871 2088.52L335.988 2132.32L326.554 2129.24Z" fill="#020726" fill-opacity="0.2"/>
<path d="M291.391 2177.95L244.744 2198.2L248.671 2203.62L290.026 2185.1L259.704 2218.87L263.626 2224.3L297.221 2186.01L291.391 2177.95Z" fill="#020726"/>
<path d="M306.12 2132.31L280.231 2088.52L286.576 2086.45L309.197 2125.74L304.437 2080.64L310.793 2078.57L315.554 2129.24L306.12 2132.31Z" fill="#020726"/>
<path d="M306.12 2192.5L280.231 2236.41L286.576 2238.48L309.197 2199.09L304.437 2244.3L310.782 2246.38L315.543 2195.58L306.12 2192.5Z" fill="#020726" fill-opacity="0.2"/>
<path d="M291.391 2146.99L244.744 2126.75L248.671 2121.33L290.026 2139.84L259.704 2106.07L263.626 2100.65L297.221 2138.94L291.391 2146.99Z" fill="#020726" fill-opacity="0.2"/>
<path d="M326.554 2195.58L331.314 2246.38L337.659 2244.3L332.898 2199.09L355.519 2238.48L361.865 2236.41L335.988 2192.5L326.554 2195.58Z" fill="#020726"/>
<path d="M353.714 1809.93L403.283 1821.4L403.323 1814.72L359.031 1805.01L403.415 1795.92L403.448 1789.24L353.763 1800.01L353.714 1809.93Z" fill="#020726"/>
<path d="M233.678 1809.06L184.314 1821.19L184.162 1814.51L228.273 1804.2L183.73 1795.72L183.576 1789.04L233.452 1799.13L233.678 1809.06Z" fill="#020726" fill-opacity="0.2"/>
<path d="M409.081 1799.77L458.674 1788.65V1795.34L414.371 1804.73L458.674 1814.14V1820.83L409.081 1809.7V1799.77Z" fill="#020726" fill-opacity="0.2"/>
<path d="M178.944 1799.77L129.351 1788.64V1795.33L173.654 1804.73L129.351 1814.14V1820.83L178.944 1809.7V1799.77Z" fill="#020726"/>
<path d="M287.991 1799.65L238.399 1788.49V1795.19L282.701 1804.62L238.399 1814.05V1820.75L287.991 1809.6V1799.65Z" fill="#020726"/>
<path d="M344.887 1781.25L378.472 1743.06L382.404 1748.47L352.081 1782.16L393.442 1763.69L397.367 1769.1L350.717 1789.29L344.887 1781.25Z" fill="#020726" fill-opacity="0.2"/>
<path d="M326.554 1771.71L331.314 1721.03L337.659 1723.1L332.898 1768.2L355.525 1728.91L361.871 1730.98L335.988 1774.78L326.554 1771.71Z" fill="#020726"/>
<path d="M291.391 1820.42L244.744 1840.66L248.671 1846.08L290.026 1827.57L259.704 1861.34L263.626 1866.76L297.221 1828.47L291.391 1820.42Z" fill="#020726" fill-opacity="0.2"/>
<path d="M306.12 1774.78L280.231 1730.98L286.576 1728.91L309.197 1768.2L304.437 1723.1L310.793 1721.03L315.554 1771.71L306.12 1774.78Z" fill="#020726" fill-opacity="0.2"/>
<path d="M306.12 1834.97L280.231 1878.87L286.576 1880.94L309.197 1841.55L304.437 1886.77L310.782 1888.84L315.543 1838.04L306.12 1834.97Z" fill="#020726"/>
<path d="M125.26 1442.86L75.8906 1430.74L75.7419 1437.43L119.856 1447.71L75.3174 1456.21L75.166 1462.89L125.038 1452.78L125.26 1442.86Z" fill="#020726"/>
<path d="M354.347 1452.39L403.915 1463.87L403.955 1457.18L359.664 1447.47L404.047 1438.39L404.08 1431.7L354.396 1442.47L354.347 1452.39Z" fill="#020726" fill-opacity="0.2"/>
<path d="M234.311 1451.52L184.946 1463.65L184.795 1456.97L228.905 1446.67L184.363 1438.18L184.208 1431.51L234.085 1441.59L234.311 1451.52Z" fill="#020726"/>
<path d="M409.714 1442.24L459.306 1431.11V1437.8L415.003 1447.2L459.306 1456.6V1463.29L409.714 1452.16V1442.24Z" fill="#020726"/>
<path d="M463.763 1442.21L513.355 1431.09V1437.78L469.053 1447.17L513.355 1456.58V1463.27L463.763 1452.14V1442.21Z" fill="#020726" fill-opacity="0.2"/>
<path d="M179.576 1442.24L129.983 1431.1V1437.79L174.286 1447.2L129.983 1456.6V1463.29L179.576 1452.16V1442.24Z" fill="#020726" fill-opacity="0.2"/>
<path d="M345.519 1423.72L379.104 1385.52L383.036 1390.93L352.713 1424.62L394.075 1406.15L397.999 1411.56L351.349 1431.75L345.519 1423.72Z" fill="#020726"/>
<path d="M288.623 1442.11L239.031 1430.95V1437.66L283.333 1447.08L239.031 1456.51V1463.21L288.623 1452.06V1442.11Z" fill="#020726" fill-opacity="0.2"/>
<path d="M345.519 1423.72L379.104 1385.52L383.036 1390.93L352.713 1424.62L394.075 1406.15L397.999 1411.56L351.349 1431.75L345.519 1423.72Z" fill="#020726"/>
<path d="M327.187 1414.17L331.946 1363.5L338.291 1365.56L333.53 1410.67L356.158 1371.38L362.503 1373.44L336.62 1417.24L327.187 1414.17Z" fill="#020726" fill-opacity="0.2"/>
<path d="M292.023 1462.88L245.376 1483.12L249.303 1488.55L290.658 1470.03L260.336 1503.8L264.258 1509.22L297.854 1470.94L292.023 1462.88Z" fill="#020726"/>
<path d="M122.099 1085.32L72.7298 1073.21L72.5811 1079.89L116.695 1090.18L72.1566 1098.68L72.0052 1105.35L121.877 1095.25L122.099 1085.32Z" fill="#020726" fill-opacity="0.2"/>
<path d="M67.7336 1085.32L18.3641 1073.21L18.2155 1079.89L62.3298 1090.18L17.791 1098.68L17.6396 1105.35L67.5115 1095.25L67.7336 1085.32Z" fill="#020726"/>
<path d="M356.875 1094.86L406.444 1106.33L406.484 1099.64L362.192 1089.93L406.576 1080.85L406.609 1074.17L356.924 1084.93L356.875 1094.86Z" fill="#020726"/>
<path d="M231.782 1093.98L182.417 1106.12L182.266 1099.43L226.376 1089.13L181.834 1080.65L181.68 1073.97L231.556 1084.06L231.782 1093.98Z" fill="#020726" fill-opacity="0.2"/>
<path d="M407.185 1084.7L456.777 1073.57V1080.26L412.475 1089.66L456.777 1099.06V1105.75L407.185 1094.63V1084.7Z" fill="#020726" fill-opacity="0.2"/>
<path d="M461.234 1084.68L510.827 1073.55V1080.24L466.524 1089.64L510.827 1099.04V1105.73L461.234 1094.6V1084.68Z" fill="#020726"/>
<path d="M177.047 1084.7L127.455 1073.57V1080.26L171.757 1089.66L127.455 1099.06V1105.75L177.047 1094.63V1084.7Z" fill="#020726"/>
<path d="M348.048 1066.18L381.632 1027.99L385.565 1033.39L355.241 1067.08L396.603 1048.61L400.528 1054.02L353.878 1074.22L348.048 1066.18Z" fill="#020726" fill-opacity="0.2"/>
<path d="M286.094 1084.57L236.502 1073.42V1080.12L280.804 1089.55L236.502 1098.97V1105.68L286.094 1094.53V1084.57Z" fill="#020726"/>
<path d="M124.944 728.1L75.5745 715.986L75.4258 722.668L119.54 732.954L75.0013 741.454L74.8499 748.132L124.722 738.024L124.944 728.1Z" fill="#020726"/>
<path d="M70.5783 728.1L21.2089 715.986L21.0602 722.668L65.1745 732.954L20.6357 741.454L20.4843 748.132L70.3562 738.024L70.5783 728.1Z" fill="#020726" fill-opacity="0.2"/>
<path d="M359.72 737.636L409.288 749.107L409.328 742.421L365.037 732.711L409.421 723.628L409.453 716.945L359.769 727.71L359.72 737.636Z" fill="#020726" fill-opacity="0.2"/>
<path d="M233.994 736.76L184.63 748.894L184.479 742.212L228.589 731.908L184.046 723.426L183.892 716.748L233.768 726.836L233.994 736.76Z" fill="#020726"/>
<path d="M415.087 727.478L464.679 716.352V723.04L420.377 732.438L464.679 741.842V748.53L415.087 737.406V727.478Z" fill="#020726"/>
<path d="M469.136 727.455L518.729 716.33V723.018L474.426 732.415L518.729 741.819V748.507L469.136 737.383V727.455Z" fill="#020726" fill-opacity="0.2"/>
<path d="M179.26 727.478L129.667 716.346V723.034L173.97 732.438L129.667 741.842V748.53L179.26 737.406V727.478Z" fill="#020726" fill-opacity="0.2"/>
<path d="M70.5783 370.563L21.2089 358.449L21.0602 365.131L65.1745 375.417L20.6357 383.917L20.4843 390.595L70.3562 380.487L70.5783 370.563Z" fill="#020726"/>
<path d="M367.938 380.099L417.506 391.57L417.546 384.884L373.255 375.174L417.639 366.091L417.671 359.408L367.987 370.173L367.938 380.099Z" fill="#020726" fill-opacity="0.2"/>
<path d="M179.629 379.223L130.264 391.357L130.113 384.675L174.223 374.371L129.681 365.889L129.527 359.211L179.403 369.299L179.629 379.223Z" fill="#020726"/>
<path d="M423.305 369.941L472.897 358.815V365.503L428.595 374.901L472.897 384.305V390.993L423.305 379.868V369.941Z" fill="#020726"/>
<path d="M124.894 369.941L75.3016 358.809V365.497L119.604 374.901L75.3016 384.305V390.993L124.894 379.868V369.941Z" fill="#020726" fill-opacity="0.2"/>
<path d="M471.612 22.5624L521.181 34.0331L521.22 27.347L476.929 17.6368L521.313 8.55385L521.345 1.87104L471.661 12.6364L471.612 22.5624Z" fill="#020726"/>
<path d="M526.979 12.404L576.571 1.27818V7.96635L532.269 17.3639L576.571 26.7676V33.4558L526.979 22.3316V12.404Z" fill="#020726" fill-opacity="0.2"/>
<path d="M50.6653 13.0266L1.29586 0.912109L1.14721 7.59426L45.2615 17.8805L0.722702 26.3801L0.571289 33.0582L50.4432 22.9502L50.6653 13.0266Z" fill="#020726"/>
<path d="M158.768 21.6859L109.403 33.8201L109.252 27.138L153.362 16.8342L108.82 8.35235L108.666 1.6743L158.542 11.7623L158.768 21.6859Z" fill="#020726"/>
<path d="M104.033 12.404L54.4404 1.27201V7.96018L98.7428 17.3639L54.4404 26.7677V33.4558L104.033 22.3316V12.404Z" fill="#020726" fill-opacity="0.2"/>
</svg>
