<svg width="576" height="1006" viewBox="0 0 576 1006" fill="none" xmlns="http://www.w3.org/2000/svg">
<g clip-path="url(#clip0_939_3273)">
<path d="M352.86 926.725L402.449 938.204L402.489 931.513L358.179 921.795L402.581 912.706L402.614 906.018L352.909 916.791L352.86 926.725Z" fill="#020726"/>
<path d="M287.109 916.434L237.496 905.267V911.976L281.817 921.41L237.496 930.843V937.552L287.109 926.393V916.434Z" fill="#020726" fill-opacity="0.2"/>
<path d="M344.029 898.025L377.627 859.804L381.562 865.217L351.225 898.93L392.604 880.444L396.531 885.859L349.861 906.067L344.029 898.025Z" fill="#020726" fill-opacity="0.2"/>
<path d="M325.688 888.473L330.449 837.762L336.798 839.83L332.035 884.967L354.672 845.647L361.02 847.714L335.125 891.546L325.688 888.473Z" fill="#020726"/>
<path d="M290.511 937.218L243.844 957.475L247.772 962.903L289.145 944.372L258.81 978.167L262.734 983.594L296.343 945.28L290.511 937.218Z" fill="#020726"/>
<path d="M305.246 891.544L279.345 847.714L285.693 845.647L308.324 884.967L303.561 839.83L309.92 837.762L314.683 888.473L305.246 891.544Z" fill="#020726" fill-opacity="0.2"/>
<path d="M305.246 951.777L279.345 995.713L285.693 997.785L308.324 958.369L303.561 1003.62L309.909 1005.69L314.672 954.855L305.246 951.777Z" fill="#020726" fill-opacity="0.2"/>
<path d="M290.511 906.233L243.844 885.976L247.772 880.548L289.145 899.079L258.81 865.284L262.734 859.857L296.343 898.171L290.511 906.233Z" fill="#020726"/>
<path d="M325.689 954.855L330.45 1005.69L336.798 1003.62L332.035 958.369L354.666 997.785L361.014 995.713L335.126 951.775L325.689 954.855Z" fill="#020726"/>
<path d="M344.029 945.28L377.627 983.594L381.562 978.167L351.225 944.372L392.604 962.903L396.531 957.475L349.861 937.218L344.029 945.28Z" fill="#020726" fill-opacity="0.2"/>
<path d="M350.768 515.265L396.358 537.895L397.945 531.394L357.083 511.699L402.385 513.119L403.964 506.62L353.114 505.613L350.768 515.265Z" fill="#020726"/>
<path d="M348.815 485.302L390.345 455.882L392.921 462.058L355.607 487.846L400.142 479.425L402.709 485.601L352.629 494.474L348.815 485.302Z" fill="#020726" fill-opacity="0.2"/>
<path d="M289.179 490.056L243.494 467.724L241.942 474.252L282.88 493.673L237.578 492.607L236.026 499.135L286.876 499.745L289.179 490.056Z" fill="#020726" fill-opacity="0.2"/>
<path d="M333.182 471.77L349.544 423.534L355.242 427.013L340.167 469.826L371.286 436.803L376.984 440.282L341.652 476.941L333.182 471.77Z" fill="#020726"/>
<path d="M287.681 511.064L237.593 519.985L240.159 526.174L284.698 517.708L247.367 543.576L249.929 549.762L291.491 520.255L287.681 511.064Z" fill="#020726"/>
<path d="M312.583 470.033L297.523 421.404L304.178 420.86L317.099 464.346L322.907 419.331L329.572 418.789L322.475 469.226L312.583 470.033Z" fill="#020726" fill-opacity="0.2"/>
<path d="M298.649 528.633L263.287 565.392L268.984 568.876L300.119 535.758L285.018 578.678L290.715 582.162L307.108 533.807L298.649 528.633Z" fill="#020726" fill-opacity="0.2"/>
<path d="M294.849 480.918L254.133 450.424L259.211 446.051L295.176 473.642L273.481 433.752L278.553 429.379L302.389 474.423L294.849 480.918Z" fill="#020726"/>
<path d="M317.826 536.353L310.699 586.91L317.355 586.361L323.188 541.239L336.087 584.818L342.743 584.268L327.72 535.538L317.826 536.353Z" fill="#020726"/>
<path d="M337.884 531.277L361.709 576.318L366.792 571.948L345.096 532.057L381.066 559.649L386.142 555.276L345.423 524.781L337.884 531.277Z" fill="#020726" fill-opacity="0.2"/>
<path d="M352.86 88.9623L402.449 100.441L402.489 93.7504L358.179 84.0331L402.581 74.9435L402.614 68.2559L352.909 79.0291L352.86 88.9623Z" fill="#020726" fill-opacity="0.2"/>
<path d="M344.029 60.2623L377.627 22.0413L381.562 27.4547L351.225 61.1681L392.604 42.682L396.531 48.0969L349.861 68.3048L344.029 60.2623Z" fill="#020726"/>
<path d="M287.109 78.6716L237.496 67.5045V74.2138L281.817 83.6472L237.496 93.0806V99.7899L287.109 88.6306V78.6716Z" fill="#020726"/>
<path d="M344.029 60.2623L377.627 22.0413L381.562 27.4547L351.225 61.1681L392.604 42.682L396.531 48.0969L349.861 68.3048L344.029 60.2623Z" fill="#020726"/>
<path d="M325.688 50.7105L330.449 0L336.798 2.06763L332.035 47.205L354.672 7.88431L361.02 9.95194L335.125 53.7833L325.688 50.7105Z" fill="#020726" fill-opacity="0.2"/>
<path d="M290.511 99.4558L243.844 119.713L247.772 125.141L289.145 106.61L258.81 140.405L262.734 145.831L296.343 107.518L290.511 99.4558Z" fill="#020726" fill-opacity="0.2"/>
<path d="M305.246 53.7817L279.345 9.95194L285.693 7.8843L308.324 47.205L303.561 2.06763L309.92 0L314.683 50.7105L305.246 53.7817Z" fill="#020726"/>
<path d="M305.246 114.014L279.345 157.95L285.693 160.023L308.324 120.607L303.561 165.854L309.909 167.926L314.672 117.093L305.246 114.014Z" fill="#020726"/>
<path d="M290.511 68.4704L243.844 48.2135L247.772 42.7854L289.145 61.3164L258.81 27.5212L262.734 22.0947L296.343 60.4084L290.511 68.4704Z" fill="#020726" fill-opacity="0.2"/>
<path d="M325.689 117.093L330.45 167.926L336.798 165.854L332.035 120.607L354.666 160.023L361.014 157.95L335.126 114.013L325.689 117.093Z" fill="#020726" fill-opacity="0.2"/>
<path d="M344.029 107.518L377.627 145.831L381.562 140.405L351.225 106.61L392.604 125.141L396.531 119.713L349.861 99.4558L344.029 107.518Z" fill="#020726"/>
</g>
<defs>
<clipPath id="clip0_939_3273">
<rect width="576" height="1006" fill="white"/>
</clipPath>
</defs>
</svg>
