<svg width="1380" height="1672" viewBox="0 0 1380 1672" fill="none" xmlns="http://www.w3.org/2000/svg">
<path d="M845.393 1481.99L964.201 1509.5L964.296 1493.46L858.137 1470.17L964.518 1448.39L964.596 1432.36L845.511 1458.18L845.393 1481.99Z" fill="#020726"/>
<path d="M687.865 1457.32L569 1430.56V1446.64L675.186 1469.25L569 1491.86V1507.94L687.865 1481.19V1457.32Z" fill="#020726" fill-opacity="0.2"/>
<path d="M824.235 1413.2L904.732 1321.59L914.158 1334.56L841.477 1415.37L940.615 1371.06L950.022 1384.04L838.209 1432.47L824.235 1413.2Z" fill="#020726" fill-opacity="0.2"/>
<path d="M780.295 1390.3L791.702 1268.76L806.911 1273.71L795.5 1381.9L849.734 1287.66L864.943 1292.61L802.905 1397.67L780.295 1390.3Z" fill="#020726"/>
<path d="M696.015 1507.14L584.21 1555.69L593.621 1568.7L692.744 1524.29L620.066 1605.29L629.466 1618.3L709.989 1526.46L696.015 1507.14Z" fill="#020726"/>
<path d="M731.318 1397.66L669.265 1292.61L684.474 1287.66L738.692 1381.9L727.282 1273.71L742.517 1268.76L753.927 1390.3L731.318 1397.66Z" fill="#020726" fill-opacity="0.2"/>
<path d="M731.318 1542.03L669.265 1647.34L684.474 1652.31L738.692 1557.84L727.282 1666.29L742.491 1671.25L753.901 1549.41L731.318 1542.03Z" fill="#020726" fill-opacity="0.2"/>
<path d="M696.015 1432.87L584.21 1384.32L593.621 1371.31L692.744 1415.72L620.066 1334.72L629.466 1321.72L709.989 1413.55L696.015 1432.87Z" fill="#020726"/>
<path d="M780.296 1549.41L791.703 1671.25L806.912 1666.29L795.501 1557.84L849.72 1652.31L864.929 1647.34L802.906 1542.03L780.296 1549.41Z" fill="#020726"/>
<path d="M824.235 1526.46L904.732 1618.3L914.158 1605.29L841.477 1524.29L940.615 1568.7L950.022 1555.69L838.209 1507.14L824.235 1526.46Z" fill="#020726" fill-opacity="0.2"/>
<path d="M840.381 865.776L949.607 920.016L953.408 904.435L855.512 857.228L964.047 860.631L967.829 845.054L846 842.64L840.381 865.776Z" fill="#020726"/>
<path d="M835.703 793.958L935.201 723.444L941.371 738.247L851.975 800.057L958.672 779.873L964.823 794.675L844.841 815.944L835.703 793.958Z" fill="#020726" fill-opacity="0.2"/>
<path d="M692.825 805.354L583.371 751.828L579.652 767.474L677.732 814.025L569.196 811.469L565.478 827.115L687.306 828.577L692.825 805.354Z" fill="#020726" fill-opacity="0.2"/>
<path d="M798.247 761.524L837.45 645.91L851.101 654.248L814.983 756.865L889.539 677.714L903.19 686.052L818.541 773.917L798.247 761.524Z" fill="#020726"/>
<path d="M689.236 855.706L569.233 877.09L575.381 891.924L682.088 871.632L592.65 933.634L598.788 948.461L698.363 877.737L689.236 855.706Z" fill="#020726"/>
<path d="M748.895 757.361L712.815 640.806L728.758 639.501L759.715 743.73L773.63 635.835L789.598 634.537L772.594 755.427L748.895 757.361Z" fill="#020726" fill-opacity="0.2"/>
<path d="M715.513 897.817L630.791 985.923L644.439 994.273L719.034 914.896L682.856 1017.77L696.504 1026.12L735.778 910.218L715.513 897.817Z" fill="#020726" fill-opacity="0.2"/>
<path d="M706.409 783.451L608.86 710.361L621.024 699.879L707.19 766.012L655.213 670.399L667.366 659.919L724.472 767.882L706.409 783.451Z" fill="#020726"/>
<path d="M761.457 916.322L744.382 1037.5L760.328 1036.18L774.303 928.032L805.207 1032.48L821.153 1031.17L785.161 914.367L761.457 916.322Z" fill="#020726"/>
<path d="M809.513 904.154L866.594 1012.11L878.772 1001.64L826.79 906.023L912.971 972.159L925.132 961.677L827.576 888.585L809.513 904.154Z" fill="#020726" fill-opacity="0.2"/>
<path d="M845.393 213.988L964.201 241.501L964.296 225.464L858.137 202.173L964.518 180.387L964.596 164.357L845.511 190.179L845.393 213.988Z" fill="#020726" fill-opacity="0.2"/>
<path d="M824.235 145.198L904.732 53.5875L914.158 66.5626L841.477 147.369L940.615 103.06L950.022 116.039L838.209 164.475L824.235 145.198Z" fill="#020726"/>
<path d="M687.865 189.322L569 162.556V178.637L675.186 201.248L569 223.859V239.94L687.865 213.192V189.322Z" fill="#020726"/>
<path d="M824.235 145.198L904.732 53.5875L914.158 66.5626L841.477 147.369L940.615 103.06L950.022 116.039L838.209 164.475L824.235 145.198Z" fill="#020726"/>
<path d="M780.295 122.304L791.702 0.757568L806.911 5.7134L795.5 113.901L849.734 19.6552L864.943 24.611L802.905 129.669L780.295 122.304Z" fill="#020726" fill-opacity="0.2"/>
<path d="M696.015 239.14L584.21 287.693L593.621 300.703L692.744 256.287L620.066 337.289L629.466 350.296L709.989 258.463L696.015 239.14Z" fill="#020726" fill-opacity="0.2"/>
<path d="M731.318 129.665L669.265 24.611L684.474 19.6552L738.692 113.901L727.282 5.7134L742.517 0.757568L753.927 122.304L731.318 129.665Z" fill="#020726"/>
<path d="M731.318 274.034L669.265 379.342L684.474 384.31L738.692 289.835L727.282 398.286L742.491 403.254L753.901 281.413L731.318 274.034Z" fill="#020726"/>
<path d="M696.015 164.872L584.21 116.319L593.621 103.308L692.744 147.725L620.066 66.7222L629.466 53.7156L709.989 145.548L696.015 164.872Z" fill="#020726" fill-opacity="0.2"/>
<path d="M780.296 281.413L791.703 403.254L806.912 398.286L795.501 289.835L849.72 384.31L864.929 379.342L802.906 274.03L780.296 281.413Z" fill="#020726" fill-opacity="0.2"/>
<path d="M824.235 258.463L904.732 350.296L914.158 337.289L841.477 256.287L940.615 300.703L950.022 287.693L838.209 239.14L824.235 258.463Z" fill="#020726"/>
</svg>
