<svg width="1381" height="4283" viewBox="0 0 1381 4283" fill="none" xmlns="http://www.w3.org/2000/svg">
<path d="M845.886 4093.62L964.644 4121.14L964.739 4105.1L858.624 4081.8L964.961 4060.01L965.039 4043.98L846.003 4069.81L845.886 4093.62Z" fill="#020726" fill-opacity="0.2"/>
<path d="M824.737 4024.82L905.2 3933.2L914.622 3946.17L841.971 4026.99L941.067 3982.68L950.471 3995.66L838.705 4044.1L824.737 4024.82Z" fill="#020726"/>
<path d="M688.423 4068.95L569.608 4042.18V4058.26L675.749 4080.88L569.608 4103.49V4119.58L688.423 4092.82V4068.95Z" fill="#020726"/>
<path d="M824.737 4024.82L905.2 3933.2L914.622 3946.17L841.971 4026.99L941.067 3982.68L950.471 3995.66L838.705 4044.1L824.737 4024.82Z" fill="#020726"/>
<path d="M780.815 4001.92L792.217 3880.36L807.42 3885.32L796.014 3993.52L850.225 3899.26L865.427 3904.22L803.415 4009.29L780.815 4001.92Z" fill="#020726" fill-opacity="0.2"/>
<path d="M696.57 4118.78L584.811 4167.33L594.218 4180.35L693.3 4135.93L620.653 4216.94L630.049 4229.95L710.538 4138.1L696.57 4118.78Z" fill="#020726" fill-opacity="0.2"/>
<path d="M731.859 4009.29L669.831 3904.22L685.034 3899.26L739.23 3993.52L727.824 3885.32L743.053 3880.36L754.459 4001.92L731.859 4009.29Z" fill="#020726"/>
<path d="M731.859 4153.67L669.831 4259L685.034 4263.97L739.23 4169.48L727.824 4277.94L743.027 4282.91L754.433 4161.05L731.859 4153.67Z" fill="#020726"/>
<path d="M696.57 4044.5L584.811 3995.94L594.218 3982.93L693.3 4027.35L620.653 3946.33L630.049 3933.33L710.538 4025.17L696.57 4044.5Z" fill="#020726" fill-opacity="0.2"/>
<path d="M780.815 4161.05L792.217 4282.91L807.42 4277.94L796.014 4169.48L850.21 4263.97L865.413 4259L803.415 4153.67L780.815 4161.05Z" fill="#020726" fill-opacity="0.2"/>
<path d="M824.737 4138.1L905.2 4229.95L914.622 4216.94L841.971 4135.93L941.068 4180.35L950.471 4167.33L838.705 4118.78L824.737 4138.1Z" fill="#020726"/>
<path d="M846.643 3516.26L965.401 3543.78L965.496 3527.74L859.382 3504.44L965.718 3482.65L965.796 3466.62L846.76 3492.45L846.643 3516.26Z" fill="#020726" fill-opacity="0.2"/>
<path d="M559.057 3514.16L440.787 3543.27L440.425 3527.24L546.105 3502.52L439.39 3482.17L439.021 3466.15L558.515 3490.35L559.057 3514.16Z" fill="#020726"/>
<path d="M825.494 3447.46L905.957 3355.84L915.379 3368.81L842.729 3449.63L941.825 3405.32L951.228 3418.3L839.462 3466.74L825.494 3447.46Z" fill="#020726"/>
<path d="M689.18 3491.59L570.365 3464.82V3480.9L676.507 3503.52L570.365 3526.13V3542.21L689.18 3515.46V3491.59Z" fill="#020726" fill-opacity="0.2"/>
<path d="M825.494 3447.46L905.957 3355.84L915.379 3368.81L842.729 3449.63L941.825 3405.32L951.228 3418.3L839.462 3466.74L825.494 3447.46Z" fill="#020726"/>
<path d="M781.572 3424.56L792.974 3303L808.177 3307.96L796.771 3416.16L850.982 3321.9L866.185 3326.86L804.172 3431.93L781.572 3424.56Z" fill="#020726" fill-opacity="0.2"/>
<path d="M697.327 3541.41L585.569 3589.97L594.976 3602.99L694.057 3558.56L621.41 3639.58L630.806 3652.59L711.295 3560.74L697.327 3541.41Z" fill="#020726"/>
<path d="M732.616 3431.92L670.589 3326.86L685.791 3321.9L739.987 3416.16L728.582 3307.96L743.81 3303L755.216 3424.56L732.616 3431.92Z" fill="#020726"/>
<path d="M732.616 3576.31L670.589 3681.64L685.791 3686.6L739.987 3592.12L728.582 3700.58L743.784 3705.55L755.19 3583.69L732.616 3576.31Z" fill="#020726" fill-opacity="0.2"/>
<path d="M697.327 3467.14L585.569 3418.58L594.976 3405.56L694.057 3449.99L621.41 3368.97L630.806 3355.97L711.295 3447.81L697.327 3467.14Z" fill="#020726" fill-opacity="0.2"/>
<path d="M781.572 3583.69L792.974 3705.55L808.177 3700.58L796.771 3592.12L850.967 3686.6L866.17 3681.64L804.172 3576.31L781.572 3583.69Z" fill="#020726"/>
<path d="M846.643 2938.9L965.401 2966.42L965.496 2950.38L859.382 2927.08L965.718 2905.29L965.796 2889.26L846.76 2915.09L846.643 2938.9Z" fill="#020726"/>
<path d="M559.057 2936.8L440.787 2965.9L440.425 2949.87L546.105 2925.16L439.39 2904.81L439.021 2888.79L558.515 2912.99L559.057 2936.8Z" fill="#020726" fill-opacity="0.2"/>
<path d="M979.293 2914.53L1098.11 2887.84V2903.88L991.967 2926.43L1098.11 2948.99V2965.03L979.293 2938.34V2914.53Z" fill="#020726" fill-opacity="0.2"/>
<path d="M427.921 2914.53L309.106 2887.82V2903.87L415.247 2926.43L309.106 2948.99V2965.03L427.921 2938.34V2914.53Z" fill="#020726"/>
<path d="M825.494 2870.1L905.957 2778.48L915.379 2791.45L842.729 2872.27L941.825 2827.96L951.228 2840.94L839.462 2889.38L825.494 2870.1Z" fill="#020726" fill-opacity="0.2"/>
<path d="M689.18 2914.23L570.365 2887.46V2903.54L676.507 2926.16L570.365 2948.77V2964.85L689.18 2938.1V2914.23Z" fill="#020726"/>
<path d="M781.572 2847.2L792.974 2725.64L808.177 2730.6L796.771 2838.8L850.982 2744.54L866.185 2749.5L804.172 2854.57L781.572 2847.2Z" fill="#020726"/>
<path d="M697.327 2964.05L585.569 3012.61L594.976 3025.62L694.057 2981.2L621.41 3062.22L630.806 3075.22L711.295 2983.38L697.327 2964.05Z" fill="#020726" fill-opacity="0.2"/>
<path d="M732.616 2854.56L670.589 2749.5L685.791 2744.54L739.987 2838.8L728.582 2730.6L743.81 2725.64L755.216 2847.2L732.616 2854.56Z" fill="#020726" fill-opacity="0.2"/>
<path d="M732.616 2998.95L670.589 3104.27L685.791 3109.24L739.987 3014.76L728.582 3123.22L743.784 3128.19L755.19 3006.33L732.616 2998.95Z" fill="#020726"/>
<path d="M299.304 2338.66L181.023 2309.6L180.667 2325.63L286.358 2350.3L179.65 2370.7L179.287 2386.72L298.772 2362.47L299.304 2338.66Z" fill="#020726"/>
<path d="M848.158 2361.54L966.915 2389.05L967.011 2373.01L860.896 2349.72L967.233 2327.93L967.311 2311.9L848.275 2337.72L848.158 2361.54Z" fill="#020726" fill-opacity="0.2"/>
<path d="M560.571 2359.43L442.302 2388.54L441.939 2372.51L547.62 2347.79L440.904 2327.45L440.535 2311.43L560.03 2335.63L560.571 2359.43Z" fill="#020726"/>
<path d="M980.808 2337.17L1099.62 2310.48V2326.52L993.481 2349.07L1099.62 2371.62V2387.67L980.808 2360.98V2337.17Z" fill="#020726"/>
<path d="M1110.3 2337.11L1229.12 2310.42V2326.47L1122.98 2349.01L1229.12 2371.57V2387.62L1110.3 2360.93V2337.11Z" fill="#020726" fill-opacity="0.2"/>
<path d="M429.436 2337.17L310.621 2310.46V2326.51L416.762 2349.07L310.621 2371.63V2387.67L429.436 2360.98V2337.17Z" fill="#020726" fill-opacity="0.2"/>
<path d="M827.009 2292.74L907.472 2201.11L916.894 2214.09L844.243 2294.91L943.339 2250.59L952.743 2263.57L840.977 2312.02L827.009 2292.74Z" fill="#020726"/>
<path d="M690.695 2336.87L571.88 2310.1V2326.18L678.021 2348.8L571.88 2371.41V2387.49L690.695 2360.74V2336.87Z" fill="#020726" fill-opacity="0.2"/>
<path d="M827.009 2292.74L907.472 2201.11L916.894 2214.09L844.243 2294.91L943.339 2250.59L952.743 2263.57L840.977 2312.02L827.009 2292.74Z" fill="#020726"/>
<path d="M783.087 2269.84L794.489 2148.28L809.692 2153.23L798.286 2261.44L852.497 2167.18L867.699 2172.13L805.687 2277.21L783.087 2269.84Z" fill="#020726" fill-opacity="0.2"/>
<path d="M698.842 2386.69L587.083 2435.25L596.49 2448.26L695.571 2403.84L622.924 2484.85L632.321 2497.86L712.81 2406.02L698.842 2386.69Z" fill="#020726"/>
<path d="M291.732 1761.3L173.451 1732.24L173.095 1748.27L278.785 1772.94L172.078 1793.33L171.715 1809.35L291.2 1785.11L291.732 1761.3Z" fill="#020726" fill-opacity="0.2"/>
<path d="M161.481 1761.3L43.1997 1732.24L42.8436 1748.27L148.534 1772.94L41.8265 1793.33L41.4637 1809.35L160.949 1785.11L161.481 1761.3Z" fill="#020726"/>
<path d="M854.216 1784.18L972.974 1811.69L973.069 1795.65L866.955 1772.36L973.291 1750.57L973.369 1734.54L854.333 1760.36L854.216 1784.18Z" fill="#020726"/>
<path d="M554.513 1782.07L436.244 1811.18L435.881 1795.15L541.562 1770.43L434.846 1750.09L434.477 1734.07L553.972 1758.27L554.513 1782.07Z" fill="#020726" fill-opacity="0.2"/>
<path d="M974.749 1759.81L1093.56 1733.12V1749.16L987.423 1771.7L1093.56 1794.26V1810.31L974.749 1783.62V1759.81Z" fill="#020726" fill-opacity="0.2"/>
<path d="M1104.24 1759.75L1223.06 1733.06V1749.11L1116.92 1771.65L1223.06 1794.21V1810.25L1104.24 1783.57V1759.75Z" fill="#020726"/>
<path d="M423.377 1759.81L304.562 1733.1V1749.15L410.704 1771.7L304.562 1794.26V1810.31L423.377 1783.62V1759.81Z" fill="#020726"/>
<path d="M833.067 1715.38L913.53 1623.75L922.952 1636.73L850.302 1717.55L949.397 1673.23L958.801 1686.21L847.035 1734.66L833.067 1715.38Z" fill="#020726" fill-opacity="0.2"/>
<path d="M684.637 1759.51L565.822 1732.74V1748.82L671.963 1771.43L565.822 1794.05V1810.13L684.637 1783.38V1759.51Z" fill="#020726"/>
<path d="M298.547 1184.7L180.266 1155.63L179.91 1171.66L285.6 1196.34L178.893 1216.73L178.53 1232.75L298.015 1208.5L298.547 1184.7Z" fill="#020726"/>
<path d="M168.296 1184.7L50.0152 1155.63L49.659 1171.66L155.349 1196.34L48.642 1216.73L48.2792 1232.75L167.764 1208.5L168.296 1184.7Z" fill="#020726" fill-opacity="0.2"/>
<path d="M861.031 1207.57L979.789 1235.09L979.885 1219.05L873.77 1195.76L980.106 1173.97L980.184 1157.93L861.149 1183.76L861.031 1207.57Z" fill="#020726" fill-opacity="0.2"/>
<path d="M559.814 1205.47L441.545 1234.58L441.182 1218.55L546.863 1193.83L440.147 1173.48L439.778 1157.46L559.272 1181.66L559.814 1205.47Z" fill="#020726"/>
<path d="M993.681 1183.2L1112.5 1156.51V1172.56L1006.36 1195.1L1112.5 1217.66V1233.7L993.681 1207.02V1183.2Z" fill="#020726"/>
<path d="M1123.17 1183.15L1241.99 1156.46V1172.5L1135.85 1195.05L1241.99 1217.61V1233.65L1123.17 1206.96V1183.15Z" fill="#020726" fill-opacity="0.2"/>
<path d="M428.678 1183.2L309.863 1156.5V1172.54L416.005 1195.1L309.863 1217.66V1233.7L428.678 1207.02V1183.2Z" fill="#020726" fill-opacity="0.2"/>
<path d="M168.296 607.334L50.0145 578.272L49.6583 594.302L155.349 618.978L48.6413 639.368L48.2785 655.389L167.763 631.14L168.296 607.334Z" fill="#020726"/>
<path d="M880.72 630.211L999.478 657.728L999.573 641.688L893.458 618.394L999.795 596.605L999.873 580.573L880.837 606.399L880.72 630.211Z" fill="#020726" fill-opacity="0.2"/>
<path d="M429.562 628.108L311.293 657.217L310.93 641.187L416.611 616.469L309.895 596.121L309.526 580.101L429.021 604.302L429.562 628.108Z" fill="#020726"/>
<path d="M1013.37 605.841L1132.18 579.151V595.195L1026.04 617.739L1132.18 640.298V656.343L1013.37 629.656V605.841Z" fill="#020726"/>
<path d="M298.427 605.841L179.612 579.136V595.18L285.753 617.739L179.612 640.298V656.343L298.427 629.657V605.841Z" fill="#020726" fill-opacity="0.2"/>
<path d="M1129.11 52.8493L1247.86 80.3665L1247.96 64.3271L1141.84 41.0329L1248.18 19.2436L1248.26 3.21203L1129.22 29.0375L1129.11 52.8493Z" fill="#020726"/>
<path d="M1261.76 28.48L1380.57 1.78998V17.8345L1274.43 40.3785L1380.57 62.9375V78.982L1261.76 52.2957V28.48Z" fill="#020726" fill-opacity="0.2"/>
<path d="M120.587 29.9734L2.30627 0.911621L1.95013 16.9417L107.641 41.6175L0.933072 62.0076L0.570312 78.028L120.055 53.7796L120.587 29.9734Z" fill="#020726"/>
<path d="M379.582 50.7465L261.313 79.8557L260.95 63.8259L366.631 39.1076L259.915 18.7603L259.546 2.74008L379.041 26.9405L379.582 50.7465Z" fill="#020726"/>
<path d="M248.447 28.48L129.632 1.77519V17.8197L235.773 40.3786L129.632 62.9375V78.982L248.447 52.2958V28.48Z" fill="#020726" fill-opacity="0.2"/>
</svg>
