<svg width="470" height="477" viewBox="0 0 470 477" fill="none" xmlns="http://www.w3.org/2000/svg">
<g clip-path="url(#clip0_1447_5414)">
<path d="M150.666 194.492L18.041 136.952L29.2046 121.533L146.785 174.171L60.5743 78.1749L71.7246 62.7607L167.242 171.592L150.666 194.492Z" fill="#020726"/>
<path opacity="0.35" d="M302.762 305.408L398.248 414.239L409.429 398.825L323.214 302.829L440.812 355.467L451.971 340.048L319.338 282.508L302.762 305.408Z" fill="#020726"/>
<path d="M329.002 224.367L470.001 192.664V211.722L344.042 238.5L470.001 265.296V284.354L329.002 252.656V224.367Z" fill="#020726"/>
<path opacity="0.35" d="M140.999 224.367L0 192.646V211.704L125.958 238.5L0 265.296V284.354L140.999 252.656V224.367Z" fill="#020726"/>
<path opacity="0.35" d="M302.762 171.592L398.248 62.7607L409.429 78.1749L323.214 174.171L440.812 121.533L451.971 136.952L319.338 194.492L302.762 171.592Z" fill="#020726"/>
<path d="M150.666 282.508L18.041 340.048L29.2046 355.467L146.785 302.829L60.5743 398.825L71.7246 414.239L167.242 305.408L150.666 282.508Z" fill="#020726"/>
<path d="M250.641 144.394L264.172 0L282.213 5.88742L268.677 134.412L333.01 22.4499L351.051 28.3373L277.46 153.144L250.641 144.394Z" fill="#020726"/>
<path opacity="0.35" d="M192.544 323.861L118.936 448.663L136.977 454.551L201.291 342.588L187.756 471.113L205.797 477L219.333 332.606L192.544 323.861Z" fill="#020726"/>
<path opacity="0.35" d="M192.544 153.139L118.936 28.3373L136.977 22.4499L201.291 134.412L187.756 5.88742L205.828 0L219.363 144.394L192.544 153.139Z" fill="#020726"/>
<path d="M250.641 332.606L264.172 477L282.213 471.113L268.677 342.588L332.992 454.55L351.033 448.663L277.46 323.856L250.641 332.606Z" fill="#020726"/>
</g>
<defs>
<clipPath id="clip0_1447_5414">
<rect width="470" height="477" fill="white"/>
</clipPath>
</defs>
</svg>
