<svg width="573" height="618" viewBox="0 0 573 618" fill="none" xmlns="http://www.w3.org/2000/svg">
<path d="M245.836 330.489L386.389 211.371L367.075 196.766L243.095 304.322L312.811 155.732L293.496 141.126L217.171 308.812L245.836 330.489Z" fill="#020726"/>
<path d="M310.064 379.058L386.389 211.371L405.704 225.977L335.988 374.567L459.978 267.079L479.292 281.684L338.738 400.802L310.064 379.058Z" fill="#020726"/>
<path d="M60.0493 189.998L200.603 70.8806L181.289 56.2751L57.3084 163.831L126.957 15.25L107.643 0.644531L31.3169 168.331L60.0493 189.998Z" fill="#020726"/>
<path d="M124.277 238.567L200.603 70.8806L219.918 85.4862L150.134 234.086L274.182 126.521L293.496 141.126L152.942 260.243L124.277 238.567Z" fill="#020726"/>
<path d="M431.622 470.98L572.185 351.93L552.871 337.324L428.89 444.88L498.597 296.222L479.283 281.617L402.957 449.303L431.622 470.98Z" fill="#020726"/>
<path d="M137.454 473.814L278.008 354.697L258.693 340.091L134.713 447.647L204.371 299.133L185.056 284.528L108.731 452.214L137.454 473.814Z" fill="#020726"/>
<path d="M15.8282 381.902L92.154 214.215L111.468 228.821L41.7524 377.411L165.742 269.922L185.056 284.528L44.5026 403.645L15.8282 381.902Z" fill="#020726"/>
<path d="M201.682 522.383L278.008 354.697L297.264 369.379L227.548 517.969L351.528 410.413L370.843 425.019L230.289 544.136L201.682 522.383Z" fill="#020726"/>
<path d="M29.0137 617.216L169.568 498.099L150.253 483.493L26.2056 591.058L95.9216 442.468L76.6072 427.863L0.281372 595.549L29.0137 617.216Z" fill="#020726"/>
</svg>
