<svg width="630" height="856" viewBox="0 0 630 856" fill="none" xmlns="http://www.w3.org/2000/svg">
<path d="M547.235 1.91147e-06L503.511 196.358L529.798 196.358L566.755 20.9448L603.713 196.358L630 196.358L586.275 3.61814e-06L547.235 1.91147e-06Z" fill="#020726"/>
<path d="M421.945 659.643L378.22 856L404.507 856L441.465 680.587L478.423 856L504.71 856L460.985 659.643L421.945 659.643Z" fill="#020726"/>
<path d="M167.631 441.12L123.906 637.478L150.193 637.478L187.151 462.065L224.109 637.478L250.396 637.478L206.671 441.12L167.631 441.12Z" fill="#020726"/>
<path d="M294.048 440.138L250.323 636.495L276.61 636.495L313.568 461.083L350.526 636.495L376.813 636.495L333.088 440.138L294.048 440.138Z" fill="#020726"/>
<path d="M419.949 220.487L376.225 416.845L402.512 416.845L439.469 241.432L476.427 416.845L502.714 416.845L458.989 220.487L419.949 220.487Z" fill="#020726"/>
<path d="M546.366 219.506L502.641 415.863L528.928 415.863L565.886 240.451L602.844 415.863L629.131 415.863L585.406 219.506L546.366 219.506Z" fill="#020726"/>
<path d="M547.235 659.643L503.511 856L529.798 856L566.755 680.587L603.713 856L630 856L586.275 659.643L547.235 659.643Z" fill="#020726"/>
<path d="M296.043 659.643L252.318 856L278.605 856L315.563 680.587L352.521 856L378.808 856L335.083 659.643L296.043 659.643Z" fill="#020726"/>
<path d="M546.366 440.137L502.641 636.494L528.928 636.494L565.886 461.082L602.844 636.494L629.131 636.494L585.406 440.137L546.366 440.137Z" fill="#020726"/>
<path d="M43.7248 659.643L-8.58968e-06 856L26.2869 856L63.2447 680.587L100.203 856L126.489 856L82.7647 659.643L43.7248 659.643Z" fill="#020726"/>
</svg>
