<svg width="140" height="50" viewBox="0 0 140 50" fill="none" xmlns="http://www.w3.org/2000/svg">
<path d="M15.7074 20.4293L1.87958 14.4513L3.04284 12.85L15.3026 18.3174L6.31505 8.3479L7.47831 6.74658L17.4361 18.0509L15.7074 20.4293Z" fill="#020726"/>
<path d="M31.5647 31.9502L41.5215 43.2545L42.6847 41.6522L33.6972 31.6856L45.9619 37.1491L47.1251 35.5478L33.2973 29.5698L31.5647 31.9502Z" fill="#020726"/>
<path d="M34.3002 23.5301L49.0002 20.2373V22.2169L35.8682 25.0001L49.0002 27.7833V29.7629L34.3002 26.4701V23.5301Z" fill="#020726"/>
<path d="M14.7 23.5301L0 20.2373V22.2169L13.132 25.0001L0 27.7833V29.7629L14.7 26.4701V23.5301Z" fill="#020726"/>
<path d="M31.5647 18.0509L41.5215 6.74658L42.6847 8.3479L33.6972 18.3184L45.9619 12.851L47.1251 14.4523L33.2973 20.4303L31.5647 18.0509Z" fill="#020726"/>
<path d="M15.7074 29.5718L1.87958 35.5498L3.04284 37.1511L15.3026 31.6856L6.31505 41.6522L7.47831 43.2545L17.4361 31.9502L15.7074 29.5718Z" fill="#020726"/>
<path d="M26.1307 15.2215L27.538 0.227539L29.4205 0.839058L28.0133 14.1886L34.7174 2.55896L36.601 3.16754L28.9266 16.1339L26.1307 15.2215Z" fill="#020726"/>
<path d="M20.0732 33.8657L12.3989 46.8291L14.2824 47.4407L20.9866 35.811L19.5764 49.1606L21.4619 49.7721L22.8731 34.7781L20.0732 33.8657Z" fill="#020726"/>
<path d="M20.0732 16.1339L12.3989 3.16754L14.2824 2.55504L20.9866 14.1847L19.5764 0.839058L21.4619 0.227539L22.8731 15.2215L20.0732 16.1339Z" fill="#020726"/>
<path d="M26.1307 34.7742L27.5409 49.7682L29.4235 49.1566L28.0133 35.811L34.7174 47.4407L36.601 46.8291L28.9266 33.8657L26.1307 34.7742Z" fill="#020726"/>
<path d="M71.4583 15.0008V4.5H65.8097C65.8097 9.13437 65.7817 11.8926 65.6135 12.6206C65.5014 13.0827 65.3332 13.4607 64.7865 13.4607H64.7305V15.0008H64.9267C66.3844 15.0008 66.9591 14.4128 67.1553 12.7046C67.3095 11.2905 67.3515 9.24638 67.3515 6.04012H69.7763V15.0008H71.4583Z" fill="#020726"/>
<path d="M74.7532 4.5L72.5807 15.0008H74.2767L74.7392 12.6206H77.2902L77.7527 15.0008H79.4487L77.2761 4.5H74.7532ZM75.0335 11.0805L76.0147 6.02612L76.9958 11.0805H75.0335Z" fill="#020726"/>
<path d="M82.2486 15.0008V6.04012H85.3182V4.5H80.5667V15.0008H82.2486Z" fill="#020726"/>
<path d="M91.4657 13.4607H88.326V10.3805H91.1853V8.84034H88.326V6.04012H91.4657V4.5H86.6441V15.0008H91.4657V13.4607Z" fill="#020726"/>
<path d="M94.6908 15.0008V11.0805H96.0784C97.8024 11.0805 99.0359 10.0164 99.0359 8.07028V7.37023C99.0359 5.49408 97.8024 4.5 96.0784 4.5H93.0089V15.0008H94.6908ZM95.9383 6.04012C96.8073 6.04012 97.3539 6.44615 97.3539 7.51024V7.93027C97.3539 9.07836 96.8073 9.5404 95.9383 9.5404H94.6908V6.04012H95.9383Z" fill="#020726"/>
<path d="M102.123 4.5H100.441V15.0008H103.189C105.319 15.0008 106.468 13.5587 106.468 11.7106V11.2905C106.468 9.41439 105.319 8.14029 103.189 8.14029H102.123V4.5ZM102.964 9.68041C104.352 9.68041 104.786 10.3665 104.786 11.4305V11.5706C104.786 12.7327 104.352 13.4607 102.964 13.4607H102.123V9.68041H102.964Z" fill="#020726"/>
<path d="M66.9731 18.7926H65.2911V29.2934H66.9731V24.211L69.5661 29.2934H71.5844L68.6831 23.791L71.4443 18.7926H69.6081L66.9731 23.875V18.7926Z" fill="#020726"/>
<path d="M74.2413 29.2934V25.3731H75.6289C77.3529 25.3731 78.5863 24.309 78.5863 22.3629V21.6628C78.5863 19.7867 77.3529 18.7926 75.6289 18.7926H72.5593V29.2934H74.2413ZM75.4887 20.3327C76.3578 20.3327 76.9044 20.7388 76.9044 21.8028V22.2229C76.9044 23.371 76.3578 23.833 75.4887 23.833H74.2413V20.3327H75.4887Z" fill="#020726"/>
<path d="M84.8134 27.7533H81.6738V24.6731H84.5331V23.133H81.6738V20.3327H84.8134V18.7926H79.9918V29.2934H84.8134V27.7533Z" fill="#020726"/>
<path d="M87.6882 18.7926L85.5156 29.2934H87.2116L87.6742 26.9133H90.2251L90.6877 29.2934H92.3836L90.2111 18.7926H87.6882ZM87.9685 25.3731L88.9496 20.3187L89.9308 25.3731H87.9685Z" fill="#020726"/>
<path d="M95.9787 29.2934V20.3327H98.0391V18.7926H92.2363V20.3327H94.2967V29.2934H95.9787Z" fill="#020726"/>
<path d="M102.967 18.7926L100.696 27.5573V18.7926H99.1547V29.2934H101.65L103.92 20.5287V29.2934H105.462V18.7926H102.967Z" fill="#020726"/>
<path d="M107.422 29.2934H110.688C112.412 29.2934 113.589 28.2294 113.589 26.2832V26.0032C113.589 24.7851 112.987 23.959 112.062 23.567C112.818 23.203 113.309 22.5449 113.309 21.5228V21.3828C113.309 19.6887 112.132 18.7926 110.408 18.7926H107.422V29.2934ZM110.267 20.3327C111.136 20.3327 111.627 20.6688 111.627 21.5228V21.6628C111.627 22.6149 111.136 22.9929 110.267 22.9929H109.104V20.3327H110.267ZM110.548 24.5331C111.417 24.5331 111.907 24.9391 111.907 26.0032V26.1432C111.907 27.2913 111.417 27.7533 110.548 27.7533H109.104V24.5331H110.548Z" fill="#020726"/>
<path d="M116.81 29.2934V24.6731H119.754V29.2934H121.436V18.7926H119.754V23.133H116.81V18.7926H115.128V29.2934H116.81Z" fill="#020726"/>
<path d="M125.078 18.7926H123.396V29.2934H126.143C128.273 29.2934 129.423 27.8513 129.423 26.0032V25.5831C129.423 23.707 128.273 22.4329 126.143 22.4329H125.078V18.7926ZM132.156 29.2934V18.7926H130.474V29.2934H132.156ZM125.919 23.973C127.306 23.973 127.741 24.6591 127.741 25.7232V25.8632C127.741 27.0253 127.306 27.7533 125.919 27.7533H125.078V23.973H125.919Z" fill="#020726"/>
<path d="M138.178 29.2934H140L137.505 23.917L139.86 18.7926H138.038L136.566 22.4469L135.094 18.7926H133.272L135.627 23.917L133.132 29.2934H134.954L136.566 25.4011L138.178 29.2934Z" fill="#020726"/>
<path d="M75.9163 33.109L73.6457 41.8737V33.109H72.1039V43.6098H74.5988L76.8694 34.8452V43.6098H78.4112V33.109H75.9163Z" fill="#020726"/>
<path d="M79.6004 45.5H81.1422V43.6098H86.118V45.5H87.6598V42.0697H86.6786V33.109H81.002C81.0441 39.1575 80.9179 40.8376 80.3573 42.0697H79.6004V45.5ZM82.2775 40.6976C82.4457 39.6475 82.5298 38.2894 82.5438 34.6491H84.9967V42.0697H81.9271C82.1093 41.6357 82.1934 41.2297 82.2775 40.6976Z" fill="#020726"/>
<path d="M93.8162 42.0697H90.6765V38.9895H93.5359V37.4494H90.6765V34.6491H93.8162V33.109H88.9946V43.6098H93.8162V42.0697Z" fill="#020726"/>
<path d="M97.0414 43.6098V39.6895H98.429C100.153 39.6895 101.386 38.6255 101.386 36.6793V35.9792C101.386 34.1031 100.153 33.109 98.429 33.109H95.3594V43.6098H97.0414ZM98.2888 34.6491C99.1578 34.6491 99.7045 35.0552 99.7045 36.1193V36.5393C99.7045 37.6874 99.1578 38.1494 98.2888 38.1494H97.0414V34.6491H98.2888Z" fill="#020726"/>
<path d="M105.805 43.7499C107.768 43.7499 108.959 42.5458 108.959 40.1096V36.6093C108.959 34.1731 107.768 32.969 105.805 32.969C103.843 32.969 102.652 34.1731 102.652 36.6093V40.1096C102.652 42.5458 103.843 43.7499 105.805 43.7499ZM105.805 42.2097C104.88 42.2097 104.334 41.6917 104.334 40.1096V36.6093C104.334 35.0272 104.894 34.5091 105.805 34.5091C106.73 34.5091 107.277 35.0272 107.277 36.6093V40.1096C107.277 41.6917 106.716 42.2097 105.805 42.2097Z" fill="#020726"/>
<path d="M110.786 43.6098H114.051C115.775 43.6098 116.953 42.5458 116.953 40.5996V40.3196C116.953 39.1015 116.35 38.2754 115.425 37.8834C116.182 37.5194 116.672 36.8613 116.672 35.8392V35.6992C116.672 34.0051 115.495 33.109 113.771 33.109H110.786V43.6098ZM113.631 34.6491C114.5 34.6491 114.99 34.9852 114.99 35.8392V35.9792C114.99 36.9313 114.5 37.3094 113.631 37.3094H112.467V34.6491H113.631ZM113.911 38.8495C114.78 38.8495 115.271 39.2555 115.271 40.3196V40.4596C115.271 41.6077 114.78 42.0697 113.911 42.0697H112.467V38.8495H113.911Z" fill="#020726"/>
<path d="M68.533 33.0432L70.9277 43.7224H69.488L67.4639 34.1823L65.4398 43.7224H64.0001L66.3949 33.0432H68.533Z" fill="#020726"/>
</svg>
