<svg width="523" height="532" viewBox="0 0 523 532" fill="none" xmlns="http://www.w3.org/2000/svg">
<g clip-path="url(#clip0_965_2974)">
<path d="M364.832 282.459L521.655 318.776L521.781 297.607L381.654 266.864L522.074 238.106L522.177 216.948L364.987 251.032L364.832 282.459Z" fill="#020726" fill-opacity="0.2"/>
<path d="M336.904 191.658L443.158 70.7344L455.6 87.8612L359.663 194.524L490.522 136.037L502.94 153.169L355.349 217.103L336.904 191.658Z" fill="#020726"/>
<path d="M156.899 249.901L0 214.57V235.797L140.162 265.643L0 295.488V316.715L156.899 281.409V249.901Z" fill="#020726"/>
<path d="M336.904 191.658L443.158 70.7344L455.6 87.8612L359.663 194.524L490.522 136.037L502.94 153.169L355.349 217.103L336.904 191.658Z" fill="#020726"/>
<path d="M278.904 161.438L293.961 1L314.037 7.54157L298.975 150.347L370.562 25.9444L390.638 32.4859L308.748 171.159L278.904 161.438Z" fill="#020726" fill-opacity="0.2"/>
<path d="M167.657 315.659L20.0762 379.747L32.4986 396.921L163.338 338.292L67.4057 445.214L79.8135 462.382L186.102 341.165L167.657 315.659Z" fill="#020726" fill-opacity="0.2"/>
<path d="M214.256 171.155L132.348 32.4859L152.423 25.9444L223.991 150.347L208.929 7.54157L229.039 1L244.1 161.438L214.256 171.155Z" fill="#020726"/>
<g clip-path="url(#clip1_965_2974)">
<path d="M214.256 361.718L132.348 500.723L152.423 507.28L223.991 382.576L208.929 525.728L229.005 532.285L244.066 371.458L214.256 361.718Z" fill="#020726"/>
<g clip-path="url(#clip2_965_2974)">
<path d="M167.657 217.627L20.0762 153.538L32.4986 136.365L163.338 194.993L67.4057 88.0717L79.8135 70.9033L186.102 192.12L167.657 217.627Z" fill="#020726" fill-opacity="0.2"/>
<path d="M278.904 371.458L293.961 532.285L314.037 525.728L298.975 382.576L370.542 507.28L390.618 500.723L308.748 361.713L278.904 371.458Z" fill="#020726" fill-opacity="0.2"/>
<path d="M336.904 341.165L443.158 462.382L455.6 445.214L359.663 338.292L490.522 396.921L502.94 379.747L355.349 315.659L336.904 341.165Z" fill="#020726"/>
</g>
</g>
</g>
<defs>
<clipPath id="clip0_965_2974">
<rect width="523" height="532" fill="white"/>
</clipPath>
<clipPath id="clip1_965_2974">
<rect width="523" height="531.285" fill="white" transform="translate(0 1)"/>
</clipPath>
<clipPath id="clip2_965_2974">
<rect width="523" height="531.285" fill="white" transform="translate(0 1)"/>
</clipPath>
</defs>
</svg>
