<svg width="75" height="76" viewBox="0 0 75 76" fill="none" xmlns="http://www.w3.org/2000/svg">
<g clip-path="url(#clip0_177_858)">
<path d="M24.0425 30.9882L2.87891 21.8203L4.66032 19.3637L23.4231 27.7504L9.66613 12.4554L11.4454 9.99951L26.6876 27.3395L24.0425 30.9882Z" fill="#020726"/>
<path d="M48.3132 48.6604L63.5504 66.0004L65.3346 63.5445L51.5769 48.2495L70.3425 56.6362L72.1232 54.1796L50.9583 45.0117L48.3132 48.6604Z" fill="#020726"/>
<path d="M52.5002 35.7482L75 30.697V33.7335L54.9002 38.0001L75 42.2694V45.3059L52.5002 40.2554V35.7482Z" fill="#020726"/>
<path d="M22.4998 35.7481L0 30.6941V33.7306L20.0998 37.9999L0 42.2693V45.3058L22.4998 40.2553V35.7481Z" fill="#020726"/>
<path d="M48.3132 27.3395L63.5504 9.99951L65.3346 12.4554L51.5769 27.7504L70.3425 19.3637L72.1232 21.8203L50.9583 30.9882L48.3132 27.3395Z" fill="#020726"/>
<path d="M24.0425 45.0117L2.87891 54.1796L4.66032 56.6362L23.4231 48.2495L9.66613 63.5445L11.4454 66.0004L26.6876 48.6604L24.0425 45.0117Z" fill="#020726"/>
<path d="M39.9958 23.0062L42.155 0L45.034 0.938037L42.8741 21.4158L53.1399 3.57693L56.0188 4.51496L44.2756 24.4002L39.9958 23.0062Z" fill="#020726"/>
<path d="M30.725 51.6006L18.9791 71.4851L21.858 72.4232L32.121 54.5843L29.9611 75.0621L32.84 76.0001L34.9999 52.9939L30.725 51.6006Z" fill="#020726"/>
<path d="M30.725 24.3995L18.9791 4.51496L21.858 3.57693L32.121 21.4158L29.9611 0.938037L32.8449 0L35.0048 23.0062L30.725 24.3995Z" fill="#020726"/>
<path d="M39.9958 52.9939L42.155 76.0001L45.034 75.062L42.8741 54.5843L53.1371 72.4232L56.016 71.4851L44.2756 51.5999L39.9958 52.9939Z" fill="#020726"/>
</g>
<defs>
<clipPath id="clip0_177_858">
<rect width="75" height="76" fill="white"/>
</clipPath>
</defs>
</svg>
