<svg width="76" height="42" viewBox="0 0 76 42" fill="none" xmlns="http://www.w3.org/2000/svg">
<path d="M7.45817 11.0008V0.5H1.8096C1.8096 5.13437 1.78157 7.89258 1.61338 8.62064C1.50124 9.08268 1.33305 9.46071 0.786414 9.46071H0.730349V11.0008H0.926577C2.38427 11.0008 2.95894 10.4128 3.15517 8.70465C3.30935 7.29054 3.35139 5.24638 3.35139 2.04012H5.77621V11.0008H7.45817Z" fill="#020726"/>
<path d="M10.7531 0.5L8.58056 11.0008H10.2765L10.7391 8.62064H13.29L13.7526 11.0008H15.4485L13.276 0.5H10.7531ZM11.0334 7.08052L12.0146 2.02612L12.9957 7.08052H11.0334Z" fill="#020726"/>
<path d="M18.2485 11.0008V2.04012H21.3181V0.5H16.5666V11.0008H18.2485Z" fill="#020726"/>
<path d="M27.4655 9.46071H24.3259V6.38047H27.1852V4.84034H24.3259V2.04012H27.4655V0.5H22.6439V11.0008H27.4655V9.46071Z" fill="#020726"/>
<path d="M30.6907 11.0008V7.08052H32.0783C33.8023 7.08052 35.0358 6.01644 35.0358 4.07028V3.37023C35.0358 1.49408 33.8023 0.5 32.0783 0.5H29.0088V11.0008H30.6907ZM31.9382 2.04012C32.8072 2.04012 33.3538 2.44615 33.3538 3.51024V3.93027C33.3538 5.07836 32.8072 5.5404 31.9382 5.5404H30.6907V2.04012H31.9382Z" fill="#020726"/>
<path d="M38.1232 0.5H36.4412V11.0008H39.1884C41.3189 11.0008 42.4682 9.55872 42.4682 7.71057V7.29054C42.4682 5.41439 41.3189 4.14029 39.1884 4.14029H38.1232V0.5ZM38.9641 5.68041C40.3518 5.68041 40.7863 6.36646 40.7863 7.43055V7.57056C40.7863 8.73265 40.3518 9.46071 38.9641 9.46071H38.1232V5.68041H38.9641Z" fill="#020726"/>
<path d="M2.97296 14.7926H1.29101V25.2934H2.97296V20.211L5.56597 25.2934H7.58432L4.68295 19.791L7.44416 14.7926H5.60802L2.97296 19.875V14.7926Z" fill="#020726"/>
<path d="M10.2412 25.2934V21.3731H11.6288C13.3528 21.3731 14.5862 20.309 14.5862 18.3629V17.6628C14.5862 15.7867 13.3528 14.7926 11.6288 14.7926H8.55922V25.2934H10.2412ZM11.4886 16.3327C12.3576 16.3327 12.9043 16.7388 12.9043 17.8028V18.2229C12.9043 19.371 12.3576 19.833 11.4886 19.833H10.2412V16.3327H11.4886Z" fill="#020726"/>
<path d="M20.8133 23.7533H17.6736V20.6731H20.533V19.133H17.6736V16.3327H20.8133V14.7926H15.9917V25.2934H20.8133V23.7533Z" fill="#020726"/>
<path d="M23.688 14.7926L21.5155 25.2934H23.2115L23.674 22.9133H26.225L26.6875 25.2934H28.3835L26.211 14.7926H23.688ZM23.9684 21.3731L24.9495 16.3187L25.9307 21.3731H23.9684Z" fill="#020726"/>
<path d="M31.9786 25.2934V16.3327H34.039V14.7926H28.2362V16.3327H30.2966V25.2934H31.9786Z" fill="#020726"/>
<path d="M38.967 14.7926L36.6964 23.5573V14.7926H35.1546V25.2934H37.6495L39.9201 16.5287V25.2934H41.4619V14.7926H38.967Z" fill="#020726"/>
<path d="M43.422 25.2934H46.6878C48.4118 25.2934 49.5892 24.2294 49.5892 22.2832V22.0032C49.5892 20.7851 48.9865 19.959 48.0614 19.567C48.8183 19.203 49.3088 18.5449 49.3088 17.5228V17.3828C49.3088 15.6887 48.1315 14.7926 46.4075 14.7926H43.422V25.2934ZM46.2673 16.3327C47.1363 16.3327 47.6269 16.6688 47.6269 17.5228V17.6628C47.6269 18.6149 47.1363 18.9929 46.2673 18.9929H45.1039V16.3327H46.2673ZM46.5476 20.5331C47.4166 20.5331 47.9072 20.9391 47.9072 22.0032V22.1432C47.9072 23.2913 47.4166 23.7533 46.5476 23.7533H45.1039V20.5331H46.5476Z" fill="#020726"/>
<path d="M52.8102 25.2934V20.6731H55.7536V25.2934H57.4355V14.7926H55.7536V19.133H52.8102V14.7926H51.1282V25.2934H52.8102Z" fill="#020726"/>
<path d="M61.0776 14.7926H59.3956V25.2934H62.1428C64.2733 25.2934 65.4226 23.8513 65.4226 22.0032V21.5831C65.4226 19.707 64.2733 18.4329 62.1428 18.4329H61.0776V14.7926ZM68.1558 25.2934V14.7926H66.4739V25.2934H68.1558ZM61.9186 19.973C63.3062 19.973 63.7407 20.6591 63.7407 21.7232V21.8632C63.7407 23.0253 63.3062 23.7533 61.9186 23.7533H61.0776V19.973H61.9186Z" fill="#020726"/>
<path d="M74.1779 25.2934H76L73.5051 19.917L75.8598 14.7926H74.0377L72.566 18.4469L71.0943 14.7926H69.2722L71.6269 19.917L69.132 25.2934H70.9541L72.566 21.4011L74.1779 25.2934Z" fill="#020726"/>
<path d="M11.9162 29.109L9.64554 37.8737V29.109H8.10375V39.6098H10.5987L12.8693 30.8452V39.6098H14.4111V29.109H11.9162Z" fill="#020726"/>
<path d="M15.6003 41.5H17.1421V39.6098H22.1178V41.5H23.6596V38.0697H22.6785V29.109H17.0019C17.044 35.1575 16.9178 36.8376 16.3572 38.0697H15.6003V41.5ZM18.2774 36.6976C18.4456 35.6475 18.5297 34.2894 18.5437 30.6491H20.9965V38.0697H17.927C18.1092 37.6357 18.1933 37.2297 18.2774 36.6976Z" fill="#020726"/>
<path d="M29.8161 38.0697H26.6764V34.9895H29.5358V33.4494H26.6764V30.6491H29.8161V29.109H24.9945V39.6098H29.8161V38.0697Z" fill="#020726"/>
<path d="M33.0412 39.6098V35.6895H34.4289C36.1529 35.6895 37.3863 34.6255 37.3863 32.6793V31.9792C37.3863 30.1031 36.1529 29.109 34.4289 29.109H31.3593V39.6098H33.0412ZM34.2887 30.6491C35.1577 30.6491 35.7043 31.0552 35.7043 32.1193V32.5393C35.7043 33.6874 35.1577 34.1494 34.2887 34.1494H33.0412V30.6491H34.2887Z" fill="#020726"/>
<path d="M41.8053 39.7499C43.7675 39.7499 44.9589 38.5458 44.9589 36.1096V32.6093C44.9589 30.1731 43.7675 28.969 41.8053 28.969C39.843 28.969 38.6516 30.1731 38.6516 32.6093V36.1096C38.6516 38.5458 39.843 39.7499 41.8053 39.7499ZM41.8053 38.2097C40.8802 38.2097 40.3335 37.6917 40.3335 36.1096V32.6093C40.3335 31.0272 40.8942 30.5091 41.8053 30.5091C42.7303 30.5091 43.277 31.0272 43.277 32.6093V36.1096C43.277 37.6917 42.7163 38.2097 41.8053 38.2097Z" fill="#020726"/>
<path d="M46.7854 39.6098H50.0512C51.7752 39.6098 52.9526 38.5458 52.9526 36.5996V36.3196C52.9526 35.1015 52.3499 34.2754 51.4248 33.8834C52.1817 33.5194 52.6723 32.8613 52.6723 31.8392V31.6992C52.6723 30.0051 51.4949 29.109 49.7709 29.109H46.7854V39.6098ZM49.6307 30.6491C50.4997 30.6491 50.9903 30.9852 50.9903 31.8392V31.9792C50.9903 32.9313 50.4997 33.3094 49.6307 33.3094H48.4674V30.6491H49.6307ZM49.911 34.8495C50.7801 34.8495 51.2706 35.2555 51.2706 36.3196V36.4596C51.2706 37.6077 50.7801 38.0697 49.911 38.0697H48.4674V34.8495H49.911Z" fill="#020726"/>
<path d="M4.53288 29.0432L6.92761 39.7224H5.48792L3.4638 30.1823L1.43969 39.7224H0L2.39473 29.0432H4.53288Z" fill="#020726"/>
</svg>
