<svg width="109" height="35" viewBox="0 0 109 35" fill="none" xmlns="http://www.w3.org/2000/svg">
<path d="M14.0515 8.65826L10.4307 4.64355H7.50333L10.6619 7.89355H7.73444H7.34925H0.60849V9.80532H10.7774L7.27222 13.8583H10.0456L14.0515 9.00238V13.8583H16.2856V4.64355H14.0515V8.65826Z" fill="#1D1D1B"/>
<path d="M17.3256 4.64347V18.4846H19.5597V12.7111C20.253 13.5523 21.2545 14.0494 22.333 14.0494C24.8752 14.0494 26.8012 12.0611 26.8012 9.23171C26.8012 6.4023 24.8752 4.41406 22.333 4.41406C21.216 4.41406 20.253 4.91112 19.5597 5.7523V4.60524H17.3256V4.64347ZM22.0634 6.47877C23.4886 6.47877 24.5671 7.58759 24.5671 9.23171C24.5671 10.8758 23.4886 11.9846 22.0634 11.9846C20.6382 11.9846 19.5597 10.8758 19.5597 9.23171C19.5597 7.58759 20.6382 6.47877 22.0634 6.47877Z" fill="#1D1D1B"/>
<path d="M37.0086 9.27004C37.0086 6.44063 35.0442 4.45239 32.3864 4.45239C29.7286 4.45239 27.7641 6.44063 27.7641 9.27004C27.7641 12.0994 29.7286 14.0877 32.3864 14.0877C34.5819 14.0877 36.1997 13.0553 36.7775 11.1436H34.3508C34.0427 11.7936 33.4649 12.1759 32.5019 12.1759C31.1153 12.1759 30.2293 11.4112 29.9982 10.0347H37.0086C37.0086 9.7671 37.0086 9.49945 37.0086 9.27004ZM29.9982 8.42886C30.2293 7.12886 31.1153 6.40239 32.3864 6.40239C33.696 6.40239 34.5434 7.12886 34.7745 8.42886H29.9982Z" fill="#1D1D1B"/>
<path d="M42.2857 4.45239C40.2057 4.45239 38.2413 5.37004 38.2413 7.77886H40.5524C40.5524 6.74651 41.2457 6.21122 42.2857 6.21122C43.2487 6.21122 43.9805 6.6318 43.9805 7.35827C43.9805 9.19357 37.9331 7.43474 37.9331 11.4112C37.9331 13.2847 39.4739 14.0877 41.0531 14.0877C42.3242 14.0877 43.4028 13.6289 44.0191 12.52V13.8965H46.2146V7.43474C46.2146 5.29357 44.3272 4.45239 42.2857 4.45239ZM44.0191 10.073C44.0191 11.4877 42.825 12.2142 41.5153 12.2142C40.7835 12.2142 40.2057 11.9083 40.2057 11.2583C40.2057 10.073 42.5168 10.2642 44.0191 9.65239V10.073Z" fill="#1D1D1B"/>
<path d="M47.1775 6.67002H49.9894V13.8583H52.2234V6.67002H54.9968V4.64355H47.1775V6.67002Z" fill="#1D1D1B"/>
<path d="M58.2324 11.5641V4.64355H56.0753V13.8583H58.9642L62.6235 6.97591V13.8583H64.742V4.64355H61.8917L58.2324 11.5641Z" fill="#1D1D1B"/>
<path d="M73.3703 8.96414C74.1021 8.62002 74.5643 8.00826 74.5643 7.05238C74.5643 5.40826 73.4088 4.64355 71.714 4.64355H66.8221V13.8965H71.7525C73.7169 13.8965 74.911 12.9788 74.911 11.1436C74.911 10.0347 74.2947 9.30826 73.3703 8.96414ZM68.9791 6.28767H71.0591C72.0991 6.28767 72.4073 6.63179 72.4073 7.32002C72.4073 7.93179 72.0606 8.31414 71.0591 8.31414H68.9791V6.28767ZM71.4058 12.2141H68.9791V9.99649H71.4058C72.2917 9.99649 72.6769 10.4171 72.6769 11.1053C72.6769 11.7936 72.2532 12.2141 71.4058 12.2141Z" fill="#1D1D1B"/>
<path d="M82.7688 8.23767H78.8784V4.64355H76.6443V13.8583H78.8784V10.2641H82.7688V13.8583H85.0028V4.64355H82.7688V8.23767Z" fill="#1D1D1B"/>
<path d="M98.2533 4.64355H96.0192V13.8965H98.2533V4.64355Z" fill="#1D1D1B"/>
<path d="M91.0888 7.54944H89.3555V4.64355H87.1214V13.8965H91.1273C93.5925 13.8965 94.8251 12.52 94.8251 10.6847C94.8251 8.84944 93.4385 7.54944 91.0888 7.54944ZM90.8962 12.023H89.317V9.38473H90.8962C92.0518 9.38473 92.5525 9.84355 92.5525 10.6465C92.5525 11.4877 92.0518 12.023 90.8962 12.023Z" fill="#1D1D1B"/>
<path d="M104.609 2.77003C106.342 2.77003 107.536 1.73768 107.536 0.0170898H105.764C105.764 0.858266 105.264 1.20238 104.609 1.20238C104.031 1.20238 103.492 0.858266 103.492 0.0170898H101.72C101.72 1.73768 102.876 2.77003 104.609 2.77003Z" fill="#1D1D1B"/>
<path d="M102.49 11.5641V4.64355H100.333V13.8583H103.184L106.843 6.97591V13.8583H109V4.64355H106.111L102.49 11.5641Z" fill="#1D1D1B"/>
<path d="M15.3611 29.7258V20.4729H7.27222V29.7258H9.5063V22.4994H13.1271V29.7258H15.3611Z" fill="#1D1D1B"/>
<path d="M17.6338 32.5554C17.1715 32.5554 16.7478 32.4789 16.4012 32.3642V34.3142C16.7478 34.4289 17.2871 34.5054 17.8263 34.5054C20.176 34.5054 21.1775 32.9377 21.9864 30.6436L25.4916 20.4348H23.2575L20.9078 27.5466L18.5967 20.4348H16.3626L19.8678 30.6436C19.3286 31.9436 18.6738 32.5554 17.6338 32.5554Z" fill="#1D1D1B"/>
<path d="M26.0308 22.4994H28.8427V29.7258H31.0767V22.4994H33.8501V20.4729H26.0308V22.4994Z" fill="#1D1D1B"/>
<path d="M34.9286 20.4729V29.7258H38.9346C41.3998 29.7258 42.6324 28.3494 42.6324 26.5141C42.6324 24.6788 41.2842 23.3788 38.9346 23.3788H37.2012V20.4729H34.9286ZM38.742 25.2141C39.8975 25.2141 40.3983 25.6729 40.3983 26.4758C40.3983 27.2788 39.8975 27.8523 38.742 27.8523H37.1627V25.2141H38.742Z" fill="#1D1D1B"/>
</svg>
