<svg width="162" height="38" viewBox="0 0 162 38" fill="none" xmlns="http://www.w3.org/2000/svg">
<path d="M7.42619 18.1384H8.82321C9.37195 18.1385 9.90759 17.9708 10.3583 17.6577C10.8089 17.3447 11.1531 16.9013 11.3445 16.387L14.5388 7.80602V3.07961C14.5381 2.29593 14.2272 1.54438 13.674 0.989283C13.1208 0.434183 12.3703 0.120679 11.5867 0.11731H0.114777V0.211635C0.749898 0.376526 1.3123 0.747627 1.71371 1.2667C2.11513 1.78577 2.33284 2.42343 2.33267 3.07961V34.9205C2.3324 35.5765 2.11453 36.214 1.71318 36.733C1.31183 37.2519 0.749681 37.6231 0.114777 37.7884V37.8828H11.5867C12.3725 37.8828 13.1263 37.5707 13.6822 37.0153C14.2382 36.4598 14.5508 35.7063 14.5515 34.9205V30.2144L11.3317 21.6156C11.1432 21.1013 10.8013 20.6572 10.3522 20.3435C9.90307 20.0299 9.36847 19.8617 8.82066 19.8617H7.42619C7.19766 19.8617 6.9785 19.7709 6.8169 19.6093C6.65531 19.4477 6.56453 19.2286 6.56453 19C6.56453 18.7715 6.65531 18.5523 6.8169 18.3907C6.9785 18.2291 7.19766 18.1384 7.42619 18.1384Z" fill="#F2F2F1"/>
<path d="M11.5866 38H0.114747C0.0840899 37.9993 0.0549128 37.9867 0.0334691 37.9647C0.0120254 37.9428 2.10827e-05 37.9134 2.83295e-05 37.8827V37.7884C-0.000180043 37.7627 0.00825048 37.7377 0.023968 37.7173C0.0396854 37.697 0.0617791 37.6825 0.0867048 37.6762C0.696851 37.517 1.2369 37.1598 1.62215 36.6606C2.00739 36.1614 2.21605 35.5484 2.21538 34.9179V3.07956C2.21592 2.44932 2.00717 1.83673 1.6219 1.33796C1.23663 0.839181 0.696645 0.482453 0.0867048 0.323762C0.0617791 0.317479 0.0396854 0.303007 0.023968 0.282667C0.00825048 0.262327 -0.000180043 0.237298 2.83295e-05 0.211593V0.117268C-0.000311272 0.10199 0.00240533 0.0867982 0.00801826 0.0725842C0.0136312 0.0583703 0.0220278 0.045421 0.0327145 0.0344969C0.0434011 0.0235728 0.0561623 0.0148941 0.0702494 0.00897019C0.0843366 0.00304627 0.0994653 -3.77032e-06 0.114747 3.49772e-09H11.5866C12.4034 0.000673912 13.1866 0.325263 13.7644 0.902574C14.3422 1.47988 14.6674 2.26279 14.6687 3.07956V7.79578C14.6714 7.80925 14.6714 7.82311 14.6687 7.83657L11.4566 16.4175C11.2561 16.9548 10.8967 17.4183 10.4263 17.7462C9.95583 18.0741 9.39664 18.2509 8.82318 18.253H7.42616C7.22806 18.253 7.03807 18.3317 6.89799 18.4718C6.75791 18.6119 6.67921 18.8019 6.67921 19C6.67921 19.1981 6.75791 19.3881 6.89799 19.5282C7.03807 19.6682 7.22806 19.7469 7.42616 19.7469H8.82318C9.39401 19.7493 9.95053 19.9258 10.4184 20.2529C10.8862 20.58 11.2431 21.042 11.4413 21.5773L14.6458 30.1736C14.648 30.1871 14.648 30.2009 14.6458 30.2144V34.9179C14.6452 35.7311 14.3234 36.5112 13.7505 37.0884C13.1775 37.6657 12.3999 37.9933 11.5866 38ZM0.543031 37.768H11.5866C12.3421 37.7666 13.0663 37.4659 13.6005 36.9317C14.1347 36.3975 14.4354 35.6734 14.4368 34.9179V30.2373L11.2246 21.6564C11.0435 21.165 10.7163 20.7409 10.287 20.4411C9.85766 20.1412 9.34685 19.9799 8.82318 19.9789H7.42616C7.16653 19.9789 6.91754 19.8758 6.73395 19.6922C6.55036 19.5086 6.44723 19.2596 6.44723 19C6.44723 18.7404 6.55036 18.4914 6.73395 18.3078C6.91754 18.1242 7.16653 18.0211 7.42616 18.0211H8.82318C9.34769 18.0198 9.85939 17.8589 10.2902 17.5597C10.721 17.2605 11.0505 16.8372 11.2348 16.3462L14.4266 7.77539V3.07956C14.4252 2.32607 14.1258 1.60372 13.5937 1.0702C13.0617 0.536687 12.3401 0.235353 11.5866 0.231987H0.532834C1.09634 0.465008 1.57807 0.859951 1.91705 1.36684C2.25604 1.87372 2.43704 2.46977 2.43717 3.07956V34.9179C2.43755 35.5281 2.25678 36.1247 1.91776 36.6321C1.57875 37.1395 1.09675 37.5348 0.532834 37.768H0.543031Z" fill="#3C3C3B"/>
<path d="M19.6017 0.117252C18.956 0.117099 18.3258 0.314324 17.7954 0.682489C17.265 1.05065 16.8599 1.57216 16.6343 2.17709L14.5413 7.78557L11.347 16.3767C11.1556 16.891 10.8115 17.3344 10.3608 17.6475C9.91011 17.9605 9.37446 18.1283 8.82573 18.1281H21.9215C22.5044 18.1272 23.0731 17.9486 23.5519 17.6161C24.0306 17.2836 24.3965 16.813 24.6008 16.2671L29.9773 1.86098C30.1098 1.49063 30.3235 1.15463 30.6028 0.877612C30.882 0.600589 31.2197 0.389567 31.591 0.260014V0.107056L19.6017 0.117252Z" fill="#B3B4B3"/>
<path d="M21.919 18.2531H8.82322C8.80654 18.2556 8.78953 18.2544 8.77334 18.2497C8.75715 18.245 8.74216 18.2369 8.72939 18.2259C8.71662 18.2149 8.70638 18.2012 8.69936 18.1859C8.69234 18.1706 8.68871 18.1539 8.68871 18.1371C8.68871 18.1202 8.69234 18.1036 8.69936 18.0882C8.70638 18.0729 8.71662 18.0593 8.72939 18.0483C8.74216 18.0373 8.75715 18.0291 8.77334 18.0244C8.78953 18.0198 8.80654 18.0186 8.82322 18.0211C9.34773 18.0198 9.85943 17.8589 10.2902 17.5597C10.721 17.2605 11.0505 16.8372 11.2349 16.3462L16.5272 2.13635C16.7622 1.51024 17.1822 0.970503 17.7314 0.588896C18.2806 0.207289 18.9329 0.00189675 19.6017 2.89816e-05H31.5834C31.5989 -0.000319359 31.6143 0.00247553 31.6287 0.0082455C31.6431 0.0140155 31.6562 0.0226405 31.6671 0.0336001C31.6781 0.0445596 31.6867 0.0576271 31.6925 0.0720122C31.6983 0.0863973 31.701 0.101802 31.7007 0.117297V0.270256C31.7004 0.294448 31.6927 0.317968 31.6786 0.337594C31.6644 0.357219 31.6445 0.371988 31.6217 0.379876C31.2673 0.505188 30.9451 0.707298 30.678 0.971734C30.4109 1.23617 30.2056 1.55639 30.0768 1.90946L24.7029 16.3181C24.4892 16.8845 24.1087 17.3727 23.6116 17.7182C23.1146 18.0637 22.5243 18.2502 21.919 18.2531ZM9.93726 18.0211H21.919C22.4778 18.0196 23.023 17.848 23.482 17.5293C23.941 17.2105 24.2921 16.7597 24.4887 16.2366L29.8652 1.83043C29.9926 1.47534 30.1917 1.15023 30.45 0.875268C30.7083 0.600305 31.0203 0.381359 31.3667 0.232016H19.6017C18.98 0.233429 18.3734 0.424237 17.8629 0.779022C17.3524 1.13381 16.962 1.63573 16.7439 2.21793L11.4567 16.4176C11.3242 16.774 11.1212 17.1 10.8596 17.376C10.5981 17.652 10.2835 17.8723 9.93471 18.0236L9.93726 18.0211Z" fill="#3C3C3B"/>
<path d="M29.9646 36.1237L24.6723 21.9241C24.4452 21.3199 24.0398 20.7991 23.5098 20.4307C22.9798 20.0623 22.3503 19.8639 21.7049 19.8617H8.82321C9.37058 19.8622 9.90462 20.0306 10.3532 20.3443C10.8018 20.6579 11.1434 21.1017 11.3317 21.6156L14.5388 30.2144L16.7057 36.0218C16.9094 36.5681 17.2752 37.0391 17.754 37.3717C18.2329 37.7043 18.802 37.8826 19.385 37.8828H31.586V37.7298C31.2146 37.5972 30.8769 37.3846 30.5967 37.1071C30.3165 36.8295 30.1007 36.4938 29.9646 36.1237Z" fill="#999999"/>
<path d="M31.5885 38H19.3875C18.7813 37.9978 18.1902 37.8113 17.6925 37.4653C17.1948 37.1192 16.8142 36.63 16.6011 36.0625L11.2246 21.6564C11.0435 21.165 10.7163 20.7409 10.287 20.4411C9.85765 20.1412 9.34684 19.9799 8.82317 19.9789C8.79227 19.9783 8.76282 19.9657 8.74097 19.9439C8.71912 19.922 8.70655 19.8926 8.7059 19.8617C8.70657 19.831 8.71922 19.8018 8.74114 19.7804C8.76306 19.7589 8.79251 19.7469 8.82317 19.7469H21.7048C22.3738 19.749 23.0264 19.9544 23.576 20.336C24.1255 20.7175 24.5461 21.2572 24.7818 21.8833L30.0716 36.0931C30.2032 36.4467 30.411 36.767 30.6801 37.0313C30.9493 37.2957 31.2734 37.4976 31.6293 37.6227C31.6521 37.6303 31.6719 37.6451 31.6856 37.6649C31.6994 37.6846 31.7065 37.7083 31.7058 37.7323V37.8853C31.7051 37.9159 31.6924 37.9451 31.6705 37.9665C31.6486 37.988 31.6192 38 31.5885 38ZM9.93212 19.9789C10.2791 20.1288 10.5919 20.3479 10.8513 20.6227C11.1108 20.8975 11.3116 21.2224 11.4413 21.5774L16.8178 35.9809C17.0147 36.5038 17.3659 36.9545 17.8249 37.2732C18.2838 37.5919 18.8288 37.7636 19.3875 37.7655H31.3692C31.0223 37.6153 30.7093 37.3965 30.4491 37.1222C30.1888 36.848 29.9868 36.5239 29.855 36.1696L24.5626 21.9648C24.3445 21.3826 23.9542 20.8807 23.4436 20.5259C22.9331 20.1712 22.3265 19.9803 21.7048 19.9789H9.93212Z" fill="#3C3C3B"/>
<path d="M43.7079 6.4574V12.0225H42.4332V7.50516H39.9222V12.0225H38.6475V6.4574H43.7079Z" fill="#1D1D1B"/>
<path d="M50.1373 8.47645C50.1373 9.71541 49.2068 10.4879 47.7205 10.4879H46.5988V12.0174H45.3114V6.4574H47.7205C49.2068 6.4574 50.1373 7.22729 50.1373 8.47645ZM48.832 8.47645C48.832 7.86462 48.4343 7.50516 47.6492 7.50516H46.5988V9.43754H47.6492C48.4343 9.43754 48.832 9.08064 48.832 8.47645Z" fill="#1D1D1B"/>
<path d="M51.2564 6.4574H52.531V10.0825L55.1874 6.4574H56.3958V12.0225H55.1211V8.40507L52.4724 12.0225H51.2564V6.4574Z" fill="#1D1D1B"/>
<path d="M65.9047 6.4574V12.0225H64.6301V7.50516H62.1165V12.0225H60.8418V6.4574H65.9047Z" fill="#1D1D1B"/>
<path d="M67.1335 9.2387C67.1335 7.58675 68.4235 6.36053 70.1799 6.36053C71.9364 6.36053 73.2238 7.57146 73.2238 9.2387C73.2238 10.9059 71.9288 12.1169 70.1799 12.1169C68.4311 12.1169 67.1335 10.8856 67.1335 9.2387ZM71.9211 9.2387C71.9126 8.89631 71.8033 8.56403 71.6069 8.28345C71.4104 8.00287 71.1356 7.78646 70.8168 7.66129C70.498 7.53613 70.1493 7.50777 69.8145 7.57977C69.4796 7.65177 69.1734 7.82092 68.9343 8.06607C68.6951 8.31121 68.5335 8.62146 68.4697 8.95798C68.406 9.2945 68.4429 9.64234 68.5759 9.95798C68.7088 10.2736 68.9319 10.543 69.2173 10.7325C69.5026 10.922 69.8374 11.0231 70.1799 11.0232C70.414 11.0295 70.6469 10.9873 70.8638 10.8993C71.0808 10.8112 71.2772 10.6793 71.4408 10.5117C71.6043 10.3441 71.7314 10.1445 71.814 9.92542C71.8967 9.70635 71.9332 9.47255 71.9211 9.2387Z" fill="#1D1D1B"/>
<path d="M80.1631 10.9722V13.1799H78.9725V12.0225H75.044V13.1799H73.851V10.9773H74.0728C74.7968 10.9543 74.9803 9.76127 75.0364 8.20364L75.1001 6.46246H79.3983V10.9722H80.1631ZM75.6253 10.9722H78.1236V7.50513H76.2142L76.1912 8.31836C76.1326 9.50124 76.0051 10.521 75.6253 10.9722Z" fill="#1D1D1B"/>
<path d="M87.301 10.9722V13.1799H86.108V12.0225H82.1718V13.1799H80.9788V10.9773H81.2005C81.9246 10.9543 82.1055 9.76127 82.1616 8.20364L82.2254 6.46246H86.5031V10.9722H87.301ZM82.7607 10.9722H85.2488V7.50513H83.342L83.3165 8.31836C83.2629 9.50124 83.1355 10.521 82.7531 10.9722H82.7607Z" fill="#1D1D1B"/>
<path d="M92.7337 10.9875V12.0225H88.4254V6.4574H92.6317V7.48987H89.7051V8.69824H92.2901V9.70012H89.7051V10.9875H92.7337Z" fill="#1D1D1B"/>
<path d="M98.8851 8.47645C98.8851 9.71541 97.9546 10.4879 96.4684 10.4879H95.3467V12.0174H94.0593V6.4574H96.4786C97.9546 6.4574 98.8851 7.22729 98.8851 8.47645ZM97.5824 8.47645C97.5824 7.86462 97.1847 7.50516 96.397 7.50516H95.3467V9.43754H96.397C97.1847 9.43754 97.5824 9.08064 97.5824 8.47645Z" fill="#1D1D1B"/>
<path d="M104.914 9.77915H104.104V12.0225H102.829V9.77915H102.003L100.754 12.0225H99.2828L100.948 9.10103L99.3797 6.4472H100.741L101.988 8.6957H102.852V6.4574H104.127V8.70589H104.952L106.209 6.4574H107.568L105.988 9.10103L107.65 12.0123H106.166L104.914 9.77915Z" fill="#1D1D1B"/>
<path d="M110.88 9.77915H109.99V12.0225H108.715V6.4574H109.99V8.70589H110.913L112.376 6.4574H113.735L111.915 9.14437L113.791 12.0225H112.328L110.88 9.77915Z" fill="#1D1D1B"/>
<path d="M119.147 10.9875V12.0225H114.834V6.4574H119.04V7.48987H116.108V8.69824H118.693V9.70012H116.108V10.9875H119.147Z" fill="#1D1D1B"/>
<path d="M43.7079 15.9995V21.5671H42.4332V17.0498H39.9222V21.5671H38.6475V15.9995H43.7079Z" fill="#1D1D1B"/>
<path d="M50.1373 18.0236C50.1373 19.2651 49.2068 20.0376 47.7205 20.0376H46.5988V21.5671H45.3114V15.9995H47.7205C49.2068 15.9995 50.1373 16.7719 50.1373 18.0236ZM48.832 18.0236C48.832 17.4118 48.4343 17.0549 47.6492 17.0549H46.5988V18.9872H47.6492C48.4343 18.9821 48.832 18.6252 48.832 18.0236Z" fill="#1D1D1B"/>
<path d="M55.5647 20.5321V21.5671H51.2564V15.9995H55.4627V17.0345H52.5361V18.2428H55.1211V19.2447H52.5361V20.5194L55.5647 20.5321Z" fill="#1D1D1B"/>
<path d="M61.1962 20.007C61.1962 21.0573 60.0516 21.6615 58.7157 21.6615C57.9378 21.6627 57.1728 21.4625 56.4953 21.0802L56.893 20.1574C57.3992 20.4546 57.9757 20.6113 58.5628 20.6112C59.2944 20.6112 59.8909 20.3409 59.8909 19.8234C59.8909 19.4028 59.5111 19.1963 58.9299 19.1963H57.5711V18.2276H58.833C59.3581 18.2276 59.6615 17.9956 59.6615 17.631C59.6615 17.1772 59.1669 16.9376 58.5398 16.9376C58.0164 16.9427 57.5026 17.0794 57.0459 17.3353L56.6559 16.3334C57.2472 16.0348 57.9004 15.8794 58.5628 15.8796C59.8527 15.8796 60.9642 16.4685 60.9642 17.4781C60.9645 17.7333 60.888 17.9828 60.7449 18.1942C60.6017 18.4055 60.3983 18.569 60.1612 18.6635C60.4565 18.744 60.7175 18.9189 60.9043 19.1614C61.0912 19.4039 61.1936 19.7008 61.1962 20.007Z" fill="#1D1D1B"/>
<path d="M62.4657 15.9995H63.7404V19.6246L66.3968 15.9995H67.6077V21.5671H66.333V17.9471L63.6767 21.5671H62.4606L62.4657 15.9995Z" fill="#1D1D1B"/>
<path d="M74.9879 20.5168V22.7194H73.7897V21.5671H69.8664V22.7194H68.6733V20.5168H68.8951C69.6191 20.4913 69.8001 19.3008 69.8562 17.7406L69.9199 15.9995H74.1976V20.5168H74.9879ZM70.4476 20.5168H72.9357V17.0498H71.0288L71.0033 17.8604C70.9575 19.0433 70.83 20.063 70.4476 20.5168Z" fill="#1D1D1B"/>
<path d="M80.4179 20.5321V21.5671H76.1096V15.9995H80.3159V17.0345H77.3995V18.2428H79.9845V19.2447H77.3995V20.5194L80.4179 20.5321Z" fill="#1D1D1B"/>
<path d="M86.8575 15.9995V21.5671H85.5701V19.2728H83.0412V21.5671H81.7538V15.9995H83.0412V18.1944H85.5701V15.9995H86.8575Z" fill="#1D1D1B"/>
<path d="M92.754 17.0498H90.9695V21.5671H89.6949V17.0498H87.9103V15.9995H92.7362L92.754 17.0498Z" fill="#1D1D1B"/>
<path d="M93.376 18.7884C93.376 17.111 94.6634 15.9102 96.397 15.9102C96.829 15.8912 97.2598 15.9701 97.6571 16.1409C98.0544 16.3118 98.4079 16.5702 98.6913 16.8968L97.8654 17.6616C97.6953 17.4557 97.4814 17.2902 97.2393 17.1773C96.9972 17.0644 96.7329 17.0069 96.4658 17.009C95.9925 17.009 95.5386 17.197 95.204 17.5317C94.8693 17.8663 94.6813 18.3202 94.6813 18.7935C94.6813 19.2668 94.8693 19.7207 95.204 20.0554C95.5386 20.39 95.9925 20.578 96.4658 20.578C96.7337 20.5801 96.9986 20.5218 97.2409 20.4075C97.4832 20.2932 97.6966 20.1258 97.8654 19.9178L98.6913 20.6825C98.4093 21.0113 98.0562 21.2717 97.6587 21.4439C97.2612 21.6162 96.8297 21.6958 96.397 21.6768C94.6634 21.6615 93.376 20.4608 93.376 18.7884Z" fill="#1D1D1B"/>
<path d="M101.932 19.3237H101.039V21.5671H99.7646V15.9995H101.039V18.2505H101.962L103.425 15.9995H104.784L102.964 18.6864L104.84 21.5671H103.377L101.932 19.3237Z" fill="#1D1D1B"/>
<path d="M105.235 18.7884C105.235 17.1339 106.51 15.9102 108.279 15.9102C110.049 15.9102 111.326 17.1262 111.326 18.7884C111.326 20.4505 110.028 21.6666 108.279 21.6666C106.531 21.6666 105.235 20.4378 105.235 18.7884ZM110.021 18.7884C110.012 18.446 109.903 18.1137 109.706 17.8331C109.51 17.5526 109.235 17.3361 108.916 17.211C108.597 17.0858 108.249 17.0575 107.914 17.1295C107.579 17.2014 107.273 17.3706 107.034 17.6158C106.794 17.8609 106.633 18.1711 106.569 18.5077C106.505 18.8442 106.542 19.192 106.675 19.5077C106.808 19.8233 107.031 20.0927 107.317 20.2822C107.602 20.4717 107.937 20.5728 108.279 20.5729C108.513 20.5792 108.746 20.537 108.963 20.449C109.18 20.3609 109.377 20.229 109.54 20.0614C109.704 19.8938 109.831 19.6942 109.913 19.4751C109.996 19.256 110.033 19.0222 110.021 18.7884Z" fill="#1D1D1B"/>
<path d="M116.475 17.0498H113.827V21.5671H112.552V15.9995H116.48L116.475 17.0498Z" fill="#1D1D1B"/>
<path d="M117.082 18.7884C117.082 17.1339 118.369 15.9102 120.126 15.9102C121.882 15.9102 123.185 17.1262 123.185 18.7884C123.185 20.4505 121.888 21.6666 120.126 21.6666C118.364 21.6666 117.082 20.4378 117.082 18.7884ZM121.867 18.7884C121.859 18.446 121.749 18.1137 121.553 17.8331C121.356 17.5526 121.082 17.3361 120.763 17.211C120.444 17.0858 120.095 17.0575 119.76 17.1295C119.426 17.2014 119.119 17.3706 118.88 17.6158C118.641 17.8609 118.479 18.1711 118.416 18.5077C118.352 18.8442 118.389 19.192 118.522 19.5077C118.655 19.8233 118.878 20.0927 119.163 20.2822C119.449 20.4717 119.783 20.5728 120.126 20.5729C120.36 20.5792 120.593 20.537 120.81 20.449C121.027 20.3609 121.223 20.229 121.387 20.0614C121.55 19.8938 121.677 19.6942 121.76 19.4751C121.843 19.256 121.879 19.0222 121.867 18.7884Z" fill="#1D1D1B"/>
<path d="M130.894 21.2077V21.8119H129.709V21.2001C127.825 21.0879 126.792 20.2211 126.792 18.768C126.792 17.3149 127.825 16.4456 129.709 16.3334V15.7624H130.894V16.3258C132.771 16.438 133.806 17.3124 133.806 18.768C133.806 20.2237 132.778 21.1134 130.894 21.2077ZM129.709 20.188V17.3328C128.579 17.4373 128.039 17.8911 128.039 18.7578C128.039 19.6246 128.636 20.086 129.709 20.1982V20.188ZM132.564 18.7502C132.564 17.8911 132.001 17.4296 130.894 17.3328V20.188C132.016 20.0962 132.564 19.6246 132.564 18.7604V18.7502Z" fill="#1D1D1B"/>
<path d="M134.759 18.7884C134.759 17.1339 136.046 15.9102 137.803 15.9102C139.559 15.9102 140.849 17.1262 140.849 18.7884C140.849 20.4505 139.562 21.6615 137.803 21.6615C136.044 21.6615 134.759 20.4378 134.759 18.7884ZM139.544 18.7884C139.535 18.446 139.426 18.1137 139.23 17.8331C139.033 17.5526 138.758 17.3361 138.44 17.211C138.121 17.0858 137.772 17.0575 137.437 17.1295C137.102 17.2014 136.796 17.3706 136.557 17.6158C136.318 17.8609 136.156 18.1711 136.093 18.5077C136.029 18.8442 136.066 19.192 136.199 19.5077C136.332 19.8233 136.555 20.0927 136.84 20.2822C137.125 20.4717 137.46 20.5728 137.803 20.5729C138.037 20.5792 138.27 20.537 138.487 20.449C138.704 20.3609 138.9 20.229 139.064 20.0614C139.227 19.8938 139.354 19.6942 139.437 19.4751C139.52 19.256 139.556 19.0222 139.544 18.7884Z" fill="#1D1D1B"/>
<path d="M147.184 15.9995V21.5671H145.91V19.2728H143.381V21.5671H142.091V15.9995H143.381V18.1944H145.91V15.9995H147.184Z" fill="#1D1D1B"/>
<path d="M154.567 20.5168V22.7194H153.374V21.5671H149.446V22.7194H148.252V20.5168H148.484C149.206 20.4913 149.389 19.3008 149.446 17.7406L149.509 15.9995H153.787V20.5168H154.567ZM150.027 20.5168H152.515V17.0498H150.605L150.582 17.8604C150.524 19.0433 150.407 20.063 150.027 20.5168Z" fill="#1D1D1B"/>
<path d="M159.752 20.3741H157.167L156.675 21.5671H155.368L157.848 15.9995H159.123L161.611 21.5671H160.26L159.752 20.3741ZM159.347 19.3951L158.462 17.2588L157.58 19.39L159.347 19.3951Z" fill="#1D1D1B"/>
<path d="M40.7941 28.8658H39.9044V31.1092H38.6297V25.5441H39.9044V27.7926H40.8247L42.288 25.5441H43.6493L41.8265 28.2208L43.7079 31.1092H42.2472L40.7941 28.8658Z" fill="#1D1D1B"/>
<path d="M50.0812 25.5441L47.7103 29.9493C47.2489 30.8084 46.5886 31.2367 45.8417 31.2367C45.5304 31.2331 45.2228 31.1681 44.9367 31.0455L45.2451 30.0665C45.4251 30.1286 45.6132 30.1638 45.8034 30.1711C45.9621 30.168 46.1169 30.122 46.2515 30.0381C46.3862 29.9542 46.4956 29.8354 46.5682 29.6943L46.6167 29.6306L44.4217 25.5517H45.7983L47.2769 28.5421L48.8065 25.5517L50.0812 25.5441Z" fill="#1D1D1B"/>
<path d="M55.7075 25.5441V31.1092H54.4329V26.5918H52.5234L52.4826 27.7543C52.4113 29.9416 52.1028 31.1959 50.7976 31.1959C50.5833 31.1916 50.3703 31.1625 50.1628 31.1092L50.2418 30.0207C50.3164 30.0421 50.3937 30.0524 50.4712 30.0512C51.1239 30.0512 51.2921 29.2253 51.3457 27.8028L51.4272 25.5441H55.7075Z" fill="#1D1D1B"/>
<path d="M62.1113 29.1692C62.1113 30.4438 61.2522 31.1092 59.817 31.1092H57.3033V25.5441H58.578V27.3719H59.9954C61.3491 27.3719 62.1113 27.9659 62.1113 29.1692ZM60.8163 29.1921C60.8163 28.5803 60.4186 28.3254 59.7507 28.3254H58.5882V30.1558H59.7507C60.4109 30.1558 60.8163 29.8218 60.8163 29.1921Z" fill="#1D1D1B"/>
<path d="M67.0494 26.5918H65.2649V31.1092H63.9902V26.5918H62.2057V25.5441H67.0316L67.0494 26.5918Z" fill="#1D1D1B"/>
<path d="M73.4558 25.5441L71.0875 29.9493C70.6261 30.8084 69.9658 31.2367 69.2189 31.2367C68.9068 31.2328 68.5984 31.1679 68.3113 31.0455L68.6223 30.0665C68.8015 30.1284 68.9887 30.1636 69.1781 30.1711C69.3393 30.1705 69.4972 30.1257 69.6347 30.0417C69.7722 29.9576 69.8841 29.8375 69.9582 29.6943L70.0066 29.6306L67.8116 25.5517H69.201L70.6796 28.5421L72.2092 25.5517L73.4558 25.5441Z" fill="#1D1D1B"/>
<path d="M79.309 27.5631C79.309 28.8046 78.381 29.5745 76.8922 29.5745H75.7731V31.1041H74.4831V25.5441H76.8922C78.3785 25.5441 79.309 26.314 79.309 27.5631ZM78.0063 27.5631C78.0063 26.9513 77.6086 26.5918 76.8209 26.5918H75.7731V28.5242H76.8209C77.6137 28.5242 78.0063 28.1673 78.0063 27.5631Z" fill="#1D1D1B"/>
<path d="M85.5344 25.5441V31.1092H84.2419V28.8148H81.7181V31.1092H80.4307V25.5441H81.7181V27.739H84.2419V25.5441H85.5344Z" fill="#1D1D1B"/>
<path d="M91.9383 29.1692C91.9383 30.4438 91.0817 31.1092 89.6439 31.1092H87.1328V25.5441H88.4075V27.3719H89.8224C91.176 27.3719 91.9383 27.9659 91.9383 29.1692ZM90.6432 29.1921C90.6432 28.5803 90.2455 28.3254 89.5776 28.3254H88.4177V30.1558H89.5776C90.2379 30.1558 90.6432 29.8218 90.6432 29.1921ZM92.6546 25.5441H93.9293V31.1092H92.6546V25.5441Z" fill="#1D1D1B"/>
<path d="M96.5908 25.5441L97.7456 27.2292L98.8979 25.5441H100.407L98.5563 28.2208L100.557 31.1092H99.0279L97.7532 29.2635L96.4786 31.1092H94.9923L96.9808 28.2616L95.1198 25.5441H96.5908Z" fill="#1D1D1B"/>
<path d="M104.381 25.5441H105.656V29.1692L108.31 25.5441H109.518V31.1092H108.244V27.4917L105.59 31.1092H104.381V25.5441Z" fill="#1D1D1B"/>
<path d="M116.225 25.5441V31.1092H114.951V28.8148H112.422V31.1092H111.135V25.5441H112.422V27.739H114.951V25.5441H116.225Z" fill="#1D1D1B"/>
<path d="M117.829 25.5441H119.104V29.1692L121.758 25.5441H122.968V31.1092H121.694V27.4917L119.04 31.1092H117.824L117.829 25.5441Z" fill="#1D1D1B"/>
<path d="M130.407 30.0589V32.2997H129.222V31.122H124.572V25.5441H125.847V30.0589H128.345V25.5441H129.62V30.0589H130.407Z" fill="#1D1D1B"/>
<path d="M131.532 25.5441H132.806V29.1692L135.463 25.5441H136.671V31.1092H135.396V27.4917L132.74 31.1092H131.532V25.5441Z" fill="#1D1D1B"/>
<path d="M142.111 29.9161H139.529L139.034 31.1092H137.716L140.197 25.5441H141.471L143.959 31.1092H142.608L142.111 29.9161ZM141.706 28.9397L140.837 26.8085L139.954 28.9397H141.706Z" fill="#1D1D1B"/>
<path d="M148.617 26.5918H146.833V31.1092H145.558V26.5918H143.786V25.5441H148.612L148.617 26.5918Z" fill="#1D1D1B"/>
<path d="M149.678 25.5441H150.952V29.1692L153.609 25.5441H154.817V31.1092H153.542V27.4917L150.886 31.1092H149.67L149.678 25.5441Z" fill="#1D1D1B"/>
<path d="M161.328 29.5439C161.328 30.5127 160.563 31.1092 159.163 31.1092H156.42V25.5441H159.013C160.3 25.5441 161.065 26.0539 161.065 26.9819C161.07 27.2413 160.998 27.4963 160.858 27.7146C160.717 27.9329 160.515 28.1047 160.278 28.2081C160.582 28.2711 160.855 28.4397 161.047 28.6841C161.239 28.9286 161.339 29.2331 161.328 29.5439ZM157.703 27.8486H158.901C159.459 27.8486 159.752 27.6192 159.752 27.1731C159.752 26.7269 159.459 26.4975 158.901 26.4975H157.703V27.8486ZM160.023 29.4394C160.023 28.9703 159.714 28.7485 159.118 28.7485H157.703V30.1558H159.118C159.714 30.1558 160.023 29.9238 160.023 29.4394Z" fill="#1D1D1B"/>
</svg>
