<svg width="18" height="18" viewBox="0 0 18 18" fill="none" xmlns="http://www.w3.org/2000/svg">
<path d="M18 9C18 13.9706 13.9706 18 9 18C4.02944 18 0 13.9706 0 9C0 4.02944 4.02944 0 9 0C13.9706 0 18 4.02944 18 9ZM1.19602 9C1.19602 13.31 4.68998 16.804 9 16.804C13.31 16.804 16.804 13.31 16.804 9C16.804 4.68998 13.31 1.19602 9 1.19602C4.68998 1.19602 1.19602 4.68998 1.19602 9Z" fill="#020726"/>
<g clip-path="url(#clip0_2114_3842)">
<path d="M11.4824 6.46582L12.375 7.3585L8.19931 11.5342L5.625 8.95993L6.51765 8.06725L8.19931 9.74886L11.4824 6.46582Z" fill="#020726"/>
</g>
<defs>
<clipPath id="clip0_2114_3842">
<rect width="6.75" height="6.75" fill="white" transform="translate(5.625 5.625)"/>
</clipPath>
</defs>
</svg>
