<svg width="1139" height="806" viewBox="0 0 1139 806" fill="none" xmlns="http://www.w3.org/2000/svg">
<path d="M172.252 705.304L194.655 805.956H181.187L162.253 716.042L143.319 805.956H129.853L152.255 705.304H172.252Z" fill="#88FF0B"/>
<path d="M107.451 705.306L129.853 805.956H116.385L97.4498 716.044L78.5159 805.956H65.0504L87.4532 705.306H107.451Z" fill="#88FF0B"/>
<path d="M42.6489 705.306L65.0503 805.956H51.5821L32.6482 716.045L13.7143 805.956H0.248779L22.6516 705.306H42.6489Z" fill="#88FF0B"/>
<path d="M42.6503 604.65L65.0518 705.299H51.5836L32.6497 615.386L13.7157 705.299H0.250244L22.653 604.65H42.6503Z" fill="#88FF0B"/>
<path d="M172.252 604.651L194.655 705.299H181.187L162.253 615.388L143.319 705.299H129.853L152.255 604.651H172.252Z" fill="#88FF0B"/>
<path d="M172.253 504.001L194.656 604.65H181.188L162.254 514.739L143.32 604.65H129.855L152.256 504.001H172.253Z" fill="#88FF0B"/>
<path d="M107.452 504.001L129.855 604.65H116.386L97.4512 514.739L78.5172 604.65H65.0518L87.4545 504.001H107.452Z" fill="#88FF0B"/>
<path d="M42.6503 504.001L65.0518 604.65H51.5836L32.6497 514.739L13.7157 604.65H0.250244L22.653 504.001H42.6503Z" fill="#88FF0B"/>
<path d="M172.255 403.349L194.658 504.001H181.189L162.255 414.087L143.322 504.001H129.856L152.258 403.349H172.255Z" fill="#88FF0B"/>
<path d="M42.6517 403.351L65.0531 504.001H51.5849L32.651 414.088L13.7171 504.001H0.251587L22.6544 403.351H42.6517Z" fill="#88FF0B"/>
<path d="M172.253 302.668L194.656 403.318H181.188L162.254 313.404L143.32 403.318H129.855L152.256 302.668H172.253Z" fill="#88FF0B"/>
<path d="M107.452 302.668L129.855 403.319H116.386L97.4512 313.404L78.5172 403.319H65.0518L87.4545 302.668H107.452Z" fill="#88FF0B"/>
<path d="M42.6503 302.668L65.0518 403.319H51.5836L32.6497 313.404L13.7157 403.319H0.250244L22.653 302.668H42.6503Z" fill="#88FF0B"/>
<path d="M42.6517 202.011L65.0531 302.661H51.5849L32.651 212.748L13.7171 302.661H0.251587L22.6544 202.011H42.6517Z" fill="#88FF0B"/>
<path d="M172.253 202.012L194.656 302.662H181.188L162.254 212.75L143.32 302.662H129.855L152.256 202.012H172.253Z" fill="#88FF0B"/>
<path d="M172.255 101.362L194.658 202.011H181.189L162.255 112.098L143.322 202.011H129.856L152.258 101.362H172.255Z" fill="#88FF0B"/>
<path d="M107.453 101.363L129.856 202.011H116.388L97.4525 112.099L78.5186 202.011H65.0531L87.4559 101.363H107.453Z" fill="#88FF0B"/>
<path d="M42.6517 101.363L65.0531 202.011H51.5849L32.651 112.099L13.7171 202.011H0.251587L22.6544 101.363H42.6517Z" fill="#88FF0B"/>
<path d="M172.256 0.711328L194.659 101.362H181.191L162.257 11.4502L143.323 101.362H129.857L152.259 0.711328H172.256Z" fill="#88FF0B"/>
<path d="M42.653 0.71138L65.0545 101.363H51.5863L32.6523 11.4503L13.7184 101.363H0.25293L22.6557 0.71138H42.653Z" fill="#88FF0B"/>
<path d="M1116.59 705.304L1138.99 805.956H1125.52L1106.59 716.042L1087.65 805.956H1074.19L1096.59 705.304H1116.59Z" fill="#88FF0B"/>
<path d="M1051.79 705.306L1074.19 805.956H1060.72L1041.79 716.045L1022.85 805.956H1009.39L1031.79 705.306H1051.79Z" fill="#88FF0B"/>
<path d="M986.985 705.306L1009.39 805.956H995.918L976.984 716.045L958.05 805.956H944.584L966.987 705.306H986.985Z" fill="#88FF0B"/>
<path d="M986.986 604.65L1009.39 705.299H995.919L976.985 615.386L958.051 705.299H944.586L966.989 604.65H986.986Z" fill="#88FF0B"/>
<path d="M1116.59 604.651L1138.99 705.299H1125.52L1106.59 615.388L1087.65 705.299H1074.19L1096.59 604.651H1116.59Z" fill="#88FF0B"/>
<path d="M1116.59 504.001L1138.99 604.65H1125.52L1106.59 514.739L1087.66 604.65H1074.19L1096.59 504.001H1116.59Z" fill="#88FF0B"/>
<path d="M1051.79 504.001L1074.19 604.65H1060.72L1041.79 514.739L1022.85 604.65H1009.39L1031.79 504.001H1051.79Z" fill="#88FF0B"/>
<path d="M986.986 504.001L1009.39 604.65H995.919L976.985 514.739L958.051 604.65H944.586L966.989 504.001H986.986Z" fill="#88FF0B"/>
<path d="M1116.59 403.349L1138.99 504.001H1125.53L1106.59 414.087L1087.66 504.001H1074.19L1096.59 403.349H1116.59Z" fill="#88FF0B"/>
<path d="M986.987 403.351L1009.39 504.001H995.92L976.987 414.088L958.053 504.001H944.587L966.99 403.351H986.987Z" fill="#88FF0B"/>
<path d="M1116.59 302.668L1138.99 403.318H1125.52L1106.59 313.404L1087.66 403.318H1074.19L1096.59 302.668H1116.59Z" fill="#88FF0B"/>
<path d="M1051.79 302.668L1074.19 403.32H1060.72L1041.79 313.404L1022.85 403.32H1009.39L1031.79 302.668H1051.79Z" fill="#88FF0B"/>
<path d="M986.986 302.668L1009.39 403.32H995.919L976.985 313.404L958.051 403.32H944.586L966.989 302.668H986.986Z" fill="#88FF0B"/>
<path d="M986.987 202.011L1009.39 302.661H995.92L976.987 212.748L958.053 302.661H944.587L966.99 202.011H986.987Z" fill="#88FF0B"/>
<path d="M1116.59 202.012L1138.99 302.662H1125.52L1106.59 212.75L1087.66 302.662H1074.19L1096.59 202.012H1116.59Z" fill="#88FF0B"/>
<path d="M1116.59 101.362L1138.99 202.011H1125.53L1106.59 112.098L1087.66 202.011H1074.19L1096.59 101.362H1116.59Z" fill="#88FF0B"/>
<path d="M1051.79 101.363L1074.19 202.011H1060.72L1041.79 112.099L1022.85 202.011H1009.39L1031.79 101.363H1051.79Z" fill="#88FF0B"/>
<path d="M986.987 101.363L1009.39 202.011H995.92L976.987 112.099L958.053 202.011H944.587L966.99 101.363H986.987Z" fill="#88FF0B"/>
<path d="M1116.59 0.71145L1138.99 101.362H1125.53L1106.59 11.4503L1087.66 101.362H1074.19L1096.59 0.71145H1116.59Z" fill="#88FF0B"/>
<path d="M986.989 0.71138L1009.39 101.363H995.922L976.988 11.4503L958.054 101.363H944.589L966.991 0.71138H986.989Z" fill="#88FF0B"/>
</svg>
