<svg width="1139" height="806" viewBox="0 0 1139 806" fill="none" xmlns="http://www.w3.org/2000/svg">
<path d="M172.252 704.568L194.655 805.22H181.187L162.253 715.306L143.319 805.22H129.853L152.255 704.568H172.252Z" fill="#020726"/>
<path d="M107.451 704.57L129.853 805.22H116.385L97.4499 715.309L78.516 805.22H65.0505L87.4533 704.57H107.451Z" fill="#020726"/>
<path d="M42.649 704.57L65.0504 805.22H51.5822L32.6483 715.309L13.7144 805.22H0.248901L22.6517 704.57H42.649Z" fill="#020726"/>
<path d="M42.6503 603.914L65.0518 704.563H51.5836L32.6497 614.65L13.7157 704.563H0.250244L22.653 603.914H42.6503Z" fill="#020726"/>
<path d="M172.252 603.915L194.655 704.563H181.187L162.253 614.652L143.319 704.563H129.853L152.255 603.915H172.252Z" fill="#020726"/>
<path d="M172.253 503.265L194.656 603.914H181.188L162.254 514.003L143.32 603.914H129.855L152.256 503.265H172.253Z" fill="#020726"/>
<path d="M107.452 503.265L129.855 603.914H116.387L97.4513 514.003L78.5174 603.914H65.0519L87.4547 503.265H107.452Z" fill="#020726"/>
<path d="M42.6503 503.265L65.0518 603.914H51.5836L32.6497 514.003L13.7157 603.914H0.250244L22.653 503.265H42.6503Z" fill="#020726"/>
<path d="M172.255 402.613L194.658 503.265H181.189L162.255 413.351L143.322 503.265H129.856L152.258 402.613H172.255Z" fill="#020726"/>
<path d="M42.6518 402.615L65.0532 503.265H51.5851L32.6511 413.352L13.7172 503.265H0.251709L22.6545 402.615H42.6518Z" fill="#020726"/>
<path d="M172.253 301.932L194.656 402.582H181.188L162.254 312.668L143.32 402.582H129.855L152.256 301.932H172.253Z" fill="#020726"/>
<path d="M107.452 301.932L129.855 402.584H116.387L97.4513 312.668L78.5174 402.584H65.0519L87.4547 301.932H107.452Z" fill="#020726"/>
<path d="M42.6503 301.932L65.0518 402.584H51.5836L32.6497 312.668L13.7157 402.584H0.250244L22.653 301.932H42.6503Z" fill="#020726"/>
<path d="M42.6518 201.275L65.0532 301.925H51.5851L32.6511 212.013L13.7172 301.925H0.251709L22.6545 201.275H42.6518Z" fill="#020726"/>
<path d="M172.253 201.276L194.656 301.927H181.188L162.254 212.014L143.32 301.927H129.855L152.256 201.276H172.253Z" fill="#020726"/>
<path d="M172.255 100.626L194.658 201.275H181.189L162.255 111.362L143.322 201.275H129.856L152.258 100.626H172.255Z" fill="#020726"/>
<path d="M107.453 100.627L129.856 201.275H116.388L97.4526 111.364L78.5187 201.275H65.0532L87.456 100.627H107.453Z" fill="#020726"/>
<path d="M42.6518 100.627L65.0532 201.275H51.5851L32.6511 111.364L13.7172 201.275H0.251709L22.6545 100.627H42.6518Z" fill="#020726"/>
<path d="M172.256 -0.0242372L194.659 100.626H181.191L162.257 10.7147L143.323 100.626H129.857L152.259 -0.0242372H172.256Z" fill="#020726"/>
<path d="M42.6532 -0.0243068L65.0546 100.627H51.5864L32.6525 10.7146L13.7185 100.627H0.253052L22.6558 -0.0243068H42.6532Z" fill="#020726"/>
<path d="M1116.59 704.568L1138.99 805.22H1125.52L1106.59 715.306L1087.65 805.22H1074.19L1096.59 704.568H1116.59Z" fill="#020726"/>
<path d="M1051.79 704.57L1074.19 805.22H1060.72L1041.79 715.309L1022.85 805.22H1009.39L1031.79 704.57H1051.79Z" fill="#020726"/>
<path d="M986.985 704.57L1009.39 805.22H995.918L976.984 715.309L958.05 805.22H944.584L966.987 704.57H986.985Z" fill="#020726"/>
<path d="M986.986 603.914L1009.39 704.563H995.919L976.985 614.65L958.051 704.563H944.586L966.989 603.914H986.986Z" fill="#020726"/>
<path d="M1116.59 603.915L1138.99 704.563H1125.52L1106.59 614.652L1087.65 704.563H1074.19L1096.59 603.915H1116.59Z" fill="#020726"/>
<path d="M1116.59 503.265L1138.99 603.914H1125.52L1106.59 514.003L1087.66 603.914H1074.19L1096.59 503.265H1116.59Z" fill="#020726"/>
<path d="M1051.79 503.265L1074.19 603.914H1060.72L1041.79 514.003L1022.85 603.914H1009.39L1031.79 503.265H1051.79Z" fill="#020726"/>
<path d="M986.986 503.265L1009.39 603.914H995.919L976.985 514.003L958.051 603.914H944.586L966.989 503.265H986.986Z" fill="#020726"/>
<path d="M1116.59 402.613L1138.99 503.265H1125.53L1106.59 413.351L1087.66 503.265H1074.19L1096.59 402.613H1116.59Z" fill="#020726"/>
<path d="M986.987 402.615L1009.39 503.265H995.92L976.987 413.352L958.053 503.265H944.587L966.99 402.615H986.987Z" fill="#020726"/>
<path d="M1116.59 301.932L1138.99 402.582H1125.52L1106.59 312.668L1087.66 402.582H1074.19L1096.59 301.932H1116.59Z" fill="#020726"/>
<path d="M1051.79 301.932L1074.19 402.584H1060.72L1041.79 312.668L1022.85 402.584H1009.39L1031.79 301.932H1051.79Z" fill="#020726"/>
<path d="M986.986 301.932L1009.39 402.584H995.919L976.985 312.668L958.051 402.584H944.586L966.989 301.932H986.986Z" fill="#020726"/>
<path d="M986.987 201.275L1009.39 301.925H995.92L976.987 212.013L958.053 301.925H944.587L966.99 201.275H986.987Z" fill="#020726"/>
<path d="M1116.59 201.276L1138.99 301.927H1125.52L1106.59 212.014L1087.66 301.927H1074.19L1096.59 201.276H1116.59Z" fill="#020726"/>
<path d="M1116.59 100.626L1138.99 201.275H1125.53L1106.59 111.362L1087.66 201.275H1074.19L1096.59 100.626H1116.59Z" fill="#020726"/>
<path d="M1051.79 100.627L1074.19 201.275H1060.72L1041.79 111.364L1022.85 201.275H1009.39L1031.79 100.627H1051.79Z" fill="#020726"/>
<path d="M986.987 100.627L1009.39 201.275H995.92L976.987 111.364L958.053 201.275H944.587L966.99 100.627H986.987Z" fill="#020726"/>
<path d="M1116.59 -0.0242677L1138.99 100.626H1125.53L1106.59 10.7146L1087.66 100.626H1074.19L1096.59 -0.0242677H1116.59Z" fill="#020726"/>
<path d="M986.989 -0.0243373L1009.39 100.627H995.922L976.988 10.7146L958.054 100.627H944.589L966.991 -0.0243373H986.989Z" fill="#020726"/>
</svg>
