<svg width="407" height="81" viewBox="0 0 407 81" fill="none" xmlns="http://www.w3.org/2000/svg">
<path d="M42.3946 18.0701H44.221V3.3151H42.3946V2.19508H58.8811V3.3151H57.0547V18.0701H58.8811V19.1902H53.1339V18.0701H54.9604V3.38814H46.3153V18.0701H48.1417V19.1902H42.3946V18.0701Z" fill="#231F20"/>
<path d="M61.1972 22.9398H62.9993V8.2091L61.1972 7.89257V7.06473L64.9962 6.33428V8.52563H65.0936C65.3696 7.92504 65.8079 7.41372 66.4086 6.99169C67.0093 6.55342 67.8048 6.33428 68.7951 6.33428C70.3537 6.33428 71.5957 6.90241 72.521 8.03866C73.4627 9.15868 73.9335 10.7819 73.9335 12.9083C73.9335 15.0347 73.4627 16.6661 72.521 17.8023C71.5957 18.9223 70.3537 19.4823 68.7951 19.4823C67.821 19.4823 67.0255 19.2713 66.4086 18.8493C65.8079 18.4273 65.3696 17.9159 65.0936 17.3153H64.9962V22.9398H67.2853V24.0598H61.1972V22.9398ZM68.2107 18.0945C69.3309 18.0945 70.1995 17.7212 70.8164 16.9745C71.4495 16.2116 71.7661 15.1971 71.7661 13.9309V11.8857C71.7661 10.6196 71.4495 9.61318 70.8164 8.8665C70.1995 8.10359 69.3309 7.72213 68.2107 7.72213C67.821 7.72213 67.4314 7.77895 67.0418 7.89257C66.6521 8.0062 66.3031 8.16852 65.9946 8.37954C65.7024 8.59055 65.4589 8.85839 65.264 9.18303C65.0855 9.49144 64.9962 9.84043 64.9962 10.23V15.5866C64.9962 15.9762 65.0855 16.3333 65.264 16.6579C65.4589 16.9664 65.7024 17.2261 65.9946 17.4371C66.3031 17.6481 66.6521 17.8104 67.0418 17.9241C67.4314 18.0377 67.821 18.0945 68.2107 18.0945Z" fill="#231F20"/>
<path d="M82.2631 18.2893C82.8638 18.2893 83.3833 18.1919 83.8217 17.9971C84.2762 17.7861 84.6415 17.502 84.9175 17.1449C85.2097 16.7716 85.4208 16.3414 85.5507 15.8545C85.6968 15.3513 85.7698 14.8075 85.7698 14.2231V11.5935C85.7698 11.0091 85.6968 10.4735 85.5507 9.98652C85.4208 9.48333 85.2097 9.05317 84.9175 8.69606C84.6415 8.32272 84.2762 8.03866 83.8217 7.84388C83.3833 7.63286 82.8638 7.52735 82.2631 7.52735C81.6462 7.52735 81.1186 7.63286 80.6802 7.84388C80.2419 8.03866 79.8766 8.32272 79.5844 8.69606C79.3084 9.05317 79.0973 9.48333 78.9512 9.98652C78.8213 10.4735 78.7564 11.0091 78.7564 11.5935V14.2231C78.7564 14.8075 78.8213 15.3513 78.9512 15.8545C79.0973 16.3414 79.3084 16.7716 79.5844 17.1449C79.8766 17.502 80.2419 17.7861 80.6802 17.9971C81.1186 18.1919 81.6462 18.2893 82.2631 18.2893ZM82.2631 19.4823C81.4027 19.4823 80.6153 19.3281 79.9009 19.0197C79.1866 18.7113 78.5778 18.273 78.0745 17.7049C77.5712 17.1206 77.1816 16.4307 76.9056 15.6353C76.6296 14.8237 76.4916 13.9147 76.4916 12.9083C76.4916 11.9182 76.6296 11.0173 76.9056 10.2057C77.1816 9.39405 77.5712 8.70418 78.0745 8.13605C78.5778 7.5517 79.1866 7.10531 79.9009 6.7969C80.6153 6.48849 81.4027 6.33428 82.2631 6.33428C83.1236 6.33428 83.9109 6.48849 84.6253 6.7969C85.3396 7.10531 85.9484 7.5517 86.4517 8.13605C86.955 8.70418 87.3446 9.39405 87.6206 10.2057C87.8966 11.0173 88.0346 11.9182 88.0346 12.9083C88.0346 13.9147 87.8966 14.8237 87.6206 15.6353C87.3446 16.4307 86.955 17.1206 86.4517 17.7049C85.9484 18.273 85.3396 18.7113 84.6253 19.0197C83.9109 19.3281 83.1236 19.4823 82.2631 19.4823Z" fill="#231F20"/>
<path d="M90.3353 18.0701H92.1374V7.72213H90.3353V6.62646H95.7172V7.72213H94.1343V17.9971H98.7369V7.72213H97.154V6.62646H102.317V7.72213H100.734V17.9971H105.336V7.72213H103.753V6.62646H109.135V7.72213H107.333V18.0701H109.135V19.1902H90.3353V18.0701Z" fill="#231F20"/>
<path d="M117.149 19.4823C116.256 19.4823 115.452 19.3281 114.738 19.0197C114.04 18.6951 113.447 18.2487 112.96 17.6806C112.473 17.1124 112.1 16.4226 111.84 15.611C111.58 14.7994 111.451 13.8985 111.451 12.9083C111.451 11.9344 111.589 11.0497 111.864 10.2544C112.157 9.44274 112.546 8.74476 113.033 8.1604C113.537 7.57604 114.129 7.12966 114.811 6.82125C115.493 6.49661 116.24 6.33428 117.052 6.33428C117.88 6.33428 118.618 6.48037 119.268 6.77255C119.917 7.06473 120.461 7.47865 120.899 8.01431C121.354 8.53374 121.703 9.15868 121.946 9.88913C122.19 10.6196 122.312 11.415 122.312 12.2753V12.8353H113.667V13.4683C113.667 14.8481 114.007 15.9356 114.689 16.731C115.387 17.5264 116.313 17.9241 117.466 17.9241C118.472 17.9241 119.268 17.7212 119.852 17.3153C120.453 16.8933 120.924 16.3495 121.264 15.684L122.068 16.1953C121.906 16.6174 121.678 17.0313 121.386 17.4371C121.11 17.8267 120.769 18.1757 120.363 18.4841C119.958 18.7762 119.487 19.0116 118.951 19.1902C118.415 19.385 117.815 19.4823 117.149 19.4823ZM113.667 11.7152H120.217V11.4718C120.217 10.9036 120.152 10.3761 120.023 9.88913C119.909 9.40216 119.722 8.98013 119.462 8.62302C119.203 8.26591 118.87 7.98996 118.464 7.79518C118.074 7.58416 117.604 7.47865 117.052 7.47865C116.5 7.47865 116.013 7.57604 115.59 7.77083C115.168 7.96562 114.811 8.24156 114.519 8.59867C114.243 8.95578 114.032 9.37782 113.886 9.86478C113.74 10.3355 113.667 10.8549 113.667 11.4231V11.7152Z" fill="#231F20"/>
<path d="M125.724 19.4823C124.994 19.4823 124.442 19.2957 124.068 18.9223C123.711 18.5328 123.532 18.0701 123.532 17.5345C123.532 17.1124 123.638 16.7716 123.849 16.5119C124.076 16.2521 124.401 16.1223 124.823 16.1223C125.197 16.1223 125.481 16.2278 125.675 16.4388C125.887 16.6498 125.992 16.9339 125.992 17.291C125.992 17.5507 125.927 17.778 125.797 17.9728C125.667 18.1513 125.521 18.273 125.359 18.338V18.411C125.408 18.4435 125.464 18.4597 125.529 18.4597C125.611 18.4597 125.684 18.4597 125.749 18.4597C126.122 18.4597 126.439 18.3299 126.698 18.0701C126.861 17.9078 127.023 17.6725 127.185 17.364C127.348 17.0394 127.486 16.5524 127.599 15.9031C127.729 15.2539 127.827 14.3936 127.892 13.3222C127.973 12.2347 128.013 10.8468 128.013 9.15868V7.72213H126.211V6.62646H136.902V7.72213H135.1V18.0701H136.902V19.1902H131.301V18.0701H133.103V7.81953H129.474V9.03694C129.474 10.7251 129.434 12.1292 129.353 13.2492C129.288 14.3692 129.182 15.2944 129.036 16.0249C128.906 16.7553 128.736 17.3316 128.525 17.7536C128.33 18.1594 128.094 18.4922 127.819 18.7519C127.543 19.0278 127.218 19.2145 126.844 19.3119C126.471 19.4255 126.098 19.4823 125.724 19.4823Z" fill="#231F20"/>
<path d="M150.635 18.2893C151.236 18.2893 151.755 18.1919 152.194 17.9971C152.648 17.7861 153.014 17.502 153.289 17.1449C153.582 16.7716 153.793 16.3414 153.923 15.8545C154.069 15.3513 154.142 14.8075 154.142 14.2231V11.5935C154.142 11.0091 154.069 10.4735 153.923 9.98652C153.793 9.48333 153.582 9.05317 153.289 8.69606C153.014 8.32272 152.648 8.03866 152.194 7.84388C151.755 7.63286 151.236 7.52735 150.635 7.52735C150.018 7.52735 149.491 7.63286 149.052 7.84388C148.614 8.03866 148.249 8.32272 147.956 8.69606C147.68 9.05317 147.469 9.48333 147.323 9.98652C147.193 10.4735 147.128 11.0091 147.128 11.5935V14.2231C147.128 14.8075 147.193 15.3513 147.323 15.8545C147.469 16.3414 147.68 16.7716 147.956 17.1449C148.249 17.502 148.614 17.7861 149.052 17.9971C149.491 18.1919 150.018 18.2893 150.635 18.2893ZM150.635 19.4823C149.775 19.4823 148.987 19.3281 148.273 19.0197C147.559 18.7113 146.95 18.273 146.446 17.7049C145.943 17.1206 145.554 16.4307 145.278 15.6353C145.002 14.8237 144.864 13.9147 144.864 12.9083C144.864 11.9182 145.002 11.0173 145.278 10.2057C145.554 9.39405 145.943 8.70418 146.446 8.13605C146.95 7.5517 147.559 7.10531 148.273 6.7969C148.987 6.48849 149.775 6.33428 150.635 6.33428C151.496 6.33428 152.283 6.48849 152.997 6.7969C153.712 7.10531 154.32 7.5517 154.824 8.13605C155.327 8.70418 155.717 9.39405 155.993 10.2057C156.269 11.0173 156.407 11.9182 156.407 12.9083C156.407 13.9147 156.269 14.8237 155.993 15.6353C155.717 16.4307 155.327 17.1206 154.824 17.7049C154.32 18.273 153.712 18.7113 152.997 19.0197C152.283 19.3281 151.496 19.4823 150.635 19.4823Z" fill="#231F20"/>
<path d="M164.305 19.4823C162.811 19.4823 161.577 18.9791 160.603 17.9728C160.019 17.3559 159.556 16.5524 159.215 15.5623C158.891 14.5721 158.728 13.3709 158.728 11.9587C158.728 10.7738 158.769 9.73492 158.85 8.84215C158.931 7.93315 159.053 7.14589 159.215 6.48037C159.394 5.79862 159.613 5.21426 159.873 4.7273C160.133 4.24033 160.441 3.81018 160.798 3.43684C161.025 3.19336 161.277 2.99857 161.553 2.85248C161.829 2.69016 162.146 2.5603 162.503 2.46291C162.876 2.34928 163.306 2.26001 163.794 2.19508C164.297 2.13015 164.881 2.05711 165.547 1.97594C166.164 1.89478 166.675 1.82985 167.081 1.78116C167.487 1.73246 167.828 1.68376 168.104 1.63507L168.226 0.685486H169.2C169.297 0.977665 169.346 1.32666 169.346 1.73246C169.346 2.1058 169.297 2.42233 169.2 2.68204C169.119 2.92553 168.989 3.14466 168.81 3.33945C168.696 3.45307 168.558 3.55858 168.396 3.65597C168.234 3.73714 168.015 3.8183 167.739 3.89946C167.479 3.96439 167.146 4.0212 166.74 4.06989C166.351 4.11859 165.863 4.16729 165.279 4.21598C164.695 4.24845 164.191 4.28903 163.769 4.33773C163.363 4.37019 163.006 4.41889 162.698 4.48381C162.405 4.54874 162.154 4.63802 161.943 4.75165C161.732 4.84904 161.537 4.9789 161.358 5.14122C161.163 5.35224 160.993 5.5876 160.847 5.84732C160.701 6.10703 160.571 6.41544 160.457 6.77255C160.36 7.12966 160.271 7.5517 160.189 8.03866C160.124 8.52563 160.068 9.10187 160.019 9.76739H160.116C160.522 8.82592 161.074 8.11171 161.772 7.62474C162.47 7.12154 163.388 6.86994 164.524 6.86994C166.148 6.86994 167.438 7.39749 168.396 8.45258C169.354 9.50767 169.833 11.0416 169.833 13.0544C169.833 14.0283 169.703 14.913 169.443 15.7084C169.184 16.5037 168.81 17.1855 168.323 17.7536C167.852 18.3055 167.276 18.7357 166.594 19.0441C165.912 19.3363 165.149 19.4823 164.305 19.4823ZM164.281 18.2893C164.849 18.2893 165.336 18.1919 165.742 17.9971C166.164 17.8023 166.505 17.5264 166.765 17.1693C167.041 16.8122 167.243 16.3901 167.373 15.9031C167.503 15.4162 167.568 14.8886 167.568 14.3205V12.0318C167.568 11.4637 167.503 10.9361 167.373 10.4491C167.243 9.96217 167.041 9.54825 166.765 9.20738C166.505 8.85027 166.164 8.57432 165.742 8.37954C165.336 8.16852 164.849 8.06301 164.281 8.06301C163.712 8.06301 163.217 8.16852 162.795 8.37954C162.389 8.57432 162.048 8.85027 161.772 9.20738C161.513 9.54825 161.318 9.96217 161.188 10.4491C161.058 10.9361 160.993 11.4637 160.993 12.0318V14.3205C160.993 14.8886 161.058 15.4162 161.188 15.9031C161.318 16.3901 161.513 16.8122 161.772 17.1693C162.048 17.5264 162.389 17.8023 162.795 17.9971C163.217 18.1919 163.712 18.2893 164.281 18.2893Z" fill="#231F20"/>
<path d="M173.803 24.352C172.975 24.352 172.374 24.1734 172.001 23.8163C171.627 23.4755 171.441 23.021 171.441 22.4528C171.441 22.0308 171.554 21.6899 171.781 21.4302C172.009 21.1705 172.333 21.0406 172.756 21.0406C173.129 21.0406 173.413 21.1461 173.608 21.3572C173.819 21.5844 173.924 21.8847 173.924 22.258C173.924 22.534 173.851 22.7531 173.705 22.9154C173.575 23.094 173.429 23.2076 173.267 23.2563V23.3294C173.446 23.3943 173.657 23.4268 173.9 23.4268C174.322 23.4268 174.736 23.2401 175.142 22.8668C175.548 22.5096 175.913 21.9172 176.238 21.0893L176.749 19.7015L172.122 7.74648H170.856V6.62646H176.067V7.74648H174.314L177.699 16.9501H177.797L181.084 7.74648H179.331V6.62646H183.763V7.74648H182.496L177.285 21.2841C176.944 22.1769 176.481 22.9073 175.897 23.4755C175.329 24.0598 174.631 24.352 173.803 24.352Z" fill="#231F20"/>
<path d="M191.92 18.0701H194.209V13.0057H194.136C193.746 13.4764 193.251 13.8579 192.651 14.1501C192.066 14.4423 191.336 14.5883 190.459 14.5883C189.193 14.5883 188.243 14.2962 187.61 13.7118C186.977 13.1274 186.66 12.1697 186.66 10.8387V7.72213H184.858V6.62646H190.337V7.72213H188.657V10.6439C188.657 11.5692 188.852 12.2266 189.241 12.6161C189.647 13.0057 190.345 13.2005 191.336 13.2005C192.196 13.2005 192.886 13.0463 193.406 12.7379C193.941 12.4295 194.209 11.9668 194.209 11.35V7.72213H192.529V6.62646H198.008V7.72213H196.206V18.0701H198.008V19.1902H191.92V18.0701Z" fill="#231F20"/>
<path d="M206.021 19.4823C205.128 19.4823 204.324 19.3281 203.61 19.0197C202.912 18.6951 202.319 18.2487 201.832 17.6806C201.345 17.1124 200.972 16.4226 200.712 15.611C200.452 14.7994 200.322 13.8985 200.322 12.9083C200.322 11.9344 200.46 11.0497 200.736 10.2544C201.028 9.44274 201.418 8.74476 201.905 8.1604C202.408 7.57604 203.001 7.12966 203.683 6.82125C204.365 6.49661 205.111 6.33428 205.923 6.33428C206.751 6.33428 207.49 6.48037 208.139 6.77255C208.789 7.06473 209.333 7.47865 209.771 8.01431C210.225 8.53374 210.575 9.15868 210.818 9.88913C211.062 10.6196 211.183 11.415 211.183 12.2753V12.8353H202.538V13.4683C202.538 14.8481 202.879 15.9356 203.561 16.731C204.259 17.5264 205.185 17.9241 206.337 17.9241C207.344 17.9241 208.139 17.7212 208.724 17.3153C209.324 16.8933 209.795 16.3495 210.136 15.684L210.94 16.1953C210.777 16.6174 210.55 17.0313 210.258 17.4371C209.982 17.8267 209.641 18.1757 209.235 18.4841C208.829 18.7762 208.358 19.0116 207.823 19.1902C207.287 19.385 206.686 19.4823 206.021 19.4823ZM202.538 11.7152H209.089V11.4718C209.089 10.9036 209.024 10.3761 208.894 9.88913C208.781 9.40216 208.594 8.98013 208.334 8.62302C208.074 8.26591 207.742 7.98996 207.336 7.79518C206.946 7.58416 206.475 7.47865 205.923 7.47865C205.371 7.47865 204.884 7.57604 204.462 7.77083C204.04 7.96562 203.683 8.24156 203.391 8.59867C203.115 8.95578 202.904 9.37782 202.757 9.86478C202.611 10.3355 202.538 10.8549 202.538 11.4231V11.7152Z" fill="#231F20"/>
<path d="M213.5 18.0701H215.302V7.72213H213.5V6.62646H219.101V7.72213H217.299V12.2266H223.338V7.72213H221.536V6.62646H227.137V7.72213H225.335V18.0701H227.137V19.1902H221.536V18.0701H223.338V13.4196H217.299V18.0701H219.101V19.1902H213.5V18.0701Z" fill="#231F20"/>
<path d="M229.576 18.0701H231.378V7.72213H229.576V6.62646H235.129V7.72213H233.327V12.324L233.107 15.7084H233.181L239.463 8.45258V7.72213H237.661V6.62646H243.214V7.72213H241.412V18.0701H243.214V19.1902H237.661V18.0701H239.463V13.517L239.683 10.1083H239.585L233.327 17.364V18.0701H235.129V19.1902H229.576V18.0701Z" fill="#231F20"/>
<path d="M251.229 19.4823C250.336 19.4823 249.533 19.3281 248.819 19.0197C248.12 18.6951 247.528 18.2487 247.041 17.6806C246.554 17.1124 246.18 16.4226 245.921 15.611C245.661 14.7994 245.531 13.8985 245.531 12.9083C245.531 11.9344 245.669 11.0497 245.945 10.2544C246.237 9.44274 246.627 8.74476 247.114 8.1604C247.617 7.57604 248.21 7.12966 248.892 6.82125C249.573 6.49661 250.32 6.33428 251.132 6.33428C251.96 6.33428 252.699 6.48037 253.348 6.77255C253.997 7.06473 254.541 7.47865 254.98 8.01431C255.434 8.53374 255.783 9.15868 256.027 9.88913C256.27 10.6196 256.392 11.415 256.392 12.2753V12.8353H247.747V13.4683C247.747 14.8481 248.088 15.9356 248.77 16.731C249.468 17.5264 250.393 17.9241 251.546 17.9241C252.553 17.9241 253.348 17.7212 253.933 17.3153C254.533 16.8933 255.004 16.3495 255.345 15.684L256.149 16.1953C255.986 16.6174 255.759 17.0313 255.467 17.4371C255.191 17.8267 254.85 18.1757 254.444 18.4841C254.038 18.7762 253.567 19.0116 253.031 19.1902C252.496 19.385 251.895 19.4823 251.229 19.4823ZM247.747 11.7152H254.298V11.4718C254.298 10.9036 254.233 10.3761 254.103 9.88913C253.989 9.40216 253.803 8.98013 253.543 8.62302C253.283 8.26591 252.95 7.98996 252.544 7.79518C252.155 7.58416 251.684 7.47865 251.132 7.47865C250.58 7.47865 250.093 7.57604 249.671 7.77083C249.249 7.96562 248.892 8.24156 248.599 8.59867C248.323 8.95578 248.112 9.37782 247.966 9.86478C247.82 10.3355 247.747 10.8549 247.747 11.4231V11.7152Z" fill="#231F20"/>
<path d="M264.369 18.0701H266.171V7.72213H264.369V6.62646H269.97V7.72213H268.168V12.2266H274.207V7.72213H272.405V6.62646H278.006V7.72213H276.204V18.0701H278.006V19.1902H272.405V18.0701H274.207V13.4196H268.168V18.0701H269.97V19.1902H264.369V18.0701Z" fill="#231F20"/>
<path d="M284.171 19.4823C283.002 19.4823 282.085 19.182 281.419 18.5815C280.77 17.9646 280.445 17.1287 280.445 16.0736C280.445 15.473 280.543 14.9455 280.737 14.491C280.932 14.0202 281.249 13.6306 281.687 13.3222C282.142 13.0138 282.726 12.7785 283.44 12.6161C284.155 12.4538 285.023 12.3727 286.046 12.3727H287.848V10.5222C287.848 9.53202 287.605 8.77723 287.118 8.2578C286.647 7.72213 285.933 7.4543 284.975 7.4543C284.553 7.4543 284.163 7.49488 283.806 7.57604C283.449 7.64097 283.156 7.73837 282.929 7.86822V7.91692C283.108 8.01431 283.278 8.1604 283.44 8.35519C283.619 8.54997 283.708 8.82592 283.708 9.18303C283.708 9.60507 283.587 9.93783 283.343 10.1813C283.1 10.4086 282.775 10.5222 282.369 10.5222C281.979 10.5222 281.655 10.4086 281.395 10.1813C281.151 9.93783 281.03 9.58072 281.03 9.10998C281.03 8.75288 281.135 8.412 281.346 8.08736C281.557 7.74648 281.858 7.44619 282.247 7.18647C282.637 6.92676 283.116 6.72386 283.684 6.57777C284.268 6.41544 284.926 6.33428 285.657 6.33428C286.972 6.33428 287.994 6.67516 288.725 7.35691C289.472 8.03866 289.845 8.99636 289.845 10.23V18.1432H291.672V18.9954C291.493 19.1252 291.249 19.2389 290.941 19.3363C290.649 19.4336 290.316 19.4823 289.943 19.4823C289.309 19.4823 288.822 19.3038 288.481 18.9467C288.14 18.5896 287.97 18.1107 287.97 17.5101V17.3397H287.848C287.735 17.6156 287.58 17.8835 287.386 18.1432C287.207 18.4029 286.972 18.6302 286.679 18.8249C286.387 19.0197 286.03 19.1739 285.608 19.2876C285.202 19.4174 284.723 19.4823 284.171 19.4823ZM285.023 18.1432C285.803 18.1432 286.468 17.9484 287.02 17.5588C287.572 17.153 287.848 16.5362 287.848 15.7084V13.3466H286.265C285.567 13.3466 284.983 13.4034 284.512 13.517C284.041 13.6144 283.668 13.7686 283.392 13.9796C283.116 14.1744 282.913 14.4179 282.783 14.7101C282.669 15.0023 282.612 15.3431 282.612 15.7327V16.244C282.612 16.8608 282.824 17.3316 283.246 17.6562C283.668 17.9809 284.26 18.1432 285.023 18.1432Z" fill="#231F20"/>
<path d="M299.399 18.0701H301.201V7.72213H299.399V6.62646H305V7.72213H303.198V12.2753H305.219L306.583 9.20738C307.054 8.13605 307.533 7.38937 308.02 6.96734C308.523 6.5453 309.083 6.33428 309.7 6.33428C310.236 6.33428 310.65 6.48849 310.942 6.7969C311.234 7.10531 311.38 7.49488 311.38 7.96562C311.38 8.43635 311.251 8.81781 310.991 9.10998C310.747 9.38593 310.414 9.52391 309.992 9.52391C309.57 9.52391 309.246 9.39405 309.018 9.13433C308.791 8.87462 308.677 8.50939 308.677 8.03866H308.604C308.474 8.20098 308.328 8.42012 308.166 8.69606C308.004 8.95578 307.841 9.26419 307.679 9.6213L306.315 12.6892C306.64 12.7379 306.916 12.8434 307.143 13.0057C307.37 13.168 307.59 13.4115 307.801 13.7362L310.601 18.0701H311.965V19.1902H308.97L305.219 13.3953H303.198V18.0701H305V19.1902H299.399V18.0701Z" fill="#231F20"/>
<path d="M315.517 24.352C314.689 24.352 314.088 24.1734 313.715 23.8163C313.342 23.4755 313.155 23.021 313.155 22.4528C313.155 22.0308 313.269 21.6899 313.496 21.4302C313.723 21.1705 314.048 21.0406 314.47 21.0406C314.843 21.0406 315.127 21.1461 315.322 21.3572C315.533 21.5844 315.639 21.8847 315.639 22.258C315.639 22.534 315.566 22.7531 315.42 22.9154C315.29 23.094 315.144 23.2076 314.981 23.2563V23.3294C315.16 23.3943 315.371 23.4268 315.614 23.4268C316.037 23.4268 316.451 23.2401 316.856 22.8668C317.262 22.5096 317.628 21.9172 317.952 21.0893L318.464 19.7015L313.837 7.74648H312.57V6.62646H317.782V7.74648H316.028L319.413 16.9501H319.511L322.798 7.74648H321.045V6.62646H325.477V7.74648H324.211L318.999 21.2841C318.659 22.1769 318.196 22.9073 317.611 23.4755C317.043 24.0598 316.345 24.352 315.517 24.352Z" fill="#231F20"/>
<path d="M326.481 22.9398H328.283V8.2091L326.481 7.89257V7.06473L330.279 6.33428V8.52563H330.377C330.653 7.92504 331.091 7.41372 331.692 6.99169C332.293 6.55342 333.088 6.33428 334.078 6.33428C335.637 6.33428 336.879 6.90241 337.804 8.03866C338.746 9.15868 339.217 10.7819 339.217 12.9083C339.217 15.0347 338.746 16.6661 337.804 17.8023C336.879 18.9223 335.637 19.4823 334.078 19.4823C333.104 19.4823 332.309 19.2713 331.692 18.8493C331.091 18.4273 330.653 17.9159 330.377 17.3153H330.279V22.9398H332.569V24.0598H326.481V22.9398ZM333.494 18.0945C334.614 18.0945 335.483 17.7212 336.1 16.9745C336.733 16.2116 337.049 15.1971 337.049 13.9309V11.8857C337.049 10.6196 336.733 9.61318 336.1 8.8665C335.483 8.10359 334.614 7.72213 333.494 7.72213C333.104 7.72213 332.715 7.77895 332.325 7.89257C331.935 8.0062 331.586 8.16852 331.278 8.37954C330.986 8.59055 330.742 8.85839 330.547 9.18303C330.369 9.49144 330.279 9.84043 330.279 10.23V15.5866C330.279 15.9762 330.369 16.3333 330.547 16.6579C330.742 16.9664 330.986 17.2261 331.278 17.4371C331.586 17.6481 331.935 17.8104 332.325 17.9241C332.715 18.0377 333.104 18.0945 333.494 18.0945Z" fill="#231F20"/>
<path d="M347.498 19.4823C346.589 19.4823 345.777 19.3281 345.063 19.0197C344.364 18.6951 343.772 18.2487 343.285 17.6806C342.798 17.0962 342.424 16.4063 342.165 15.611C341.905 14.7994 341.775 13.8985 341.775 12.9083C341.775 11.9019 341.913 10.9929 342.189 10.1813C342.481 9.3697 342.887 8.67983 343.407 8.11171C343.926 7.54358 344.543 7.10531 345.257 6.7969C345.988 6.48849 346.792 6.33428 347.668 6.33428C348.983 6.33428 350.022 6.61835 350.785 7.18647C351.565 7.73837 351.954 8.44447 351.954 9.30477C351.954 9.8242 351.816 10.23 351.54 10.5222C351.28 10.8144 350.915 10.9605 350.444 10.9605C349.941 10.9605 349.568 10.8144 349.324 10.5222C349.081 10.23 348.959 9.88101 348.959 9.47521C348.959 9.1181 349.048 8.80969 349.227 8.54998C349.405 8.29026 349.657 8.08736 349.982 7.94127V7.86822C349.771 7.73837 349.495 7.64097 349.154 7.57604C348.829 7.51112 348.407 7.47865 347.887 7.47865C347.319 7.47865 346.792 7.58416 346.304 7.79518C345.834 8.0062 345.428 8.30649 345.087 8.69606C344.746 9.0694 344.478 9.51579 344.283 10.0352C344.088 10.5384 343.991 11.0903 343.991 11.6909V13.4927C343.991 14.1582 344.08 14.7669 344.259 15.3188C344.437 15.8545 344.689 16.3171 345.014 16.7066C345.355 17.0962 345.753 17.3965 346.207 17.6075C346.678 17.8185 347.206 17.9241 347.79 17.9241C348.78 17.9241 349.56 17.7212 350.128 17.3153C350.696 16.8933 351.151 16.3495 351.492 15.684L352.271 16.1953C352.125 16.6174 351.914 17.0313 351.638 17.4371C351.362 17.8267 351.029 18.1757 350.639 18.4841C350.25 18.7762 349.787 19.0116 349.251 19.1902C348.732 19.385 348.147 19.4823 347.498 19.4823Z" fill="#231F20"/>
<path d="M359.792 19.4823C358.899 19.4823 358.096 19.3281 357.381 19.0197C356.683 18.6951 356.091 18.2487 355.604 17.6806C355.117 17.1124 354.743 16.4226 354.483 15.611C354.224 14.7994 354.094 13.8985 354.094 12.9083C354.094 11.9344 354.232 11.0497 354.508 10.2544C354.8 9.44274 355.19 8.74476 355.677 8.1604C356.18 7.57604 356.773 7.12966 357.454 6.82125C358.136 6.49661 358.883 6.33428 359.695 6.33428C360.523 6.33428 361.262 6.48037 361.911 6.77255C362.56 7.06473 363.104 7.47865 363.542 8.01431C363.997 8.53374 364.346 9.15868 364.59 9.88913C364.833 10.6196 364.955 11.415 364.955 12.2753V12.8353H356.31V13.4683C356.31 14.8481 356.651 15.9356 357.333 16.731C358.031 17.5264 358.956 17.9241 360.109 17.9241C361.115 17.9241 361.911 17.7212 362.495 17.3153C363.096 16.8933 363.567 16.3495 363.908 15.684L364.711 16.1953C364.549 16.6174 364.322 17.0313 364.03 17.4371C363.754 17.8267 363.413 18.1757 363.007 18.4841C362.601 18.7762 362.13 19.0116 361.594 19.1902C361.059 19.385 360.458 19.4823 359.792 19.4823ZM356.31 11.7152H362.861V11.4718C362.861 10.9036 362.796 10.3761 362.666 9.88913C362.552 9.40216 362.365 8.98013 362.106 8.62302C361.846 8.26591 361.513 7.98996 361.107 7.79518C360.718 7.58416 360.247 7.47865 359.695 7.47865C359.143 7.47865 358.656 7.57604 358.234 7.77083C357.812 7.96562 357.454 8.24156 357.162 8.59867C356.886 8.95578 356.675 9.37782 356.529 9.86478C356.383 10.3355 356.31 10.8549 356.31 11.4231V11.7152Z" fill="#231F20"/>
<path d="M57.3059 40.7817V39.6616L62.0059 35.3033L62.4929 35.9607L59.4002 40.2217L62.4929 44.4826L62.0059 45.14L57.3059 40.7817ZM62.3225 40.7817V39.6616L67.0225 35.3033L67.5095 35.9607L64.4168 40.2217L67.5095 44.4826L67.0225 45.14L62.3225 40.7817Z" fill="#231F20"/>
<path d="M70.1826 46.0409H72.009V31.2858H70.1826V30.1658H75.9297V31.2858H74.1033V37.9329H76.5142L78.925 33.185C79.2497 32.5357 79.5582 32.0001 79.8504 31.578C80.1427 31.156 80.4268 30.8232 80.7028 30.5797C80.995 30.32 81.2953 30.1415 81.6038 30.0441C81.9123 29.9305 82.237 29.8736 82.5779 29.8736C83.1623 29.8736 83.6088 30.0441 83.9173 30.385C84.242 30.7096 84.4043 31.1154 84.4043 31.6024C84.4043 32.0406 84.2826 32.414 84.039 32.7224C83.7955 33.0308 83.4383 33.185 82.9675 33.185C82.5454 33.185 82.2045 33.047 81.9447 32.7711C81.685 32.4951 81.5551 32.1218 81.5551 31.6511H81.482C81.271 31.927 81.0437 32.2598 80.8002 32.6493C80.5566 33.0389 80.3456 33.4204 80.167 33.7937L77.8535 38.3712C78.1295 38.4199 78.3812 38.5254 78.6085 38.6877C78.8358 38.8338 79.0793 39.1016 79.339 39.4912L83.6007 46.0409H85.281V47.1609H81.7743L76.5385 39.1016H74.1033V46.0409H75.9297V47.1609H70.1826V46.0409Z" fill="#231F20"/>
<path d="M86.179 50.9105H87.9811V36.1798L86.179 35.8633V35.0355L89.978 34.305V36.4964H90.0754C90.3514 35.8958 90.7897 35.3845 91.3904 34.9624C91.9911 34.5242 92.7866 34.305 93.7769 34.305C95.3355 34.305 96.5774 34.8732 97.5028 36.0094C98.4444 37.1294 98.9153 38.7526 98.9153 40.8791C98.9153 43.0055 98.4444 44.6368 97.5028 45.7731C96.5774 46.8931 95.3355 47.4531 93.7769 47.4531C92.8028 47.4531 92.0073 47.2421 91.3904 46.82C90.7897 46.398 90.3514 45.8867 90.0754 45.2861H89.978V50.9105H92.2671V52.0306H86.179V50.9105ZM93.1925 46.0652C94.3127 46.0652 95.1812 45.6919 95.7982 44.9452C96.4313 44.1823 96.7479 43.1678 96.7479 41.9017V39.8564C96.7479 38.5903 96.4313 37.5839 95.7982 36.8372C95.1812 36.0743 94.3127 35.6929 93.1925 35.6929C92.8028 35.6929 92.4132 35.7497 92.0235 35.8633C91.6339 35.9769 91.2849 36.1393 90.9764 36.3503C90.6842 36.5613 90.4406 36.8291 90.2458 37.1538C90.0672 37.4622 89.978 37.8112 89.978 38.2007V43.5574C89.978 43.9469 90.0672 44.304 90.2458 44.6287C90.4406 44.9371 90.6842 45.1968 90.9764 45.4078C91.2849 45.6189 91.6339 45.7812 92.0235 45.8948C92.4132 46.0084 92.8028 46.0652 93.1925 46.0652Z" fill="#231F20"/>
<path d="M107.172 47.4531C106.279 47.4531 105.475 47.2989 104.761 46.9905C104.063 46.6658 103.47 46.2194 102.983 45.6513C102.496 45.0832 102.123 44.3933 101.863 43.5817C101.603 42.7701 101.473 41.8692 101.473 40.8791C101.473 39.9051 101.611 39.0205 101.887 38.2251C102.18 37.4135 102.569 36.7155 103.056 36.1311C103.56 35.5468 104.152 35.1004 104.834 34.792C105.516 34.4673 106.263 34.305 107.074 34.305C107.902 34.305 108.641 34.4511 109.29 34.7433C109.94 35.0355 110.484 35.4494 110.922 35.9851C111.377 36.5045 111.726 37.1294 111.969 37.8599C112.213 38.5903 112.335 39.3857 112.335 40.246V40.806H103.689V41.4391C103.689 42.8188 104.03 43.9064 104.712 44.7017C105.41 45.4971 106.336 45.8948 107.488 45.8948C108.495 45.8948 109.29 45.6919 109.875 45.2861C110.476 44.8641 110.946 44.3203 111.287 43.6548L112.091 44.1661C111.929 44.5881 111.701 45.002 111.409 45.4078C111.133 45.7974 110.792 46.1464 110.386 46.4548C109.98 46.747 109.51 46.9824 108.974 47.1609C108.438 47.3557 107.837 47.4531 107.172 47.4531ZM103.689 39.686H110.24V39.4425C110.24 38.8744 110.175 38.3468 110.045 37.8599C109.932 37.3729 109.745 36.9509 109.485 36.5938C109.226 36.2367 108.893 35.9607 108.487 35.7659C108.097 35.5549 107.626 35.4494 107.074 35.4494C106.522 35.4494 106.035 35.5468 105.613 35.7416C105.191 35.9364 104.834 36.2123 104.542 36.5694C104.266 36.9265 104.055 37.3486 103.909 37.8355C103.763 38.3063 103.689 38.8257 103.689 39.3938V39.686Z" fill="#231F20"/>
<path d="M118.615 47.4531C117.446 47.4531 116.529 47.1528 115.863 46.5522C115.214 45.9354 114.889 45.0994 114.889 44.0443C114.889 43.4437 114.986 42.9162 115.181 42.4617C115.376 41.991 115.693 41.6014 116.131 41.293C116.586 40.9846 117.17 40.7492 117.884 40.5869C118.599 40.4246 119.467 40.3434 120.49 40.3434H122.292V38.4929C122.292 37.5028 122.049 36.748 121.562 36.2285C121.091 35.6929 120.376 35.425 119.419 35.425C118.996 35.425 118.607 35.4656 118.25 35.5468C117.892 35.6117 117.6 35.7091 117.373 35.839V35.8877C117.552 35.9851 117.722 36.1311 117.884 36.3259C118.063 36.5207 118.152 36.7967 118.152 37.1538C118.152 37.5758 118.03 37.9086 117.787 38.1521C117.543 38.3793 117.219 38.4929 116.813 38.4929C116.423 38.4929 116.099 38.3793 115.839 38.1521C115.595 37.9086 115.473 37.5515 115.473 37.0807C115.473 36.7236 115.579 36.3827 115.79 36.0581C116.001 35.7172 116.301 35.4169 116.691 35.1572C117.081 34.8975 117.56 34.6946 118.128 34.5485C118.712 34.3862 119.37 34.305 120.1 34.305C121.415 34.305 122.438 34.6459 123.169 35.3277C123.916 36.0094 124.289 36.9671 124.289 38.2007V46.1139H126.115V46.9661C125.937 47.096 125.693 47.2096 125.385 47.307C125.093 47.4044 124.76 47.4531 124.386 47.4531C123.753 47.4531 123.266 47.2745 122.925 46.9174C122.584 46.5603 122.414 46.0815 122.414 45.4809V45.3104H122.292C122.179 45.5864 122.024 45.8542 121.829 46.1139C121.651 46.3736 121.415 46.6009 121.123 46.7957C120.831 46.9905 120.474 47.1447 120.052 47.2583C119.646 47.3882 119.167 47.4531 118.615 47.4531ZM119.467 46.1139C120.247 46.1139 120.912 45.9191 121.464 45.5296C122.016 45.1238 122.292 44.5069 122.292 43.6791V41.3173H120.709C120.011 41.3173 119.427 41.3741 118.956 41.4878C118.485 41.5852 118.112 41.7394 117.836 41.9504C117.56 42.1452 117.357 42.3887 117.227 42.6808C117.113 42.973 117.056 43.3139 117.056 43.7035V44.2148C117.056 44.8316 117.267 45.3023 117.69 45.627C118.112 45.9516 118.704 46.1139 119.467 46.1139Z" fill="#231F20"/>
<path d="M129.725 46.0409H132.014V35.7903H128.945V38.2981H127.484V34.5972H138.54V38.2981H137.079V35.7903H134.011V46.0409H136.3V47.1609H129.725V46.0409Z" fill="#231F20"/>
<path d="M140.597 46.0409H142.399V35.6929H140.597V34.5972H146.149V35.6929H144.347V40.2947L144.128 43.6791H144.201L150.484 36.4233V35.6929H148.682V34.5972H154.234V35.6929H152.432V46.0409H154.234V47.1609H148.682V46.0409H150.484V41.4878L150.703 38.079H150.606L144.347 45.3348V46.0409H146.149V47.1609H140.597V46.0409Z" fill="#231F20"/>
<path d="M156.673 46.0409H158.475V35.6929H156.673V34.5972H163.687C164.856 34.5972 165.757 34.8732 166.39 35.425C167.023 35.9769 167.34 36.6993 167.34 37.592C167.34 38.5173 167.088 39.2071 166.585 39.6616C166.098 40.1161 165.505 40.4164 164.807 40.5625V40.6599C165.164 40.6924 165.513 40.7817 165.854 40.9278C166.211 41.0738 166.528 41.2767 166.804 41.5365C167.08 41.7799 167.307 42.0884 167.486 42.4617C167.664 42.8188 167.754 43.2408 167.754 43.7278C167.754 44.8803 167.396 45.7406 166.682 46.3087C165.984 46.8768 165.002 47.1609 163.735 47.1609H156.673V46.0409ZM163.541 45.9678C164.239 45.9678 164.758 45.7893 165.099 45.4322C165.456 45.0588 165.635 44.5881 165.635 44.02V43.3139C165.635 42.7458 165.456 42.2831 165.099 41.926C164.742 41.5527 164.222 41.366 163.541 41.366H160.472V45.9678H163.541ZM163.297 40.173C163.914 40.173 164.385 40.0025 164.71 39.6616C165.05 39.3045 165.221 38.8663 165.221 38.3468V37.6164C165.221 37.097 165.05 36.6668 164.71 36.3259C164.385 35.9688 163.914 35.7903 163.297 35.7903H160.472V40.173H163.297Z" fill="#231F20"/>
<path d="M170.3 46.0409H172.102V35.6929H170.3V34.5972H175.901V35.6929H174.099V40.1973H180.138V35.6929H178.336V34.5972H183.937V35.6929H182.135V46.0409H183.937V47.1609H178.336V46.0409H180.138V41.3904H174.099V46.0409H175.901V47.1609H170.3V46.0409Z" fill="#231F20"/>
<path d="M192.026 46.26C192.627 46.26 193.146 46.1626 193.585 45.9678C194.039 45.7568 194.405 45.4728 194.681 45.1157C194.973 44.7423 195.184 44.3122 195.314 43.8252C195.46 43.322 195.533 42.7782 195.533 42.1939V39.5643C195.533 38.9799 195.46 38.4442 195.314 37.9573C195.184 37.4541 194.973 37.0239 194.681 36.6668C194.405 36.2935 194.039 36.0094 193.585 35.8146C193.146 35.6036 192.627 35.4981 192.026 35.4981C191.409 35.4981 190.882 35.6036 190.443 35.8146C190.005 36.0094 189.64 36.2935 189.347 36.6668C189.071 37.0239 188.86 37.4541 188.714 37.9573C188.584 38.4442 188.519 38.9799 188.519 39.5643V42.1939C188.519 42.7782 188.584 43.322 188.714 43.8252C188.86 44.3122 189.071 44.7423 189.347 45.1157C189.64 45.4728 190.005 45.7568 190.443 45.9678C190.882 46.1626 191.409 46.26 192.026 46.26ZM192.026 47.4531C191.166 47.4531 190.378 47.2989 189.664 46.9905C188.95 46.6821 188.341 46.2438 187.838 45.6757C187.334 45.0913 186.945 44.4014 186.669 43.6061C186.393 42.7945 186.255 41.8855 186.255 40.8791C186.255 39.8889 186.393 38.988 186.669 38.1764C186.945 37.3648 187.334 36.6749 187.838 36.1068C188.341 35.5224 188.95 35.0761 189.664 34.7676C190.378 34.4592 191.166 34.305 192.026 34.305C192.887 34.305 193.674 34.4592 194.388 34.7676C195.103 35.0761 195.711 35.5224 196.215 36.1068C196.718 36.6749 197.108 37.3648 197.384 38.1764C197.66 38.988 197.798 39.8889 197.798 40.8791C197.798 41.8855 197.66 42.7945 197.384 43.6061C197.108 44.4014 196.718 45.0913 196.215 45.6757C195.711 46.2438 195.103 46.6821 194.388 46.9905C193.674 47.2989 192.887 47.4531 192.026 47.4531Z" fill="#231F20"/>
<path d="M205.913 47.4531C205.02 47.4531 204.216 47.2989 203.502 46.9905C202.804 46.6658 202.211 46.2194 201.724 45.6513C201.237 45.0832 200.864 44.3933 200.604 43.5817C200.344 42.7701 200.214 41.8692 200.214 40.8791C200.214 39.9051 200.352 39.0205 200.628 38.2251C200.921 37.4135 201.31 36.7155 201.797 36.1311C202.301 35.5468 202.893 35.1004 203.575 34.792C204.257 34.4673 205.004 34.305 205.815 34.305C206.643 34.305 207.382 34.4511 208.032 34.7433C208.681 35.0355 209.225 35.4494 209.663 35.9851C210.118 36.5045 210.467 37.1294 210.71 37.8599C210.954 38.5903 211.076 39.3857 211.076 40.246V40.806H202.431V41.4391C202.431 42.8188 202.771 43.9064 203.453 44.7017C204.151 45.4971 205.077 45.8948 206.229 45.8948C207.236 45.8948 208.032 45.6919 208.616 45.2861C209.217 44.8641 209.687 44.3203 210.028 43.6548L210.832 44.1661C210.67 44.5881 210.442 45.002 210.15 45.4078C209.874 45.7974 209.533 46.1464 209.127 46.4548C208.722 46.747 208.251 46.9824 207.715 47.1609C207.179 47.3557 206.579 47.4531 205.913 47.4531ZM202.431 39.686H208.981V39.4425C208.981 38.8744 208.916 38.3468 208.786 37.8599C208.673 37.3729 208.486 36.9509 208.226 36.5938C207.967 36.2367 207.634 35.9607 207.228 35.7659C206.838 35.5549 206.367 35.4494 205.815 35.4494C205.263 35.4494 204.776 35.5468 204.354 35.7416C203.932 35.9364 203.575 36.2123 203.283 36.5694C203.007 36.9265 202.796 37.3486 202.65 37.8355C202.504 38.3063 202.431 38.8257 202.431 39.3938V39.686Z" fill="#231F20"/>
<path d="M220.148 47.4531C219.418 47.4531 218.866 47.2664 218.492 46.8931C218.135 46.5035 217.956 46.0409 217.956 45.5052C217.956 45.0832 218.062 44.7423 218.273 44.4826C218.5 44.2229 218.825 44.093 219.247 44.093C219.62 44.093 219.905 44.1985 220.099 44.4096C220.31 44.6206 220.416 44.9046 220.416 45.2617C220.416 45.5215 220.351 45.7487 220.221 45.9435C220.091 46.122 219.945 46.2438 219.783 46.3087V46.3818C219.832 46.4142 219.888 46.4305 219.953 46.4305C220.035 46.4305 220.108 46.4305 220.172 46.4305C220.546 46.4305 220.862 46.3006 221.122 46.0409C221.285 45.8786 221.447 45.6432 221.609 45.3348C221.772 45.0101 221.91 44.5232 222.023 43.8739C222.153 43.2246 222.251 42.3643 222.316 41.293C222.397 40.2054 222.437 38.8176 222.437 37.1294V35.6929H220.635V34.5972H231.326V35.6929H229.524V46.0409H231.326V47.1609H225.725V46.0409H227.527V35.7903H223.898V37.0077C223.898 38.6958 223.858 40.0999 223.777 41.2199C223.712 42.34 223.606 43.2652 223.46 43.9956C223.33 44.7261 223.16 45.3023 222.949 45.7244C222.754 46.1302 222.518 46.4629 222.242 46.7226C221.966 46.9986 221.642 47.1853 221.268 47.2827C220.895 47.3963 220.522 47.4531 220.148 47.4531Z" fill="#231F20"/>
<path d="M233.749 46.0409H235.551V35.6929H233.749V34.5972H239.302V35.6929H237.5V40.2947L237.28 43.6791H237.353L243.636 36.4233V35.6929H241.834V34.5972H247.387V35.6929H245.585V46.0409H247.387V47.1609H241.834V46.0409H243.636V41.4878L243.856 38.079H243.758L237.5 45.3348V46.0409H239.302V47.1609H233.749V46.0409Z" fill="#231F20"/>
<path d="M249.046 45.9678H250.8C251.547 44.9939 252.139 43.7603 252.577 42.2669C253.032 40.7573 253.259 38.9393 253.259 36.8129V35.6929H251.433V34.5972H262.002V35.6929H260.2V45.9678H262.635V50.8131H260.833V47.1609H250.848V50.8131H249.046V45.9678ZM258.203 45.9678V35.7903H254.72V36.8129C254.72 38.8095 254.518 40.595 254.112 42.1695C253.706 43.744 253.162 45.0101 252.48 45.9678H258.203Z" fill="#231F20"/>
<path d="M270.052 47.4531C269.159 47.4531 268.355 47.2989 267.641 46.9905C266.943 46.6658 266.35 46.2194 265.863 45.6513C265.376 45.0832 265.003 44.3933 264.743 43.5817C264.483 42.7701 264.353 41.8692 264.353 40.8791C264.353 39.9051 264.491 39.0205 264.767 38.2251C265.06 37.4135 265.449 36.7155 265.936 36.1311C266.44 35.5468 267.032 35.1004 267.714 34.792C268.396 34.4673 269.143 34.305 269.954 34.305C270.782 34.305 271.521 34.4511 272.17 34.7433C272.82 35.0355 273.364 35.4494 273.802 35.9851C274.257 36.5045 274.606 37.1294 274.849 37.8599C275.093 38.5903 275.214 39.3857 275.214 40.246V40.806H266.569V41.4391C266.569 42.8188 266.91 43.9064 267.592 44.7017C268.29 45.4971 269.216 45.8948 270.368 45.8948C271.375 45.8948 272.17 45.6919 272.755 45.2861C273.356 44.8641 273.826 44.3203 274.167 43.6548L274.971 44.1661C274.809 44.5881 274.581 45.002 274.289 45.4078C274.013 45.7974 273.672 46.1464 273.266 46.4548C272.86 46.747 272.39 46.9824 271.854 47.1609C271.318 47.3557 270.717 47.4531 270.052 47.4531ZM266.569 39.686H273.12V39.4425C273.12 38.8744 273.055 38.3468 272.925 37.8599C272.812 37.3729 272.625 36.9509 272.365 36.5938C272.105 36.2367 271.773 35.9607 271.367 35.7659C270.977 35.5549 270.506 35.4494 269.954 35.4494C269.402 35.4494 268.915 35.5468 268.493 35.7416C268.071 35.9364 267.714 36.2123 267.422 36.5694C267.146 36.9265 266.935 37.3486 266.789 37.8355C266.642 38.3063 266.569 38.8257 266.569 39.3938V39.686Z" fill="#231F20"/>
<path d="M277.288 50.9105H279.09V36.1798L277.288 35.8633V35.0355L281.087 34.305V36.4964H281.184C281.46 35.8958 281.898 35.3845 282.499 34.9624C283.1 34.5242 283.895 34.305 284.886 34.305C286.444 34.305 287.686 34.8732 288.611 36.0094C289.553 37.1294 290.024 38.7526 290.024 40.8791C290.024 43.0055 289.553 44.6368 288.611 45.7731C287.686 46.8931 286.444 47.4531 284.886 47.4531C283.911 47.4531 283.116 47.2421 282.499 46.82C281.898 46.398 281.46 45.8867 281.184 45.2861H281.087V50.9105H283.376V52.0306H277.288V50.9105ZM284.301 46.0652C285.421 46.0652 286.29 45.6919 286.907 44.9452C287.54 44.1823 287.857 43.1678 287.857 41.9017V39.8564C287.857 38.5903 287.54 37.5839 286.907 36.8372C286.29 36.0743 285.421 35.6929 284.301 35.6929C283.911 35.6929 283.522 35.7497 283.132 35.8633C282.743 35.9769 282.394 36.1393 282.085 36.3503C281.793 36.5613 281.549 36.8291 281.354 37.1538C281.176 37.4622 281.087 37.8112 281.087 38.2007V43.5574C281.087 43.9469 281.176 44.304 281.354 44.6287C281.549 44.9371 281.793 45.1968 282.085 45.4078C282.394 45.6189 282.743 45.7812 283.132 45.8948C283.522 46.0084 283.911 46.0652 284.301 46.0652Z" fill="#231F20"/>
<path d="M298.305 47.4531C297.396 47.4531 296.584 47.2989 295.87 46.9905C295.171 46.6658 294.579 46.2194 294.092 45.6513C293.605 45.067 293.231 44.3771 292.972 43.5817C292.712 42.7701 292.582 41.8692 292.582 40.8791C292.582 39.8727 292.72 38.9637 292.996 38.1521C293.288 37.3404 293.694 36.6506 294.214 36.0824C294.733 35.5143 295.35 35.0761 296.064 34.7676C296.795 34.4592 297.599 34.305 298.475 34.305C299.79 34.305 300.829 34.5891 301.592 35.1572C302.372 35.7091 302.761 36.4152 302.761 37.2755C302.761 37.7949 302.623 38.2007 302.347 38.4929C302.088 38.7851 301.722 38.9312 301.251 38.9312C300.748 38.9312 300.375 38.7851 300.131 38.4929C299.888 38.2007 299.766 37.8518 299.766 37.446C299.766 37.0888 299.855 36.7804 300.034 36.5207C300.212 36.261 300.464 36.0581 300.789 35.912V35.839C300.578 35.7091 300.302 35.6117 299.961 35.5468C299.636 35.4819 299.214 35.4494 298.694 35.4494C298.126 35.4494 297.599 35.5549 297.112 35.7659C296.641 35.9769 296.235 36.2772 295.894 36.6668C295.553 37.0401 295.285 37.4865 295.09 38.006C294.895 38.5092 294.798 39.0611 294.798 39.6616V41.4634C294.798 42.1289 294.887 42.7376 295.066 43.2895C295.245 43.8252 295.496 44.2878 295.821 44.6774C296.162 45.067 296.56 45.3673 297.014 45.5783C297.485 45.7893 298.013 45.8948 298.597 45.8948C299.587 45.8948 300.367 45.6919 300.935 45.2861C301.503 44.8641 301.958 44.3203 302.299 43.6548L303.078 44.1661C302.932 44.5881 302.721 45.002 302.445 45.4078C302.169 45.7974 301.836 46.1464 301.446 46.4548C301.057 46.747 300.594 46.9824 300.058 47.1609C299.539 47.3557 298.954 47.4531 298.305 47.4531Z" fill="#231F20"/>
<path d="M307.111 46.0409H309.4V35.7903H306.332V38.2981H304.871V34.5972H315.927V38.2981H314.466V35.7903H311.397V46.0409H313.686V47.1609H307.111V46.0409Z" fill="#231F20"/>
<path d="M317.984 46.0409H319.786V35.6929H317.984V34.5972H324.997C326.166 34.5972 327.067 34.8732 327.7 35.425C328.333 35.9769 328.65 36.6993 328.65 37.592C328.65 38.5173 328.398 39.2071 327.895 39.6616C327.408 40.1161 326.815 40.4164 326.117 40.5625V40.6599C326.474 40.6924 326.823 40.7817 327.164 40.9278C327.522 41.0738 327.838 41.2767 328.114 41.5365C328.39 41.7799 328.617 42.0884 328.796 42.4617C328.975 42.8188 329.064 43.2408 329.064 43.7278C329.064 44.8803 328.707 45.7406 327.992 46.3087C327.294 46.8768 326.312 47.1609 325.046 47.1609H317.984V46.0409ZM324.851 45.9678C325.549 45.9678 326.069 45.7893 326.409 45.4322C326.767 45.0588 326.945 44.5881 326.945 44.02V43.3139C326.945 42.7458 326.767 42.2831 326.409 41.926C326.052 41.5527 325.533 41.366 324.851 41.366H321.783V45.9678H324.851ZM324.607 40.173C325.224 40.173 325.695 40.0025 326.02 39.6616C326.361 39.3045 326.531 38.8663 326.531 38.3468V37.6164C326.531 37.097 326.361 36.6668 326.02 36.3259C325.695 35.9688 325.224 35.7903 324.607 35.7903H321.783V40.173H324.607Z" fill="#231F20"/>
<path d="M337.379 46.26C337.98 46.26 338.499 46.1626 338.938 45.9678C339.392 45.7568 339.757 45.4728 340.033 45.1157C340.326 44.7423 340.537 44.3122 340.667 43.8252C340.813 43.322 340.886 42.7782 340.886 42.1939V39.5643C340.886 38.9799 340.813 38.4442 340.667 37.9573C340.537 37.4541 340.326 37.0239 340.033 36.6668C339.757 36.2935 339.392 36.0094 338.938 35.8146C338.499 35.6036 337.98 35.4981 337.379 35.4981C336.762 35.4981 336.234 35.6036 335.796 35.8146C335.358 36.0094 334.993 36.2935 334.7 36.6668C334.424 37.0239 334.213 37.4541 334.067 37.9573C333.937 38.4442 333.872 38.9799 333.872 39.5643V42.1939C333.872 42.7782 333.937 43.322 334.067 43.8252C334.213 44.3122 334.424 44.7423 334.7 45.1157C334.993 45.4728 335.358 45.7568 335.796 45.9678C336.234 46.1626 336.762 46.26 337.379 46.26ZM337.379 47.4531C336.519 47.4531 335.731 47.2989 335.017 46.9905C334.303 46.6821 333.694 46.2438 333.19 45.6757C332.687 45.0913 332.298 44.4014 332.022 43.6061C331.746 42.7945 331.608 41.8855 331.608 40.8791C331.608 39.8889 331.746 38.988 332.022 38.1764C332.298 37.3648 332.687 36.6749 333.19 36.1068C333.694 35.5224 334.303 35.0761 335.017 34.7676C335.731 34.4592 336.519 34.305 337.379 34.305C338.24 34.305 339.027 34.4592 339.741 34.7676C340.456 35.0761 341.064 35.5224 341.568 36.1068C342.071 36.6749 342.461 37.3648 342.737 38.1764C343.013 38.988 343.151 39.8889 343.151 40.8791C343.151 41.8855 343.013 42.7945 342.737 43.6061C342.461 44.4014 342.071 45.0913 341.568 45.6757C341.064 46.2438 340.456 46.6821 339.741 46.9905C339.027 47.2989 338.24 47.4531 337.379 47.4531Z" fill="#231F20"/>
<path d="M347.74 47.4531C347.27 47.4531 346.896 47.3151 346.62 47.0392C346.36 46.747 346.231 46.398 346.231 45.9922V45.8461C346.231 45.4403 346.36 45.0994 346.62 44.8235C346.896 44.5313 347.27 44.3852 347.74 44.3852C348.211 44.3852 348.577 44.5313 348.836 44.8235C349.112 45.0994 349.25 45.4403 349.25 45.8461V45.9922C349.25 46.398 349.112 46.747 348.836 47.0392C348.577 47.3151 348.211 47.4531 347.74 47.4531ZM347.74 37.3729C347.27 37.3729 346.896 37.2349 346.62 36.959C346.36 36.6668 346.231 36.3178 346.231 35.912V35.7659C346.231 35.3601 346.36 35.0192 346.62 34.7433C346.896 34.4511 347.27 34.305 347.74 34.305C348.211 34.305 348.577 34.4511 348.836 34.7433C349.112 35.0192 349.25 35.3601 349.25 35.7659V35.912C349.25 36.3178 349.112 36.6668 348.836 36.959C348.577 37.2349 348.211 37.3729 347.74 37.3729Z" fill="#231F20"/>
<path d="M4.24019 75.4238C3.07128 75.4238 2.15401 75.1236 1.48838 74.523C0.83898 73.9061 0.514282 73.0702 0.514282 72.0151C0.514282 71.4145 0.611692 70.887 0.80651 70.4325C1.00133 69.9617 1.31791 69.5722 1.75625 69.2637C2.21083 68.9553 2.79528 68.72 3.50962 68.5576C4.22395 68.3953 5.09252 68.3142 6.11532 68.3142H7.91739V66.4637C7.91739 65.4735 7.67386 64.7187 7.18682 64.1993C6.71601 63.6636 6.00167 63.3958 5.04381 63.3958C4.62171 63.3958 4.23207 63.4364 3.8749 63.5176C3.51774 63.5825 3.22551 63.6799 2.99822 63.8097V63.8584C3.1768 63.9558 3.34727 64.1019 3.50962 64.2967C3.6882 64.4915 3.77749 64.7674 3.77749 65.1245C3.77749 65.5466 3.65573 65.8793 3.41221 66.1228C3.16869 66.3501 2.84399 66.4637 2.43812 66.4637C2.04848 66.4637 1.72378 66.3501 1.46402 66.1228C1.2205 65.8793 1.09874 65.5222 1.09874 65.0515C1.09874 64.6944 1.20426 64.3535 1.41532 64.0289C1.62637 63.688 1.92672 63.3877 2.31635 63.128C2.70599 62.8683 3.18492 62.6654 3.75314 62.5193C4.3376 62.357 4.99511 62.2758 5.72568 62.2758C7.0407 62.2758 8.0635 62.6167 8.79407 63.2984C9.54088 63.9802 9.91428 64.9379 9.91428 66.1715V74.0847H11.7407V74.9369C11.5621 75.0667 11.3186 75.1804 11.0101 75.2778C10.7179 75.3752 10.3851 75.4238 10.0117 75.4238C9.37853 75.4238 8.89148 75.2453 8.55055 74.8882C8.20962 74.5311 8.03915 74.0522 8.03915 73.4516V73.2812H7.91739C7.80374 73.5572 7.64951 73.825 7.45469 74.0847C7.27611 74.3444 7.0407 74.5717 6.74848 74.7664C6.45625 74.9612 6.09908 75.1154 5.67697 75.2291C5.2711 75.3589 4.79217 75.4238 4.24019 75.4238ZM5.09252 74.0847C5.87179 74.0847 6.53742 73.8899 7.08941 73.5003C7.64139 73.0945 7.91739 72.4777 7.91739 71.6499V69.2881H6.33449C5.63639 69.2881 5.05193 69.3449 4.58112 69.4585C4.11031 69.5559 3.73691 69.7101 3.46091 69.9211C3.18492 70.1159 2.98198 70.3594 2.85211 70.6516C2.73846 70.9438 2.68164 71.2846 2.68164 71.6742V72.1855C2.68164 72.8024 2.89269 73.2731 3.3148 73.5977C3.73691 73.9224 4.32948 74.0847 5.09252 74.0847Z" fill="#231F20"/>
<path d="M13.8082 74.0117H15.6102V63.6636H13.8082V62.568H20.8216C21.9906 62.568 22.8916 62.8439 23.5248 63.3958C24.1579 63.9477 24.4745 64.67 24.4745 65.5628C24.4745 66.488 24.2229 67.1779 23.7196 67.6324C23.2325 68.0869 22.64 68.3872 21.9419 68.5333V68.6307C22.299 68.6631 22.6481 68.7524 22.989 68.8985C23.3462 69.0446 23.6627 69.2475 23.9387 69.5072C24.2147 69.7507 24.442 70.0591 24.6206 70.4325C24.7992 70.7896 24.8885 71.2116 24.8885 71.6986C24.8885 72.8511 24.5313 73.7114 23.817 74.2795C23.1189 74.8476 22.1367 75.1317 20.8703 75.1317H13.8082V74.0117ZM20.6755 73.9386C21.3736 73.9386 21.8931 73.76 22.2341 73.4029C22.5912 73.0296 22.7698 72.5589 22.7698 71.9907V71.2846C22.7698 70.7165 22.5912 70.2539 22.2341 69.8968C21.8769 69.5235 21.3574 69.3368 20.6755 69.3368H17.6071V73.9386H20.6755ZM20.432 68.1437C21.0489 68.1437 21.5197 67.9733 21.8444 67.6324C22.1854 67.2753 22.3558 66.837 22.3558 66.3176V65.5872C22.3558 65.0677 22.1854 64.6376 21.8444 64.2967C21.5197 63.9396 21.0489 63.761 20.432 63.761H17.6071V68.1437H20.432Z" fill="#231F20"/>
<path d="M29.2858 74.0117H31.5749V63.761H28.5065V66.2689H27.0454V62.568H38.1013V66.2689H36.6402V63.761H33.5718V74.0117H35.8609V75.1317H29.2858V74.0117Z" fill="#231F20"/>
<path d="M45.8079 74.2308C46.4086 74.2308 46.9281 74.1334 47.3664 73.9386C47.821 73.7276 48.1863 73.4435 48.4623 73.0864C48.7545 72.7131 48.9656 72.2829 49.0955 71.796C49.2416 71.2928 49.3146 70.749 49.3146 70.1646V67.535C49.3146 66.9507 49.2416 66.415 49.0955 65.928C48.9656 65.4248 48.7545 64.9947 48.4623 64.6376C48.1863 64.2642 47.821 63.9802 47.3664 63.7854C46.9281 63.5744 46.4086 63.4689 45.8079 63.4689C45.191 63.4689 44.6633 63.5744 44.225 63.7854C43.7866 63.9802 43.4214 64.2642 43.1291 64.6376C42.8531 64.9947 42.6421 65.4248 42.496 65.928C42.3661 66.415 42.3012 66.9507 42.3012 67.535V70.1646C42.3012 70.749 42.3661 71.2928 42.496 71.796C42.6421 72.2829 42.8531 72.7131 43.1291 73.0864C43.4214 73.4435 43.7866 73.7276 44.225 73.9386C44.6633 74.1334 45.191 74.2308 45.8079 74.2308ZM45.8079 75.4238C44.9474 75.4238 44.16 75.2696 43.4457 74.9612C42.7314 74.6528 42.1226 74.2146 41.6193 73.6464C41.116 73.0621 40.7264 72.3722 40.4504 71.5768C40.1744 70.7652 40.0364 69.8562 40.0364 68.8498C40.0364 67.8597 40.1744 66.9588 40.4504 66.1472C40.7264 65.3356 41.116 64.6457 41.6193 64.0776C42.1226 63.4932 42.7314 63.0468 43.4457 62.7384C44.16 62.43 44.9474 62.2758 45.8079 62.2758C46.6683 62.2758 47.4557 62.43 48.1701 62.7384C48.8844 63.0468 49.4932 63.4932 49.9965 64.0776C50.4998 64.6457 50.8894 65.3356 51.1654 66.1472C51.4414 66.9588 51.5794 67.8597 51.5794 68.8498C51.5794 69.8562 51.4414 70.7652 51.1654 71.5768C50.8894 72.3722 50.4998 73.0621 49.9965 73.6464C49.4932 74.2146 48.8844 74.6528 48.1701 74.9612C47.4557 75.2696 46.6683 75.4238 45.8079 75.4238Z" fill="#231F20"/>
<path d="M53.6366 78.8813H55.4387V64.1506L53.6366 63.8341V63.0062L57.4355 62.2758V64.4671H57.533C57.8089 63.8665 58.2473 63.3552 58.848 62.9332C59.4487 62.4949 60.2442 62.2758 61.2345 62.2758C62.7931 62.2758 64.035 62.8439 64.9604 63.9802C65.902 65.1002 66.3728 66.7234 66.3728 68.8498C66.3728 70.9762 65.902 72.6076 64.9604 73.7438C64.035 74.8638 62.7931 75.4238 61.2345 75.4238C60.2604 75.4238 59.4649 75.2128 58.848 74.7908C58.2473 74.3688 57.8089 73.8574 57.533 73.2569H57.4355V78.8813H59.7247V80.0013H53.6366V78.8813ZM60.6501 74.036C61.7703 74.036 62.6388 73.6627 63.2557 72.916C63.8889 72.1531 64.2055 71.1386 64.2055 69.8724V67.8272C64.2055 66.5611 63.8889 65.5547 63.2557 64.808C62.6388 64.0451 61.7703 63.6636 60.6501 63.6636C60.2604 63.6636 59.8708 63.7204 59.4811 63.8341C59.0915 63.9477 58.7425 64.11 58.434 64.321C58.1418 64.5321 57.8982 64.7999 57.7034 65.1245C57.5248 65.4329 57.4355 65.7819 57.4355 66.1715V71.5281C57.4355 71.9177 57.5248 72.2748 57.7034 72.5994C57.8982 72.9079 58.1418 73.1676 58.434 73.3786C58.7425 73.5896 59.0915 73.7519 59.4811 73.8656C59.8708 73.9792 60.2604 74.036 60.6501 74.036Z" fill="#231F20"/>
<path d="M74.6538 75.4238C73.7446 75.4238 72.9329 75.2696 72.2185 74.9612C71.5204 74.6366 70.9279 74.1902 70.4408 73.6221C69.9538 73.0377 69.5804 72.3479 69.3206 71.5525C69.0609 70.7409 68.931 69.84 68.931 68.8498C68.931 67.8434 69.069 66.9344 69.345 66.1228C69.6372 65.3112 70.0431 64.6213 70.5626 64.0532C71.0821 63.4851 71.699 63.0468 72.4134 62.7384C73.1439 62.43 73.9476 62.2758 74.8242 62.2758C76.1393 62.2758 77.1783 62.5599 77.9413 63.128C78.7206 63.6799 79.1103 64.386 79.1103 65.2463C79.1103 65.7657 78.9723 66.1715 78.6963 66.4637C78.4365 66.7559 78.0712 66.902 77.6004 66.902C77.0971 66.902 76.7237 66.7559 76.4802 66.4637C76.2367 66.1715 76.1149 65.8225 76.1149 65.4167C76.1149 65.0596 76.2042 64.7512 76.3828 64.4915C76.5614 64.2318 76.813 64.0289 77.1377 63.8828V63.8097C76.9267 63.6799 76.6507 63.5825 76.3097 63.5176C75.985 63.4526 75.5629 63.4202 75.0434 63.4202C74.4752 63.4202 73.9476 63.5257 73.4605 63.7367C72.9897 63.9477 72.5838 64.248 72.2429 64.6376C71.902 65.0109 71.6341 65.4573 71.4393 65.9767C71.2445 66.4799 71.147 67.0318 71.147 67.6324V69.4342C71.147 70.0997 71.2363 70.7084 71.4149 71.2603C71.5935 71.796 71.8451 72.2586 72.1698 72.6481C72.5108 73.0377 72.9085 73.338 73.3631 73.549C73.8339 73.7601 74.3616 73.8656 74.946 73.8656C75.9363 73.8656 76.7156 73.6627 77.2838 73.2569C77.8521 72.8348 78.3066 72.291 78.6476 71.6255L79.4268 72.1368C79.2807 72.5589 79.0697 72.9728 78.7937 73.3786C78.5177 73.7682 78.1849 74.1172 77.7952 74.4256C77.4056 74.7178 76.9429 74.9531 76.4072 75.1317C75.8876 75.3265 75.3032 75.4238 74.6538 75.4238Z" fill="#231F20"/>
<path d="M81.6094 74.0117H83.4115V63.6636H81.6094V62.568H87.2104V63.6636H85.4084V68.2168H87.4296L88.7933 65.1489C89.2642 64.0776 89.7431 63.3309 90.2301 62.9088C90.7334 62.4868 91.2935 62.2758 91.9104 62.2758C92.4462 62.2758 92.8602 62.43 93.1524 62.7384C93.4446 63.0468 93.5908 63.4364 93.5908 63.9071C93.5908 64.3779 93.4609 64.7593 93.2011 65.0515C92.9576 65.3274 92.6248 65.4654 92.2027 65.4654C91.7806 65.4654 91.4559 65.3356 91.2286 65.0758C91.0013 64.8161 90.8876 64.4509 90.8876 63.9802H90.8146C90.6847 64.1425 90.5386 64.3616 90.3762 64.6376C90.2139 64.8973 90.0515 65.2057 89.8892 65.5628L88.5255 68.6307C88.8502 68.6794 89.1262 68.7849 89.3534 68.9472C89.5807 69.1095 89.7999 69.353 90.011 69.6777L92.8115 74.0117H94.1752V75.1317H91.1799L87.4296 69.3368H85.4084V74.0117H87.2104V75.1317H81.6094V74.0117Z" fill="#231F20"/>
<path d="M95.7594 74.0117H97.5615V63.6636H95.7594V62.568H101.312V63.6636H99.5097V68.2655L99.2905 71.6499H99.3636L105.646 64.3941V63.6636H103.844V62.568H109.397V63.6636H107.595V74.0117H109.397V75.1317H103.844V74.0117H105.646V69.4585L105.866 66.0498H105.768L99.5097 73.3056V74.0117H101.312V75.1317H95.7594V74.0117Z" fill="#231F20"/>
<path d="M111.836 74.0117H113.638V63.6636H111.836V62.568H117.388V63.6636H115.586V68.2655L115.367 71.6499H115.44L121.723 64.3941V63.6636H119.921V62.568H125.473V63.6636H123.671V74.0117H125.473V75.1317H119.921V74.0117H121.723V69.4585L121.942 66.0498H121.845L115.586 73.3056V74.0117H117.388V75.1317H111.836V74.0117ZM118.654 60.5958C117.973 60.5958 117.388 60.5227 116.901 60.3766C116.43 60.2143 116.032 60.0114 115.708 59.7679C115.399 59.5244 115.172 59.2485 115.026 58.9401C114.88 58.6154 114.807 58.2827 114.807 57.9418C114.807 57.5198 114.92 57.2032 115.148 56.9922C115.375 56.765 115.675 56.6513 116.049 56.6513C116.422 56.6513 116.714 56.7568 116.925 56.9679C117.136 57.1789 117.242 57.4792 117.242 57.8688C117.242 58.1934 117.153 58.4531 116.974 58.6479C116.796 58.8265 116.593 58.9563 116.365 59.0375V59.0862C116.641 59.2323 116.974 59.3378 117.364 59.4027C117.753 59.4676 118.184 59.5001 118.654 59.5001C119.125 59.5001 119.555 59.4676 119.945 59.4027C120.335 59.3378 120.668 59.2323 120.944 59.0862V59.0375C120.716 58.9563 120.513 58.8265 120.335 58.6479C120.156 58.4531 120.067 58.1934 120.067 57.8688C120.067 57.4792 120.172 57.1789 120.383 56.9679C120.594 56.7568 120.887 56.6513 121.26 56.6513C121.634 56.6513 121.934 56.765 122.161 56.9922C122.388 57.2032 122.502 57.5198 122.502 57.9418C122.502 58.2827 122.429 58.6154 122.283 58.9401C122.137 59.2485 121.901 59.5244 121.577 59.7679C121.268 60.0114 120.87 60.2143 120.383 60.3766C119.913 60.5227 119.336 60.5958 118.654 60.5958Z" fill="#231F20"/>
<path d="M133.572 74.0117H135.374V63.6636H133.572V62.568H147.234V63.6636H145.432V74.0117H147.234V75.1317H141.633V74.0117H143.435V63.761H137.371V74.0117H139.173V75.1317H133.572V74.0117Z" fill="#231F20"/>
<path d="M155.322 74.2308C155.923 74.2308 156.442 74.1334 156.881 73.9386C157.335 73.7276 157.7 73.4435 157.976 73.0864C158.269 72.7131 158.48 72.2829 158.61 71.796C158.756 71.2928 158.829 70.749 158.829 70.1646V67.535C158.829 66.9507 158.756 66.415 158.61 65.928C158.48 65.4248 158.269 64.9947 157.976 64.6376C157.7 64.2642 157.335 63.9802 156.881 63.7854C156.442 63.5744 155.923 63.4689 155.322 63.4689C154.705 63.4689 154.177 63.5744 153.739 63.7854C153.301 63.9802 152.935 64.2642 152.643 64.6376C152.367 64.9947 152.156 65.4248 152.01 65.928C151.88 66.415 151.815 66.9507 151.815 67.535V70.1646C151.815 70.749 151.88 71.2928 152.01 71.796C152.156 72.2829 152.367 72.7131 152.643 73.0864C152.935 73.4435 153.301 73.7276 153.739 73.9386C154.177 74.1334 154.705 74.2308 155.322 74.2308ZM155.322 75.4238C154.462 75.4238 153.674 75.2696 152.96 74.9612C152.245 74.6528 151.637 74.2146 151.133 73.6464C150.63 73.0621 150.24 72.3722 149.964 71.5768C149.688 70.7652 149.55 69.8562 149.55 68.8498C149.55 67.8597 149.688 66.9588 149.964 66.1472C150.24 65.3356 150.63 64.6457 151.133 64.0776C151.637 63.4932 152.245 63.0468 152.96 62.7384C153.674 62.43 154.462 62.2758 155.322 62.2758C156.182 62.2758 156.97 62.43 157.684 62.7384C158.398 63.0468 159.007 63.4932 159.511 64.0776C160.014 64.6457 160.403 65.3356 160.679 66.1472C160.955 66.9588 161.093 67.8597 161.093 68.8498C161.093 69.8562 160.955 70.7652 160.679 71.5768C160.403 72.3722 160.014 73.0621 159.511 73.6464C159.007 74.2146 158.398 74.6528 157.684 74.9612C156.97 75.2696 156.182 75.4238 155.322 75.4238Z" fill="#231F20"/>
<path d="M162.187 73.9386H163.94C164.687 72.9647 165.28 71.731 165.718 70.2377C166.173 68.7281 166.4 66.9101 166.4 64.7837V63.6636H164.573V62.568H175.142V63.6636H173.34V73.9386H175.775V78.7839H173.973V75.1317H163.989V78.7839H162.187V73.9386ZM171.343 73.9386V63.761H167.861V64.7837C167.861 66.7802 167.658 68.5658 167.252 70.1403C166.846 71.7148 166.302 72.9809 165.621 73.9386H171.343Z" fill="#231F20"/>
<path d="M177.581 74.0117H178.969L182.646 68.9959L178.92 63.688H177.654V62.568H182.768V63.688H181.331L184.059 67.6811H184.156L186.737 63.688H185.228V62.568H189.635V63.688H188.247L184.765 68.6307L188.491 74.0117H189.757V75.1317H184.619V74.0117H186.056L183.352 69.9455H183.255L180.479 74.0117H181.989V75.1317H177.581V74.0117Z" fill="#231F20"/>
<path d="M196.94 74.2308C197.54 74.2308 198.06 74.1334 198.498 73.9386C198.953 73.7276 199.318 73.4435 199.594 73.0864C199.886 72.7131 200.097 72.2829 200.227 71.796C200.373 71.2928 200.446 70.749 200.446 70.1646V67.535C200.446 66.9507 200.373 66.415 200.227 65.928C200.097 65.4248 199.886 64.9947 199.594 64.6376C199.318 64.2642 198.953 63.9802 198.498 63.7854C198.06 63.5744 197.54 63.4689 196.94 63.4689C196.323 63.4689 195.795 63.5744 195.357 63.7854C194.918 63.9802 194.553 64.2642 194.261 64.6376C193.985 64.9947 193.774 65.4248 193.628 65.928C193.498 66.415 193.433 66.9507 193.433 67.535V70.1646C193.433 70.749 193.498 71.2928 193.628 71.796C193.774 72.2829 193.985 72.7131 194.261 73.0864C194.553 73.4435 194.918 73.7276 195.357 73.9386C195.795 74.1334 196.323 74.2308 196.94 74.2308ZM196.94 75.4238C196.079 75.4238 195.292 75.2696 194.578 74.9612C193.863 74.6528 193.254 74.2146 192.751 73.6464C192.248 73.0621 191.858 72.3722 191.582 71.5768C191.306 70.7652 191.168 69.8562 191.168 68.8498C191.168 67.8597 191.306 66.9588 191.582 66.1472C191.858 65.3356 192.248 64.6457 192.751 64.0776C193.254 63.4932 193.863 63.0468 194.578 62.7384C195.292 62.43 196.079 62.2758 196.94 62.2758C197.8 62.2758 198.588 62.43 199.302 62.7384C200.016 63.0468 200.625 63.4932 201.128 64.0776C201.632 64.6457 202.021 65.3356 202.297 66.1472C202.573 66.9588 202.711 67.8597 202.711 68.8498C202.711 69.8562 202.573 70.7652 202.297 71.5768C202.021 72.3722 201.632 73.0621 201.128 73.6464C200.625 74.2146 200.016 74.6528 199.302 74.9612C198.588 75.2696 197.8 75.4238 196.94 75.4238Z" fill="#231F20"/>
<path d="M203.805 73.9386H205.558C206.305 72.9647 206.897 71.731 207.336 70.2377C207.79 68.7281 208.018 66.9101 208.018 64.7837V63.6636H206.191V62.568H216.76V63.6636H214.958V73.9386H217.393V78.7839H215.591V75.1317H205.607V78.7839H203.805V73.9386ZM212.961 73.9386V63.761H209.479V64.7837C209.479 66.7802 209.276 68.5658 208.87 70.1403C208.464 71.7148 207.92 72.9809 207.238 73.9386H212.961Z" fill="#231F20"/>
<path d="M225.155 74.0117H226.957V63.6636H225.155V62.568H230.756V63.6636H228.954V68.2168H230.975L232.339 65.1489C232.81 64.0776 233.289 63.3309 233.776 62.9088C234.279 62.4868 234.839 62.2758 235.456 62.2758C235.992 62.2758 236.406 62.43 236.698 62.7384C236.99 63.0468 237.136 63.4364 237.136 63.9071C237.136 64.3779 237.006 64.7593 236.747 65.0515C236.503 65.3274 236.17 65.4654 235.748 65.4654C235.326 65.4654 235.001 65.3356 234.774 65.0758C234.547 64.8161 234.433 64.4509 234.433 63.9802H234.36C234.23 64.1425 234.084 64.3616 233.922 64.6376C233.759 64.8973 233.597 65.2057 233.435 65.5628L232.071 68.6307C232.396 68.6794 232.672 68.7849 232.899 68.9472C233.126 69.1095 233.345 69.353 233.556 69.6777L236.357 74.0117H237.721V75.1317H234.725L230.975 69.3368H228.954V74.0117H230.756V75.1317H225.155V74.0117Z" fill="#231F20"/>
<path d="M246.743 80.2935C245.915 80.2935 245.314 80.1149 244.941 79.7578C244.567 79.417 244.381 78.9625 244.381 78.3943C244.381 77.9723 244.494 77.6314 244.721 77.3717C244.949 77.112 245.273 76.9821 245.696 76.9821C246.069 76.9821 246.353 77.0876 246.548 77.2987C246.759 77.5259 246.864 77.8262 246.864 78.1996C246.864 78.4755 246.791 78.6946 246.645 78.857C246.515 79.0355 246.369 79.1491 246.207 79.1978V79.2709C246.386 79.3358 246.597 79.3683 246.84 79.3683C247.262 79.3683 247.676 79.1816 248.082 78.8083C248.488 78.4511 248.853 77.8587 249.178 77.0308L249.689 75.643L245.062 63.688H243.796V62.568H249.007V63.688H247.254L250.639 72.8916H250.736L254.024 63.688H252.271V62.568H256.703V63.688H255.436L250.225 77.2256C249.884 78.1184 249.421 78.8488 248.837 79.417C248.269 80.0013 247.571 80.2935 246.743 80.2935Z" fill="#231F20"/>
<path d="M257.95 74.0117H259.752V63.6636H257.95V62.568H271.611V63.6636H269.809V74.0117H271.611V75.1317H266.01V74.0117H267.812V63.761H261.749V74.0117H263.551V75.1317H257.95V74.0117Z" fill="#231F20"/>
<path d="M273.806 78.8813H275.608V64.1506L273.806 63.8341V63.0062L277.605 62.2758V64.4671H277.703C277.979 63.8665 278.417 63.3552 279.018 62.9332C279.618 62.4949 280.414 62.2758 281.404 62.2758C282.963 62.2758 284.205 62.8439 285.13 63.9802C286.072 65.1002 286.543 66.7234 286.543 68.8498C286.543 70.9762 286.072 72.6076 285.13 73.7438C284.205 74.8638 282.963 75.4238 281.404 75.4238C280.43 75.4238 279.635 75.2128 279.018 74.7908C278.417 74.3688 277.979 73.8574 277.703 73.2569H277.605V78.8813H279.894V80.0013H273.806V78.8813ZM280.82 74.036C281.94 74.036 282.809 73.6627 283.425 72.916C284.059 72.1531 284.375 71.1386 284.375 69.8724V67.8272C284.375 66.5611 284.059 65.5547 283.425 64.808C282.809 64.0451 281.94 63.6636 280.82 63.6636C280.43 63.6636 280.041 63.7204 279.651 63.8341C279.261 63.9477 278.912 64.11 278.604 64.321C278.311 64.5321 278.068 64.7999 277.873 65.1245C277.695 65.4329 277.605 65.7819 277.605 66.1715V71.5281C277.605 71.9177 277.695 72.2748 277.873 72.5994C278.068 72.9079 278.311 73.1676 278.604 73.3786C278.912 73.5896 279.261 73.7519 279.651 73.8656C280.041 73.9792 280.43 74.036 280.82 74.036Z" fill="#231F20"/>
<path d="M292.948 75.4238C291.779 75.4238 290.862 75.1236 290.197 74.523C289.547 73.9061 289.222 73.0702 289.222 72.0151C289.222 71.4145 289.32 70.887 289.515 70.4325C289.709 69.9617 290.026 69.5722 290.464 69.2637C290.919 68.9553 291.503 68.72 292.218 68.5576C292.932 68.3953 293.801 68.3142 294.823 68.3142H296.626V66.4637C296.626 65.4735 296.382 64.7187 295.895 64.1993C295.424 63.6636 294.71 63.3958 293.752 63.3958C293.33 63.3958 292.94 63.4364 292.583 63.5176C292.226 63.5825 291.934 63.6799 291.706 63.8097V63.8584C291.885 63.9558 292.055 64.1019 292.218 64.2967C292.396 64.4915 292.486 64.7674 292.486 65.1245C292.486 65.5466 292.364 65.8793 292.12 66.1228C291.877 66.3501 291.552 66.4637 291.146 66.4637C290.757 66.4637 290.432 66.3501 290.172 66.1228C289.929 65.8793 289.807 65.5222 289.807 65.0515C289.807 64.6944 289.912 64.3535 290.123 64.0289C290.335 63.688 290.635 63.3877 291.025 63.128C291.414 62.8683 291.893 62.6654 292.461 62.5193C293.046 62.357 293.703 62.2758 294.434 62.2758C295.749 62.2758 296.772 62.6167 297.502 63.2984C298.249 63.9802 298.622 64.9379 298.622 66.1715V74.0847H300.449V74.9369C300.27 75.0667 300.027 75.1804 299.718 75.2778C299.426 75.3752 299.093 75.4238 298.72 75.4238C298.087 75.4238 297.6 75.2453 297.259 74.8882C296.918 74.5311 296.747 74.0522 296.747 73.4516V73.2812H296.626C296.512 73.5572 296.358 73.825 296.163 74.0847C295.984 74.3444 295.749 74.5717 295.457 74.7664C295.164 74.9612 294.807 75.1154 294.385 75.2291C293.979 75.3589 293.5 75.4238 292.948 75.4238ZM293.801 74.0847C294.58 74.0847 295.246 73.8899 295.798 73.5003C296.35 73.0945 296.626 72.4777 296.626 71.6499V69.2881H295.043C294.345 69.2881 293.76 69.3449 293.289 69.4585C292.818 69.5559 292.445 69.7101 292.169 69.9211C291.893 70.1159 291.69 70.3594 291.56 70.6516C291.447 70.9438 291.39 71.2846 291.39 71.6742V72.1855C291.39 72.8024 291.601 73.2731 292.023 73.5977C292.445 73.9224 293.038 74.0847 293.801 74.0847Z" fill="#231F20"/>
<path d="M302.516 74.0117H304.318V63.6636H302.516V62.568H309.53C310.699 62.568 311.6 62.8439 312.233 63.3958C312.866 63.9477 313.183 64.67 313.183 65.5628C313.183 66.488 312.931 67.1779 312.428 67.6324C311.941 68.0869 311.348 68.3872 310.65 68.5333V68.6307C311.007 68.6631 311.356 68.7524 311.697 68.8985C312.054 69.0446 312.371 69.2475 312.647 69.5072C312.923 69.7507 313.15 70.0591 313.329 70.4325C313.507 70.7896 313.597 71.2116 313.597 71.6986C313.597 72.8511 313.239 73.7114 312.525 74.2795C311.827 74.8476 310.845 75.1317 309.579 75.1317H302.516V74.0117ZM309.384 73.9386C310.082 73.9386 310.601 73.76 310.942 73.4029C311.299 73.0296 311.478 72.5589 311.478 71.9907V71.2846C311.478 70.7165 311.299 70.2539 310.942 69.8968C310.585 69.5235 310.066 69.3368 309.384 69.3368H306.315V73.9386H309.384ZM309.14 68.1437C309.757 68.1437 310.228 67.9733 310.553 67.6324C310.894 67.2753 311.064 66.837 311.064 66.3176V65.5872C311.064 65.0677 310.894 64.6376 310.553 64.2967C310.228 63.9396 309.757 63.761 309.14 63.761H306.315V68.1437H309.14Z" fill="#231F20"/>
<path d="M317.287 75.4238C316.556 75.4238 316.004 75.2372 315.631 74.8638C315.273 74.4743 315.095 74.0117 315.095 73.476C315.095 73.054 315.2 72.7131 315.411 72.4534C315.639 72.1936 315.963 72.0638 316.386 72.0638C316.759 72.0638 317.043 72.1693 317.238 72.3803C317.449 72.5913 317.554 72.8754 317.554 73.2325C317.554 73.4922 317.49 73.7195 317.36 73.9143C317.23 74.0928 317.084 74.2146 316.921 74.2795V74.3525C316.97 74.385 317.027 74.4012 317.092 74.4012C317.173 74.4012 317.246 74.4012 317.311 74.4012C317.684 74.4012 318.001 74.2714 318.261 74.0117C318.423 73.8493 318.585 73.614 318.748 73.3056C318.91 72.9809 319.048 72.4939 319.162 71.8447C319.292 71.1954 319.389 70.3351 319.454 69.2637C319.535 68.1762 319.576 66.7883 319.576 65.1002V63.6636H317.774V62.568H328.464V63.6636H326.662V74.0117H328.464V75.1317H322.863V74.0117H324.665V63.761H321.037V64.9784C321.037 66.6666 320.996 68.0707 320.915 69.1907C320.85 70.3107 320.745 71.236 320.599 71.9664C320.469 72.6968 320.298 73.2731 320.087 73.6951C319.892 74.1009 319.657 74.4337 319.381 74.6934C319.105 74.9693 318.78 75.156 318.407 75.2534C318.033 75.367 317.66 75.4238 317.287 75.4238Z" fill="#231F20"/>
<path d="M336.464 75.4238C335.572 75.4238 334.768 75.2696 334.054 74.9612C333.355 74.6366 332.763 74.1902 332.276 73.6221C331.789 73.054 331.415 72.3641 331.156 71.5525C330.896 70.7409 330.766 69.84 330.766 68.8498C330.766 67.8759 330.904 66.9912 331.18 66.1959C331.472 65.3842 331.862 64.6863 332.349 64.1019C332.852 63.5175 333.445 63.0712 334.127 62.7628C334.808 62.4381 335.555 62.2758 336.367 62.2758C337.195 62.2758 337.934 62.4219 338.583 62.7141C339.232 63.0062 339.776 63.4202 340.215 63.9558C340.669 64.4752 341.018 65.1002 341.262 65.8306C341.505 66.5611 341.627 67.3565 341.627 68.2168V68.7768H332.982V69.4098C332.982 70.7896 333.323 71.8771 334.005 72.6725C334.703 73.4679 335.628 73.8656 336.781 73.8656C337.788 73.8656 338.583 73.6627 339.168 73.2569C339.768 72.8348 340.239 72.291 340.58 71.6255L341.384 72.1368C341.221 72.5589 340.994 72.9728 340.702 73.3786C340.426 73.7682 340.085 74.1172 339.679 74.4256C339.273 74.7178 338.802 74.9531 338.266 75.1317C337.731 75.3265 337.13 75.4238 336.464 75.4238ZM332.982 67.6568H339.533V67.4133C339.533 66.8451 339.468 66.3176 339.338 65.8306C339.224 65.3437 339.038 64.9216 338.778 64.5645C338.518 64.2074 338.185 63.9315 337.779 63.7367C337.39 63.5257 336.919 63.4202 336.367 63.4202C335.815 63.4202 335.328 63.5176 334.906 63.7123C334.484 63.9071 334.127 64.1831 333.834 64.5402C333.558 64.8973 333.347 65.3193 333.201 65.8063C333.055 66.277 332.982 66.7964 332.982 67.3646V67.6568Z" fill="#231F20"/>
<path d="M343.944 74.0117H345.746V63.6636H343.944V62.568H349.545V63.6636H347.743V68.1681H353.782V63.6636H351.98V62.568H357.581V63.6636H355.779V74.0117H357.581V75.1317H351.98V74.0117H353.782V69.3611H347.743V74.0117H349.545V75.1317H343.944V74.0117Z" fill="#231F20"/>
<path d="M360.02 74.0117H361.822V63.6636H360.02V62.568H365.572V63.6636H363.77V68.2655L363.551 71.6499H363.624L369.907 64.3941V63.6636H368.105V62.568H373.657V63.6636H371.855V74.0117H373.657V75.1317H368.105V74.0117H369.907V69.4585L370.126 66.0498H370.029L363.77 73.3056V74.0117H365.572V75.1317H360.02V74.0117Z" fill="#231F20"/>
<path d="M388.346 75.4238C386.771 75.4238 385.513 74.8963 384.571 73.8412C383.63 72.7699 383.11 71.2765 383.013 69.3611H379.895V74.0117H381.698V75.1317H376.097V74.0117H377.899V63.6636H376.097V62.568H381.698V63.6636H379.895V68.1681H383.037C383.151 66.3014 383.67 64.8567 384.595 63.8341C385.537 62.7952 386.779 62.2758 388.321 62.2758C389.133 62.2758 389.872 62.43 390.537 62.7384C391.203 63.0306 391.763 63.4607 392.218 64.0289C392.689 64.5808 393.046 65.2706 393.289 66.0985C393.549 66.9101 393.679 67.8272 393.679 68.8498C393.679 70.9275 393.2 72.5426 392.242 73.6951C391.284 74.8476 389.985 75.4238 388.346 75.4238ZM388.346 74.2308C389.433 74.2308 390.213 73.8737 390.684 73.1595C391.171 72.4452 391.414 71.4794 391.414 70.262V67.4376C391.414 66.2202 391.171 65.2544 390.684 64.5402C390.213 63.826 389.433 63.4689 388.346 63.4689C387.258 63.4689 386.471 63.826 385.984 64.5402C385.513 65.2544 385.277 66.2202 385.277 67.4376V70.262C385.277 71.4794 385.513 72.4452 385.984 73.1595C386.471 73.8737 387.258 74.2308 388.346 74.2308Z" fill="#231F20"/>
<path d="M396.005 72.4534L399.097 68.1924L396.005 63.9315L396.492 63.2741L401.192 67.6324V68.7524L396.492 73.1108L396.005 72.4534ZM401.021 72.4534L404.114 68.1924L401.021 63.9315L401.508 63.2741L406.208 67.6324V68.7524L401.508 73.1108L401.021 72.4534Z" fill="#231F20"/>
</svg>
