<svg width="407" height="80" viewBox="0 0 407 80" fill="none" xmlns="http://www.w3.org/2000/svg">
<path d="M105.19 16.806H107.017V2.05093H105.19V0.930908H121.677V2.05093H119.85V16.806H121.677V17.926H115.93V16.806H117.756V2.12397H109.111V16.806H110.938V17.926H105.19V16.806Z" fill="#231F20"/>
<path d="M123.993 21.6756H125.795V6.94493L123.993 6.6284V5.80056L127.792 5.07011V7.26146H127.889C128.165 6.66087 128.604 6.14955 129.204 5.72752C129.805 5.28925 130.601 5.07011 131.591 5.07011C133.15 5.07011 134.391 5.63824 135.317 6.77449C136.258 7.89451 136.729 9.51773 136.729 11.6441C136.729 13.7706 136.258 15.4019 135.317 16.5381C134.391 17.6582 133.15 18.2182 131.591 18.2182C130.617 18.2182 129.821 18.0072 129.204 17.5851C128.604 17.1631 128.165 16.6518 127.889 16.0512H127.792V21.6756H130.081V22.7956H123.993V21.6756ZM131.007 16.8303C132.127 16.8303 132.995 16.457 133.612 15.7103C134.245 14.9474 134.562 13.9329 134.562 12.6668V10.6215C134.562 9.35541 134.245 8.34901 133.612 7.60233C132.995 6.83942 132.127 6.45796 131.007 6.45796C130.617 6.45796 130.227 6.51478 129.838 6.6284C129.448 6.74203 129.099 6.90435 128.79 7.11537C128.498 7.32638 128.255 7.59422 128.06 7.91886C127.881 8.22727 127.792 8.57626 127.792 8.96583V14.3225C127.792 14.712 127.881 15.0691 128.06 15.3938C128.255 15.7022 128.498 15.9619 128.79 16.1729C129.099 16.3839 129.448 16.5463 129.838 16.6599C130.227 16.7735 130.617 16.8303 131.007 16.8303Z" fill="#231F20"/>
<path d="M145.059 17.0251C145.66 17.0251 146.179 16.9277 146.617 16.7329C147.072 16.5219 147.437 16.2378 147.713 15.8807C148.006 15.5074 148.217 15.0772 148.346 14.5903C148.493 14.0871 148.566 13.5433 148.566 12.959V10.3293C148.566 9.74498 148.493 9.20932 148.346 8.72235C148.217 8.21915 148.006 7.789 147.713 7.43189C147.437 7.05855 147.072 6.77449 146.617 6.57971C146.179 6.36869 145.66 6.26318 145.059 6.26318C144.442 6.26318 143.914 6.36869 143.476 6.57971C143.038 6.77449 142.672 7.05855 142.38 7.43189C142.104 7.789 141.893 8.21915 141.747 8.72235C141.617 9.20932 141.552 9.74498 141.552 10.3293V12.959C141.552 13.5433 141.617 14.0871 141.747 14.5903C141.893 15.0772 142.104 15.5074 142.38 15.8807C142.672 16.2378 143.038 16.5219 143.476 16.7329C143.914 16.9277 144.442 17.0251 145.059 17.0251ZM145.059 18.2182C144.198 18.2182 143.411 18.064 142.697 17.7556C141.982 17.4471 141.374 17.0089 140.87 16.4408C140.367 15.8564 139.977 15.1665 139.701 14.3712C139.425 13.5595 139.287 12.6505 139.287 11.6441C139.287 10.654 139.425 9.7531 139.701 8.94149C139.977 8.12988 140.367 7.44001 140.87 6.87188C141.374 6.28753 141.982 5.84114 142.697 5.53273C143.411 5.22432 144.198 5.07011 145.059 5.07011C145.919 5.07011 146.707 5.22432 147.421 5.53273C148.135 5.84114 148.744 6.28753 149.248 6.87188C149.751 7.44001 150.14 8.12988 150.416 8.94149C150.692 9.7531 150.83 10.654 150.83 11.6441C150.83 12.6505 150.692 13.5595 150.416 14.3712C150.14 15.1665 149.751 15.8564 149.248 16.4408C148.744 17.0089 148.135 17.4471 147.421 17.7556C146.707 18.064 145.919 18.2182 145.059 18.2182Z" fill="#231F20"/>
<path d="M158.97 18.2182C158.061 18.2182 157.249 18.064 156.535 17.7556C155.837 17.4309 155.244 16.9845 154.757 16.4164C154.27 15.832 153.897 15.1422 153.637 14.3468C153.377 13.5352 153.247 12.6343 153.247 11.6441C153.247 10.6377 153.385 9.72875 153.661 8.91714C153.953 8.10553 154.359 7.41566 154.879 6.84754C155.398 6.27941 156.015 5.84114 156.73 5.53273C157.46 5.22432 158.264 5.07011 159.14 5.07011C160.455 5.07011 161.495 5.35418 162.258 5.9223C163.037 6.4742 163.426 7.1803 163.426 8.0406C163.426 8.56003 163.288 8.96584 163.012 9.25801C162.753 9.55019 162.387 9.69628 161.917 9.69628C161.413 9.69628 161.04 9.55019 160.796 9.25801C160.553 8.96584 160.431 8.61684 160.431 8.21104C160.431 7.85393 160.52 7.54552 160.699 7.28581C160.878 7.02609 161.129 6.82319 161.454 6.6771V6.60405C161.243 6.4742 160.967 6.3768 160.626 6.31187C160.301 6.24695 159.879 6.21448 159.36 6.21448C158.791 6.21448 158.264 6.31999 157.777 6.53101C157.306 6.74203 156.9 7.04232 156.559 7.43189C156.218 7.80523 155.95 8.25162 155.755 8.77105C155.561 9.27425 155.463 9.82614 155.463 10.4267V12.2285C155.463 12.894 155.553 13.5027 155.731 14.0546C155.91 14.5903 156.161 15.0529 156.486 15.4425C156.827 15.832 157.225 16.1323 157.679 16.3434C158.15 16.5544 158.678 16.6599 159.262 16.6599C160.253 16.6599 161.032 16.457 161.6 16.0512C162.168 15.6291 162.623 15.0854 162.964 14.4198L163.743 14.9312C163.597 15.3532 163.386 15.7671 163.11 16.1729C162.834 16.5625 162.501 16.9115 162.111 17.2199C161.722 17.5121 161.259 17.7474 160.723 17.926C160.204 18.1208 159.619 18.2182 158.97 18.2182Z" fill="#231F20"/>
<path d="M166.95 18.2182C166.22 18.2182 165.668 18.0315 165.294 17.6582C164.937 17.2686 164.758 16.806 164.758 16.2703C164.758 15.8483 164.864 15.5074 165.075 15.2477C165.302 14.988 165.627 14.8581 166.049 14.8581C166.423 14.8581 166.707 14.9636 166.901 15.1746C167.112 15.3857 167.218 15.6697 167.218 16.0268C167.218 16.2865 167.153 16.5138 167.023 16.7086C166.893 16.8871 166.747 17.0089 166.585 17.0738V17.1469C166.634 17.1793 166.69 17.1955 166.755 17.1955C166.836 17.1955 166.91 17.1955 166.975 17.1955C167.348 17.1955 167.664 17.0657 167.924 16.806C168.087 16.6437 168.249 16.4083 168.411 16.0999C168.574 15.7752 168.712 15.2883 168.825 14.639C168.955 13.9897 169.053 13.1294 169.118 12.0581C169.199 10.9705 169.239 9.58266 169.239 7.89451V6.45796H167.437V5.36229H178.128V6.45796H176.326V16.806H178.128V17.926H172.527V16.806H174.329V6.55536H170.7V7.77277C170.7 9.46092 170.66 10.865 170.579 11.985C170.514 13.105 170.408 14.0303 170.262 14.7607C170.132 15.4912 169.962 16.0674 169.751 16.4894C169.556 16.8953 169.32 17.228 169.044 17.4877C168.768 17.7637 168.444 17.9503 168.07 18.0477C167.697 18.1614 167.324 18.2182 166.95 18.2182Z" fill="#231F20"/>
<path d="M182.329 23.0878C181.501 23.0878 180.9 22.9093 180.527 22.5522C180.154 22.2113 179.967 21.7568 179.967 21.1887C179.967 20.7666 180.08 20.4258 180.308 20.166C180.535 19.9063 180.86 19.7765 181.282 19.7765C181.655 19.7765 181.939 19.882 182.134 20.093C182.345 20.3202 182.451 20.6205 182.451 20.9939C182.451 21.2698 182.378 21.489 182.232 21.6513C182.102 21.8298 181.956 21.9435 181.793 21.9922V22.0652C181.972 22.1301 182.183 22.1626 182.426 22.1626C182.849 22.1626 183.263 21.9759 183.668 21.6026C184.074 21.2455 184.44 20.653 184.764 19.8252L185.276 18.4373L180.649 6.48231H179.382V5.36229H184.594V6.48231H182.84L186.225 15.686H186.323L189.61 6.48231H187.857V5.36229H192.289V6.48231H191.023L185.811 20.0199C185.47 20.9127 185.008 21.6432 184.423 22.2113C183.855 22.7956 183.157 23.0878 182.329 23.0878Z" fill="#231F20"/>
<path d="M193.536 16.806H195.338V6.45796H193.536V5.36229H198.918V6.45796H197.335V16.7329H201.938V6.45796H200.355V5.36229H205.517V6.45796H203.934V16.7329H208.537V6.45796H206.954V5.36229H212.336V6.45796H210.534V16.806H212.336V17.926H193.536V16.806Z" fill="#231F20"/>
<path d="M218.499 18.2182C217.33 18.2182 216.413 17.9179 215.747 17.3173C215.098 16.7005 214.773 15.8645 214.773 14.8094C214.773 14.2088 214.87 13.6813 215.065 13.2268C215.26 12.756 215.577 12.3665 216.015 12.0581C216.47 11.7497 217.054 11.5143 217.768 11.352C218.483 11.1896 219.351 11.1085 220.374 11.1085H222.176V9.25801C222.176 8.26785 221.933 7.51305 221.446 6.99363C220.975 6.45796 220.26 6.19013 219.303 6.19013C218.88 6.19013 218.491 6.23071 218.134 6.31187C217.776 6.3768 217.484 6.4742 217.257 6.60405V6.65275C217.435 6.75014 217.606 6.89623 217.768 7.09102C217.947 7.2858 218.036 7.56175 218.036 7.91886C218.036 8.3409 217.914 8.67366 217.671 8.91714C217.427 9.14439 217.103 9.25801 216.697 9.25801C216.307 9.25801 215.982 9.14439 215.723 8.91714C215.479 8.67366 215.357 8.31655 215.357 7.84581C215.357 7.48871 215.463 7.14783 215.674 6.82319C215.885 6.48231 216.185 6.18202 216.575 5.9223C216.965 5.66259 217.444 5.45969 218.012 5.3136C218.596 5.15127 219.254 5.07011 219.984 5.07011C221.299 5.07011 222.322 5.41099 223.053 6.09274C223.8 6.77449 224.173 7.73219 224.173 8.96583V16.879H225.999V17.7312C225.821 17.8611 225.577 17.9747 225.269 18.0721C224.977 18.1695 224.644 18.2182 224.27 18.2182C223.637 18.2182 223.15 18.0396 222.809 17.6825C222.468 17.3254 222.298 16.8466 222.298 16.246V16.0755H222.176C222.062 16.3515 221.908 16.6193 221.713 16.879C221.535 17.1387 221.299 17.366 221.007 17.5608C220.715 17.7556 220.358 17.9098 219.936 18.0234C219.53 18.1532 219.051 18.2182 218.499 18.2182ZM219.351 16.879C220.13 16.879 220.796 16.6842 221.348 16.2947C221.9 15.8889 222.176 15.272 222.176 14.4442V12.0824H220.593C219.895 12.0824 219.311 12.1392 218.84 12.2529C218.369 12.3502 217.996 12.5044 217.72 12.7155C217.444 12.9103 217.241 13.1537 217.111 13.4459C216.997 13.7381 216.94 14.079 216.94 14.4685V14.9799C216.94 15.5967 217.151 16.0674 217.573 16.3921C217.996 16.7167 218.588 16.879 219.351 16.879Z" fill="#231F20"/>
<path d="M229.353 18.2182C228.622 18.2182 228.07 18.0315 227.697 17.6582C227.34 17.2686 227.161 16.806 227.161 16.2703C227.161 15.8483 227.267 15.5074 227.478 15.2477C227.705 14.988 228.03 14.8581 228.452 14.8581C228.825 14.8581 229.109 14.9636 229.304 15.1746C229.515 15.3857 229.621 15.6697 229.621 16.0268C229.621 16.2865 229.556 16.5138 229.426 16.7086C229.296 16.8871 229.15 17.0089 228.988 17.0738V17.1469C229.036 17.1793 229.093 17.1955 229.158 17.1955C229.239 17.1955 229.312 17.1955 229.377 17.1955C229.751 17.1955 230.067 17.0657 230.327 16.806C230.489 16.6437 230.652 16.4083 230.814 16.0999C230.976 15.7752 231.114 15.2883 231.228 14.639C231.358 13.9897 231.455 13.1294 231.52 12.0581C231.601 10.9705 231.642 9.58266 231.642 7.89451V6.45796H229.84V5.36229H240.531V6.45796H238.729V16.806H240.531V17.926H234.93V16.806H236.732V6.55536H233.103V7.77277C233.103 9.46092 233.063 10.865 232.981 11.985C232.917 13.105 232.811 14.0303 232.665 14.7607C232.535 15.4912 232.365 16.0674 232.153 16.4894C231.959 16.8953 231.723 17.228 231.447 17.4877C231.171 17.7637 230.847 17.9503 230.473 18.0477C230.1 18.1614 229.726 18.2182 229.353 18.2182Z" fill="#231F20"/>
<path d="M248.614 16.806H250.416V6.45796H248.614V5.36229H254.215V6.45796H252.413V11.0111H254.434L255.798 7.94321C256.269 6.87188 256.748 6.1252 257.235 5.70317C257.738 5.28113 258.298 5.07011 258.915 5.07011C259.451 5.07011 259.865 5.22432 260.157 5.53273C260.449 5.84114 260.595 6.23071 260.595 6.70145C260.595 7.17218 260.466 7.55364 260.206 7.84581C259.962 8.12176 259.63 8.25974 259.207 8.25974C258.785 8.25974 258.461 8.12988 258.233 7.87016C258.006 7.61045 257.892 7.24522 257.892 6.77449H257.819C257.689 6.93681 257.543 7.15595 257.381 7.43189C257.219 7.69161 257.056 8.00002 256.894 8.35713L255.53 11.425C255.855 11.4737 256.131 11.5792 256.358 11.7415C256.585 11.9039 256.805 12.1473 257.016 12.472L259.816 16.806H261.18V17.926H258.185L254.434 12.1311H252.413V16.806H254.215V17.926H248.614V16.806Z" fill="#231F20"/>
<path d="M264.732 23.0878C263.904 23.0878 263.303 22.9093 262.93 22.5522C262.557 22.2113 262.37 21.7568 262.37 21.1887C262.37 20.7666 262.484 20.4258 262.711 20.166C262.938 19.9063 263.263 19.7765 263.685 19.7765C264.058 19.7765 264.343 19.882 264.537 20.093C264.748 20.3202 264.854 20.6205 264.854 20.9939C264.854 21.2698 264.781 21.489 264.635 21.6513C264.505 21.8298 264.359 21.9435 264.196 21.9922V22.0652C264.375 22.1301 264.586 22.1626 264.83 22.1626C265.252 22.1626 265.666 21.9759 266.072 21.6026C266.477 21.2455 266.843 20.653 267.167 19.8252L267.679 18.4373L263.052 6.48231H261.785V5.36229H266.997V6.48231H265.244L268.629 15.686H268.726L272.013 6.48231H270.26V5.36229H274.692V6.48231H273.426L268.215 20.0199C267.874 20.9127 267.411 21.6432 266.826 22.2113C266.258 22.7956 265.56 23.0878 264.732 23.0878Z" fill="#231F20"/>
<path d="M275.696 21.6756H277.498V6.94493L275.696 6.6284V5.80056L279.495 5.07011V7.26146H279.592C279.868 6.66087 280.306 6.14955 280.907 5.72752C281.508 5.28925 282.303 5.07011 283.294 5.07011C284.852 5.07011 286.094 5.63824 287.019 6.77449C287.961 7.89451 288.432 9.51773 288.432 11.6441C288.432 13.7706 287.961 15.4019 287.019 16.5381C286.094 17.6582 284.852 18.2182 283.294 18.2182C282.319 18.2182 281.524 18.0072 280.907 17.5851C280.306 17.1631 279.868 16.6518 279.592 16.0512H279.495V21.6756H281.784V22.7956H275.696V21.6756ZM282.709 16.8303C283.829 16.8303 284.698 16.457 285.315 15.7103C285.948 14.9474 286.265 13.9329 286.265 12.6668V10.6215C286.265 9.35541 285.948 8.34901 285.315 7.60233C284.698 6.83942 283.829 6.45796 282.709 6.45796C282.319 6.45796 281.93 6.51478 281.54 6.6284C281.151 6.74203 280.802 6.90435 280.493 7.11537C280.201 7.32638 279.957 7.59422 279.762 7.91886C279.584 8.22727 279.495 8.57626 279.495 8.96583V14.3225C279.495 14.712 279.584 15.0691 279.762 15.3938C279.957 15.7022 280.201 15.9619 280.493 16.1729C280.802 16.3839 281.151 16.5463 281.54 16.6599C281.93 16.7735 282.319 16.8303 282.709 16.8303Z" fill="#231F20"/>
<path d="M296.713 18.2182C295.804 18.2182 294.992 18.064 294.278 17.7556C293.579 17.4309 292.987 16.9845 292.5 16.4164C292.013 15.832 291.639 15.1422 291.38 14.3468C291.12 13.5352 290.99 12.6343 290.99 11.6441C290.99 10.6377 291.128 9.72875 291.404 8.91714C291.696 8.10553 292.102 7.41566 292.622 6.84754C293.141 6.27941 293.758 5.84114 294.472 5.53273C295.203 5.22432 296.007 5.07011 296.883 5.07011C298.198 5.07011 299.237 5.35418 300 5.9223C300.78 6.4742 301.169 7.1803 301.169 8.0406C301.169 8.56003 301.031 8.96584 300.755 9.25801C300.496 9.55019 300.13 9.69628 299.659 9.69628C299.156 9.69628 298.783 9.55019 298.539 9.25801C298.296 8.96584 298.174 8.61684 298.174 8.21104C298.174 7.85393 298.263 7.54552 298.442 7.28581C298.62 7.02609 298.872 6.82319 299.197 6.6771V6.60405C298.986 6.4742 298.71 6.3768 298.369 6.31187C298.044 6.24695 297.622 6.21448 297.102 6.21448C296.534 6.21448 296.007 6.31999 295.52 6.53101C295.049 6.74203 294.643 7.04232 294.302 7.43189C293.961 7.80523 293.693 8.25162 293.498 8.77105C293.304 9.27425 293.206 9.82614 293.206 10.4267V12.2285C293.206 12.894 293.295 13.5027 293.474 14.0546C293.653 14.5903 293.904 15.0529 294.229 15.4425C294.57 15.832 294.968 16.1323 295.422 16.3434C295.893 16.5544 296.421 16.6599 297.005 16.6599C297.995 16.6599 298.775 16.457 299.343 16.0512C299.911 15.6291 300.366 15.0854 300.707 14.4198L301.486 14.9312C301.34 15.3532 301.129 15.7671 300.853 16.1729C300.577 16.5625 300.244 16.9115 299.854 17.2199C299.465 17.5121 299.002 17.7474 298.466 17.926C297.947 18.1208 297.362 18.2182 296.713 18.2182Z" fill="#231F20"/>
<path d="M57.3059 39.5175V38.3975L62.0059 34.0392L62.4929 34.6966L59.4002 38.9575L62.4929 43.2185L62.0059 43.8759L57.3059 39.5175ZM62.3225 39.5175V38.3975L67.0225 34.0392L67.5095 34.6966L64.4168 38.9575L67.5095 43.2185L67.0225 43.8759L62.3225 39.5175Z" fill="#231F20"/>
<path d="M70.1826 44.7767H72.009V30.0217H70.1826V28.9017H75.9297V30.0217H74.1033V36.6688H76.5142L78.925 31.9209C79.2497 31.2716 79.5582 30.7359 79.8504 30.3139C80.1427 29.8918 80.4268 29.5591 80.7028 29.3156C80.995 29.0559 81.2953 28.8773 81.6038 28.7799C81.9123 28.6663 82.237 28.6095 82.5779 28.6095C83.1624 28.6095 83.6088 28.7799 83.9173 29.1208C84.242 29.4455 84.4043 29.8513 84.4043 30.3382C84.4043 30.7765 84.2826 31.1498 84.039 31.4582C83.7955 31.7667 83.4383 31.9209 82.9675 31.9209C82.5454 31.9209 82.2045 31.7829 81.9447 31.5069C81.685 31.231 81.5551 30.8577 81.5551 30.3869H81.482C81.271 30.6629 81.0437 30.9956 80.8002 31.3852C80.5566 31.7748 80.3456 32.1562 80.167 32.5296L77.8535 37.107C78.1295 37.1557 78.3812 37.2612 78.6085 37.4236C78.8358 37.5697 79.0793 37.8375 79.339 38.2271L83.6007 44.7767H85.281V45.8968H81.7743L76.5385 37.8375H74.1033V44.7767H75.9297V45.8968H70.1826V44.7767Z" fill="#231F20"/>
<path d="M86.179 49.6464H87.9811V34.9157L86.179 34.5992V33.7713L89.978 33.0409V35.2322H90.0754C90.3514 34.6316 90.7897 34.1203 91.3904 33.6983C91.9911 33.26 92.7866 33.0409 93.7769 33.0409C95.3355 33.0409 96.5774 33.609 97.5028 34.7453C98.4444 35.8653 98.9153 37.4885 98.9153 39.6149C98.9153 41.7413 98.4444 43.3727 97.5028 44.5089C96.5774 45.6289 95.3355 46.1889 93.7769 46.1889C92.8028 46.1889 92.0073 45.9779 91.3904 45.5559C90.7897 45.1339 90.3514 44.6225 90.0754 44.0219H89.978V49.6464H92.2671V50.7664H86.179V49.6464ZM93.1925 44.8011C94.3127 44.8011 95.1812 44.4278 95.7982 43.6811C96.4313 42.9182 96.7479 41.9037 96.7479 40.6375V38.5923C96.7479 37.3262 96.4313 36.3198 95.7982 35.5731C95.1812 34.8102 94.3127 34.4287 93.1925 34.4287C92.8028 34.4287 92.4132 34.4855 92.0236 34.5992C91.6339 34.7128 91.2849 34.8751 90.9764 35.0861C90.6842 35.2972 90.4406 35.565 90.2458 35.8896C90.0672 36.198 89.978 36.547 89.978 36.9366V42.2932C89.978 42.6828 90.0672 43.0399 90.2458 43.3645C90.4406 43.673 90.6842 43.9327 90.9764 44.1437C91.2849 44.3547 91.6339 44.517 92.0236 44.6307C92.4132 44.7443 92.8028 44.8011 93.1925 44.8011Z" fill="#231F20"/>
<path d="M107.172 46.1889C106.279 46.1889 105.475 46.0347 104.761 45.7263C104.063 45.4017 103.47 44.9553 102.983 44.3872C102.496 43.8191 102.123 43.1292 101.863 42.3176C101.603 41.506 101.473 40.6051 101.473 39.6149C101.473 38.641 101.611 37.7563 101.887 36.961C102.18 36.1493 102.569 35.4514 103.056 34.867C103.56 34.2826 104.152 33.8363 104.834 33.5278C105.516 33.2032 106.263 33.0409 107.074 33.0409C107.902 33.0409 108.641 33.187 109.29 33.4791C109.94 33.7713 110.484 34.1853 110.922 34.7209C111.377 35.2403 111.726 35.8653 111.969 36.5957C112.213 37.3262 112.335 38.1216 112.335 38.9819V39.5419H103.689V40.1749C103.689 41.5547 104.03 42.6422 104.712 43.4376C105.41 44.233 106.336 44.6307 107.488 44.6307C108.495 44.6307 109.29 44.4278 109.875 44.0219C110.476 43.5999 110.946 43.0561 111.287 42.3906L112.091 42.9019C111.929 43.324 111.701 43.7379 111.409 44.1437C111.133 44.5333 110.792 44.8823 110.386 45.1907C109.98 45.4828 109.51 45.7182 108.974 45.8968C108.438 46.0916 107.837 46.1889 107.172 46.1889ZM103.689 38.4218H110.24V38.1784C110.24 37.6102 110.175 37.0827 110.045 36.5957C109.932 36.1088 109.745 35.6867 109.485 35.3296C109.226 34.9725 108.893 34.6966 108.487 34.5018C108.097 34.2908 107.626 34.1852 107.074 34.1852C106.522 34.1852 106.035 34.2826 105.613 34.4774C105.191 34.6722 104.834 34.9482 104.542 35.3053C104.266 35.6624 104.055 36.0844 103.909 36.5714C103.763 37.0421 103.689 37.5615 103.689 38.1297V38.4218Z" fill="#231F20"/>
<path d="M118.615 46.1889C117.446 46.1889 116.529 45.8886 115.863 45.2881C115.214 44.6712 114.889 43.8353 114.889 42.7802C114.889 42.1796 114.986 41.6521 115.181 41.1976C115.376 40.7268 115.693 40.3372 116.131 40.0288C116.586 39.7204 117.17 39.4851 117.884 39.3227C118.599 39.1604 119.467 39.0793 120.49 39.0793H122.292V37.2288C122.292 36.2386 122.049 35.4838 121.562 34.9644C121.091 34.4287 120.376 34.1609 119.419 34.1609C118.996 34.1609 118.607 34.2015 118.25 34.2826C117.892 34.3476 117.6 34.445 117.373 34.5748V34.6235C117.552 34.7209 117.722 34.867 117.884 35.0618C118.063 35.2566 118.152 35.5325 118.152 35.8896C118.152 36.3117 118.03 36.6444 117.787 36.8879C117.543 37.1152 117.219 37.2288 116.813 37.2288C116.423 37.2288 116.099 37.1152 115.839 36.8879C115.595 36.6444 115.473 36.2873 115.473 35.8166C115.473 35.4595 115.579 35.1186 115.79 34.794C116.001 34.4531 116.301 34.1528 116.691 33.8931C117.081 33.6334 117.56 33.4305 118.128 33.2844C118.712 33.122 119.37 33.0409 120.1 33.0409C121.415 33.0409 122.438 33.3818 123.169 34.0635C123.916 34.7453 124.289 35.703 124.289 36.9366V44.8498H126.115V45.702C125.937 45.8318 125.693 45.9455 125.385 46.0429C125.093 46.1403 124.76 46.1889 124.386 46.1889C123.753 46.1889 123.266 46.0104 122.925 45.6533C122.584 45.2962 122.414 44.8173 122.414 44.2167V44.0463H122.292C122.179 44.3222 122.024 44.5901 121.829 44.8498C121.651 45.1095 121.415 45.3368 121.123 45.5315C120.831 45.7263 120.474 45.8805 120.052 45.9942C119.646 46.124 119.167 46.1889 118.615 46.1889ZM119.467 44.8498C120.247 44.8498 120.912 44.655 121.464 44.2654C122.016 43.8596 122.292 43.2428 122.292 42.415V40.0532H120.709C120.011 40.0532 119.427 40.11 118.956 40.2236C118.485 40.321 118.112 40.4752 117.836 40.6862C117.56 40.881 117.357 41.1245 117.227 41.4167C117.113 41.7089 117.056 42.0497 117.056 42.4393V42.9506C117.056 43.5674 117.267 44.0382 117.69 44.3628C118.112 44.6875 118.704 44.8498 119.467 44.8498Z" fill="#231F20"/>
<path d="M129.725 44.7767H132.014V34.5261H128.945V37.034H127.484V33.3331H138.54V37.034H137.079V34.5261H134.011V44.7767H136.3V45.8968H129.725V44.7767Z" fill="#231F20"/>
<path d="M140.597 44.7767H142.399V34.4287H140.597V33.3331H146.149V34.4287H144.347V39.0306L144.128 42.415H144.201L150.484 35.1592V34.4287H148.682V33.3331H154.234V34.4287H152.432V44.7767H154.234V45.8968H148.682V44.7767H150.484V40.2236L150.703 36.8149H150.606L144.347 44.0706V44.7767H146.149V45.8968H140.597V44.7767Z" fill="#231F20"/>
<path d="M156.673 44.7767H158.475V34.4287H156.673V33.3331H163.687C164.856 33.3331 165.757 33.609 166.39 34.1609C167.023 34.7128 167.34 35.4351 167.34 36.3279C167.34 37.2531 167.088 37.943 166.585 38.3975C166.098 38.852 165.505 39.1523 164.807 39.2984V39.3958C165.164 39.4282 165.513 39.5175 165.854 39.6636C166.211 39.8097 166.528 40.0126 166.804 40.2723C167.08 40.5158 167.307 40.8242 167.486 41.1976C167.664 41.5547 167.754 41.9767 167.754 42.4637C167.754 43.6161 167.396 44.4765 166.682 45.0446C165.984 45.6127 165.002 45.8968 163.735 45.8968H156.673V44.7767ZM163.541 44.7037C164.239 44.7037 164.758 44.5251 165.099 44.168C165.456 43.7947 165.635 43.324 165.635 42.7558V42.0497C165.635 41.4816 165.456 41.019 165.099 40.6619C164.742 40.2886 164.222 40.1019 163.541 40.1019H160.472V44.7037H163.541ZM163.297 38.9088C163.914 38.9088 164.385 38.7384 164.71 38.3975C165.05 38.0404 165.221 37.6021 165.221 37.0827V36.3522C165.221 35.8328 165.05 35.4027 164.71 35.0618C164.385 34.7047 163.914 34.5261 163.297 34.5261H160.472V38.9088H163.297Z" fill="#231F20"/>
<path d="M170.3 44.7767H172.102V34.4287H170.3V33.3331H175.901V34.4287H174.099V38.9332H180.138V34.4287H178.336V33.3331H183.937V34.4287H182.135V44.7767H183.937V45.8968H178.336V44.7767H180.138V40.1262H174.099V44.7767H175.901V45.8968H170.3V44.7767Z" fill="#231F20"/>
<path d="M192.026 44.9959C192.627 44.9959 193.146 44.8985 193.585 44.7037C194.039 44.4927 194.405 44.2086 194.681 43.8515C194.973 43.4782 195.184 43.048 195.314 42.5611C195.46 42.0579 195.533 41.5141 195.533 40.9297V38.3001C195.533 37.7158 195.46 37.1801 195.314 36.6931C195.184 36.1899 194.973 35.7598 194.681 35.4027C194.405 35.0293 194.039 34.7453 193.585 34.5505C193.146 34.3395 192.627 34.2339 192.026 34.2339C191.409 34.2339 190.882 34.3395 190.443 34.5505C190.005 34.7453 189.64 35.0293 189.347 35.4027C189.071 35.7598 188.86 36.1899 188.714 36.6931C188.584 37.1801 188.519 37.7158 188.519 38.3001V40.9297C188.519 41.5141 188.584 42.0579 188.714 42.5611C188.86 43.048 189.071 43.4782 189.347 43.8515C189.64 44.2086 190.005 44.4927 190.443 44.7037C190.882 44.8985 191.409 44.9959 192.026 44.9959ZM192.026 46.1889C191.166 46.1889 190.378 46.0347 189.664 45.7263C188.95 45.4179 188.341 44.9796 187.838 44.4115C187.334 43.8272 186.945 43.1373 186.669 42.3419C186.393 41.5303 186.255 40.6213 186.255 39.6149C186.255 38.6248 186.393 37.7239 186.669 36.9123C186.945 36.1006 187.334 35.4108 187.838 34.8427C188.341 34.2583 188.95 33.8119 189.664 33.5035C190.378 33.1951 191.166 33.0409 192.026 33.0409C192.887 33.0409 193.674 33.1951 194.388 33.5035C195.103 33.8119 195.711 34.2583 196.215 34.8427C196.718 35.4108 197.108 36.1006 197.384 36.9123C197.66 37.7239 197.798 38.6248 197.798 39.6149C197.798 40.6213 197.66 41.5303 197.384 42.3419C197.108 43.1373 196.718 43.8272 196.215 44.4115C195.711 44.9796 195.103 45.4179 194.388 45.7263C193.674 46.0347 192.887 46.1889 192.026 46.1889Z" fill="#231F20"/>
<path d="M205.913 46.1889C205.02 46.1889 204.216 46.0347 203.502 45.7263C202.804 45.4017 202.211 44.9553 201.724 44.3872C201.237 43.8191 200.864 43.1292 200.604 42.3176C200.344 41.506 200.214 40.6051 200.214 39.6149C200.214 38.641 200.352 37.7563 200.628 36.961C200.921 36.1493 201.31 35.4514 201.797 34.867C202.301 34.2826 202.893 33.8363 203.575 33.5278C204.257 33.2032 205.004 33.0409 205.815 33.0409C206.643 33.0409 207.382 33.187 208.032 33.4791C208.681 33.7713 209.225 34.1853 209.663 34.7209C210.118 35.2403 210.467 35.8653 210.71 36.5957C210.954 37.3262 211.076 38.1216 211.076 38.9819V39.5419H202.43V40.1749C202.43 41.5547 202.771 42.6422 203.453 43.4376C204.151 44.233 205.077 44.6307 206.229 44.6307C207.236 44.6307 208.032 44.4278 208.616 44.0219C209.217 43.5999 209.687 43.0561 210.028 42.3906L210.832 42.9019C210.67 43.324 210.442 43.7379 210.15 44.1437C209.874 44.5333 209.533 44.8823 209.127 45.1907C208.722 45.4828 208.251 45.7182 207.715 45.8968C207.179 46.0916 206.579 46.1889 205.913 46.1889ZM202.43 38.4218H208.981V38.1784C208.981 37.6102 208.916 37.0827 208.786 36.5957C208.673 36.1088 208.486 35.6867 208.226 35.3296C207.967 34.9725 207.634 34.6966 207.228 34.5018C206.838 34.2908 206.367 34.1852 205.815 34.1852C205.263 34.1852 204.776 34.2826 204.354 34.4774C203.932 34.6722 203.575 34.9482 203.283 35.3053C203.007 35.6624 202.796 36.0844 202.65 36.5714C202.504 37.0421 202.43 37.5615 202.43 38.1297V38.4218Z" fill="#231F20"/>
<path d="M220.148 46.1889C219.418 46.1889 218.866 46.0023 218.492 45.6289C218.135 45.2394 217.956 44.7767 217.956 44.2411C217.956 43.819 218.062 43.4782 218.273 43.2185C218.5 42.9587 218.825 42.8289 219.247 42.8289C219.621 42.8289 219.905 42.9344 220.099 43.1454C220.31 43.3564 220.416 43.6405 220.416 43.9976C220.416 44.2573 220.351 44.4846 220.221 44.6794C220.091 44.8579 219.945 44.9796 219.783 45.0446V45.1176C219.832 45.1501 219.888 45.1663 219.953 45.1663C220.034 45.1663 220.108 45.1663 220.172 45.1663C220.546 45.1663 220.862 45.0365 221.122 44.7767C221.285 44.6144 221.447 44.3791 221.609 44.0706C221.772 43.746 221.91 43.259 222.023 42.6098C222.153 41.9605 222.251 41.1002 222.316 40.0288C222.397 38.9413 222.437 37.5534 222.437 35.8653V34.4287H220.635V33.3331H231.326V34.4287H229.524V44.7767H231.326V45.8968H225.725V44.7767H227.527V34.5261H223.898V35.7435C223.898 37.4317 223.858 38.8358 223.777 39.9558C223.712 41.0758 223.606 42.001 223.46 42.7315C223.33 43.4619 223.16 44.0382 222.949 44.4602C222.754 44.866 222.518 45.1988 222.242 45.4585C221.966 45.7344 221.642 45.9211 221.268 46.0185C220.895 46.1321 220.522 46.1889 220.148 46.1889Z" fill="#231F20"/>
<path d="M233.749 44.7767H235.551V34.4287H233.749V33.3331H239.302V34.4287H237.5V39.0306L237.28 42.415H237.353L243.636 35.1592V34.4287H241.834V33.3331H247.387V34.4287H245.585V44.7767H247.387V45.8968H241.834V44.7767H243.636V40.2236L243.856 36.8149H243.758L237.5 44.0706V44.7767H239.302V45.8968H233.749V44.7767Z" fill="#231F20"/>
<path d="M249.046 44.7037H250.8C251.547 43.7298 252.139 42.4961 252.577 41.0028C253.032 39.4932 253.259 37.6752 253.259 35.5488V34.4287H251.433V33.3331H262.002V34.4287H260.2V44.7037H262.635V49.549H260.833V45.8968H250.848V49.549H249.046V44.7037ZM258.203 44.7037V34.5261H254.72V35.5488C254.72 37.5453 254.518 39.3309 254.112 40.9054C253.706 42.4799 253.162 43.746 252.48 44.7037H258.203Z" fill="#231F20"/>
<path d="M270.052 46.1889C269.159 46.1889 268.355 46.0347 267.641 45.7263C266.943 45.4017 266.35 44.9553 265.863 44.3872C265.376 43.8191 265.003 43.1292 264.743 42.3176C264.483 41.506 264.353 40.6051 264.353 39.6149C264.353 38.641 264.491 37.7563 264.767 36.961C265.06 36.1493 265.449 35.4514 265.936 34.867C266.439 34.2826 267.032 33.8363 267.714 33.5278C268.396 33.2032 269.143 33.0409 269.954 33.0409C270.782 33.0409 271.521 33.187 272.17 33.4791C272.82 33.7713 273.364 34.1853 273.802 34.7209C274.257 35.2403 274.606 35.8653 274.849 36.5957C275.093 37.3262 275.214 38.1216 275.214 38.9819V39.5419H266.569V40.1749C266.569 41.5547 266.91 42.6422 267.592 43.4376C268.29 44.233 269.216 44.6307 270.368 44.6307C271.375 44.6307 272.17 44.4278 272.755 44.0219C273.356 43.5999 273.826 43.0561 274.167 42.3906L274.971 42.9019C274.809 43.324 274.581 43.7379 274.289 44.1437C274.013 44.5333 273.672 44.8823 273.266 45.1907C272.86 45.4828 272.39 45.7182 271.854 45.8968C271.318 46.0916 270.717 46.1889 270.052 46.1889ZM266.569 38.4218H273.12V38.1784C273.12 37.6102 273.055 37.0827 272.925 36.5957C272.812 36.1088 272.625 35.6867 272.365 35.3296C272.105 34.9725 271.773 34.6966 271.367 34.5018C270.977 34.2908 270.506 34.1852 269.954 34.1852C269.402 34.1852 268.915 34.2826 268.493 34.4774C268.071 34.6722 267.714 34.9482 267.422 35.3053C267.146 35.6624 266.935 36.0844 266.789 36.5714C266.642 37.0421 266.569 37.5615 266.569 38.1297V38.4218Z" fill="#231F20"/>
<path d="M277.288 49.6464H279.09V34.9157L277.288 34.5992V33.7713L281.087 33.0409V35.2322H281.184C281.46 34.6316 281.898 34.1203 282.499 33.6983C283.1 33.26 283.895 33.0409 284.886 33.0409C286.444 33.0409 287.686 33.609 288.611 34.7453C289.553 35.8653 290.024 37.4885 290.024 39.6149C290.024 41.7413 289.553 43.3727 288.611 44.5089C287.686 45.6289 286.444 46.1889 284.886 46.1889C283.911 46.1889 283.116 45.9779 282.499 45.5559C281.898 45.1339 281.46 44.6225 281.184 44.0219H281.087V49.6464H283.376V50.7664H277.288V49.6464ZM284.301 44.8011C285.421 44.8011 286.29 44.4278 286.907 43.6811C287.54 42.9182 287.857 41.9037 287.857 40.6375V38.5923C287.857 37.3262 287.54 36.3198 286.907 35.5731C286.29 34.8102 285.421 34.4287 284.301 34.4287C283.911 34.4287 283.522 34.4855 283.132 34.5992C282.743 34.7128 282.394 34.8751 282.085 35.0861C281.793 35.2972 281.549 35.565 281.354 35.8896C281.176 36.198 281.087 36.547 281.087 36.9366V42.2932C281.087 42.6828 281.176 43.0399 281.354 43.3645C281.549 43.673 281.793 43.9327 282.085 44.1437C282.394 44.3547 282.743 44.517 283.132 44.6307C283.522 44.7443 283.911 44.8011 284.301 44.8011Z" fill="#231F20"/>
<path d="M298.305 46.1889C297.396 46.1889 296.584 46.0347 295.87 45.7263C295.171 45.4017 294.579 44.9553 294.092 44.3872C293.605 43.8028 293.231 43.113 292.972 42.3176C292.712 41.506 292.582 40.6051 292.582 39.6149C292.582 38.6085 292.72 37.6995 292.996 36.8879C293.288 36.0763 293.694 35.3864 294.214 34.8183C294.733 34.2502 295.35 33.8119 296.064 33.5035C296.795 33.1951 297.599 33.0409 298.475 33.0409C299.79 33.0409 300.829 33.3249 301.592 33.8931C302.372 34.445 302.761 35.1511 302.761 36.0114C302.761 36.5308 302.623 36.9366 302.347 37.2288C302.088 37.521 301.722 37.6671 301.251 37.6671C300.748 37.6671 300.375 37.521 300.131 37.2288C299.888 36.9366 299.766 36.5876 299.766 36.1818C299.766 35.8247 299.855 35.5163 300.034 35.2566C300.212 34.9969 300.464 34.794 300.789 34.6479V34.5748C300.578 34.445 300.302 34.3476 299.961 34.2826C299.636 34.2177 299.214 34.1852 298.694 34.1852C298.126 34.1852 297.599 34.2908 297.112 34.5018C296.641 34.7128 296.235 35.0131 295.894 35.4027C295.553 35.776 295.285 36.2224 295.09 36.7418C294.895 37.245 294.798 37.7969 294.798 38.3975V40.1993C294.798 40.8648 294.887 41.4735 295.066 42.0254C295.245 42.5611 295.496 43.0237 295.821 43.4132C296.162 43.8028 296.56 44.1031 297.014 44.3141C297.485 44.5252 298.013 44.6307 298.597 44.6307C299.587 44.6307 300.367 44.4278 300.935 44.0219C301.503 43.5999 301.958 43.0561 302.299 42.3906L303.078 42.9019C302.932 43.324 302.721 43.7379 302.445 44.1437C302.169 44.5333 301.836 44.8823 301.446 45.1907C301.057 45.4828 300.594 45.7182 300.058 45.8968C299.539 46.0916 298.954 46.1889 298.305 46.1889Z" fill="#231F20"/>
<path d="M307.111 44.7767H309.4V34.5261H306.332V37.034H304.871V33.3331H315.927V37.034H314.466V34.5261H311.397V44.7767H313.686V45.8968H307.111V44.7767Z" fill="#231F20"/>
<path d="M317.984 44.7767H319.786V34.4287H317.984V33.3331H324.997C326.166 33.3331 327.067 33.609 327.7 34.1609C328.333 34.7128 328.65 35.4351 328.65 36.3279C328.65 37.2531 328.398 37.943 327.895 38.3975C327.408 38.852 326.815 39.1523 326.117 39.2984V39.3958C326.474 39.4282 326.823 39.5175 327.164 39.6636C327.522 39.8097 327.838 40.0126 328.114 40.2723C328.39 40.5158 328.617 40.8242 328.796 41.1976C328.975 41.5547 329.064 41.9767 329.064 42.4637C329.064 43.6161 328.707 44.4765 327.992 45.0446C327.294 45.6127 326.312 45.8968 325.046 45.8968H317.984V44.7767ZM324.851 44.7037C325.549 44.7037 326.069 44.5251 326.409 44.168C326.767 43.7947 326.945 43.324 326.945 42.7558V42.0497C326.945 41.4816 326.767 41.019 326.409 40.6619C326.052 40.2886 325.533 40.1019 324.851 40.1019H321.783V44.7037H324.851ZM324.607 38.9088C325.224 38.9088 325.695 38.7384 326.02 38.3975C326.361 38.0404 326.531 37.6021 326.531 37.0827V36.3522C326.531 35.8328 326.361 35.4027 326.02 35.0618C325.695 34.7047 325.224 34.5261 324.607 34.5261H321.783V38.9088H324.607Z" fill="#231F20"/>
<path d="M337.379 44.9959C337.98 44.9959 338.499 44.8985 338.938 44.7037C339.392 44.4927 339.757 44.2086 340.033 43.8515C340.326 43.4782 340.537 43.048 340.667 42.5611C340.813 42.0579 340.886 41.5141 340.886 40.9297V38.3001C340.886 37.7158 340.813 37.1801 340.667 36.6931C340.537 36.1899 340.326 35.7598 340.033 35.4027C339.757 35.0293 339.392 34.7453 338.938 34.5505C338.499 34.3395 337.98 34.2339 337.379 34.2339C336.762 34.2339 336.234 34.3395 335.796 34.5505C335.358 34.7453 334.993 35.0293 334.7 35.4027C334.424 35.7598 334.213 36.1899 334.067 36.6931C333.937 37.1801 333.872 37.7158 333.872 38.3001V40.9297C333.872 41.5141 333.937 42.0579 334.067 42.5611C334.213 43.048 334.424 43.4782 334.7 43.8515C334.993 44.2086 335.358 44.4927 335.796 44.7037C336.234 44.8985 336.762 44.9959 337.379 44.9959ZM337.379 46.1889C336.519 46.1889 335.731 46.0347 335.017 45.7263C334.303 45.4179 333.694 44.9796 333.19 44.4115C332.687 43.8272 332.298 43.1373 332.022 42.3419C331.746 41.5303 331.608 40.6213 331.608 39.6149C331.608 38.6248 331.746 37.7239 332.022 36.9123C332.298 36.1006 332.687 35.4108 333.19 34.8427C333.694 34.2583 334.303 33.8119 335.017 33.5035C335.731 33.1951 336.519 33.0409 337.379 33.0409C338.24 33.0409 339.027 33.1951 339.741 33.5035C340.456 33.8119 341.064 34.2583 341.568 34.8427C342.071 35.4108 342.461 36.1006 342.737 36.9123C343.013 37.7239 343.151 38.6248 343.151 39.6149C343.151 40.6213 343.013 41.5303 342.737 42.3419C342.461 43.1373 342.071 43.8272 341.568 44.4115C341.064 44.9796 340.456 45.4179 339.741 45.7263C339.027 46.0347 338.24 46.1889 337.379 46.1889Z" fill="#231F20"/>
<path d="M347.74 46.1889C347.27 46.1889 346.896 46.051 346.62 45.775C346.36 45.4828 346.231 45.1339 346.231 44.7281V44.582C346.231 44.1762 346.36 43.8353 346.62 43.5593C346.896 43.2672 347.27 43.1211 347.74 43.1211C348.211 43.1211 348.577 43.2672 348.836 43.5593C349.112 43.8353 349.25 44.1762 349.25 44.582V44.7281C349.25 45.1339 349.112 45.4828 348.836 45.775C348.577 46.051 348.211 46.1889 347.74 46.1889ZM347.74 36.1088C347.27 36.1088 346.896 35.9708 346.62 35.6948C346.36 35.4027 346.231 35.0537 346.231 34.6479V34.5018C346.231 34.096 346.36 33.7551 346.62 33.4791C346.896 33.187 347.27 33.0409 347.74 33.0409C348.211 33.0409 348.577 33.187 348.836 33.4791C349.112 33.7551 349.25 34.096 349.25 34.5018V34.6479C349.25 35.0537 349.112 35.4027 348.836 35.6948C348.577 35.9708 348.211 36.1088 347.74 36.1088Z" fill="#231F20"/>
<path d="M4.24019 74.1597C3.07128 74.1597 2.15401 73.8594 1.48838 73.2588C0.83898 72.642 0.514282 71.806 0.514282 70.751C0.514282 70.1504 0.611692 69.6228 0.80651 69.1683C1.00133 68.6976 1.31791 68.308 1.75625 67.9996C2.21083 67.6912 2.79528 67.4558 3.50962 67.2935C4.22395 67.1312 5.09252 67.05 6.11532 67.05H7.91739V65.1996C7.91739 64.2094 7.67386 63.4546 7.18682 62.9352C6.71601 62.3995 6.00167 62.1317 5.04381 62.1317C4.62171 62.1317 4.23207 62.1722 3.8749 62.2534C3.51774 62.3183 3.22551 62.4157 2.99822 62.5456V62.5943C3.1768 62.6917 3.34727 62.8378 3.50962 63.0326C3.6882 63.2273 3.77749 63.5033 3.77749 63.8604C3.77749 64.2824 3.65573 64.6152 3.41221 64.8587C3.16869 65.0859 2.84399 65.1996 2.43812 65.1996C2.04848 65.1996 1.72378 65.0859 1.46402 64.8587C1.2205 64.6152 1.09874 64.2581 1.09874 63.7874C1.09874 63.4302 1.20426 63.0894 1.41532 62.7647C1.62637 62.4238 1.92672 62.1236 2.31635 61.8638C2.70599 61.6041 3.18492 61.4012 3.75314 61.2551C4.3376 61.0928 4.99511 61.0117 5.72568 61.0117C7.0407 61.0117 8.0635 61.3525 8.79407 62.0343C9.54088 62.716 9.91428 63.6737 9.91428 64.9074V72.8206H11.7407V73.6728C11.5621 73.8026 11.3186 73.9162 11.0101 74.0136C10.7179 74.111 10.3851 74.1597 10.0117 74.1597C9.37853 74.1597 8.89148 73.9812 8.55055 73.6241C8.20962 73.2669 8.03915 72.7881 8.03915 72.1875V72.0171H7.91739C7.80374 72.293 7.64951 72.5608 7.45469 72.8206C7.27611 73.0803 7.0407 73.3075 6.74848 73.5023C6.45625 73.6971 6.09908 73.8513 5.67697 73.9649C5.2711 74.0948 4.79217 74.1597 4.24019 74.1597ZM5.09252 72.8206C5.87179 72.8206 6.53742 72.6258 7.08941 72.2362C7.64139 71.8304 7.91739 71.2136 7.91739 70.3857V68.024H6.33449C5.63639 68.024 5.05193 68.0808 4.58112 68.1944C4.11031 68.2918 3.73691 68.446 3.46091 68.657C3.18492 68.8518 2.98198 69.0953 2.85211 69.3875C2.73846 69.6796 2.68164 70.0205 2.68164 70.4101V70.9214C2.68164 71.5382 2.89269 72.009 3.3148 72.3336C3.73691 72.6582 4.32948 72.8206 5.09252 72.8206Z" fill="#231F20"/>
<path d="M13.8082 72.7475H15.6102V62.3995H13.8082V61.3038H20.8216C21.9906 61.3038 22.8916 61.5798 23.5248 62.1317C24.1579 62.6836 24.4745 63.4059 24.4745 64.2987C24.4745 65.2239 24.2229 65.9138 23.7196 66.3683C23.2325 66.8228 22.64 67.1231 21.9419 67.2692V67.3665C22.299 67.399 22.6481 67.4883 22.989 67.6344C23.3462 67.7805 23.6627 67.9834 23.9387 68.2431C24.2147 68.4866 24.442 68.795 24.6206 69.1683C24.7992 69.5254 24.8885 69.9475 24.8885 70.4344C24.8885 71.5869 24.5313 72.4472 23.817 73.0154C23.1189 73.5835 22.1367 73.8675 20.8703 73.8675H13.8082V72.7475ZM20.6755 72.6745C21.3736 72.6745 21.8931 72.4959 22.2341 72.1388C22.5912 71.7655 22.7698 71.2947 22.7698 70.7266V70.0205C22.7698 69.4524 22.5912 68.9898 22.2341 68.6327C21.8769 68.2593 21.3574 68.0726 20.6755 68.0726H17.6071V72.6745H20.6755ZM20.432 66.8796C21.0489 66.8796 21.5197 66.7091 21.8444 66.3683C22.1854 66.0112 22.3558 65.5729 22.3558 65.0535V64.323C22.3558 63.8036 22.1854 63.3734 21.8444 63.0326C21.5197 62.6755 21.0489 62.4969 20.432 62.4969H17.6071V66.8796H20.432Z" fill="#231F20"/>
<path d="M29.2858 72.7475H31.5749V62.4969H28.5065V65.0048H27.0454V61.3038H38.1013V65.0048H36.6402V62.4969H33.5718V72.7475H35.8609V73.8675H29.2858V72.7475Z" fill="#231F20"/>
<path d="M45.8079 72.9667C46.4086 72.9667 46.9281 72.8693 47.3664 72.6745C47.821 72.4635 48.1863 72.1794 48.4623 71.8223C48.7545 71.4489 48.9656 71.0188 49.0955 70.5318C49.2416 70.0286 49.3146 69.4848 49.3146 68.9005V66.2709C49.3146 65.6865 49.2416 65.1509 49.0955 64.6639C48.9656 64.1607 48.7545 63.7305 48.4623 63.3734C48.1863 63.0001 47.821 62.716 47.3664 62.5212C46.9281 62.3102 46.4086 62.2047 45.8079 62.2047C45.191 62.2047 44.6633 62.3102 44.225 62.5212C43.7866 62.716 43.4214 63.0001 43.1291 63.3734C42.8531 63.7305 42.6421 64.1607 42.496 64.6639C42.3661 65.1509 42.3012 65.6865 42.3012 66.2709V68.9005C42.3012 69.4848 42.3661 70.0286 42.496 70.5318C42.6421 71.0188 42.8531 71.4489 43.1291 71.8223C43.4214 72.1794 43.7866 72.4635 44.225 72.6745C44.6633 72.8693 45.191 72.9667 45.8079 72.9667ZM45.8079 74.1597C44.9474 74.1597 44.16 74.0055 43.4457 73.6971C42.7314 73.3887 42.1226 72.9504 41.6193 72.3823C41.116 71.7979 40.7264 71.1081 40.4504 70.3127C40.1744 69.5011 40.0364 68.5921 40.0364 67.5857C40.0364 66.5955 40.1744 65.6946 40.4504 64.883C40.7264 64.0714 41.116 63.3815 41.6193 62.8134C42.1226 62.2291 42.7314 61.7827 43.4457 61.4743C44.16 61.1659 44.9474 61.0117 45.8079 61.0117C46.6683 61.0117 47.4557 61.1659 48.1701 61.4743C48.8844 61.7827 49.4932 62.2291 49.9965 62.8134C50.4998 63.3815 50.8894 64.0714 51.1654 64.883C51.4414 65.6946 51.5794 66.5955 51.5794 67.5857C51.5794 68.5921 51.4414 69.5011 51.1654 70.3127C50.8894 71.1081 50.4998 71.7979 49.9965 72.3823C49.4932 72.9504 48.8844 73.3887 48.1701 73.6971C47.4557 74.0055 46.6683 74.1597 45.8079 74.1597Z" fill="#231F20"/>
<path d="M53.6366 77.6172H55.4387V62.8865L53.6366 62.5699V61.7421L57.4355 61.0117V63.203H57.533C57.8089 62.6024 58.2473 62.0911 58.848 61.6691C59.4487 61.2308 60.2442 61.0117 61.2345 61.0117C62.7931 61.0117 64.035 61.5798 64.9604 62.716C65.902 63.8361 66.3728 65.4593 66.3728 67.5857C66.3728 69.7121 65.902 71.3434 64.9604 72.4797C64.035 73.5997 62.7931 74.1597 61.2345 74.1597C60.2604 74.1597 59.4649 73.9487 58.848 73.5267C58.2473 73.1046 57.8089 72.5933 57.533 71.9927H57.4355V77.6172H59.7247V78.7372H53.6366V77.6172ZM60.6501 72.7719C61.7703 72.7719 62.6388 72.3985 63.2557 71.6518C63.8889 70.8889 64.2055 69.8744 64.2055 68.6083V66.5631C64.2055 65.2969 63.8889 64.2906 63.2557 63.5439C62.6388 62.781 61.7703 62.3995 60.6501 62.3995C60.2604 62.3995 59.8708 62.4563 59.4811 62.5699C59.0915 62.6836 58.7425 62.8459 58.434 63.0569C58.1418 63.2679 57.8982 63.5358 57.7034 63.8604C57.5248 64.1688 57.4355 64.5178 57.4355 64.9074V70.264C57.4355 70.6536 57.5248 71.0107 57.7034 71.3353C57.8982 71.6437 58.1418 71.9034 58.434 72.1145C58.7425 72.3255 59.0915 72.4878 59.4811 72.6014C59.8708 72.7151 60.2604 72.7719 60.6501 72.7719Z" fill="#231F20"/>
<path d="M74.6538 74.1597C73.7446 74.1597 72.9329 74.0055 72.2186 73.6971C71.5205 73.3725 70.9279 72.9261 70.4408 72.3579C69.9538 71.7736 69.5804 71.0837 69.3206 70.2883C69.0609 69.4767 68.931 68.5758 68.931 67.5857C68.931 66.5793 69.069 65.6703 69.345 64.8587C69.6372 64.0471 70.0431 63.3572 70.5626 62.7891C71.0821 62.221 71.699 61.7827 72.4134 61.4743C73.1439 61.1659 73.9476 61.0117 74.8242 61.0117C76.1393 61.0117 77.1783 61.2957 77.9413 61.8638C78.7206 62.4157 79.1103 63.1218 79.1103 63.9821C79.1103 64.5016 78.9723 64.9074 78.6963 65.1996C78.4365 65.4917 78.0712 65.6378 77.6004 65.6378C77.0971 65.6378 76.7237 65.4917 76.4802 65.1996C76.2367 64.9074 76.1149 64.5584 76.1149 64.1526C76.1149 63.7955 76.2042 63.4871 76.3828 63.2273C76.5614 62.9676 76.813 62.7647 77.1377 62.6186V62.5456C76.9267 62.4157 76.6507 62.3183 76.3097 62.2534C75.985 62.1885 75.5629 62.156 75.0434 62.156C74.4752 62.156 73.9476 62.2615 73.4605 62.4725C72.9897 62.6836 72.5838 62.9839 72.2429 63.3734C71.902 63.7468 71.6341 64.1932 71.4393 64.7126C71.2445 65.2158 71.147 65.7677 71.147 66.3683V68.17C71.147 68.8356 71.2363 69.4443 71.4149 69.9962C71.5935 70.5318 71.8451 70.9944 72.1698 71.384C72.5108 71.7736 72.9085 72.0739 73.3631 72.2849C73.8339 72.4959 74.3616 72.6014 74.946 72.6014C75.9363 72.6014 76.7156 72.3985 77.2838 71.9927C77.8521 71.5707 78.3066 71.0269 78.6476 70.3614L79.4268 70.8727C79.2807 71.2947 79.0697 71.7087 78.7937 72.1145C78.5177 72.504 78.1849 72.853 77.7952 73.1614C77.4056 73.4536 76.9429 73.689 76.4072 73.8675C75.8876 74.0623 75.3032 74.1597 74.6538 74.1597Z" fill="#231F20"/>
<path d="M81.6094 72.7475H83.4115V62.3995H81.6094V61.3038H87.2104V62.3995H85.4084V66.9526H87.4296L88.7933 63.8847C89.2642 62.8134 89.7431 62.0667 90.2301 61.6447C90.7334 61.2227 91.2935 61.0117 91.9104 61.0117C92.4462 61.0117 92.8602 61.1659 93.1524 61.4743C93.4446 61.7827 93.5908 62.1722 93.5908 62.643C93.5908 63.1137 93.4609 63.4952 93.2011 63.7874C92.9576 64.0633 92.6248 64.2013 92.2027 64.2013C91.7806 64.2013 91.4559 64.0714 91.2286 63.8117C91.0013 63.552 90.8876 63.1868 90.8876 62.716H90.8146C90.6847 62.8784 90.5386 63.0975 90.3763 63.3734C90.2139 63.6331 90.0515 63.9416 89.8892 64.2987L88.5255 67.3665C88.8502 67.4152 89.1262 67.5208 89.3534 67.6831C89.5807 67.8454 89.7999 68.0889 90.011 68.4135L92.8115 72.7475H94.1752V73.8675H91.1799L87.4296 68.0726H85.4084V72.7475H87.2104V73.8675H81.6094V72.7475Z" fill="#231F20"/>
<path d="M95.7594 72.7475H97.5615V62.3995H95.7594V61.3038H101.312V62.3995H99.5097V67.0013L99.2905 70.3857H99.3636L105.646 63.13V62.3995H103.844V61.3038H109.397V62.3995H107.595V72.7475H109.397V73.8675H103.844V72.7475H105.646V68.1944L105.866 64.7856H105.768L99.5097 72.0414V72.7475H101.312V73.8675H95.7594V72.7475Z" fill="#231F20"/>
<path d="M111.836 72.7475H113.638V62.3995H111.836V61.3038H117.388V62.3995H115.586V67.0013L115.367 70.3857H115.44L121.723 63.13V62.3995H119.921V61.3038H125.473V62.3995H123.671V72.7475H125.473V73.8675H119.921V72.7475H121.723V68.1944L121.942 64.7856H121.845L115.586 72.0414V72.7475H117.388V73.8675H111.836V72.7475ZM118.654 59.3316C117.973 59.3316 117.388 59.2586 116.901 59.1125C116.43 58.9502 116.032 58.7473 115.708 58.5038C115.399 58.2603 115.172 57.9844 115.026 57.6759C114.88 57.3513 114.807 57.0185 114.807 56.6777C114.807 56.2556 114.92 55.9391 115.148 55.7281C115.375 55.5008 115.675 55.3872 116.049 55.3872C116.422 55.3872 116.714 55.4927 116.925 55.7037C117.136 55.9148 117.242 56.215 117.242 56.6046C117.242 56.9293 117.153 57.189 116.974 57.3838C116.796 57.5623 116.593 57.6922 116.365 57.7733V57.822C116.641 57.9681 116.974 58.0736 117.364 58.1386C117.753 58.2035 118.184 58.236 118.654 58.236C119.125 58.236 119.555 58.2035 119.945 58.1386C120.335 58.0736 120.668 57.9681 120.944 57.822V57.7733C120.716 57.6922 120.513 57.5623 120.335 57.3838C120.156 57.189 120.067 56.9293 120.067 56.6046C120.067 56.215 120.172 55.9148 120.383 55.7037C120.594 55.4927 120.887 55.3872 121.26 55.3872C121.634 55.3872 121.934 55.5008 122.161 55.7281C122.388 55.9391 122.502 56.2556 122.502 56.6777C122.502 57.0185 122.429 57.3513 122.283 57.6759C122.137 57.9844 121.901 58.2603 121.577 58.5038C121.268 58.7473 120.87 58.9502 120.383 59.1125C119.913 59.2586 119.336 59.3316 118.654 59.3316Z" fill="#231F20"/>
<path d="M133.572 72.7475H135.374V62.3995H133.572V61.3038H147.234V62.3995H145.432V72.7475H147.234V73.8675H141.633V72.7475H143.435V62.4969H137.371V72.7475H139.173V73.8675H133.572V72.7475Z" fill="#231F20"/>
<path d="M155.322 72.9667C155.923 72.9667 156.442 72.8693 156.881 72.6745C157.335 72.4635 157.7 72.1794 157.976 71.8223C158.269 71.4489 158.48 71.0188 158.61 70.5318C158.756 70.0286 158.829 69.4848 158.829 68.9005V66.2709C158.829 65.6865 158.756 65.1509 158.61 64.6639C158.48 64.1607 158.269 63.7305 157.976 63.3734C157.7 63.0001 157.335 62.716 156.881 62.5212C156.442 62.3102 155.923 62.2047 155.322 62.2047C154.705 62.2047 154.177 62.3102 153.739 62.5212C153.301 62.716 152.935 63.0001 152.643 63.3734C152.367 63.7305 152.156 64.1607 152.01 64.6639C151.88 65.1509 151.815 65.6865 151.815 66.2709V68.9005C151.815 69.4848 151.88 70.0286 152.01 70.5318C152.156 71.0188 152.367 71.4489 152.643 71.8223C152.935 72.1794 153.301 72.4635 153.739 72.6745C154.177 72.8693 154.705 72.9667 155.322 72.9667ZM155.322 74.1597C154.462 74.1597 153.674 74.0055 152.96 73.6971C152.245 73.3887 151.637 72.9504 151.133 72.3823C150.63 71.7979 150.24 71.1081 149.964 70.3127C149.688 69.5011 149.55 68.5921 149.55 67.5857C149.55 66.5955 149.688 65.6946 149.964 64.883C150.24 64.0714 150.63 63.3815 151.133 62.8134C151.637 62.2291 152.245 61.7827 152.96 61.4743C153.674 61.1659 154.462 61.0117 155.322 61.0117C156.182 61.0117 156.97 61.1659 157.684 61.4743C158.398 61.7827 159.007 62.2291 159.511 62.8134C160.014 63.3815 160.403 64.0714 160.679 64.883C160.955 65.6946 161.093 66.5955 161.093 67.5857C161.093 68.5921 160.955 69.5011 160.679 70.3127C160.403 71.1081 160.014 71.7979 159.511 72.3823C159.007 72.9504 158.398 73.3887 157.684 73.6971C156.97 74.0055 156.182 74.1597 155.322 74.1597Z" fill="#231F20"/>
<path d="M162.187 72.6745H163.94C164.687 71.7005 165.28 70.4669 165.718 68.9735C166.173 67.4639 166.4 65.6459 166.4 63.5195V62.3995H164.573V61.3038H175.142V62.3995H173.34V72.6745H175.775V77.5198H173.973V73.8675H163.989V77.5198H162.187V72.6745ZM171.343 72.6745V62.4969H167.861V63.5195C167.861 65.5161 167.658 67.3016 167.252 68.8761C166.846 70.4507 166.302 71.7168 165.621 72.6745H171.343Z" fill="#231F20"/>
<path d="M177.581 72.7475H178.969L182.646 67.7318L178.92 62.4239H177.654V61.3038H182.768V62.4239H181.331L184.059 66.417H184.156L186.737 62.4239H185.228V61.3038H189.635V62.4239H188.247L184.765 67.3665L188.491 72.7475H189.757V73.8675H184.619V72.7475H186.056L183.352 68.6814H183.255L180.479 72.7475H181.989V73.8675H177.581V72.7475Z" fill="#231F20"/>
<path d="M196.94 72.9667C197.54 72.9667 198.06 72.8693 198.498 72.6745C198.953 72.4635 199.318 72.1794 199.594 71.8223C199.886 71.4489 200.097 71.0188 200.227 70.5318C200.373 70.0286 200.446 69.4848 200.446 68.9005V66.2709C200.446 65.6865 200.373 65.1509 200.227 64.6639C200.097 64.1607 199.886 63.7305 199.594 63.3734C199.318 63.0001 198.953 62.716 198.498 62.5212C198.06 62.3102 197.54 62.2047 196.94 62.2047C196.323 62.2047 195.795 62.3102 195.357 62.5212C194.918 62.716 194.553 63.0001 194.261 63.3734C193.985 63.7305 193.774 64.1607 193.628 64.6639C193.498 65.1509 193.433 65.6865 193.433 66.2709V68.9005C193.433 69.4848 193.498 70.0286 193.628 70.5318C193.774 71.0188 193.985 71.4489 194.261 71.8223C194.553 72.1794 194.918 72.4635 195.357 72.6745C195.795 72.8693 196.323 72.9667 196.94 72.9667ZM196.94 74.1597C196.079 74.1597 195.292 74.0055 194.578 73.6971C193.863 73.3887 193.254 72.9504 192.751 72.3823C192.248 71.7979 191.858 71.1081 191.582 70.3127C191.306 69.5011 191.168 68.5921 191.168 67.5857C191.168 66.5955 191.306 65.6946 191.582 64.883C191.858 64.0714 192.248 63.3815 192.751 62.8134C193.254 62.2291 193.863 61.7827 194.578 61.4743C195.292 61.1659 196.079 61.0117 196.94 61.0117C197.8 61.0117 198.588 61.1659 199.302 61.4743C200.016 61.7827 200.625 62.2291 201.128 62.8134C201.632 63.3815 202.021 64.0714 202.297 64.883C202.573 65.6946 202.711 66.5955 202.711 67.5857C202.711 68.5921 202.573 69.5011 202.297 70.3127C202.021 71.1081 201.632 71.7979 201.128 72.3823C200.625 72.9504 200.016 73.3887 199.302 73.6971C198.588 74.0055 197.8 74.1597 196.94 74.1597Z" fill="#231F20"/>
<path d="M203.805 72.6745H205.558C206.305 71.7005 206.897 70.4669 207.336 68.9735C207.79 67.4639 208.018 65.6459 208.018 63.5195V62.3995H206.191V61.3038H216.76V62.3995H214.958V72.6745H217.393V77.5198H215.591V73.8675H205.607V77.5198H203.805V72.6745ZM212.961 72.6745V62.4969H209.479V63.5195C209.479 65.5161 209.276 67.3016 208.87 68.8761C208.464 70.4507 207.92 71.7168 207.238 72.6745H212.961Z" fill="#231F20"/>
<path d="M225.155 72.7475H226.957V62.3995H225.155V61.3038H230.756V62.3995H228.954V66.9526H230.975L232.339 63.8847C232.81 62.8134 233.289 62.0667 233.776 61.6447C234.279 61.2227 234.839 61.0117 235.456 61.0117C235.992 61.0117 236.406 61.1659 236.698 61.4743C236.99 61.7827 237.136 62.1722 237.136 62.643C237.136 63.1137 237.006 63.4952 236.747 63.7874C236.503 64.0633 236.17 64.2013 235.748 64.2013C235.326 64.2013 235.001 64.0714 234.774 63.8117C234.547 63.552 234.433 63.1868 234.433 62.716H234.36C234.23 62.8784 234.084 63.0975 233.922 63.3734C233.759 63.6331 233.597 63.9416 233.435 64.2987L232.071 67.3665C232.396 67.4152 232.672 67.5208 232.899 67.6831C233.126 67.8454 233.345 68.0889 233.556 68.4135L236.357 72.7475H237.721V73.8675H234.725L230.975 68.0726H228.954V72.7475H230.756V73.8675H225.155V72.7475Z" fill="#231F20"/>
<path d="M246.743 79.0294C245.915 79.0294 245.314 78.8508 244.941 78.4937C244.567 78.1528 244.381 77.6983 244.381 77.1302C244.381 76.7082 244.494 76.3673 244.721 76.1076C244.949 75.8479 245.273 75.718 245.696 75.718C246.069 75.718 246.353 75.8235 246.548 76.0345C246.759 76.2618 246.864 76.5621 246.864 76.9354C246.864 77.2114 246.791 77.4305 246.645 77.5928C246.515 77.7714 246.369 77.885 246.207 77.9337V78.0067C246.386 78.0717 246.597 78.1041 246.84 78.1041C247.262 78.1041 247.676 77.9175 248.082 77.5441C248.488 77.187 248.853 76.5945 249.178 75.7667L249.689 74.3788L245.062 62.4239H243.796V61.3038H249.007V62.4239H247.254L250.639 71.6275H250.736L254.024 62.4239H252.271V61.3038H256.703V62.4239H255.436L250.225 75.9615C249.884 76.8543 249.421 77.5847 248.837 78.1528C248.269 78.7372 247.571 79.0294 246.743 79.0294Z" fill="#231F20"/>
<path d="M257.95 72.7475H259.752V62.3995H257.95V61.3038H271.611V62.3995H269.809V72.7475H271.611V73.8675H266.01V72.7475H267.812V62.4969H261.749V72.7475H263.551V73.8675H257.95V72.7475Z" fill="#231F20"/>
<path d="M273.806 77.6172H275.608V62.8865L273.806 62.5699V61.7421L277.605 61.0117V63.203H277.703C277.979 62.6024 278.417 62.0911 279.018 61.6691C279.618 61.2308 280.414 61.0117 281.404 61.0117C282.963 61.0117 284.205 61.5798 285.13 62.716C286.072 63.8361 286.543 65.4593 286.543 67.5857C286.543 69.7121 286.072 71.3434 285.13 72.4797C284.205 73.5997 282.963 74.1597 281.404 74.1597C280.43 74.1597 279.635 73.9487 279.018 73.5267C278.417 73.1046 277.979 72.5933 277.703 71.9927H277.605V77.6172H279.894V78.7372H273.806V77.6172ZM280.82 72.7719C281.94 72.7719 282.809 72.3985 283.425 71.6518C284.059 70.8889 284.375 69.8744 284.375 68.6083V66.5631C284.375 65.2969 284.059 64.2906 283.425 63.5439C282.809 62.781 281.94 62.3995 280.82 62.3995C280.43 62.3995 280.04 62.4563 279.651 62.5699C279.261 62.6836 278.912 62.8459 278.604 63.0569C278.312 63.2679 278.068 63.5358 277.873 63.8604C277.695 64.1688 277.605 64.5178 277.605 64.9074V70.264C277.605 70.6536 277.695 71.0107 277.873 71.3353C278.068 71.6437 278.312 71.9034 278.604 72.1145C278.912 72.3255 279.261 72.4878 279.651 72.6014C280.04 72.7151 280.43 72.7719 280.82 72.7719Z" fill="#231F20"/>
<path d="M292.948 74.1597C291.779 74.1597 290.862 73.8594 290.197 73.2588C289.547 72.642 289.222 71.806 289.222 70.751C289.222 70.1504 289.32 69.6228 289.515 69.1683C289.709 68.6976 290.026 68.308 290.464 67.9996C290.919 67.6912 291.503 67.4558 292.218 67.2935C292.932 67.1312 293.801 67.05 294.823 67.05H296.626V65.1996C296.626 64.2094 296.382 63.4546 295.895 62.9352C295.424 62.3995 294.71 62.1317 293.752 62.1317C293.33 62.1317 292.94 62.1722 292.583 62.2534C292.226 62.3183 291.934 62.4157 291.706 62.5456V62.5943C291.885 62.6917 292.055 62.8378 292.218 63.0326C292.396 63.2273 292.486 63.5033 292.486 63.8604C292.486 64.2824 292.364 64.6152 292.12 64.8587C291.877 65.0859 291.552 65.1996 291.146 65.1996C290.757 65.1996 290.432 65.0859 290.172 64.8587C289.929 64.6152 289.807 64.2581 289.807 63.7874C289.807 63.4302 289.912 63.0894 290.123 62.7647C290.335 62.4238 290.635 62.1236 291.025 61.8638C291.414 61.6041 291.893 61.4012 292.461 61.2551C293.046 61.0928 293.703 61.0117 294.434 61.0117C295.749 61.0117 296.772 61.3525 297.502 62.0343C298.249 62.716 298.622 63.6737 298.622 64.9074V72.8206H300.449V73.6728C300.27 73.8026 300.027 73.9162 299.718 74.0136C299.426 74.111 299.093 74.1597 298.72 74.1597C298.087 74.1597 297.6 73.9812 297.259 73.6241C296.918 73.2669 296.747 72.7881 296.747 72.1875V72.0171H296.626C296.512 72.293 296.358 72.5608 296.163 72.8206C295.984 73.0803 295.749 73.3075 295.457 73.5023C295.164 73.6971 294.807 73.8513 294.385 73.9649C293.979 74.0948 293.5 74.1597 292.948 74.1597ZM293.801 72.8206C294.58 72.8206 295.246 72.6258 295.798 72.2362C296.35 71.8304 296.626 71.2136 296.626 70.3857V68.024H295.043C294.345 68.024 293.76 68.0808 293.289 68.1944C292.818 68.2918 292.445 68.446 292.169 68.657C291.893 68.8518 291.69 69.0953 291.56 69.3875C291.447 69.6796 291.39 70.0205 291.39 70.4101V70.9214C291.39 71.5382 291.601 72.009 292.023 72.3336C292.445 72.6582 293.038 72.8206 293.801 72.8206Z" fill="#231F20"/>
<path d="M302.516 72.7475H304.318V62.3995H302.516V61.3038H309.53C310.699 61.3038 311.6 61.5798 312.233 62.1317C312.866 62.6836 313.183 63.4059 313.183 64.2987C313.183 65.2239 312.931 65.9138 312.428 66.3683C311.941 66.8228 311.348 67.1231 310.65 67.2692V67.3665C311.007 67.399 311.356 67.4883 311.697 67.6344C312.054 67.7805 312.371 67.9834 312.647 68.2431C312.923 68.4866 313.15 68.795 313.329 69.1683C313.507 69.5254 313.597 69.9475 313.597 70.4344C313.597 71.5869 313.239 72.4472 312.525 73.0154C311.827 73.5835 310.845 73.8675 309.579 73.8675H302.516V72.7475ZM309.384 72.6745C310.082 72.6745 310.601 72.4959 310.942 72.1388C311.299 71.7655 311.478 71.2947 311.478 70.7266V70.0205C311.478 69.4524 311.299 68.9898 310.942 68.6327C310.585 68.2593 310.066 68.0726 309.384 68.0726H306.315V72.6745H309.384ZM309.14 66.8796C309.757 66.8796 310.228 66.7091 310.553 66.3683C310.894 66.0112 311.064 65.5729 311.064 65.0535V64.323C311.064 63.8036 310.894 63.3734 310.553 63.0326C310.228 62.6755 309.757 62.4969 309.14 62.4969H306.315V66.8796H309.14Z" fill="#231F20"/>
<path d="M317.287 74.1597C316.556 74.1597 316.004 73.973 315.631 73.5997C315.273 73.2101 315.095 72.7475 315.095 72.2119C315.095 71.7898 315.2 71.4489 315.411 71.1892C315.639 70.9295 315.963 70.7997 316.386 70.7997C316.759 70.7997 317.043 70.9052 317.238 71.1162C317.449 71.3272 317.554 71.6113 317.554 71.9684C317.554 72.2281 317.49 72.4553 317.36 72.6501C317.23 72.8287 317.084 72.9504 316.921 73.0154V73.0884C316.97 73.1209 317.027 73.1371 317.092 73.1371C317.173 73.1371 317.246 73.1371 317.311 73.1371C317.684 73.1371 318.001 73.0072 318.261 72.7475C318.423 72.5852 318.585 72.3498 318.748 72.0414C318.91 71.7168 319.048 71.2298 319.162 70.5805C319.292 69.9312 319.389 69.0709 319.454 67.9996C319.535 66.912 319.576 65.5242 319.576 63.836V62.3995H317.774V61.3038H328.464V62.3995H326.662V72.7475H328.464V73.8675H322.863V72.7475H324.665V62.4969H321.037V63.7143C321.037 65.4025 320.996 66.8065 320.915 67.9266C320.85 69.0466 320.745 69.9718 320.599 70.7023C320.469 71.4327 320.298 72.009 320.087 72.431C319.892 72.8368 319.657 73.1696 319.381 73.4293C319.105 73.7052 318.78 73.8919 318.407 73.9893C318.033 74.1029 317.66 74.1597 317.287 74.1597Z" fill="#231F20"/>
<path d="M336.464 74.1597C335.571 74.1597 334.768 74.0055 334.054 73.6971C333.355 73.3725 332.763 72.9261 332.276 72.3579C331.789 71.7898 331.415 71.0999 331.156 70.2883C330.896 69.4767 330.766 68.5758 330.766 67.5857C330.766 66.6118 330.904 65.7271 331.18 64.9317C331.472 64.1201 331.862 63.4221 332.349 62.8378C332.852 62.2534 333.445 61.807 334.127 61.4986C334.808 61.174 335.555 61.0117 336.367 61.0117C337.195 61.0117 337.934 61.1577 338.583 61.4499C339.232 61.7421 339.776 62.156 340.215 62.6917C340.669 63.2111 341.018 63.8361 341.262 64.5665C341.505 65.2969 341.627 66.0923 341.627 66.9526V67.5126H332.982V68.1457C332.982 69.5254 333.323 70.613 334.005 71.4084C334.703 72.2037 335.628 72.6014 336.781 72.6014C337.788 72.6014 338.583 72.3985 339.168 71.9927C339.768 71.5707 340.239 71.0269 340.58 70.3614L341.384 70.8727C341.221 71.2947 340.994 71.7087 340.702 72.1145C340.426 72.504 340.085 72.853 339.679 73.1614C339.273 73.4536 338.802 73.689 338.267 73.8675C337.731 74.0623 337.13 74.1597 336.464 74.1597ZM332.982 66.3926H339.533V66.1491C339.533 65.581 339.468 65.0535 339.338 64.5665C339.224 64.0795 339.038 63.6575 338.778 63.3004C338.518 62.9433 338.185 62.6673 337.779 62.4725C337.39 62.2615 336.919 62.156 336.367 62.156C335.815 62.156 335.328 62.2534 334.906 62.4482C334.484 62.643 334.127 62.9189 333.834 63.276C333.558 63.6332 333.347 64.0552 333.201 64.5421C333.055 65.0129 332.982 65.5323 332.982 66.1004V66.3926Z" fill="#231F20"/>
<path d="M343.944 72.7475H345.746V62.3995H343.944V61.3038H349.545V62.3995H347.743V66.9039H353.782V62.3995H351.98V61.3038H357.581V62.3995H355.779V72.7475H357.581V73.8675H351.98V72.7475H353.782V68.097H347.743V72.7475H349.545V73.8675H343.944V72.7475Z" fill="#231F20"/>
<path d="M360.02 72.7475H361.822V62.3995H360.02V61.3038H365.573V62.3995H363.77V67.0013L363.551 70.3857H363.624L369.907 63.13V62.3995H368.105V61.3038H373.657V62.3995H371.855V72.7475H373.657V73.8675H368.105V72.7475H369.907V68.1944L370.126 64.7856H370.029L363.77 72.0414V72.7475H365.573V73.8675H360.02V72.7475Z" fill="#231F20"/>
<path d="M388.346 74.1597C386.771 74.1597 385.513 73.6322 384.571 72.5771C383.63 71.5058 383.11 70.0124 383.013 68.097H379.895V72.7475H381.698V73.8675H376.096V72.7475H377.899V62.3995H376.096V61.3038H381.698V62.3995H379.895V66.9039H383.037C383.151 65.0372 383.67 63.5926 384.595 62.5699C385.537 61.5311 386.779 61.0117 388.321 61.0117C389.133 61.0117 389.872 61.1659 390.537 61.4743C391.203 61.7664 391.763 62.1966 392.218 62.7647C392.689 63.3166 393.046 64.0065 393.289 64.8343C393.549 65.6459 393.679 66.5631 393.679 67.5857C393.679 69.6634 393.2 71.2785 392.242 72.431C391.284 73.5835 389.985 74.1597 388.346 74.1597ZM388.346 72.9667C389.433 72.9667 390.213 72.6095 390.684 71.8953C391.171 71.1811 391.414 70.2153 391.414 68.9979V66.1735C391.414 64.9561 391.171 63.9903 390.684 63.276C390.213 62.5618 389.433 62.2047 388.346 62.2047C387.258 62.2047 386.471 62.5618 385.984 63.276C385.513 63.9903 385.277 64.9561 385.277 66.1735V68.9979C385.277 70.2153 385.513 71.1811 385.984 71.8953C386.471 72.6095 387.258 72.9667 388.346 72.9667Z" fill="#231F20"/>
<path d="M396.005 71.1892L399.097 66.9283L396.005 62.6673L396.492 62.0099L401.192 66.3683V67.4883L396.492 71.8466L396.005 71.1892ZM401.021 71.1892L404.114 66.9283L401.021 62.6673L401.508 62.0099L406.208 66.3683V67.4883L401.508 71.8466L401.021 71.1892Z" fill="#231F20"/>
</svg>
