<svg width="94" height="31" viewBox="0 0 94 31" fill="none" xmlns="http://www.w3.org/2000/svg">
<path d="M11.6642 4.72254V8.19893L8.54836 4.72254H6.03065L8.74861 7.53748H0.0981445V9.1918H8.84737L5.83173 12.698H8.21691L11.6642 8.49653V12.698H13.5866V4.72254H11.6642Z" fill="#010728"/>
<path d="M18.5558 6.31059C19.7829 6.31059 20.7124 7.27235 20.7124 8.69267C20.7124 10.117 19.7829 11.0761 18.5558 11.0761C17.3301 11.0761 16.4019 10.117 16.4019 8.69267C16.4019 7.27235 17.3301 6.31059 18.5558 6.31059ZM14.4795 16.7019H16.4019V11.7051C17.0013 12.4342 17.859 12.8643 18.7871 12.8643C20.9761 12.8643 22.6349 11.141 22.6349 8.69267C22.6349 6.24567 20.9761 4.52505 18.7871 4.52505C17.8266 4.52505 17.0013 4.95656 16.4019 5.6843V4.69008H14.4795V16.7019Z" fill="#010728"/>
<path d="M25.3826 7.99736C25.5815 6.87463 26.3446 6.24563 27.4391 6.24563C28.5661 6.24563 29.2966 6.87463 29.4941 7.99736H25.3826ZM31.4153 8.72781C31.4153 6.2781 29.7255 4.55884 27.4391 4.55884C25.1513 4.55884 23.4602 6.2781 23.4602 8.72781C23.4602 11.1748 25.1513 12.8968 27.4391 12.8968C29.3291 12.8968 30.7199 12.0026 31.2164 10.3497H29.1275C28.8637 10.9124 28.3685 11.2424 27.5378 11.2424C26.3446 11.2424 25.5815 10.581 25.3826 9.39062H31.4153V8.72781Z" fill="#010728"/>
<path d="M37.4479 9.42173C37.4479 10.6473 36.4197 11.2749 35.2941 11.2749C34.6636 11.2749 34.1657 11.0098 34.1657 10.4471C34.1657 9.42173 36.1558 9.58676 37.4479 9.05786V9.42173ZM35.9556 4.55884C34.1657 4.55884 32.4745 5.35151 32.4745 7.43599H34.4647C34.4647 6.54322 35.0626 6.07926 35.9556 6.07926C36.7835 6.07926 37.414 6.44448 37.414 7.07348C37.414 8.66017 32.2094 7.1384 32.2094 10.581C32.2094 12.2042 33.538 12.8968 34.8936 12.8968C35.9894 12.8968 36.9162 12.4991 37.4479 11.54V12.7317H39.3352V7.13841C39.3352 5.28523 37.713 4.55884 35.9556 4.55884Z" fill="#010728"/>
<path d="M40.1645 6.47832H42.5849V12.698H44.5074V6.47832H46.8925V4.72254H40.1645V6.47832Z" fill="#010728"/>
<path d="M49.6754 10.7109V4.72254H47.8205V12.698H50.3058L53.4527 6.7421V12.698H55.2778V4.72254H52.8249L49.6754 10.7109Z" fill="#010728"/>
<path d="M61.0101 11.2749H58.9225V9.35548H61.0101C61.7745 9.35548 62.1045 9.71935 62.1045 10.3159C62.1045 10.9124 61.742 11.2749 61.0101 11.2749ZM58.9225 6.14827H60.7124C61.6094 6.14827 61.8732 6.4445 61.8732 7.04104C61.8732 7.56993 61.5742 7.89999 60.7124 7.89999H58.9225V6.14827ZM62.7012 8.46135C63.3303 8.16647 63.728 7.63757 63.728 6.80973C63.728 5.38536 62.7336 4.72254 61.2765 4.72254H57.0677V12.7318H61.3091C63.0002 12.7318 64.027 11.9377 64.027 10.3497C64.027 9.39064 63.4954 8.76165 62.7012 8.46135Z" fill="#010728"/>
<path d="M70.7888 7.83371H67.4404V4.72254H65.5166V12.698H67.4404V9.58679H70.7888V12.698H72.71V4.72254H70.7888V7.83371Z" fill="#010728"/>
<path d="M84.1096 4.72254H82.1885V12.7318H84.1096V4.72254Z" fill="#010728"/>
<path d="M77.7807 11.1085H76.4238V8.82658H77.7807C78.7765 8.82658 79.2053 9.22291 79.2053 9.91955C79.2053 10.6473 78.7765 11.1085 77.7807 11.1085ZM77.9458 7.23988H76.4548V4.72254H74.5337V12.7318H77.9796C80.1009 12.7318 81.1616 11.5401 81.1616 9.95201C81.1616 8.36396 79.9697 7.23988 77.9458 7.23988Z" fill="#010728"/>
<path d="M89.5779 3.10473C91.0701 3.10473 92.097 2.2079 92.097 0.718597H90.5736C90.5736 1.44905 90.142 1.74664 89.5779 1.74664C89.0814 1.74664 88.6187 1.44905 88.6187 0.718597H87.0939C87.0939 2.2079 88.0883 3.10473 89.5779 3.10473Z" fill="#010728"/>
<path d="M87.7543 10.7109V4.72254H85.8994V12.6979H88.3522L91.5005 6.74209V12.6979H93.3567V4.72254H90.87L87.7543 10.7109Z" fill="#010728"/>
<path d="M12.7911 26.429V18.4211H5.83173V26.429H7.75424V20.1769H10.8686V26.429H12.7911Z" fill="#010728"/>
<path d="M14.7447 28.876C14.3483 28.876 13.9843 28.8097 13.6853 28.711V30.4005C13.9843 30.4965 14.4471 30.5628 14.9125 30.5628C16.9351 30.5628 17.7955 29.2087 18.4909 27.223L21.5065 18.39H19.5841L17.5641 24.5434L15.5754 18.39H13.6516L16.6672 27.223C16.2032 28.3471 15.639 28.876 14.7447 28.876Z" fill="#010728"/>
<path d="M21.9706 20.1769H24.3897V26.429H26.3108V20.1769H28.7V18.4211H21.9706V20.1769Z" fill="#010728"/>
<path d="M32.9075 22.5251C33.9019 22.5251 34.3321 22.9215 34.3321 23.6181C34.3321 24.312 33.9019 24.8085 32.9075 24.8085H31.5478V22.5251H32.9075ZM29.628 18.4211V26.429H33.0739C35.1939 26.429 36.2546 25.2386 36.2546 23.6506C36.2546 22.0612 35.0951 20.9344 33.0739 20.9344H31.5817V18.4211H29.628Z" fill="#010728"/>
</svg>
