<svg width="226" height="34" viewBox="0 0 226 34" fill="none" xmlns="http://www.w3.org/2000/svg">
<path d="M0.515747 10.3828H1.63829C2.24695 9.53484 2.74087 8.42746 3.12004 7.06068C3.49921 5.68392 3.6888 4.02783 3.6888 2.09239V1.35912H2.56625V0.670746H9.75051V1.35912H8.62797V10.3828H10.1696V13.5105H9.00215V11.1161H1.68319V13.5105H0.515747V10.3828ZM7.34079 10.3828V1.40402H4.60179V2.09239C4.60179 2.96035 4.55689 3.79837 4.46709 4.60647C4.38726 5.40458 4.26753 6.15781 4.10788 6.86614C3.94823 7.57447 3.74866 8.22793 3.50919 8.82651C3.26971 9.41513 2.99531 9.9339 2.68599 10.3828H7.34079Z" fill="#231F20"/>
<path d="M11.5231 10.4277H12.6306V4.06774H11.5231V3.39432H14.9356V4.06774H13.828V6.89607L13.6933 8.97616H13.7382L17.5998 4.51668V4.06774H16.4922V3.39432H19.9047V4.06774H18.7971V10.4277H19.9047V11.1161H16.4922V10.4277H17.5998V7.62934L17.7345 5.53428H17.6746L13.828 9.99376V10.4277H14.9356V11.1161H11.5231V10.4277Z" fill="#231F20"/>
<path d="M21.2541 13.4207H22.3617V4.36703L21.2541 4.17249V3.66369L23.589 3.21475V4.56157H23.6489C23.8185 4.19244 24.0879 3.87818 24.4571 3.61879C24.8263 3.34943 25.3152 3.21475 25.9239 3.21475C26.8818 3.21475 27.6451 3.56392 28.2138 4.26228C28.7926 4.95065 29.0819 5.9483 29.0819 7.25522C29.0819 8.56214 28.7926 9.56477 28.2138 10.2631C27.6451 10.9515 26.8818 11.2957 25.9239 11.2957C25.3252 11.2957 24.8363 11.166 24.4571 10.9066C24.0879 10.6472 23.8185 10.333 23.6489 9.96383H23.589V13.4207H24.9959V14.1091H21.2541V13.4207ZM25.5647 10.4427C26.2531 10.4427 26.787 10.2132 27.1661 9.75433C27.5553 9.28543 27.7499 8.6619 27.7499 7.88374V6.6267C27.7499 5.84854 27.5553 5.22999 27.1661 4.77108C26.787 4.30218 26.2531 4.06774 25.5647 4.06774C25.3252 4.06774 25.0857 4.10265 24.8462 4.17249C24.6068 4.24232 24.3922 4.34209 24.2026 4.47178C24.023 4.60148 23.8734 4.76609 23.7536 4.96562C23.6439 5.15517 23.589 5.36967 23.589 5.6091V8.90134C23.589 9.14077 23.6439 9.36026 23.7536 9.55979C23.8734 9.74934 24.023 9.90896 24.2026 10.0387C24.3922 10.1683 24.6068 10.2681 24.8462 10.338C25.0857 10.4078 25.3252 10.4427 25.5647 10.4427Z" fill="#231F20"/>
<path d="M34.1565 11.2957C33.6077 11.2957 33.1138 11.2009 32.6748 11.0114C32.2457 10.8118 31.8815 10.5375 31.5822 10.1883C31.2828 9.83913 31.0533 9.41513 30.8937 8.9163C30.734 8.41748 30.6542 7.86378 30.6542 7.25522C30.6542 6.65663 30.739 6.11291 30.9086 5.62407C31.0883 5.12524 31.3277 4.69625 31.6271 4.3371C31.9364 3.97795 32.3006 3.70359 32.7197 3.51404C33.1388 3.31451 33.5978 3.21475 34.0967 3.21475C34.6055 3.21475 35.0596 3.30454 35.4587 3.48411C35.8578 3.66369 36.1921 3.91809 36.4615 4.24731C36.7409 4.56656 36.9554 4.95065 37.1051 5.39959C37.2547 5.84854 37.3296 6.33738 37.3296 6.86614V7.21033H32.0162V7.59941C32.0162 8.44741 32.2258 9.11583 32.6448 9.60468C33.0739 10.0935 33.6427 10.338 34.3511 10.338C34.9697 10.338 35.4587 10.2132 35.8179 9.96383C36.1871 9.70444 36.4764 9.37023 36.686 8.9612L37.1799 9.27546C37.0801 9.53484 36.9404 9.78924 36.7608 10.0387C36.5912 10.2781 36.3817 10.4926 36.1322 10.6821C35.8827 10.8617 35.5934 11.0064 35.2641 11.1161C34.9348 11.2358 34.5656 11.2957 34.1565 11.2957ZM32.0162 6.52195H36.0424V6.3723C36.0424 6.02312 36.0025 5.69889 35.9227 5.39959C35.8528 5.1003 35.7381 4.84091 35.5784 4.62143C35.4188 4.40195 35.2142 4.23235 34.9648 4.11263C34.7253 3.98294 34.4359 3.91809 34.0967 3.91809C33.7574 3.91809 33.4581 3.97795 33.1986 4.09766C32.9392 4.21738 32.7197 4.38698 32.5401 4.60647C32.3704 4.82595 32.2407 5.08534 32.1509 5.38463C32.0611 5.67395 32.0162 5.9932 32.0162 6.34237V6.52195Z" fill="#231F20"/>
<path d="M38.7535 10.4277H39.861V4.06774H38.7535V3.39432H42.1959V4.06774H41.0883V6.86614H42.3306L43.1688 4.98058C43.4581 4.32214 43.7525 3.86322 44.0518 3.60383C44.3612 3.34444 44.7054 3.21475 45.0846 3.21475C45.4139 3.21475 45.6683 3.30952 45.8479 3.49908C46.0275 3.68863 46.1173 3.92806 46.1173 4.21738C46.1173 4.5067 46.0375 4.74115 45.8778 4.92072C45.7282 5.09032 45.5236 5.17512 45.2642 5.17512C45.0048 5.17512 44.8052 5.09531 44.6655 4.93569C44.5258 4.77607 44.456 4.55159 44.456 4.26228H44.4111C44.3312 4.36204 44.2414 4.49672 44.1416 4.66632C44.0419 4.82595 43.9421 5.0155 43.8423 5.23498L43.0041 7.12054C43.2037 7.15047 43.3733 7.21531 43.513 7.31508C43.6527 7.41484 43.7874 7.56449 43.9171 7.76402L45.6384 10.4277H46.4765V11.1161H44.6356L42.3306 7.55451H41.0883V10.4277H42.1959V11.1161H38.7535V10.4277Z" fill="#231F20"/>
<path d="M48.6316 10.4277H50.0385V4.12759H48.1526V5.66896H47.2546V3.39432H54.0497V5.66896H53.1517V4.12759H51.2658V10.4277H52.6727V11.1161H48.6316V10.4277Z" fill="#231F20"/>
<path d="M58.7862 10.5624C59.1554 10.5624 59.4747 10.5026 59.7441 10.3828C60.0235 10.2532 60.248 10.0786 60.4177 9.85908C60.5973 9.62962 60.727 9.36524 60.8068 9.06595C60.8966 8.75668 60.9415 8.42247 60.9415 8.06331V6.44712C60.9415 6.08797 60.8966 5.75875 60.8068 5.45945C60.727 5.15018 60.5973 4.88581 60.4177 4.66632C60.248 4.43687 60.0235 4.26228 59.7441 4.14256C59.4747 4.01286 59.1554 3.94802 58.7862 3.94802C58.4071 3.94802 58.0828 4.01286 57.8134 4.14256C57.544 4.26228 57.3195 4.43687 57.1399 4.66632C56.9702 4.88581 56.8405 5.15018 56.7507 5.45945C56.6709 5.75875 56.631 6.08797 56.631 6.44712V8.06331C56.631 8.42247 56.6709 8.75668 56.7507 9.06595C56.8405 9.36524 56.9702 9.62962 57.1399 9.85908C57.3195 10.0786 57.544 10.2532 57.8134 10.3828C58.0828 10.5026 58.4071 10.5624 58.7862 10.5624ZM58.7862 11.2957C58.2574 11.2957 57.7735 11.2009 57.3344 11.0114C56.8954 10.8218 56.5212 10.5524 56.2119 10.2033C55.9026 9.84411 55.6631 9.42011 55.4935 8.93127C55.3238 8.43244 55.239 7.87376 55.239 7.25522C55.239 6.64665 55.3238 6.09296 55.4935 5.59414C55.6631 5.09531 55.9026 4.67131 56.2119 4.32214C56.5212 3.96298 56.8954 3.68863 57.3344 3.49908C57.7735 3.30952 58.2574 3.21475 58.7862 3.21475C59.3151 3.21475 59.799 3.30952 60.2381 3.49908C60.6771 3.68863 61.0513 3.96298 61.3606 4.32214C61.6699 4.67131 61.9094 5.09531 62.079 5.59414C62.2487 6.09296 62.3335 6.64665 62.3335 7.25522C62.3335 7.87376 62.2487 8.43244 62.079 8.93127C61.9094 9.42011 61.6699 9.84411 61.3606 10.2033C61.0513 10.5524 60.6771 10.8218 60.2381 11.0114C59.799 11.2009 59.3151 11.2957 58.7862 11.2957Z" fill="#231F20"/>
<path d="M63.5978 13.4207H64.7054V4.36703L63.5978 4.17249V3.66369L65.9327 3.21475V4.56157H65.9926C66.1622 4.19244 66.4316 3.87818 66.8008 3.61879C67.17 3.34943 67.6589 3.21475 68.2676 3.21475C69.2255 3.21475 69.9888 3.56392 70.5576 4.26228C71.1363 4.95065 71.4257 5.9483 71.4257 7.25522C71.4257 8.56214 71.1363 9.56477 70.5576 10.2631C69.9888 10.9515 69.2255 11.2957 68.2676 11.2957C67.6689 11.2957 67.18 11.166 66.8008 10.9066C66.4316 10.6472 66.1622 10.333 65.9926 9.96383H65.9327V13.4207H67.3397V14.1091H63.5978V13.4207ZM67.9084 10.4427C68.5969 10.4427 69.1307 10.2132 69.5099 9.75433C69.899 9.28543 70.0936 8.6619 70.0936 7.88374V6.6267C70.0936 5.84854 69.899 5.22999 69.5099 4.77108C69.1307 4.30218 68.5969 4.06774 67.9084 4.06774C67.6689 4.06774 67.4295 4.10265 67.19 4.17249C66.9505 4.24232 66.736 4.34209 66.5464 4.47178C66.3668 4.60148 66.2171 4.76609 66.0974 4.96562C65.9876 5.15517 65.9327 5.36967 65.9327 5.6091V8.90134C65.9327 9.14077 65.9876 9.36026 66.0974 9.55979C66.2171 9.74934 66.3668 9.90896 66.5464 10.0387C66.736 10.1683 66.9505 10.2681 67.19 10.338C67.4295 10.4078 67.6689 10.4427 67.9084 10.4427Z" fill="#231F20"/>
<path d="M76.4053 10.4277H77.5129V4.06774H76.4053V3.39432H84.8019V4.06774H83.6944V10.4277H84.8019V11.1161H81.3595V10.4277H82.4671V4.12759H78.7402V10.4277H79.8478V11.1161H76.4053V10.4277Z" fill="#231F20"/>
<path d="M86.151 13.4207H87.2586V4.36703L86.151 4.17249V3.66369L88.4859 3.21475V4.56157H88.5457C88.7154 4.19244 88.9848 3.87818 89.354 3.61879C89.7232 3.34943 90.2121 3.21475 90.8207 3.21475C91.7786 3.21475 92.542 3.56392 93.1107 4.26228C93.6895 4.95065 93.9788 5.9483 93.9788 7.25522C93.9788 8.56214 93.6895 9.56477 93.1107 10.2631C92.542 10.9515 91.7786 11.2957 90.8207 11.2957C90.2221 11.2957 89.7331 11.166 89.354 10.9066C88.9848 10.6472 88.7154 10.333 88.5457 9.96383H88.4859V13.4207H89.8928V14.1091H86.151V13.4207ZM90.4615 10.4427C91.15 10.4427 91.6839 10.2132 92.063 9.75433C92.4522 9.28543 92.6467 8.6619 92.6467 7.88374V6.6267C92.6467 5.84854 92.4522 5.22999 92.063 4.77108C91.6839 4.30218 91.15 4.06774 90.4615 4.06774C90.2221 4.06774 89.9826 4.10265 89.7431 4.17249C89.5036 4.24232 89.2891 4.34209 89.0995 4.47178C88.9199 4.60148 88.7702 4.76609 88.6505 4.96562C88.5407 5.15517 88.4859 5.36967 88.4859 5.6091V8.90134C88.4859 9.14077 88.5407 9.36026 88.6505 9.55979C88.7702 9.74934 88.9199 9.90896 89.0995 10.0387C89.2891 10.1683 89.5036 10.2681 89.7431 10.338C89.9826 10.4078 90.2221 10.4427 90.4615 10.4427Z" fill="#231F20"/>
<path d="M99.0983 10.5624C99.4675 10.5624 99.7868 10.5026 100.056 10.3828C100.336 10.2532 100.56 10.0786 100.73 9.85908C100.909 9.62962 101.039 9.36524 101.119 9.06595C101.209 8.75668 101.254 8.42247 101.254 8.06331V6.44712C101.254 6.08797 101.209 5.75875 101.119 5.45945C101.039 5.15018 100.909 4.88581 100.73 4.66632C100.56 4.43687 100.336 4.26228 100.056 4.14256C99.7868 4.01286 99.4675 3.94802 99.0983 3.94802C98.7191 3.94802 98.3948 4.01286 98.1254 4.14256C97.856 4.26228 97.6315 4.43687 97.4519 4.66632C97.2823 4.88581 97.1526 5.15018 97.0628 5.45945C96.9829 5.75875 96.943 6.08797 96.943 6.44712V8.06331C96.943 8.42247 96.9829 8.75668 97.0628 9.06595C97.1526 9.36524 97.2823 9.62962 97.4519 9.85908C97.6315 10.0786 97.856 10.2532 98.1254 10.3828C98.3948 10.5026 98.7191 10.5624 99.0983 10.5624ZM99.0983 11.2957C98.5695 11.2957 98.0855 11.2009 97.6465 11.0114C97.2075 10.8218 96.8333 10.5524 96.524 10.2033C96.2146 9.84411 95.9752 9.42011 95.8055 8.93127C95.6359 8.43244 95.5511 7.87376 95.5511 7.25522C95.5511 6.64665 95.6359 6.09296 95.8055 5.59414C95.9752 5.09531 96.2146 4.67131 96.524 4.32214C96.8333 3.96298 97.2075 3.68863 97.6465 3.49908C98.0855 3.30952 98.5695 3.21475 99.0983 3.21475C99.6272 3.21475 100.111 3.30952 100.55 3.49908C100.989 3.68863 101.363 3.96298 101.673 4.32214C101.982 4.67131 102.221 5.09531 102.391 5.59414C102.561 6.09296 102.646 6.64665 102.646 7.25522C102.646 7.87376 102.561 8.43244 102.391 8.93127C102.221 9.42011 101.982 9.84411 101.673 10.2033C101.363 10.5524 100.989 10.8218 100.55 11.0114C100.111 11.2009 99.6272 11.2957 99.0983 11.2957Z" fill="#231F20"/>
<path d="M107.633 11.2957C107.084 11.2957 106.591 11.2009 106.151 11.0114C105.722 10.8118 105.358 10.5375 105.059 10.1883C104.76 9.83913 104.53 9.41513 104.37 8.9163C104.211 8.41748 104.131 7.86378 104.131 7.25522C104.131 6.65663 104.216 6.11291 104.385 5.62407C104.565 5.12524 104.804 4.69625 105.104 4.3371C105.413 3.97795 105.777 3.70359 106.196 3.51404C106.615 3.31451 107.074 3.21475 107.573 3.21475C108.082 3.21475 108.536 3.30454 108.935 3.48411C109.335 3.66369 109.669 3.91809 109.938 4.24731C110.218 4.56656 110.432 4.95065 110.582 5.39959C110.731 5.84854 110.806 6.33738 110.806 6.86614V7.21033H105.493V7.59941C105.493 8.44741 105.702 9.11583 106.122 9.60468C106.551 10.0935 107.119 10.338 107.828 10.338C108.446 10.338 108.935 10.2132 109.295 9.96383C109.664 9.70444 109.953 9.37023 110.163 8.9612L110.657 9.27546C110.557 9.53484 110.417 9.78924 110.238 10.0387C110.068 10.2781 109.858 10.4926 109.609 10.6821C109.359 10.8617 109.07 11.0064 108.741 11.1161C108.412 11.2358 108.042 11.2957 107.633 11.2957ZM105.493 6.52195H109.519V6.3723C109.519 6.02312 109.479 5.69889 109.399 5.39959C109.33 5.1003 109.215 4.84091 109.055 4.62143C108.895 4.40195 108.691 4.23235 108.441 4.11263C108.202 3.98294 107.913 3.91809 107.573 3.91809C107.234 3.91809 106.935 3.97795 106.675 4.09766C106.416 4.21738 106.196 4.38698 106.017 4.60647C105.847 4.82595 105.717 5.08534 105.628 5.38463C105.538 5.67395 105.493 5.9932 105.493 6.34237V6.52195Z" fill="#231F20"/>
<path d="M112.23 10.4277H113.338V4.06774H112.23V3.39432H115.673V4.06774H114.565V6.86614H115.807L116.645 4.98058C116.935 4.32214 117.229 3.86322 117.529 3.60383C117.838 3.34444 118.182 3.21475 118.561 3.21475C118.891 3.21475 119.145 3.30952 119.325 3.49908C119.504 3.68863 119.594 3.92806 119.594 4.21738C119.594 4.5067 119.514 4.74115 119.355 4.92072C119.205 5.09032 119 5.17512 118.741 5.17512C118.481 5.17512 118.282 5.09531 118.142 4.93569C118.003 4.77607 117.933 4.55159 117.933 4.26228H117.888C117.808 4.36204 117.718 4.49672 117.618 4.66632C117.519 4.82595 117.419 5.0155 117.319 5.23498L116.481 7.12054C116.68 7.15047 116.85 7.21531 116.99 7.31508C117.129 7.41484 117.264 7.56449 117.394 7.76402L119.115 10.4277H119.953V11.1161H118.112L115.807 7.55451H114.565V10.4277H115.673V11.1161H112.23V10.4277Z" fill="#231F20"/>
<path d="M122.108 10.4277H123.515V4.12759H121.629V5.66896H120.731V3.39432H127.526V5.66896H126.628V4.12759H124.743V10.4277H126.149V11.1161H122.108V10.4277Z" fill="#231F20"/>
<path d="M131.124 11.2957C130.406 11.2957 129.842 11.1111 129.433 10.742C129.034 10.3629 128.834 9.8491 128.834 9.20063C128.834 8.8315 128.894 8.50727 129.014 8.22793C129.134 7.93861 129.328 7.69917 129.598 7.50962C129.877 7.32007 130.236 7.17541 130.675 7.07564C131.114 6.97588 131.648 6.926 132.277 6.926H133.384V5.78868C133.384 5.18011 133.235 4.71621 132.935 4.39696C132.646 4.06774 132.207 3.90312 131.618 3.90312C131.359 3.90312 131.119 3.92806 130.9 3.97795C130.68 4.01785 130.501 4.07771 130.361 4.15752V4.18745C130.471 4.24731 130.576 4.3371 130.675 4.45682C130.785 4.57654 130.84 4.74614 130.84 4.96562C130.84 5.22501 130.765 5.42952 130.616 5.57917C130.466 5.71884 130.266 5.78868 130.017 5.78868C129.777 5.78868 129.578 5.71884 129.418 5.57917C129.268 5.42952 129.194 5.21004 129.194 4.92072C129.194 4.70124 129.258 4.49174 129.388 4.29221C129.518 4.0827 129.703 3.89814 129.942 3.73851C130.181 3.57889 130.476 3.45418 130.825 3.36439C131.184 3.26463 131.588 3.21475 132.037 3.21475C132.846 3.21475 133.474 3.42425 133.923 3.84326C134.382 4.26228 134.612 4.85089 134.612 5.6091V10.4726H135.734V10.9964C135.625 11.0762 135.475 11.146 135.285 11.2059C135.106 11.2658 134.901 11.2957 134.672 11.2957C134.282 11.2957 133.983 11.186 133.774 10.9665C133.564 10.747 133.459 10.4527 133.459 10.0835V9.9788H133.384C133.315 10.1484 133.22 10.313 133.1 10.4726C132.99 10.6323 132.846 10.7719 132.666 10.8916C132.486 11.0114 132.267 11.1061 132.007 11.176C131.758 11.2558 131.464 11.2957 131.124 11.2957ZM131.648 10.4726C132.127 10.4726 132.536 10.3529 132.876 10.1135C133.215 9.86407 133.384 9.48496 133.384 8.97616V7.52458H132.412C131.983 7.52458 131.623 7.5595 131.334 7.62934C131.045 7.6892 130.815 7.78397 130.645 7.91367C130.476 8.03338 130.351 8.18303 130.271 8.36261C130.201 8.54218 130.166 8.75169 130.166 8.99113V9.30538C130.166 9.68449 130.296 9.97381 130.556 10.1733C130.815 10.3729 131.179 10.4726 131.648 10.4726Z" fill="#231F20"/>
<path d="M0.97973 26.3561V25.6677L3.8684 22.989L4.16775 23.3931L2.26691 26.0119L4.16775 28.6307L3.8684 29.0348L0.97973 26.3561ZM4.06298 26.3561V25.6677L6.95165 22.989L7.25099 23.3931L5.35016 26.0119L7.25099 28.6307L6.95165 29.0348L4.06298 26.3561Z" fill="#231F20"/>
<path d="M9.76197 30.4564C9.26307 30.4564 8.87891 30.3217 8.6095 30.0524C8.35007 29.783 8.22035 29.4588 8.22035 29.0797C8.22035 28.7604 8.29519 28.506 8.44486 28.3165C8.60451 28.1269 8.82403 28.0321 9.10342 28.0321C9.36285 28.0321 9.56241 28.1119 9.7021 28.2716C9.85178 28.4312 9.92661 28.6357 9.92661 28.8851C9.92661 29.0747 9.87672 29.2393 9.77694 29.379C9.67716 29.5086 9.57239 29.5934 9.46263 29.6334V29.6932C9.5225 29.7231 9.6123 29.7381 9.73204 29.7381C9.85178 29.7381 9.97151 29.7132 10.0913 29.6633C10.211 29.6134 10.3257 29.5336 10.4355 29.4238C10.5852 29.2742 10.7149 29.0597 10.8246 28.7804C10.9444 28.501 11.0442 28.087 11.124 27.5383C11.2038 26.9896 11.2637 26.2813 11.3036 25.4133C11.3435 24.5354 11.3635 23.428 11.3635 22.0911V20.5198H10.2409V19.8315H17.4402V20.5198H16.3176V29.5885H17.4402V30.2768H13.9079V29.5885H15.0304V20.5647H12.2765V22.0163C12.2765 23.3432 12.2565 24.4606 12.2166 25.3684C12.1767 26.2763 12.1068 27.0345 12.0071 27.643C11.9173 28.2416 11.7975 28.7205 11.6478 29.0797C11.4982 29.4288 11.3186 29.7132 11.109 29.9326C10.9095 30.1222 10.6899 30.2569 10.4505 30.3367C10.221 30.4165 9.99147 30.4564 9.76197 30.4564Z" fill="#231F20"/>
<path d="M21.2967 30.4564C20.5782 30.4564 20.0145 30.2718 19.6054 29.9027C19.2062 29.5236 19.0067 29.0098 19.0067 28.3614C19.0067 27.9922 19.0665 27.668 19.1863 27.3886C19.306 27.0993 19.5006 26.8599 19.77 26.6703C20.0494 26.4808 20.4086 26.3361 20.8476 26.2364C21.2867 26.1366 21.8205 26.0867 22.4491 26.0867H23.5567V24.9494C23.5567 24.3408 23.407 23.8769 23.1077 23.5577C22.8183 23.2285 22.3793 23.0638 21.7906 23.0638C21.5311 23.0638 21.2917 23.0888 21.0722 23.1387C20.8526 23.1786 20.673 23.2384 20.5333 23.3182V23.3482C20.6431 23.408 20.7479 23.4978 20.8476 23.6175C20.9574 23.7373 21.0123 23.9069 21.0123 24.1263C21.0123 24.3857 20.9375 24.5902 20.7878 24.7399C20.6381 24.8796 20.4385 24.9494 20.1891 24.9494C19.9496 24.9494 19.7501 24.8796 19.5904 24.7399C19.4407 24.5902 19.3659 24.3708 19.3659 24.0814C19.3659 23.862 19.4308 23.6525 19.5605 23.4529C19.6902 23.2434 19.8748 23.0589 20.1143 22.8992C20.3537 22.7396 20.6481 22.6149 20.9973 22.5251C21.3565 22.4254 21.7606 22.3755 22.2097 22.3755C23.0179 22.3755 23.6465 22.585 24.0955 23.004C24.5545 23.423 24.784 24.0116 24.784 24.7698V29.6334H25.9066V30.1571C25.7968 30.2369 25.6471 30.3068 25.4575 30.3666C25.2779 30.4265 25.0734 30.4564 24.8439 30.4564C24.4547 30.4564 24.1554 30.3467 23.9459 30.1272C23.7363 29.9077 23.6315 29.6134 23.6315 29.2443V29.1395H23.5567C23.4869 29.3091 23.3921 29.4737 23.2723 29.6334C23.1626 29.793 23.0179 29.9326 22.8383 30.0524C22.6587 30.1721 22.4392 30.2669 22.1797 30.3367C21.9303 30.4165 21.6359 30.4564 21.2967 30.4564ZM21.8205 29.6334C22.2995 29.6334 22.7086 29.5136 23.0478 29.2742C23.3871 29.0248 23.5567 28.6457 23.5567 28.1369V26.6853H22.5838C22.1548 26.6853 21.7956 26.7202 21.5062 26.7901C21.2168 26.8499 20.9873 26.9447 20.8177 27.0744C20.6481 27.1941 20.5234 27.3438 20.4435 27.5233C20.3737 27.7029 20.3388 27.9124 20.3388 28.1518V28.4661C20.3388 28.8452 20.4685 29.1345 20.7279 29.3341C20.9873 29.5336 21.3515 29.6334 21.8205 29.6334Z" fill="#231F20"/>
<path d="M27.1773 29.5885H28.2848V23.2285H27.1773V22.555H33.209V24.8297H32.311V23.2883H29.5121V29.5885H30.9191V30.2768H27.1773V29.5885Z" fill="#231F20"/>
<path d="M37.8983 30.4564C37.3495 30.4564 36.8556 30.3616 36.4166 30.1721C35.9875 29.9726 35.6233 29.6982 35.324 29.349C35.0246 28.9998 34.7951 28.5758 34.6355 28.077C34.4758 27.5782 34.396 27.0245 34.396 26.4159C34.396 25.8174 34.4808 25.2736 34.6505 24.7848C34.8301 24.286 35.0695 23.857 35.3689 23.4978C35.6782 23.1387 36.0424 22.8643 36.4615 22.6748C36.8806 22.4752 37.3396 22.3755 37.8385 22.3755C38.3474 22.3755 38.8014 22.4653 39.2005 22.6448C39.5996 22.8244 39.9339 23.0788 40.2033 23.408C40.4827 23.7273 40.6972 24.1114 40.8469 24.5603C40.9965 25.0093 41.0714 25.4981 41.0714 26.0269V26.371H35.758V26.7601C35.758 27.6081 35.9676 28.2766 36.3866 28.7654C36.8157 29.2542 37.3845 29.4987 38.0929 29.4987C38.7116 29.4987 39.2005 29.374 39.5597 29.1246C39.9289 28.8652 40.2183 28.531 40.4278 28.1219L40.9217 28.4362C40.8219 28.6956 40.6822 28.95 40.5026 29.1994C40.333 29.4388 40.1235 29.6533 39.874 29.8429C39.6246 30.0224 39.3352 30.1671 39.0059 30.2768C38.6766 30.3966 38.3074 30.4564 37.8983 30.4564ZM35.758 25.6827H39.7842V25.533C39.7842 25.1838 39.7443 24.8596 39.6645 24.5603C39.5946 24.261 39.4799 24.0016 39.3202 23.7822C39.1606 23.5627 38.956 23.3931 38.7066 23.2734C38.4671 23.1437 38.1777 23.0788 37.8385 23.0788C37.4992 23.0788 37.1999 23.1387 36.9404 23.2584C36.681 23.3781 36.4615 23.5477 36.2819 23.7672C36.1122 23.9867 35.9825 24.2461 35.8927 24.5454C35.8029 24.8347 35.758 25.1539 35.758 25.5031V25.6827Z" fill="#231F20"/>
<path d="M42.3456 32.5814H43.4532V23.5278L42.3456 23.3332V22.8244L44.6805 22.3755V23.7223H44.7403C44.91 23.3532 45.1794 23.0389 45.5486 22.7795C45.9178 22.5102 46.4067 22.3755 47.0154 22.3755C47.9733 22.3755 48.7366 22.7246 49.3053 23.423C49.8841 24.1114 50.1734 25.109 50.1734 26.4159C50.1734 27.7229 49.8841 28.7255 49.3053 29.4238C48.7366 30.1122 47.9733 30.4564 47.0154 30.4564C46.4167 30.4564 45.9277 30.3267 45.5486 30.0673C45.1794 29.8079 44.91 29.4937 44.7403 29.1246H44.6805V32.5814H46.0874V33.2698H42.3456V32.5814ZM46.6561 29.6034C47.3446 29.6034 47.8785 29.374 48.2576 28.915C48.6468 28.4462 48.8414 27.8226 48.8414 27.0445V25.7874C48.8414 25.0093 48.6468 24.3907 48.2576 23.9318C47.8785 23.4629 47.3446 23.2285 46.6561 23.2285C46.4167 23.2285 46.1772 23.2634 45.9377 23.3332C45.6982 23.403 45.4837 23.5028 45.2941 23.6325C45.1145 23.7622 44.9648 23.9268 44.8451 24.1263C44.7353 24.3159 44.6805 24.5304 44.6805 24.7698V28.0621C44.6805 28.3015 44.7353 28.521 44.8451 28.7205C44.9648 28.9101 45.1145 29.0697 45.2941 29.1994C45.4837 29.3291 45.6982 29.4288 45.9377 29.4987C46.1772 29.5685 46.4167 29.6034 46.6561 29.6034Z" fill="#231F20"/>
<path d="M51.6744 29.5885H52.7819V23.2285H51.6744V22.555H55.1168V23.2285H54.0092V25.548H55.9849C56.7832 25.548 57.3918 25.7525 57.8109 26.1615C58.23 26.5606 58.4395 27.1392 58.4395 27.8974C58.4395 28.6457 58.22 29.2293 57.781 29.6483C57.3519 30.0673 56.7482 30.2768 55.9699 30.2768H51.6744V29.5885ZM55.7903 29.5436C56.2394 29.5436 56.5686 29.4189 56.7782 29.1694C56.9877 28.9101 57.0925 28.5858 57.0925 28.1967V27.6281C57.0925 27.229 56.9877 26.9048 56.7782 26.6554C56.5686 26.406 56.2394 26.2813 55.7903 26.2813H54.0092V29.5436H55.7903Z" fill="#231F20"/>
<path d="M63.2652 29.5885H64.3728V23.2285H63.2652V22.555H66.7076V23.2285H65.6001V26.0269H66.8423L67.6805 24.1413C67.9699 23.4829 68.2642 23.0239 68.5636 22.7646C68.8729 22.5052 69.2171 22.3755 69.5963 22.3755C69.9256 22.3755 70.18 22.4702 70.3596 22.6598C70.5392 22.8494 70.629 23.0888 70.629 23.3781C70.629 23.6674 70.5492 23.9019 70.3896 24.0814C70.2399 24.251 70.0353 24.3358 69.7759 24.3358C69.5165 24.3358 69.3169 24.256 69.1772 24.0964C69.0375 23.9368 68.9677 23.7123 68.9677 23.423H68.9228C68.843 23.5228 68.7532 23.6574 68.6534 23.827C68.5536 23.9867 68.4538 24.1762 68.354 24.3957L67.5159 26.2813C67.7154 26.3112 67.8851 26.376 68.0248 26.4758C68.1644 26.5756 68.2992 26.7252 68.4289 26.9247L70.1501 29.5885H70.9883V30.2768H69.1473L66.8423 26.7152H65.6001V29.5885H66.7076V30.2768H63.2652V29.5885Z" fill="#231F20"/>
<path d="M71.8123 32.5814H72.9198V23.5278L71.8123 23.3332V22.8244L74.1472 22.3755V23.7223H74.207C74.3767 23.3532 74.6461 23.0389 75.0153 22.7795C75.3844 22.5102 75.8734 22.3755 76.482 22.3755C77.4399 22.3755 78.2033 22.7246 78.772 23.423C79.3508 24.1114 79.6401 25.109 79.6401 26.4159C79.6401 27.7229 79.3508 28.7255 78.772 29.4238C78.2033 30.1122 77.4399 30.4564 76.482 30.4564C75.8834 30.4564 75.3944 30.3267 75.0153 30.0673C74.6461 29.8079 74.3767 29.4937 74.207 29.1246H74.1472V32.5814H75.5541V33.2698H71.8123V32.5814ZM76.1228 29.6034C76.8113 29.6034 77.3452 29.374 77.7243 28.915C78.1135 28.4462 78.308 27.8226 78.308 27.0445V25.7874C78.308 25.0093 78.1135 24.3907 77.7243 23.9318C77.3452 23.4629 76.8113 23.2285 76.1228 23.2285C75.8834 23.2285 75.6439 23.2634 75.4044 23.3332C75.1649 23.403 74.9504 23.5028 74.7608 23.6325C74.5812 23.7622 74.4315 23.9268 74.3118 24.1263C74.202 24.3159 74.1472 24.5304 74.1472 24.7698V28.0621C74.1472 28.3015 74.202 28.521 74.3118 28.7205C74.4315 28.9101 74.5812 29.0697 74.7608 29.1994C74.9504 29.3291 75.1649 29.4288 75.4044 29.4987C75.6439 29.5685 75.8834 29.6034 76.1228 29.6034Z" fill="#231F20"/>
<path d="M84.7147 30.4564C84.1659 30.4564 83.672 30.3616 83.233 30.1721C82.8039 29.9726 82.4397 29.6982 82.1403 29.349C81.841 28.9998 81.6115 28.5758 81.4519 28.077C81.2922 27.5782 81.2124 27.0245 81.2124 26.4159C81.2124 25.8174 81.2972 25.2736 81.4668 24.7848C81.6464 24.286 81.8859 23.857 82.1852 23.4978C82.4946 23.1387 82.8588 22.8643 83.2779 22.6748C83.6969 22.4752 84.1559 22.3755 84.6548 22.3755C85.1637 22.3755 85.6177 22.4653 86.0168 22.6448C86.416 22.8244 86.7502 23.0788 87.0197 23.408C87.299 23.7273 87.5136 24.1114 87.6632 24.5603C87.8129 25.0093 87.8877 25.4981 87.8877 26.0269V26.371H82.5744V26.7601C82.5744 27.6081 82.7839 28.2766 83.203 28.7654C83.6321 29.2542 84.2008 29.4987 84.9093 29.4987C85.5279 29.4987 86.0169 29.374 86.3761 29.1246C86.7453 28.8652 87.0346 28.531 87.2442 28.1219L87.7381 28.4362C87.6383 28.6956 87.4986 28.95 87.319 29.1994C87.1494 29.4388 86.9398 29.6533 86.6904 29.8429C86.4409 30.0224 86.1516 30.1671 85.8223 30.2768C85.493 30.3966 85.1238 30.4564 84.7147 30.4564ZM82.5744 25.6827H86.6006V25.533C86.6006 25.1838 86.5607 24.8596 86.4808 24.5603C86.411 24.261 86.2962 24.0016 86.1366 23.7822C85.9769 23.5627 85.7724 23.3931 85.5229 23.2734C85.2835 23.1437 84.9941 23.0788 84.6548 23.0788C84.3156 23.0788 84.0162 23.1387 83.7568 23.2584C83.4974 23.3781 83.2779 23.5477 83.0982 23.7672C82.9286 23.9867 82.7989 24.2461 82.7091 24.5454C82.6193 24.8347 82.5744 25.1539 82.5744 25.5031V25.6827Z" fill="#231F20"/>
<path d="M91.7478 30.4564C91.0293 30.4564 90.4656 30.2718 90.0565 29.9027C89.6573 29.5236 89.4578 29.0098 89.4578 28.3614C89.4578 27.9922 89.5177 27.668 89.6374 27.3886C89.7571 27.0993 89.9517 26.8599 90.2211 26.6703C90.5005 26.4808 90.8597 26.3361 91.2988 26.2364C91.7378 26.1366 92.2716 26.0867 92.9002 26.0867H94.0078V24.9494C94.0078 24.3408 93.8581 23.8769 93.5588 23.5577C93.2694 23.2285 92.8304 23.0638 92.2417 23.0638C91.9823 23.0638 91.7428 23.0888 91.5233 23.1387C91.3037 23.1786 91.1241 23.2384 90.9844 23.3182V23.3482C91.0942 23.408 91.199 23.4978 91.2988 23.6175C91.4085 23.7373 91.4634 23.9069 91.4634 24.1263C91.4634 24.3857 91.3886 24.5902 91.2389 24.7399C91.0892 24.8796 90.8897 24.9494 90.6402 24.9494C90.4007 24.9494 90.2012 24.8796 90.0415 24.7399C89.8918 24.5902 89.817 24.3708 89.817 24.0814C89.817 23.862 89.8819 23.6525 90.0116 23.4529C90.1413 23.2434 90.3259 23.0589 90.5654 22.8992C90.8048 22.7396 91.0992 22.6149 91.4484 22.5251C91.8076 22.4254 92.2118 22.3755 92.6608 22.3755C93.469 22.3755 94.0976 22.585 94.5466 23.004C95.0056 23.423 95.2351 24.0116 95.2351 24.7698V29.6334H96.3577V30.1571C96.2479 30.2369 96.0982 30.3068 95.9087 30.3666C95.7291 30.4265 95.5245 30.4564 95.295 30.4564C94.9058 30.4564 94.6065 30.3467 94.397 30.1272C94.1874 29.9077 94.0827 29.6134 94.0827 29.2443V29.1395H94.0078C93.938 29.3091 93.8432 29.4737 93.7234 29.6334C93.6137 29.793 93.469 29.9326 93.2894 30.0524C93.1098 30.1721 92.8903 30.2669 92.6308 30.3367C92.3814 30.4165 92.087 30.4564 91.7478 30.4564ZM92.2716 29.6334C92.7506 29.6334 93.1597 29.5136 93.4989 29.2742C93.8382 29.0248 94.0078 28.6457 94.0078 28.1369V26.6853H93.035C92.6059 26.6853 92.2467 26.7202 91.9573 26.7901C91.6679 26.8499 91.4384 26.9447 91.2688 27.0744C91.0992 27.1941 90.9745 27.3438 90.8946 27.5233C90.8248 27.7029 90.7899 27.9124 90.7899 28.1518V28.4661C90.7899 28.8452 90.9196 29.1345 91.179 29.3341C91.4384 29.5336 91.8026 29.6334 92.2716 29.6334Z" fill="#231F20"/>
<path d="M98.5759 29.5885H99.9828V23.2883H98.0969V24.8297H97.1989V22.555H103.994V24.8297H103.096V23.2883H101.21V29.5885H102.617V30.2768H98.5759V29.5885Z" fill="#231F20"/>
<path d="M105.258 29.5885H106.366V23.2285H105.258V22.555H108.671V23.2285H107.563V26.0568L107.428 28.1369H107.473L111.335 23.6774V23.2285H110.227V22.555H113.64V23.2285H112.532V29.5885H113.64V30.2768H110.227V29.5885H111.335V26.7901L111.47 24.695H111.41L107.563 29.1545V29.5885H108.671V30.2768H105.258V29.5885Z" fill="#231F20"/>
<path d="M115.139 29.5885H116.246V23.2285H115.139V22.555H119.449C120.168 22.555 120.722 22.7246 121.111 23.0638C121.5 23.403 121.694 23.847 121.694 24.3957C121.694 24.9644 121.54 25.3884 121.23 25.6677C120.931 25.947 120.567 26.1316 120.138 26.2214V26.2813C120.357 26.3012 120.572 26.3561 120.781 26.4459C121.001 26.5357 121.196 26.6604 121.365 26.82C121.535 26.9696 121.675 27.1592 121.784 27.3886C121.894 27.6081 121.949 27.8675 121.949 28.1668C121.949 28.8751 121.729 29.4039 121.29 29.7531C120.861 30.1022 120.258 30.2768 119.479 30.2768H115.139V29.5885ZM119.36 29.5436C119.789 29.5436 120.108 29.4338 120.317 29.2143C120.537 28.9849 120.647 28.6956 120.647 28.3464V27.9124C120.647 27.5632 120.537 27.2789 120.317 27.0594C120.098 26.83 119.779 26.7152 119.36 26.7152H117.474V29.5436H119.36ZM119.21 25.982C119.589 25.982 119.878 25.8772 120.078 25.6677C120.288 25.4482 120.392 25.1789 120.392 24.8596V24.4107C120.392 24.0914 120.288 23.827 120.078 23.6175C119.878 23.3981 119.589 23.2883 119.21 23.2883H117.474V25.982H119.21Z" fill="#231F20"/>
<path d="M123.514 29.5885H124.622V23.2285H123.514V22.555H126.956V23.2285H125.849V25.9969H129.561V23.2285H128.453V22.555H131.896V23.2285H130.788V29.5885H131.896V30.2768H128.453V29.5885H129.561V26.7302H125.849V29.5885H126.956V30.2768H123.514V29.5885Z" fill="#231F20"/>
<path d="M133.395 29.5885H134.502V23.2285H133.395V22.555H136.837V23.2285H135.73V25.548H137.586C138.384 25.548 138.992 25.7525 139.412 26.1615C139.831 26.5606 140.04 27.1392 140.04 27.8974C140.04 28.6457 139.821 29.2293 139.382 29.6483C138.953 30.0673 138.349 30.2768 137.571 30.2768H133.395V29.5885ZM140.489 29.5885H141.597V23.2285H140.489V22.555H143.932V23.2285H142.824V29.5885H143.932V30.2768H140.489V29.5885ZM137.391 29.5436C137.84 29.5436 138.169 29.4189 138.379 29.1694C138.588 28.9101 138.693 28.5858 138.693 28.1967V27.6281C138.693 27.229 138.588 26.9048 138.379 26.6554C138.169 26.406 137.84 26.2813 137.391 26.2813H135.73V29.5436H137.391Z" fill="#231F20"/>
<path d="M145.14 29.5885H145.993L148.253 26.5057L145.963 23.2434H145.185V22.555H148.328V23.2434H147.445L149.121 25.6976H149.181L150.767 23.2434H149.839V22.555H152.548V23.2434H151.695L149.555 26.2813L151.845 29.5885H152.623V30.2768H149.465V29.5885H150.348L148.687 27.0894H148.627L146.921 29.5885H147.849V30.2768H145.14V29.5885Z" fill="#231F20"/>
<path d="M157.966 30.4564C157.517 30.4564 157.178 30.3417 156.948 30.1122C156.729 29.8728 156.619 29.5885 156.619 29.2592C156.619 28.9998 156.684 28.7903 156.814 28.6307C156.953 28.4711 157.153 28.3913 157.412 28.3913C157.642 28.3913 157.816 28.4561 157.936 28.5858C158.066 28.7155 158.131 28.8901 158.131 29.1096C158.131 29.2692 158.091 29.4089 158.011 29.5286C157.931 29.6383 157.841 29.7132 157.742 29.7531V29.798C157.772 29.8179 157.806 29.8279 157.846 29.8279C157.896 29.8279 157.941 29.8279 157.981 29.8279C158.211 29.8279 158.405 29.7481 158.565 29.5885C158.665 29.4887 158.764 29.344 158.864 29.1545C158.964 28.955 159.049 28.6557 159.119 28.2566C159.198 27.8575 159.258 27.3288 159.298 26.6703C159.348 26.0019 159.373 25.1489 159.373 24.1114V23.2285H158.265V22.555H164.836V23.2285H163.728V29.5885H164.836V30.2768H161.394V29.5885H162.501V23.2883H160.271V24.0366C160.271 25.0741 160.246 25.9371 160.196 26.6254C160.156 27.3138 160.091 27.8825 160.002 28.3314C159.922 28.7804 159.817 29.1345 159.687 29.3939C159.568 29.6433 159.423 29.8478 159.253 30.0075C159.084 30.1771 158.884 30.2918 158.655 30.3517C158.425 30.4215 158.196 30.4564 157.966 30.4564Z" fill="#231F20"/>
<path d="M166.326 29.5885H167.433V23.2285H166.326V22.555H169.738V23.2285H168.63V26.0568L168.496 28.1369H168.541L172.402 23.6774V23.2285H171.295V22.555H174.707V23.2285H173.6V29.5885H174.707V30.2768H171.295V29.5885H172.402V26.7901L172.537 24.695H172.477L168.63 29.1545V29.5885H169.738V30.2768H166.326V29.5885Z" fill="#231F20"/>
<path d="M175.727 29.5436H176.805C177.264 28.945 177.628 28.1868 177.897 27.2689C178.177 26.3411 178.317 25.2238 178.317 23.9168V23.2285H177.194V22.555H183.69V23.2285H182.582V29.5436H184.079V32.5215H182.971V30.2768H176.835V32.5215H175.727V29.5436ZM181.355 29.5436V23.2883H179.215V23.9168C179.215 25.1439 179.09 26.2414 178.84 27.2091C178.591 28.1768 178.257 28.955 177.838 29.5436H181.355Z" fill="#231F20"/>
<path d="M188.637 30.4564C188.089 30.4564 187.595 30.3616 187.156 30.1721C186.727 29.9726 186.362 29.6982 186.063 29.349C185.764 28.9998 185.534 28.5758 185.375 28.077C185.215 27.5782 185.135 27.0245 185.135 26.4159C185.135 25.8174 185.22 25.2736 185.39 24.7848C185.569 24.286 185.809 23.857 186.108 23.4978C186.417 23.1387 186.781 22.8643 187.201 22.6748C187.62 22.4752 188.079 22.3755 188.578 22.3755C189.086 22.3755 189.54 22.4653 189.94 22.6448C190.339 22.8244 190.673 23.0788 190.942 23.408C191.222 23.7273 191.436 24.1114 191.586 24.5603C191.736 25.0093 191.81 25.4981 191.81 26.0269V26.371H186.497V26.7601C186.497 27.6081 186.707 28.2766 187.126 28.7654C187.555 29.2542 188.124 29.4987 188.832 29.4987C189.451 29.4987 189.94 29.374 190.299 29.1246C190.668 28.8652 190.957 28.531 191.167 28.1219L191.661 28.4362C191.561 28.6956 191.421 28.95 191.242 29.1994C191.072 29.4388 190.863 29.6533 190.613 29.8429C190.364 30.0224 190.074 30.1671 189.745 30.2768C189.416 30.3966 189.046 30.4564 188.637 30.4564ZM186.497 25.6827H190.523V25.533C190.523 25.1838 190.483 24.8596 190.404 24.5603C190.334 24.261 190.219 24.0016 190.059 23.7822C189.9 23.5627 189.695 23.3931 189.446 23.2734C189.206 23.1437 188.917 23.0788 188.578 23.0788C188.238 23.0788 187.939 23.1387 187.68 23.2584C187.42 23.3781 187.201 23.5477 187.021 23.7672C186.851 23.9867 186.722 24.2461 186.632 24.5454C186.542 24.8347 186.497 25.1539 186.497 25.5031V25.6827Z" fill="#231F20"/>
<path d="M193.085 32.5814H194.192V23.5278L193.085 23.3332V22.8244L195.42 22.3755V23.7223H195.479C195.649 23.3532 195.918 23.0389 196.288 22.7795C196.657 22.5102 197.146 22.3755 197.754 22.3755C198.712 22.3755 199.476 22.7246 200.044 23.423C200.623 24.1114 200.912 25.109 200.912 26.4159C200.912 27.7229 200.623 28.7255 200.044 29.4238C199.476 30.1122 198.712 30.4564 197.754 30.4564C197.156 30.4564 196.667 30.3267 196.288 30.0673C195.918 29.8079 195.649 29.4937 195.479 29.1246H195.42V32.5814H196.826V33.2698H193.085V32.5814ZM197.395 29.6034C198.084 29.6034 198.618 29.374 198.997 28.915C199.386 28.4462 199.58 27.8226 199.58 27.0445V25.7874C199.58 25.0093 199.386 24.3907 198.997 23.9318C198.618 23.4629 198.084 23.2285 197.395 23.2285C197.156 23.2285 196.916 23.2634 196.677 23.3332C196.437 23.403 196.223 23.5028 196.033 23.6325C195.854 23.7622 195.704 23.9268 195.584 24.1263C195.474 24.3159 195.42 24.5304 195.42 24.7698V28.0621C195.42 28.3015 195.474 28.521 195.584 28.7205C195.704 28.9101 195.854 29.0697 196.033 29.1994C196.223 29.3291 196.437 29.4288 196.677 29.4987C196.916 29.5685 197.156 29.6034 197.395 29.6034Z" fill="#231F20"/>
<path d="M206.032 29.7231C206.401 29.7231 206.72 29.6633 206.99 29.5436C207.269 29.4139 207.494 29.2393 207.663 29.0198C207.843 28.7903 207.973 28.526 208.053 28.2267C208.142 27.9174 208.187 27.5832 208.187 27.224V25.6078C208.187 25.2487 208.142 24.9195 208.053 24.6202C207.973 24.3109 207.843 24.0465 207.663 23.827C207.494 23.5976 207.269 23.423 206.99 23.3033C206.72 23.1736 206.401 23.1087 206.032 23.1087C205.653 23.1087 205.329 23.1736 205.059 23.3033C204.79 23.423 204.565 23.5976 204.386 23.827C204.216 24.0465 204.086 24.3109 203.996 24.6202C203.917 24.9195 203.877 25.2487 203.877 25.6078V27.224C203.877 27.5832 203.917 27.9174 203.996 28.2267C204.086 28.526 204.216 28.7903 204.386 29.0198C204.565 29.2393 204.79 29.4139 205.059 29.5436C205.329 29.6633 205.653 29.7231 206.032 29.7231ZM206.032 30.4564C205.503 30.4564 205.019 30.3616 204.58 30.1721C204.141 29.9825 203.767 29.7132 203.458 29.364C203.148 29.0048 202.909 28.5808 202.739 28.092C202.57 27.5932 202.485 27.0345 202.485 26.4159C202.485 25.8074 202.57 25.2537 202.739 24.7549C202.909 24.256 203.148 23.832 203.458 23.4829C203.767 23.1237 204.141 22.8494 204.58 22.6598C205.019 22.4702 205.503 22.3755 206.032 22.3755C206.561 22.3755 207.045 22.4702 207.484 22.6598C207.923 22.8494 208.297 23.1237 208.606 23.4829C208.916 23.832 209.155 24.256 209.325 24.7549C209.494 25.2537 209.579 25.8074 209.579 26.4159C209.579 27.0345 209.494 27.5932 209.325 28.092C209.155 28.5808 208.916 29.0048 208.606 29.364C208.297 29.7132 207.923 29.9825 207.484 30.1721C207.045 30.3616 206.561 30.4564 206.032 30.4564Z" fill="#231F20"/>
<path d="M210.993 29.5885H212.101V23.2285H210.993V22.555H215.304C216.022 22.555 216.576 22.7246 216.965 23.0638C217.354 23.403 217.549 23.847 217.549 24.3957C217.549 24.9644 217.394 25.3884 217.085 25.6677C216.786 25.947 216.421 26.1316 215.992 26.2214V26.2813C216.212 26.3012 216.426 26.3561 216.636 26.4459C216.855 26.5357 217.05 26.6604 217.22 26.82C217.389 26.9696 217.529 27.1592 217.639 27.3886C217.748 27.6081 217.803 27.8675 217.803 28.1668C217.803 28.8751 217.584 29.4039 217.145 29.7531C216.716 30.1022 216.112 30.2768 215.334 30.2768H210.993V29.5885ZM215.214 29.5436C215.643 29.5436 215.962 29.4338 216.172 29.2143C216.391 28.9849 216.501 28.6956 216.501 28.3464V27.9124C216.501 27.5632 216.391 27.2789 216.172 27.0594C215.952 26.83 215.633 26.7152 215.214 26.7152H213.328V29.5436H215.214ZM215.064 25.982C215.444 25.982 215.733 25.8772 215.932 25.6677C216.142 25.4482 216.247 25.1789 216.247 24.8596V24.4107C216.247 24.0914 216.142 23.827 215.932 23.6175C215.733 23.3981 215.444 23.2883 215.064 23.2883H213.328V25.982H215.064Z" fill="#231F20"/>
<path d="M219.385 28.6307L221.286 26.0119L219.385 23.3931L219.684 22.989L222.573 25.6677V26.3561L219.684 29.0348L219.385 28.6307ZM222.468 28.6307L224.369 26.0119L222.468 23.3931L222.767 22.989L225.656 25.6677V26.3561L222.767 29.0348L222.468 28.6307Z" fill="#231F20"/>
</svg>
