<svg xmlns="http://www.w3.org/2000/svg" fill="none" viewBox="0 0 125 30">
  <path fill="#fff" d="M5.97609 14.5978h1.07003c.86223 0 1.63136-.5342 1.93091-1.3422l2.44907-6.56939V3.06697c0-1.24913-1.0147-2.264892-2.26286-2.267589H.377686v.071495C1.37485 1.12988 2.07651 2.03097 2.07651 3.06697V27.4479c0 1.0347-.70166 1.9358-1.698824 2.1961v.0715H9.16324c1.25356 0 2.26956-1.013 2.27226-2.2676v-3.603l-2.4679-6.587c-.29551-.8053-1.06195-1.3408-1.92148-1.3408H5.97609c-.36297 0-.6598-.2954-.6598-.661 0-.3629.29683-.6583.6598-.6583Z"/>
  <path fill="#3C3C3B" d="M9.1632 29.8073H.377644c-.048577 0-.08907-.0391-.08907-.0917v-.0715c0-.0391.027002-.0742.066133-.085.960733-.2509 1.631333-1.1183 1.631333-2.1125V3.06703c0-.99148-.6706-1.8602-1.631333-2.111105C.315576.945133.288574.910061.288574.870941V.799444c0-.025629.009462-.047209.025655-.063396C.33177.715815.354705.709068.377644.709068H9.1632c1.3035 0 2.36 1.056232 2.36 2.357962v3.6098c.004.01214.004.02158 0 .03372L9.06202 13.28c-.31305.8417-1.11458 1.4029-2.01594 1.4056H5.97605c-.3144 0-.57078.2549-.57078.5706 0 .3183.25638.5719.57078.5719h1.07003c.89731.0054 1.69612.5639 2.00647 1.4002l2.45305 6.5843c.0041.0108.0041.0202 0 .0323v3.6017c0 1.2964-1.043 2.3486-2.3424 2.3607Zm-8.457692-.178H9.1632c1.205-.0027 2.1806-.9794 2.1846-2.1827v-3.5868l-2.4612-6.5681c-.28471-.7702-1.01877-1.2828-1.84052-1.2828H5.97605c-.41425 0-.74752-.3386-.74752-.7527 0-.4142.33327-.75.74752-.75h1.07003c.8258 0 1.55714-.5113 1.84995-1.2816l2.44367-6.55991V3.06703C11.337 1.86512 10.3641.892523 9.1632.884428H.69472c.88517.366912 1.46135 1.228892 1.46135 2.182602V27.4466c0 .9565-.57618 1.8157-1.46135 2.1827h.010788Z"/>
  <path fill="url(#a)" d="M15.3042.799354c-1.016-.00135-1.9201.627266-2.2736 1.576926l-1.6017 4.29371-2.44902 6.57881c-.29956.8054-1.06869 1.3422-1.93227 1.3409H17.0786c.9162 0 1.7339-.572 2.0551-1.4259l4.1168-11.02898c.2024-.5787.6585-1.0252 1.2387-1.227548V.789911l-9.185.009443Z"/>
  <path fill="#3C3C3B" d="M17.0786 14.6855H7.04621c-.03238.0054-.06882-.0108-.08771-.0391-.01889-.0324-.01889-.0702 0-.0972.01889-.031.05533-.0472.08771-.0431.8258 0 1.55715-.5113 1.84996-1.2815L12.9482 2.34393c.3671-.98339 1.3049-1.633579 2.356-1.634928h9.1769c.0243 0 .0459.006745.0634.02698.0189.01214.027.037766.0256.063396v.114665c0 .041818-.0256.072843-.0607.084983-.5491.194254-.9836.624564-1.182 1.169544L19.2092 13.2043c-.3333.889-1.182 1.4785-2.1306 1.4812Zm-9.17826-.1794h9.17826c.8744-.0027 1.661-.5436 1.9673-1.3652l4.1182-11.03034c.1984-.54767.6167-.99148 1.151-1.226198h-9.0109c-.9742.002698-1.8472.608378-2.19 1.521618L9.06216 13.2799c-.2024.5504-.62478.9969-1.16182 1.2289v-.0027Z"/>
  <path fill="url(#b)" d="m23.2396 28.3679-4.0507-10.8725c-.3576-.947-1.2616-1.5743-2.2763-1.5783H7.04614c.85953 0 1.62598.5382 1.92148 1.3408l2.45848 6.587 1.6624 4.4475c.3171.8566 1.1335 1.4231 2.0483 1.4231h9.3456v-.116c-.5735-.205-1.0309-.6556-1.2428-1.2316Z"/>
  <path fill="#3C3C3B" d="M24.4851 29.8072h-9.3455c-.9513-.0054-1.8014-.5935-2.1374-1.4852L8.88673 17.2916c-.28471-.7702-1.01877-1.2828-1.84052-1.2828-.04723-.0027-.08771-.0446-.08771-.0918 0-.0485.04048-.089.08771-.089h9.86639c1.0498.0054 1.9903.6569 2.3587 1.6363l4.0507 10.882c.2038.5463.6396.978 1.1941 1.1736.0365.0094.0581.0431.0567.0822v.1147c0 .0513-.0391.0904-.0877.0904ZM7.8963 16.0088c.53839.2279.95398.6717 1.15638 1.2194l4.11682 11.0331c.3104.8175 1.0917 1.3624 1.9701 1.3651h9.1782c-.537-.232-.9567-.6731-1.1604-1.2208l-4.0548-10.8779c-.3427-.9133-1.2104-1.5189-2.19-1.5189H7.8963Z"/>
  <path fill="#010101" d="M33.7671 5.65155v4.26404h-.9756V6.45687H30.87v3.45872h-.9796V5.65155h3.8767Zm4.9251 1.54862c0 .94832-.7111 1.53781-1.8499 1.53781h-.8609v1.17224h-.9851V5.65157h1.846c1.1388 0 1.8499.58815 1.8499 1.5486Zm-1.0012 0c0-.46943-.3022-.74327-.904-.74327h-.8056v1.47845h.8056c.6018 0 .904-.27518.904-.73518Zm1.8608-1.54862h.9742v2.77749l2.0334-2.77749h.9271v4.26404h-.9756V7.14484l-2.0308 2.77075h-.9283V5.65155Zm11.2171 0v4.26404h-.9756V6.45687h-1.9241v3.45872h-.9783V5.65155h3.878Zm.9433 2.13133c0-1.26397.985-2.20149 2.333-2.20149 1.3493 0 2.3316.92268 2.3316 2.20149 0 1.27881-.9944 2.20284-2.3316 2.20284-1.3386 0-2.333-.94157-2.333-2.20284Zm3.6648 0c-.0176-.73248-.6221-1.31118-1.3534-1.29904-.7327.01079-1.317.60972-1.3143 1.3422.0081.73248.6045 1.32198 1.3359 1.32198.3616.01079.7111-.13085.9634-.38985.2564-.2617.3886-.61107.3684-.97529Zm6.3135 1.32871v1.68891h-.9108v-.88493h-3.009v.88493h-.9135V9.11159h.1686c.556-.01754.6963-.92808.7381-2.1219l.0486-1.33277h3.2911v3.45467h.5869Zm-3.4745 0h1.9133V6.45685h-1.464l-.0162.62187c-.0459.90515-.1417 1.68484-.4331 2.03287Zm8.9447 0v1.68891h-.9162v-.88493h-3.0131v.88493h-.9162V9.11159h.1714c.5532-.01754.6922-.92808.7354-2.1219l.0485-1.33277h3.2776v3.45467h.6126Zm-3.4813 0h1.9066V6.45685h-1.46l-.0189.62187c-.0418.90515-.1389 1.68484-.4317 2.03287h.004Zm7.6412.01081v.79319h-3.3018V5.65155h3.2236v.79049h-2.2413v.92673h1.9795v.76755h-1.9795v.98608h2.3195Zm4.7134-1.92223c0 .94832-.7152 1.53781-1.854 1.53781h-.8596v1.17224h-.985V5.65157h1.8527c1.1307 0 1.8459.58815 1.8459 1.5486Zm-.9999 0c0-.46943-.3036-.74327-.9094-.74327h-.8043v1.47845h.8043c.6058 0 .9094-.27518.9094-.73518Zm5.6161.99415h-.6207v1.72127h-.9756V8.19432h-.6329l-.9593 1.72127H76.335l1.2737-2.23791-1.1982-2.03018h1.0417l.9553 1.71856h.6626V5.65155h.9769v1.72396h.6328l.9607-1.72396h1.0431l-1.2103 2.02613 1.271 2.22576h-1.1347l-.9594-1.70912Zm4.5689 0h-.6801v1.72127h-.9755V5.65155h.9755v1.72396h.707l1.1214-1.72396h1.0404l-1.3953 2.0612 1.437 2.20284h-1.1199l-1.1105-1.72127Zm6.3309.92808v.79319h-3.3005V5.65155h3.2195v.79049h-2.2453v.92673h1.9782v.76755h-1.9782v.98608H91.55Zm-57.7829 3.8364v4.2654h-.9756v-3.4587H30.87v3.4587h-.9796v-4.2654h3.8767Zm4.9251 1.55c0 .9523-.7111 1.5445-1.8499 1.5445h-.8609v1.1709h-.9851v-4.2654h1.846c1.1388 0 1.8499.5895 1.8499 1.55Zm-1.0012 0c0-.4668-.3022-.7433-.904-.7433h-.8056v1.4825h.8056c.6018-.004.904-.2792.904-.7392Zm5.1586 1.9209v.7945h-3.2978v-4.2654H42.77v.7946h-2.24v.9226h1.9809v.7689H40.53v.9753l2.3196.0095Zm4.3125-.3993c0 .8039-.8744 1.2626-1.8972 1.2626-.5978.0027-1.1848-.1497-1.7002-.4438l.3022-.7069c.3873.2294.8313.3481 1.2806.3481.56 0 1.0174-.2064 1.0174-.603 0-.3211-.2915-.4802-.7354-.4802h-1.0417v-.7406h.9648c.4034 0 .6369-.1767.6369-.4573 0-.3453-.3806-.5315-.8609-.5315-.4021.0027-.7934.1093-1.1456.3049l-.2969-.7676c.4521-.2266.954-.3467 1.4614-.3467.9877 0 1.8378.4506 1.8378 1.2249 0 .3993-.2429.7581-.6167.9092.4656.1241.7921.5449.7935 1.0279Zm.9729-3.0716h.9769v2.7775l2.0335-2.7775h.9297v4.2654h-.9756v-2.7734l-2.0362 2.7734h-.9283v-4.2654Zm9.5925 3.4614v1.6835H56.81v-.8795h-3.0037v.8795h-.9162v-1.6835h.1714c.5532-.0202.6936-.9334.734-2.1273l.0486-1.3341h3.2776v3.4614h.6058Zm-3.4786 0h1.9039v-2.6547h-1.4572l-.0203.6192c-.0378.9065-.1336 1.6875-.4264 2.0355Zm7.6386.0095v.7945h-3.3018v-4.2654h3.2235v.7946h-2.2358v.9226h1.9808v.7689h-1.9808v.9753l2.3141.0095Zm4.9291-3.4709v4.2654h-.985v-1.759h-1.9363v1.759h-.9864v-4.2654h.9864v1.6808h1.9363v-1.6808h.985Zm4.5177.8067h-1.3642v3.4587h-.9783v-3.4587H67.625v-.8067h3.6972l.0121.8067Zm.4789 1.3314c0-1.2856.9837-2.2069 2.3115-2.2069.6719-.0297 1.3196.2509 1.7582.7581l-.6315.5841c-.2645-.3197-.6598-.5045-1.0727-.5018-.757 0-1.3669.6151-1.3669 1.3705 0 .7514.6099 1.3665 1.3669 1.3665.4156 0 .8095-.1861 1.0727-.5085l.6315.5881c-.4372.5086-1.0863.7892-1.7582.7608-1.3278-.0148-2.3115-.9321-2.3115-2.2109Zm6.5524.406h-.6827v1.7213h-.9783v-4.2654h.9783v1.7253h.7044l1.1213-1.7253h1.0403l-1.3912 2.0585 1.433 2.2069h-1.1199l-1.1052-1.7213Zm2.5299-.406c0-1.268.9756-2.2069 2.333-2.2069 1.3548 0 2.3303.9322 2.3303 2.2069 0 1.2734-.9917 2.2015-2.3303 2.2015-1.3412 0-2.333-.9402-2.333-2.2015Zm3.6648 0c-.0175-.7338-.6206-1.3139-1.3547-1.3017-.7313.0135-1.3183.6124-1.3115 1.3449.0067.7298.6004 1.3233 1.3344 1.3233.363.0081.7125-.1349.9648-.3939.2537-.2576.3846-.6124.367-.9726Zm4.9456-1.3314h-2.0295v3.4587h-.9769v-4.2654h3.0104l-.004.8067Zm.4655 1.3314c0-1.268.9837-2.2069 2.3303-2.2069 1.3467 0 2.3438.9322 2.3438 2.2069 0 1.2734-.9944 2.2015-2.3438 2.2015-1.3493 0-2.3303-.9402-2.3303-2.2015Zm3.6635 0c-.0175-.7338-.622-1.3139-1.3547-1.3017-.7327.0135-1.3183.6124-1.3116 1.3449.0054.7298.6004 1.3233 1.3331 1.3233.3644.0081.7138-.1349.9662-.3939.2536-.2576.3859-.6124.367-.9726Zm6.9151 1.8494v.4641h-.9091v-.4681c-1.4438-.085-2.2332-.7514-2.2332-1.8616 0-1.1142.7894-1.7792 2.2332-1.8656v-.4397h.9091v.4316c1.439.0891 2.231.7554 2.231 1.8737 0 1.1129-.787 1.7968-2.231 1.8656Zm-.9091-.781V13.98c-.8622.0823-1.2764.4276-1.2764 1.0913 0 .665.456 1.0184 1.2764 1.1034v-.0094Zm2.1871-1.0967c0-.661-.43-1.0144-1.278-1.0886v2.1853c.86-.0688 1.278-.429 1.278-1.0927v-.004Zm1.683.0283c0-1.268.986-2.2069 2.33-2.2069 1.347 0 2.336.9321 2.336 2.2069 0 1.2734-.987 2.1961-2.336 2.1961-1.348 0-2.33-.9348-2.33-2.1961Zm3.663 0c-.017-.7338-.623-1.3139-1.355-1.3017-.732.0135-1.314.6124-1.311 1.3449.007.7298.603 1.3233 1.333 1.3233.363.0081.714-.1349.965-.3939.256-.2577.387-.6124.368-.9726Zm5.855-2.1381v4.2654h-.978v-1.759h-1.939v1.759h-.987v-4.2654h.987v1.6808h1.939v-1.6808h.978Zm5.652 3.4614v1.6835h-.91v-.8795h-3.012v.8795h-.915v-1.6835h.181c.552-.0202.695-.9334.734-2.1273l.051-1.3341h3.275v3.4614h.596Zm-3.476 0h1.904v-2.6547h-1.46l-.017.6192c-.045.9065-.136 1.6875-.427 2.0355Zm7.45-.1119h-1.981l-.378.9159h-.999l1.898-4.2654h.978l1.904 4.2654h-1.033l-.389-.9159Zm-.312-.746-.677-1.6376-.675 1.6309 1.352.0067Zm-90.8076 7.2493h-.6814v1.7185h-.9756v-4.2627h.9756v1.724h.7071l1.1199-1.724h1.0417l-1.3952 2.0504 1.4398 2.2123H32.65l-1.1146-1.7185Zm7.1123-2.5442-1.8162 3.3724c-.3522.6583-.8569.9888-1.429.9888-.2388-.0027-.475-.054-.6949-.1457l.2375-.7527c.1362.0472.282.0728.4264.0809.2482-.0081.4736-.1443.5869-.3642l.0378-.0485-1.6813-3.1242h1.0538l1.1348 2.2892 1.1686-2.2892.9756-.0068Zm4.3099 0v4.2627h-.977v-3.4587h-1.4599l-.0297.8917c-.0567 1.6727-.2942 2.6318-1.2941 2.6318-.1632-.0027-.3265-.0243-.4857-.0648l.062-.8363c.0567.0175.1161.0256.1755.0256.4979 0 .6288-.634.6706-1.724l.0621-1.728h3.2762Zm4.9075 2.7789c0 .9739-.6585 1.4838-1.7568 1.4838h-1.9269v-4.2627h.9756v1.3989h1.0862c1.0377 0 1.6219.4573 1.6219 1.38Zm-.9944.0175c0-.4721-.3037-.665-.8164-.665h-.8906v1.4029h.8906c.5087 0 .8164-.2577.8164-.7379Zm4.7765-1.9924h-1.3655v3.4587h-.9769v-3.4587h-1.371v-.804h3.6986l.0148.804Zm4.9078-.804-1.8135 3.3724c-.3549.6583-.8609.9888-1.4344.9888-.2388-.0027-.4736-.054-.6935-.1457l.2374-.7527c.139.0472.2794.0728.4251.0809.255 0 .4831-.143.5991-.3642l.0364-.0485-1.6826-3.1242h1.066l1.1321 2.2892 1.1725-2.2892.9554-.0068Zm4.4837 1.5486c0 .9483-.7097 1.5378-1.8513 1.5378h-.8581v1.1709h-.9877v-4.2573h1.8458c1.1362 0 1.8513.5908 1.8513 1.5486Zm-.9998 0c0-.4694-.305-.7446-.9095-.7446h-.8001v1.4798h.8001c.6086 0 .9095-.2766.9095-.7352Zm5.7671-1.5486v4.2627h-.9877v-1.759h-1.9349v1.759h-.9864v-4.2627h.9864v1.6808h1.9349v-1.6808h.9877Zm4.9036 2.7789c0 .9739-.6572 1.4838-1.7555 1.4838h-1.9255v-4.2627h.9742v1.3989h1.0862c1.039 0 1.6206.4573 1.6206 1.38Zm-.9931.0175c0-.4721-.3036-.665-.8137-.665h-.8865v1.4029h.8865c.5074 0 .8137-.2577.8137-.7379Zm1.5423-2.7964h.9783v4.2627h-.9783v-4.2627Zm3.0156 0 .8851 1.291.8825-1.291h1.1564l-1.4182 2.0504 1.5315 2.2123h-1.1739l-.9742-1.411-.9756 1.411h-1.1375l1.5221-2.1812-1.4236-2.0815h1.1254Zm5.9683 0h.9755v2.7789l2.0308-2.7789h.927v4.2627h-.9769v-2.7694l-2.0295 2.7694h-.9269v-4.2627Zm9.0729 0v4.2627h-.9784v-1.759h-1.939v1.759h-.9836v-4.2627h.9836v1.6808h1.939v-1.6808h.9784Zm1.2267 0h.9769v2.7789l2.0308-2.7789h.9296v4.2627h-.9756v-2.7694l-2.0348 2.7694h-.9296l.0027-4.2627Zm9.6387 3.4601v1.7145h-.9113v-.9051h-3.5622v-4.2694h.9755v3.46h1.9135v-3.46h.9769v3.46h.6076Zm.858-3.4601h.974v2.7789l2.036-2.7789h.927v4.2627h-.978v-2.7694l-2.035 2.7694h-.924v-4.2627Zm8.104 3.3495h-1.981l-.376.9132h-1.011l1.9-4.2627h.977l1.908 4.2627h-1.038l-.379-.9132Zm-.312-.7487-.665-1.6309-.679 1.6309h1.344Zm5.292-1.7968h-1.365v3.4587h-.979v-3.4587h-1.353v-.804h3.697v.804Zm.817-.804h.974v2.7789l2.035-2.7789h.924v4.2627h-.976v-2.7694l-2.035 2.7694h-.931l.009-4.2627Zm8.92 3.0649c0 .7419-.584 1.1978-1.656 1.1978h-2.102v-4.2627h1.986c.984 0 1.572.3926 1.572 1.1008.007.4074-.232.7783-.604.9402.481.1012.823.5315.804 1.0239Zm-2.777-1.3004h.92c.427 0 .652-.1741.652-.5153 0-.344-.225-.518-.652-.518h-.92v1.0333Zm1.777 1.2181c0-.3575-.236-.5288-.692-.5288h-1.085v1.0805h1.085c.456 0 .692-.1794.692-.5517Z"/>
  <defs>
    <linearGradient id="a" x1="15.7657" x2="15.7657" y1=".0466377" y2="14.5249" gradientUnits="userSpaceOnUse">
      <stop stop-color="#3C61AA"/>
      <stop offset=".04" stop-color="#3C61AA"/>
      <stop offset=".06" stop-color="#3878BB"/>
      <stop offset=".1" stop-color="#3590CC"/>
      <stop offset=".14" stop-color="#32A8D8"/>
      <stop offset=".18" stop-color="#31ADE0"/>
      <stop offset=".23" stop-color="#30AEE2"/>
      <stop offset=".37" stop-color="#3399D3"/>
      <stop offset=".61" stop-color="#387ABC"/>
      <stop offset=".81" stop-color="#3B68AF"/>
      <stop offset=".96" stop-color="#3C61AA"/>
      <stop offset="1" stop-color="#3C61AA"/>
    </linearGradient>
    <linearGradient id="b" x1="15.7656" x2="15.7656" y1="30.2767" y2="15.9346" gradientUnits="userSpaceOnUse">
      <stop stop-color="#E94B4B"/>
      <stop offset=".09" stop-color="#E94B4B"/>
      <stop offset=".13" stop-color="#DC4343"/>
      <stop offset=".2" stop-color="#CC3939"/>
      <stop offset=".28" stop-color="#C33333"/>
      <stop offset=".4" stop-color="#C03131"/>
      <stop offset=".62" stop-color="#D63737"/>
      <stop offset=".84" stop-color="#E83B42"/>
      <stop offset=".88" stop-color="#E33A41"/>
      <stop offset=".92" stop-color="#D6383D"/>
      <stop offset=".97" stop-color="#C03336"/>
      <stop offset="1" stop-color="#A92F2F"/>
    </linearGradient>
  </defs>
</svg>
