<svg width="390" height="220" viewBox="0 0 390 220" fill="none" xmlns="http://www.w3.org/2000/svg">
<path d="M243.848 90.9837V87.9482H243.966C245.039 87.9482 245.369 87.2002 245.594 86.2939C245.921 84.8543 245.975 79.4146 245.975 70.2809H257.098V90.9837H253.79V73.3143H249.012C249.012 79.6375 248.933 83.6667 248.625 86.4564C248.24 89.8211 247.102 90.9837 244.237 90.9837H243.848Z" fill="#020726"/>
<path d="M259.034 90.9837L263.311 70.2809H268.284L272.559 90.9837H269.217L268.309 86.2939H263.286L262.375 90.9837H259.034ZM267.732 83.2605L265.798 73.2893L263.865 83.2605H267.732Z" fill="#020726"/>
<path d="M274.492 90.9837V70.2809H283.847V73.3143H277.807V90.9837H274.492Z" fill="#020726"/>
<path d="M286.199 90.9837V70.2809H295.695V73.3143H289.512V78.8437H295.143V81.873H289.512V87.9482H295.695V90.9837H286.199Z" fill="#020726"/>
<path d="M298.454 90.9837V70.2809H304.502C307.894 70.2809 310.323 72.2372 310.323 75.9415V77.3144C310.323 81.1562 307.894 83.2605 304.502 83.2605H301.766V90.9837H298.454ZM307.012 77.0436V76.2123C307.012 74.1206 305.933 73.3143 304.223 73.3143H301.766V80.2229H304.223C305.933 80.2229 307.012 79.3062 307.012 77.0436Z" fill="#020726"/>
<path d="M312.812 90.9837V70.2809H316.119V77.4541H318.221C322.413 77.4541 324.675 79.9687 324.675 83.6668V84.498C324.675 88.1419 322.413 90.9837 318.221 90.9837H312.812ZM321.367 84.2188V83.9439C321.367 81.8459 320.509 80.4916 317.781 80.4916H316.119V87.9482H317.781C320.509 87.9482 321.367 86.5064 321.367 84.2188Z" fill="#020726"/>
<path d="M244.958 118.589V97.8859H248.269V107.903L253.458 97.8859H257.069L251.631 107.736L257.354 118.589H253.377L248.269 108.565V118.589H244.958Z" fill="#020726"/>
<path d="M259.006 118.589V97.8859H265.055C268.451 97.8859 270.878 99.8422 270.878 103.544V104.924C270.878 108.761 268.451 110.861 265.055 110.861H262.321V118.589H259.006ZM267.565 104.649V103.822C267.565 101.726 266.49 100.924 264.782 100.924H262.321V107.826H264.782C266.49 107.826 267.565 106.911 267.565 104.649Z" fill="#020726"/>
<path d="M273.363 118.589V97.8859H282.861V100.924H276.674V106.447H282.303V109.478H276.674V115.555H282.861V118.589H273.363Z" fill="#020726"/>
<path d="M283.959 118.589L288.239 97.8859H293.21L297.489 118.589H294.147L293.235 113.897H288.206L287.303 118.589H283.959ZM292.658 110.861L290.724 100.892L288.789 110.861H292.658Z" fill="#020726"/>
<path d="M300.995 118.589V100.924H296.937V97.8859H308.362V100.924H304.308V118.589H300.995Z" fill="#020726"/>
<path d="M310.298 118.589V97.8859H313.331V115.166L317.802 97.8859H322.719V118.589H319.679V101.309L315.213 118.589H310.298Z" fill="#020726"/>
<path d="M326.305 118.589V97.8859H332.19C335.582 97.8859 337.901 99.6485 337.901 102.99V103.267C337.901 105.284 336.93 106.584 335.445 107.295C337.268 108.068 338.451 109.699 338.451 112.103V112.655C338.451 116.491 336.136 118.589 332.736 118.589H326.305ZM335.14 112.38V112.103C335.14 110.003 334.172 109.203 332.463 109.203H329.619V115.555H332.463C334.172 115.555 335.14 114.641 335.14 112.38ZM334.59 103.544V103.267C334.59 101.586 333.622 100.924 331.911 100.924H329.619V106.165H331.911C333.622 106.165 334.59 105.422 334.59 103.544Z" fill="#020726"/>
<path d="M341.216 118.589V97.8859H344.524V106.447H350.322V97.8859H353.637V118.589H350.322V109.478H344.524V118.589H341.216Z" fill="#020726"/>
<path d="M357.226 118.589V97.8859H360.543V105.063H362.633C366.835 105.063 369.096 107.572 369.096 111.272V112.103C369.096 115.743 366.835 118.589 362.633 118.589H357.226ZM371.167 118.589V97.8859H374.477V118.589H371.167ZM365.779 111.826V111.547C365.779 109.453 364.927 108.101 362.193 108.101H360.543V115.555H362.193C364.927 115.555 365.779 114.116 365.779 111.826Z" fill="#020726"/>
<path d="M376.138 118.589L381.05 107.99L376.413 97.8859H379.996L382.896 105.09L385.798 97.8859H389.386L384.746 107.99L389.659 118.589H386.073L382.896 110.911L379.719 118.589H376.138Z" fill="#020726"/>
<path d="M243.302 146.196L247.579 125.491H252.55L256.829 146.196H253.481L250.062 128.502L246.639 146.196H243.302Z" fill="#020726"/>
<path d="M258.759 146.196V125.491H261.796V142.767L266.265 125.491H271.182V146.196H268.142V128.914L263.673 146.196H258.759Z" fill="#020726"/>
<path d="M273.249 149.919V143.152H274.74C275.843 140.729 276.097 137.414 276.013 125.491H287.193V143.152H289.12V149.919H286.089V146.196H276.288V149.919H273.249ZM283.878 143.152V128.522H279.055C279.02 135.71 278.857 138.385 278.522 140.454C278.359 141.504 278.195 142.304 277.836 143.152H283.878Z" fill="#020726"/>
<path d="M291.468 146.196V125.491H300.966V128.527H294.779V134.05H300.416V137.081H294.779V143.156H300.966V146.196H291.468Z" fill="#020726"/>
<path d="M303.725 146.196V125.491H309.775C313.165 125.491 315.596 127.452 315.596 131.15V132.533C315.596 136.366 313.165 138.462 309.775 138.462H307.041V146.196H303.725ZM312.281 132.245V131.429C312.281 129.327 311.202 128.522 309.494 128.522H307.041V135.425H309.494C311.202 135.425 312.281 134.514 312.281 132.245Z" fill="#020726"/>
<path d="M317.802 139.298V132.393C317.802 127.589 320.155 125.216 324.015 125.216C327.884 125.216 330.228 127.589 330.228 132.393V139.298C330.228 144.094 327.884 146.471 324.015 146.471C320.155 146.471 317.802 144.094 317.802 139.298ZM326.911 139.298V132.393C326.911 129.272 325.838 128.249 324.015 128.249C322.221 128.249 321.121 129.272 321.121 132.393V139.298C321.121 142.412 322.192 143.433 324.015 143.433C325.811 143.433 326.911 142.412 326.911 139.298Z" fill="#020726"/>
<path d="M333.54 146.196V125.491H339.418C342.818 125.491 345.132 127.258 345.132 130.598V130.875C345.132 132.889 344.17 134.183 342.676 134.904C344.499 135.677 345.687 137.3 345.687 139.708V140.26C345.687 144.094 343.366 146.196 339.968 146.196H333.54ZM342.372 139.983V139.708C342.372 137.608 341.409 136.812 339.695 136.812H336.849V143.152H339.695C341.409 143.152 342.372 142.246 342.372 139.983ZM341.824 131.152V130.875C341.824 129.191 340.855 128.522 339.145 128.522H336.849V133.775H339.145C340.855 133.775 341.824 133.023 341.824 131.152Z" fill="#020726"/>
<path d="M70.2459 89.8336L8.9292 63.3306L14.0898 56.2324L68.4479 80.4687L28.5924 36.2588L33.755 29.1607L77.9086 79.2853L70.2459 89.8336Z" fill="#020726"/>
<path d="M184.708 191.043L140.559 140.917L148.226 130.368L209.538 156.869L204.38 163.972L150.013 139.731L189.867 183.945L184.708 191.043Z" fill="#020726"/>
<path d="M217.872 131.22L152.688 116.616V103.58L217.872 88.9794V97.7651L159.645 110.099L217.872 122.443V131.22Z" fill="#020726"/>
<path d="M0.593445 131.22V122.443L58.8267 110.099L0.593445 97.7651V88.9794L65.779 103.58V116.616L0.593445 131.22Z" fill="#020726"/>
<path d="M148.226 89.8336L140.559 79.2853L184.708 29.1607L189.867 36.2588L150.013 80.4687L204.38 56.2324L209.538 63.3306L148.226 89.8336Z" fill="#020726"/>
<path d="M33.755 191.043L28.5924 183.945L68.4479 139.731L14.0898 163.972L8.9292 156.869L70.2459 130.368L77.9086 140.917L33.755 191.043Z" fill="#020726"/>
<path d="M128.864 70.7891L116.464 66.7537L122.72 0.251276L131.069 2.9598L124.814 62.1639L154.544 10.5934L162.889 13.3059L128.864 70.7891Z" fill="#020726"/>
<path d="M95.7488 219.946L87.3985 217.238L93.6549 158.036L63.9268 209.609L55.5786 206.896L89.6089 149.415L102.005 153.446L95.7488 219.946Z" fill="#020726"/>
<path d="M89.6089 70.7891L55.5786 13.3059L63.9268 10.5934L93.6549 62.1639L87.3985 2.96603L95.7488 0.251276L102.005 66.7537L89.6089 70.7891Z" fill="#020726"/>
<path d="M122.72 219.946L116.464 153.442L128.864 149.415L162.889 206.896L154.544 209.604L124.814 158.036L131.069 217.238L122.72 219.946Z" fill="#020726"/>
</svg>
