<svg width="178" height="15" viewBox="0 0 178 15" fill="none" xmlns="http://www.w3.org/2000/svg">
<path d="M0.913818 10.1591H2.34977V1.91347H0.913818V1.0404H11.7999V1.91347H10.3639V10.1591H11.7999V11.0516H7.33679V10.1591H8.77274V1.99108H3.94096V10.1591H5.37691V11.0516H0.913818V10.1591Z" fill="#231F20"/>
<path d="M18.2448 10.3337C18.7235 10.3337 19.1374 10.2561 19.4867 10.1009C19.849 9.93276 20.14 9.70641 20.3599 9.42185C20.5928 9.12437 20.761 8.7816 20.8645 8.39357C20.9809 7.99261 21.0391 7.55931 21.0391 7.09367V4.99831C21.0391 4.53268 20.9809 4.10584 20.8645 3.71781C20.761 3.31685 20.5928 2.97409 20.3599 2.68953C20.14 2.39204 19.849 2.16569 19.4867 2.01048C19.1374 1.84233 18.7235 1.75826 18.2448 1.75826C17.7532 1.75826 17.3328 1.84233 16.9835 2.01048C16.6342 2.16569 16.3432 2.39204 16.1103 2.68953C15.8904 2.97409 15.7222 3.31685 15.6058 3.71781C15.5023 4.10584 15.4505 4.53268 15.4505 4.99831V7.09367C15.4505 7.55931 15.5023 7.99261 15.6058 8.39357C15.7222 8.7816 15.8904 9.12437 16.1103 9.42185C16.3432 9.70641 16.6342 9.93276 16.9835 10.1009C17.3328 10.2561 17.7532 10.3337 18.2448 10.3337ZM18.2448 11.2844C17.5592 11.2844 16.9318 11.1615 16.3626 10.9158C15.7934 10.67 15.3082 10.3208 14.9072 9.86809C14.5062 9.40245 14.1957 8.85274 13.9758 8.21896C13.7559 7.57224 13.6459 6.84792 13.6459 6.04599C13.6459 5.257 13.7559 4.53914 13.9758 3.89243C14.1957 3.24571 14.5062 2.696 14.9072 2.2433C15.3082 1.77766 15.7934 1.42197 16.3626 1.17622C16.9318 0.930463 17.5592 0.807587 18.2448 0.807587C18.9305 0.807587 19.5579 0.930463 20.1271 1.17622C20.6963 1.42197 21.1814 1.77766 21.5824 2.2433C21.9835 2.696 22.294 3.24571 22.5139 3.89243C22.7338 4.53914 22.8438 5.257 22.8438 6.04599C22.8438 6.84792 22.7338 7.57224 22.5139 8.21896C22.294 8.85274 21.9835 9.40245 21.5824 9.86809C21.1814 10.3208 20.6963 10.67 20.1271 10.9158C19.5579 11.1615 18.9305 11.2844 18.2448 11.2844Z" fill="#231F20"/>
<path d="M23.715 10.1009H25.1121C25.7072 9.32485 26.1794 8.34184 26.5287 7.15188C26.8909 5.94899 27.072 4.50034 27.072 2.80594V1.91347H25.6167V1.0404H34.0383V1.91347H32.6024V10.1009H34.5428V13.9618H33.1069V11.0516H25.1509V13.9618H23.715V10.1009ZM31.0112 10.1009V1.99108H28.2363V2.80594C28.2363 4.39686 28.0746 5.81964 27.7512 7.07427C27.4278 8.3289 26.9944 9.33778 26.4511 10.1009H31.0112Z" fill="#231F20"/>
<path d="M37.5786 10.1591H39.4027V1.99108H36.9577V3.98943H35.7934V1.0404H44.6031V3.98943H43.4389V1.99108H40.9939V10.1591H42.8179V11.0516H37.5786V10.1591Z" fill="#231F20"/>
<path d="M46.2421 10.1591H47.678V1.91347H46.2421V1.0404H51.8306C52.7621 1.0404 53.48 1.26029 53.9846 1.70006C54.4891 2.13982 54.7414 2.7154 54.7414 3.42679C54.7414 4.16405 54.5408 4.71376 54.1398 5.07592C53.7517 5.43808 53.2795 5.67736 52.7233 5.79377V5.87138C53.0079 5.89725 53.286 5.96839 53.5577 6.0848C53.8423 6.2012 54.0945 6.36288 54.3145 6.56983C54.5344 6.76385 54.7155 7.0096 54.8578 7.30709C55.0001 7.59165 55.0712 7.92794 55.0712 8.31597C55.0712 9.23431 54.7866 9.91983 54.2174 10.3725C53.6612 10.8252 52.8785 11.0516 51.8695 11.0516H46.2421V10.1591ZM51.7142 10.1009C52.2705 10.1009 52.6845 9.95863 52.9561 9.67407C53.2407 9.37658 53.383 9.00149 53.383 8.54879V7.98614C53.383 7.53344 53.2407 7.16481 52.9561 6.88026C52.6715 6.58277 52.2575 6.43402 51.7142 6.43402H49.2692V10.1009H51.7142ZM51.5202 5.48335C52.0118 5.48335 52.3869 5.34754 52.6456 5.07592C52.9173 4.79136 53.0531 4.44214 53.0531 4.02824V3.44619C53.0531 3.03229 52.9173 2.68953 52.6456 2.41791C52.3869 2.13336 52.0118 1.99108 51.5202 1.99108H49.2692V5.48335H51.5202Z" fill="#231F20"/>
<path d="M61.6388 11.2844C60.9273 11.2844 60.287 11.1615 59.7178 10.9158C59.1615 10.6571 58.6893 10.3014 58.3012 9.84869C57.9131 9.39599 57.6156 8.84628 57.4086 8.19956C57.2016 7.55284 57.0981 6.83499 57.0981 6.04599C57.0981 5.26993 57.2081 4.56501 57.428 3.93123C57.6609 3.28451 57.9713 2.72834 58.3594 2.2627C58.7605 1.79706 59.2326 1.44137 59.776 1.19562C60.3193 0.93693 60.9144 0.807587 61.5612 0.807587C62.221 0.807587 62.8096 0.923995 63.327 1.15681C63.8445 1.38963 64.2779 1.71946 64.6272 2.14629C64.9894 2.56019 65.2675 3.05816 65.4616 3.64021C65.6556 4.22225 65.7526 4.85603 65.7526 5.54155V5.98779H58.864V6.49223C58.864 7.59165 59.1356 8.45825 59.6789 9.09203C60.2352 9.72581 60.9726 10.0427 61.8911 10.0427C62.6932 10.0427 63.327 9.88102 63.7928 9.55767C64.2714 9.22137 64.6466 8.78807 64.9182 8.25776L65.5586 8.6652C65.4292 9.00149 65.2481 9.33131 65.0153 9.65467C64.7953 9.9651 64.5237 10.2432 64.2003 10.4889C63.8768 10.7218 63.5017 10.9093 63.0748 11.0516C62.6479 11.2068 62.1692 11.2844 61.6388 11.2844ZM58.864 5.09532H64.0838V4.9013C64.0838 4.4486 64.0321 4.02824 63.9286 3.64021C63.838 3.25218 63.6893 2.91588 63.4823 2.63133C63.2753 2.34677 63.0101 2.12689 62.6867 1.97168C62.3762 1.80353 62.001 1.71946 61.5612 1.71946C61.1214 1.71946 60.7333 1.79706 60.3969 1.95228C60.0606 2.10749 59.776 2.32737 59.5431 2.61193C59.3232 2.89648 59.155 3.23277 59.0386 3.6208C58.9222 3.9959 58.864 4.4098 58.864 4.8625V5.09532Z" fill="#231F20"/>
<path d="M67.4046 14.0394H68.8406V2.3015L67.4046 2.04928V1.38963L70.4318 0.807587V2.55372H70.5094C70.7293 2.07515 71.0786 1.66772 71.5572 1.33143C72.0359 0.9822 72.6698 0.807587 73.4589 0.807587C74.7008 0.807587 75.6904 1.26029 76.4278 2.16569C77.1781 3.05816 77.5533 4.35159 77.5533 6.04599C77.5533 7.74039 77.1781 9.04029 76.4278 9.9457C75.6904 10.8382 74.7008 11.2844 73.4589 11.2844C72.6827 11.2844 72.0488 11.1163 71.5572 10.78C71.0786 10.4437 70.7293 10.0362 70.5094 9.55767H70.4318V14.0394H72.2558V14.9319H67.4046V14.0394ZM72.9932 10.1785C73.8858 10.1785 74.5779 9.88102 75.0695 9.28604C75.574 8.67813 75.8263 7.86973 75.8263 6.86086V5.23113C75.8263 4.22225 75.574 3.42032 75.0695 2.82534C74.5779 2.21743 73.8858 1.91347 72.9932 1.91347C72.6827 1.91347 72.3722 1.95874 72.0618 2.04928C71.7513 2.13982 71.4731 2.26917 71.2274 2.43731C70.9945 2.60546 70.8004 2.81888 70.6452 3.07756C70.5029 3.32331 70.4318 3.6014 70.4318 3.91183V8.18016C70.4318 8.49058 70.5029 8.77514 70.6452 9.03382C70.8004 9.27958 70.9945 9.48653 71.2274 9.65467C71.4731 9.82282 71.7513 9.95216 72.0618 10.0427C72.3722 10.1332 72.6827 10.1785 72.9932 10.1785Z" fill="#231F20"/>
<path d="M78.6685 10.1591H79.7551L81.9285 6.70564C82.0837 6.44696 82.2519 6.25294 82.433 6.1236C82.627 5.99426 82.834 5.91018 83.0539 5.87138L81.9867 3.42679C81.8702 3.15517 81.7409 2.90295 81.5986 2.67013C81.4692 2.43731 81.3528 2.26917 81.2493 2.16569H81.1911C81.1911 2.91588 80.8547 3.29098 80.182 3.29098C79.8586 3.29098 79.5934 3.18104 79.3864 2.96115C79.1924 2.74127 79.0954 2.45025 79.0954 2.08809C79.0954 1.72592 79.2118 1.42197 79.4447 1.17622C79.6775 0.930463 80.0139 0.807587 80.4537 0.807587C80.8935 0.807587 81.301 0.969266 81.6762 1.29262C82.0643 1.60305 82.4459 2.19156 82.8211 3.05816L83.9077 5.54155H85.3437V1.91347H83.9077V1.0404H88.332V1.91347H86.8961V5.54155H88.3126L89.3993 3.05816C89.7744 2.19156 90.1561 1.60305 90.5442 1.29262C90.9323 0.969266 91.3462 0.807587 91.7861 0.807587C92.213 0.807587 92.5428 0.930463 92.7757 1.17622C93.0215 1.42197 93.1444 1.72592 93.1444 2.08809C93.1444 2.45025 93.0409 2.74127 92.8339 2.96115C92.6269 3.18104 92.3682 3.29098 92.0577 3.29098C91.385 3.29098 91.0487 2.91588 91.0487 2.16569H90.9905C90.887 2.26917 90.7641 2.43731 90.6218 2.67013C90.4795 2.90295 90.3501 3.15517 90.2337 3.42679L89.1664 5.87138C89.3993 5.91018 89.6063 5.99426 89.7874 6.1236C89.9685 6.25294 90.1431 6.44696 90.3113 6.70564L92.4846 10.1591H93.5713V11.0516H91.2233L88.3126 6.43402H86.8961V10.1591H88.332V11.0516H83.9077V10.1591H85.3437V6.43402H83.9077L81.0164 11.0516H78.6685V10.1591Z" fill="#231F20"/>
<path d="M94.512 10.1009H95.9091C96.5042 9.32485 96.9764 8.34184 97.3257 7.15188C97.6879 5.94899 97.869 4.50034 97.869 2.80594V1.91347H96.4136V1.0404H104.835V1.91347H103.399V10.1009H105.34V13.9618H103.904V11.0516H95.9479V13.9618H94.512V10.1009ZM101.808 10.1009V1.99108H99.0333V2.80594C99.0333 4.39686 98.8716 5.81964 98.5482 7.07427C98.2247 8.3289 97.7914 9.33778 97.248 10.1009H101.808Z" fill="#231F20"/>
<path d="M109.927 11.2844C108.995 11.2844 108.264 11.0451 107.734 10.5665C107.216 10.075 106.958 9.40892 106.958 8.56819C106.958 8.08962 107.035 7.66925 107.191 7.30709C107.346 6.932 107.598 6.62157 107.947 6.37582C108.31 6.13007 108.775 5.94252 109.344 5.81317C109.914 5.68383 110.606 5.61916 111.421 5.61916H112.857V4.14465C112.857 3.35565 112.663 2.7542 112.275 2.34031C111.899 1.91347 111.33 1.70006 110.567 1.70006C110.231 1.70006 109.92 1.73239 109.636 1.79706C109.351 1.8488 109.118 1.92641 108.937 2.02988V2.06868C109.079 2.14629 109.215 2.2627 109.344 2.41791C109.487 2.57312 109.558 2.79301 109.558 3.07756C109.558 3.41386 109.461 3.67901 109.267 3.87302C109.073 4.0541 108.814 4.14465 108.491 4.14465C108.18 4.14465 107.921 4.0541 107.714 3.87302C107.52 3.67901 107.423 3.39445 107.423 3.01936C107.423 2.7348 107.507 2.46318 107.676 2.20449C107.844 1.93287 108.083 1.69359 108.394 1.48664C108.704 1.27969 109.086 1.11801 109.539 1.0016C110.004 0.872258 110.528 0.807587 111.11 0.807587C112.158 0.807587 112.973 1.07921 113.555 1.62245C114.15 2.16569 114.448 2.92882 114.448 3.91183V10.2173H115.903V10.8964C115.761 10.9998 115.567 11.0904 115.321 11.168C115.088 11.2456 114.823 11.2844 114.526 11.2844C114.021 11.2844 113.633 11.1421 113.361 10.8576C113.09 10.573 112.954 10.1914 112.954 9.71288V9.57707H112.857C112.766 9.79695 112.643 10.0104 112.488 10.2173C112.346 10.4243 112.158 10.6053 111.925 10.7606C111.692 10.9158 111.408 11.0386 111.071 11.1292C110.748 11.2327 110.366 11.2844 109.927 11.2844ZM110.606 10.2173C111.227 10.2173 111.757 10.0621 112.197 9.75168C112.637 9.42832 112.857 8.93682 112.857 8.27717V6.39522H111.595C111.039 6.39522 110.573 6.44049 110.198 6.53103C109.823 6.60864 109.526 6.73151 109.306 6.89966C109.086 7.05487 108.924 7.24889 108.821 7.4817C108.73 7.71452 108.685 7.98614 108.685 8.29657V8.704C108.685 9.1955 108.853 9.5706 109.189 9.82929C109.526 10.088 109.998 10.2173 110.606 10.2173Z" fill="#231F20"/>
<path d="M121.994 11.2844C121.283 11.2844 120.643 11.1615 120.073 10.9158C119.517 10.6571 119.045 10.3014 118.657 9.84869C118.269 9.39599 117.971 8.84628 117.764 8.19956C117.557 7.55284 117.454 6.83499 117.454 6.04599C117.454 5.26993 117.564 4.56501 117.784 3.93123C118.016 3.28451 118.327 2.72834 118.715 2.2627C119.116 1.79706 119.588 1.44137 120.132 1.19562C120.675 0.93693 121.27 0.807587 121.917 0.807587C122.577 0.807587 123.165 0.923995 123.683 1.15681C124.2 1.38963 124.633 1.71946 124.983 2.14629C125.345 2.56019 125.623 3.05816 125.817 3.64021C126.011 4.22225 126.108 4.85603 126.108 5.54155V5.98779H119.22V6.49223C119.22 7.59165 119.491 8.45825 120.035 9.09203C120.591 9.72581 121.328 10.0427 122.247 10.0427C123.049 10.0427 123.683 9.88102 124.148 9.55767C124.627 9.22137 125.002 8.78807 125.274 8.25776L125.914 8.6652C125.785 9.00149 125.604 9.33131 125.371 9.65467C125.151 9.9651 124.879 10.2432 124.556 10.4889C124.232 10.7218 123.857 10.9093 123.43 11.0516C123.003 11.2068 122.525 11.2844 121.994 11.2844ZM119.22 5.09532H124.439V4.9013C124.439 4.4486 124.388 4.02824 124.284 3.64021C124.194 3.25218 124.045 2.91588 123.838 2.63133C123.631 2.34677 123.366 2.12689 123.042 1.97168C122.732 1.80353 122.357 1.71946 121.917 1.71946C121.477 1.71946 121.089 1.79706 120.752 1.95228C120.416 2.10749 120.132 2.32737 119.899 2.61193C119.679 2.89648 119.511 3.23277 119.394 3.6208C119.278 3.9959 119.22 4.4098 119.22 4.8625V5.09532Z" fill="#231F20"/>
<path d="M129.486 10.1591H131.31V1.99108H128.865V3.98943H127.701V1.0404H136.51V3.98943H135.346V1.99108H132.901V10.1591H134.725V11.0516H129.486V10.1591Z" fill="#231F20"/>
<path d="M136.404 13.6902C136.843 13.3022 137.212 12.8947 137.51 12.4679C137.807 12.054 138.001 11.6595 138.092 11.2844H138.053C137.691 11.2844 137.413 11.168 137.219 10.9352C137.025 10.7024 136.928 10.4372 136.928 10.1397V10.0233C136.928 9.68701 137.038 9.40892 137.257 9.18904C137.477 8.95622 137.768 8.83981 138.131 8.83981C138.506 8.83981 138.797 8.96269 139.004 9.20844C139.224 9.45419 139.334 9.75168 139.334 10.1009V10.2755C139.334 10.5601 139.282 10.8576 139.178 11.168C139.075 11.4784 138.933 11.7888 138.752 12.0993C138.583 12.4097 138.376 12.7007 138.131 12.9723C137.898 13.244 137.646 13.4832 137.374 13.6902H136.404Z" fill="#231F20"/>
<path d="M151.52 10.1591H153.344V6.1236H153.286C152.975 6.49869 152.581 6.80265 152.102 7.03547C151.636 7.26829 151.054 7.3847 150.356 7.3847C149.347 7.3847 148.59 7.15188 148.085 6.68624C147.581 6.22061 147.328 5.45748 147.328 4.39686V1.91347H145.893V1.0404H150.259V1.91347H148.92V4.24165C148.92 4.97891 149.075 5.50275 149.385 5.81317C149.709 6.1236 150.265 6.27881 151.054 6.27881C151.74 6.27881 152.29 6.15593 152.704 5.91018C153.131 5.66443 153.344 5.2958 153.344 4.8043V1.91347H152.005V1.0404H156.371V1.91347H154.935V10.1591H156.371V11.0516H151.52V10.1591Z" fill="#231F20"/>
<path d="M159.787 10.1591H161.611V1.99108H159.166V3.98943H158.002V1.0404H166.811V3.98943H165.647V1.99108H163.202V10.1591H165.026V11.0516H159.787V10.1591Z" fill="#231F20"/>
<path d="M172.952 10.3337C173.431 10.3337 173.845 10.2561 174.194 10.1009C174.556 9.93276 174.847 9.70641 175.067 9.42185C175.3 9.12437 175.468 8.7816 175.572 8.39357C175.688 7.99261 175.746 7.55931 175.746 7.09367V4.99831C175.746 4.53268 175.688 4.10584 175.572 3.71781C175.468 3.31685 175.3 2.97409 175.067 2.68953C174.847 2.39204 174.556 2.16569 174.194 2.01048C173.845 1.84233 173.431 1.75826 172.952 1.75826C172.461 1.75826 172.04 1.84233 171.691 2.01048C171.342 2.16569 171.05 2.39204 170.818 2.68953C170.598 2.97409 170.43 3.31685 170.313 3.71781C170.21 4.10584 170.158 4.53268 170.158 4.99831V7.09367C170.158 7.55931 170.21 7.99261 170.313 8.39357C170.43 8.7816 170.598 9.12437 170.818 9.42185C171.05 9.70641 171.342 9.93276 171.691 10.1009C172.04 10.2561 172.461 10.3337 172.952 10.3337ZM172.952 11.2844C172.267 11.2844 171.639 11.1615 171.07 10.9158C170.501 10.67 170.016 10.3208 169.615 9.86809C169.214 9.40245 168.903 8.85274 168.683 8.21896C168.463 7.57224 168.353 6.84792 168.353 6.04599C168.353 5.257 168.463 4.53914 168.683 3.89243C168.903 3.24571 169.214 2.696 169.615 2.2433C170.016 1.77766 170.501 1.42197 171.07 1.17622C171.639 0.930463 172.267 0.807587 172.952 0.807587C173.638 0.807587 174.265 0.930463 174.834 1.17622C175.404 1.42197 175.889 1.77766 176.29 2.2433C176.691 2.696 177.001 3.24571 177.221 3.89243C177.441 4.53914 177.551 5.257 177.551 6.04599C177.551 6.84792 177.441 7.57224 177.221 8.21896C177.001 8.85274 176.691 9.40245 176.29 9.86809C175.889 10.3208 175.404 10.67 174.834 10.9158C174.265 11.1615 173.638 11.2844 172.952 11.2844Z" fill="#231F20"/>
</svg>
