<svg width="317" height="40" viewBox="0 0 317 40" fill="none" xmlns="http://www.w3.org/2000/svg">
<path d="M17.5223 24.2298H22.5977V26.2596C22.5977 34.9372 18.3851 39.2506 11.381 39.2506C4.37691 39.2506 0.164307 34.9372 0.164307 26.2596V13.1672C0.164307 4.48967 4.37691 0.17627 11.381 0.17627C18.3851 0.17627 22.5977 4.48967 22.5977 13.1672V14.6896H17.5223V13.1672C17.5223 7.0777 15.2383 4.84489 11.381 4.84489C7.57443 4.84489 5.23974 7.0777 5.23974 13.1672V26.2596C5.23974 32.3491 7.52368 34.5819 11.381 34.5819C15.1876 34.5819 17.5223 32.3491 17.5223 26.2596V24.2298Z" fill="#020726"/>
<path d="M52.2541 34.0745V38.7431H35.2006V0.683727H52.2541V5.35234H40.2761V16.8209H51.239V21.4895H40.2761V34.0745H52.2541Z" fill="#020726"/>
<path d="M68.9066 38.7431H63.8312V0.683727H74.8449C80.9862 0.683727 85.351 4.18519 85.351 10.8329V13.5732C85.351 20.4746 80.9862 24.2298 74.8449 24.2298H68.9066V38.7431ZM74.3373 5.35234H68.9066V19.5612H74.3373C77.9916 19.5612 80.2756 17.6836 80.2756 13.0657V11.3404C80.2756 7.02696 77.9916 5.35234 74.3373 5.35234Z" fill="#020726"/>
<path d="M106.123 38.7431H101.048V5.35234H93.0796V0.683727H114.092V5.35234H106.123V38.7431Z" fill="#020726"/>
<path d="M139.042 0.683727H146.452V38.7431H141.783V5.50458L131.328 38.7431H123.918V0.683727H128.587V33.9223L139.042 0.683727Z" fill="#020726"/>
<path d="M176.336 39.2506H171.261V35.6476H169.941C161.77 35.6476 158.522 30.1163 158.522 22.7074V16.5164C158.522 8.2956 162.633 3.72848 169.992 3.72848H171.261V0.17627H176.336V3.72848H177.656C185.015 3.72848 189.126 8.2956 189.126 16.5164V22.7074C189.126 30.1163 185.878 35.6476 177.707 35.6476H176.336V39.2506ZM177.554 8.19411H176.336V31.2327H177.758C181.919 31.2327 184.051 28.5432 184.051 23.0119V16.3134C184.051 9.86873 181.209 8.19411 177.554 8.19411ZM169.84 31.2327H171.261V8.19411H170.043C166.439 8.19411 163.597 9.86873 163.597 16.3134V23.0119C163.597 28.5432 165.729 31.2327 169.84 31.2327Z" fill="#020726"/>
<path d="M216.328 0.683727H223.738V38.7431H219.068V5.50458L208.613 38.7431H201.203V0.683727H205.872V33.9223L216.328 0.683727Z" fill="#020726"/>
<path d="M241.897 0.683727V19.206L253.013 0.683727H258.596L247.176 18.9015L259.205 38.7431H253.114L241.897 20.0179V38.7431H236.822V0.683727H241.897Z" fill="#020726"/>
<path d="M274.104 0.683727H281.717L290.244 38.7431H285.118L283.138 29.4059H272.683L270.703 38.7431H265.577L274.104 0.683727ZM273.698 24.7373H282.123L277.91 4.7434L273.698 24.7373Z" fill="#020726"/>
<path d="M308.439 38.7431H303.363V5.35234H295.395V0.683727H316.407V5.35234H308.439V38.7431Z" fill="#020726"/>
</svg>
