<svg width="90" height="16" viewBox="0 0 90 16" fill="none" xmlns="http://www.w3.org/2000/svg">
<path d="M0.864746 11.6589H1.98729V2.59025H0.864746V1.90187H8.58783V4.41594H7.51019V2.63514H3.27447V6.60079H6.23797V5.40362H7.13601V8.53124H6.23797V7.33406H3.27447V11.614H7.65986V9.69849H8.7375V12.3472H0.864746V11.6589Z" fill="#231F20"/>
<path d="M11.6355 12.5268C11.3462 12.5268 11.1167 12.442 10.947 12.2724C10.7874 12.0928 10.7076 11.8783 10.7076 11.6289V11.5391C10.7076 11.2897 10.7874 11.0802 10.947 10.9106C11.1167 10.7311 11.3462 10.6413 11.6355 10.6413C11.9249 10.6413 12.1494 10.7311 12.309 10.9106C12.4787 11.0802 12.5635 11.2897 12.5635 11.5391V11.6289C12.5635 11.8783 12.4787 12.0928 12.309 12.2724C12.1494 12.442 11.9249 12.5268 11.6355 12.5268Z" fill="#231F20"/>
<path d="M14.458 11.6589H15.5806V2.59025H14.458V1.90187H21.4926V4.41594H20.415V2.63514H16.8677V11.6589H18.2896V12.3472H14.458V11.6589Z" fill="#231F20"/>
<path d="M22.3895 14.6518H23.497V5.59816L22.3895 5.40362V4.89482L24.7243 4.44587V5.7927H24.7842C24.9538 5.42357 25.2233 5.10931 25.5924 4.84992C25.9616 4.58056 26.4506 4.44587 27.0592 4.44587C28.0171 4.44587 28.7805 4.79505 29.3492 5.4934C29.9279 6.18178 30.2173 7.17943 30.2173 8.48635C30.2173 9.79326 29.9279 10.7959 29.3492 11.4943C28.7805 12.1826 28.0171 12.5268 27.0592 12.5268C26.4605 12.5268 25.9716 12.3971 25.5924 12.1377C25.2233 11.8783 24.9538 11.5641 24.7842 11.195H24.7243V14.6518H26.1313V15.3402H22.3895V14.6518ZM26.7 11.6738C27.3885 11.6738 27.9223 11.4444 28.3015 10.9855C28.6907 10.5166 28.8852 9.89303 28.8852 9.11486V7.85783C28.8852 7.07966 28.6907 6.46112 28.3015 6.0022C27.9223 5.53331 27.3885 5.29886 26.7 5.29886C26.4605 5.29886 26.2211 5.33378 25.9816 5.40362C25.7421 5.47345 25.5276 5.57322 25.338 5.70291C25.1584 5.8326 25.0087 5.99722 24.889 6.19675C24.7792 6.3863 24.7243 6.60079 24.7243 6.84023V10.1325C24.7243 10.3719 24.7792 10.5914 24.889 10.7909C25.0087 10.9805 25.1584 11.1401 25.338 11.2698C25.5276 11.3995 25.7421 11.4992 25.9816 11.5691C26.2211 11.6389 26.4605 11.6738 26.7 11.6738Z" fill="#231F20"/>
<path d="M35.2919 12.5268C34.7431 12.5268 34.2492 12.432 33.8101 12.2425C33.3811 12.043 33.0169 11.7686 32.7175 11.4194C32.4182 11.0703 32.1887 10.6463 32.029 10.1474C31.8694 9.64861 31.7896 9.09491 31.7896 8.48635C31.7896 7.88776 31.8744 7.34404 32.044 6.85519C32.2236 6.35637 32.4631 5.92738 32.7624 5.56823C33.0718 5.20907 33.436 4.93472 33.855 4.74517C34.2741 4.54564 34.7331 4.44587 35.232 4.44587C35.7409 4.44587 36.1949 4.53566 36.594 4.71524C36.9932 4.89482 37.3274 5.14922 37.5968 5.47844C37.8762 5.79769 38.0908 6.18178 38.2404 6.63072C38.3901 7.07966 38.4649 7.56851 38.4649 8.09726V8.44145H33.1516V8.83054C33.1516 9.67854 33.3611 10.347 33.7802 10.8358C34.2093 11.3247 34.778 11.5691 35.4865 11.5691C36.1051 11.5691 36.594 11.4444 36.9533 11.195C37.3224 10.9356 37.6118 10.6014 37.8214 10.1923L38.3153 10.5066C38.2155 10.766 38.0758 11.0204 37.8962 11.2698C37.7266 11.5092 37.517 11.7237 37.2676 11.9133C37.0181 12.0928 36.7287 12.2375 36.3995 12.3472C36.0702 12.467 35.701 12.5268 35.2919 12.5268ZM33.1516 7.75308H37.1778V7.60343C37.1778 7.25425 37.1378 6.93002 37.058 6.63072C36.9882 6.33143 36.8734 6.07204 36.7138 5.85256C36.5541 5.63307 36.3496 5.46347 36.1001 5.34376C35.8606 5.21406 35.5713 5.14922 35.232 5.14922C34.8928 5.14922 34.5934 5.20907 34.334 5.32879C34.0746 5.44851 33.855 5.61811 33.6754 5.83759C33.5058 6.05707 33.3761 6.31646 33.2863 6.61576C33.1965 6.90508 33.1516 7.22432 33.1516 7.5735V7.75308Z" fill="#231F20"/>
<path d="M43.2707 12.5268C42.3527 12.5268 41.5944 12.2175 40.9957 11.599C40.6365 11.2199 40.3521 10.7261 40.1426 10.1175C39.943 9.50894 39.8432 8.77068 39.8432 7.90272C39.8432 7.17444 39.8682 6.53595 39.9181 5.98724C39.9679 5.42856 40.0428 4.9447 40.1426 4.53566C40.2523 4.11665 40.387 3.7575 40.5467 3.4582C40.7063 3.15891 40.8959 2.89453 41.1154 2.66507C41.2551 2.51543 41.4098 2.39571 41.5794 2.30592C41.749 2.20616 41.9436 2.12634 42.1631 2.06648C42.3926 1.99665 42.657 1.94178 42.9564 1.90187C43.2657 1.86197 43.6249 1.81707 44.034 1.76719C44.4132 1.71731 44.7275 1.6774 44.977 1.64747C45.2264 1.61754 45.436 1.58761 45.6056 1.55768L45.6804 0.97406H46.2791C46.339 1.15364 46.3689 1.36813 46.3689 1.61754C46.3689 1.847 46.339 2.04154 46.2791 2.20117C46.2292 2.35081 46.1494 2.4855 46.0396 2.60521C45.9698 2.67505 45.885 2.7399 45.7852 2.79976C45.6854 2.84964 45.5507 2.89952 45.3811 2.9494C45.2214 2.98931 45.0169 3.02423 44.7674 3.05416C44.5279 3.08408 44.2286 3.11401 43.8694 3.14394C43.5102 3.1639 43.2009 3.18884 42.9414 3.21877C42.692 3.23872 42.4725 3.26865 42.2829 3.30856C42.1033 3.34846 41.9486 3.40333 41.8189 3.47317C41.6892 3.53303 41.5694 3.61284 41.4597 3.7126C41.3399 3.8423 41.2352 3.98696 41.1454 4.14658C41.0556 4.3062 40.9757 4.49576 40.9059 4.71524C40.846 4.93472 40.7911 5.19411 40.7412 5.4934C40.7013 5.7927 40.6664 6.14686 40.6365 6.5559H40.6963C40.9458 5.97726 41.2851 5.5383 41.7141 5.239C42.1432 4.92973 42.7069 4.7751 43.4054 4.7751C44.4032 4.7751 45.1965 5.09933 45.7852 5.7478C46.3739 6.39627 46.6683 7.33905 46.6683 8.57614C46.6683 9.17472 46.5884 9.71844 46.4288 10.2073C46.2691 10.6961 46.0396 11.1151 45.7403 11.4643C45.4509 11.8035 45.0967 12.0679 44.6776 12.2575C44.2585 12.437 43.7896 12.5268 43.2707 12.5268ZM43.2557 11.7935C43.605 11.7935 43.9043 11.7337 44.1538 11.614C44.4132 11.4943 44.6227 11.3247 44.7824 11.1052C44.952 10.8857 45.0767 10.6263 45.1566 10.327C45.2364 10.0277 45.2763 9.70348 45.2763 9.3543V7.94762C45.2763 7.59844 45.2364 7.2742 45.1566 6.97491C45.0767 6.67562 44.952 6.42122 44.7824 6.21171C44.6227 5.99223 44.4132 5.82263 44.1538 5.70291C43.9043 5.57322 43.605 5.50837 43.2557 5.50837C42.9065 5.50837 42.6022 5.57322 42.3427 5.70291C42.0933 5.82263 41.8837 5.99223 41.7141 6.21171C41.5545 6.42122 41.4347 6.67562 41.3549 6.97491C41.2751 7.2742 41.2352 7.59844 41.2352 7.94762V9.3543C41.2352 9.70348 41.2751 10.0277 41.3549 10.327C41.4347 10.6263 41.5545 10.8857 41.7141 11.1052C41.8837 11.3247 42.0933 11.4943 42.3427 11.614C42.6022 11.7337 42.9065 11.7935 43.2557 11.7935Z" fill="#231F20"/>
<path d="M51.6623 12.5268C51.1135 12.5268 50.6196 12.432 50.1805 12.2425C49.7515 12.043 49.3873 11.7686 49.0879 11.4194C48.7886 11.0703 48.5591 10.6463 48.3994 10.1474C48.2398 9.64861 48.16 9.09491 48.16 8.48635C48.16 7.88776 48.2448 7.34404 48.4144 6.85519C48.594 6.35637 48.8335 5.92738 49.1328 5.56823C49.4421 5.20907 49.8063 4.93472 50.2254 4.74517C50.6445 4.54564 51.1035 4.44587 51.6024 4.44587C52.1113 4.44587 52.5653 4.53566 52.9644 4.71524C53.3636 4.89482 53.6978 5.14922 53.9672 5.47844C54.2466 5.79769 54.4611 6.18178 54.6108 6.63072C54.7605 7.07966 54.8353 7.56851 54.8353 8.09726V8.44145H49.522V8.83054C49.522 9.67854 49.7315 10.347 50.1506 10.8358C50.5796 11.3247 51.1484 11.5691 51.8569 11.5691C52.4755 11.5691 52.9644 11.4444 53.3236 11.195C53.6928 10.9356 53.9822 10.6014 54.1917 10.1923L54.6857 10.5066C54.5859 10.766 54.4462 11.0204 54.2666 11.2698C54.0969 11.5092 53.8874 11.7237 53.6379 11.9133C53.3885 12.0928 53.0991 12.2375 52.7698 12.3472C52.4406 12.467 52.0714 12.5268 51.6623 12.5268ZM49.522 7.75308H53.5481V7.60343C53.5481 7.25425 53.5082 6.93002 53.4284 6.63072C53.3586 6.33143 53.2438 6.07204 53.0842 5.85256C52.9245 5.63307 52.72 5.46347 52.4705 5.34376C52.231 5.21406 51.9417 5.14922 51.6024 5.14922C51.2632 5.14922 50.9638 5.20907 50.7044 5.32879C50.4449 5.44851 50.2254 5.61811 50.0458 5.83759C49.8762 6.05707 49.7465 6.31646 49.6567 6.61576C49.5669 6.90508 49.522 7.22432 49.522 7.5735V7.75308Z" fill="#231F20"/>
<path d="M56.2592 11.6589H57.3668V5.29886H56.2592V4.62545H59.7017V5.29886H58.5941V8.06733H62.3059V5.29886H61.1984V4.62545H64.6408V5.29886H63.5333V11.6589H64.6408V12.3472H61.1984V11.6589H62.3059V8.80061H58.5941V11.6589H59.7017V12.3472H56.2592V11.6589Z" fill="#231F20"/>
<path d="M69.5674 12.5268C69.0186 12.5268 68.5247 12.432 68.0856 12.2425C67.6566 12.043 67.2924 11.7686 66.993 11.4194C66.6937 11.0703 66.4642 10.6463 66.3045 10.1474C66.1449 9.64861 66.0651 9.09491 66.0651 8.48635C66.0651 7.88776 66.1499 7.34404 66.3195 6.85519C66.4991 6.35637 66.7386 5.92738 67.0379 5.56823C67.3472 5.20907 67.7114 4.93472 68.1305 4.74517C68.5496 4.54564 69.0086 4.44587 69.5075 4.44587C70.0164 4.44587 70.4704 4.53566 70.8695 4.71524C71.2687 4.89482 71.6029 5.14922 71.8723 5.47844C72.1517 5.79769 72.3663 6.18178 72.5159 6.63072C72.6656 7.07966 72.7404 7.56851 72.7404 8.09726V8.44145H67.4271V8.83054C67.4271 9.67854 67.6366 10.347 68.0557 10.8358C68.4848 11.3247 69.0535 11.5691 69.762 11.5691C70.3806 11.5691 70.8695 11.4444 71.2287 11.195C71.5979 10.9356 71.8873 10.6014 72.0968 10.1923L72.5908 10.5066C72.491 10.766 72.3513 11.0204 72.1717 11.2698C72.002 11.5092 71.7925 11.7237 71.5431 11.9133C71.2936 12.0928 71.0042 12.2375 70.675 12.3472C70.3457 12.467 69.9765 12.5268 69.5674 12.5268ZM67.4271 7.75308H71.4533V7.60343C71.4533 7.25425 71.4133 6.93002 71.3335 6.63072C71.2637 6.33143 71.1489 6.07204 70.9893 5.85256C70.8296 5.63307 70.6251 5.46347 70.3756 5.34376C70.1361 5.21406 69.8468 5.14922 69.5075 5.14922C69.1683 5.14922 68.8689 5.20907 68.6095 5.32879C68.3501 5.44851 68.1305 5.61811 67.9509 5.83759C67.7813 6.05707 67.6516 6.31646 67.5618 6.61576C67.472 6.90508 67.4271 7.22432 67.4271 7.5735V7.75308Z" fill="#231F20"/>
<path d="M74.1643 11.6589H75.2719V5.29886H74.1643V4.62545H78.4749C79.1933 4.62545 79.7471 4.79505 80.1362 5.13425C80.5254 5.47345 80.7199 5.9174 80.7199 6.46611C80.7199 7.03477 80.5653 7.45877 80.256 7.73811C79.9566 8.01745 79.5924 8.20202 79.1633 8.29181V8.35166C79.3829 8.37162 79.5974 8.42649 79.8069 8.51628C80.0265 8.60606 80.221 8.73077 80.3907 8.89039C80.5603 9.04004 80.7 9.22959 80.8097 9.45905C80.9195 9.67854 80.9744 9.93792 80.9744 10.2372C80.9744 10.9455 80.7549 11.4743 80.3158 11.8235C79.8868 12.1727 79.2831 12.3472 78.5048 12.3472H74.1643V11.6589ZM78.3851 11.614C78.8141 11.614 79.1334 11.5042 79.343 11.2847C79.5625 11.0553 79.6722 10.766 79.6722 10.4168V9.98282C79.6722 9.63364 79.5625 9.34931 79.343 9.12983C79.1234 8.90037 78.8041 8.78564 78.3851 8.78564H76.4992V11.614H78.3851ZM78.2354 8.05237C78.6146 8.05237 78.9039 7.94762 79.1035 7.73811C79.313 7.51863 79.4178 7.24926 79.4178 6.93002V6.48108C79.4178 6.16183 79.313 5.89745 79.1035 5.68795C78.9039 5.46846 78.6146 5.35872 78.2354 5.35872H76.4992V8.05237H78.2354Z" fill="#231F20"/>
<path d="M84.8733 12.5268C84.1549 12.5268 83.5912 12.3423 83.182 11.9731C82.7829 11.594 82.5834 11.0802 82.5834 10.4318C82.5834 10.0626 82.6432 9.73839 82.763 9.45905C82.8827 9.16974 83.0773 8.9303 83.3467 8.74075C83.6261 8.55119 83.9853 8.40654 84.4243 8.30677C84.8634 8.20701 85.3972 8.15712 86.0258 8.15712H87.1334V7.01981C87.1334 6.41124 86.9837 5.94733 86.6844 5.62809C86.395 5.29886 85.956 5.13425 85.3673 5.13425C85.1078 5.13425 84.8683 5.15919 84.6488 5.20907C84.4293 5.24898 84.2497 5.30884 84.11 5.38865V5.41858C84.2198 5.47844 84.3245 5.56823 84.4243 5.68795C84.5341 5.80766 84.589 5.97726 84.589 6.19675C84.589 6.45613 84.5141 6.66065 84.3645 6.8103C84.2148 6.94997 84.0152 7.01981 83.7658 7.01981C83.5263 7.01981 83.3267 6.94997 83.1671 6.8103C83.0174 6.66065 82.9426 6.44117 82.9426 6.15185C82.9426 5.93237 83.0074 5.72286 83.1371 5.52333C83.2669 5.31383 83.4515 5.12926 83.6909 4.96964C83.9304 4.81002 84.2248 4.68531 84.574 4.59552C84.9332 4.49576 85.3373 4.44587 85.7863 4.44587C86.5946 4.44587 87.2232 4.65538 87.6722 5.07439C88.1312 5.4934 88.3607 6.08202 88.3607 6.84023V11.7038H89.4832V12.2275C89.3735 12.3073 89.2238 12.3772 89.0342 12.437C88.8546 12.4969 88.6501 12.5268 88.4206 12.5268C88.0314 12.5268 87.7321 12.4171 87.5225 12.1976C87.313 11.9781 87.2082 11.6838 87.2082 11.3147V11.2099H87.1334C87.0635 11.3795 86.9688 11.5441 86.849 11.7038C86.7393 11.8634 86.5946 12.0031 86.415 12.1228C86.2354 12.2425 86.0158 12.3373 85.7564 12.4071C85.507 12.4869 85.2126 12.5268 84.8733 12.5268ZM85.3972 11.7038C85.8761 11.7038 86.2852 11.584 86.6245 11.3446C86.9638 11.0952 87.1334 10.7161 87.1334 10.2073V8.75571H86.1605C85.7315 8.75571 85.3722 8.79063 85.0829 8.86046C84.7935 8.92032 84.564 9.0151 84.3944 9.14479C84.2248 9.26451 84.1 9.41416 84.0202 9.59374C83.9504 9.77331 83.9154 9.98282 83.9154 10.2223V10.5365C83.9154 10.9156 84.0452 11.2049 84.3046 11.4045C84.564 11.604 84.9282 11.7038 85.3972 11.7038Z" fill="#231F20"/>
</svg>
