<svg width="276" height="560" viewBox="0 0 276 560" fill="none" xmlns="http://www.w3.org/2000/svg">
<path d="M275.094 178.672C275.094 178.321 275.094 178.145 275.026 178.011C274.966 177.893 274.87 177.797 274.752 177.736C274.617 177.668 274.441 177.668 274.09 177.668H266.682C266.33 177.668 266.154 177.668 266.02 177.736C265.902 177.797 265.806 177.893 265.746 178.011C265.677 178.145 265.677 178.321 265.677 178.672V243.211C265.677 243.562 265.677 243.738 265.746 243.872C265.806 243.99 265.902 244.086 266.02 244.147C266.154 244.215 266.33 244.215 266.682 244.215H274.09C274.441 244.215 274.617 244.215 274.752 244.147C274.87 244.086 274.966 243.99 275.026 243.872C275.094 243.738 275.094 243.562 275.094 243.211V178.672Z" fill="url(#paint0_linear_809_1484)"/>
<path d="M275.094 239.82H266.305V243.21C266.305 243.562 266.305 243.738 266.374 243.872C266.434 243.99 266.53 244.086 266.648 244.147C266.782 244.215 266.958 244.215 267.31 244.215H274.09C274.442 244.215 274.617 244.215 274.752 244.147C274.87 244.086 274.966 243.99 275.026 243.872C275.094 243.738 275.094 243.562 275.094 243.21V239.82Z" fill="url(#paint1_linear_809_1484)"/>
<path d="M275.094 182.063H266.305V178.672C266.305 178.321 266.305 178.145 266.374 178.011C266.434 177.893 266.53 177.797 266.648 177.736C266.782 177.668 266.958 177.668 267.31 177.668H274.09C274.442 177.668 274.617 177.668 274.752 177.736C274.87 177.797 274.966 177.893 275.026 178.011C275.094 178.145 275.094 178.321 275.094 178.672V182.063Z" fill="url(#paint2_linear_809_1484)"/>
<path fill-rule="evenodd" clip-rule="evenodd" d="M265.814 244.157C265.677 243.889 265.677 243.537 265.677 242.834V179.049C265.677 178.346 265.677 177.994 265.814 177.726C265.934 177.489 266.127 177.297 266.363 177.177C266.631 177.04 266.983 177.04 267.686 177.04H273.713C274.416 177.04 274.768 177.04 275.037 177.177C275.273 177.297 275.465 177.489 275.585 177.726C275.722 177.994 275.722 178.346 275.722 179.049V242.834C275.722 243.537 275.722 243.889 275.585 244.157C275.465 244.393 275.273 244.585 275.037 244.706C274.768 244.843 274.416 244.843 273.713 244.843H267.686C266.983 244.843 266.631 244.843 266.363 244.706C266.127 244.585 265.934 244.393 265.814 244.157ZM266.373 243.872C266.305 243.738 266.305 243.562 266.305 243.21V178.672C266.305 178.321 266.305 178.145 266.373 178.011C266.434 177.892 266.53 177.796 266.648 177.736C266.782 177.668 266.958 177.668 267.31 177.668H274.09C274.441 177.668 274.617 177.668 274.752 177.736C274.87 177.796 274.966 177.892 275.026 178.011C275.094 178.145 275.094 178.321 275.094 178.672V243.21C275.094 243.562 275.094 243.738 275.026 243.872C274.966 243.99 274.87 244.086 274.752 244.146C274.617 244.215 274.441 244.215 274.09 244.215H267.31C266.958 244.215 266.782 244.215 266.648 244.146C266.53 244.086 266.434 243.99 266.373 243.872Z" fill="#353638"/>
<path d="M0.744629 202.529C0.744629 202.177 0.744629 202.001 0.813055 201.867C0.873245 201.749 0.969286 201.653 1.08742 201.593C1.22171 201.524 1.39751 201.524 1.74911 201.524H9.15719C9.50879 201.524 9.68459 201.524 9.81888 201.593C9.93701 201.653 10.0331 201.749 10.0932 201.867C10.1617 202.001 10.1617 202.177 10.1617 202.529V241.955C10.1617 242.307 10.1617 242.482 10.0932 242.617C10.0331 242.735 9.93701 242.831 9.81888 242.891C9.68459 242.959 9.50879 242.959 9.15719 242.959H1.74911C1.39751 242.959 1.22171 242.959 1.08742 242.891C0.969286 242.831 0.873245 242.735 0.813055 242.617C0.744629 242.482 0.744629 242.307 0.744629 241.955V202.529Z" fill="url(#paint3_linear_809_1484)"/>
<path d="M0.744629 238.564H9.53386V241.955C9.53386 242.306 9.53386 242.482 9.46544 242.616C9.40525 242.734 9.30921 242.83 9.19108 242.891C9.05678 242.959 8.88098 242.959 8.52938 242.959H1.74911C1.39751 242.959 1.22171 242.959 1.08742 242.891C0.969286 242.83 0.873245 242.734 0.813055 242.616C0.744629 242.482 0.744629 242.306 0.744629 241.955V238.564Z" fill="url(#paint4_linear_809_1484)"/>
<path d="M0.744629 205.919H9.53386V202.529C9.53386 202.177 9.53386 202.001 9.46544 201.867C9.40525 201.749 9.30921 201.653 9.19108 201.593C9.05678 201.524 8.88098 201.524 8.52938 201.524H1.74911C1.39751 201.524 1.22171 201.524 1.08742 201.593C0.969286 201.653 0.873245 201.749 0.813055 201.867C0.744629 202.001 0.744629 202.177 0.744629 202.529V205.919Z" fill="url(#paint5_linear_809_1484)"/>
<path fill-rule="evenodd" clip-rule="evenodd" d="M0.253552 242.901C0.116699 242.633 0.116699 242.281 0.116699 241.578V202.905C0.116699 202.202 0.116699 201.851 0.253552 201.582C0.373931 201.346 0.566014 201.154 0.802272 201.033C1.07086 200.896 1.42246 200.896 2.12567 200.896H8.15257C8.85578 200.896 9.20738 200.896 9.47597 201.033C9.71223 201.154 9.90431 201.346 10.0247 201.582C10.1615 201.851 10.1615 202.202 10.1615 202.905V241.578C10.1615 242.281 10.1615 242.633 10.0247 242.901C9.90431 243.138 9.71223 243.33 9.47597 243.45C9.20738 243.587 8.85578 243.587 8.15257 243.587H2.12567C1.42246 243.587 1.07086 243.587 0.802272 243.45C0.566014 243.33 0.373931 243.138 0.253552 242.901ZM0.812928 242.616C0.744502 242.482 0.744502 242.306 0.744502 241.955V202.529C0.744502 202.177 0.744502 202.001 0.812928 201.867C0.873118 201.749 0.969159 201.653 1.08729 201.593C1.22158 201.524 1.39738 201.524 1.74899 201.524H8.52925C8.88086 201.524 9.05666 201.524 9.19095 201.593C9.30908 201.653 9.40512 201.749 9.46531 201.867C9.53374 202.001 9.53374 202.177 9.53374 202.529V241.955C9.53374 242.306 9.53374 242.482 9.46531 242.616C9.40512 242.735 9.30908 242.831 9.19095 242.891C9.05666 242.959 8.88086 242.959 8.52925 242.959H1.74899C1.39738 242.959 1.22158 242.959 1.08729 242.891C0.969159 242.831 0.873118 242.735 0.812928 242.616Z" fill="#353638"/>
<path d="M0.744629 149.794C0.744629 149.442 0.744629 149.266 0.813055 149.132C0.873245 149.014 0.969286 148.918 1.08742 148.857C1.22171 148.789 1.39751 148.789 1.74911 148.789H9.15719C9.50879 148.789 9.68459 148.789 9.81888 148.857C9.93701 148.918 10.0331 149.014 10.0932 149.132C10.1617 149.266 10.1617 149.442 10.1617 149.794V189.22C10.1617 189.571 10.1617 189.747 10.0932 189.881C10.0331 189.999 9.93701 190.095 9.81888 190.156C9.68459 190.224 9.50879 190.224 9.15719 190.224H1.74911C1.39751 190.224 1.22171 190.224 1.08742 190.156C0.969286 190.095 0.873245 189.999 0.813055 189.881C0.744629 189.747 0.744629 189.571 0.744629 189.22V149.794Z" fill="url(#paint6_linear_809_1484)"/>
<path d="M0.744629 185.829H9.53386V189.219C9.53386 189.571 9.53386 189.747 9.46544 189.881C9.40525 189.999 9.30921 190.095 9.19108 190.155C9.05678 190.224 8.88098 190.224 8.52938 190.224H1.74911C1.39751 190.224 1.22171 190.224 1.08742 190.155C0.969286 190.095 0.873245 189.999 0.813055 189.881C0.744629 189.747 0.744629 189.571 0.744629 189.219V185.829Z" fill="url(#paint7_linear_809_1484)"/>
<path d="M0.744629 153.184H9.53386V149.794C9.53386 149.442 9.53386 149.266 9.46544 149.132C9.40525 149.014 9.30921 148.918 9.19108 148.857C9.05678 148.789 8.88098 148.789 8.52938 148.789H1.74911C1.39751 148.789 1.22171 148.789 1.08742 148.857C0.969286 148.918 0.873245 149.014 0.813055 149.132C0.744629 149.266 0.744629 149.442 0.744629 149.794V153.184Z" fill="url(#paint8_linear_809_1484)"/>
<path fill-rule="evenodd" clip-rule="evenodd" d="M0.253552 190.166C0.116699 189.898 0.116699 189.546 0.116699 188.843V150.17C0.116699 149.467 0.116699 149.115 0.253552 148.847C0.373931 148.61 0.566014 148.418 0.802272 148.298C1.07086 148.161 1.42246 148.161 2.12567 148.161H8.15257C8.85578 148.161 9.20738 148.161 9.47597 148.298C9.71223 148.418 9.90431 148.61 10.0247 148.847C10.1615 149.115 10.1615 149.467 10.1615 150.17V188.843C10.1615 189.546 10.1615 189.898 10.0247 190.166C9.90431 190.402 9.71223 190.594 9.47597 190.715C9.20738 190.852 8.85578 190.852 8.15257 190.852H2.12567C1.42246 190.852 1.07086 190.852 0.802272 190.715C0.566014 190.594 0.373931 190.402 0.253552 190.166ZM0.812928 189.881C0.744502 189.747 0.744502 189.571 0.744502 189.219V149.793C0.744502 149.442 0.744502 149.266 0.812928 149.132C0.873118 149.014 0.969159 148.918 1.08729 148.857C1.22158 148.789 1.39738 148.789 1.74899 148.789H8.52925C8.88086 148.789 9.05666 148.789 9.19095 148.857C9.30908 148.918 9.40512 149.014 9.46531 149.132C9.53374 149.266 9.53374 149.442 9.53374 149.793V189.219C9.53374 189.571 9.53374 189.747 9.46531 189.881C9.40512 189.999 9.30908 190.095 9.19095 190.155C9.05666 190.224 8.88086 190.224 8.52925 190.224H1.74899C1.39738 190.224 1.22158 190.224 1.08729 190.155C0.969159 190.095 0.873118 189.999 0.812928 189.881Z" fill="#353638"/>
<path d="M0.744629 109.614C0.744629 109.263 0.744629 109.087 0.813055 108.953C0.873245 108.835 0.969286 108.738 1.08742 108.678C1.22171 108.61 1.39751 108.61 1.74911 108.61H9.15719C9.50879 108.61 9.68459 108.61 9.81888 108.678C9.93701 108.738 10.0331 108.835 10.0932 108.953C10.1617 109.087 10.1617 109.263 10.1617 109.614V128.951C10.1617 129.302 10.1617 129.478 10.0932 129.612C10.0331 129.73 9.93701 129.827 9.81888 129.887C9.68459 129.955 9.50879 129.955 9.15719 129.955H1.74911C1.39751 129.955 1.22171 129.955 1.08742 129.887C0.969286 129.827 0.873245 129.73 0.813055 129.612C0.744629 129.478 0.744629 129.302 0.744629 128.951V109.614Z" fill="url(#paint9_linear_809_1484)"/>
<path d="M0.744629 113.004H9.53386V109.614C9.53386 109.263 9.53386 109.087 9.46544 108.953C9.40525 108.835 9.30921 108.738 9.19108 108.678C9.05678 108.61 8.88098 108.61 8.52938 108.61H1.74911C1.39751 108.61 1.22171 108.61 1.08742 108.678C0.969286 108.738 0.873245 108.835 0.813055 108.953C0.744629 109.087 0.744629 109.263 0.744629 109.614V113.004Z" fill="url(#paint10_linear_809_1484)"/>
<path d="M0.744629 126.188H9.53386V129.578C9.53386 129.93 9.53386 130.106 9.46544 130.24C9.40525 130.358 9.30921 130.454 9.19108 130.514C9.05678 130.583 8.88098 130.583 8.52938 130.583H1.74911C1.39751 130.583 1.22171 130.583 1.08742 130.514C0.969286 130.454 0.873245 130.358 0.813055 130.24C0.744629 130.106 0.744629 129.93 0.744629 129.578V126.188Z" fill="url(#paint11_linear_809_1484)"/>
<path fill-rule="evenodd" clip-rule="evenodd" d="M0.253552 129.897C0.116699 129.629 0.116699 129.277 0.116699 128.574V109.991C0.116699 109.288 0.116699 108.936 0.253552 108.668C0.373931 108.431 0.566014 108.239 0.802272 108.119C1.07086 107.982 1.42246 107.982 2.12567 107.982H8.15257C8.85578 107.982 9.20738 107.982 9.47597 108.119C9.71223 108.239 9.90431 108.431 10.0247 108.668C10.1615 108.936 10.1615 109.288 10.1615 109.991V128.574C10.1615 129.277 10.1615 129.629 10.0247 129.897C9.90431 130.134 9.71223 130.326 9.47597 130.446C9.20738 130.583 8.85578 130.583 8.15257 130.583H2.12567C1.42246 130.583 1.07086 130.583 0.802272 130.446C0.566014 130.326 0.373931 130.134 0.253552 129.897ZM0.812928 129.612C0.744502 129.478 0.744502 129.302 0.744502 128.951V109.614C0.744502 109.263 0.744502 109.087 0.812928 108.953C0.873118 108.834 0.969159 108.738 1.08729 108.678C1.22158 108.61 1.39738 108.61 1.74899 108.61H8.52925C8.88086 108.61 9.05666 108.61 9.19095 108.678C9.30908 108.738 9.40512 108.834 9.46531 108.953C9.53374 109.087 9.53374 109.263 9.53374 109.614V128.951C9.53374 129.302 9.53374 129.478 9.46531 129.612C9.40512 129.73 9.30908 129.826 9.19095 129.887C9.05666 129.955 8.88086 129.955 8.52925 129.955H1.74899C1.39738 129.955 1.22158 129.955 1.08729 129.887C0.969159 129.826 0.873118 129.73 0.812928 129.612Z" fill="#353638"/>
<path fill-rule="evenodd" clip-rule="evenodd" d="M11.2528 28.7324C6.39453 38.2673 6.39453 50.7491 6.39453 75.7129V484.287C6.39453 509.251 6.39453 521.733 11.2528 531.267C15.5263 539.655 22.3452 546.474 30.7324 550.747C40.2673 555.605 52.7491 555.605 77.7129 555.605H198.125C223.089 555.605 235.571 555.605 245.106 550.747C253.493 546.474 260.312 539.655 264.586 531.267C269.444 521.733 269.444 509.251 269.444 484.287V75.7129C269.444 50.7491 269.444 38.2673 264.586 28.7324C260.312 20.3452 253.493 13.5263 245.106 9.25281C235.571 4.39453 223.089 4.39453 198.125 4.39453H77.7129C52.7491 4.39453 40.2673 4.39453 30.7324 9.25281C22.3452 13.5263 15.5263 20.3452 11.2528 28.7324ZM18.3878 31.752C14.556 39.2725 14.556 49.1173 14.556 68.8071V491.193C14.556 510.882 14.556 520.727 18.3878 528.248C21.7585 534.863 27.1368 540.241 33.752 543.612C41.2725 547.444 51.1173 547.444 70.8071 547.444H205.031C224.721 547.444 234.566 547.444 242.086 543.612C248.702 540.241 254.08 534.863 257.451 528.248C261.282 520.727 261.282 510.882 261.282 491.193V68.8071C261.282 49.1173 261.282 39.2725 257.451 31.752C254.08 25.1368 248.702 19.7585 242.086 16.3878C234.566 12.556 224.721 12.556 205.031 12.556H70.8071C51.1173 12.556 41.2725 12.556 33.752 16.3878C27.1368 19.7585 21.7585 25.1368 18.3878 31.752Z" fill="black"/>
<path fill-rule="evenodd" clip-rule="evenodd" d="M10.5569 27.7616C5.76709 37.1622 5.76709 49.4683 5.76709 74.0805V485.919C5.76709 510.531 5.76709 522.837 10.5569 532.238C14.7702 540.507 21.4931 547.23 29.7621 551.443C39.1627 556.233 51.4688 556.233 76.081 556.233H199.758C224.37 556.233 236.676 556.233 246.077 551.443C254.346 547.23 261.069 540.507 265.282 532.238C270.072 522.837 270.072 510.531 270.072 485.919V74.0805C270.072 49.4683 270.072 37.1622 265.282 27.7616C261.069 19.4926 254.346 12.7697 246.077 8.55645C236.676 3.7666 224.37 3.7666 199.758 3.7666H76.081C51.4688 3.7666 39.1627 3.7666 29.7621 8.55645C21.4931 12.7697 14.7702 19.4926 10.5569 27.7616ZM11.2532 28.7322C6.39492 38.2671 6.39492 50.749 6.39492 75.7128V484.287C6.39492 509.251 6.39492 521.732 11.2532 531.267C15.5267 539.654 22.3456 546.473 30.7327 550.747C40.2676 555.605 52.7495 555.605 77.7133 555.605H198.126C223.09 555.605 235.572 555.605 245.106 550.747C253.494 546.473 260.312 539.654 264.586 531.267C269.444 521.732 269.444 509.251 269.444 484.287V75.7128C269.444 50.749 269.444 38.2671 264.586 28.7322C260.312 20.3451 253.494 13.5261 245.106 9.25268C235.572 4.3944 223.09 4.3944 198.126 4.3944H77.7133C52.7495 4.3944 40.2676 4.3944 30.7327 9.25268C22.3456 13.5261 15.5267 20.3451 11.2532 28.7322Z" fill="#474747"/>
<path fill-rule="evenodd" clip-rule="evenodd" d="M9.43793 27.1918C4.51123 36.861 4.51123 49.5187 4.51123 74.8341V485.166C4.51123 510.481 4.51123 523.139 9.43793 532.808C13.7716 541.313 20.6866 548.228 29.1918 552.562C38.861 557.489 51.5187 557.489 76.8341 557.489H199.004C224.32 557.489 236.978 557.489 246.647 552.562C255.152 548.228 262.067 541.313 266.401 532.808C271.327 523.139 271.327 510.481 271.327 485.166V74.8341C271.327 49.5187 271.327 36.861 266.401 27.1918C262.067 18.6866 255.152 11.7716 246.647 7.43793C236.978 2.51123 224.32 2.51123 199.004 2.51123H76.8341C51.5187 2.51123 38.861 2.51123 29.1918 7.43793C20.6866 11.7716 13.7716 18.6866 9.43793 27.1918ZM10.5567 27.7619C5.76684 37.1625 5.76684 49.4686 5.76684 74.0807V485.919C5.76684 510.531 5.76684 522.838 10.5567 532.238C14.77 540.507 21.4929 547.23 29.7619 551.443C39.1625 556.233 51.4686 556.233 76.0807 556.233H199.758C224.37 556.233 236.676 556.233 246.077 551.443C254.346 547.23 261.069 540.507 265.282 532.238C270.072 522.838 270.072 510.531 270.072 485.919V74.0807C270.072 49.4686 270.072 37.1625 265.282 27.7619C261.069 19.4929 254.346 12.77 246.077 8.55668C236.676 3.76684 224.37 3.76684 199.758 3.76684H76.0807C51.4686 3.76684 39.1625 3.76684 29.7619 8.55668C21.4929 12.77 14.77 19.4929 10.5567 27.7619Z" fill="black"/>
<path fill-rule="evenodd" clip-rule="evenodd" d="M8.31941 26.6216C3.25586 36.5593 3.25586 49.5686 3.25586 75.5872V484.412C3.25586 510.431 3.25586 523.44 8.31941 533.378C12.7734 542.12 19.8805 549.227 28.622 553.681C38.5598 558.744 51.5691 558.744 77.5877 558.744H198.251C224.27 558.744 237.279 558.744 247.217 553.681C255.959 549.227 263.066 542.12 267.52 533.378C272.583 523.44 272.583 510.431 272.583 484.412V75.5872C272.583 49.5686 272.583 36.5593 267.52 26.6216C263.066 17.88 255.959 10.773 247.217 6.31892C237.279 1.25537 224.27 1.25537 198.251 1.25537H77.5877C51.5691 1.25537 38.5598 1.25537 28.622 6.31892C19.8805 10.773 12.7734 17.88 8.31941 26.6216ZM9.43817 27.1916C4.51146 36.8608 4.51146 49.5185 4.51146 74.8338V485.166C4.51146 510.481 4.51146 523.139 9.43817 532.808C13.7718 541.313 20.6868 548.228 29.1921 552.562C38.8613 557.489 51.519 557.489 76.8344 557.489H199.005C224.32 557.489 236.978 557.489 246.647 552.562C255.152 548.228 262.067 541.313 266.401 532.808C271.328 523.139 271.328 510.481 271.328 485.166V74.8339C271.328 49.5185 271.328 36.8608 266.401 27.1916C262.067 18.6863 255.152 11.7713 246.647 7.43768C236.978 2.51098 224.32 2.51098 199.005 2.51098H76.8343C51.519 2.51098 38.8613 2.51098 29.1921 7.43768C20.6868 11.7713 13.7718 18.6863 9.43817 27.1916Z" fill="#3C3C3C"/>
<path fill-rule="evenodd" clip-rule="evenodd" d="M7.75991 26.3369C2.62793 36.409 2.62793 49.5941 2.62793 75.9643V484.036C2.62793 510.406 2.62793 523.591 7.75991 533.663C12.2741 542.523 19.4772 549.726 28.3369 554.24C38.409 559.372 51.5941 559.372 77.9643 559.372H197.875C224.245 559.372 237.43 559.372 247.502 554.24C256.362 549.726 263.565 542.523 268.079 533.663C273.211 523.591 273.211 510.406 273.211 484.036V75.9642C273.211 49.5941 273.211 36.409 268.079 26.3369C263.565 17.4772 256.362 10.2741 247.502 5.75991C237.43 0.62793 224.245 0.62793 197.875 0.62793H77.9643C51.5941 0.62793 38.409 0.62793 28.3369 5.75991C19.4772 10.2741 12.2741 17.4772 7.75991 26.3369ZM8.31929 26.6219C3.25573 36.5597 3.25573 49.569 3.25573 75.5876V484.413C3.25573 510.431 3.25573 523.441 8.31929 533.378C12.7733 542.12 19.8804 549.227 28.6219 553.681C38.5597 558.745 51.569 558.745 77.5876 558.745H198.251C224.27 558.745 237.279 558.745 247.217 553.681C255.958 549.227 263.066 542.12 267.52 533.378C272.583 523.441 272.583 510.431 272.583 484.413V75.5876C272.583 49.569 272.583 36.5597 267.52 26.6219C263.066 17.8804 255.958 10.7733 247.217 6.31929C237.279 1.25573 224.27 1.25573 198.251 1.25573H77.5876C51.569 1.25573 38.5597 1.25573 28.6219 6.31929C19.8804 10.7733 12.7733 17.8804 8.31929 26.6219Z" fill="#717171"/>
<path fill-rule="evenodd" clip-rule="evenodd" d="M7.20041 26.0518C2 36.2581 2 49.619 2 76.3408V483.659C2 510.381 2 523.742 7.20041 533.948C11.7748 542.926 19.074 550.225 28.0518 554.8C38.2581 560 51.619 560 78.3408 560H197.498C224.22 560 237.58 560 247.787 554.8C256.765 550.225 264.064 542.926 268.638 533.948C273.839 523.742 273.839 510.381 273.839 483.659V76.3408C273.839 49.619 273.839 36.2581 268.638 26.0518C264.064 17.074 256.765 9.77481 247.787 5.20041C237.58 0 224.22 0 197.498 0H78.3408C51.619 0 38.2581 0 28.0518 5.20041C19.074 9.77481 11.7748 17.074 7.20041 26.0518ZM7.75978 26.3368C2.6278 36.4088 2.6278 49.5939 2.6278 75.9641V484.036C2.6278 510.406 2.6278 523.591 7.75978 533.663C12.274 542.523 19.4771 549.726 28.3368 554.24C38.4088 559.372 51.5939 559.372 77.9641 559.372H197.874C224.245 559.372 237.43 559.372 247.502 554.24C256.361 549.726 263.565 542.523 268.079 533.663C273.211 523.591 273.211 510.406 273.211 484.036V75.9641C273.211 49.5939 273.211 36.4088 268.079 26.3368C263.565 17.4771 256.361 10.274 247.502 5.75978C237.43 0.627803 224.245 0.627803 197.874 0.627803H77.9641C51.5939 0.627803 38.4088 0.627803 28.3368 5.75978C19.4771 10.274 12.274 17.4771 7.75978 26.3368Z" fill="#5E5E5E"/>
<rect opacity="0.5" x="209.803" width="4.39462" height="4.39462" fill="#A6A6A4"/>
<rect opacity="0.5" x="2" y="59.0137" width="4.39462" height="3.76682" fill="#A6A6A4"/>
<rect opacity="0.5" x="2" y="497.22" width="4.39462" height="3.76682" fill="#A6A6A4"/>
<rect opacity="0.5" x="269.444" y="497.22" width="4.39462" height="3.76682" fill="#A6A6A4"/>
<rect opacity="0.5" x="59.1299" y="555.605" width="3.76682" height="4.39462" fill="#A6A6A4"/>
<path opacity="0.5" d="M165.355 4.89453C165.351 5.16272 165.342 5.30863 165.317 5.43236C165.157 6.21876 164.542 6.83335 163.756 6.99338C163.571 7.03101 163.336 7.03354 162.718 7.03354H113.121C112.503 7.03354 112.269 7.03101 112.084 6.99338C111.297 6.83335 110.683 6.21876 110.523 5.43236C110.497 5.30863 110.488 5.16272 110.484 4.89453H165.355Z" fill="#0F1013" stroke="url(#paint12_linear_809_1484)"/>
<path opacity="0.8" fill-rule="evenodd" clip-rule="evenodd" d="M111.238 5.65026C111.238 5.30354 111.519 5.02246 111.866 5.02246H163.973C164.32 5.02246 164.601 5.30354 164.601 5.65026C164.601 5.99699 164.32 6.27807 163.973 6.27807H111.866C111.519 6.27807 111.238 5.99699 111.238 5.65026Z" fill="#1F2224"/>
<g clip-path="url(#clip0_809_1484)">
<path d="M98.6816 31.3903C98.6816 25.1492 103.741 20.0898 109.982 20.0898H165.857C172.098 20.0898 177.157 25.1492 177.157 31.3903C177.157 37.6314 172.098 42.6907 165.857 42.6907H109.982C103.741 42.6907 98.6816 37.6314 98.6816 31.3903Z" fill="black"/>
<path fill-rule="evenodd" clip-rule="evenodd" d="M165.857 35.7848C168.284 35.7848 170.251 33.8173 170.251 31.3902C170.251 28.9631 168.284 26.9956 165.857 26.9956C163.429 26.9956 161.462 28.9631 161.462 31.3902C161.462 33.8173 163.429 35.7848 165.857 35.7848ZM165.857 35.157C167.937 35.157 169.623 33.4706 169.623 31.3902C169.623 29.3099 167.937 27.6234 165.857 27.6234C163.776 27.6234 162.09 29.3099 162.09 31.3902C162.09 33.4706 163.776 35.157 165.857 35.157Z" fill="url(#paint13_linear_809_1484)"/>
<g filter="url(#filter0_i_809_1484)">
<ellipse cx="165.856" cy="32.9954" rx="0.977379" ry="1.88341" transform="rotate(90 165.856 32.9954)" fill="url(#paint14_radial_809_1484)"/>
</g>
<g filter="url(#filter1_i_809_1484)">
<ellipse cx="0.977379" cy="1.88341" rx="0.977379" ry="1.88341" transform="matrix(-1.19249e-08 -1 -1 1.19249e-08 167.74 30.8335)" fill="url(#paint15_radial_809_1484)"/>
</g>
</g>
<defs>
<filter id="filter0_i_809_1484" x="163.973" y="32.0181" width="3.7666" height="1.95459" filterUnits="userSpaceOnUse" color-interpolation-filters="sRGB">
<feFlood flood-opacity="0" result="BackgroundImageFix"/>
<feBlend mode="normal" in="SourceGraphic" in2="BackgroundImageFix" result="shape"/>
<feColorMatrix in="SourceAlpha" type="matrix" values="0 0 0 0 0 0 0 0 0 0 0 0 0 0 0 0 0 0 127 0" result="hardAlpha"/>
<feOffset/>
<feGaussianBlur stdDeviation="0.5"/>
<feComposite in2="hardAlpha" operator="arithmetic" k2="-1" k3="1"/>
<feColorMatrix type="matrix" values="0 0 0 0 0 0 0 0 0 0 0 0 0 0 0 0 0 0 0.5 0"/>
<feBlend mode="normal" in2="shape" result="effect1_innerShadow_809_1484"/>
</filter>
<filter id="filter1_i_809_1484" x="163.973" y="28.8789" width="3.7666" height="1.95459" filterUnits="userSpaceOnUse" color-interpolation-filters="sRGB">
<feFlood flood-opacity="0" result="BackgroundImageFix"/>
<feBlend mode="normal" in="SourceGraphic" in2="BackgroundImageFix" result="shape"/>
<feColorMatrix in="SourceAlpha" type="matrix" values="0 0 0 0 0 0 0 0 0 0 0 0 0 0 0 0 0 0 127 0" result="hardAlpha"/>
<feOffset/>
<feGaussianBlur stdDeviation="0.5"/>
<feComposite in2="hardAlpha" operator="arithmetic" k2="-1" k3="1"/>
<feColorMatrix type="matrix" values="0 0 0 0 0 0 0 0 0 0 0 0 0 0 0 0 0 0 0.5 0"/>
<feBlend mode="normal" in2="shape" result="effect1_innerShadow_809_1484"/>
</filter>
<linearGradient id="paint0_linear_809_1484" x1="270.386" y1="177.668" x2="270.386" y2="244.215" gradientUnits="userSpaceOnUse">
<stop stop-color="#474747"/>
<stop offset="0.484375" stop-color="#A6A6A4"/>
<stop offset="1" stop-color="#474747"/>
</linearGradient>
<linearGradient id="paint1_linear_809_1484" x1="270.7" y1="240.26" x2="270.7" y2="243.775" gradientUnits="userSpaceOnUse">
<stop stop-color="#3C3631"/>
<stop offset="0.249443" stop-color="#050000"/>
<stop offset="0.475668" stop-color="#C1BDB9"/>
<stop offset="0.740898" stop-color="#C1BDB9"/>
<stop offset="1" stop-color="#736F6B"/>
</linearGradient>
<linearGradient id="paint2_linear_809_1484" x1="270.7" y1="181.623" x2="270.7" y2="178.107" gradientUnits="userSpaceOnUse">
<stop stop-color="#3C3631"/>
<stop offset="0.249443" stop-color="#050000"/>
<stop offset="0.475668" stop-color="#C1BDB9"/>
<stop offset="0.740898" stop-color="#C1BDB9"/>
<stop offset="1" stop-color="#736F6B"/>
</linearGradient>
<linearGradient id="paint3_linear_809_1484" x1="5.45315" y1="201.524" x2="5.45315" y2="242.959" gradientUnits="userSpaceOnUse">
<stop stop-color="#474747"/>
<stop offset="0.484375" stop-color="#A6A6A4"/>
<stop offset="1" stop-color="#474747"/>
</linearGradient>
<linearGradient id="paint4_linear_809_1484" x1="5.13925" y1="239.004" x2="5.13925" y2="242.52" gradientUnits="userSpaceOnUse">
<stop stop-color="#3C3631"/>
<stop offset="0.249443" stop-color="#050000"/>
<stop offset="0.475668" stop-color="#C1BDB9"/>
<stop offset="0.740898" stop-color="#C1BDB9"/>
<stop offset="1" stop-color="#736F6B"/>
</linearGradient>
<linearGradient id="paint5_linear_809_1484" x1="5.13925" y1="205.48" x2="5.13925" y2="201.964" gradientUnits="userSpaceOnUse">
<stop stop-color="#3C3631"/>
<stop offset="0.249443" stop-color="#050000"/>
<stop offset="0.475668" stop-color="#C1BDB9"/>
<stop offset="0.740898" stop-color="#C1BDB9"/>
<stop offset="1" stop-color="#736F6B"/>
</linearGradient>
<linearGradient id="paint6_linear_809_1484" x1="5.45315" y1="148.789" x2="5.45315" y2="190.224" gradientUnits="userSpaceOnUse">
<stop stop-color="#474747"/>
<stop offset="0.484375" stop-color="#A6A6A4"/>
<stop offset="1" stop-color="#474747"/>
</linearGradient>
<linearGradient id="paint7_linear_809_1484" x1="5.13925" y1="186.269" x2="5.13925" y2="189.784" gradientUnits="userSpaceOnUse">
<stop stop-color="#3C3631"/>
<stop offset="0.249443" stop-color="#050000"/>
<stop offset="0.475668" stop-color="#C1BDB9"/>
<stop offset="0.740898" stop-color="#C1BDB9"/>
<stop offset="1" stop-color="#736F6B"/>
</linearGradient>
<linearGradient id="paint8_linear_809_1484" x1="5.13925" y1="152.744" x2="5.13925" y2="149.229" gradientUnits="userSpaceOnUse">
<stop stop-color="#3C3631"/>
<stop offset="0.249443" stop-color="#050000"/>
<stop offset="0.475668" stop-color="#C1BDB9"/>
<stop offset="0.740898" stop-color="#C1BDB9"/>
<stop offset="1" stop-color="#736F6B"/>
</linearGradient>
<linearGradient id="paint9_linear_809_1484" x1="5.45315" y1="108.61" x2="5.45315" y2="129.955" gradientUnits="userSpaceOnUse">
<stop stop-color="#474747"/>
<stop offset="0.484375" stop-color="#A6A6A4"/>
<stop offset="1" stop-color="#474747"/>
</linearGradient>
<linearGradient id="paint10_linear_809_1484" x1="5.13925" y1="112.565" x2="5.13925" y2="109.049" gradientUnits="userSpaceOnUse">
<stop stop-color="#3C3631"/>
<stop offset="0.249443" stop-color="#050000"/>
<stop offset="0.475668" stop-color="#C1BDB9"/>
<stop offset="0.740898" stop-color="#C1BDB9"/>
<stop offset="1" stop-color="#736F6B"/>
</linearGradient>
<linearGradient id="paint11_linear_809_1484" x1="5.13925" y1="126.627" x2="5.13925" y2="130.143" gradientUnits="userSpaceOnUse">
<stop stop-color="#3C3631"/>
<stop offset="0.249443" stop-color="#050000"/>
<stop offset="0.475668" stop-color="#C1BDB9"/>
<stop offset="0.740898" stop-color="#C1BDB9"/>
<stop offset="1" stop-color="#736F6B"/>
</linearGradient>
<linearGradient id="paint12_linear_809_1484" x1="109.982" y1="4.39453" x2="109.982" y2="7.53354" gradientUnits="userSpaceOnUse">
<stop stop-color="#101112"/>
<stop offset="1" stop-color="#232425"/>
</linearGradient>
<linearGradient id="paint13_linear_809_1484" x1="166.589" y1="26.2632" x2="160.363" y2="31.024" gradientUnits="userSpaceOnUse">
<stop stop-color="#010005"/>
<stop offset="1" stop-color="#2E2D31"/>
</linearGradient>
<radialGradient id="paint14_radial_809_1484" cx="0" cy="0" r="1" gradientUnits="userSpaceOnUse" gradientTransform="translate(165.364 32.9954) rotate(90) scale(2.41518 0.992962)">
<stop stop-color="#1F85DE"/>
<stop offset="0.257948" stop-color="#1B75C9"/>
<stop offset="1" stop-color="#000232"/>
</radialGradient>
<radialGradient id="paint15_radial_809_1484" cx="0" cy="0" r="1" gradientUnits="userSpaceOnUse" gradientTransform="translate(0.484837 1.88341) rotate(90) scale(2.41518 0.992962)">
<stop stop-color="#1F85DE"/>
<stop offset="0.257948" stop-color="#1B75C9"/>
<stop offset="1" stop-color="#000232"/>
</radialGradient>
<clipPath id="clip0_809_1484">
<rect x="98.6816" y="20.0898" width="78.4753" height="22.6009" rx="11.3004" fill="white"/>
</clipPath>
</defs>
</svg>
