<svg width="375" height="149" viewBox="0 0 375 149" fill="none" xmlns="http://www.w3.org/2000/svg">
<path d="M79.9199 121.226L160.242 103.352L160.242 114.097L88.4876 129.205L160.242 144.313L160.242 155.059L79.9199 137.185L79.9199 121.226Z" fill="#020726"/>
<path d="M-0.000243359 69.6514L80.3214 51.7773L80.3214 62.523L8.56741 77.6309L80.3214 92.7387L80.3214 103.484L-0.000242662 85.6104L-0.000243359 69.6514Z" fill="#020726"/>
<path d="M294.678 120.909L375 103.035L375 113.781L303.246 128.889L375 143.997L375 154.742L294.678 136.868L294.678 120.909Z" fill="#020726"/>
<path d="M214.356 120.909L294.678 103.035L294.678 113.781L222.924 128.889L294.678 143.997L294.678 154.742L214.356 136.868L214.356 120.909Z" fill="#020726"/>
<path d="M214.356 69.4444L294.678 51.5703L294.678 62.316L222.924 77.4239L294.678 92.5317L294.678 103.277L214.356 85.4033L214.356 69.4444Z" fill="#020726"/>
<path d="M294.277 17.8741L374.598 -3.51097e-06L374.598 10.7457L302.844 25.8535L374.598 40.9614L374.598 51.7071L294.277 33.833L294.277 17.8741Z" fill="#020726"/>
</svg>
