<svg width="375" height="140" viewBox="0 0 375 140" fill="none" xmlns="http://www.w3.org/2000/svg">
<path d="M80.3215 54.2569L160.643 36.3828L160.643 47.1285L88.8892 62.2364L160.643 77.3442L160.643 88.0899L80.3215 70.2158L80.3215 54.2569Z" fill="#020726"/>
<path d="M-0.000243359 54.2569L80.3214 36.3828L80.3214 47.1285L8.56741 62.2364L80.3214 77.3442L80.3214 88.0899L-0.000242662 70.2158L-0.000243359 54.2569Z" fill="#020726"/>
<path d="M79.9199 105.935L160.242 88.0605L160.242 98.8063L88.4876 113.914L160.242 129.022L160.242 139.768L79.9199 121.894L79.9199 105.935Z" fill="#020726"/>
<path d="M-0.000243359 2.79397L80.3214 -15.0801L80.3214 -4.33437L8.56741 10.7735L80.3214 25.8813L80.3214 36.627L-0.000242662 18.7529L-0.000243359 2.79397Z" fill="#020726"/>
<path d="M294.277 2.58499L374.598 -15.2891L374.598 -4.54336L302.844 10.5645L374.598 25.6723L374.598 36.418L294.277 18.544L294.277 2.58499Z" fill="#020726"/>
<path d="M214.175 54.2627L294.497 36.3887L294.497 47.1344L222.743 62.2422L294.497 77.35L294.497 88.0957L214.175 70.2217L214.175 54.2627Z" fill="#020726"/>
</svg>
