<svg width="490" height="303" viewBox="0 0 490 303" fill="none" xmlns="http://www.w3.org/2000/svg">
<g clip-path="url(#clip0_1355_3568)">
<path d="M104.919 225.301L209.838 201.953L209.838 215.99L116.111 235.724L209.838 255.458L209.838 269.495L104.919 246.147L104.919 225.301Z" fill="#020726"/>
<path d="M0.000123091 225.301L104.919 201.953L104.919 215.99L11.1915 235.724L104.919 255.458L104.919 269.495L0.000124002 246.147L0.000123091 225.301Z" fill="#020726"/>
<path d="M104.395 292.805L209.314 269.457L209.314 283.493L115.586 303.228L209.314 322.962L209.314 336.999L104.395 313.651L104.395 292.805Z" fill="#020726"/>
<path d="M0.000123091 158.078L104.919 134.73L104.919 148.767L11.1915 168.501L104.919 188.236L104.919 202.272L0.000124002 178.924L0.000123091 158.078Z" fill="#020726"/>
<path d="M104.395 90.7149L209.314 67.3672L209.314 81.4036L115.586 101.138L209.314 120.872L209.314 134.909L104.395 111.561L104.395 90.7149Z" fill="#020726"/>
<path d="M0.000123091 23.3477L104.919 -4.58616e-06L104.919 14.0364L11.1915 33.7708L104.919 53.5052L104.919 67.5416L0.000124002 44.1939L0.000123091 23.3477Z" fill="#020726"/>
<path d="M384.919 90.3008L489.838 66.9531L489.838 80.9895L396.111 100.724L489.838 120.458L489.838 134.495L384.919 111.147L384.919 90.3008Z" fill="#020726"/>
<path d="M280 90.3008L384.919 66.9531L384.919 80.9895L291.191 100.724L384.919 120.458L384.919 134.495L280 111.147L280 90.3008Z" fill="#020726"/>
<path d="M384.395 157.805L489.314 134.457L489.314 148.493L395.586 168.228L489.314 187.962L489.314 201.999L384.395 178.651L384.395 157.805Z" fill="#020726"/>
<path d="M280 23.0782L384.919 -0.269536L384.919 13.7669L291.191 33.5013L384.919 53.2356L384.919 67.2721L280 43.9244L280 23.0782Z" fill="#020726"/>
<path d="M279.763 225.309L384.682 201.961L384.682 215.997L290.954 235.732L384.682 255.466L384.682 269.503L279.763 246.155L279.763 225.309Z" fill="#020726"/>
</g>
<defs>
<clipPath id="clip0_1355_3568">
<rect width="490" height="303" fill="white"/>
</clipPath>
</defs>
</svg>
