<svg width="666" height="491" viewBox="0 0 666 491" fill="none" xmlns="http://www.w3.org/2000/svg">
<path d="M1.45692e-06 64.3969L152.772 98.416L152.772 77.9641L16.2957 49.2098L152.772 20.4556L152.772 0.00359236L2.75775e-06 34.0227L1.45692e-06 64.3969Z" fill="#020726"/>
<path d="M513.221 161.875L665.993 195.895L665.993 175.443L529.516 146.688L665.993 117.934L665.993 97.4821L513.221 131.501L513.221 161.875Z" fill="#020726"/>
<path d="M343.204 359.735L495.976 393.754L495.976 373.302L359.5 344.548L495.976 315.793L495.976 295.341L343.204 329.361L343.204 359.735Z" fill="#020726"/>
<path d="M342.44 261.383L495.211 295.402L495.211 274.95L358.735 246.196L495.211 217.442L495.211 196.99L342.44 231.009L342.44 261.383Z" fill="#020726"/>
<path d="M171.546 163.426L324.317 197.445L324.317 176.993L187.841 148.239L324.317 119.485L324.317 99.0329L171.546 133.052L171.546 163.426Z" fill="#020726"/>
<path d="M170.782 65.0727L323.554 99.0918L323.554 78.6398L187.077 49.8856L323.554 21.1313L323.554 0.679374L170.782 34.6985L170.782 65.0727Z" fill="#020726"/>
<path d="M513.221 64.393L665.993 98.4121L665.993 77.9602L529.516 49.2059L665.993 20.4517L665.993 -0.000313892L513.221 34.0188L513.221 64.393Z" fill="#020726"/>
<path d="M513.221 259.832L665.992 293.852L665.992 273.4L529.516 244.645L665.992 215.891L665.992 195.439L513.221 229.458L513.221 259.832Z" fill="#020726"/>
<path d="M342.439 65.0727L495.211 99.0918L495.211 78.6398L358.735 49.8856L495.211 21.1313L495.211 0.679374L342.439 34.6985L342.439 65.0727Z" fill="#020726"/>
<path d="M513.221 456.141L665.993 490.16L665.993 469.708L529.516 440.954L665.993 412.2L665.993 391.748L513.221 425.767L513.221 456.141Z" fill="#020726"/>
</svg>
